<?xml version="1.0" encoding="utf-8"?>
<svg xmlns="http://www.w3.org/2000/svg" xmlns:xlink="http://www.w3.org/1999/xlink" style="margin: auto; background: rgb(114, 84, 201); display: block; z-index: 1; position: relative; shape-rendering: auto;" width="1454" height="684" preserveAspectRatio="xMidYMid" viewBox="0 0 1454 684">
<g transform=""><path d="M -100 407.6 C -71.8524 407.445 -72.7608 401.33 -46.65 401.33 S -19.8261 402.582 6.71 402.582 S 34.6389 409.27 60.06 409.27 S 88.1267 398.405 113.42 398.405 S 141.498 398.251 166.77 398.251 S 193.983 403.261 220.13 403.261 S 247.513 404.372 273.48 404.372 S 301.354 403.126 326.84 403.126 S 353.939 406.156 380.19 406.156 S 408.318 405.849 433.55 405.849 S 461.027 408.799 486.9 408.799 S 514.745 402.251 540.26 402.251 S 568.192 401.853 593.61 401.853 S 621.195 405.297 646.97 405.297 S 674.312 401.373 700.32 401.373 S 727.91 408.502 753.68 408.502 S 780.887 409.986 807.03 409.986 S 834.278 402.667 860.39 402.667 S 887.812 406.78 913.74 406.78 S 941.04 398.317 967.1 398.317 S 994.33 406.361 1020.45 406.361 S 1048.58 412.528 1073.81 412.528 S 1101.21 409.87 1127.16 409.87 S 1154.76 408.238 1180.52 408.238 S 1207.88 404.135 1233.87 404.135 S 1261.58 405.561 1287.23 405.561 S 1314.35 401.703 1340.58 401.703 S 1367.79 410.656 1393.94 410.656 S 1421.48 400.74 1447.29 400.74 S 1474.83 406.202 1500.65 406.202 S 1528.39 402.891 1554 402.891 S 1581.68 399.534 1607.35 399.534 L 1554 684 L -100 684 Z" fill="#35226c" stroke-width="0" transform="translate(2.91849 0)">
  <animate attributeName="d" dur="25s" repeatCount="indefinite" values="M-100 405.92C-71.67 412.5 -73.08 399.73 -46.65 399.73S-19.77 399.06 6.71 399.06S34.46 412.35 60.06 412.35S88.26 397.7 113.42 397.7S141.68 398.03 166.77 398.03S193.92 405.71 220.13 405.71S247.86 406.01 273.48 406.01S301.54 403.13 326.84 403.13S353.82 403.89 380.19 403.89S408.5 410.61 433.55 410.61S460.89 413.36 486.9 413.36S514.97 397.55 540.26 397.55S567.95 397.11 593.61 397.11S621.22 407.96 646.97 407.96S673.81 401.44 700.32 401.44S728.11 407.8 753.68 407.8S780.82 413.28 807.03 413.28S834.52 402.39 860.39 402.39S887.97 403.37 913.74 403.37S940.91 398.17 967.1 398.17S994.59 403.39 1020.45 403.39S1048.77 412.84 1073.81 412.84S1101.42 412.02 1127.16 412.02S1155.25 412.16 1180.52 412.16S1207.97 404.17 1233.87 404.17S1262 408.69 1287.23 408.69S1314.39 401.38 1340.58 401.38S1367.71 412.2 1393.94 412.2S1421.74 398.74 1447.29 398.74S1474.77 405.1 1500.65 405.1S1528.19 400.4 1554 400.4S1581.77 399.85 1607.35 399.85L1554 684 L-100 684 Z;M-100 410.71C-72.19 398.09 -72.17 404.29 -46.65 404.29S-19.93 409.1 6.71 409.1S34.97 403.57 60.06 403.57S87.88 399.71 113.42 399.71S141.16 398.66 166.77 398.66S194.1 398.73 220.13 398.73S246.87 401.34 273.48 401.34S301.01 403.12 326.84 403.12S354.16 410.35 380.19 410.35S407.98 397.04 433.55 397.04S461.28 400.36 486.9 400.36S514.33 410.95 540.26 410.95S568.64 410.63 593.61 410.63S621.15 400.37 646.97 400.37S675.24 401.25 700.32 401.25S727.54 409.8 753.68 409.8S781.01 403.89 807.03 403.89S833.83 403.18 860.39 403.18S887.52 413.09 913.74 413.09S941.28 398.59 967.1 398.59S993.85 411.86 1020.45 411.86S1048.24 411.95 1073.81 411.95S1100.83 405.89 1127.16 405.89S1153.85 400.98 1180.52 400.98S1207.72 404.07 1233.87 404.07S1260.79 399.77 1287.23 399.77S1314.28 402.3 1340.58 402.3S1367.93 407.8 1393.94 407.8S1420.99 404.44 1447.29 404.44S1474.94 408.24 1500.65 408.24S1528.77 407.5 1554 407.5S1581.5 398.95 1607.35 398.95L1554 684 L-100 684 Z;M-100 405.92C-71.67 412.5 -73.08 399.73 -46.65 399.73S-19.77 399.06 6.71 399.06S34.46 412.35 60.06 412.35S88.26 397.7 113.42 397.7S141.68 398.03 166.77 398.03S193.92 405.71 220.13 405.71S247.86 406.01 273.48 406.01S301.54 403.13 326.84 403.13S353.82 403.89 380.19 403.89S408.5 410.61 433.55 410.61S460.89 413.36 486.9 413.36S514.97 397.55 540.26 397.55S567.95 397.11 593.61 397.11S621.22 407.96 646.97 407.96S673.81 401.44 700.32 401.44S728.11 407.8 753.68 407.8S780.82 413.28 807.03 413.28S834.52 402.39 860.39 402.39S887.97 403.37 913.74 403.37S940.91 398.17 967.1 398.17S994.59 403.39 1020.45 403.39S1048.77 412.84 1073.81 412.84S1101.42 412.02 1127.16 412.02S1155.25 412.16 1180.52 412.16S1207.97 404.17 1233.87 404.17S1262 408.69 1287.23 408.69S1314.39 401.38 1340.58 401.38S1367.71 412.2 1393.94 412.2S1421.74 398.74 1447.29 398.74S1474.77 405.1 1500.65 405.1S1528.19 400.4 1554 400.4S1581.77 399.85 1607.35 399.85L1554 684 L-100 684 Z"></animate>
  <animateTransform attributeName="transform" type="translate" dur="25s" begin="0s" repeatCount="indefinite" values="0;10;0" calcMode="spline" keySplines="0.3 0 0.7 1;0.3 0 0.7 1"></animateTransform>
</path><path d="M -100 418.242 C -71.6422 425.81 -71.6646 432.78 -45.23 432.78 S -16.7027 422.296 9.54 422.296 S 37.8007 427.278 64.3 427.278 S 92.9139 423.599 119.07 423.599 S 146.832 422.059 173.84 422.059 S 202.175 420.202 228.61 420.202 S 257.125 420.623 283.38 420.623 S 312.163 422.635 338.15 422.635 S 366.115 418.009 392.91 418.009 S 421.476 424.995 447.68 424.995 S 475.771 420.275 502.45 420.275 S 530.148 428.361 557.22 428.361 S 585.339 423.464 611.99 423.464 S 640.508 426.832 666.75 426.832 S 694.813 424.291 721.52 424.291 S 749.699 421.668 776.29 421.668 S 803.791 419.787 831.06 419.787 S 858.853 425.755 885.83 425.755 S 914.443 427.35 940.6 427.35 S 969.493 417.891 995.36 417.891 S 1024.1 422.545 1050.13 422.545 S 1078.29 423.388 1104.9 423.388 S 1133.43 430.073 1159.67 430.073 S 1187.82 428.79 1214.44 428.79 S 1242.58 426.832 1269.21 426.832 S 1297.7 421.488 1323.97 421.488 S 1352.47 422.953 1378.74 422.953 S 1407.11 419.403 1433.51 419.403 S 1461.12 423.13 1488.28 423.13 S 1516.55 427.908 1543.05 427.908 S 1570.93 430.457 1597.81 430.457 L 1554 684 L -100 684 Z" fill="#3b2775" stroke-width="0" transform="translate(6.27196 0)">
  <animate attributeName="d" dur="22.5s" repeatCount="indefinite" values="M-100 419.61C-71.88 429.63 -71.84 432.16 -45.23 432.16S-16.27 419.33 9.54 419.33S38.21 423.98 64.3 423.98S93.14 419.58 119.07 419.58S146.82 419.28 173.84 419.28S202.44 417.06 228.61 417.06S257.48 418.9 283.38 418.9S312.03 427.27 338.15 427.27S366.17 415.62 392.91 415.62S421.8 429.68 447.68 429.68S476.13 417.32 502.45 417.32S530.09 429.39 557.22 429.39S584.77 421.48 611.99 421.48S640.22 427.83 666.75 427.83S694.33 424.79 721.52 424.79S749.73 425.02 776.29 425.02S803.81 418.77 831.06 418.77S858.74 425.88 885.83 425.88S914.19 425.83 940.6 425.83S969.38 419.61 995.36 419.61S1024.15 424.49 1050.13 424.49S1077.8 418.8 1104.9 418.8S1133.96 431.73 1159.67 431.73S1188.17 429.39 1214.44 429.39S1242.59 428.52 1269.21 428.52S1297.81 417.52 1323.97 417.52S1352.23 416.88 1378.74 416.88S1406.73 417.98 1433.51 417.98S1461.12 424.19 1488.28 424.19S1516.33 431.65 1543.05 431.65S1570.89 433.77 1597.81 433.77L1554 684 L-100 684 Z;M-100 416.1C-71.27 419.83 -71.39 433.75 -45.23 433.75S-17.38 426.94 9.54 426.94S37.16 432.44 64.3 432.44S92.56 429.89 119.07 429.89S146.85 426.41 173.84 426.41S201.76 425.12 228.61 425.12S256.57 423.32 283.38 423.32S312.37 415.38 338.15 415.38S366.03 421.75 392.91 421.75S420.97 417.66 447.68 417.66S475.21 424.9 502.45 424.9S530.24 426.75 557.22 426.75S586.23 426.57 611.99 426.57S640.96 425.27 666.75 425.27S695.57 423.51 721.52 423.51S749.65 416.42 776.29 416.42S803.76 421.38 831.06 421.38S859.03 425.56 885.83 425.56S914.84 429.73 940.6 429.73S969.67 415.2 995.36 415.2S1024.03 419.5 1050.13 419.5S1079.05 430.57 1104.9 430.57S1132.59 427.48 1159.67 427.48S1187.26 427.85 1214.44 427.85S1242.57 424.19 1269.21 424.19S1297.53 427.7 1323.97 427.7S1352.84 432.46 1378.74 432.46S1407.7 421.63 1433.51 421.63S1461.11 421.47 1488.28 421.47S1516.9 422.05 1543.05 422.05S1570.99 425.27 1597.81 425.27L1554 684 L-100 684 Z;M-100 419.61C-71.88 429.63 -71.84 432.16 -45.23 432.16S-16.27 419.33 9.54 419.33S38.21 423.98 64.3 423.98S93.14 419.58 119.07 419.58S146.82 419.28 173.84 419.28S202.44 417.06 228.61 417.06S257.48 418.9 283.38 418.9S312.03 427.27 338.15 427.27S366.17 415.62 392.91 415.62S421.8 429.68 447.68 429.68S476.13 417.32 502.45 417.32S530.09 429.39 557.22 429.39S584.77 421.48 611.99 421.48S640.22 427.83 666.75 427.83S694.33 424.79 721.52 424.79S749.73 425.02 776.29 425.02S803.81 418.77 831.06 418.77S858.74 425.88 885.83 425.88S914.19 425.83 940.6 425.83S969.38 419.61 995.36 419.61S1024.15 424.49 1050.13 424.49S1077.8 418.8 1104.9 418.8S1133.96 431.73 1159.67 431.73S1188.17 429.39 1214.44 429.39S1242.59 428.52 1269.21 428.52S1297.81 417.52 1323.97 417.52S1352.23 416.88 1378.74 416.88S1406.73 417.98 1433.51 417.98S1461.12 424.19 1488.28 424.19S1516.33 431.65 1543.05 431.65S1570.89 433.77 1597.81 433.77L1554 684 L-100 684 Z"></animate>
  <animateTransform attributeName="transform" type="translate" dur="22.5s" begin="-2.25s" repeatCount="indefinite" values="0;10;0" calcMode="spline" keySplines="0.3 0 0.7 1;0.3 0 0.7 1"></animateTransform>
</path><path d="M -100 442.6 C -71.5356 432.888 -70.8957 442.112 -43.74 442.112 S -14.1293 434.585 12.52 434.585 S 41.2597 449.665 68.78 449.665 S 97.5029 436.997 125.03 436.997 S 153.99 448.737 181.29 448.737 S 210.276 436.011 237.55 436.011 S 267.016 447.508 293.81 447.508 S 323.007 440.798 350.07 440.798 S 378.94 449.846 406.33 449.846 S 435.374 444.873 462.59 444.873 S 491.244 447.54 518.84 447.54 S 547.672 432.517 575.1 432.517 S 604.422 443.894 631.36 443.894 S 660.052 440.672 687.62 440.672 S 716.069 441.651 743.88 441.651 S 773.106 441.594 800.14 441.594 S 829.184 448.184 856.39 448.184 S 885.094 441.184 912.65 441.184 S 941.274 445.975 968.91 445.975 S 998.128 438.531 1025.17 438.531 S 1054.47 441.688 1081.43 441.688 S 1110.17 443.798 1137.69 443.798 S 1166.88 440.686 1193.95 440.686 S 1222.91 446.167 1250.2 446.167 S 1279.41 446.216 1306.46 446.216 S 1335.23 433.84 1362.72 433.84 S 1391.57 444.202 1418.98 444.202 S 1447.96 440.268 1475.24 440.268 S 1504.52 440.44 1531.5 440.44 S 1560.89 436.592 1587.76 436.592 L 1554 684 L -100 684 Z" fill="#412b7e" stroke-width="0" transform="translate(9.22439 0)">
  <animate attributeName="d" dur="20s" repeatCount="indefinite" values="M-100 447.66C-71.54 433.87 -71.15 440.31 -43.74 440.31S-14.16 435.51 12.52 435.51S40.83 453.87 68.78 453.87S97.88 438.08 125.03 438.08S154.06 447.43 181.29 447.43S210.5 437.8 237.55 437.8S266.92 447.67 293.81 447.67S322.59 435.54 350.07 435.54S378.94 450.07 406.33 450.07S435.72 442.04 462.59 442.04S491.38 446.58 518.84 446.58S547.69 433.28 575.1 433.28S604.08 442.53 631.36 442.53S659.92 439.51 687.62 439.51S716.17 444.3 743.88 444.3S773.68 438.63 800.14 438.63S828.96 454.06 856.39 454.06S884.66 439.75 912.65 439.75S941.62 439.88 968.91 439.88S998.04 432.83 1025.17 432.83S1054.49 444.17 1081.43 444.17S1109.71 440.43 1137.69 440.43S1166.63 437.95 1193.95 437.95S1223.54 450.1 1250.2 450.1S1279.2 452.14 1306.46 452.14S1335.07 433.63 1362.72 433.63S1391.37 447.5 1418.98 447.5S1448.19 440.5 1475.24 440.5S1504.63 435.84 1531.5 435.84S1560.61 433.72 1587.76 433.72L1554 684 L-100 684 Z;M-100 436.12C-71.53 431.63 -70.57 444.42 -43.74 444.42S-14.09 433.4 12.52 433.4S41.81 444.28 68.78 444.28S97.02 435.61 125.03 435.61S153.9 450.41 181.29 450.41S209.99 433.72 237.55 433.72S267.14 447.3 293.81 447.3S323.54 447.53 350.07 447.53S378.94 449.56 406.33 449.56S434.93 448.5 462.59 448.5S491.07 448.77 518.84 448.77S547.65 431.54 575.1 431.54S604.86 445.64 631.36 445.64S660.22 442.16 687.62 442.16S715.94 438.26 743.88 438.26S772.37 445.39 800.14 445.39S829.47 440.66 856.39 440.66S885.65 443.02 912.65 443.02S940.83 453.78 968.91 453.78S998.24 445.83 1025.17 445.83S1054.44 438.51 1081.43 438.51S1110.76 448.11 1137.69 448.11S1167.2 444.19 1193.95 444.19S1222.1 441.13 1250.2 441.13S1279.69 438.63 1306.46 438.63S1335.43 434.11 1362.72 434.11S1391.82 439.98 1418.98 439.98S1447.67 439.97 1475.24 439.97S1504.38 446.33 1531.5 446.33S1561.25 440.27 1587.76 440.27L1554 684 L-100 684 Z;M-100 447.66C-71.54 433.87 -71.15 440.31 -43.74 440.31S-14.16 435.51 12.52 435.51S40.83 453.87 68.78 453.87S97.88 438.08 125.03 438.08S154.06 447.43 181.29 447.43S210.5 437.8 237.55 437.8S266.92 447.67 293.81 447.67S322.59 435.54 350.07 435.54S378.94 450.07 406.33 450.07S435.72 442.04 462.59 442.04S491.38 446.58 518.84 446.58S547.69 433.28 575.1 433.28S604.08 442.53 631.36 442.53S659.92 439.51 687.62 439.51S716.17 444.3 743.88 444.3S773.68 438.63 800.14 438.63S828.96 454.06 856.39 454.06S884.66 439.75 912.65 439.75S941.62 439.88 968.91 439.88S998.04 432.83 1025.17 432.83S1054.49 444.17 1081.43 444.17S1109.71 440.43 1137.69 440.43S1166.63 437.95 1193.95 437.95S1223.54 450.1 1250.2 450.1S1279.2 452.14 1306.46 452.14S1335.07 433.63 1362.72 433.63S1391.37 447.5 1418.98 447.5S1448.19 440.5 1475.24 440.5S1504.63 435.84 1531.5 435.84S1560.61 433.72 1587.76 433.72L1554 684 L-100 684 Z"></animate>
  <animateTransform attributeName="transform" type="translate" dur="20s" begin="-4s" repeatCount="indefinite" values="0;10;0" calcMode="spline" keySplines="0.3 0 0.7 1;0.3 0 0.7 1"></animateTransform>
</path><path d="M -100 457.207 C -70.5605 454.647 -70.0199 463.074 -42.17 463.074 S -12.2001 455.465 15.66 455.465 S 45.2689 472.445 73.5 472.445 S 103.203 453.884 131.33 453.884 S 161.695 469.878 189.16 469.878 S 219.075 458.187 246.99 458.187 S 277.184 468.941 304.83 468.941 S 334.601 462.717 362.66 462.717 S 393.025 471.025 420.49 471.025 S 450.21 460.019 478.32 460.019 S 507.887 470.047 536.15 470.047 S 565.776 460.863 593.99 460.863 S 623.514 467.712 651.82 467.712 S 681.336 459.022 709.65 459.022 S 739.576 470.04 767.48 470.04 S 796.96 456.057 825.31 456.057 S 855.16 464.713 883.15 464.713 S 913.059 459.055 940.98 459.055 S 970.725 466.637 998.81 466.637 S 1028.44 458.625 1056.64 458.625 S 1086 462.667 1114.48 462.667 S 1144.58 465.292 1172.31 465.292 S 1201.65 468.989 1230.14 468.989 S 1259.78 457.255 1287.97 457.255 S 1317.64 464.309 1345.8 464.309 S 1375.89 460.512 1403.64 460.512 S 1433.32 461.145 1461.47 461.145 S 1491.13 457.683 1519.3 457.683 S 1548.51 460.91 1577.13 460.91 L 1554 684 L -100 684 Z" fill="#473087" stroke-width="0" transform="translate(9.67096 0)">
  <animate attributeName="d" dur="17.5s" repeatCount="indefinite" values="M-100 451.99C-70.33 449.31 -70.05 465.68 -42.17 465.68S-12.15 451.26 15.66 451.26S45.75 472.27 73.5 472.27S103.89 452.09 131.33 452.09S161.62 474.9 189.16 474.9S219.22 457.17 246.99 457.17S277.47 468.6 304.83 468.6S334.26 461.88 362.66 461.88S392.85 473.35 420.49 473.35S450.1 462.73 478.32 462.73S507.24 469.38 536.15 469.38S565.39 459.72 593.99 459.72S623.8 469.13 651.82 469.13S681 453.94 709.65 453.94S739.24 467.99 767.48 467.99S797.08 459.41 825.31 459.41S855.32 469.7 883.15 469.7S913.34 452.61 940.98 452.61S970.86 465.62 998.81 465.62S1028.36 458.5 1056.64 458.5S1086.04 463.78 1114.48 463.78S1144.15 460.3 1172.31 460.3S1202 467.43 1230.14 467.43S1260.27 457.13 1287.97 457.13S1317.36 462.62 1345.8 462.62S1375.65 463.94 1403.64 463.94S1433.76 452.3 1461.47 452.3S1491.11 456.34 1519.3 456.34S1548.42 463.13 1577.13 463.13L1554 684 L-100 684 Z;M-100 462.4C-70.79 459.96 -69.99 460.48 -42.17 460.48S-12.25 459.65 15.66 459.65S44.79 472.62 73.5 472.62S102.52 455.67 131.33 455.67S161.77 464.88 189.16 464.88S218.93 459.2 246.99 459.2S276.9 469.28 304.83 469.28S334.94 463.55 362.66 463.55S393.2 468.71 420.49 468.71S450.32 457.32 478.32 457.32S508.53 470.71 536.15 470.71S566.16 462 593.99 462S623.23 466.3 651.82 466.3S681.67 464.08 709.65 464.08S739.91 472.08 767.48 472.08S796.84 452.72 825.31 452.72S855 459.75 883.15 459.75S912.78 465.47 940.98 465.47S970.59 467.65 998.81 467.65S1028.52 458.75 1056.64 458.75S1085.96 461.56 1114.48 461.56S1145 470.26 1172.31 470.26S1201.31 470.54 1230.14 470.54S1259.3 457.38 1287.97 457.38S1317.92 465.99 1345.8 465.99S1376.13 457.1 1403.64 457.1S1432.89 469.95 1461.47 469.95S1491.15 459.02 1519.3 459.02S1548.59 458.7 1577.13 458.7L1554 684 L-100 684 Z;M-100 451.99C-70.33 449.31 -70.05 465.68 -42.17 465.68S-12.15 451.26 15.66 451.26S45.75 472.27 73.5 472.27S103.89 452.09 131.33 452.09S161.62 474.9 189.16 474.9S219.22 457.17 246.99 457.17S277.47 468.6 304.83 468.6S334.26 461.88 362.66 461.88S392.85 473.35 420.49 473.35S450.1 462.73 478.32 462.73S507.24 469.38 536.15 469.38S565.39 459.72 593.99 459.72S623.8 469.13 651.82 469.13S681 453.94 709.65 453.94S739.24 467.99 767.48 467.99S797.08 459.41 825.31 459.41S855.32 469.7 883.15 469.7S913.34 452.61 940.98 452.61S970.86 465.62 998.81 465.62S1028.36 458.5 1056.64 458.5S1086.04 463.78 1114.48 463.78S1144.15 460.3 1172.31 460.3S1202 467.43 1230.14 467.43S1260.27 457.13 1287.97 457.13S1317.36 462.62 1345.8 462.62S1375.65 463.94 1403.64 463.94S1433.76 452.3 1461.47 452.3S1491.11 456.34 1519.3 456.34S1548.42 463.13 1577.13 463.13L1554 684 L-100 684 Z"></animate>
  <animateTransform attributeName="transform" type="translate" dur="17.5s" begin="-5.25s" repeatCount="indefinite" values="0;10;0" calcMode="spline" keySplines="0.3 0 0.7 1;0.3 0 0.7 1"></animateTransform>
</path><path d="M -100 484.202 C -69.6907 474.859 -68.9023 485.932 -40.5 485.932 S -10.5523 478.002 18.99 478.002 S 49.8031 487.283 78.49 487.283 S 109.159 482.299 137.99 482.299 S 168.797 484.252 197.48 484.252 S 228.177 480.832 256.98 480.832 S 287.401 481.333 316.47 481.333 S 347.001 480.131 375.97 480.131 S 406.462 486.464 435.47 486.464 S 466.533 469.987 494.96 469.987 S 526.111 488.972 554.46 488.972 S 584.819 471.86 613.96 471.86 S 644.205 482.545 673.45 482.545 S 704 479.608 732.95 479.608 S 763.634 484.476 792.45 484.476 S 823.468 474.539 851.94 474.539 S 882.27 489.588 911.44 489.588 S 942.094 478.699 970.94 478.699 S 1001.33 485.106 1030.43 485.106 S 1060.54 467.787 1089.93 467.787 S 1120.19 489.53 1149.42 489.53 S 1179.76 472.554 1208.92 472.554 S 1239.32 486.853 1268.42 486.853 S 1299.36 477.425 1327.91 477.425 S 1358.35 487.978 1387.41 487.978 S 1418.15 483.852 1446.91 483.852 S 1477.02 489.407 1506.4 489.407 S 1536.34 474.211 1565.9 474.211 L 1554 684 L -100 684 Z" fill="#4d3590" stroke-width="0" transform="translate(6.62447 0)">
  <animate attributeName="d" dur="15s" repeatCount="indefinite" values="M-100 490.61C-70.1 483.05 -68.99 494.17 -40.5 494.17S-10.64 472.81 18.99 472.81S49.54 489.92 78.49 489.92S109.34 491.94 137.99 491.94S169.37 482.1 197.48 482.1S227.47 480.51 256.98 480.51S288.26 479.69 316.47 479.69S347.89 481.16 375.97 481.16S406.76 477.74 435.47 477.74S466.72 472.91 494.96 472.91S526.31 485.85 554.46 485.85S584.93 477.52 613.96 477.52S644.48 480.51 673.45 480.51S703.41 490.74 732.95 490.74S763.57 488.16 792.45 488.16S823.38 479.69 851.94 479.69S882.2 488.6 911.44 488.6S942.17 474.46 970.94 474.46S1001.66 490.14 1030.43 490.14S1060.31 470.74 1089.93 470.74S1119.7 484.87 1149.42 484.87S1179.5 469.8 1208.92 469.8S1239.43 493.77 1268.42 493.77S1299.4 472.49 1327.91 472.49S1358.99 482.85 1387.41 482.85S1418.37 492.64 1446.91 492.64S1476.83 487.46 1506.4 487.46S1536.3 465.78 1565.9 465.78L1554 684 L-100 684 Z;M-100 479.65C-69.4 469.04 -68.84 480.08 -40.5 480.08S-10.49 481.69 18.99 481.69S49.99 485.41 78.49 485.41S109.03 475.45 137.99 475.45S168.39 485.78 197.48 485.78S228.68 481.06 256.98 481.06S286.79 482.5 316.47 482.5S346.37 479.4 375.97 479.4S406.25 492.66 435.47 492.66S466.4 467.91 494.96 467.91S525.97 491.19 554.46 491.19S584.74 467.84 613.96 467.84S644.01 483.99 673.45 483.99S704.42 471.7 732.95 471.7S763.68 481.86 792.45 481.86S823.53 470.88 851.94 470.88S882.32 490.29 911.44 490.29S942.04 481.71 970.94 481.71S1001.09 481.53 1030.43 481.53S1060.71 465.69 1089.93 465.69S1120.54 492.84 1149.42 492.84S1179.95 474.51 1208.92 474.51S1239.25 481.94 1268.42 481.94S1299.34 480.93 1327.91 480.93S1357.9 491.62 1387.41 491.62S1417.99 477.61 1446.91 477.61S1477.15 490.79 1506.4 490.79S1536.36 480.2 1565.9 480.2L1554 684 L-100 684 Z;M-100 490.61C-70.1 483.05 -68.99 494.17 -40.5 494.17S-10.64 472.81 18.99 472.81S49.54 489.92 78.49 489.92S109.34 491.94 137.99 491.94S169.37 482.1 197.48 482.1S227.47 480.51 256.98 480.51S288.26 479.69 316.47 479.69S347.89 481.16 375.97 481.16S406.76 477.74 435.47 477.74S466.72 472.91 494.96 472.91S526.31 485.85 554.46 485.85S584.93 477.52 613.96 477.52S644.48 480.51 673.45 480.51S703.41 490.74 732.95 490.74S763.57 488.16 792.45 488.16S823.38 479.69 851.94 479.69S882.2 488.6 911.44 488.6S942.17 474.46 970.94 474.46S1001.66 490.14 1030.43 490.14S1060.31 470.74 1089.93 470.74S1119.7 484.87 1149.42 484.87S1179.5 469.8 1208.92 469.8S1239.43 493.77 1268.42 493.77S1299.4 472.49 1327.91 472.49S1358.99 482.85 1387.41 482.85S1418.37 492.64 1446.91 492.64S1476.83 487.46 1506.4 487.46S1536.3 465.78 1565.9 465.78L1554 684 L-100 684 Z"></animate>
  <animateTransform attributeName="transform" type="translate" dur="15s" begin="-6s" repeatCount="indefinite" values="0;10;0" calcMode="spline" keySplines="0.3 0 0.7 1;0.3 0 0.7 1"></animateTransform>
</path><path d="M -100 492.84 C -68.969 488.245 -68.2397 495.634 -38.74 495.634 S -7.03064 487.698 22.52 487.698 S 53.6874 505.963 83.78 505.963 S 115.693 487.012 145.04 487.012 S 176.236 504.012 206.3 504.012 S 237.678 503.212 267.56 503.212 S 298.887 504.628 328.81 504.628 S 360.681 497.167 390.07 497.167 S 421.371 503.878 451.33 503.878 S 483.304 497.616 512.59 497.616 S 544.603 502.861 573.85 502.861 S 604.811 492.304 635.11 492.304 S 665.993 502.52 696.37 502.52 S 727.583 483.289 757.63 483.289 S 789.161 512.127 818.89 512.127 S 850.699 491.318 880.15 491.318 S 912.06 496.148 941.41 496.148 S 973.226 494.336 1002.67 494.336 S 1033.96 512.222 1063.93 512.222 S 1095.65 495.852 1125.19 495.852 S 1157.23 501.277 1186.44 501.277 S 1217.54 485.762 1247.7 485.762 S 1279.55 510.164 1308.96 510.164 S 1340.75 496.178 1370.22 496.178 S 1401.52 506.399 1431.48 506.399 S 1463.01 493.57 1492.74 493.57 S 1524.3 496.073 1554 496.073 S 1585.53 490.647 1615.26 490.647 L 1554 684 L -100 684 Z" fill="#533a99" stroke-width="0" transform="translate(2.24367 0)">
  <animate attributeName="d" dur="12.5s" repeatCount="indefinite" values="M-100 489.97C-68.12 487.67 -69.25 485.11 -38.74 485.11S-7.62 494.96 22.52 494.96S53.94 509.99 83.78 509.99S115.56 482.22 145.04 482.22S176.11 508.72 206.3 508.72S238.45 498.89 267.56 498.89S298.27 502.86 328.81 502.86S359.65 495.42 390.07 495.42S420.88 503.59 451.33 503.59S482.68 495.49 512.59 495.49S544.4 514.34 573.85 514.34S604.72 514.44 635.11 514.44S665.79 499.44 696.37 499.44S727.73 482.37 757.63 482.37S788.6 516.21 818.89 516.21S849.78 483.53 880.15 483.53S911.45 513.24 941.41 513.24S972.58 496.75 1002.67 496.75S1034.04 514.65 1063.93 514.65S1095.11 494.54 1125.19 494.54S1157.21 500.07 1186.44 500.07S1217.31 486.33 1247.7 486.33S1279.68 513.23 1308.96 513.23S1341.23 509.6 1370.22 509.6S1401.03 507.15 1431.48 507.15S1463.44 484.4 1492.74 484.4S1524.83 501.04 1554 501.04S1585.21 493.51 1615.26 493.51L1554 684 L-100 684 Z;M-100 494.06C-69.33 488.49 -67.81 500.11 -38.74 500.11S-6.78 484.61 22.52 484.61S53.58 504.25 83.78 504.25S115.75 489.05 145.04 489.05S176.29 502.01 206.3 502.01S237.35 505.05 267.56 505.05S299.15 505.38 328.81 505.38S361.12 497.91 390.07 497.91S421.58 504 451.33 504S483.57 498.52 512.59 498.52S544.69 497.98 573.85 497.98S604.85 482.89 635.11 482.89S666.08 503.83 696.37 503.83S727.52 483.68 757.63 483.68S789.4 510.39 818.89 510.39S851.09 494.63 880.15 494.63S912.32 488.88 941.41 488.88S973.5 493.31 1002.67 493.31S1033.93 511.19 1063.93 511.19S1095.88 496.41 1125.19 496.41S1157.24 501.79 1186.44 501.79S1217.64 485.52 1247.7 485.52S1279.49 508.86 1308.96 508.86S1340.54 490.47 1370.22 490.47S1401.73 506.08 1431.48 506.08S1462.83 497.47 1492.74 497.47S1524.07 493.96 1554 493.96S1585.67 489.43 1615.26 489.43L1554 684 L-100 684 Z;M-100 489.97C-68.12 487.67 -69.25 485.11 -38.74 485.11S-7.62 494.96 22.52 494.96S53.94 509.99 83.78 509.99S115.56 482.22 145.04 482.22S176.11 508.72 206.3 508.72S238.45 498.89 267.56 498.89S298.27 502.86 328.81 502.86S359.65 495.42 390.07 495.42S420.88 503.59 451.33 503.59S482.68 495.49 512.59 495.49S544.4 514.34 573.85 514.34S604.72 514.44 635.11 514.44S665.79 499.44 696.37 499.44S727.73 482.37 757.63 482.37S788.6 516.21 818.89 516.21S849.78 483.53 880.15 483.53S911.45 513.24 941.41 513.24S972.58 496.75 1002.67 496.75S1034.04 514.65 1063.93 514.65S1095.11 494.54 1125.19 494.54S1157.21 500.07 1186.44 500.07S1217.31 486.33 1247.7 486.33S1279.68 513.23 1308.96 513.23S1341.23 509.6 1370.22 509.6S1401.03 507.15 1431.48 507.15S1463.44 484.4 1492.74 484.4S1524.83 501.04 1554 501.04S1585.21 493.51 1615.26 493.51L1554 684 L-100 684 Z"></animate>
  <animateTransform attributeName="transform" type="translate" dur="12.5s" begin="-6.25s" repeatCount="indefinite" values="0;10;0" calcMode="spline" keySplines="0.3 0 0.7 1;0.3 0 0.7 1"></animateTransform>
</path><path d="M -100 512.28 C -68.0041 514.357 -67.5919 525.268 -36.87 525.268 S -4.46418 523.947 26.26 523.947 S 58.2769 530.877 89.39 530.877 S 121.227 524.124 152.52 524.124 S 184.794 521.032 215.65 521.032 S 248.236 505.172 278.78 505.172 S 310.773 508.139 341.91 508.139 S 374.543 501.461 405.04 501.461 S 436.687 523.166 468.17 523.166 S 501.277 504.64 531.3 504.64 S 563.175 533.775 594.43 533.775 S 626.266 502.708 657.56 502.708 S 690.499 527.503 720.69 527.503 S 753.221 526.787 783.82 526.787 S 816.278 524.502 846.95 524.502 S 878.818 505.698 910.08 505.698 S 942.888 527.874 973.21 527.874 S 1005.25 512.225 1036.34 512.225 S 1068.75 528.143 1099.47 528.143 S 1131.58 506.763 1162.6 506.763 S 1195.52 527.6 1225.73 527.6 S 1258.85 500.659 1288.85 500.659 S 1321.6 529.889 1351.98 529.889 S 1383.62 510.961 1415.11 510.961 S 1447.21 508.131 1478.24 508.131 S 1511.19 504.798 1541.37 504.798 S 1574.1 524.935 1604.5 524.935 L 1554 684 L -100 684 Z" fill="#593fa3" stroke-width="0" transform="translate(0.197061 0)">
  <animate attributeName="d" dur="10s" repeatCount="indefinite" values="M-100 501.15C-68.39 509.7 -67.32 536.02 -36.87 536.02S-4.28 512.3 26.26 512.3S58.54 535.99 89.39 535.99S122.35 504.97 152.52 504.97S185.04 529.18 215.65 529.18S248.35 523.23 278.78 523.23S310.94 522.18 341.91 522.18S373.57 510.1 405.04 510.1S437.24 530.84 468.17 530.84S501.11 533.1 531.3 533.1S563.14 529.1 594.43 529.1S626.24 515.82 657.56 515.82S690.56 520.18 720.69 520.18S752.87 514.14 783.82 514.14S815.62 519.95 846.95 519.95S879.09 500.26 910.08 500.26S943.3 534.32 973.21 534.32S1005.91 503.2 1036.34 503.2S1069.21 531.16 1099.47 531.16S1131.43 502.86 1162.6 502.86S1194.31 520.75 1225.73 520.75S1257.89 500.37 1288.85 500.37S1321.77 536.3 1351.98 536.3S1383.68 501.27 1415.11 501.27S1448.39 524.83 1478.24 524.83S1510.67 515.34 1541.37 515.34S1573.99 515.06 1604.5 515.06L1554 684 L-100 684 Z;M-100 513.84C-67.95 515.01 -67.63 523.76 -36.87 523.76S-4.49 525.58 26.26 525.58S58.24 530.16 89.39 530.16S121.07 526.81 152.52 526.81S184.76 519.89 215.65 519.89S248.22 502.64 278.78 502.64S310.75 506.17 341.91 506.17S374.68 500.25 405.04 500.25S436.61 522.09 468.17 522.09S501.3 500.65 531.3 500.65S563.18 534.43 594.43 534.43S626.27 500.87 657.56 500.87S690.49 528.53 720.69 528.53S753.27 528.56 783.82 528.56S816.37 525.14 846.95 525.14S878.78 506.46 910.08 506.46S942.83 526.97 973.21 526.97S1005.16 513.49 1036.34 513.49S1068.69 527.72 1099.47 527.72S1131.6 507.31 1162.6 507.31S1195.69 528.56 1225.73 528.56S1258.99 500.7 1288.85 500.7S1321.58 528.99 1351.98 528.99S1383.61 512.32 1415.11 512.32S1447.05 505.79 1478.24 505.79S1511.26 503.32 1541.37 503.32S1574.12 526.32 1604.5 526.32L1554 684 L-100 684 Z;M-100 501.15C-68.39 509.7 -67.32 536.02 -36.87 536.02S-4.28 512.3 26.26 512.3S58.54 535.99 89.39 535.99S122.35 504.97 152.52 504.97S185.04 529.18 215.65 529.18S248.35 523.23 278.78 523.23S310.94 522.18 341.91 522.18S373.57 510.1 405.04 510.1S437.24 530.84 468.17 530.84S501.11 533.1 531.3 533.1S563.14 529.1 594.43 529.1S626.24 515.82 657.56 515.82S690.56 520.18 720.69 520.18S752.87 514.14 783.82 514.14S815.62 519.95 846.95 519.95S879.09 500.26 910.08 500.26S943.3 534.32 973.21 534.32S1005.91 503.2 1036.34 503.2S1069.21 531.16 1099.47 531.16S1131.43 502.86 1162.6 502.86S1194.31 520.75 1225.73 520.75S1257.89 500.37 1288.85 500.37S1321.77 536.3 1351.98 536.3S1383.68 501.27 1415.11 501.27S1448.39 524.83 1478.24 524.83S1510.67 515.34 1541.37 515.34S1573.99 515.06 1604.5 515.06L1554 684 L-100 684 Z"></animate>
  <animateTransform attributeName="transform" type="translate" dur="10s" begin="-6s" repeatCount="indefinite" values="0;10;0" calcMode="spline" keySplines="0.3 0 0.7 1;0.3 0 0.7 1"></animateTransform>
</path><path d="M -100 525.011 C -66.8142 526.009 -66.8222 526.046 -34.88 526.046 S -1.61427 519.059 30.24 519.059 S 63.2207 551.522 95.35 551.522 S 129.4 528.935 160.47 528.935 S 194.514 546.675 225.59 546.675 S 258.452 528.763 290.71 528.763 S 324.586 544.846 355.83 544.846 S 388.473 522.84 420.94 522.84 S 454.005 530.798 486.06 530.798 S 520.023 524.427 551.18 524.427 S 584.438 527.565 616.3 527.565 S 650.08 520.678 681.42 520.678 S 714.71 550.726 746.54 550.726 S 779.928 525.27 811.65 525.27 S 844.65 524.822 876.77 524.822 S 910.113 529.407 941.89 529.407 S 975.027 530.042 1007.01 530.042 S 1040.25 527.289 1072.13 527.289 S 1105.63 548.302 1137.24 548.302 S 1170.84 542.54 1202.36 542.54 S 1235.41 545.27 1267.48 545.27 S 1300.26 542.17 1332.6 542.17 S 1366.36 554.61 1397.72 554.61 S 1431.42 534.907 1462.83 534.907 S 1496.99 553.998 1527.95 553.998 S 1560.99 521.351 1593.07 521.351 L 1554 684 L -100 684 Z" fill="#5f44ac" stroke-width="0" transform="translate(5.98609 0)">
  <animate attributeName="d" dur="7.5s" repeatCount="indefinite" values="M-100 550.86C-67.08 544.74 -65.95 548.44 -34.88 548.44S-1.39 524.5 30.24 524.5S64.45 547.61 95.35 547.61S128.47 527.93 160.47 527.93S194.14 545.72 225.59 545.72S259.05 522.55 290.71 522.55S324.76 543.55 355.83 543.55S388.73 529.46 420.94 529.46S454.42 545.45 486.06 545.45S518.81 530.79 551.18 530.79S584.97 551.62 616.3 551.62S649.54 532.83 681.42 532.83S715.1 548.55 746.54 548.55S780.7 517.18 811.65 517.18S845.63 544.25 876.77 544.25S909.93 541.9 941.89 541.9S974.62 556.29 1007.01 556.29S1039.77 525.37 1072.13 525.37S1106.34 546.35 1137.24 546.35S1171.46 522.97 1202.36 522.97S1236.31 541.84 1267.48 541.84S1301.1 521.18 1332.6 521.18S1365.16 547.55 1397.72 547.55S1431.25 542.84 1462.83 542.84S1496.97 552.42 1527.95 552.42S1560.61 529.25 1593.07 529.25L1554 684 L-100 684 Z;M-100 519.74C-66.76 522.19 -67 521.48 -34.88 521.48S-1.66 517.95 30.24 517.95S62.97 552.32 95.35 552.32S129.59 529.14 160.47 529.14S194.59 546.87 225.59 546.87S258.33 530.03 290.71 530.03S324.55 545.11 355.83 545.11S388.42 521.49 420.94 521.49S453.92 527.81 486.06 527.81S520.27 523.13 551.18 523.13S584.33 522.66 616.3 522.66S650.19 518.2 681.42 518.2S714.63 551.17 746.54 551.17S779.77 526.92 811.65 526.92S844.45 520.86 876.77 520.86S910.15 526.86 941.89 526.86S975.11 524.69 1007.01 524.69S1040.35 527.68 1072.13 527.68S1105.49 548.7 1137.24 548.7S1170.71 546.53 1202.36 546.53S1235.23 545.97 1267.48 545.97S1300.09 546.45 1332.6 546.45S1366.61 556.05 1397.72 556.05S1431.46 533.29 1462.83 533.29S1497 554.32 1527.95 554.32S1561.07 519.74 1593.07 519.74L1554 684 L-100 684 Z;M-100 550.86C-67.08 544.74 -65.95 548.44 -34.88 548.44S-1.39 524.5 30.24 524.5S64.45 547.61 95.35 547.61S128.47 527.93 160.47 527.93S194.14 545.72 225.59 545.72S259.05 522.55 290.71 522.55S324.76 543.55 355.83 543.55S388.73 529.46 420.94 529.46S454.42 545.45 486.06 545.45S518.81 530.79 551.18 530.79S584.97 551.62 616.3 551.62S649.54 532.83 681.42 532.83S715.1 548.55 746.54 548.55S780.7 517.18 811.65 517.18S845.63 544.25 876.77 544.25S909.93 541.9 941.89 541.9S974.62 556.29 1007.01 556.29S1039.77 525.37 1072.13 525.37S1106.34 546.35 1137.24 546.35S1171.46 522.97 1202.36 522.97S1236.31 541.84 1267.48 541.84S1301.1 521.18 1332.6 521.18S1365.16 547.55 1397.72 547.55S1431.25 542.84 1462.83 542.84S1496.97 552.42 1527.95 552.42S1560.61 529.25 1593.07 529.25L1554 684 L-100 684 Z"></animate>
  <animateTransform attributeName="transform" type="translate" dur="7.5s" begin="-5.25s" repeatCount="indefinite" values="0;10;0" calcMode="spline" keySplines="0.3 0 0.7 1;0.3 0 0.7 1"></animateTransform>
</path><path d="M -100 566.362 C -65.0565 566.341 -65.7949 571.631 -32.76 571.631 S 2.01559 539.905 34.47 539.905 S 68.8318 565.216 101.71 565.216 S 136.385 545.831 168.94 545.831 S 203.408 573.885 236.18 573.885 S 270.767 542.609 303.41 542.609 S 338.564 563.45 370.65 563.45 S 405.436 567.381 437.89 567.381 S 472.419 567.777 505.12 567.777 S 539.749 536.685 572.36 536.685 S 606.592 545.153 639.59 545.153 S 673.586 549.168 706.83 549.168 S 741.478 544.823 774.07 544.823 S 808.59 545.167 841.3 545.167 S 875.55 565.156 908.54 565.156 S 942.752 538.73 975.77 538.73 S 1009.79 573.284 1043.01 573.284 S 1077.32 543.981 1110.24 543.981 S 1144.53 563.422 1177.48 563.422 S 1211.9 540.745 1244.72 540.745 S 1278.84 566.115 1311.95 566.115 S 1346.08 538.521 1379.19 538.521 S 1413.34 574.031 1446.42 574.031 S 1480.78 535.473 1513.66 535.473 S 1548.81 543.039 1580.89 543.039 L 1554 684 L -100 684 Z" fill="#6549b6" stroke-width="0" transform="translate(7.03832 0)">
  <animate attributeName="d" dur="5s" repeatCount="indefinite" values="M-100 576.31C-65.15 573.84 -65.94 574.28 -32.76 574.28S1.9 537.51 34.47 537.51S68.94 562.71 101.71 562.71S136.23 537.86 168.94 537.86S203.43 575.12 236.18 575.12S270.88 541.95 303.41 541.95S338.64 569.35 370.65 569.35S405.79 574.84 437.89 574.84S472.54 566.7 505.12 566.7S539.53 535.17 572.36 535.17S606.44 536.1 639.59 536.1S673.34 541.34 706.83 541.34S741.53 534.25 774.07 534.25S808.74 546.96 841.3 546.96S875.23 561.15 908.54 561.15S942.43 535.99 975.77 535.99S1009.53 576.88 1043.01 576.88S1077.47 544.18 1110.24 544.18S1144.53 570.83 1177.48 570.83S1211.93 539.26 1244.72 539.26S1278.59 572.5 1311.95 572.5S1346.07 535.11 1379.19 535.11S1412.96 576.96 1446.42 576.96S1480.52 535.96 1513.66 535.96S1548.79 533.9 1580.89 533.9L1554 684 L-100 684 Z;M-100 535.86C-64.77 543.35 -65.35 563.51 -32.76 563.51S2.37 547.25 34.47 547.25S68.5 572.9 101.71 572.9S136.86 570.27 168.94 570.27S203.34 570.1 236.18 570.1S270.42 544.63 303.41 544.63S338.33 545.36 370.65 545.36S404.35 544.51 437.89 544.51S472.05 571.08 505.12 571.08S540.42 541.33 572.36 541.33S607.06 572.91 639.59 572.91S674.34 573.17 706.83 573.17S741.32 577.24 774.07 577.24S808.13 539.67 841.3 539.67S876.53 577.44 908.54 577.44S943.74 547.13 975.77 547.13S1010.6 562.26 1043.01 562.26S1076.84 543.37 1110.24 543.37S1144.52 540.71 1177.48 540.71S1211.8 545.3 1244.72 545.3S1279.61 546.54 1311.95 546.54S1346.11 548.98 1379.19 548.98S1414.51 565.05 1446.42 565.05S1481.59 533.98 1513.66 533.98S1548.87 571.06 1580.89 571.06L1554 684 L-100 684 Z;M-100 576.31C-65.15 573.84 -65.94 574.28 -32.76 574.28S1.9 537.51 34.47 537.51S68.94 562.71 101.71 562.71S136.23 537.86 168.94 537.86S203.43 575.12 236.18 575.12S270.88 541.95 303.41 541.95S338.64 569.35 370.65 569.35S405.79 574.84 437.89 574.84S472.54 566.7 505.12 566.7S539.53 535.17 572.36 535.17S606.44 536.1 639.59 536.1S673.34 541.34 706.83 541.34S741.53 534.25 774.07 534.25S808.74 546.96 841.3 546.96S875.23 561.15 908.54 561.15S942.43 535.99 975.77 535.99S1009.53 576.88 1043.01 576.88S1077.47 544.18 1110.24 544.18S1144.53 570.83 1177.48 570.83S1211.93 539.26 1244.72 539.26S1278.59 572.5 1311.95 572.5S1346.07 535.11 1379.19 535.11S1412.96 576.96 1446.42 576.96S1480.52 535.96 1513.66 535.96S1548.79 533.9 1580.89 533.9L1554 684 L-100 684 Z"></animate>
  <animateTransform attributeName="transform" type="translate" dur="5s" begin="-4s" repeatCount="indefinite" values="0;10;0" calcMode="spline" keySplines="0.3 0 0.7 1;0.3 0 0.7 1"></animateTransform>
</path><path d="M -100 581.172 C -64.5612 575.307 -64.4729 587.09 -30.5 587.09 S 5.46719 561.481 38.99 561.481 S 73.8211 588.877 108.49 588.877 S 144.215 560.955 177.98 560.955 S 213.644 587.375 247.48 587.375 S 282.706 557.611 316.97 557.611 S 352.684 589.16 386.47 589.16 S 422.038 577.385 455.97 577.385 S 491.536 560.744 525.46 560.744 S 561.062 560.105 594.96 560.105 S 630.034 556.682 664.45 556.682 S 700.38 573.24 733.95 573.24 S 769.986 570.365 803.45 570.365 S 839.119 558.779 872.94 558.779 S 909.179 592.49 942.44 592.49 S 978.08 554.525 1011.93 554.525 S 1047.61 594.171 1081.43 594.171 S 1116.51 561.157 1150.92 561.157 S 1186.9 588.901 1220.42 588.901 S 1256.4 560.853 1289.92 560.853 S 1325.7 588.615 1359.41 588.615 S 1394.76 566.38 1428.91 566.38 S 1464.59 569.379 1498.4 569.379 S 1534.03 554.927 1567.9 554.927 L 1554 684 L -100 684 Z" fill="#6c4fbf" stroke-width="0" transform="translate(7.63449 0)">
  <animate attributeName="d" dur="2.5s" repeatCount="indefinite" values="M-100 567.08C-65.24 554.2 -64.95 589.79 -30.5 589.79S5.6 557.01 38.99 557.01S73.89 593.56 108.49 593.56S144.49 561.28 177.98 561.28S213.31 589.82 247.48 589.82S283.04 559.16 316.97 559.16S352.35 588.57 386.47 588.57S422.52 561.95 455.97 561.95S491.9 558.89 525.46 558.89S561.8 557.06 594.96 557.06S630.3 560.42 664.45 560.42S700.68 558.72 733.95 558.72S770.05 584.02 803.45 584.02S838.73 555.08 872.94 555.08S909.12 597.35 942.44 597.35S977.48 554.81 1011.93 554.81S1046.97 593.35 1081.43 593.35S1116.62 567.03 1150.92 567.03S1186.6 587.15 1220.42 587.15S1256.1 560.43 1289.92 560.43S1325.09 591.95 1359.41 591.95S1395.06 566.05 1428.91 566.05S1464.84 584.74 1498.4 584.74S1534.77 558.96 1567.9 558.96L1554 684 L-100 684 Z;M-100 595.73C-63.86 597.11 -63.98 584.3 -30.5 584.3S5.33 566.1 38.99 566.1S73.75 584.04 108.49 584.04S143.93 560.62 177.98 560.62S213.99 584.85 247.48 584.85S282.36 556.01 316.97 556.01S353.03 589.77 386.47 589.77S421.54 593.33 455.97 593.33S491.16 562.66 525.46 562.66S560.3 563.25 594.96 563.25S629.76 552.82 664.45 552.82S700.07 588.24 733.95 588.24S769.92 556.26 803.45 556.26S839.52 562.6 872.94 562.6S909.24 587.47 942.44 587.47S978.7 554.23 1011.93 554.23S1048.28 595.02 1081.43 595.02S1116.39 555.09 1150.92 555.09S1187.22 590.71 1220.42 590.71S1256.72 561.29 1289.92 561.29S1326.33 585.17 1359.41 585.17S1394.45 566.72 1428.91 566.72S1464.33 553.51 1498.4 553.51S1533.27 550.76 1567.9 550.76L1554 684 L-100 684 Z;M-100 567.08C-65.24 554.2 -64.95 589.79 -30.5 589.79S5.6 557.01 38.99 557.01S73.89 593.56 108.49 593.56S144.49 561.28 177.98 561.28S213.31 589.82 247.48 589.82S283.04 559.16 316.97 559.16S352.35 588.57 386.47 588.57S422.52 561.95 455.97 561.95S491.9 558.89 525.46 558.89S561.8 557.06 594.96 557.06S630.3 560.42 664.45 560.42S700.68 558.72 733.95 558.72S770.05 584.02 803.45 584.02S838.73 555.08 872.94 555.08S909.12 597.35 942.44 597.35S977.48 554.81 1011.93 554.81S1046.97 593.35 1081.43 593.35S1116.62 567.03 1150.92 567.03S1186.6 587.15 1220.42 587.15S1256.1 560.43 1289.92 560.43S1325.09 591.95 1359.41 591.95S1395.06 566.05 1428.91 566.05S1464.84 584.74 1498.4 584.74S1534.77 558.96 1567.9 558.96L1554 684 L-100 684 Z"></animate>
  <animateTransform attributeName="transform" type="translate" dur="2.5s" begin="-2.25s" repeatCount="indefinite" values="0;10;0" calcMode="spline" keySplines="0.3 0 0.7 1;0.3 0 0.7 1"></animateTransform>
</path></g>
</svg>