<?xml version="1.0" encoding="utf-8"?>
<svg xmlns="http://www.w3.org/2000/svg" xmlns:xlink="http://www.w3.org/1999/xlink" style="margin: auto; background: none; display: block; z-index: 1; position: relative; shape-rendering: auto;" width="1454" height="684" preserveAspectRatio="xMidYMid" viewBox="0 0 1454 684">
<g transform=""><path d="M -100 409.958 C -72.5881 410.934 -72.2229 403.417 -46.65 403.417 S -19.6024 402.609 6.71 402.609 S 34.6335 410.469 60.06 410.469 S 87.4177 407.357 113.42 407.357 S 140.601 408.989 166.77 408.989 S 194.673 400.998 220.13 400.998 S 247.967 408.464 273.48 408.464 S 300.844 402.978 326.84 402.978 S 354.486 409.165 380.19 409.165 S 407.539 401.76 433.55 401.76 S 461.434 398.704 486.9 398.704 S 515.131 403.257 540.26 403.257 S 567.243 405.535 593.61 405.535 S 620.989 406.233 646.97 406.233 S 673.988 404.04 700.32 404.04 S 727.495 404.614 753.68 404.614 S 780.576 407.816 807.03 407.816 S 834.957 406.684 860.39 406.684 S 887.926 403.683 913.74 403.683 S 940.857 399.183 967.1 399.183 S 994.373 408.757 1020.45 408.757 S 1048.47 401.947 1073.81 401.947 S 1101.06 408.434 1127.16 408.434 S 1155.3 408.641 1180.52 408.641 S 1207.38 404.128 1233.87 404.128 S 1261.35 406.441 1287.23 406.441 S 1314.6 399.194 1340.58 399.194 S 1367.81 402.728 1393.94 402.728 S 1421.51 407.685 1447.29 407.685 S 1474.83 398.797 1500.65 398.797 S 1527.58 398.735 1554 398.735 S 1580.79 406.408 1607.35 406.408 L 1554 684 L -100 684 Z" fill="#35226c" stroke-width="0" transform="translate(9.23863 0)">
  <animate attributeName="d" dur="25s" repeatCount="indefinite" values="M-100 402.43C-72.21 411.85 -71.87 400.3 -46.65 400.3S-19.72 411.7 6.71 411.7S35.02 401.16 60.06 401.16S86.88 413.49 113.42 413.49S141.5 396.84 166.77 396.84S194.9 398.2 220.13 398.2S247.32 409.59 273.48 409.59S300.18 408.8 326.84 408.8S354.1 399.89 380.19 399.89S407.69 398.24 433.55 398.24S461.51 404.56 486.9 404.56S515.03 397.25 540.26 397.25S568.15 402.62 593.61 402.62S621.09 399.89 646.97 399.89S674.45 407.67 700.32 407.67S728.52 411.52 753.68 411.52S780.61 397.23 807.03 397.23S833.73 403.29 860.39 403.29S887.75 398.02 913.74 398.02S941.42 400.46 967.1 400.46S994.81 406.85 1020.45 406.85S1048.56 402.93 1073.81 402.93S1100.88 407.98 1127.16 407.98S1154.94 401.55 1180.52 401.55S1207.41 403.54 1233.87 403.54S1260.63 407.13 1287.23 407.13S1313.96 399.37 1340.58 399.37S1367.33 402.35 1393.94 402.35S1422 411.13 1447.29 411.13S1475.54 400.2 1500.65 400.2S1528.87 403.28 1554 403.28S1580.94 403.14 1607.35 403.14L1554 684 L-100 684 Z;M-100 411.39C-72.66 410.76 -72.29 404.01 -46.65 404.01S-19.58 400.88 6.71 400.88S34.56 412.24 60.06 412.24S87.52 406.19 113.42 406.19S140.43 411.3 166.77 411.3S194.63 401.53 220.13 401.53S248.09 408.25 273.48 408.25S300.97 401.87 326.84 401.87S354.56 410.93 380.19 410.93S407.51 402.43 433.55 402.43S461.42 397.59 486.9 397.59S515.15 404.4 540.26 404.4S567.07 406.09 593.61 406.09S620.97 407.44 646.97 407.44S673.9 403.35 700.32 403.35S727.3 403.3 753.68 403.3S780.57 409.83 807.03 409.83S835.19 407.33 860.39 407.33S887.96 404.76 913.74 404.76S940.75 398.94 967.1 398.94S994.29 409.12 1020.45 409.12S1048.45 401.76 1073.81 401.76S1101.1 408.52 1127.16 408.52S1155.37 409.99 1180.52 409.99S1207.37 404.24 1233.87 404.24S1261.49 406.31 1287.23 406.31S1314.72 399.16 1340.58 399.16S1367.9 402.8 1393.94 402.8S1421.42 407.03 1447.29 407.03S1474.7 398.53 1500.65 398.53S1527.34 397.87 1554 397.87S1580.76 407.03 1607.35 407.03L1554 684 L-100 684 Z;M-100 402.43C-72.21 411.85 -71.87 400.3 -46.65 400.3S-19.72 411.7 6.71 411.7S35.02 401.16 60.06 401.16S86.88 413.49 113.42 413.49S141.5 396.84 166.77 396.84S194.9 398.2 220.13 398.2S247.32 409.59 273.48 409.59S300.18 408.8 326.84 408.8S354.1 399.89 380.19 399.89S407.69 398.24 433.55 398.24S461.51 404.56 486.9 404.56S515.03 397.25 540.26 397.25S568.15 402.62 593.61 402.62S621.09 399.89 646.97 399.89S674.45 407.67 700.32 407.67S728.52 411.52 753.68 411.52S780.61 397.23 807.03 397.23S833.73 403.29 860.39 403.29S887.75 398.02 913.74 398.02S941.42 400.46 967.1 400.46S994.81 406.85 1020.45 406.85S1048.56 402.93 1073.81 402.93S1100.88 407.98 1127.16 407.98S1154.94 401.55 1180.52 401.55S1207.41 403.54 1233.87 403.54S1260.63 407.13 1287.23 407.13S1313.96 399.37 1340.58 399.37S1367.33 402.35 1393.94 402.35S1422 411.13 1447.29 411.13S1475.54 400.2 1500.65 400.2S1528.87 403.28 1554 403.28S1580.94 403.14 1607.35 403.14L1554 684 L-100 684 Z"></animate>
  <animateTransform attributeName="transform" type="translate" dur="25s" begin="0s" repeatCount="indefinite" values="0;10;0" calcMode="spline" keySplines="0.3 0 0.7 1;0.3 0 0.7 1"></animateTransform>
</path><path d="M -100 428.664 C -72.3101 422.124 -72.1146 432.217 -45.23 432.217 S -17.6902 417.505 9.54 417.505 S 37.5773 428.551 64.3 428.551 S 92.8961 419.477 119.07 419.477 S 147.955 432.608 173.84 432.608 S 201.289 420.715 228.61 420.715 S 256.165 426.338 283.38 426.338 S 311.253 427.877 338.15 427.877 S 366.799 432.278 392.91 432.278 S 421.874 421.076 447.68 421.076 S 476.694 425.134 502.45 425.134 S 530.211 427.846 557.22 427.846 S 585.253 432.353 611.99 432.353 S 640.481 422.507 666.75 422.507 S 695.696 416.194 721.52 416.194 S 749.601 425.153 776.29 425.153 S 805.154 424.366 831.06 424.366 S 859.53 415.013 885.83 415.013 S 913.871 423.073 940.6 423.073 S 969.195 425.826 995.36 425.826 S 1023.12 428.893 1050.13 428.893 S 1078.4 420.726 1104.9 420.726 S 1133.49 417.318 1159.67 417.318 S 1187.79 428.969 1214.44 428.969 S 1242.62 432.641 1269.21 432.641 S 1297.2 417.429 1323.97 417.429 S 1352.06 430.362 1378.74 430.362 S 1406.53 418.887 1433.51 418.887 S 1461.52 427.425 1488.28 427.425 S 1516.06 428.774 1543.05 428.774 S 1570.91 422.614 1597.81 422.614 L 1554 684 L -100 684 Z" fill="#3b2775" stroke-width="0" transform="translate(9.45049 0)">
  <animate attributeName="d" dur="22.5s" repeatCount="indefinite" values="M-100 424.65C-71.61 424.28 -72.32 430.35 -45.23 430.35S-16.71 430.07 9.54 430.07S37.68 418.17 64.3 418.17S92.28 414.8 119.07 414.8S148.02 423.59 173.84 423.59S201.7 419.52 228.61 419.52S257.64 431.08 283.38 431.08S311.15 430.08 338.15 430.08S366.93 421.72 392.91 421.72S421.93 429.59 447.68 429.59S475.63 433.19 502.45 433.19S530.79 430.46 557.22 430.46S586.28 418.49 611.99 418.49S639.94 423.16 666.75 423.16S695.5 432.68 721.52 432.68S750.18 427.86 776.29 427.86S803.8 422.06 831.06 422.06S858.83 420.67 885.83 420.67S914.45 419.89 940.6 419.89S968.7 423.1 995.36 423.1S1024.28 421.49 1050.13 421.49S1077.8 419.13 1104.9 419.13S1132.48 425.99 1159.67 425.99S1187.06 428.81 1214.44 428.81S1243.11 421.7 1269.21 421.7S1298.27 428.51 1323.97 428.51S1352.54 422.81 1378.74 422.81S1407.34 420.11 1433.51 420.11S1461.98 427.21 1488.28 427.21S1516.24 414.36 1543.05 414.36S1571.68 433.9 1597.81 433.9L1554 684 L-100 684 Z;M-100 428.95C-72.36 421.97 -72.1 432.35 -45.23 432.35S-17.76 416.61 9.54 416.61S37.57 429.29 64.3 429.29S92.94 419.81 119.07 419.81S147.95 433.25 173.84 433.25S201.26 420.8 228.61 420.8S256.06 426 283.38 426S311.26 427.72 338.15 427.72S366.79 433.03 392.91 433.03S421.87 420.47 447.68 420.47S476.77 424.56 502.45 424.56S530.17 427.66 557.22 427.66S585.18 433.34 611.99 433.34S640.52 422.46 666.75 422.46S695.71 415.02 721.52 415.02S749.56 424.96 776.29 424.96S805.25 424.53 831.06 424.53S859.58 414.61 885.83 414.61S913.83 423.3 940.6 423.3S969.23 426.02 995.36 426.02S1023.04 429.42 1050.13 429.42S1078.44 420.84 1104.9 420.84S1133.56 416.7 1159.67 416.7S1187.84 428.98 1214.44 428.98S1242.59 433.42 1269.21 433.42S1297.12 416.64 1323.97 416.64S1352.03 430.9 1378.74 430.9S1406.47 418.8 1433.51 418.8S1461.49 427.44 1488.28 427.44S1516.05 429.8 1543.05 429.8S1570.86 421.81 1597.81 421.81L1554 684 L-100 684 Z;M-100 424.65C-71.61 424.28 -72.32 430.35 -45.23 430.35S-16.71 430.07 9.54 430.07S37.68 418.17 64.3 418.17S92.28 414.8 119.07 414.8S148.02 423.59 173.84 423.59S201.7 419.52 228.61 419.52S257.64 431.08 283.38 431.08S311.15 430.08 338.15 430.08S366.93 421.72 392.91 421.72S421.93 429.59 447.68 429.59S475.63 433.19 502.45 433.19S530.79 430.46 557.22 430.46S586.28 418.49 611.99 418.49S639.94 423.16 666.75 423.16S695.5 432.68 721.52 432.68S750.18 427.86 776.29 427.86S803.8 422.06 831.06 422.06S858.83 420.67 885.83 420.67S914.45 419.89 940.6 419.89S968.7 423.1 995.36 423.1S1024.28 421.49 1050.13 421.49S1077.8 419.13 1104.9 419.13S1132.48 425.99 1159.67 425.99S1187.06 428.81 1214.44 428.81S1243.11 421.7 1269.21 421.7S1298.27 428.51 1323.97 428.51S1352.54 422.81 1378.74 422.81S1407.34 420.11 1433.51 420.11S1461.98 427.21 1488.28 427.21S1516.24 414.36 1543.05 414.36S1571.68 433.9 1597.81 433.9L1554 684 L-100 684 Z"></animate>
  <animateTransform attributeName="transform" type="translate" dur="22.5s" begin="-2.25s" repeatCount="indefinite" values="0;10;0" calcMode="spline" keySplines="0.3 0 0.7 1;0.3 0 0.7 1"></animateTransform>
</path><path d="M -100 445.855 C -70.9197 445.212 -71.0639 440.558 -43.74 440.558 S -14.1481 439.903 12.52 439.903 S 41.167 442.725 68.78 442.725 S 97.4179 440.77 125.03 440.77 S 153.914 441.646 181.29 441.646 S 209.816 441.608 237.55 441.608 S 266.994 448.38 293.81 448.38 S 323.178 445.309 350.07 445.309 S 378.707 446.592 406.33 446.592 S 434.848 444.301 462.59 444.301 S 491.791 441.24 518.84 441.24 S 547.221 448.122 575.1 448.122 S 604.896 454.185 631.36 454.185 S 659.868 439.616 687.62 439.616 S 715.87 440.64 743.88 440.64 S 772.722 446.265 800.14 446.265 S 829.609 445.174 856.39 445.174 S 885.141 435.209 912.65 435.209 S 942.168 452.701 968.91 452.701 S 998.424 443.937 1025.17 443.937 S 1053.36 440.477 1081.43 440.477 S 1110.44 439.304 1137.69 439.304 S 1165.9 434.681 1193.95 434.681 S 1223.39 452.247 1250.2 452.247 S 1279.31 439.073 1306.46 439.073 S 1334.99 435.24 1362.72 435.24 S 1391.32 443.576 1418.98 443.576 S 1447.62 442.642 1475.24 442.642 S 1503.4 451.803 1531.5 451.803 S 1560.67 432.61 1587.76 432.61 L 1554 684 L -100 684 Z" fill="#412b7e" stroke-width="0" transform="translate(5.70941 0)">
  <animate attributeName="d" dur="20s" repeatCount="indefinite" values="M-100 435.16C-71.67 446.58 -70.57 453.2 -43.74 453.2S-14.68 438.26 12.52 438.26S41.3 448.11 68.78 448.11S97.19 432.63 125.03 432.63S154.74 446.86 181.29 446.86S211.07 435.52 237.55 435.52S267.25 437.98 293.81 437.98S322.2 446.62 350.07 446.62S379.21 439.44 406.33 439.44S435 439.41 462.59 439.41S491.43 440.86 518.84 440.86S547.43 434.73 575.1 434.73S604.26 451.06 631.36 451.06S661.16 442.19 687.62 442.19S716.44 446.32 743.88 446.32S773.7 438.04 800.14 438.04S829.4 442.61 856.39 442.61S885.92 438.41 912.65 438.41S941.19 444.2 968.91 444.2S997.93 447.09 1025.17 447.09S1054.13 448.36 1081.43 448.36S1110.5 443.16 1137.69 443.16S1166.57 454.38 1193.95 454.38S1222.17 445.94 1250.2 445.94S1279.95 437.42 1306.46 437.42S1336.24 437.88 1362.72 437.88S1392.18 446.33 1418.98 446.33S1447.4 437.19 1475.24 437.19S1503.58 449.03 1531.5 449.03S1559.9 434.12 1587.76 434.12L1554 684 L-100 684 Z;M-100 446.42C-70.88 445.14 -71.09 439.89 -43.74 439.89S-14.12 439.99 12.52 439.99S41.16 442.44 68.78 442.44S97.43 441.2 125.03 441.2S153.87 441.37 181.29 441.37S209.75 441.93 237.55 441.93S266.98 448.93 293.81 448.93S323.23 445.24 350.07 445.24S378.68 446.97 406.33 446.97S434.84 444.56 462.59 444.56S491.81 441.26 518.84 441.26S547.21 448.83 575.1 448.83S604.93 454.35 631.36 454.35S659.8 439.48 687.62 439.48S715.84 440.34 743.88 440.34S772.67 446.7 800.14 446.7S829.62 445.31 856.39 445.31S885.1 435.04 912.65 435.04S942.22 453.15 968.91 453.15S998.45 443.77 1025.17 443.77S1053.32 440.06 1081.43 440.06S1110.44 439.1 1137.69 439.1S1165.86 433.64 1193.95 433.64S1223.45 452.58 1250.2 452.58S1279.28 439.16 1306.46 439.16S1334.92 435.1 1362.72 435.1S1391.27 443.43 1418.98 443.43S1447.63 442.93 1475.24 442.93S1503.39 451.95 1531.5 451.95S1560.71 432.53 1587.76 432.53L1554 684 L-100 684 Z;M-100 435.16C-71.67 446.58 -70.57 453.2 -43.74 453.2S-14.68 438.26 12.52 438.26S41.3 448.11 68.78 448.11S97.19 432.63 125.03 432.63S154.74 446.86 181.29 446.86S211.07 435.52 237.55 435.52S267.25 437.98 293.81 437.98S322.2 446.62 350.07 446.62S379.21 439.44 406.33 439.44S435 439.41 462.59 439.41S491.43 440.86 518.84 440.86S547.43 434.73 575.1 434.73S604.26 451.06 631.36 451.06S661.16 442.19 687.62 442.19S716.44 446.32 743.88 446.32S773.7 438.04 800.14 438.04S829.4 442.61 856.39 442.61S885.92 438.41 912.65 438.41S941.19 444.2 968.91 444.2S997.93 447.09 1025.17 447.09S1054.13 448.36 1081.43 448.36S1110.5 443.16 1137.69 443.16S1166.57 454.38 1193.95 454.38S1222.17 445.94 1250.2 445.94S1279.95 437.42 1306.46 437.42S1336.24 437.88 1362.72 437.88S1392.18 446.33 1418.98 446.33S1447.4 437.19 1475.24 437.19S1503.58 449.03 1531.5 449.03S1559.9 434.12 1587.76 434.12L1554 684 L-100 684 Z"></animate>
  <animateTransform attributeName="transform" type="translate" dur="20s" begin="-4s" repeatCount="indefinite" values="0;10;0" calcMode="spline" keySplines="0.3 0 0.7 1;0.3 0 0.7 1"></animateTransform>
</path><path d="M -100 457.677 C -70.4178 455.992 -70.3658 464.478 -42.17 464.478 S -13.0959 462.877 15.66 462.877 S 45.9357 466.301 73.5 466.301 S 103.608 455.431 131.33 455.431 S 160.85 470.133 189.16 470.133 S 218.378 458.312 246.99 458.312 S 276.21 472.967 304.83 472.967 S 334.448 456.567 362.66 456.567 S 392.758 472.366 420.49 472.366 S 450.47 456.84 478.32 456.84 S 507.984 459.917 536.15 459.917 S 565.904 454.067 593.99 454.067 S 624.34 463.745 651.82 463.745 S 681.26 459.545 709.65 459.545 S 740.138 473.607 767.48 473.607 S 797.068 459.323 825.31 459.323 S 854.494 466.633 883.15 466.633 S 912.344 450.841 940.98 450.841 S 970.774 471.723 998.81 471.723 S 1029.23 461.154 1056.64 461.154 S 1085.78 457.235 1114.48 457.235 S 1144.8 456.148 1172.31 456.148 S 1202.89 469.991 1230.14 469.991 S 1260.59 459.673 1287.97 459.673 S 1317.79 470.397 1345.8 470.397 S 1375.94 457.705 1403.64 457.705 S 1432.79 471.07 1461.47 471.07 S 1490.64 449.756 1519.3 449.756 S 1549.67 465.076 1577.13 465.076 L 1554 684 L -100 684 Z" fill="#473087" stroke-width="0" transform="translate(1.13159 0)">
  <animate attributeName="d" dur="17.5s" repeatCount="indefinite" values="M-100 453.31C-69.77 456.52 -69.55 472.34 -42.17 472.34S-12.72 459.59 15.66 459.59S44.88 470.66 73.5 470.66S103.2 460.19 131.33 460.19S160.49 458.84 189.16 458.84S218.49 458.36 246.99 458.36S277.25 468.76 304.83 468.76S334.24 454.8 362.66 454.8S392.19 464.88 420.49 464.88S450.19 458.12 478.32 458.12S508.12 462.7 536.15 462.7S565.2 457.49 593.99 457.49S623.5 472.83 651.82 472.83S681.3 463.4 709.65 463.4S740.25 471.76 767.48 471.76S796.62 462.25 825.31 462.25S854.51 468.72 883.15 468.72S912.08 462.03 940.98 462.03S970.31 468.42 998.81 468.42S1029.09 449.31 1056.64 449.31S1085.9 448.67 1114.48 448.67S1143.78 455.98 1172.31 455.98S1202.89 466.84 1230.14 466.84S1260.75 455.29 1287.97 455.29S1317.95 465.83 1345.8 465.83S1375.02 448.34 1403.64 448.34S1432.87 469.59 1461.47 469.59S1490.75 455.33 1519.3 455.33S1549.78 459.87 1577.13 459.87L1554 684 L-100 684 Z;M-100 458.77C-70.58 455.86 -70.57 462.51 -42.17 462.51S-13.19 463.7 15.66 463.7S46.2 465.21 73.5 465.21S103.71 454.24 131.33 454.24S160.94 472.96 189.16 472.96S218.35 458.3 246.99 458.3S275.95 474.02 304.83 474.02S334.5 457.01 362.66 457.01S392.9 474.24 420.49 474.24S450.54 456.52 478.32 456.52S507.95 459.22 536.15 459.22S566.08 453.21 593.99 453.21S624.55 461.47 651.82 461.47S681.25 458.58 709.65 458.58S740.11 474.07 767.48 474.07S797.18 458.59 825.31 458.59S854.49 466.11 883.15 466.11S912.41 448.04 940.98 448.04S970.89 472.55 998.81 472.55S1029.27 464.12 1056.64 464.12S1085.75 459.38 1114.48 459.38S1145.05 456.19 1172.31 456.19S1202.89 470.78 1230.14 470.78S1260.55 460.77 1287.97 460.77S1317.75 471.54 1345.8 471.54S1376.17 460.05 1403.64 460.05S1432.77 471.44 1461.47 471.44S1490.61 448.36 1519.3 448.36S1549.64 466.38 1577.13 466.38L1554 684 L-100 684 Z;M-100 453.31C-69.77 456.52 -69.55 472.34 -42.17 472.34S-12.72 459.59 15.66 459.59S44.88 470.66 73.5 470.66S103.2 460.19 131.33 460.19S160.49 458.84 189.16 458.84S218.49 458.36 246.99 458.36S277.25 468.76 304.83 468.76S334.24 454.8 362.66 454.8S392.19 464.88 420.49 464.88S450.19 458.12 478.32 458.12S508.12 462.7 536.15 462.7S565.2 457.49 593.99 457.49S623.5 472.83 651.82 472.83S681.3 463.4 709.65 463.4S740.25 471.76 767.48 471.76S796.62 462.25 825.31 462.25S854.51 468.72 883.15 468.72S912.08 462.03 940.98 462.03S970.31 468.42 998.81 468.42S1029.09 449.31 1056.64 449.31S1085.9 448.67 1114.48 448.67S1143.78 455.98 1172.31 455.98S1202.89 466.84 1230.14 466.84S1260.75 455.29 1287.97 455.29S1317.95 465.83 1345.8 465.83S1375.02 448.34 1403.64 448.34S1432.87 469.59 1461.47 469.59S1490.75 455.33 1519.3 455.33S1549.78 459.87 1577.13 459.87L1554 684 L-100 684 Z"></animate>
  <animateTransform attributeName="transform" type="translate" dur="17.5s" begin="-5.25s" repeatCount="indefinite" values="0;10;0" calcMode="spline" keySplines="0.3 0 0.7 1;0.3 0 0.7 1"></animateTransform>
</path><path d="M -100 478.989 C -70.0659 479.174 -69.5495 478.075 -40.5 478.075 S -10.3397 483.639 18.99 483.639 S 49.3364 485.61 78.49 485.61 S 109.6 476.932 137.99 476.932 S 168.662 487.315 197.48 487.315 S 228.09 472.103 256.98 472.103 S 287.432 483.763 316.47 483.763 S 346.438 471.27 375.97 471.27 S 406.32 477.772 435.47 477.772 S 466.398 484.945 494.96 484.945 S 525.488 477.449 554.46 477.449 S 584.798 474.902 613.96 474.902 S 643.944 482.859 673.45 482.859 S 704.198 474.269 732.95 474.269 S 763.024 488.825 792.45 488.825 S 823.248 475.919 851.94 475.919 S 883.006 481.872 911.44 481.872 S 941.506 468.827 970.94 468.827 S 1001.18 481.055 1030.43 481.055 S 1060.66 468.36 1089.93 468.36 S 1120.88 474.568 1149.42 474.568 S 1180.15 474.011 1208.92 474.011 S 1239.36 488.087 1268.42 488.087 S 1299.02 470.976 1327.91 470.976 S 1359.17 492.213 1387.41 492.213 S 1417.97 478.005 1446.91 478.005 S 1477.14 479.796 1506.4 479.796 S 1537.21 470.622 1565.9 470.622 L 1554 684 L -100 684 Z" fill="#4d3590" stroke-width="0" transform="translate(1.13685 0)">
  <animate attributeName="d" dur="15s" repeatCount="indefinite" values="M-100 480.68C-69.88 475.48 -68.59 475.94 -40.5 475.94S-9.8 482.35 18.99 482.35S50.11 494.69 78.49 494.69S109.42 485.01 137.99 485.01S167.93 484.19 197.48 484.19S228.48 470.94 256.98 470.94S286.94 489.1 316.47 489.1S346.72 470.55 375.97 470.55S406.8 481.79 435.47 481.79S466.68 491.08 494.96 491.08S524.84 487.56 554.46 487.56S584.9 467.4 613.96 467.4S644.16 480.34 673.45 480.34S704.36 467.39 732.95 467.39S763.36 495.56 792.45 495.56S822.96 470.51 851.94 470.51S882.7 481.68 911.44 481.68S941.83 470.68 970.94 470.68S1001.76 495.22 1030.43 495.22S1061.36 471.61 1089.93 471.61S1120.59 483.9 1149.42 483.9S1179.53 479.72 1208.92 479.72S1239.33 476.5 1268.42 476.5S1298.76 478.43 1327.91 478.43S1359.24 493.7 1387.41 493.7S1417.58 479.39 1446.91 479.39S1476.89 491.7 1506.4 491.7S1537.63 466.49 1565.9 466.49L1554 684 L-100 684 Z;M-100 477.86C-70.19 481.64 -70.19 479.5 -40.5 479.5S-10.7 484.5 18.99 484.5S48.82 479.55 78.49 479.55S109.72 471.54 137.99 471.54S169.15 489.4 197.48 489.4S227.83 472.88 256.98 472.88S287.76 480.2 316.47 480.2S346.25 471.75 375.97 471.75S406 475.09 435.47 475.09S466.21 480.85 494.96 480.85S525.92 470.7 554.46 470.7S584.73 479.91 613.96 479.91S643.8 484.54 673.45 484.54S704.09 478.86 732.95 478.86S762.8 484.33 792.45 484.33S823.44 479.53 851.94 479.53S883.21 482 911.44 482S941.29 467.59 970.94 467.59S1000.8 471.6 1030.43 471.6S1060.19 466.19 1089.93 466.19S1121.08 468.34 1149.42 468.34S1180.56 470.2 1208.92 470.2S1239.38 495.82 1268.42 495.82S1299.19 466 1327.91 466S1359.12 491.22 1387.41 491.22S1418.23 477.08 1446.91 477.08S1477.31 471.85 1506.4 471.85S1536.93 473.38 1565.9 473.38L1554 684 L-100 684 Z;M-100 480.68C-69.88 475.48 -68.59 475.94 -40.5 475.94S-9.8 482.35 18.99 482.35S50.11 494.69 78.49 494.69S109.42 485.01 137.99 485.01S167.93 484.19 197.48 484.19S228.48 470.94 256.98 470.94S286.94 489.1 316.47 489.1S346.72 470.55 375.97 470.55S406.8 481.79 435.47 481.79S466.68 491.08 494.96 491.08S524.84 487.56 554.46 487.56S584.9 467.4 613.96 467.4S644.16 480.34 673.45 480.34S704.36 467.39 732.95 467.39S763.36 495.56 792.45 495.56S822.96 470.51 851.94 470.51S882.7 481.68 911.44 481.68S941.83 470.68 970.94 470.68S1001.76 495.22 1030.43 495.22S1061.36 471.61 1089.93 471.61S1120.59 483.9 1149.42 483.9S1179.53 479.72 1208.92 479.72S1239.33 476.5 1268.42 476.5S1298.76 478.43 1327.91 478.43S1359.24 493.7 1387.41 493.7S1417.58 479.39 1446.91 479.39S1476.89 491.7 1506.4 491.7S1537.63 466.49 1565.9 466.49L1554 684 L-100 684 Z"></animate>
  <animateTransform attributeName="transform" type="translate" dur="15s" begin="-6s" repeatCount="indefinite" values="0;10;0" calcMode="spline" keySplines="0.3 0 0.7 1;0.3 0 0.7 1"></animateTransform>
</path><path d="M -100 484.053 C -68.8014 486.768 -68.1061 508.279 -38.74 508.279 S -7.3113 494.845 22.52 494.845 S 54.5148 505.705 83.78 505.705 S 115.183 504.582 145.04 504.582 S 176.503 503.945 206.3 503.945 S 237.106 486.576 267.56 486.576 S 299.416 509.361 328.81 509.361 S 360.289 490.764 390.07 490.764 S 421.742 504.88 451.33 504.88 S 483.182 488.696 512.59 488.696 S 544.447 509.331 573.85 509.331 S 605.433 492.508 635.11 492.508 S 666.147 507.859 696.37 507.859 S 728.062 505.155 757.63 505.155 S 789.426 505.075 818.89 505.075 S 850.666 491.332 880.15 491.332 S 911.227 493.253 941.41 493.253 S 972.844 492.742 1002.67 492.742 S 1034.03 498.24 1063.93 498.24 S 1095.08 488.537 1125.19 488.537 S 1157.19 512.873 1186.44 512.873 S 1218.01 499.406 1247.7 499.406 S 1279.51 497.64 1308.96 497.64 S 1340.59 489.534 1370.22 489.534 S 1401.61 511.695 1431.48 511.695 S 1463.01 501.784 1492.74 501.784 S 1524.52 513.396 1554 513.396 S 1585.76 486.722 1615.26 486.722 L 1554 684 L -100 684 Z" fill="#533a99" stroke-width="0" transform="translate(7.48796 0)">
  <animate attributeName="d" dur="12.5s" repeatCount="indefinite" values="M-100 483.18C-68.99 487.11 -67.86 506.31 -38.74 506.31S-7.03 491.84 22.52 491.84S54.47 502.07 83.78 502.07S115.34 499.18 145.04 499.18S176.88 502.43 206.3 502.43S237.01 484.6 267.56 484.6S299.72 512.66 328.81 512.66S360.51 492.74 390.07 492.74S421.95 505.81 451.33 505.81S483.07 490.24 512.59 490.24S544.84 511.84 573.85 511.84S605.59 489.89 635.11 489.89S666.16 516.25 696.37 516.25S727.87 511.05 757.63 511.05S789.8 507.69 818.89 507.69S851.03 490.53 880.15 490.53S911.31 484.52 941.41 484.52S972.79 494.04 1002.67 494.04S1033.7 502.83 1063.93 502.83S1095.18 485.11 1125.19 485.11S1157.17 511.54 1186.44 511.54S1218.01 493.79 1247.7 493.79S1279.78 489.15 1308.96 489.15S1340.98 487.68 1370.22 487.68S1401.44 516.02 1431.48 516.02S1462.69 510.77 1492.74 510.77S1524.38 512.99 1554 512.99S1585.91 483.33 1615.26 483.33L1554 684 L-100 684 Z;M-100 485.91C-68.4 486.04 -68.63 512.47 -38.74 512.47S-7.91 501.24 22.52 501.24S54.61 513.44 83.78 513.44S114.85 516.08 145.04 516.08S175.7 507.17 206.3 507.17S237.31 490.78 267.56 490.78S298.77 502.34 328.81 502.34S359.82 486.56 390.07 486.56S421.3 502.9 451.33 502.9S483.42 485.41 512.59 485.41S543.61 503.99 573.85 503.99S605.1 498.08 635.11 498.08S666.12 490 696.37 490S728.47 492.61 757.63 492.61S788.63 499.51 818.89 499.51S849.89 493.04 880.15 493.04S911.05 511.84 941.41 511.84S972.96 489.98 1002.67 489.98S1034.74 488.47 1063.93 488.47S1094.88 495.83 1125.19 495.83S1157.24 515.71 1186.44 515.71S1218.02 511.36 1247.7 511.36S1278.94 515.71 1308.96 515.71S1339.76 493.48 1370.22 493.48S1401.96 502.49 1431.48 502.49S1463.68 482.66 1492.74 482.66S1524.81 514.26 1554 514.26S1585.44 493.94 1615.26 493.94L1554 684 L-100 684 Z;M-100 483.18C-68.99 487.11 -67.86 506.31 -38.74 506.31S-7.03 491.84 22.52 491.84S54.47 502.07 83.78 502.07S115.34 499.18 145.04 499.18S176.88 502.43 206.3 502.43S237.01 484.6 267.56 484.6S299.72 512.66 328.81 512.66S360.51 492.74 390.07 492.74S421.95 505.81 451.33 505.81S483.07 490.24 512.59 490.24S544.84 511.84 573.85 511.84S605.59 489.89 635.11 489.89S666.16 516.25 696.37 516.25S727.87 511.05 757.63 511.05S789.8 507.69 818.89 507.69S851.03 490.53 880.15 490.53S911.31 484.52 941.41 484.52S972.79 494.04 1002.67 494.04S1033.7 502.83 1063.93 502.83S1095.18 485.11 1125.19 485.11S1157.17 511.54 1186.44 511.54S1218.01 493.79 1247.7 493.79S1279.78 489.15 1308.96 489.15S1340.98 487.68 1370.22 487.68S1401.44 516.02 1431.48 516.02S1462.69 510.77 1492.74 510.77S1524.38 512.99 1554 512.99S1585.91 483.33 1615.26 483.33L1554 684 L-100 684 Z"></animate>
  <animateTransform attributeName="transform" type="translate" dur="12.5s" begin="-6.25s" repeatCount="indefinite" values="0;10;0" calcMode="spline" keySplines="0.3 0 0.7 1;0.3 0 0.7 1"></animateTransform>
</path><path d="M -100 502.085 C -68.2434 507.135 -67.0844 520.907 -36.87 520.907 S -3.88987 504.881 26.26 504.881 S 59.4258 522.277 89.39 522.277 S 122.576 509.28 152.52 509.28 S 185.09 530.103 215.65 530.103 S 248.144 501.64 278.78 501.64 S 310.831 524.072 341.91 524.072 S 373.905 530.667 405.04 530.667 S 437.621 529.567 468.17 529.567 S 500.628 503.74 531.3 503.74 S 563.625 533.938 594.43 533.938 S 626.525 505.511 657.56 505.511 S 689.815 531.476 720.69 531.476 S 753.61 509.801 783.82 509.801 S 816.356 531.269 846.95 531.269 S 879.188 505.591 910.08 505.591 S 943.186 529.46 973.21 529.46 S 1005.22 509.773 1036.34 509.773 S 1068.8 523.958 1099.47 523.958 S 1131.83 501.825 1162.6 501.825 S 1195.16 500.261 1225.73 500.261 S 1258.61 523.815 1288.85 523.815 S 1320.71 522.238 1351.98 522.238 S 1383.94 511.959 1415.11 511.959 S 1447.23 520.982 1478.24 520.982 S 1510.44 500.207 1541.37 500.207 S 1573.86 534.376 1604.5 534.376 L 1554 684 L -100 684 Z" fill="#593fa3" stroke-width="0" transform="translate(7.73083 0)">
  <animate attributeName="d" dur="10s" repeatCount="indefinite" values="M-100 501.49C-68.39 506.2 -66.99 522.68 -36.87 522.68S-3.92 504.04 26.26 504.04S59.47 521.12 89.39 521.12S122.57 509.83 152.52 509.83S185.16 530.85 215.65 530.85S248.11 501.3 278.78 501.3S310.8 522.92 341.91 522.92S373.84 532.84 405.04 532.84S437.69 530.11 468.17 530.11S500.56 500.31 531.3 500.31S563.54 534.39 594.43 534.39S626.55 503.67 657.56 503.67S689.84 532.64 720.69 532.64S753.71 509.95 783.82 509.95S816.46 533.29 846.95 533.29S879.25 504.51 910.08 504.51S943.17 528.74 973.21 528.74S1005.12 510.79 1036.34 510.79S1068.82 523.46 1099.47 523.46S1131.87 501.59 1162.6 501.59S1195.17 500.15 1225.73 500.15S1258.7 524.23 1288.85 524.23S1320.62 521.7 1351.98 521.7S1383.93 509.55 1415.11 509.55S1447.26 520.07 1478.24 520.07S1510.34 500.02 1541.37 500.02S1573.79 534.73 1604.5 534.73L1554 684 L-100 684 Z;M-100 507.41C-66.93 515.51 -67.93 505.03 -36.87 505.03S-3.62 512.41 26.26 512.41S59.03 532.64 89.39 532.64S122.63 504.35 152.52 504.35S184.46 523.41 215.65 523.41S248.45 504.69 278.78 504.69S311.11 534.39 341.91 534.39S374.49 511.2 405.04 511.2S437 524.7 468.17 524.7S501.24 534.46 531.3 534.46S564.39 529.89 594.43 529.89S626.3 522 657.56 522S689.59 521.05 720.69 521.05S752.71 508.47 783.82 508.47S815.42 513.17 846.95 513.17S878.63 515.27 910.08 515.27S943.33 535.91 973.21 535.91S1006.14 500.66 1036.34 500.66S1068.65 528.42 1099.47 528.42S1131.44 503.93 1162.6 503.93S1195.06 501.26 1225.73 501.26S1257.81 520.1 1288.85 520.1S1321.5 527.06 1351.98 527.06S1384.05 533.54 1415.11 533.54S1446.97 529.15 1478.24 529.15S1511.33 501.88 1541.37 501.88S1574.45 531.21 1604.5 531.21L1554 684 L-100 684 Z;M-100 501.49C-68.39 506.2 -66.99 522.68 -36.87 522.68S-3.92 504.04 26.26 504.04S59.47 521.12 89.39 521.12S122.57 509.83 152.52 509.83S185.16 530.85 215.65 530.85S248.11 501.3 278.78 501.3S310.8 522.92 341.91 522.92S373.84 532.84 405.04 532.84S437.69 530.11 468.17 530.11S500.56 500.31 531.3 500.31S563.54 534.39 594.43 534.39S626.55 503.67 657.56 503.67S689.84 532.64 720.69 532.64S753.71 509.95 783.82 509.95S816.46 533.29 846.95 533.29S879.25 504.51 910.08 504.51S943.17 528.74 973.21 528.74S1005.12 510.79 1036.34 510.79S1068.82 523.46 1099.47 523.46S1131.87 501.59 1162.6 501.59S1195.17 500.15 1225.73 500.15S1258.7 524.23 1288.85 524.23S1320.62 521.7 1351.98 521.7S1383.93 509.55 1415.11 509.55S1447.26 520.07 1478.24 520.07S1510.34 500.02 1541.37 500.02S1573.79 534.73 1604.5 534.73L1554 684 L-100 684 Z"></animate>
  <animateTransform attributeName="transform" type="translate" dur="10s" begin="-6s" repeatCount="indefinite" values="0;10;0" calcMode="spline" keySplines="0.3 0 0.7 1;0.3 0 0.7 1"></animateTransform>
</path><path d="M -100 518.184 C -66.9684 528.083 -66.6362 544.977 -34.88 544.977 S -0.839687 530.879 30.24 530.879 S 63.0939 548.616 95.35 548.616 S 129.064 518.87 160.47 518.87 S 194.586 549.677 225.59 549.677 S 259.25 520.503 290.71 520.503 S 323.928 551.435 355.83 551.435 S 389.172 543.117 420.94 543.117 S 455.08 552.306 486.06 552.306 S 519.228 527.244 551.18 527.244 S 585.176 551.698 616.3 551.698 S 650.16 526.286 681.42 526.286 S 715.355 549.271 746.54 549.271 S 779.441 527.599 811.65 527.599 S 844.848 545.885 876.77 545.885 S 909.81 526.728 941.89 526.728 S 975.762 541.219 1007.01 541.219 S 1040.87 518.801 1072.13 518.801 S 1105.53 549.758 1137.24 549.758 S 1170.83 529.991 1202.36 529.991 S 1235.2 551.518 1267.48 551.518 S 1301.59 530.786 1332.6 530.786 S 1365.98 545.521 1397.72 545.521 S 1431.27 522.642 1462.83 522.642 S 1496.63 545.99 1527.95 545.99 S 1560.83 543.226 1593.07 543.226 L 1554 684 L -100 684 Z" fill="#5f44ac" stroke-width="0" transform="translate(1.13969 0)">
  <animate attributeName="d" dur="7.5s" repeatCount="indefinite" values="M-100 520.41C-66.4 518.74 -66.34 552.35 -34.88 552.35S-1.28 524.33 30.24 524.33S63.27 545.51 95.35 545.51S128.4 520.96 160.47 520.96S194.73 550.99 225.59 550.99S259.41 533.48 290.71 533.48S324.44 529.98 355.83 529.98S388.54 530.1 420.94 530.1S455.08 546.59 486.06 546.59S519.18 524.81 551.18 524.81S585.16 552.33 616.3 552.33S649.68 545.9 681.42 545.9S714.45 545.62 746.54 545.62S780.25 524.06 811.65 524.06S844.68 547.87 876.77 547.87S909.53 526.96 941.89 526.96S975.85 543.06 1007.01 543.06S1040.11 517.2 1072.13 517.2S1104.72 555.89 1137.24 555.89S1171 528.31 1202.36 528.31S1235.17 557.01 1267.48 557.01S1301.41 520.21 1332.6 520.21S1366.13 544.48 1397.72 544.48S1430.97 519.64 1462.83 519.64S1497.09 549.04 1527.95 549.04S1561.03 532.53 1593.07 532.53L1554 684 L-100 684 Z;M-100 517.63C-67.11 530.41 -66.71 543.14 -34.88 543.14S-0.73 532.51 30.24 532.51S63.05 549.39 95.35 549.39S129.23 518.35 160.47 518.35S194.55 549.35 225.59 549.35S259.21 517.27 290.71 517.27S323.8 556.78 355.83 556.78S389.33 546.36 420.94 546.36S455.08 553.73 486.06 553.73S519.24 527.85 551.18 527.85S585.18 551.54 616.3 551.54S650.28 521.4 681.42 521.4S715.58 550.18 746.54 550.18S779.24 528.48 811.65 528.48S844.89 545.39 876.77 545.39S909.88 526.67 941.89 526.67S975.74 540.76 1007.01 540.76S1041.06 519.2 1072.13 519.2S1105.73 548.23 1137.24 548.23S1170.79 530.41 1202.36 530.41S1235.21 550.15 1267.48 550.15S1301.64 533.42 1332.6 533.42S1365.94 545.78 1397.72 545.78S1431.34 523.39 1462.83 523.39S1496.52 545.23 1527.95 545.23S1560.78 545.89 1593.07 545.89L1554 684 L-100 684 Z;M-100 520.41C-66.4 518.74 -66.34 552.35 -34.88 552.35S-1.28 524.33 30.24 524.33S63.27 545.51 95.35 545.51S128.4 520.96 160.47 520.96S194.73 550.99 225.59 550.99S259.41 533.48 290.71 533.48S324.44 529.98 355.83 529.98S388.54 530.1 420.94 530.1S455.08 546.59 486.06 546.59S519.18 524.81 551.18 524.81S585.16 552.33 616.3 552.33S649.68 545.9 681.42 545.9S714.45 545.62 746.54 545.62S780.25 524.06 811.65 524.06S844.68 547.87 876.77 547.87S909.53 526.96 941.89 526.96S975.85 543.06 1007.01 543.06S1040.11 517.2 1072.13 517.2S1104.72 555.89 1137.24 555.89S1171 528.31 1202.36 528.31S1235.17 557.01 1267.48 557.01S1301.41 520.21 1332.6 520.21S1366.13 544.48 1397.72 544.48S1430.97 519.64 1462.83 519.64S1497.09 549.04 1527.95 549.04S1561.03 532.53 1593.07 532.53L1554 684 L-100 684 Z"></animate>
  <animateTransform attributeName="transform" type="translate" dur="7.5s" begin="-5.25s" repeatCount="indefinite" values="0;10;0" calcMode="spline" keySplines="0.3 0 0.7 1;0.3 0 0.7 1"></animateTransform>
</path><path d="M -100 550.671 C -65.6724 540.219 -65.6347 572.063 -32.76 572.063 S 2.28816 545.683 34.47 545.683 S 68.5903 543.721 101.71 543.721 S 136.271 540.835 168.94 540.835 S 203.544 549.882 236.18 549.882 S 271.144 535.177 303.41 535.177 S 338.187 571.922 370.65 571.922 S 404.914 536.62 437.89 536.62 S 472.451 567.475 505.12 567.475 S 540.155 550.039 572.36 550.039 S 606.966 547.685 639.59 547.685 S 674.234 542.388 706.83 542.388 S 741.156 573.941 774.07 573.941 S 808.996 543.673 841.3 543.673 S 875.219 567.263 908.54 567.263 S 942.585 542.812 975.77 542.812 S 1010.37 577.348 1043.01 577.348 S 1078.06 549.092 1110.24 549.092 S 1145.19 572.608 1177.48 572.608 S 1212.01 537.569 1244.72 537.569 S 1278.99 575.494 1311.95 575.494 S 1345.8 546.34 1379.19 546.34 S 1412.99 566.497 1446.42 566.497 S 1481.07 546.101 1513.66 546.101 S 1547.72 565.655 1580.89 565.655 L 1554 684 L -100 684 Z" fill="#6549b6" stroke-width="0" transform="translate(1.12553 0)">
  <animate attributeName="d" dur="5s" repeatCount="indefinite" values="M-100 545.28C-65.58 533.86 -65.48 570.94 -32.76 570.94S2.25 538.84 34.47 538.84S68.52 538.81 101.71 538.81S136.4 540.71 168.94 540.71S203.46 544.19 236.18 544.19S271.08 533.65 303.41 533.65S338.33 573.71 370.65 573.71S404.83 533.71 437.89 533.71S472.27 566.34 505.12 566.34S540.36 544.28 572.36 544.28S606.87 541.38 639.59 541.38S674.28 542.94 706.83 542.94S741.23 574.6 774.07 574.6S809.02 543.9 841.3 543.9S875.03 566.06 908.54 566.06S942.36 544.65 975.77 544.65S1010.41 577.4 1043.01 577.4S1078.1 549.5 1110.24 549.5S1145.19 571.31 1177.48 571.31S1211.86 535.97 1244.72 535.97S1278.87 577.86 1311.95 577.86S1345.85 549.17 1379.19 549.17S1412.97 566.82 1446.42 566.82S1481.04 545.8 1513.66 545.8S1547.46 569.77 1580.89 569.77L1554 684 L-100 684 Z;M-100 572.12C-66.04 565.52 -66.25 576.53 -32.76 576.53S2.44 572.91 34.47 572.91S68.87 563.26 101.71 563.26S135.76 541.33 168.94 541.33S203.88 572.53 236.18 572.53S271.4 541.25 303.41 541.25S337.62 564.81 370.65 564.81S405.25 548.2 437.89 548.2S473.17 571.99 505.12 571.99S539.34 572.95 572.36 572.95S607.35 572.77 639.59 572.77S674.05 540.19 706.83 540.19S740.86 571.32 774.07 571.32S808.9 542.77 841.3 542.77S875.97 572.05 908.54 572.05S943.48 535.5 975.77 535.5S1010.23 577.14 1043.01 577.14S1077.92 547.47 1110.24 547.47S1145.17 577.77 1177.48 577.77S1212.62 543.93 1244.72 543.93S1279.48 566.08 1311.95 566.08S1345.61 535.08 1379.19 535.08S1413.06 565.21 1446.42 565.21S1481.21 547.3 1513.66 547.3S1548.75 549.28 1580.89 549.28L1554 684 L-100 684 Z;M-100 545.28C-65.58 533.86 -65.48 570.94 -32.76 570.94S2.25 538.84 34.47 538.84S68.52 538.81 101.71 538.81S136.4 540.71 168.94 540.71S203.46 544.19 236.18 544.19S271.08 533.65 303.41 533.65S338.33 573.71 370.65 573.71S404.83 533.71 437.89 533.71S472.27 566.34 505.12 566.34S540.36 544.28 572.36 544.28S606.87 541.38 639.59 541.38S674.28 542.94 706.83 542.94S741.23 574.6 774.07 574.6S809.02 543.9 841.3 543.9S875.03 566.06 908.54 566.06S942.36 544.65 975.77 544.65S1010.41 577.4 1043.01 577.4S1078.1 549.5 1110.24 549.5S1145.19 571.31 1177.48 571.31S1211.86 535.97 1244.72 535.97S1278.87 577.86 1311.95 577.86S1345.85 549.17 1379.19 549.17S1412.97 566.82 1446.42 566.82S1481.04 545.8 1513.66 545.8S1547.46 569.77 1580.89 569.77L1554 684 L-100 684 Z"></animate>
  <animateTransform attributeName="transform" type="translate" dur="5s" begin="-4s" repeatCount="indefinite" values="0;10;0" calcMode="spline" keySplines="0.3 0 0.7 1;0.3 0 0.7 1"></animateTransform>
</path><path d="M -100 555.791 C -63.8439 566.517 -64.2881 589.279 -30.5 589.279 S 5.32325 565.908 38.99 565.908 S 74.502 590.622 108.49 590.622 S 144.228 572.805 177.98 572.805 S 213.422 588.559 247.48 588.559 S 283.055 560.996 316.97 560.996 S 353.126 588.519 386.47 588.519 S 422.262 557.128 455.97 557.128 S 491.486 593.574 525.46 593.574 S 561.742 559.751 594.96 559.751 S 631.136 572.904 664.45 572.904 S 699.42 558.755 733.95 558.755 S 770.075 589.654 803.45 589.654 S 839.341 558.38 872.94 558.38 S 908.345 589.219 942.44 589.219 S 977.665 573.795 1011.93 573.795 S 1047.27 586.29 1081.43 586.29 S 1116.78 554.753 1150.92 554.753 S 1186.55 595.296 1220.42 595.296 S 1255.84 554.185 1289.92 554.185 S 1325.57 588.243 1359.41 588.243 S 1395.24 577.917 1428.91 577.917 S 1464.4 589.736 1498.4 589.736 S 1533.23 566.034 1567.9 566.034 L 1554 684 L -100 684 Z" fill="#6c4fbf" stroke-width="0" transform="translate(1.15106 0)">
  <animate attributeName="d" dur="2.5s" repeatCount="indefinite" values="M-100 555.96C-63.86 565.83 -64.26 590.48 -30.5 590.48S5.03 564.86 38.99 564.86S74.98 589.75 108.49 589.75S143.87 556.64 177.98 556.64S212.9 588.43 247.48 588.43S282.83 559.16 316.97 559.16S353.03 590.7 386.47 590.7S422.68 557.1 455.97 557.1S491.98 592.22 525.46 592.22S561.69 562.37 594.96 562.37S631.16 585.08 664.45 585.08S699.42 558.51 733.95 558.51S769.87 592.86 803.45 592.86S839.1 557.36 872.94 557.36S907.75 589.36 942.44 589.36S977.83 564.05 1011.93 564.05S1047.44 583.84 1081.43 583.84S1116.6 553.01 1150.92 553.01S1186.37 594.28 1220.42 594.28S1256.24 556.31 1289.92 556.31S1325.79 592.81 1359.41 592.81S1394.98 587.08 1428.91 587.08S1463.97 590.64 1498.4 590.64S1533.28 566.42 1567.9 566.42L1554 684 L-100 684 Z;M-100 555.54C-63.82 567.54 -64.33 587.49 -30.5 587.49S5.76 567.47 38.99 567.47S73.79 591.92 108.49 591.92S144.76 596.88 177.98 596.88S214.2 588.75 247.48 588.75S283.39 563.73 316.97 563.73S353.27 585.27 386.47 585.27S421.64 557.17 455.97 557.17S490.75 595.59 525.46 595.59S561.82 555.85 594.96 555.85S631.1 554.77 664.45 554.77S699.42 559.12 733.95 559.12S770.38 584.88 803.45 584.88S839.7 559.9 872.94 559.9S909.23 589.01 942.44 589.01S977.42 588.31 1011.93 588.31S1047.01 589.94 1081.43 589.94S1117.05 557.35 1150.92 557.35S1186.82 596.81 1220.42 596.81S1255.24 551.02 1289.92 551.02S1325.25 581.44 1359.41 581.44S1395.62 564.27 1428.91 564.27S1465.03 588.39 1498.4 588.39S1533.15 565.46 1567.9 565.46L1554 684 L-100 684 Z;M-100 555.96C-63.86 565.83 -64.26 590.48 -30.5 590.48S5.03 564.86 38.99 564.86S74.98 589.75 108.49 589.75S143.87 556.64 177.98 556.64S212.9 588.43 247.48 588.43S282.83 559.16 316.97 559.16S353.03 590.7 386.47 590.7S422.68 557.1 455.97 557.1S491.98 592.22 525.46 592.22S561.69 562.37 594.96 562.37S631.16 585.08 664.45 585.08S699.42 558.51 733.95 558.51S769.87 592.86 803.45 592.86S839.1 557.36 872.94 557.36S907.75 589.36 942.44 589.36S977.83 564.05 1011.93 564.05S1047.44 583.84 1081.43 583.84S1116.6 553.01 1150.92 553.01S1186.37 594.28 1220.42 594.28S1256.24 556.31 1289.92 556.31S1325.79 592.81 1359.41 592.81S1394.98 587.08 1428.91 587.08S1463.97 590.64 1498.4 590.64S1533.28 566.42 1567.9 566.42L1554 684 L-100 684 Z"></animate>
  <animateTransform attributeName="transform" type="translate" dur="2.5s" begin="-2.25s" repeatCount="indefinite" values="0;10;0" calcMode="spline" keySplines="0.3 0 0.7 1;0.3 0 0.7 1"></animateTransform>
</path></g>
</svg>