<svg xmlns="http://www.w3.org/2000/svg" xmlns:xlink="http://www.w3.org/1999/xlink" width="189.55" height="152.28" viewBox="0 0 189.55 152.28">
  <defs>
    <style>
      .cls-1 {
        isolation: isolate;
      }

      .cls-2 {
        fill: #272b2c;
      }

      .cls-3 {
        fill: #6c5ba7;
      }

      .cls-4 {
        fill: url(#linear-gradient);
      }

      .cls-11, .cls-5, .cls-7, .cls-9 {
        mix-blend-mode: color-dodge;
      }

      .cls-5 {
        fill: url(#New_Gradient_Swatch_1);
      }

      .cls-6 {
        fill: url(#linear-gradient-2);
      }

      .cls-7 {
        fill: url(#New_Gradient_Swatch_1-2);
      }

      .cls-8 {
        fill: url(#linear-gradient-3);
      }

      .cls-9 {
        fill: url(#New_Gradient_Swatch_1-3);
      }

      .cls-10 {
        fill: url(#linear-gradient-4);
      }

      .cls-11 {
        fill: url(#New_Gradient_Swatch_1-4);
      }

      .cls-12 {
        fill: url(#radial-gradient);
      }

      .cls-13 {
        fill: url(#linear-gradient-5);
      }
    </style>
    <linearGradient id="linear-gradient" x1="93.54" y1="89.83" x2="117.21" y2="68.05" gradientUnits="userSpaceOnUse">
      <stop offset="0" stop-color="#272b2c"/>
      <stop offset="1" stop-color="#6c5ba7"/>
    </linearGradient>
    <radialGradient id="New_Gradient_Swatch_1" data-name="New Gradient Swatch 1" cx="130.4" cy="30.62" r="26.25" gradientUnits="userSpaceOnUse">
      <stop offset="0.01" stop-color="#6c5ba7"/>
      <stop offset="1" stop-color="#6c5ba7" stop-opacity="0"/>
    </radialGradient>
    <linearGradient id="linear-gradient-2" x1="77.94" y1="88.62" x2="70.4" y2="80.66" xlink:href="#linear-gradient"/>
    <radialGradient id="New_Gradient_Swatch_1-2" cx="58.17" cy="62.56" r="16.2" xlink:href="#New_Gradient_Swatch_1"/>
    <linearGradient id="linear-gradient-3" x1="96.2" y1="62.46" x2="109.23" y2="79.27" xlink:href="#linear-gradient"/>
    <radialGradient id="New_Gradient_Swatch_1-3" cx="120.09" cy="84.99" r="15.22" xlink:href="#New_Gradient_Swatch_1"/>
    <linearGradient id="linear-gradient-4" x1="47.63" y1="97.38" x2="80.77" y2="82.77" xlink:href="#linear-gradient"/>
    <radialGradient id="New_Gradient_Swatch_1-4" cx="94.68" cy="70.68" r="15.35" xlink:href="#New_Gradient_Swatch_1"/>
    <radialGradient id="radial-gradient" cx="104.11" cy="-2.83" r="55.61" gradientUnits="userSpaceOnUse">
      <stop offset="0" stop-color="#58595b"/>
      <stop offset="0.99" stop-color="#272b2c"/>
    </radialGradient>
    <linearGradient id="linear-gradient-5" x1="94.15" y1="16.49" x2="94.15" y2="-147.37" gradientUnits="userSpaceOnUse">
      <stop offset="0.01" stop-color="#272b2c"/>
      <stop offset="1" stop-color="#414042" stop-opacity="0"/>
    </linearGradient>
  </defs>
  <g class="cls-1">
    <g id="Layer_2" data-name="Layer 2">
      <g id="Layer_1-2" data-name="Layer 1">
        <g>
          <g>
            <path class="cls-2" d="M15.4,152.28a14.7,14.7,0,0,1-5.78-1.1,14.24,14.24,0,0,1-4.45-2.93,13.14,13.14,0,0,1-2.88-4.18,11.9,11.9,0,0,1-1-4.8,11.67,11.67,0,0,1,1.08-4.92,13.53,13.53,0,0,1,3-4.16,14.43,14.43,0,0,1,4.51-2.87,14.91,14.91,0,0,1,5.68-1.06,14.1,14.1,0,0,1,5.74,1.13,14.35,14.35,0,0,1,4.43,3,13.29,13.29,0,0,1,2.86,4.19,11.9,11.9,0,0,1,1,4.77,11.68,11.68,0,0,1-1.06,4.9,13.4,13.4,0,0,1-2.94,4.12,14.28,14.28,0,0,1-4.5,2.85A14.87,14.87,0,0,1,15.4,152.28ZM7,139.27a9,9,0,0,0,.58,3.21,8.09,8.09,0,0,0,4.3,4.67,8.51,8.51,0,0,0,3.58.72,8.43,8.43,0,0,0,3.61-.74,8,8,0,0,0,2.66-2,8.51,8.51,0,0,0,1.63-2.77,9.08,9.08,0,0,0,.55-3.12,8.87,8.87,0,0,0-.59-3.22,8.56,8.56,0,0,0-1.67-2.75A8,8,0,0,0,19,131.41a8.53,8.53,0,0,0-3.53-.71,8.64,8.64,0,0,0-3.64.74,8.11,8.11,0,0,0-2.65,1.95,8.37,8.37,0,0,0-1.61,2.75A9.15,9.15,0,0,0,7,139.27Z" transform="translate(-1.27)"/>
            <path class="cls-2" d="M39.45,126.44h5l11,25.66H49.67L47,145.7H36.84l-2.65,6.4h-5.8ZM46,142.19l-4-10.08-4.17,10.08Z" transform="translate(-1.27)"/>
            <path class="cls-2" d="M57,152.1V126.47h5.64v12.18l12.17-12.21H81L69.88,137.82l11.8,14.28H75.35l-9-11.1-3.72,3.44v7.66Z" transform="translate(-1.27)"/>
            <path class="cls-3" d="M92.63,126.51h5.19l3.26,8.49,3.27-8.49h5.23l-4.94,11.67,3.67,8.21,8.21-19.95h6.13l-11.8,25.66h-4.74l-5-10.77-5,10.77H91.32L79.6,126.44h6.05l8.25,19.95,3.59-8.21Z" transform="translate(-1.27)"/>
            <path class="cls-3" d="M129.71,126.44h5l11,25.66h-5.79l-2.7-6.4H127.1l-2.65,6.4h-5.8Zm6.5,15.75-4-10.08L128,142.19Z" transform="translate(-1.27)"/>
            <path class="cls-3" d="M147.73,126.44l7.84,19.41,7.76-19.41h5.92L157.94,152.1H153.2l-11.4-25.66Z" transform="translate(-1.27)"/>
            <path class="cls-3" d="M190.81,147.73v4.37H170.68V126.44h19.77v4.37H176.32V137h12.21v4H176.32v6.69Z" transform="translate(-1.27)"/>
          </g>
          <g>
            <path class="cls-4" d="M144,39.6a50.27,50.27,0,0,0-14.49-10.9A39.28,39.28,0,0,1,105.5,87.1c.81.66,1.66,1.3,2.52,1.91a14.05,14.05,0,0,0,16.23,0c.86-.61,1.7-1.25,2.52-1.91A49,49,0,0,0,144,39.6Z" transform="translate(-1.27)"/>
            <path class="cls-5" d="M144,39.6a50.27,50.27,0,0,0-14.49-10.9A39.28,39.28,0,0,1,105.5,87.1c.81.66,1.66,1.3,2.52,1.91a14.05,14.05,0,0,0,16.23,0c.86-.61,1.7-1.25,2.52-1.91A49,49,0,0,0,144,39.6Z" transform="translate(-1.27)"/>
            <path class="cls-6" d="M58.35,60.38a50.12,50.12,0,0,0-1.82,13.44c0,1.56.07,3.09.21,4.61a48.7,48.7,0,0,0,9.08,9.23,47.62,47.62,0,0,0,4.12,2.9A14.16,14.16,0,0,0,85,90.48a48.92,48.92,0,0,0,4-2.82A39.2,39.2,0,0,1,58.35,60.38Z" transform="translate(-1.27)"/>
            <path class="cls-7" d="M58.35,60.38a50.12,50.12,0,0,0-1.82,13.44c0,1.56.07,3.09.21,4.61a48.7,48.7,0,0,0,9.08,9.23,47.62,47.62,0,0,0,4.12,2.9A14.16,14.16,0,0,0,85,90.48a48.92,48.92,0,0,0,4-2.82A39.2,39.2,0,0,1,58.35,60.38Z" transform="translate(-1.27)"/>
            <path class="cls-8" d="M126.77,87.1c-.82.66-1.66,1.3-2.52,1.91A14.05,14.05,0,0,1,108,89c-.86-.61-1.71-1.25-2.52-1.91A48.92,48.92,0,0,1,92.05,70c.23-.36.45-.72.67-1.09a5.65,5.65,0,0,1,9.77,0c.22.37.45.73.67,1.09A39.27,39.27,0,0,0,126.77,87.1Z" transform="translate(-1.27)"/>
            <path class="cls-9" d="M126.77,87.1c-.82.66-1.66,1.3-2.52,1.91A14.05,14.05,0,0,1,108,89c-.86-.61-1.71-1.25-2.52-1.91A48.92,48.92,0,0,1,92.05,70c.23-.36.45-.72.67-1.09a5.65,5.65,0,0,1,9.77,0c.22.37.45.73.67,1.09A39.27,39.27,0,0,0,126.77,87.1Z" transform="translate(-1.27)"/>
            <path class="cls-10" d="M103.16,70A49.39,49.39,0,0,1,89,87.66a48.92,48.92,0,0,1-4,2.82,14.16,14.16,0,0,1-15.07.08,47.62,47.62,0,0,1-4.12-2.9,38.88,38.88,0,0,0,11.59-4A39.36,39.36,0,0,0,92.05,70c.23-.36.45-.72.67-1.09a5.65,5.65,0,0,1,9.77,0C102.71,69.32,102.94,69.68,103.16,70Z" transform="translate(-1.27)"/>
            <path class="cls-11" d="M103.16,70A49.39,49.39,0,0,1,89,87.66a48.92,48.92,0,0,1-4,2.82,14.16,14.16,0,0,1-15.07.08,47.62,47.62,0,0,1-4.12-2.9,38.88,38.88,0,0,0,11.59-4A39.36,39.36,0,0,0,92.05,70c.23-.36.45-.72.67-1.09a5.65,5.65,0,0,1,9.77,0C102.71,69.32,102.94,69.68,103.16,70Z" transform="translate(-1.27)"/>
            <path class="cls-12" d="M141.58,31.14c-.29-.23-.58-.47-.88-.69a54.55,54.55,0,0,0-16.65-8.87,40,40,0,0,0-7.92-6.26,39.37,39.37,0,0,0-27.11-5,38.68,38.68,0,0,0-11.6,4A39.24,39.24,0,0,0,56.67,49c0,.84,0,1.67.08,2.5a54.5,54.5,0,0,0-4.6,18.67c0,.25,0,.5,0,.75a49,49,0,1,1,89.48-39.79Z" transform="translate(-1.27)"/>
            <path class="cls-13" d="M140.7,30.45a54.55,54.55,0,0,0-16.65-8.87,40,40,0,0,0-7.92-6.26,39.37,39.37,0,0,0-27.11-5,38.68,38.68,0,0,0-11.6,4A39.24,39.24,0,0,0,56.67,49c0,.84,0,1.67.08,2.5a54.5,54.5,0,0,0-4.6,18.67A48.53,48.53,0,1,1,140.7,30.45Z" transform="translate(-1.27)"/>
          </g>
        </g>
      </g>
    </g>
  </g>
</svg>
