<?xml version="1.0" encoding="utf-8"?>
<svg xmlns="http://www.w3.org/2000/svg" xmlns:xlink="http://www.w3.org/1999/xlink" style="margin: auto; background: none; display: block; z-index: 1; position: relative; shape-rendering: auto;" width="1440" height="688" preserveAspectRatio="xMidYMid" viewBox="0 0 1440 688">
<g transform=""><linearGradient id="lg-0.9671306133978013" x1="0" x2="1" y1="0" y2="0">
  <stop stop-color="#181818" offset="0"></stop>
  <stop stop-color="#28292f" offset="1"></stop>
</linearGradient><path d="M 1342.09 344 C 1342.09 504.526 1004.21 699.377 851.687 749.219 C 699.161 799.061 365.857 799.62 271.174 670.094 C 176.49 540.568 232.739 188.474 327.264 58.9483 C 421.79 -70.5775 706.681 -133.462 859.207 -83.6198 C 1011.73 -33.7779 1342.09 183.474 1342.09 344" fill="url(#lg-0.9671306133978013)" opacity="0.25">
  <animate attributeName="d" dur="10s" repeatCount="indefinite" keyTimes="0;0.3333333333333333;0.6666666666666666;1" calcmod="spline" keySplines="0.3 0.1 0.7 0.9;0.3 0.1 0.7 0.9;0.3 0.1 0.7 0.9" begin="-4s" values="M 1353 344 C 1353 505 1002 691 849 741 C 696 791 351 811 256 681 C 161 551 231 188 326 58 C 421 -72 710 -145 863 -95 C 1016 -45 1353 183 1353 344;M 1284 344 C 1284 502 1016 744 866 793 C 716 842 445 739 352 612 C 259 485 242 191 334 64 C 426 -63 689 -72 839 -23 C 989 26 1284 186 1284 344;M 1412 344 C 1412 526 1056 791 883 847 C 710 903 407 796 300 649 C 193 502 73 99 180 -48 C 287 -195 681 -123 854 -67 C 1027 -11 1412 162 1412 344;M 1353 344 C 1353 505 1002 691 849 741 C 696 791 351 811 256 681 C 161 551 231 188 326 58 C 421 -72 710 -145 863 -95 C 1016 -45 1353 183 1353 344"></animate>
</path><path d="M 1294.21 344 C 1294.21 518 1033.16 742.316 867.158 796.316 C 701.158 850.316 364.094 817.061 262.094 676.061 C 160.094 535.061 203.997 184.787 306.997 43.7872 C 409.997 -97.2128 710.155 -190.307 876.155 -136.307 C 1042.15 -82.3068 1294.21 170 1294.21 344" fill="url(#lg-0.9671306133978013)" opacity="0.25">
  <animate attributeName="d" dur="10s" repeatCount="indefinite" keyTimes="0;0.3333333333333333;0.6666666666666666;1" calcmod="spline" keySplines="0.3 0.1 0.7 0.9;0.3 0.1 0.7 0.9;0.3 0.1 0.7 0.9" begin="-4s" values="M 1292 344 C 1292 518 1033 742 867 796 C 701 850 375 809 273 668 C 171 527 207 187 310 46 C 413 -95 713 -199 879 -145 C 1045 -91 1292 170 1292 344;M 1306 344 C 1306 518 1034 744 868 798 C 702 852 306 860 204 719 C 102 578 188 173 291 32 C 394 -109 695 -144 861 -90 C 1027 -36 1306 170 1306 344;M 1374 344 C 1374 522 1051 787 882 842 C 713 897 411 789 306 645 C 201 501 176 169 280 25 C 384 -119 703 -178 872 -123 C 1041 -68 1374 166 1374 344;M 1292 344 C 1292 518 1033 742 867 796 C 701 850 375 809 273 668 C 171 527 207 187 310 46 C 413 -95 713 -199 879 -145 C 1045 -91 1292 170 1292 344"></animate>
</path><path d="M 1314 344 C 1314 506.526 1015.78 726.617 861.258 777.459 C 706.732 828.301 369.274 799.939 273.59 668.255 C 177.906 536.571 212.1 175.891 307.784 44.2066 C 403.468 -87.4773 699.839 -118.778 854.365 -68.7779 C 1008.89 -18.7779 1314 181.474 1314 344" fill="url(#lg-0.9671306133978013)" opacity="0.25">
  <animate attributeName="d" dur="10s" repeatCount="indefinite" keyTimes="0;0.3333333333333333;0.6666666666666666;1" calcmod="spline" keySplines="0.3 0.1 0.7 0.9;0.3 0.1 0.7 0.9;0.3 0.1 0.7 0.9" begin="-4s" values="M 1314 344 C 1314 507 1021 741 866 792 C 711 843 359 808 263 676 C 167 544 217 180 313 48 C 409 -84 703 -130 858 -80 C 1013 -30 1314 181 1314 344;M 1314 344 C 1314 504 988 650 836 700 C 684 750 424 757 330 627 C 236 497 186 154 280 24 C 374 -106 683 -59 835 -9 C 987 41 1314 184 1314 344;M 1385 344 C 1385 521 1023 705 855 760 C 687 815 371 816 267 673 C 163 530 95 108 199 -35 C 303 -178 708 -192 876 -137 C 1044 -82 1385 167 1385 344;M 1314 344 C 1314 507 1021 741 866 792 C 711 843 359 808 263 676 C 167 544 217 180 313 48 C 409 -84 703 -130 858 -80 C 1013 -30 1314 181 1314 344"></animate>
</path><path d="M 1356.26 344 C 1356.26 525 1040.21 743.471 868.21 799.471 C 696.21 855.471 347.729 839.374 240.729 692.374 C 133.729 545.374 141.842 148.842 248.684 1.84194 C 355.526 -145.158 696.951 -174.38 869.793 -118.38 C 1042.64 -62.3802 1356.26 163 1356.26 344" fill="url(#lg-0.9671306133978013)" opacity="0.25">
  <animate attributeName="d" dur="10s" repeatCount="indefinite" keyTimes="0;0.3333333333333333;0.6666666666666666;1" calcmod="spline" keySplines="0.3 0.1 0.7 0.9;0.3 0.1 0.7 0.9;0.3 0.1 0.7 0.9" begin="-4s" values="M 1355 344 C 1355 525 1041 746 869 802 C 697 858 355 834 248 687 C 141 540 142 149 249 2 C 356 -145 693 -163 866 -107 C 1039 -51 1355 163 1355 344;M 1363 344 C 1363 525 1036 730 864 786 C 692 842 309 868 202 721 C 95 574 141 148 247 1 C 353 -146 718 -235 890 -179 C 1062 -123 1363 163 1363 344;M 1279 344 C 1279 504 1010 718 858 768 C 706 818 358 805 264 675 C 170 545 216 176 310 46 C 404 -84 715 -158 867 -108 C 1019 -58 1279 184 1279 344;M 1355 344 C 1355 525 1041 746 869 802 C 697 858 355 834 248 687 C 141 540 142 149 249 2 C 356 -145 693 -163 866 -107 C 1039 -51 1355 163 1355 344"></animate>
</path><path d="M 1263.18 344 C 1263.18 507.109 997.48 670.48 842.529 720.745 C 687.577 771.009 406.456 773.019 310.927 640.699 C 215.398 508.38 199.03 166.252 294.559 34.7748 C 390.088 -96.7025 696.471 -109.848 851.423 -59.5837 C 1006.37 -9.31921 1263.18 180.891 1263.18 344" fill="url(#lg-0.9671306133978013)" opacity="0.25">
  <animate attributeName="d" dur="10s" repeatCount="indefinite" keyTimes="0;0.3333333333333333;0.6666666666666666;1" calcmod="spline" keySplines="0.3 0.1 0.7 0.9;0.3 0.1 0.7 0.9;0.3 0.1 0.7 0.9" begin="-4s" values="M 1245 344 C 1245 503 991 664 840 713 C 689 762 424 755 331 626 C 238 497 221 177 314 49 C 407 -79 699 -104 850 -55 C 1001 -6 1245 185 1245 344;M 1360 344 C 1360 529 1032 705 856 762 C 680 819 313 869 204 719 C 95 569 82 109 191 -41 C 300 -191 683 -141 859 -84 C 1035 -27 1360 159 1360 344;M 1276 344 C 1276 506 1019 739 865 789 C 711 839 383 789 288 658 C 193 527 179 151 274 20 C 369 -111 703 -129 857 -79 C 1011 -29 1276 182 1276 344;M 1245 344 C 1245 503 991 664 840 713 C 689 762 424 755 331 626 C 238 497 221 177 314 49 C 407 -79 699 -104 850 -55 C 1001 -6 1245 185 1245 344"></animate>
</path></g>
</svg>