
<svg width="106px" height="9px" viewBox="0 0 106 9" version="1.1" xmlns="http://www.w3.org/2000/svg" xmlns:xlink="http://www.w3.org/1999/xlink">
    <!-- Generator: Sketch 48.2 (47327) - http://www.bohemiancoding.com/sketch -->
    <desc>Created with Sketch.</desc>
    <defs></defs>
    <g id="Page-3" stroke="none" stroke-width="1" fill="none" fill-rule="evenodd" stroke-linecap="square">
        <g id="0.1-First-Section" transform="translate(-907.000000, -607.000000)" stroke="#B0CA1E" stroke-width="2">
            <g id="Title" transform="translate(576.000000, 357.500000)">
                <g id="line" transform="translate(331.000000, 250.000000)">
                    <path d="M3.5,3.5 L102.510002,3.5" id="Line" stroke-opacity="0.456974638"></path>
                    <path d="M3.03429901,0.854220838 L3.03429901,6.85422084" id="Line-2" transform="translate(3.034299, 3.854221) rotate(26.000000) translate(-3.034299, -3.854221) "></path>
                    <path d="M23.034299,0.854220838 L23.034299,6.85422084" id="Line-2-Copy" transform="translate(23.034299, 3.854221) rotate(26.000000) translate(-23.034299, -3.854221) "></path>
                    <path d="M43.034299,0.854220838 L43.034299,6.85422084" id="Line-2-Copy-2" transform="translate(43.034299, 3.854221) rotate(26.000000) translate(-43.034299, -3.854221) "></path>
                    <path d="M63.034299,0.854220838 L63.034299,6.85422084" id="Line-2-Copy-3" transform="translate(63.034299, 3.854221) rotate(26.000000) translate(-63.034299, -3.854221) "></path>
                    <path d="M83.034299,0.854220838 L83.034299,6.85422084" id="Line-2-Copy-4" transform="translate(83.034299, 3.854221) rotate(26.000000) translate(-83.034299, -3.854221) "></path>
                    <path d="M103.034299,0.854220838 L103.034299,6.85422084" id="Line-2-Copy-5" transform="translate(103.034299, 3.854221) rotate(26.000000) translate(-103.034299, -3.854221) "></path>
                </g>
            </g>
        </g>
    </g>
</svg>