<svg xmlns="http://www.w3.org/2000/svg" xmlns:xlink="http://www.w3.org/1999/xlink" width="3.20769in" height="2.50853in" viewBox="0 0 230.95361 180.61407"><defs><style>.cls-1{isolation:isolate;}.cls-2{fill:#272b2c;}.cls-2,.cls-3{stroke:#6c5ba7;stroke-miterlimit:10;}.cls-3{fill:none;}.cls-4,.cls-5{fill:#fff;}.cls-5{mix-blend-mode:color-dodge;}.cls-6{fill:url(#radial-gradient);}.cls-7{fill:url(#linear-gradient);}</style><radialGradient id="radial-gradient" cx="132.20991" cy="11.0437" r="88.51342" gradientUnits="userSpaceOnUse"><stop offset="0" stop-color="#58595b"/><stop offset="0.99487" stop-color="#272b2c"/></radialGradient><linearGradient id="linear-gradient" x1="116.36994" y1="41.7937" x2="116.36994" y2="-219.01969" gradientUnits="userSpaceOnUse"><stop offset="0.00513" stop-color="#272b2c"/><stop offset="1" stop-color="#414042" stop-opacity="0"/></linearGradient></defs><g class="cls-1"><g id="Layer_1" data-name="Layer 1"><path class="cls-2" d="M4.61334,157.84742c-.28-.11-.55-.23-.83007-.34l-.17994.34Z"/><path class="cls-3" d="M60.9632,158.28742c.37011-.14.74-.29,1.1101-.44h-1.29Z"/><path class="cls-4" d="M195.77,78.57373a79.967,79.967,0,0,0-23.06-17.35009,62.51272,62.51272,0,0,1-38.29,92.94995q1.95524,1.58631,4.01431,3.047a22.36639,22.36639,0,0,0,25.8314,0q2.058-1.45963,4.01439-3.047a78.0877,78.0877,0,0,0,27.49-75.59986Z"/><path class="cls-5" d="M195.77,78.57373a79.967,79.967,0,0,0-23.06-17.35009,62.51272,62.51272,0,0,1-38.29,92.94995q1.95524,1.58631,4.01431,3.047a22.36639,22.36639,0,0,0,25.8314,0q2.058-1.45963,4.01439-3.047a78.0877,78.0877,0,0,0,27.49-75.59986Z"/><path class="cls-4" d="M59.37983,111.65357a79.86265,79.86265,0,0,0-2.8899,21.39013c0,2.47.11,4.91993.33,7.33008a78.73906,78.73906,0,0,0,21.0073,19.30063,22.54062,22.54062,0,0,0,23.99412-.12524q3.30067-2.08167,6.36858-4.47544a62.48484,62.48484,0,0,1-48.81006-43.42016Z"/><path class="cls-5" d="M59.37983,111.65357a79.86265,79.86265,0,0,0-2.8899,21.39013c0,2.47.11,4.91993.33,7.33008a78.73906,78.73906,0,0,0,21.0073,19.30063,22.54062,22.54062,0,0,0,23.99412-.12524q3.30067-2.08167,6.36858-4.47544a62.48484,62.48484,0,0,1-48.81006-43.42016Z"/><path class="cls-4" d="M168.28,154.17359q-1.95529,1.58633-4.01439,3.047a22.36639,22.36639,0,0,1-25.8314,0q-2.05794-1.45962-4.01431-3.047A78.1156,78.1156,0,0,1,113.02,127.02369q.548-.86084,1.0685-1.74066a8.99232,8.99232,0,0,1,15.55414.00172q.51971.87885,1.06731,1.73894a62.64079,62.64079,0,0,0,20.64,20.12988A61.91014,61.91014,0,0,0,168.28,154.17359Z"/><path class="cls-5" d="M168.28,154.17359q-1.95529,1.58633-4.01439,3.047a22.36639,22.36639,0,0,1-25.8314,0q-2.05794-1.45962-4.01431-3.047A78.1156,78.1156,0,0,1,113.02,127.02369q.548-.86084,1.0685-1.74066a8.99232,8.99232,0,0,1,15.55414.00172q.51971.87885,1.06731,1.73894a62.64079,62.64079,0,0,0,20.64,20.12988A61.91014,61.91014,0,0,0,168.28,154.17359Z"/><path class="cls-4" d="M130.70991,127.02369a78.55548,78.55548,0,0,1-22.52,28.05q-3.064,2.38989-6.36858,4.47544a22.54062,22.54062,0,0,1-23.99412.12524A77.51541,77.51541,0,0,1,71.27,155.07373a61.8847,61.8847,0,0,0,18.45-6.40991A62.66582,62.66582,0,0,0,113.02,127.02369q.548-.86084,1.0685-1.74066a8.99232,8.99232,0,0,1,15.55414.00172Q130.16231,126.1636,130.70991,127.02369Z"/><path class="cls-5" d="M130.70991,127.02369a78.55548,78.55548,0,0,1-22.52,28.05q-3.064,2.38989-6.36858,4.47544a22.54062,22.54062,0,0,1-23.99412.12524A77.51541,77.51541,0,0,1,71.27,155.07373a61.8847,61.8847,0,0,0,18.45-6.40991A62.66582,62.66582,0,0,0,113.02,127.02369q.548-.86084,1.0685-1.74066a8.99232,8.99232,0,0,1,15.55414.00172Q130.16231,126.1636,130.70991,127.02369Z"/><path class="cls-6" d="M191.85993,65.11377c-.46008-.38012-.93-.75-1.4-1.1101a86.89666,86.89666,0,0,0-26.51-14.10987,62.96109,62.96109,0,0,0-12.6-9.96,62.34565,62.34565,0,0,0-32.14-8.89014,62.47633,62.47633,0,0,0-62.5,62.5c0,1.33985.04,2.66993.13,3.99a86.60566,86.60566,0,0,0-7.32,29.71c-.03.40014-.06.8-.08007,1.2a78.01189,78.01189,0,1,1,142.42-63.32984Z"/><path class="cls-7" d="M190.45991,64.00367a86.89666,86.89666,0,0,0-26.51-14.10987,62.96109,62.96109,0,0,0-12.6-9.96,62.34565,62.34565,0,0,0-32.14-8.89014,62.47633,62.47633,0,0,0-62.5,62.5c0,1.33985.04,2.66993.13,3.99a86.60566,86.60566,0,0,0-7.32,29.71,77.22037,77.22037,0,0,1,118.59-92.7A77.50614,77.50614,0,0,1,190.45991,64.00367Z"/></g></g></svg>