<svg id="Layer_1" data-name="Layer 1" xmlns="http://www.w3.org/2000/svg" width="6in" height="1.56436in" viewBox="0 0 432 112.63374"><defs><style>.cls-1{fill:#fff;}.cls-2{fill:#6c5ba7;}</style></defs><path class="cls-1" d="M120.49565,53.31833q0,10.196-5.71289,15.67383-5.71435,5.47777-16.37891,5.47754-10.66553,0-16.37891-5.47754-5.71288-5.47779-5.71289-15.73,0-10.25244,5.7295-15.66016,5.729-5.40674,16.42578-5.40722,10.69629,0,16.3623,5.44921Q120.49566,43.0947,120.49565,53.31833Zm-33.86817,0q0,6.88257,2.95215,10.36475,2.95166,3.48339,8.82422,3.48339,11.77588,0,11.77637-13.84814,0-13.87574-11.71289-13.87646-5.87256,0-8.85547,3.49707Q86.628,46.43625,86.62748,53.31833Z"/><path class="cls-1" d="M155.22221,73.90769,151.857,64.13278H134.939l-3.36426,9.77491H120.97319l16.3789-41.23536h12.0293l16.44238,41.23536Zm-5.71387-17.07813q-4.66553-13.28613-5.25293-15.02832-.5874-1.741-.84082-2.75244-1.04736,3.59546-5.999,17.78076Z"/><path class="cls-1" d="M206.3267,73.90769H195.15385L182.99662,56.605l-4.1582,2.64014v14.6626h-9.83887V32.84128h9.83887v18.7915l3.873-4.83154,12.56933-13.96h10.91895l-16.1875,18.17383Z"/><path class="cls-2" d="M254.70073,73.90769H243.49565l-6.28418-21.57227q-.3501-1.15137-1.19043-4.76172a48.56427,48.56427,0,0,1-.96875-4.84521q-.19044,1.51684-.95215,4.87353-.76172,3.35742-1.17383,4.78906l-6.25293,21.51661H215.50053L203.66069,32.84128h9.68066l5.93555,22.415q1.55566,6.208,2.2539,10.75879.19044-1.60181.87305-4.958a50.26673,50.26673,0,0,1,1.28516-5.21094l6.76172-23.00488h9.2998l6.76074,23.00488q.44385,1.54542,1.11133,4.71924.66651,3.175,1.01563,5.44971.3164-2.19141,1.01562-5.46387.69726-3.27173,1.26953-5.29492l5.9043-22.415h9.68066Z"/><path class="cls-2" d="M296.8228,73.90769l-3.36524-9.77491h-16.918l-3.36426,9.77491H262.57377l16.37891-41.23536H290.982l16.44238,41.23536Zm-5.71387-17.07813q-4.66553-13.28613-5.25293-15.02832-.5874-1.741-.84082-2.75244-1.04736,3.59546-5.999,17.78076Z"/><path class="cls-2" d="M335.80229,32.84128h9.93554L329.96244,73.90769H319.233L303.48979,32.84128h9.93457l8.72949,24.4375q.72949,2.16357,1.50781,5.042.77637,2.87988.96778,4.00293a64.95611,64.95611,0,0,1,2.38086-9.04492Z"/><path class="cls-2" d="M375.6392,73.90769H348.91362V32.84128H375.6392v7.13477H358.75248v9.0166H374.4644v7.13476H358.75248V66.71726H375.6392Z"/></svg>