<svg xmlns="http://www.w3.org/2000/svg" xmlns:xlink="http://www.w3.org/1999/xlink" viewBox="0 0 230.95 208.56"><defs><style>.cls-1{isolation:isolate;}.cls-2{fill:#272b2c;}.cls-2,.cls-3{stroke:#6c5ba7;stroke-miterlimit:10;}.cls-3{fill:none;}.cls-4{fill:url(#linear-gradient);}.cls-11,.cls-5,.cls-7,.cls-9{mix-blend-mode:color-dodge;}.cls-5{fill:url(#New_Gradient_Swatch_1);}.cls-6{fill:url(#linear-gradient-2);}.cls-7{fill:url(#New_Gradient_Swatch_1-2);}.cls-8{fill:url(#linear-gradient-3);}.cls-9{fill:url(#New_Gradient_Swatch_1-3);}.cls-10{fill:url(#linear-gradient-4);}.cls-11{fill:url(#New_Gradient_Swatch_1-4);}.cls-12{fill:url(#radial-gradient);}.cls-13{fill:url(#linear-gradient-5);}</style><linearGradient id="linear-gradient" x1="110.78" y1="164.94" x2="148.45" y2="130.27" gradientUnits="userSpaceOnUse"><stop offset="0" stop-color="#272b2c"/><stop offset="1" stop-color="#6c5ba7"/></linearGradient><radialGradient id="New_Gradient_Swatch_1" cx="169.45" cy="70.7" r="41.78" gradientUnits="userSpaceOnUse"><stop offset="0.01" stop-color="#6c5ba7"/><stop offset="1" stop-color="#6c5ba7" stop-opacity="0"/></radialGradient><linearGradient id="linear-gradient-2" x1="85.95" y1="163.02" x2="73.95" y2="150.35" xlink:href="#linear-gradient"/><radialGradient id="New_Gradient_Swatch_1-2" cx="54.48" cy="121.54" r="25.78" xlink:href="#New_Gradient_Swatch_1"/><linearGradient id="linear-gradient-3" x1="115" y1="121.38" x2="135.75" y2="148.13" xlink:href="#linear-gradient"/><radialGradient id="New_Gradient_Swatch_1-3" cx="153.04" cy="157.24" r="24.23" xlink:href="#New_Gradient_Swatch_1"/><linearGradient id="linear-gradient-4" x1="37.7" y1="176.96" x2="90.45" y2="153.71" xlink:href="#linear-gradient"/><radialGradient id="New_Gradient_Swatch_1-4" cx="112.6" cy="134.47" r="24.44" xlink:href="#New_Gradient_Swatch_1"/><radialGradient id="radial-gradient" cx="127.6" cy="17.47" r="88.51" gradientUnits="userSpaceOnUse"><stop offset="0" stop-color="#58595b"/><stop offset="0.99" stop-color="#272b2c"/></radialGradient><linearGradient id="linear-gradient-5" x1="111.76" y1="48.22" x2="111.76" y2="-212.6" gradientUnits="userSpaceOnUse"><stop offset="0.01" stop-color="#272b2c"/><stop offset="1" stop-color="#414042" stop-opacity="0"/></linearGradient></defs><g class="cls-1"><g id="Layer_1" data-name="Layer 1"><path class="cls-2" d="M0,164.27l-.83-.34-.18.34Z"/><path class="cls-3" d="M56.35,164.71l1.11-.44H56.17Z"/><path class="cls-4" d="M191.16,85A80,80,0,0,0,168.1,67.65a62.51,62.51,0,0,1-38.29,92.95q2,1.59,4,3a22.36,22.36,0,0,0,25.83,0c1.37-1,2.71-2,4-3.05A78.09,78.09,0,0,0,191.16,85Z"/><path class="cls-5" d="M191.16,85A80,80,0,0,0,168.1,67.65a62.51,62.51,0,0,1-38.29,92.95q2,1.59,4,3a22.36,22.36,0,0,0,25.83,0c1.37-1,2.71-2,4-3.05A78.09,78.09,0,0,0,191.16,85Z"/><path class="cls-6" d="M54.77,118.08a79.86,79.86,0,0,0-2.89,21.39c0,2.47.11,4.92.33,7.33a78.91,78.91,0,0,0,21,19.3,22.55,22.55,0,0,0,24-.13c2.2-1.38,4.32-2.88,6.37-4.47a62.49,62.49,0,0,1-48.81-43.42Z"/><path class="cls-7" d="M54.77,118.08a79.86,79.86,0,0,0-2.89,21.39c0,2.47.11,4.92.33,7.33a78.91,78.91,0,0,0,21,19.3,22.55,22.55,0,0,0,24-.13c2.2-1.38,4.32-2.88,6.37-4.47a62.49,62.49,0,0,1-48.81-43.42Z"/><path class="cls-8" d="M163.67,160.6c-1.31,1.06-2.65,2.07-4,3.05a22.36,22.36,0,0,1-25.83,0q-2.06-1.45-4-3a78.12,78.12,0,0,1-21.4-27.15c.36-.58.72-1.16,1.07-1.74a9,9,0,0,1,15.55,0c.35.59.7,1.16,1.07,1.74a62.64,62.64,0,0,0,20.64,20.13A61.92,61.92,0,0,0,163.67,160.6Z"/><path class="cls-9" d="M163.67,160.6c-1.31,1.06-2.65,2.07-4,3.05a22.36,22.36,0,0,1-25.83,0q-2.06-1.45-4-3a78.12,78.12,0,0,1-21.4-27.15c.36-.58.72-1.16,1.07-1.74a9,9,0,0,1,15.55,0c.35.59.7,1.16,1.07,1.74a62.64,62.64,0,0,0,20.64,20.13A61.92,61.92,0,0,0,163.67,160.6Z"/><path class="cls-10" d="M126.1,133.45a78.56,78.56,0,0,1-22.52,28.05c-2,1.59-4.17,3.09-6.37,4.47a22.55,22.55,0,0,1-24,.13,78.56,78.56,0,0,1-6.55-4.6,61.88,61.88,0,0,0,18.45-6.41,62.67,62.67,0,0,0,23.3-21.64c.36-.58.72-1.16,1.07-1.74a9,9,0,0,1,15.55,0C125.38,132.3,125.73,132.87,126.1,133.45Z"/><path class="cls-11" d="M126.1,133.45a78.56,78.56,0,0,1-22.52,28.05c-2,1.59-4.17,3.09-6.37,4.47a22.55,22.55,0,0,1-24,.13,78.56,78.56,0,0,1-6.55-4.6,61.88,61.88,0,0,0,18.45-6.41,62.67,62.67,0,0,0,23.3-21.64c.36-.58.72-1.16,1.07-1.74a9,9,0,0,1,15.55,0C125.38,132.3,125.73,132.87,126.1,133.45Z"/><path class="cls-12" d="M187.25,71.54c-.46-.38-.93-.75-1.4-1.11a86.9,86.9,0,0,0-26.51-14.11,63,63,0,0,0-12.6-10,62.34,62.34,0,0,0-32.14-8.89A62.48,62.48,0,0,0,52.1,100c0,1.34,0,2.67.13,4a86.61,86.61,0,0,0-7.32,29.71c0,.4-.06.8-.08,1.2A78,78,0,1,1,187.25,71.54Z"/><path class="cls-13" d="M185.85,70.43a86.9,86.9,0,0,0-26.51-14.11,63,63,0,0,0-12.6-10,62.34,62.34,0,0,0-32.14-8.89A62.48,62.48,0,0,0,52.1,100c0,1.34,0,2.67.13,4a86.61,86.61,0,0,0-7.32,29.71A77.22,77.22,0,0,1,163.5,41,77.51,77.51,0,0,1,185.85,70.43Z"/></g></g></svg>