<svg xmlns="http://www.w3.org/2000/svg" xmlns:xlink="http://www.w3.org/1999/xlink" width="813.09" height="147.53" viewBox="0 0 813.09 147.53">
  <defs>
    <style>
      .cls-1 {
        isolation: isolate;
      }

      .cls-2, .cls-3 {
        fill: #fff;
      }

      .cls-3 {
        mix-blend-mode: color-dodge;
      }

      .cls-4 {
        fill: url(#radial-gradient);
      }

      .cls-5 {
        fill: url(#linear-gradient);
      }
    </style>
    <radialGradient id="radial-gradient" cx="91" cy="-4.5" r="88.51" gradientUnits="userSpaceOnUse">
      <stop offset="0" stop-color="#58595b"/>
      <stop offset="0.99" stop-color="#272b2c"/>
    </radialGradient>
    <linearGradient id="linear-gradient" x1="75.16" y1="26.25" x2="75.16" y2="-234.56" gradientUnits="userSpaceOnUse">
      <stop offset="0.01" stop-color="#272b2c"/>
      <stop offset="1" stop-color="#414042" stop-opacity="0"/>
    </linearGradient>
  </defs>
  <g class="cls-1">
    <g id="Layer_2" data-name="Layer 2">
      <g id="Layer_1-2" data-name="Layer 1">
        <g>
          <g>
            <path class="cls-2" d="M223.91,113.51a49.14,49.14,0,0,1-19.41-3.71A47.45,47.45,0,0,1,189.55,100a44,44,0,0,1-9.67-14,40.07,40.07,0,0,1-3.43-16.15,39.11,39.11,0,0,1,3.63-16.51,45.47,45.47,0,0,1,10-14,48.11,48.11,0,0,1,15.16-9.65,50.09,50.09,0,0,1,19.06-3.58,47.77,47.77,0,0,1,34.16,13.84A45.29,45.29,0,0,1,268.08,54a39.83,39.83,0,0,1,3.43,16A39.37,39.37,0,0,1,268,86.5a44.37,44.37,0,0,1-9.88,13.84A48,48,0,0,1,243,109.93,50.14,50.14,0,0,1,223.91,113.51ZM195.65,69.8a31.06,31.06,0,0,0,1.92,10.81,28,28,0,0,0,5.56,9.22,27.11,27.11,0,0,0,8.92,6.44,30.84,30.84,0,0,0,24.14-.06,27.25,27.25,0,0,0,8.92-6.62,28.4,28.4,0,0,0,5.48-9.28,30.76,30.76,0,0,0,1.86-10.51,30.21,30.21,0,0,0-2-10.8,29.06,29.06,0,0,0-5.63-9.23,26.48,26.48,0,0,0-8.91-6.37,31,31,0,0,0-24.08.12,26.63,26.63,0,0,0-8.92,6.56,28.24,28.24,0,0,0-5.41,9.22A30.75,30.75,0,0,0,195.65,69.8Z"/>
            <path class="cls-2" d="M304.71,26.71h16.74l37,86.19H339L330,91.41h-34L287,112.9H267.54Zm21.81,52.93L313.08,45.77l-14,33.87Z"/>
            <path class="cls-2" d="M363.56,112.9V26.83h18.93V67.74l40.88-41h20.85L406.91,65l39.64,48H425.29L395,75.63,382.49,87.16V112.9Z"/>
            <path class="cls-2" d="M483.32,27h17.42l11,28.53,11-28.53h17.56l-16.6,39.21L536,93.72l27.58-67h20.57L544.5,112.9H528.59L511.71,76.72,494.84,112.9H478.93L439.56,26.71h20.3l27.71,67,12.07-27.56Z"/>
            <path class="cls-2" d="M607.87,26.71h16.74l37,86.19H642.17l-9-21.49h-34l-8.92,21.49H570.7Zm21.82,52.93L616.24,45.77l-14,33.87Z"/>
            <path class="cls-2" d="M668.37,26.71,694.71,91.9l26.06-65.19h19.89l-38,86.19H686.75L648.48,26.71Z"/>
            <path class="cls-2" d="M813.09,98.21V112.9H745.47V26.71h66.39V41.4H764.4V62.16h41V75.75h-41V98.21Z"/>
          </g>
          <path class="cls-2" d="M154.56,63A80,80,0,0,0,131.5,45.68a62.51,62.51,0,0,1-38.29,92.95c1.3,1.06,2.64,2.07,4,3.05a22.4,22.4,0,0,0,25.84,0c1.37-1,2.71-2,4-3.05A78.09,78.09,0,0,0,154.56,63Z"/>
          <path class="cls-3" d="M154.56,63A80,80,0,0,0,131.5,45.68a62.51,62.51,0,0,1-38.29,92.95c1.3,1.06,2.64,2.07,4,3.05a22.4,22.4,0,0,0,25.84,0c1.37-1,2.71-2,4-3.05A78.09,78.09,0,0,0,154.56,63Z"/>
          <path class="cls-2" d="M18.17,96.11a79.86,79.86,0,0,0-2.89,21.39c0,2.47.11,4.92.33,7.33a78,78,0,0,0,14.45,14.7,77.1,77.1,0,0,0,6.56,4.6,22.54,22.54,0,0,0,24-.12c2.2-1.39,4.33-2.89,6.37-4.48A62.49,62.49,0,0,1,18.17,96.11Z"/>
          <path class="cls-3" d="M18.17,96.11a79.86,79.86,0,0,0-2.89,21.39c0,2.47.11,4.92.33,7.33a78,78,0,0,0,14.45,14.7,77.1,77.1,0,0,0,6.56,4.6,22.54,22.54,0,0,0,24-.12c2.2-1.39,4.33-2.89,6.37-4.48A62.49,62.49,0,0,1,18.17,96.11Z"/>
          <path class="cls-2" d="M127.07,138.63c-1.3,1.06-2.64,2.07-4,3.05a22.4,22.4,0,0,1-25.84,0c-1.37-1-2.71-2-4-3.05a78.12,78.12,0,0,1-21.4-27.15c.37-.57.72-1.15,1.07-1.74a9,9,0,0,1,15.55,0c.35.59.7,1.17,1.07,1.74a62.64,62.64,0,0,0,20.64,20.13A61.92,61.92,0,0,0,127.07,138.63Z"/>
          <path class="cls-3" d="M127.07,138.63c-1.3,1.06-2.64,2.07-4,3.05a22.4,22.4,0,0,1-25.84,0c-1.37-1-2.71-2-4-3.05a78.12,78.12,0,0,1-21.4-27.15c.37-.57.72-1.15,1.07-1.74a9,9,0,0,1,15.55,0c.35.59.7,1.17,1.07,1.74a62.64,62.64,0,0,0,20.64,20.13A61.92,61.92,0,0,0,127.07,138.63Z"/>
          <path class="cls-2" d="M89.5,111.48a77.69,77.69,0,0,1-8.85,14.34A78.14,78.14,0,0,1,67,139.53c-2,1.59-4.17,3.09-6.37,4.48a22.54,22.54,0,0,1-24,.12,77.1,77.1,0,0,1-6.56-4.6,61.88,61.88,0,0,0,18.45-6.41,62.67,62.67,0,0,0,23.3-21.64c.37-.57.72-1.15,1.07-1.74a9,9,0,0,1,15.55,0C88.78,110.33,89.13,110.91,89.5,111.48Z"/>
          <path class="cls-3" d="M89.5,111.48a77.69,77.69,0,0,1-8.85,14.34A78.14,78.14,0,0,1,67,139.53c-2,1.59-4.17,3.09-6.37,4.48a22.54,22.54,0,0,1-24,.12,77.1,77.1,0,0,1-6.56-4.6,61.88,61.88,0,0,0,18.45-6.41,62.67,62.67,0,0,0,23.3-21.64c.37-.57.72-1.15,1.07-1.74a9,9,0,0,1,15.55,0C88.78,110.33,89.13,110.91,89.5,111.48Z"/>
          <path class="cls-4" d="M150.65,49.57c-.46-.38-.93-.75-1.4-1.11a86.9,86.9,0,0,0-26.51-14.11,63,63,0,0,0-12.6-10A62.34,62.34,0,0,0,78,15.5,62.48,62.48,0,0,0,15.5,78c0,1.34,0,2.67.13,4A86.61,86.61,0,0,0,8.31,111.7c0,.4-.06.8-.08,1.2A78,78,0,1,1,150.65,49.57Z"/>
          <path class="cls-5" d="M149.25,48.46a86.9,86.9,0,0,0-26.51-14.11,63,63,0,0,0-12.6-10A62.34,62.34,0,0,0,78,15.5,62.48,62.48,0,0,0,15.5,78c0,1.34,0,2.67.13,4A86.61,86.61,0,0,0,8.31,111.7,77.22,77.22,0,0,1,126.9,19,77.51,77.51,0,0,1,149.25,48.46Z"/>
        </g>
      </g>
    </g>
  </g>
</svg>
