<svg xmlns="http://www.w3.org/2000/svg" xmlns:xlink="http://www.w3.org/1999/xlink" width="301.69" height="236.52" viewBox="0 0 301.69 236.52">
  <defs>
    <style>
      .cls-1 {
        fill: #272b2c;
      }

      .cls-2, .cls-4 {
        fill: #fff;
      }

      .cls-3 {
        fill: url(#linear-gradient);
      }

      .cls-4 {
        stroke: #231f20;
        stroke-miterlimit: 10;
      }

      .cls-5 {
        fill: url(#linear-gradient-2);
      }

      .cls-6 {
        fill: url(#linear-gradient-3);
      }

      .cls-7 {
        fill: url(#linear-gradient-4);
      }

      .cls-8 {
        fill: url(#radial-gradient);
      }

      .cls-9 {
        fill: url(#linear-gradient-5);
      }
    </style>
    <linearGradient id="linear-gradient" x1="145.13" y1="142.97" x2="182.79" y2="108.3" gradientUnits="userSpaceOnUse">
      <stop offset="0" stop-color="#272b2c"/>
      <stop offset="1" stop-color="#6c5ba7"/>
    </linearGradient>
    <linearGradient id="linear-gradient-2" x1="120.29" y1="141.05" x2="108.29" y2="128.39" xlink:href="#linear-gradient"/>
    <linearGradient id="linear-gradient-3" x1="149.35" y1="99.41" x2="170.1" y2="126.16" xlink:href="#linear-gradient"/>
    <linearGradient id="linear-gradient-4" x1="72.04" y1="155" x2="124.79" y2="131.75" xlink:href="#linear-gradient"/>
    <radialGradient id="radial-gradient" cx="161.94" cy="-4.5" r="88.51" gradientUnits="userSpaceOnUse">
      <stop offset="0" stop-color="#58595b"/>
      <stop offset="0.99" stop-color="#272b2c"/>
    </radialGradient>
    <linearGradient id="linear-gradient-5" x1="146.1" y1="26.25" x2="146.1" y2="-234.56" gradientUnits="userSpaceOnUse">
      <stop offset="0.01" stop-color="#272b2c"/>
      <stop offset="1" stop-color="#414042" stop-opacity="0"/>
    </linearGradient>
  </defs>
  <g id="Layer_2" data-name="Layer 2">
    <g id="Layer_1-2" data-name="Layer 1">
      <g>
        <g>
          <path class="cls-1" d="M24.51,236.52a23.29,23.29,0,0,1-9.2-1.76,22.58,22.58,0,0,1-7.09-4.66,20.84,20.84,0,0,1-4.58-6.64A19,19,0,0,1,2,215.81,18.49,18.49,0,0,1,3.74,208a21.58,21.58,0,0,1,4.74-6.61,22.91,22.91,0,0,1,7.19-4.58,23.68,23.68,0,0,1,9-1.69,22.49,22.49,0,0,1,9.14,1.81,22.72,22.72,0,0,1,7,4.75,21.43,21.43,0,0,1,4.55,6.67,18.91,18.91,0,0,1,1.62,7.59,18.56,18.56,0,0,1-1.69,7.8,20.86,20.86,0,0,1-4.68,6.56,22.64,22.64,0,0,1-7.15,4.54A23.68,23.68,0,0,1,24.51,236.52ZM11.12,215.81a14.66,14.66,0,0,0,.91,5.12,12.87,12.87,0,0,0,6.85,7.42,13.45,13.45,0,0,0,5.69,1.15,13.32,13.32,0,0,0,5.76-1.18,12.91,12.91,0,0,0,4.22-3.14,13.34,13.34,0,0,0,2.6-4.4,14.44,14.44,0,0,0-.06-10.09,13.79,13.79,0,0,0-2.67-4.38,12.58,12.58,0,0,0-4.22-3,13.61,13.61,0,0,0-5.63-1.13,13.63,13.63,0,0,0-5.78,1.18,12.64,12.64,0,0,0-4.23,3.11A13.45,13.45,0,0,0,12,210.83,14.75,14.75,0,0,0,11.12,215.81Z" transform="translate(-2.02)"/>
          <path class="cls-1" d="M62.8,195.38h7.93l17.55,40.85H79.05l-4.29-10.18H58.64l-4.23,10.18H45.18Zm10.33,25.09-6.37-16.05-6.63,16.05Z" transform="translate(-2.02)"/>
          <path class="cls-1" d="M90.68,236.23V195.44h9v19.39L119,195.38h9.88l-17.68,18.13L130,236.23H119.94l-14.37-17.66L99.65,224v12.2Z" transform="translate(-2.02)"/>
          <path class="cls-2" d="M147.43,195.5h8.26l5.2,13.52,5.2-13.52h8.32l-7.87,18.58,5.86,13.06,13.06-31.76h9.75l-18.78,40.85h-7.55l-8-17.14-8,17.14h-7.54L126.7,195.38h9.62l13.13,31.76,5.72-13.06Z" transform="translate(-2.02)"/>
          <path class="cls-2" d="M206.46,195.38h7.93l17.55,40.85h-9.23l-4.29-10.18H202.3l-4.23,10.18h-9.23Zm10.33,25.09-6.37-16.05-6.63,16.05Z" transform="translate(-2.02)"/>
          <path class="cls-2" d="M235.13,195.38l12.48,30.9L260,195.38h9.43l-18,40.85h-7.54L225.7,195.38Z" transform="translate(-2.02)"/>
          <path class="cls-2" d="M303.71,229.27v7h-32V195.38h31.46v7H280.63v9.83h19.44v6.45H280.63v10.64Z" transform="translate(-2.02)"/>
        </g>
        <g>
          <path class="cls-3" d="M225.5,63a80,80,0,0,0-23.06-17.35,62.51,62.51,0,0,1-38.29,92.95c1.3,1.06,2.64,2.07,4,3.05a22.38,22.38,0,0,0,25.83,0c1.38-1,2.72-2,4-3.05A78.09,78.09,0,0,0,225.5,63Z" transform="translate(-2.02)"/>
          <path class="cls-4" d="M225.5,63a80,80,0,0,0-23.06-17.35,62.51,62.51,0,0,1-38.29,92.95c1.3,1.06,2.64,2.07,4,3.05a22.38,22.38,0,0,0,25.83,0c1.38-1,2.72-2,4-3.05A78.09,78.09,0,0,0,225.5,63Z" transform="translate(-2.02)"/>
          <path class="cls-5" d="M89.11,96.11a79.86,79.86,0,0,0-2.89,21.39c0,2.47.11,4.92.33,7.33A78,78,0,0,0,101,139.53a77.1,77.1,0,0,0,6.56,4.6,22.54,22.54,0,0,0,24-.12c2.2-1.39,4.33-2.89,6.37-4.48A62.49,62.49,0,0,1,89.11,96.11Z" transform="translate(-2.02)"/>
          <path class="cls-4" d="M89.11,96.11a79.86,79.86,0,0,0-2.89,21.39c0,2.47.11,4.92.33,7.33A78,78,0,0,0,101,139.53a77.1,77.1,0,0,0,6.56,4.6,22.54,22.54,0,0,0,24-.12c2.2-1.39,4.33-2.89,6.37-4.48A62.49,62.49,0,0,1,89.11,96.11Z" transform="translate(-2.02)"/>
          <path class="cls-6" d="M198,138.63c-1.3,1.06-2.64,2.07-4,3.05a22.38,22.38,0,0,1-25.83,0c-1.37-1-2.71-2-4-3.05a78.12,78.12,0,0,1-21.4-27.15c.36-.57.72-1.15,1.07-1.74a9,9,0,0,1,15.55,0c.35.59.7,1.17,1.07,1.74a62.64,62.64,0,0,0,20.64,20.13A61.92,61.92,0,0,0,198,138.63Z" transform="translate(-2.02)"/>
          <path class="cls-4" d="M198,138.63c-1.3,1.06-2.64,2.07-4,3.05a22.38,22.38,0,0,1-25.83,0c-1.37-1-2.71-2-4-3.05a78.12,78.12,0,0,1-21.4-27.15c.36-.57.72-1.15,1.07-1.74a9,9,0,0,1,15.55,0c.35.59.7,1.17,1.07,1.74a62.64,62.64,0,0,0,20.64,20.13A61.92,61.92,0,0,0,198,138.63Z" transform="translate(-2.02)"/>
          <path class="cls-7" d="M160.44,111.48a78.56,78.56,0,0,1-22.52,28.05c-2,1.59-4.17,3.09-6.37,4.48a22.54,22.54,0,0,1-24,.12,77.1,77.1,0,0,1-6.56-4.6,61.88,61.88,0,0,0,18.45-6.41,62.67,62.67,0,0,0,23.3-21.64c.36-.57.72-1.15,1.07-1.74a9,9,0,0,1,15.55,0C159.72,110.33,160.07,110.91,160.44,111.48Z" transform="translate(-2.02)"/>
          <path class="cls-4" d="M160.44,111.48a78.56,78.56,0,0,1-22.52,28.05c-2,1.59-4.17,3.09-6.37,4.48a22.54,22.54,0,0,1-24,.12,77.1,77.1,0,0,1-6.56-4.6,61.88,61.88,0,0,0,18.45-6.41,62.67,62.67,0,0,0,23.3-21.64c.36-.57.72-1.15,1.07-1.74a9,9,0,0,1,15.55,0C159.72,110.33,160.07,110.91,160.44,111.48Z" transform="translate(-2.02)"/>
          <path class="cls-8" d="M221.59,49.57c-.46-.38-.93-.75-1.4-1.11a86.9,86.9,0,0,0-26.51-14.11,63,63,0,0,0-12.6-10,62.34,62.34,0,0,0-32.14-8.89A62.48,62.48,0,0,0,86.44,78c0,1.34,0,2.67.13,4a86.61,86.61,0,0,0-7.32,29.71c0,.4-.06.8-.08,1.2A78,78,0,1,1,221.59,49.57Z" transform="translate(-2.02)"/>
          <path class="cls-9" d="M220.19,48.46a86.9,86.9,0,0,0-26.51-14.11,63,63,0,0,0-12.6-10,62.34,62.34,0,0,0-32.14-8.89A62.48,62.48,0,0,0,86.44,78c0,1.34,0,2.67.13,4a86.61,86.61,0,0,0-7.32,29.71A77.22,77.22,0,0,1,197.84,19,77.51,77.51,0,0,1,220.19,48.46Z" transform="translate(-2.02)"/>
        </g>
      </g>
    </g>
  </g>
</svg>
