<svg xmlns="http://www.w3.org/2000/svg" width="305.2" height="41.42" viewBox="0 0 305.2 41.42">
  <defs>
    <style>
      .cls-1 {
        fill: #272b2c;
      }

      .cls-2 {
        fill: #6c5ba7;
      }
    </style>
  </defs>
  <g id="Layer_2" data-name="Layer 2">
    <g id="Layer_1-2" data-name="Layer 1">
      <g>
        <path class="cls-1" d="M24.51,49.47a23.29,23.29,0,0,1-9.2-1.75,22.58,22.58,0,0,1-7.09-4.66,21,21,0,0,1-4.58-6.64A19.13,19.13,0,0,1,2,28.76a18.45,18.45,0,0,1,1.72-7.82,21.62,21.62,0,0,1,4.74-6.62,22.89,22.89,0,0,1,7.19-4.57,23.68,23.68,0,0,1,9-1.7,22.68,22.68,0,0,1,16.19,6.56,21.48,21.48,0,0,1,4.55,6.68,18.91,18.91,0,0,1,1.62,7.59,18.52,18.52,0,0,1-1.69,7.79,20.75,20.75,0,0,1-4.68,6.56,22.49,22.49,0,0,1-7.15,4.55A23.68,23.68,0,0,1,24.51,49.47ZM11.12,28.76A14.62,14.62,0,0,0,12,33.88a13.17,13.17,0,0,0,2.63,4.38,12.94,12.94,0,0,0,4.22,3,13.45,13.45,0,0,0,5.69,1.16,13.47,13.47,0,0,0,5.76-1.18,12.91,12.91,0,0,0,4.22-3.14,13.34,13.34,0,0,0,2.6-4.4,14.47,14.47,0,0,0-.06-10.1,13.85,13.85,0,0,0-2.67-4.37,12.75,12.75,0,0,0-4.22-3,13.61,13.61,0,0,0-5.63-1.12,13.48,13.48,0,0,0-5.78,1.18,12.64,12.64,0,0,0-4.23,3.11A13.45,13.45,0,0,0,12,23.79,14.74,14.74,0,0,0,11.12,28.76Z" transform="translate(-2.02 -8.05)"/>
        <path class="cls-1" d="M63.38,8.34h7.93L88.86,49.19H79.63L75.34,39H59.22L55,49.19H45.76ZM73.72,33.42l-6.37-16L60.72,33.42Z" transform="translate(-2.02 -8.05)"/>
        <path class="cls-1" d="M91.85,49.19V8.4h9V27.79L120.2,8.34h9.88L112.4,26.46l18.78,22.73H121.11L106.74,31.53,100.82,37v12.2Z" transform="translate(-2.02 -8.05)"/>
        <path class="cls-2" d="M149.19,8.46h8.25L162.64,22l5.2-13.52h8.33L168.3,27l5.85,13.06L187.22,8.34H197L178.18,49.19h-7.54l-8-17.15-8,17.15h-7.54L128.45,8.34h9.62L151.2,40.1,156.92,27Z" transform="translate(-2.02 -8.05)"/>
        <path class="cls-2" d="M208.8,8.34h7.93l17.55,40.85h-9.23L220.76,39H204.64l-4.23,10.19h-9.23Zm10.33,25.08-6.37-16-6.63,16.05Z" transform="translate(-2.02 -8.05)"/>
        <path class="cls-2" d="M238.05,8.34l12.48,30.89L262.88,8.34h9.43l-18,40.85h-7.54L228.63,8.34Z" transform="translate(-2.02 -8.05)"/>
        <path class="cls-2" d="M307.22,42.22v7H275.17V8.34h31.46v7H284.14v9.84h19.44v6.44H284.14V42.22Z" transform="translate(-2.02 -8.05)"/>
      </g>
    </g>
  </g>
</svg>
