<svg id="Layer_1" data-name="Layer 1" xmlns="http://www.w3.org/2000/svg" width="6in" height="1.56436in" viewBox="0 0 432 112.63374"><defs><style>.cls-1{fill:#272b2c;}.cls-2{fill:#fff;}</style></defs><path class="cls-1" d="M106.981,60.31861q0,10.19679-5.71289,15.67383Q95.55376,81.471,84.8892,81.47q-10.66552,0-16.3789-5.47754Q62.7974,70.51539,62.7974,60.262q0-10.251,5.7295-15.66015,5.729-5.40528,16.42578-5.40625,10.69629,0,16.3623,5.44922T106.981,60.31861Zm-33.86817,0q0,6.88183,2.95215,10.36524,2.95167,3.48339,8.82422,3.48242,11.77589,0,11.77637-13.84766,0-13.87645-11.71289-13.876-5.87256,0-8.85547,3.49707Q73.11332,53.43629,73.11283,60.31861Z"/><path class="cls-1" d="M141.70756,80.90846l-3.36523-9.77539h-16.918l-3.36426,9.77539H107.45854l16.3789-41.23633h12.0293l16.44238,41.23633Zm-5.71387-17.07813Q131.32817,50.5442,130.74076,48.802q-.5874-1.74169-.84082-2.75293-1.04736,3.59619-5.999,17.78125Z"/><path class="cls-1" d="M192.81205,80.90846H181.6392L169.482,63.60475l-4.15821,2.64062V80.90846H155.4849V39.84107h9.83887v18.792l3.87305-4.83106,12.56933-13.96094H192.6851L176.4976,58.0149Z"/><path class="cls-2" d="M241.18608,80.90846H229.981l-6.28418-21.57324q-.3501-1.15137-1.19043-4.76075a48.59528,48.59528,0,0,1-.96875-4.8457q-.19043,1.51758-.95215,4.873-.76172,3.35742-1.17383,4.79l-6.25293,21.5166H201.98588L190.146,39.84107h9.68066l5.93555,22.416q1.55567,6.208,2.2539,10.75781.19044-1.60107.873-4.958a50.17282,50.17282,0,0,1,1.28516-5.21l6.76172-23.00586h9.2998l6.76074,23.00586q.44385,1.54542,1.11133,4.71875.66651,3.17433,1.01563,5.44922Q235.44,70.825,236.1392,67.551q.69728-3.271,1.26953-5.294l5.9043-22.416h9.68066Z"/><path class="cls-2" d="M283.30815,80.90846l-3.36524-9.77539h-16.918l-3.36425,9.77539H249.05912L265.438,39.67213h12.0293l16.44238,41.23633Zm-5.71387-17.07813Q272.92875,50.5442,272.34135,48.802q-.5874-1.74169-.84082-2.75293-1.04736,3.59619-5.999,17.78125Z"/><path class="cls-2" d="M322.28764,39.84107h9.93555L316.4478,80.90846H305.7183L289.97514,39.84107h9.93457l8.72949,24.43848q.72949,2.16212,1.50781,5.042.77637,2.87842.96778,4.00293a64.9206,64.9206,0,0,1,2.38086-9.04492Z"/><path class="cls-2" d="M362.12455,80.90846H335.399V39.84107h26.72558v7.13477H345.23783v9.0166h15.71192v7.13477H345.23783V73.71705h16.88672Z"/></svg>