<svg xmlns="http://www.w3.org/2000/svg" xmlns:xlink="http://www.w3.org/1999/xlink" width="12.90741in" height="3.09716in" viewBox="0 0 929.33333 222.99527"><defs><style>.cls-1{isolation:isolate;}.cls-2,.cls-3{fill:#fff;}.cls-3{mix-blend-mode:color-dodge;}.cls-4{fill:url(#radial-gradient);}.cls-5{fill:url(#linear-gradient);}</style><radialGradient id="radial-gradient" cx="134.80386" cy="33.23431" r="88.51342" gradientUnits="userSpaceOnUse"><stop offset="0" stop-color="#58595b"/><stop offset="0.99487" stop-color="#272b2c"/></radialGradient><linearGradient id="linear-gradient" x1="118.9639" y1="63.98431" x2="118.9639" y2="-196.82908" gradientUnits="userSpaceOnUse"><stop offset="0.00513" stop-color="#272b2c"/><stop offset="1" stop-color="#414042" stop-opacity="0"/></linearGradient></defs><g class="cls-1"><g id="Layer_1" data-name="Layer 1"><path class="cls-2" d="M317.21,107.18549q0,21.51708-12.05762,33.07617-12.05566,11.55908-34.5625,11.55859-22.50585,0-34.5625-11.55859-12.05712-11.55909-12.05664-33.19434,0-21.63574,12.09082-33.04687,12.08936-11.40967,34.66309-11.41016,22.57178,0,34.52832,11.499Q317.209,85.60981,317.21,107.18549Zm-71.46973,0q0,14.52392,6.22852,21.873,6.23,7.35059,18.62109,7.34961,24.84962,0,24.85059-29.22265,0-29.28223-24.71582-29.28223-12.394,0-18.68848,7.37988Q245.73877,92.663,245.74023,107.18549Z"/><path class="cls-2" d="M390.49023,150.63471l-7.10058-20.62793H347.68848l-7.09961,20.62793H318.2168L352.7793,63.6181H378.165l34.69726,87.01661Zm-12.05664-36.04q-9.84667-28.03711-11.08593-31.71192-1.23927-3.67529-1.77442-5.80957-2.21044,7.5879-12.66015,37.52149Z"/><path class="cls-2" d="M498.333,150.63471H474.75488L449.10059,114.121l-8.77442,5.57129v30.94239H419.56152V63.97357h20.76465v39.65528l8.17188-10.19532,26.52441-29.46h23.042L463.9043,102.32513Z"/><path class="cls-2" d="M600.416,150.63471H576.77148l-13.26269-45.52344q-.73828-2.43018-2.51172-10.04785a102.31814,102.31814,0,0,1-2.043-10.22461q-.40137,3.20069-2.00976,10.28418-1.60694,7.084-2.47852,10.10644l-13.19531,45.40528H517.69336L492.709,63.97357h20.42969l12.52539,47.30176q3.28125,13.10157,4.75586,22.70313.40137-3.3794,1.8418-10.4629a105.41615,105.41615,0,0,1,2.71289-10.99511l14.2666-48.54688h19.626l14.26758,48.54688q.936,3.26075,2.34375,9.958,1.40771,6.69873,2.14355,11.5.66943-4.62452,2.14355-11.5293,1.47217-6.90528,2.67969-11.17383l12.458-47.30176H625.333Z"/><path class="cls-2" d="M689.30371,150.63471l-7.10059-20.62793H646.502l-7.09961,20.62793H617.03027l34.5625-87.01661h25.38575l34.69726,87.01661Zm-12.05664-36.04q-9.84667-28.03711-11.08594-31.71192-1.23925-3.67529-1.77441-5.80957-2.21044,7.5879-12.66016,37.52149Z"/><path class="cls-2" d="M771.55859,63.97357h20.96485l-33.28906,86.66114H736.59375L703.37109,63.97357h20.96485l18.4209,51.56934q1.53954,4.56591,3.18164,10.64062,1.63915,6.07617,2.043,8.44629.73535-5.45214,5.02343-19.08691Z"/><path class="cls-2" d="M855.62305,150.63471H799.22363V63.97357h56.39942V79.02924H819.98828V98.05658h33.15625v15.05664H819.98828V135.4599h35.63477Z"/><path class="cls-2" d="M198.36392,100.76434a79.96712,79.96712,0,0,0-23.06006-17.3501,62.5127,62.5127,0,0,1-38.29,92.95q1.95525,1.58631,4.01432,3.047a22.36641,22.36641,0,0,0,25.8314,0q2.058-1.45962,4.01439-3.047a78.08779,78.08779,0,0,0,27.49-75.59985Z"/><path class="cls-3" d="M198.36392,100.76434a79.96712,79.96712,0,0,0-23.06006-17.3501,62.5127,62.5127,0,0,1-38.29,92.95q1.95525,1.58631,4.01432,3.047a22.36641,22.36641,0,0,0,25.8314,0q2.058-1.45962,4.01439-3.047a78.08779,78.08779,0,0,0,27.49-75.59985Z"/><path class="cls-2" d="M61.97379,133.84417a79.86266,79.86266,0,0,0-2.8899,21.39014c0,2.47.11,4.91992.33,7.33008A78.73906,78.73906,0,0,0,80.42115,181.865a22.54064,22.54064,0,0,0,23.99412-.12525q3.30067-2.08165,6.36857-4.47543a62.4849,62.4849,0,0,1-48.81-43.42017Z"/><path class="cls-3" d="M61.97379,133.84417a79.86266,79.86266,0,0,0-2.8899,21.39014c0,2.47.11,4.91992.33,7.33008A78.73906,78.73906,0,0,0,80.42115,181.865a22.54064,22.54064,0,0,0,23.99412-.12525q3.30067-2.08165,6.36857-4.47543a62.4849,62.4849,0,0,1-48.81-43.42017Z"/><path class="cls-2" d="M170.87393,176.36419q-1.9553,1.58632-4.01439,3.047a22.36641,22.36641,0,0,1-25.8314,0q-2.05794-1.45964-4.01432-3.047a78.11548,78.11548,0,0,1-21.3999-27.1499q.548-.86084,1.0685-1.74066a8.99232,8.99232,0,0,1,15.55414.00172q.51971.87885,1.0673,1.73894a62.64082,62.64082,0,0,0,20.64,20.12988A61.91014,61.91014,0,0,0,170.87393,176.36419Z"/><path class="cls-3" d="M170.87393,176.36419q-1.9553,1.58632-4.01439,3.047a22.36641,22.36641,0,0,1-25.8314,0q-2.05794-1.45964-4.01432-3.047a78.11548,78.11548,0,0,1-21.3999-27.1499q.548-.86084,1.0685-1.74066a8.99232,8.99232,0,0,1,15.55414.00172q.51971.87885,1.0673,1.73894a62.64082,62.64082,0,0,0,20.64,20.12988A61.91014,61.91014,0,0,0,170.87393,176.36419Z"/><path class="cls-2" d="M133.30386,149.21429a78.5551,78.5551,0,0,1-22.52,28.05005q-3.064,2.38987-6.36857,4.47543a22.54064,22.54064,0,0,1-23.99412.12525,77.52,77.52,0,0,1-6.55723-4.60068,61.885,61.885,0,0,0,18.45-6.40992,62.66565,62.66565,0,0,0,23.30005-21.64013q.548-.86084,1.0685-1.74066a8.99232,8.99232,0,0,1,15.55414.00172Q132.75627,148.3542,133.30386,149.21429Z"/><path class="cls-3" d="M133.30386,149.21429a78.5551,78.5551,0,0,1-22.52,28.05005q-3.064,2.38987-6.36857,4.47543a22.54064,22.54064,0,0,1-23.99412.12525,77.52,77.52,0,0,1-6.55723-4.60068,61.885,61.885,0,0,0,18.45-6.40992,62.66565,62.66565,0,0,0,23.30005-21.64013q.548-.86084,1.0685-1.74066a8.99232,8.99232,0,0,1,15.55414.00172Q132.75627,148.3542,133.30386,149.21429Z"/><path class="cls-4" d="M194.45389,87.30438c-.46008-.38013-.93006-.75-1.4-1.11011a86.89687,86.89687,0,0,0-26.51-14.10987,62.96138,62.96138,0,0,0-12.6-9.96,62.34556,62.34556,0,0,0-32.14-8.89013,62.47632,62.47632,0,0,0-62.5,62.5c0,1.33984.04,2.66992.13,3.99a86.60543,86.60543,0,0,0-7.31995,29.71c-.03.40014-.06006.8-.08008,1.2A78.01189,78.01189,0,1,1,194.45389,87.30438Z"/><path class="cls-5" d="M193.05386,86.19427a86.89687,86.89687,0,0,0-26.51-14.10987,62.96138,62.96138,0,0,0-12.6-9.96,62.34556,62.34556,0,0,0-32.14-8.89013,62.47632,62.47632,0,0,0-62.5,62.5c0,1.33984.04,2.66992.13,3.99a86.60543,86.60543,0,0,0-7.31995,29.71,77.22036,77.22036,0,0,1,118.59-92.69995A77.506,77.506,0,0,1,193.05386,86.19427Z"/></g></g></svg>