<svg xmlns="http://www.w3.org/2000/svg" xmlns:xlink="http://www.w3.org/1999/xlink" width="301.69" height="237.15" viewBox="0 0 301.69 237.15">
  <defs>
    <style>
      .cls-1 {
        isolation: isolate;
      }

      .cls-2 {
        fill: #fff;
      }

      .cls-3 {
        fill: #6c5ba7;
      }

      .cls-4 {
        fill: url(#linear-gradient);
      }

      .cls-11, .cls-5, .cls-7, .cls-9 {
        mix-blend-mode: color-dodge;
      }

      .cls-5 {
        fill: url(#New_Gradient_Swatch_1);
      }

      .cls-6 {
        fill: url(#linear-gradient-2);
      }

      .cls-7 {
        fill: url(#New_Gradient_Swatch_1-2);
      }

      .cls-8 {
        fill: url(#linear-gradient-3);
      }

      .cls-9 {
        fill: url(#New_Gradient_Swatch_1-3);
      }

      .cls-10 {
        fill: url(#linear-gradient-4);
      }

      .cls-11 {
        fill: url(#New_Gradient_Swatch_1-4);
      }

      .cls-12 {
        fill: url(#radial-gradient);
      }
    </style>
    <linearGradient id="linear-gradient" x1="148.04" y1="142.97" x2="185.71" y2="108.3" gradientUnits="userSpaceOnUse">
      <stop offset="0" stop-color="#272b2c"/>
      <stop offset="1" stop-color="#6c5ba7"/>
    </linearGradient>
    <radialGradient id="New_Gradient_Swatch_1" data-name="New Gradient Swatch 1" cx="206.71" cy="48.73" r="41.78" gradientUnits="userSpaceOnUse">
      <stop offset="0.01" stop-color="#6c5ba7"/>
      <stop offset="1" stop-color="#6c5ba7" stop-opacity="0"/>
    </radialGradient>
    <linearGradient id="linear-gradient-2" x1="123.2" y1="141.05" x2="111.2" y2="128.39" xlink:href="#linear-gradient"/>
    <radialGradient id="New_Gradient_Swatch_1-2" cx="91.73" cy="99.57" r="25.78" xlink:href="#New_Gradient_Swatch_1"/>
    <linearGradient id="linear-gradient-3" x1="152.26" y1="99.41" x2="173.01" y2="126.16" xlink:href="#linear-gradient"/>
    <radialGradient id="New_Gradient_Swatch_1-3" cx="190.29" cy="135.27" r="24.23" xlink:href="#New_Gradient_Swatch_1"/>
    <linearGradient id="linear-gradient-4" x1="74.96" y1="155" x2="127.71" y2="131.75" xlink:href="#linear-gradient"/>
    <radialGradient id="New_Gradient_Swatch_1-4" cx="149.85" cy="112.5" r="24.44" xlink:href="#New_Gradient_Swatch_1"/>
    <radialGradient id="radial-gradient" cx="164.85" cy="-4.5" r="88.51" gradientUnits="userSpaceOnUse">
      <stop offset="0" stop-color="#58595b"/>
      <stop offset="0.99" stop-color="#272b2c"/>
    </radialGradient>
  </defs>
  <g class="cls-1">
    <g id="Layer_2" data-name="Layer 2">
      <g id="Layer_1-2" data-name="Layer 1">
        <g>
          <g>
            <path class="cls-2" d="M24.51,237.15a23.29,23.29,0,0,1-9.2-1.76,22.58,22.58,0,0,1-7.09-4.66,20.84,20.84,0,0,1-4.58-6.64A19.12,19.12,0,0,1,2,216.44a18.49,18.49,0,0,1,1.72-7.83A21.46,21.46,0,0,1,8.48,202a22.74,22.74,0,0,1,7.19-4.58,23.68,23.68,0,0,1,9-1.69,22.49,22.49,0,0,1,9.14,1.81,22.87,22.87,0,0,1,7,4.74A21.48,21.48,0,0,1,45.44,209a18.91,18.91,0,0,1,1.62,7.59,18.6,18.6,0,0,1-1.69,7.8,20.71,20.71,0,0,1-4.68,6.55,22.49,22.49,0,0,1-7.15,4.55A23.68,23.68,0,0,1,24.51,237.15ZM11.12,216.44a14.66,14.66,0,0,0,.91,5.12A12.87,12.87,0,0,0,18.88,229a13.61,13.61,0,0,0,5.69,1.15A13.47,13.47,0,0,0,30.33,229a12.91,12.91,0,0,0,4.22-3.14,13.34,13.34,0,0,0,2.6-4.4,14.44,14.44,0,0,0-.06-10.09,13.79,13.79,0,0,0-2.67-4.38,12.75,12.75,0,0,0-4.22-3,13.77,13.77,0,0,0-5.63-1.12A13.63,13.63,0,0,0,18.79,204a12.64,12.64,0,0,0-4.23,3.11A13.45,13.45,0,0,0,12,211.46,14.75,14.75,0,0,0,11.12,216.44Z" transform="translate(-2.02)"/>
            <path class="cls-2" d="M62.8,196h7.93l17.55,40.85H79.05l-4.29-10.18H58.64l-4.23,10.18H45.18ZM73.13,221.1l-6.37-16-6.63,16Z" transform="translate(-2.02)"/>
            <path class="cls-2" d="M90.68,236.86V196.07h9v19.39L119,196h9.88l-17.68,18.12L130,236.86H119.94L105.57,219.2l-5.92,5.46v12.2Z" transform="translate(-2.02)"/>
            <path class="cls-3" d="M147.43,196.13h8.26l5.2,13.52,5.2-13.52h8.32l-7.87,18.58,5.86,13.06L185.46,196h9.75l-18.78,40.85h-7.55l-8-17.14-8,17.14h-7.54L126.7,196h9.62l13.13,31.76,5.72-13.06Z" transform="translate(-2.02)"/>
            <path class="cls-3" d="M206.46,196h7.93l17.55,40.85h-9.23l-4.29-10.18H202.3l-4.23,10.18h-9.23Zm10.33,25.09-6.37-16-6.63,16Z" transform="translate(-2.02)"/>
            <path class="cls-3" d="M235.13,196l12.48,30.9L260,196h9.43l-18,40.85h-7.54L225.7,196Z" transform="translate(-2.02)"/>
            <path class="cls-3" d="M303.71,229.9v7h-32V196h31.46v7H280.63v9.84h19.44v6.44H280.63V229.9Z" transform="translate(-2.02)"/>
          </g>
          <g>
            <path class="cls-4" d="M228.41,63a80,80,0,0,0-23.06-17.35,62.51,62.51,0,0,1-38.29,92.95c1.31,1.06,2.65,2.07,4,3.05a22.38,22.38,0,0,0,25.83,0c1.37-1,2.71-2,4-3.05A78.09,78.09,0,0,0,228.41,63Z" transform="translate(-2.02)"/>
            <path class="cls-5" d="M228.41,63a80,80,0,0,0-23.06-17.35,62.51,62.51,0,0,1-38.29,92.95c1.31,1.06,2.65,2.07,4,3.05a22.38,22.38,0,0,0,25.83,0c1.37-1,2.71-2,4-3.05A78.09,78.09,0,0,0,228.41,63Z" transform="translate(-2.02)"/>
            <path class="cls-6" d="M92,96.11a79.86,79.86,0,0,0-2.89,21.39c0,2.47.11,4.92.33,7.33a78.63,78.63,0,0,0,21,19.3,22.54,22.54,0,0,0,24-.12,77.39,77.39,0,0,0,6.37-4.48A62.49,62.49,0,0,1,92,96.11Z" transform="translate(-2.02)"/>
            <path class="cls-7" d="M92,96.11a79.86,79.86,0,0,0-2.89,21.39c0,2.47.11,4.92.33,7.33a78.63,78.63,0,0,0,21,19.3,22.54,22.54,0,0,0,24-.12,77.39,77.39,0,0,0,6.37-4.48A62.49,62.49,0,0,1,92,96.11Z" transform="translate(-2.02)"/>
            <path class="cls-8" d="M200.92,138.63c-1.3,1.06-2.64,2.07-4,3.05a22.38,22.38,0,0,1-25.83,0c-1.37-1-2.71-2-4-3.05a78.12,78.12,0,0,1-21.4-27.15c.37-.57.72-1.15,1.07-1.74a9,9,0,0,1,15.56,0c.34.59.7,1.17,1.06,1.74A62.64,62.64,0,0,0,184,131.61,61.92,61.92,0,0,0,200.92,138.63Z" transform="translate(-2.02)"/>
            <path class="cls-9" d="M200.92,138.63c-1.3,1.06-2.64,2.07-4,3.05a22.38,22.38,0,0,1-25.83,0c-1.37-1-2.71-2-4-3.05a78.12,78.12,0,0,1-21.4-27.15c.37-.57.72-1.15,1.07-1.74a9,9,0,0,1,15.56,0c.34.59.7,1.17,1.06,1.74A62.64,62.64,0,0,0,184,131.61,61.92,61.92,0,0,0,200.92,138.63Z" transform="translate(-2.02)"/>
            <path class="cls-10" d="M163.35,111.48A78.34,78.34,0,0,1,134.46,144a22.54,22.54,0,0,1-24,.12,78.72,78.72,0,0,1-6.56-4.6,61.88,61.88,0,0,0,18.45-6.41,62.67,62.67,0,0,0,23.3-21.64c.37-.57.72-1.15,1.07-1.74a9,9,0,0,1,15.56,0C162.63,110.33,163,110.91,163.35,111.48Z" transform="translate(-2.02)"/>
            <path class="cls-11" d="M163.35,111.48A78.34,78.34,0,0,1,134.46,144a22.54,22.54,0,0,1-24,.12,78.72,78.72,0,0,1-6.56-4.6,61.88,61.88,0,0,0,18.45-6.41,62.67,62.67,0,0,0,23.3-21.64c.37-.57.72-1.15,1.07-1.74a9,9,0,0,1,15.56,0C162.63,110.33,163,110.91,163.35,111.48Z" transform="translate(-2.02)"/>
            <path class="cls-12" d="M224.5,49.57c-.46-.38-.93-.75-1.4-1.11a86.9,86.9,0,0,0-26.51-14.11,63,63,0,0,0-12.6-10,62.34,62.34,0,0,0-32.14-8.89A62.48,62.48,0,0,0,89.35,78c0,1.34,0,2.67.13,4a86.61,86.61,0,0,0-7.32,29.71c0,.4-.06.8-.08,1.2A78,78,0,1,1,224.5,49.57Z" transform="translate(-2.02)"/>
            <path class="cls-2" d="M223.1,48.46a86.9,86.9,0,0,0-26.51-14.11,63,63,0,0,0-12.6-10,62.34,62.34,0,0,0-32.14-8.89A62.48,62.48,0,0,0,89.35,78c0,1.34,0,2.67.13,4a86.61,86.61,0,0,0-7.32,29.71A77.22,77.22,0,0,1,200.75,19,77.51,77.51,0,0,1,223.1,48.46Z" transform="translate(-2.02)"/>
          </g>
        </g>
      </g>
    </g>
  </g>
</svg>
