<svg xmlns="http://www.w3.org/2000/svg" xmlns:xlink="http://www.w3.org/1999/xlink" width="3.34743in" height="2.96226in" viewBox="0 0 241.01509 213.28292"><defs><style>.cls-1{isolation:isolate;}.cls-2{fill:url(#linear-gradient);}.cls-3,.cls-5,.cls-7,.cls-9{mix-blend-mode:color-dodge;}.cls-3{fill:url(#New_Gradient_Swatch_1);}.cls-4{fill:url(#linear-gradient-2);}.cls-5{fill:url(#New_Gradient_Swatch_1-2);}.cls-6{fill:url(#linear-gradient-3);}.cls-7{fill:url(#New_Gradient_Swatch_1-3);}.cls-8{fill:url(#linear-gradient-4);}.cls-9{fill:url(#New_Gradient_Swatch_1-4);}.cls-10{fill:url(#radial-gradient);}.cls-11{fill:#fff;}</style><linearGradient id="linear-gradient" x1="121.30924" y1="176.51739" x2="158.97591" y2="141.85073" gradientUnits="userSpaceOnUse"><stop offset="0" stop-color="#272b2c"/><stop offset="1" stop-color="#6c5ba7"/></linearGradient><radialGradient id="New_Gradient_Swatch_1" cx="179.97615" cy="82.27845" r="41.77798" gradientUnits="userSpaceOnUse"><stop offset="0.00513" stop-color="#6c5ba7"/><stop offset="1" stop-color="#6c5ba7" stop-opacity="0"/></radialGradient><linearGradient id="linear-gradient-2" x1="96.47283" y1="174.59982" x2="84.47283" y2="161.93316" xlink:href="#linear-gradient"/><radialGradient id="New_Gradient_Swatch_1-2" cx="65.00117" cy="133.11528" r="25.77928" xlink:href="#New_Gradient_Swatch_1"/><linearGradient id="linear-gradient-3" x1="125.52873" y1="132.95984" x2="146.27873" y2="159.70984" xlink:href="#linear-gradient"/><radialGradient id="New_Gradient_Swatch_1-3" cx="163.56123" cy="168.81957" r="24.22705" xlink:href="#New_Gradient_Swatch_1"/><linearGradient id="linear-gradient-4" x1="48.22491" y1="188.54314" x2="100.97491" y2="165.29314" xlink:href="#linear-gradient"/><radialGradient id="New_Gradient_Swatch_1-4" cx="123.12116" cy="146.04702" r="24.43614" xlink:href="#New_Gradient_Swatch_1"/><radialGradient id="radial-gradient" cx="138.12116" cy="29.04702" r="88.51342" gradientUnits="userSpaceOnUse"><stop offset="0" stop-color="#58595b"/><stop offset="0.99487" stop-color="#272b2c"/></radialGradient></defs><g class="cls-1"><g id="Layer_1" data-name="Layer 1"><path class="cls-2" d="M201.68122,96.57705A79.967,79.967,0,0,0,178.62116,79.227a62.51271,62.51271,0,0,1-38.29,92.94995q1.95524,1.58631,4.01431,3.047a22.36641,22.36641,0,0,0,25.8314,0q2.058-1.45962,4.01439-3.047a78.08779,78.08779,0,0,0,27.49-75.59985Z"/><path class="cls-3" d="M201.68122,96.57705A79.967,79.967,0,0,0,178.62116,79.227a62.51271,62.51271,0,0,1-38.29,92.94995q1.95524,1.58631,4.01431,3.047a22.36641,22.36641,0,0,0,25.8314,0q2.058-1.45962,4.01439-3.047a78.08779,78.08779,0,0,0,27.49-75.59985Z"/><path class="cls-4" d="M65.29109,129.65688a79.86266,79.86266,0,0,0-2.8899,21.39014c0,2.47.11,4.91992.33,7.33008a78.73906,78.73906,0,0,0,21.0073,19.30063,22.54064,22.54064,0,0,0,23.99412-.12525q3.30067-2.08165,6.36858-4.47543a62.48489,62.48489,0,0,1-48.81006-43.42017Z"/><path class="cls-5" d="M65.29109,129.65688a79.86266,79.86266,0,0,0-2.8899,21.39014c0,2.47.11,4.91992.33,7.33008a78.73906,78.73906,0,0,0,21.0073,19.30063,22.54064,22.54064,0,0,0,23.99412-.12525q3.30067-2.08165,6.36858-4.47543a62.48489,62.48489,0,0,1-48.81006-43.42017Z"/><path class="cls-6" d="M174.19123,172.1769q-1.9553,1.58633-4.01439,3.047a22.36641,22.36641,0,0,1-25.8314,0q-2.05794-1.45963-4.01431-3.047a78.11536,78.11536,0,0,1-21.39991-27.1499q.548-.86083,1.0685-1.74066a8.99232,8.99232,0,0,1,15.55414.00172q.51971.87885,1.0673,1.73894a62.64091,62.64091,0,0,0,20.64,20.12988A61.91014,61.91014,0,0,0,174.19123,172.1769Z"/><path class="cls-7" d="M174.19123,172.1769q-1.9553,1.58633-4.01439,3.047a22.36641,22.36641,0,0,1-25.8314,0q-2.05794-1.45963-4.01431-3.047a78.11536,78.11536,0,0,1-21.39991-27.1499q.548-.86083,1.0685-1.74066a8.99232,8.99232,0,0,1,15.55414.00172q.51971.87885,1.0673,1.73894a62.64091,62.64091,0,0,0,20.64,20.12988A61.91014,61.91014,0,0,0,174.19123,172.1769Z"/><path class="cls-8" d="M136.62116,145.027a78.55521,78.55521,0,0,1-22.52,28.05005q-3.064,2.38987-6.36858,4.47543a22.54064,22.54064,0,0,1-23.99412.12525,77.52,77.52,0,0,1-6.55723-4.60068,61.885,61.885,0,0,0,18.45-6.40992A62.66565,62.66565,0,0,0,118.93122,145.027q.548-.86083,1.0685-1.74066a8.99232,8.99232,0,0,1,15.55414.00172Q136.07357,144.16691,136.62116,145.027Z"/><path class="cls-9" d="M136.62116,145.027a78.55521,78.55521,0,0,1-22.52,28.05005q-3.064,2.38987-6.36858,4.47543a22.54064,22.54064,0,0,1-23.99412.12525,77.52,77.52,0,0,1-6.55723-4.60068,61.885,61.885,0,0,0,18.45-6.40992A62.66565,62.66565,0,0,0,118.93122,145.027q.548-.86083,1.0685-1.74066a8.99232,8.99232,0,0,1,15.55414.00172Q136.07357,144.16691,136.62116,145.027Z"/><path class="cls-10" d="M197.77119,83.11709c-.46008-.38013-.93-.75-1.4-1.11011a86.89693,86.89693,0,0,0-26.51-14.10987,62.96144,62.96144,0,0,0-12.6-9.96,62.3455,62.3455,0,0,0-32.14-8.89013,62.47632,62.47632,0,0,0-62.5,62.5c0,1.33984.04,2.66992.13,3.99a86.60566,86.60566,0,0,0-7.31995,29.71c-.03.40014-.06006.8-.08007,1.2a78.01189,78.01189,0,1,1,142.42-63.32983Z"/><path class="cls-11" d="M196.37116,82.007a86.89693,86.89693,0,0,0-26.51-14.10987,62.96144,62.96144,0,0,0-12.6-9.96,62.3455,62.3455,0,0,0-32.14-8.89013,62.47632,62.47632,0,0,0-62.5,62.5c0,1.33984.04,2.66992.13,3.99a86.60566,86.60566,0,0,0-7.31995,29.71,77.22036,77.22036,0,0,1,118.59-92.69995A77.506,77.506,0,0,1,196.37116,82.007Z"/></g></g></svg>