<svg xmlns="http://www.w3.org/2000/svg" xmlns:xlink="http://www.w3.org/1999/xlink" width="237.96" height="237.96" viewBox="0 0 237.96 237.96">
  <defs>
    <style>
      .cls-1 {
        isolation: isolate;
      }

      .cls-2 {
        fill: #272b2c;
      }

      .cls-14, .cls-3 {
        fill: #fff;
      }

      .cls-4 {
        fill: #6c5ba7;
      }

      .cls-5 {
        fill: url(#linear-gradient);
      }

      .cls-10, .cls-12, .cls-6, .cls-8 {
        mix-blend-mode: color-dodge;
      }

      .cls-6 {
        fill: url(#New_Gradient_Swatch_1);
      }

      .cls-7 {
        fill: url(#linear-gradient-2);
      }

      .cls-8 {
        fill: url(#New_Gradient_Swatch_1-2);
      }

      .cls-9 {
        fill: url(#linear-gradient-3);
      }

      .cls-10 {
        fill: url(#New_Gradient_Swatch_1-3);
      }

      .cls-11 {
        fill: url(#linear-gradient-4);
      }

      .cls-12 {
        fill: url(#New_Gradient_Swatch_1-4);
      }

      .cls-13 {
        fill: url(#radial-gradient);
      }

      .cls-14 {
        stroke-miterlimit: 10;
        stroke: url(#linear-gradient-5);
      }
    </style>
    <linearGradient id="linear-gradient" x1="116.32" y1="145.54" x2="139.99" y2="123.76" gradientUnits="userSpaceOnUse">
      <stop offset="0" stop-color="#272b2c"/>
      <stop offset="1" stop-color="#6c5ba7"/>
    </linearGradient>
    <radialGradient id="New_Gradient_Swatch_1" data-name="New Gradient Swatch 1" cx="153.18" cy="86.33" r="26.25" gradientUnits="userSpaceOnUse">
      <stop offset="0.01" stop-color="#6c5ba7"/>
      <stop offset="1" stop-color="#6c5ba7" stop-opacity="0"/>
    </radialGradient>
    <linearGradient id="linear-gradient-2" x1="100.72" y1="144.33" x2="93.18" y2="136.38" xlink:href="#linear-gradient"/>
    <radialGradient id="New_Gradient_Swatch_1-2" cx="80.95" cy="118.27" r="16.2" xlink:href="#New_Gradient_Swatch_1"/>
    <linearGradient id="linear-gradient-3" x1="118.98" y1="118.17" x2="132.01" y2="134.98" xlink:href="#linear-gradient"/>
    <radialGradient id="New_Gradient_Swatch_1-3" cx="142.87" cy="140.7" r="15.22" xlink:href="#New_Gradient_Swatch_1"/>
    <linearGradient id="linear-gradient-4" x1="70.41" y1="153.09" x2="103.55" y2="138.49" xlink:href="#linear-gradient"/>
    <radialGradient id="New_Gradient_Swatch_1-4" cx="117.46" cy="126.39" r="15.35" xlink:href="#New_Gradient_Swatch_1"/>
    <radialGradient id="radial-gradient" cx="126.89" cy="52.89" r="55.61" gradientUnits="userSpaceOnUse">
      <stop offset="0" stop-color="#58595b"/>
      <stop offset="0.99" stop-color="#272b2c"/>
    </radialGradient>
    <linearGradient id="linear-gradient-5" x1="69.89" y1="92.1" x2="164.72" y2="92.1" gradientUnits="userSpaceOnUse">
      <stop offset="0.01" stop-color="#fff"/>
      <stop offset="1" stop-color="#414042" stop-opacity="0"/>
    </linearGradient>
  </defs>
  <g class="cls-1">
    <g id="Layer_2" data-name="Layer 2">
      <g id="Layer_1-2" data-name="Layer 1">
        <g>
          <rect class="cls-2" width="237.96" height="237.96"/>
          <g>
            <path class="cls-3" d="M36.58,204.35a14.53,14.53,0,0,1-5.78-1.11,14.21,14.21,0,0,1-4.45-2.92,13.14,13.14,0,0,1-2.88-4.18,12,12,0,0,1-1-4.81,11.63,11.63,0,0,1,1.08-4.91,13.41,13.41,0,0,1,3-4.16A14.43,14.43,0,0,1,31,179.39a15,15,0,0,1,5.68-1.07,14.22,14.22,0,0,1,10.17,4.12,13.44,13.44,0,0,1,2.86,4.2,11.83,11.83,0,0,1,1,4.77,11.6,11.6,0,0,1-1.06,4.89,13.17,13.17,0,0,1-2.94,4.12,14.13,14.13,0,0,1-4.5,2.86A14.87,14.87,0,0,1,36.58,204.35Zm-8.42-13a9,9,0,0,0,.58,3.22,8.34,8.34,0,0,0,1.65,2.75A8.19,8.19,0,0,0,33,199.21a9.16,9.16,0,0,0,7.19,0,8.14,8.14,0,0,0,2.66-2,8.51,8.51,0,0,0,1.63-2.77,9.09,9.09,0,0,0,.55-3.13,8.82,8.82,0,0,0-.59-3.21,8.56,8.56,0,0,0-1.67-2.75,8.06,8.06,0,0,0-2.66-1.9,8.52,8.52,0,0,0-3.53-.7,8.64,8.64,0,0,0-3.64.74,7.84,7.84,0,0,0-2.65,2,8.27,8.27,0,0,0-1.61,2.75A9.13,9.13,0,0,0,28.16,191.33Z"/>
            <path class="cls-3" d="M60.63,178.5h5l11,25.67H70.85l-2.7-6.4H58l-2.65,6.4h-5.8Zm6.5,15.76-4-10.08L59,194.26Z"/>
            <path class="cls-3" d="M78.16,204.17V178.54h5.63v12.18L96,178.5h6.21L91.06,189.89l11.8,14.28H96.53l-9-11.1-3.72,3.43v7.67Z"/>
            <path class="cls-4" d="M113.81,178.58H119l3.27,8.49,3.26-8.49h5.23l-4.94,11.67,3.67,8.2,8.21-19.95h6.13L132,204.17h-4.74l-5-10.77-5,10.77H112.5L100.78,178.5h6l8.25,19.95,3.59-8.2Z"/>
            <path class="cls-4" d="M150.9,178.5h5l11,25.67h-5.8l-2.7-6.4H148.28l-2.65,6.4h-5.8Zm6.49,15.76-4-10.08-4.17,10.08Z"/>
            <path class="cls-4" d="M168.91,178.5l7.84,19.41,7.76-19.41h5.92l-11.31,25.67h-4.74L163,178.5Z"/>
            <path class="cls-4" d="M212,199.79v4.38H191.86V178.5h19.77v4.38H197.5v6.18h12.21v4.05H197.5v6.68Z"/>
          </g>
          <path class="cls-5" d="M166.82,95.31a50.45,50.45,0,0,0-14.49-10.9,39.28,39.28,0,0,1-24.05,58.4c.81.67,1.66,1.3,2.52,1.92a14.05,14.05,0,0,0,16.23,0c.86-.62,1.7-1.25,2.52-1.92a49,49,0,0,0,17.27-47.5Z"/>
          <path class="cls-6" d="M166.82,95.31a50.45,50.45,0,0,0-14.49-10.9,39.28,39.28,0,0,1-24.05,58.4c.81.67,1.66,1.3,2.52,1.92a14.05,14.05,0,0,0,16.23,0c.86-.62,1.7-1.25,2.52-1.92a49,49,0,0,0,17.27-47.5Z"/>
          <path class="cls-7" d="M81.13,116.1a50.06,50.06,0,0,0-1.82,13.44c0,1.55.07,3.09.21,4.6a49.05,49.05,0,0,0,9.08,9.24,49.81,49.81,0,0,0,4.12,2.89,14.16,14.16,0,0,0,15.07-.08,48.81,48.81,0,0,0,4-2.81A39.26,39.26,0,0,1,81.13,116.1Z"/>
          <path class="cls-8" d="M81.13,116.1a50.06,50.06,0,0,0-1.82,13.44c0,1.55.07,3.09.21,4.6a49.05,49.05,0,0,0,9.08,9.24,49.81,49.81,0,0,0,4.12,2.89,14.16,14.16,0,0,0,15.07-.08,48.81,48.81,0,0,0,4-2.81A39.26,39.26,0,0,1,81.13,116.1Z"/>
          <path class="cls-9" d="M149.55,142.81c-.82.67-1.66,1.3-2.52,1.92a14.05,14.05,0,0,1-16.23,0c-.86-.62-1.71-1.25-2.52-1.92a49.32,49.32,0,0,1-7.9-8.05,48.8,48.8,0,0,1-5.55-9c.23-.36.45-.72.67-1.09a5.65,5.65,0,0,1,9.77,0c.22.37.45.73.67,1.09a39.5,39.5,0,0,0,13,12.65A38.83,38.83,0,0,0,149.55,142.81Z"/>
          <path class="cls-10" d="M149.55,142.81c-.82.67-1.66,1.3-2.52,1.92a14.05,14.05,0,0,1-16.23,0c-.86-.62-1.71-1.25-2.52-1.92a49.32,49.32,0,0,1-7.9-8.05,48.8,48.8,0,0,1-5.55-9c.23-.36.45-.72.67-1.09a5.65,5.65,0,0,1,9.77,0c.22.37.45.73.67,1.09a39.5,39.5,0,0,0,13,12.65A38.83,38.83,0,0,0,149.55,142.81Z"/>
          <path class="cls-11" d="M125.94,125.75a47.79,47.79,0,0,1-5.56,9,48.42,48.42,0,0,1-12.59,11.43,14.16,14.16,0,0,1-15.07.08,49.81,49.81,0,0,1-4.12-2.89,38.89,38.89,0,0,0,11.59-4,39.36,39.36,0,0,0,14.64-13.6c.23-.36.45-.72.67-1.09a5.65,5.65,0,0,1,9.77,0C125.49,125,125.72,125.39,125.94,125.75Z"/>
          <path class="cls-12" d="M125.94,125.75a47.79,47.79,0,0,1-5.56,9,48.42,48.42,0,0,1-12.59,11.43,14.16,14.16,0,0,1-15.07.08,49.81,49.81,0,0,1-4.12-2.89,38.89,38.89,0,0,0,11.59-4,39.36,39.36,0,0,0,14.64-13.6c.23-.36.45-.72.67-1.09a5.65,5.65,0,0,1,9.77,0C125.49,125,125.72,125.39,125.94,125.75Z"/>
          <path class="cls-13" d="M164.36,86.86l-.88-.7a54.55,54.55,0,0,0-16.65-8.87A40,40,0,0,0,138.91,71a39.21,39.21,0,0,0-20.19-5.59,39.4,39.4,0,0,0-6.92.61,39.28,39.28,0,0,0-32.35,38.66c0,.84,0,1.68.08,2.51a54.39,54.39,0,0,0-4.6,18.66c0,.25,0,.5-.05.76a49,49,0,1,1,89.48-39.79Z"/>
          <path class="cls-14" d="M163.48,86.16a54.55,54.55,0,0,0-16.65-8.87A40,40,0,0,0,138.91,71a39.21,39.21,0,0,0-20.19-5.59,39.4,39.4,0,0,0-6.92.61,39.28,39.28,0,0,0-32.35,38.66c0,.84,0,1.68.08,2.51a54.39,54.39,0,0,0-4.6,18.66,48.58,48.58,0,0,1,14.15-58.8,48.54,48.54,0,0,1,74.4,19.07Z"/>
        </g>
      </g>
    </g>
  </g>
</svg>
