<svg xmlns="http://www.w3.org/2000/svg" xmlns:xlink="http://www.w3.org/1999/xlink" viewBox="0 0 432 432"><defs><style>.cls-1{isolation:isolate;}.cls-2{font-size:57.53px;font-family:NotoSans-Bold, Noto Sans;font-weight:700;letter-spacing:-0.05em;}.cls-15,.cls-2{fill:#fff;}.cls-3{letter-spacing:-0.04em;}.cls-4,.cls-5{fill:#6c5ba7;}.cls-4{letter-spacing:-0.06em;}.cls-5{letter-spacing:-0.04em;}.cls-6{fill:url(#linear-gradient);}.cls-11,.cls-13,.cls-7,.cls-9{mix-blend-mode:color-dodge;}.cls-7{fill:url(#New_Gradient_Swatch_1);}.cls-8{fill:url(#linear-gradient-2);}.cls-9{fill:url(#New_Gradient_Swatch_1-2);}.cls-10{fill:url(#linear-gradient-3);}.cls-11{fill:url(#New_Gradient_Swatch_1-3);}.cls-12{fill:url(#linear-gradient-4);}.cls-13{fill:url(#New_Gradient_Swatch_1-4);}.cls-14{fill:url(#radial-gradient);}</style><linearGradient id="linear-gradient" x1="211.11" y1="239.32" x2="248.77" y2="204.65" gradientUnits="userSpaceOnUse"><stop offset="0" stop-color="#272b2c"/><stop offset="1" stop-color="#6c5ba7"/></linearGradient><radialGradient id="New_Gradient_Swatch_1" cx="269.77" cy="145.08" r="41.78" gradientUnits="userSpaceOnUse"><stop offset="0.01" stop-color="#6c5ba7"/><stop offset="1" stop-color="#6c5ba7" stop-opacity="0"/></radialGradient><linearGradient id="linear-gradient-2" x1="186.27" y1="237.4" x2="174.27" y2="224.73" xlink:href="#linear-gradient"/><radialGradient id="New_Gradient_Swatch_1-2" cx="154.8" cy="195.92" r="25.78" xlink:href="#New_Gradient_Swatch_1"/><linearGradient id="linear-gradient-3" x1="215.33" y1="195.76" x2="236.08" y2="222.51" xlink:href="#linear-gradient"/><radialGradient id="New_Gradient_Swatch_1-3" cx="253.36" cy="231.62" r="24.23" xlink:href="#New_Gradient_Swatch_1"/><linearGradient id="linear-gradient-4" x1="138.02" y1="251.34" x2="190.77" y2="228.09" xlink:href="#linear-gradient"/><radialGradient id="New_Gradient_Swatch_1-4" cx="212.92" cy="208.85" r="24.44" xlink:href="#New_Gradient_Swatch_1"/><radialGradient id="radial-gradient" cx="227.92" cy="91.85" r="88.51" gradientUnits="userSpaceOnUse"><stop offset="0" stop-color="#58595b"/><stop offset="0.99" stop-color="#272b2c"/></radialGradient></defs><g class="cls-1"><g id="Layer_1" data-name="Layer 1"><text class="cls-2" transform="translate(59.67 299.21) scale(1.13 1)">O<tspan class="cls-3" x="42.87" y="0">AK</tspan><tspan class="cls-4" x="116.04" y="0">WA</tspan><tspan class="cls-5" x="204.38" y="0">VE</tspan></text><path class="cls-6" d="M291.48,159.38A80,80,0,0,0,268.42,142,62.51,62.51,0,0,1,230.13,235c1.3,1.06,2.64,2.07,4,3.05A22.38,22.38,0,0,0,260,238c1.38-1,2.72-2,4-3.05a78.09,78.09,0,0,0,27.49-75.6Z"/><path class="cls-7" d="M291.48,159.38A80,80,0,0,0,268.42,142,62.51,62.51,0,0,1,230.13,235c1.3,1.06,2.64,2.07,4,3.05A22.38,22.38,0,0,0,260,238c1.38-1,2.72-2,4-3.05a78.09,78.09,0,0,0,27.49-75.6Z"/><path class="cls-8" d="M155.09,192.46a79.86,79.86,0,0,0-2.89,21.39c0,2.47.11,4.92.33,7.33A78,78,0,0,0,167,235.88a77.1,77.1,0,0,0,6.56,4.6,22.54,22.54,0,0,0,24-.13,76.57,76.57,0,0,0,6.37-4.47,62.49,62.49,0,0,1-48.81-43.42Z"/><path class="cls-9" d="M155.09,192.46a79.86,79.86,0,0,0-2.89,21.39c0,2.47.11,4.92.33,7.33A78,78,0,0,0,167,235.88a77.1,77.1,0,0,0,6.56,4.6,22.54,22.54,0,0,0,24-.13,76.57,76.57,0,0,0,6.37-4.47,62.49,62.49,0,0,1-48.81-43.42Z"/><path class="cls-10" d="M264,235c-1.3,1.06-2.64,2.07-4,3.05a22.38,22.38,0,0,1-25.83,0c-1.37-1-2.71-2-4-3.05a78.12,78.12,0,0,1-21.4-27.15c.36-.58.72-1.16,1.07-1.74a9,9,0,0,1,15.55,0c.35.59.7,1.16,1.07,1.74A62.64,62.64,0,0,0,247.06,228,61.92,61.92,0,0,0,264,235Z"/><path class="cls-11" d="M264,235c-1.3,1.06-2.64,2.07-4,3.05a22.38,22.38,0,0,1-25.83,0c-1.37-1-2.71-2-4-3.05a78.12,78.12,0,0,1-21.4-27.15c.36-.58.72-1.16,1.07-1.74a9,9,0,0,1,15.55,0c.35.59.7,1.16,1.07,1.74A62.64,62.64,0,0,0,247.06,228,61.92,61.92,0,0,0,264,235Z"/><path class="cls-12" d="M226.42,207.83a78.56,78.56,0,0,1-22.52,28,76.57,76.57,0,0,1-6.37,4.47,22.54,22.54,0,0,1-24,.13,77.1,77.1,0,0,1-6.56-4.6,61.88,61.88,0,0,0,18.45-6.41,62.67,62.67,0,0,0,23.3-21.64c.36-.58.72-1.16,1.07-1.74a9,9,0,0,1,15.55,0C225.7,206.68,226.05,207.25,226.42,207.83Z"/><path class="cls-13" d="M226.42,207.83a78.56,78.56,0,0,1-22.52,28,76.57,76.57,0,0,1-6.37,4.47,22.54,22.54,0,0,1-24,.13,77.1,77.1,0,0,1-6.56-4.6,61.88,61.88,0,0,0,18.45-6.41,62.67,62.67,0,0,0,23.3-21.64c.36-.58.72-1.16,1.07-1.74a9,9,0,0,1,15.55,0C225.7,206.68,226.05,207.25,226.42,207.83Z"/><path class="cls-14" d="M287.57,145.92c-.46-.38-.93-.75-1.4-1.11a86.9,86.9,0,0,0-26.51-14.11,63,63,0,0,0-12.6-10,62.34,62.34,0,0,0-32.14-8.89,62.48,62.48,0,0,0-62.5,62.5c0,1.34,0,2.67.13,4a86.61,86.61,0,0,0-7.32,29.71c0,.4-.06.8-.08,1.2a78,78,0,1,1,142.42-63.33Z"/><path class="cls-15" d="M286.17,144.81a86.9,86.9,0,0,0-26.51-14.11,63,63,0,0,0-12.6-10,62.34,62.34,0,0,0-32.14-8.89,62.48,62.48,0,0,0-62.5,62.5c0,1.34,0,2.67.13,4a86.61,86.61,0,0,0-7.32,29.71,77.22,77.22,0,0,1,118.59-92.7A77.51,77.51,0,0,1,286.17,144.81Z"/></g></g></svg>