<?xml version="1.0" encoding="utf-8"?>
<svg xmlns="http://www.w3.org/2000/svg" xmlns:xlink="http://www.w3.org/1999/xlink" style="margin: auto; background: none; display: block; z-index: 1; position: relative; shape-rendering: auto;" width="1426" height="367" preserveAspectRatio="xMidYMid" viewBox="0 0 1426 367">
<g transform=""><linearGradient id="lg-0.717255242307171" x1="0" x2="1" y1="0" y2="0">
  <stop stop-color="#6c5ba7" offset="0"></stop>
  <stop stop-color="#19112f" offset="1"></stop>
</linearGradient><path d="M 1285.65 184 C 1285.65 362.443 1015.57 536.395 846.028 591.876 C 676.481 647.358 318.417 690.725 213.351 546.074 C 108.285 401.423 118.623 -27.5568 223.689 -172.208 C 328.755 -316.858 697.17 -344.527 866.717 -289.046 C 1036.26 -233.565 1285.65 5.55683 1285.65 184" fill="url(#lg-0.717255242307171)" opacity="0.5">
  <animate attributeName="d" dur="7.142857142857142s" repeatCount="indefinite" keyTimes="0;0.3333333333333333;0.6666666666666666;1" calcmod="spline" keySplines="0.3 0.1 0.7 0.9;0.3 0.1 0.7 0.9;0.3 0.1 0.7 0.9" begin="-2.8571428571428568s" values="M 1274 184 C 1274 349 986 488 829 539 C 672 590 417 602 320 469 C 223 336 124 -41 221 -174 C 318 -307 690 -280 847 -229 C 1004 -178 1274 19 1274 184;M 1301 184 C 1301 345 1007 567 854 617 C 701 667 388 619 293 489 C 198 359 153 -23 248 -154 C 343 -285 681 -240 834 -190 C 987 -140 1301 23 1301 184;M 1287 184 C 1287 364 1019 542 848 598 C 677 654 307 701 201 555 C 95 409 118 -26 224 -172 C 330 -318 698 -352 869 -296 C 1040 -240 1287 4 1287 184;M 1274 184 C 1274 349 986 488 829 539 C 672 590 417 602 320 469 C 223 336 124 -41 221 -174 C 318 -307 690 -280 847 -229 C 1004 -178 1274 19 1274 184"></animate>
</path><path d="M 1303.23 184 C 1303.23 349.689 1018 584.349 860.311 636.142 C 702.623 687.934 377.689 632.792 279.896 498.104 C 182.104 363.415 137.633 -28.8204 235.425 -163.509 C 333.217 -298.198 679.736 -251.275 837.425 -200.379 C 995.114 -149.483 1303.23 18.3114 1303.23 184" fill="url(#lg-0.717255242307171)" opacity="0.5">
  <animate attributeName="d" dur="7.142857142857142s" repeatCount="indefinite" keyTimes="0;0.3333333333333333;0.6666666666666666;1" calcmod="spline" keySplines="0.3 0.1 0.7 0.9;0.3 0.1 0.7 0.9;0.3 0.1 0.7 0.9" begin="-2.8571428571428568s" values="M 1357 184 C 1357 347 1018 596 863 646 C 708 696 375 631 279 499 C 183 367 169 -10 265 -142 C 361 -274 712 -340 867 -290 C 1022 -240 1357 21 1357 184;M 1403 184 C 1403 358 1018 558 852 612 C 686 666 352 662 249 521 C 146 380 107 -41 209 -182 C 311 -323 707 -363 873 -309 C 1039 -255 1403 10 1403 184;M 1297 184 C 1297 350 1018 583 860 635 C 702 687 378 633 280 498 C 182 363 134 -31 232 -166 C 330 -301 676 -241 834 -190 C 992 -139 1297 18 1297 184;M 1357 184 C 1357 347 1018 596 863 646 C 708 696 375 631 279 499 C 183 367 169 -10 265 -142 C 361 -274 712 -340 867 -290 C 1022 -240 1357 21 1357 184"></animate>
</path><path d="M 1230.47 184 C 1230.47 342.245 995.557 543.727 845.415 592.142 C 695.273 640.557 372.397 626.509 279.67 498.575 C 186.944 370.641 229.112 26.7447 321.839 -101.189 C 414.565 -229.124 692.651 -265.792 842.792 -217.377 C 992.934 -168.962 1230.47 25.7545 1230.47 184" fill="url(#lg-0.717255242307171)" opacity="0.5">
  <animate attributeName="d" dur="7.142857142857142s" repeatCount="indefinite" keyTimes="0;0.3333333333333333;0.6666666666666666;1" calcmod="spline" keySplines="0.3 0.1 0.7 0.9;0.3 0.1 0.7 0.9;0.3 0.1 0.7 0.9" begin="-2.8571428571428568s" values="M 1295 184 C 1295 353 1009 550 849 602 C 689 654 419 605 320 469 C 221 333 161 -10 260 -146 C 359 -282 681 -264 841 -212 C 1001 -160 1295 15 1295 184;M 1322 184 C 1322 355 1002 519 839 572 C 676 625 403 620 302 482 C 201 344 198 21 299 -117 C 400 -255 688 -295 851 -242 C 1014 -189 1322 13 1322 184;M 1223 184 C 1223 341 994 543 845 591 C 696 639 367 629 275 502 C 183 375 237 31 329 -96 C 421 -223 694 -266 843 -218 C 992 -170 1223 27 1223 184;M 1295 184 C 1295 353 1009 550 849 602 C 689 654 419 605 320 469 C 221 333 161 -10 260 -146 C 359 -282 681 -264 841 -212 C 1001 -160 1295 15 1295 184"></animate>
</path><path d="M 1303.55 184 C 1303.55 352.273 1027.07 605.481 866.792 657.273 C 706.519 709.066 368.68 641.565 270.095 505.188 C 171.511 368.811 124.379 -36.3575 222.964 -172.735 C 321.549 -309.112 707.339 -343.527 867.613 -291.735 C 1027.89 -239.942 1303.55 15.7265 1303.55 184" fill="url(#lg-0.717255242307171)" opacity="0.5">
  <animate attributeName="d" dur="7.142857142857142s" repeatCount="indefinite" keyTimes="0;0.3333333333333333;0.6666666666666666;1" calcmod="spline" keySplines="0.3 0.1 0.7 0.9;0.3 0.1 0.7 0.9;0.3 0.1 0.7 0.9" begin="-2.8571428571428568s" values="M 1291 184 C 1291 346 1019 601 865 651 C 711 701 435 586 340 455 C 245 324 214 21 309 -110 C 404 -241 693 -279 847 -229 C 1001 -179 1291 22 1291 184;M 1295 184 C 1295 365 1030 573 858 629 C 686 685 369 656 263 510 C 157 364 108 -33 214 -179 C 320 -325 691 -335 863 -279 C 1035 -223 1295 3 1295 184;M 1305 184 C 1305 353 1028 606 867 658 C 706 710 361 648 262 511 C 163 374 114 -43 213 -180 C 312 -317 709 -351 870 -299 C 1031 -247 1305 15 1305 184;M 1291 184 C 1291 346 1019 601 865 651 C 711 701 435 586 340 455 C 245 324 214 21 309 -110 C 404 -241 693 -279 847 -229 C 1001 -179 1291 22 1291 184"></animate>
</path><path d="M 1397.95 184 C 1397.95 357.481 998.104 501.661 833.519 555.453 C 668.934 609.245 364.539 650.603 262.85 510.914 C 161.161 371.226 184.463 12.8023 286.152 -126.886 C 387.84 -266.575 696.443 -324.773 861.028 -270.98 C 1025.61 -217.188 1397.95 10.5189 1397.95 184" fill="url(#lg-0.717255242307171)" opacity="0.5">
  <animate attributeName="d" dur="7.142857142857142s" repeatCount="indefinite" keyTimes="0;0.3333333333333333;0.6666666666666666;1" calcmod="spline" keySplines="0.3 0.1 0.7 0.9;0.3 0.1 0.7 0.9;0.3 0.1 0.7 0.9" begin="-2.8571428571428568s" values="M 1363 184 C 1363 353 999 516 838 568 C 677 620 421 604 322 467 C 223 330 223 37 322 -100 C 421 -237 683 -271 844 -219 C 1005 -167 1363 15 1363 184;M 1311 184 C 1311 362 1040 614 871 669 C 702 724 371 652 266 508 C 161 364 148 -7 253 -151 C 358 -295 694 -333 863 -278 C 1032 -223 1311 6 1311 184;M 1402 184 C 1402 358 998 500 833 554 C 668 608 358 656 256 516 C 154 376 180 10 282 -130 C 384 -270 698 -331 863 -277 C 1028 -223 1402 10 1402 184;M 1363 184 C 1363 353 999 516 838 568 C 677 620 421 604 322 467 C 223 330 223 37 322 -100 C 421 -237 683 -271 844 -219 C 1005 -167 1363 15 1363 184"></animate>
</path></g>
</svg>