<?xml version="1.0" encoding="utf-8"?>
<svg xmlns="http://www.w3.org/2000/svg" xmlns:xlink="http://www.w3.org/1999/xlink" style="margin: auto; background: none; display: block; z-index: 1; position: relative; shape-rendering: auto;" width="1440" height="568" preserveAspectRatio="xMidYMid" viewBox="0 0 1440 568">
<g transform=""><path d="M -100 337.234 C -72.3937 334.195 -72.9421 336.09 -47.1 336.09 S -20.0884 336.61 5.81 336.61 S 33.2218 333.202 58.71 333.202 S 86.1106 334.374 111.61 334.374 S 138.696 336.65 164.52 336.65 S 191.673 335.653 217.42 335.653 S 244.84 336.172 270.32 336.172 S 297.717 338.447 323.23 338.447 S 350.609 338.602 376.13 338.602 S 403.245 330.202 429.03 330.202 S 456.526 334.424 481.94 334.424 S 508.779 332.787 534.84 332.787 S 561.776 334.887 587.74 334.887 S 615.487 329.903 640.65 329.903 S 667.517 330.187 693.55 330.187 S 720.44 339.887 746.45 339.887 S 773.801 337.721 799.35 337.721 S 827.121 337.926 852.26 337.926 S 879.374 336.492 905.16 336.492 S 932.27 337.961 958.06 337.961 S 985.649 336.463 1010.97 336.463 S 1037.61 333.114 1063.87 333.114 S 1090.85 337.06 1116.77 337.06 S 1144.3 331 1169.68 331 S 1196.47 333.903 1222.58 333.903 S 1249.65 332.112 1275.48 332.112 S 1302.9 336.238 1328.39 336.238 S 1355.63 342.536 1381.29 342.536 S 1408.95 336.803 1434.19 336.803 S 1461.19 337.894 1487.1 337.894 S 1513.87 337.163 1540 337.163 S 1567.04 336.349 1592.9 336.349 L 1540 568 L -100 568 Z" fill="#6c5ba7" stroke-width="0" transform="translate(7.57486 0)">
  <animate attributeName="d" dur="21.27659574468085s" repeatCount="indefinite" values="M-100 341C-72.38 334.58 -72.2 332.95 -47.1 332.95S-19.36 334.61 5.81 334.61S33.05 329.56 58.71 329.56S85.98 335.24 111.61 335.24S138.38 340.12 164.52 340.12S191.79 333.22 217.42 333.22S244.95 330.29 270.32 330.29S297.16 335.76 323.23 335.76S350.32 335.29 376.13 335.29S403.54 331.02 429.03 331.02S456.67 341 481.94 341S508.71 336.01 534.84 336.01S561.35 335.43 587.74 335.43S615.37 329.91 640.65 329.91S668.06 330.29 693.55 330.29S720.22 332.04 746.45 332.04S773.67 342.05 799.35 342.05S827.19 337.94 852.26 337.94S880.13 338.34 905.16 338.34S932.95 342.4 958.06 342.4S985.36 331.44 1010.97 331.44S1037.61 330.29 1063.87 330.29S1091.36 330.69 1116.77 330.69S1143.78 331.77 1169.68 331.77S1196.56 336.59 1222.58 336.59S1249.1 332.16 1275.48 332.16S1302.13 343.22 1328.39 343.22S1354.88 341.32 1381.29 341.32S1408.68 341.05 1434.19 341.05S1461.78 341.57 1487.1 341.57S1513.6 334.05 1540 334.05S1566.5 336.72 1592.9 336.72L1540 568 L-100 568 Z;M-100 335.52C-72.4 334.02 -73.28 337.52 -47.1 337.52S-20.42 337.52 5.81 337.52S33.3 334.86 58.71 334.86S86.17 333.98 111.61 333.98S138.84 335.07 164.52 335.07S191.62 336.76 217.42 336.76S244.79 338.85 270.32 338.85S297.97 339.67 323.23 339.67S350.74 340.11 376.13 340.11S403.11 329.83 429.03 329.83S456.46 331.43 481.94 331.43S508.81 331.32 534.84 331.32S561.97 334.64 587.74 334.64S615.54 329.9 640.65 329.9S667.27 330.14 693.55 330.14S720.54 343.46 746.45 343.46S773.86 335.75 799.35 335.75S827.09 337.92 852.26 337.92S879.03 335.65 905.16 335.65S931.96 335.94 958.06 335.94S985.78 338.75 1010.97 338.75S1037.61 334.4 1063.87 334.4S1090.62 339.96 1116.77 339.96S1144.54 330.65 1169.68 330.65S1196.43 332.68 1222.58 332.68S1249.9 332.09 1275.48 332.09S1303.25 333.06 1328.39 333.06S1355.97 343.09 1381.29 343.09S1409.07 334.87 1434.19 334.87S1460.92 336.22 1487.1 336.22S1514 338.58 1540 338.58S1567.29 336.18 1592.9 336.18L1540 568 L-100 568 Z;M-100 341C-72.38 334.58 -72.2 332.95 -47.1 332.95S-19.36 334.61 5.81 334.61S33.05 329.56 58.71 329.56S85.98 335.24 111.61 335.24S138.38 340.12 164.52 340.12S191.79 333.22 217.42 333.22S244.95 330.29 270.32 330.29S297.16 335.76 323.23 335.76S350.32 335.29 376.13 335.29S403.54 331.02 429.03 331.02S456.67 341 481.94 341S508.71 336.01 534.84 336.01S561.35 335.43 587.74 335.43S615.37 329.91 640.65 329.91S668.06 330.29 693.55 330.29S720.22 332.04 746.45 332.04S773.67 342.05 799.35 342.05S827.19 337.94 852.26 337.94S880.13 338.34 905.16 338.34S932.95 342.4 958.06 342.4S985.36 331.44 1010.97 331.44S1037.61 330.29 1063.87 330.29S1091.36 330.69 1116.77 330.69S1143.78 331.77 1169.68 331.77S1196.56 336.59 1222.58 336.59S1249.1 332.16 1275.48 332.16S1302.13 343.22 1328.39 343.22S1354.88 341.32 1381.29 341.32S1408.68 341.05 1434.19 341.05S1461.78 341.57 1487.1 341.57S1513.6 334.05 1540 334.05S1566.5 336.72 1592.9 336.72L1540 568 L-100 568 Z"></animate>
  <animateTransform attributeName="transform" type="translate" dur="21.27659574468085s" begin="0s" repeatCount="indefinite" values="0;10;0" calcMode="spline" keySplines="0.3 0 0.7 1;0.3 0 0.7 1"></animateTransform>
</path><path d="M -100 346.247 C -72.5949 348.522 -72.7296 356.218 -45.7 356.218 S -18.0722 354.9 8.61 354.9 S 36.7794 355.592 62.91 355.592 S 91.1664 348.627 117.22 348.627 S 144.861 354.778 171.52 354.778 S 199.115 348.181 225.83 348.181 S 253.54 346.11 280.13 346.11 S 308.077 350.988 334.44 350.988 S 362.504 350.99 388.74 350.99 S 416.897 350.068 443.05 350.068 S 471.079 355.105 497.35 355.105 S 525.23 344.911 551.66 344.911 S 579.482 352.186 605.96 352.186 S 633.737 347.943 660.26 347.943 S 687.966 351.977 714.57 351.977 S 742.481 355.829 768.87 355.829 S 796.844 347.234 823.18 347.234 S 850.977 351.003 877.48 351.003 S 905.596 348.02 931.79 348.02 S 959.947 352.973 986.09 352.973 S 1014.22 350.586 1040.4 350.586 S 1068.27 352.865 1094.7 352.865 S 1122.81 352.795 1149.01 352.795 S 1176.9 354.166 1203.31 354.166 S 1231.3 351.999 1257.62 351.999 S 1285.93 350.197 1311.92 350.197 S 1339.7 352.547 1366.23 352.547 S 1394.13 349.401 1420.53 349.401 S 1447.98 354.094 1474.83 354.094 S 1502.49 356.403 1529.14 356.403 S 1556.88 355.834 1583.44 355.834 L 1540 568 L -100 568 Z" fill="#664db5" stroke-width="0" transform="translate(2.79274 0)">
  <animate attributeName="d" dur="19.148936170212767s" repeatCount="indefinite" values="M-100 344.71C-72.4 352.3 -72.8 353.82 -45.7 353.82S-18.24 349 8.61 349S36.46 353.67 62.91 353.67S90.82 352.08 117.22 352.08S144.46 350.41 171.52 350.41S198.72 353.22 225.83 353.22S253.6 344.34 280.13 344.34S307.85 347.54 334.44 347.54S362.65 355.84 388.74 355.84S416.54 348.52 443.05 348.52S471.36 354.06 497.35 354.06S525.17 345.42 551.66 345.42S579 357.75 605.96 357.75S633.19 349.81 660.26 349.81S688.21 351.75 714.57 351.75S742.6 354.6 768.87 354.6S796.6 348.82 823.18 348.82S850.49 352.8 877.48 352.8S905.91 347.43 931.79 347.43S959.79 353.92 986.09 353.92S1013.72 346.12 1040.4 346.12S1068.04 356.53 1094.7 356.53S1122.3 352.21 1149.01 352.21S1176.61 357.04 1203.31 357.04S1230.8 352.01 1257.62 352.01S1285.65 347.29 1311.92 347.29S1339.12 350.49 1366.23 350.49S1394.21 355.09 1420.53 355.09S1447.75 350.31 1474.83 350.31S1502.65 355.64 1529.14 355.64S1557.29 352.44 1583.44 352.44L1540 568 L-100 568 Z;M-100 347.55C-72.76 345.32 -72.67 358.25 -45.7 358.25S-17.93 359.9 8.61 359.9S37.05 357.22 62.91 357.22S91.46 345.7 117.22 345.7S145.2 358.48 171.52 358.48S199.45 343.91 225.83 343.91S253.49 347.61 280.13 347.61S308.27 353.91 334.44 353.91S362.38 346.88 388.74 346.88S417.2 351.38 443.05 351.38S470.84 355.99 497.35 355.99S525.28 344.48 551.66 344.48S579.89 347.47 605.96 347.47S634.2 346.36 660.26 346.36S687.76 352.17 714.57 352.17S742.38 356.87 768.87 356.87S797.05 345.89 823.18 345.89S851.39 349.48 877.48 349.48S905.33 348.52 931.79 348.52S960.08 352.17 986.09 352.17S1014.65 354.37 1040.4 354.37S1068.46 349.76 1094.7 349.76S1123.25 353.29 1149.01 353.29S1177.14 351.73 1203.31 351.73S1231.73 351.99 1257.62 351.99S1286.17 352.66 1311.92 352.66S1340.2 354.29 1366.23 354.29S1394.06 344.58 1420.53 344.58S1448.17 357.3 1474.83 357.3S1502.35 357.05 1529.14 357.05S1556.53 358.71 1583.44 358.71L1540 568 L-100 568 Z;M-100 344.71C-72.4 352.3 -72.8 353.82 -45.7 353.82S-18.24 349 8.61 349S36.46 353.67 62.91 353.67S90.82 352.08 117.22 352.08S144.46 350.41 171.52 350.41S198.72 353.22 225.83 353.22S253.6 344.34 280.13 344.34S307.85 347.54 334.44 347.54S362.65 355.84 388.74 355.84S416.54 348.52 443.05 348.52S471.36 354.06 497.35 354.06S525.17 345.42 551.66 345.42S579 357.75 605.96 357.75S633.19 349.81 660.26 349.81S688.21 351.75 714.57 351.75S742.6 354.6 768.87 354.6S796.6 348.82 823.18 348.82S850.49 352.8 877.48 352.8S905.91 347.43 931.79 347.43S959.79 353.92 986.09 353.92S1013.72 346.12 1040.4 346.12S1068.04 356.53 1094.7 356.53S1122.3 352.21 1149.01 352.21S1176.61 357.04 1203.31 357.04S1230.8 352.01 1257.62 352.01S1285.65 347.29 1311.92 347.29S1339.12 350.49 1366.23 350.49S1394.21 355.09 1420.53 355.09S1447.75 350.31 1474.83 350.31S1502.65 355.64 1529.14 355.64S1557.29 352.44 1583.44 352.44L1540 568 L-100 568 Z"></animate>
  <animateTransform attributeName="transform" type="translate" dur="19.148936170212767s" begin="-1.9148936170212767s" repeatCount="indefinite" values="0;10;0" calcMode="spline" keySplines="0.3 0 0.7 1;0.3 0 0.7 1"></animateTransform>
</path><path d="M -100 365.844 C -72.0792 365.469 -71.1877 371.196 -44.22 371.196 S -15.6356 364.22 11.56 364.22 S 40.1682 370.402 67.35 370.402 S 95.6682 365.809 123.13 365.809 S 151.408 369.011 178.91 369.011 S 207.751 364.086 234.69 364.086 S 263.058 371.938 290.48 371.938 S 318.447 366.76 346.26 366.76 S 374.624 367.245 402.04 367.245 S 430.346 364.696 457.82 364.696 S 486.083 369.832 513.61 369.832 S 542.324 365.257 569.39 365.257 S 597.721 365.29 625.17 365.29 S 653.548 358.797 680.95 358.797 S 710.003 374.108 736.73 374.108 S 764.925 369.876 792.52 369.876 S 820.601 369.466 848.3 369.466 S 877.382 367.421 904.08 367.421 S 933.184 362.514 959.86 362.514 S 988.991 368.889 1015.65 368.889 S 1044.48 365.27 1071.43 365.27 S 1100.4 367.188 1127.21 367.188 S 1156.08 367.226 1182.99 367.226 S 1211.42 367.674 1238.78 367.674 S 1266.75 367.537 1294.56 367.537 S 1322.91 365.076 1350.34 365.076 S 1378.83 368.688 1406.12 368.688 S 1434.8 368.036 1461.9 368.036 S 1491.01 371.741 1517.69 371.741 S 1545.66 364.576 1573.47 364.576 L 1540 568 L -100 568 Z" fill="#5b45a1" stroke-width="0" transform="translate(0.0588065 0)">
  <animate attributeName="d" dur="17.02127659574468s" repeatCount="indefinite" values="M-100 366.44C-72.09 367.12 -71.36 369.9 -44.22 369.9S-15.37 363.98 11.56 363.98S40.38 368.08 67.35 368.08S95.88 365.35 123.13 365.35S151.02 372.31 178.91 372.31S208.16 361.9 234.69 361.9S262.66 371.17 290.48 371.17S318.4 365.73 346.26 365.73S374.75 363.2 402.04 363.2S430.08 365.45 457.82 365.45S485.81 366.26 513.61 366.26S542.27 363.99 569.39 363.99S597.38 364.36 625.17 364.36S653.57 358.14 680.95 358.14S709.92 375.59 736.73 375.59S764.86 369.89 792.52 369.89S820.45 368.45 848.3 368.45S877.45 371.1 904.08 371.1S933.36 362.65 959.86 362.65S989.03 368.72 1015.65 368.72S1044.86 368.35 1071.43 368.35S1100.32 370.35 1127.21 370.35S1156.09 371.35 1182.99 371.35S1211.51 367.06 1238.78 367.06S1266.68 363.33 1294.56 363.33S1322.5 364.24 1350.34 364.24S1378.84 369.98 1406.12 369.98S1434.85 371.5 1461.9 371.5S1491.09 369.63 1517.69 369.63S1545.65 363.61 1573.47 363.61L1540 568 L-100 568 Z;M-100 364.78C-72.06 362.52 -70.88 373.51 -44.22 373.51S-16.11 364.65 11.56 364.65S39.79 374.55 67.35 374.55S95.29 366.63 123.13 366.63S152.1 363.12 178.91 363.12S207.02 367.99 234.69 367.99S263.77 373.31 290.48 373.31S318.53 368.6 346.26 368.6S374.4 374.47 402.04 374.47S430.82 363.35 457.82 363.35S486.57 376.21 513.61 376.21S542.42 367.52 569.39 367.52S598.33 366.95 625.17 366.95S653.51 359.97 680.95 359.97S710.15 371.46 736.73 371.46S765.04 369.85 792.52 369.85S820.87 371.28 848.3 371.28S877.26 360.85 904.08 360.85S932.87 362.27 959.86 362.27S988.92 369.19 1015.65 369.19S1043.81 359.77 1071.43 359.77S1100.55 361.54 1127.21 361.54S1156.07 359.86 1182.99 359.86S1211.26 368.77 1238.78 368.77S1266.88 375.05 1294.56 375.05S1323.64 366.57 1350.34 366.57S1378.81 366.38 1406.12 366.38S1434.7 361.85 1461.9 361.85S1490.87 375.51 1517.69 375.51S1545.69 366.3 1573.47 366.3L1540 568 L-100 568 Z;M-100 366.44C-72.09 367.12 -71.36 369.9 -44.22 369.9S-15.37 363.98 11.56 363.98S40.38 368.08 67.35 368.08S95.88 365.35 123.13 365.35S151.02 372.31 178.91 372.31S208.16 361.9 234.69 361.9S262.66 371.17 290.48 371.17S318.4 365.73 346.26 365.73S374.75 363.2 402.04 363.2S430.08 365.45 457.82 365.45S485.81 366.26 513.61 366.26S542.27 363.99 569.39 363.99S597.38 364.36 625.17 364.36S653.57 358.14 680.95 358.14S709.92 375.59 736.73 375.59S764.86 369.89 792.52 369.89S820.45 368.45 848.3 368.45S877.45 371.1 904.08 371.1S933.36 362.65 959.86 362.65S989.03 368.72 1015.65 368.72S1044.86 368.35 1071.43 368.35S1100.32 370.35 1127.21 370.35S1156.09 371.35 1182.99 371.35S1211.51 367.06 1238.78 367.06S1266.68 363.33 1294.56 363.33S1322.5 364.24 1350.34 364.24S1378.84 369.98 1406.12 369.98S1434.85 371.5 1461.9 371.5S1491.09 369.63 1517.69 369.63S1545.65 363.61 1573.47 363.61L1540 568 L-100 568 Z"></animate>
  <animateTransform attributeName="transform" type="translate" dur="17.02127659574468s" begin="-3.404255319148936s" repeatCount="indefinite" values="0;10;0" calcMode="spline" keySplines="0.3 0 0.7 1;0.3 0 0.7 1"></animateTransform>
</path><path d="M -100 376.067 C -70.0397 378.619 -70.8313 388.299 -42.66 388.299 S -13.2597 384.156 14.69 384.156 S 43.6511 391.466 72.03 391.466 S 100.985 383.706 129.37 383.706 S 159.011 382.957 186.71 382.957 S 215.866 379.832 244.06 379.832 S 273.937 381.808 301.4 381.808 S 330.197 383.58 358.74 383.58 S 387.67 391.95 416.08 391.95 S 445.789 377.475 473.43 377.475 S 502.588 382.071 530.77 382.071 S 560.452 383.102 588.11 383.102 S 617.726 389.763 645.45 389.763 S 675.167 384.263 702.8 384.263 S 732.754 380.389 760.14 380.389 S 789.871 380.247 817.48 380.247 S 846.901 380.575 874.83 380.575 S 904.386 385.467 932.17 385.467 S 961.433 381.353 989.51 381.353 S 1018.48 375.939 1046.85 375.939 S 1076.67 389.986 1104.2 389.986 S 1134.08 375.51 1161.54 375.51 S 1190.28 389.052 1218.88 389.052 S 1248.24 380.901 1276.22 380.901 S 1306.03 390.375 1333.57 390.375 S 1363.12 381.217 1390.91 381.217 S 1420.01 379.082 1448.25 379.082 S 1477.97 383.569 1505.59 383.569 S 1534.42 378.909 1562.94 378.909 L 1540 568 L -100 568 Z" fill="#503e8d" stroke-width="0" transform="translate(4.64995 0)">
  <animate attributeName="d" dur="14.893617021276597s" repeatCount="indefinite" values="M-100 375.49C-69.96 377.84 -70.84 388.81 -42.66 388.81S-13.17 385.33 14.69 385.33S43.6 392.39 72.03 392.39S100.9 384.23 129.37 384.23S158.95 381.73 186.71 381.73S215.81 378.97 244.06 378.97S273.91 381.6 301.4 381.6S330.17 383.31 358.74 383.31S387.59 391.98 416.08 391.98S445.82 376.91 473.43 376.91S502.61 381.68 530.77 381.68S560.53 383.63 588.11 383.63S617.71 389.53 645.45 389.53S675.14 384.83 702.8 384.83S732.8 380.53 760.14 380.53S789.84 379.14 817.48 379.14S846.88 380.18 874.83 380.18S904.35 386.01 932.17 386.01S961.34 380.63 989.51 380.63S1018.35 374.73 1046.85 374.73S1076.67 391.25 1104.2 391.25S1134.2 375.71 1161.54 375.71S1190.22 390.24 1218.88 390.24S1248.3 381.59 1276.22 381.59S1306.14 390.71 1333.57 390.71S1363.22 381.07 1390.91 381.07S1419.88 378.87 1448.25 378.87S1478.11 383.2 1505.59 383.2S1534.29 378.25 1562.94 378.25L1540 568 L-100 568 Z;M-100 380.12C-70.6 384.1 -70.77 384.71 -42.66 384.71S-13.89 375.9 14.69 375.9S44.01 384.97 72.03 384.97S101.58 380.02 129.37 380.02S159.44 391.58 186.71 391.58S216.26 385.89 244.06 385.89S274.13 383.27 301.4 383.27S330.39 385.48 358.74 385.48S388.23 391.74 416.08 391.74S445.57 381.45 473.43 381.45S502.43 384.82 530.77 384.82S559.9 379.39 588.11 379.39S617.84 391.4 645.45 391.4S675.36 380.28 702.8 380.28S732.43 379.4 760.14 379.4S790.09 388.03 817.48 388.03S847.05 383.35 874.83 383.35S904.64 381.65 932.17 381.65S962.09 386.44 989.51 386.44S1019.37 384.44 1046.85 384.44S1076.7 381.1 1104.2 381.1S1133.24 374.1 1161.54 374.1S1190.7 380.7 1218.88 380.7S1247.78 376.06 1276.22 376.06S1305.29 388.02 1333.57 388.02S1362.42 382.25 1390.91 382.25S1420.96 380.57 1448.25 380.57S1477.01 386.16 1505.59 386.16S1535.33 383.54 1562.94 383.54L1540 568 L-100 568 Z;M-100 375.49C-69.96 377.84 -70.84 388.81 -42.66 388.81S-13.17 385.33 14.69 385.33S43.6 392.39 72.03 392.39S100.9 384.23 129.37 384.23S158.95 381.73 186.71 381.73S215.81 378.97 244.06 378.97S273.91 381.6 301.4 381.6S330.17 383.31 358.74 383.31S387.59 391.98 416.08 391.98S445.82 376.91 473.43 376.91S502.61 381.68 530.77 381.68S560.53 383.63 588.11 383.63S617.71 389.53 645.45 389.53S675.14 384.83 702.8 384.83S732.8 380.53 760.14 380.53S789.84 379.14 817.48 379.14S846.88 380.18 874.83 380.18S904.35 386.01 932.17 386.01S961.34 380.63 989.51 380.63S1018.35 374.73 1046.85 374.73S1076.67 391.25 1104.2 391.25S1134.2 375.71 1161.54 375.71S1190.22 390.24 1218.88 390.24S1248.3 381.59 1276.22 381.59S1306.14 390.71 1333.57 390.71S1363.22 381.07 1390.91 381.07S1419.88 378.87 1448.25 378.87S1478.11 383.2 1505.59 383.2S1534.29 378.25 1562.94 378.25L1540 568 L-100 568 Z"></animate>
  <animateTransform attributeName="transform" type="translate" dur="14.893617021276597s" begin="-4.468085106382979s" repeatCount="indefinite" values="0;10;0" calcMode="spline" keySplines="0.3 0 0.7 1;0.3 0 0.7 1"></animateTransform>
</path><path d="M -100 392.23 C -70.3625 399.352 -69.4976 391.92 -41.01 391.92 S -10.5876 394.938 17.99 394.938 S 48.124 400.751 76.98 400.751 S 107.276 391.713 135.97 391.713 S 165.67 402.542 194.96 402.542 S 225.306 390.246 253.96 390.246 S 284.202 393.102 312.95 393.102 S 343.467 392.34 371.94 392.34 S 401.655 390.91 430.94 390.91 S 460.597 393.988 489.93 393.988 S 519.939 401.016 548.92 401.016 S 578.808 399.794 607.91 399.794 S 637.857 403.059 666.91 403.059 S 697.224 394.918 725.9 394.918 S 756.02 404.947 784.89 404.947 S 814.783 394.433 843.88 394.433 S 873.927 393.875 902.88 393.875 S 932.797 392.201 961.87 392.201 S 991.427 402.111 1020.86 402.111 S 1050.93 403.705 1079.86 403.705 S 1110.52 401.705 1138.85 401.705 S 1169.38 396.206 1197.84 396.206 S 1227.71 399.403 1256.83 399.403 S 1286.92 389.827 1315.83 389.827 S 1346.16 406.671 1374.82 406.671 S 1405.58 390.284 1433.81 390.284 S 1464 399.725 1492.81 399.725 S 1523.45 391.609 1551.8 391.609 L 1540 568 L -100 568 Z" fill="#45367a" stroke-width="0" transform="translate(9.99481 0)">
  <animate attributeName="d" dur="12.765957446808512s" repeatCount="indefinite" values="M-100 388.95C-70.37 400.36 -69.27 391.01 -41.01 391.01S-10.55 396.54 17.99 396.54S48.25 402 76.98 402S107.41 392.05 135.97 392.05S165.54 403.77 194.96 403.77S225.44 387.63 253.96 387.63S284.11 392.88 312.95 392.88S343.55 393.41 371.94 393.41S401.57 389.91 430.94 389.91S460.45 393.07 489.93 393.07S520.01 400.8 548.92 400.8S578.71 399.89 607.91 399.89S637.88 404.28 666.91 404.28S697.16 395.73 725.9 395.73S755.89 406.6 784.89 406.6S814.83 393.15 843.88 393.15S873.92 392.48 902.88 392.48S932.75 393.26 961.87 393.26S991.44 401 1020.86 401S1050.79 405.24 1079.86 405.24S1110.59 402.41 1138.85 402.41S1169.43 398.09 1197.84 398.09S1227.51 399.1 1256.83 399.1S1286.76 387.6 1315.83 387.6S1346.29 406.88 1374.82 406.88S1405.68 389.06 1433.81 389.06S1464.06 401.31 1492.81 401.31S1523.62 388.86 1551.8 388.86L1540 568 L-100 568 Z;M-100 406.39C-70.33 395 -70.48 395.85 -41.01 395.85S-10.75 388.02 17.99 388.02S47.58 395.36 76.98 395.36S106.7 390.26 135.97 390.26S166.23 397.24 194.96 397.24S224.73 401.54 253.96 401.54S284.6 394.06 312.95 394.06S343.11 387.72 371.94 387.72S402.02 395.23 430.94 395.23S461.23 397.95 489.93 397.95S519.63 401.95 548.92 401.95S579.23 399.38 607.91 399.38S637.76 397.79 666.91 397.79S697.5 391.41 725.9 391.41S756.58 397.81 784.89 397.81S814.58 399.97 843.88 399.97S873.96 399.9 902.88 399.9S933 387.63 961.87 387.63S991.37 406.91 1020.86 406.91S1051.52 397.08 1079.86 397.08S1110.21 398.66 1138.85 398.66S1169.18 388.07 1197.84 388.07S1228.57 400.71 1256.83 400.71S1287.6 399.44 1315.83 399.44S1345.6 405.77 1374.82 405.77S1405.15 395.57 1433.81 395.57S1463.74 392.88 1492.81 392.88S1522.74 403.48 1551.8 403.48L1540 568 L-100 568 Z;M-100 388.95C-70.37 400.36 -69.27 391.01 -41.01 391.01S-10.55 396.54 17.99 396.54S48.25 402 76.98 402S107.41 392.05 135.97 392.05S165.54 403.77 194.96 403.77S225.44 387.63 253.96 387.63S284.11 392.88 312.95 392.88S343.55 393.41 371.94 393.41S401.57 389.91 430.94 389.91S460.45 393.07 489.93 393.07S520.01 400.8 548.92 400.8S578.71 399.89 607.91 399.89S637.88 404.28 666.91 404.28S697.16 395.73 725.9 395.73S755.89 406.6 784.89 406.6S814.83 393.15 843.88 393.15S873.92 392.48 902.88 392.48S932.75 393.26 961.87 393.26S991.44 401 1020.86 401S1050.79 405.24 1079.86 405.24S1110.59 402.41 1138.85 402.41S1169.43 398.09 1197.84 398.09S1227.51 399.1 1256.83 399.1S1286.76 387.6 1315.83 387.6S1346.29 406.88 1374.82 406.88S1405.68 389.06 1433.81 389.06S1464.06 401.31 1492.81 401.31S1523.62 388.86 1551.8 388.86L1540 568 L-100 568 Z"></animate>
  <animateTransform attributeName="transform" type="translate" dur="12.765957446808512s" begin="-5.1063829787234045s" repeatCount="indefinite" values="0;10;0" calcMode="spline" keySplines="0.3 0 0.7 1;0.3 0 0.7 1"></animateTransform>
</path><path d="M -100 416.189 C -69.3637 410.913 -69.313 419.025 -39.26 419.025 S -8.10636 416.057 21.48 416.057 S 52.816 419.522 82.22 419.522 S 113.291 409.455 142.96 409.455 S 174.131 412.153 203.7 412.153 S 234.913 412.237 264.44 412.237 S 295.508 421.785 325.19 421.785 S 356.388 407.492 385.93 407.492 S 417.134 422.218 446.67 422.218 S 477.889 405.381 507.41 405.381 S 538.614 412.912 568.15 412.912 S 599.56 407.205 628.89 407.205 S 659.411 418.908 689.63 418.908 S 720.732 404.475 750.37 404.475 S 781.269 416.719 811.11 416.719 S 842.849 405.84 871.85 405.84 S 902.697 415.714 932.59 415.714 S 963.281 404.846 993.33 404.846 S 1024.26 412.646 1054.07 412.646 S 1085.25 413.242 1114.81 413.242 S 1146.17 413.678 1175.56 413.678 S 1206.56 404.592 1236.3 404.592 S 1267.2 420.661 1297.04 420.661 S 1328.29 406.818 1357.78 406.818 S 1388.58 419.829 1418.52 419.829 S 1449.96 412.459 1479.26 412.459 S 1510.08 414.498 1540 414.498 S 1571.14 403.435 1600.74 403.435 L 1540 568 L -100 568 Z" fill="#3b2f67" stroke-width="0" transform="translate(3.2343 0)">
  <animate attributeName="d" dur="10.638297872340425s" repeatCount="indefinite" values="M-100 410.17C-69.37 409.33 -68.85 423.63 -39.26 423.63S-8 420.33 21.48 420.33S53.06 411.97 82.22 411.97S113.61 402.36 142.96 402.36S173.63 413.26 203.7 413.26S234.2 408.99 264.44 408.99S296.14 421.61 325.19 421.61S355.7 400.81 385.93 400.81S416.99 418.02 446.67 418.02S477.77 412.97 507.41 412.97S538.57 412.95 568.15 412.95S599.36 407.03 628.89 407.03S659.43 418.17 689.63 418.17S720.87 410.35 750.37 410.35S781.3 417.47 811.11 417.47S842.78 412.61 871.85 412.61S902.44 411.91 932.59 411.91S963.5 404.07 993.33 404.07S1024.44 424.04 1054.07 424.04S1084.86 417.29 1114.81 417.29S1145.78 415.73 1175.56 415.73S1206.23 411.13 1236.3 411.13S1267.73 418.44 1297.04 418.44S1328.18 410.56 1357.78 410.56S1388.86 420.33 1418.52 420.33S1449.54 413.51 1479.26 413.51S1510.44 415.03 1540 415.03S1571.18 400.72 1600.74 400.72L1540 568 L-100 568 Z;M-100 419.79C-69.36 411.86 -69.59 416.27 -39.26 416.27S-8.17 413.5 21.48 413.5S52.67 424.04 82.22 424.04S113.1 413.7 142.96 413.7S174.43 411.49 203.7 411.49S235.34 414.18 264.44 414.18S295.13 421.89 325.19 421.89S356.8 411.49 385.93 411.49S417.22 424.73 446.67 424.73S477.96 400.84 507.41 400.84S538.64 412.89 568.15 412.89S599.68 407.31 628.89 407.31S659.4 419.35 689.63 419.35S720.65 400.96 750.37 400.96S781.25 416.27 811.11 416.27S842.89 401.79 871.85 401.79S902.85 417.99 932.59 417.99S963.15 405.31 993.33 405.31S1024.15 405.83 1054.07 405.83S1085.49 410.82 1114.81 410.82S1146.4 412.45 1175.56 412.45S1206.75 400.68 1236.3 400.68S1266.88 421.99 1297.04 421.99S1328.36 404.58 1357.78 404.58S1388.42 419.53 1418.52 419.53S1450.21 411.83 1479.26 411.83S1509.87 414.18 1540 414.18S1571.12 405.06 1600.74 405.06L1540 568 L-100 568 Z;M-100 410.17C-69.37 409.33 -68.85 423.63 -39.26 423.63S-8 420.33 21.48 420.33S53.06 411.97 82.22 411.97S113.61 402.36 142.96 402.36S173.63 413.26 203.7 413.26S234.2 408.99 264.44 408.99S296.14 421.61 325.19 421.61S355.7 400.81 385.93 400.81S416.99 418.02 446.67 418.02S477.77 412.97 507.41 412.97S538.57 412.95 568.15 412.95S599.36 407.03 628.89 407.03S659.43 418.17 689.63 418.17S720.87 410.35 750.37 410.35S781.3 417.47 811.11 417.47S842.78 412.61 871.85 412.61S902.44 411.91 932.59 411.91S963.5 404.07 993.33 404.07S1024.44 424.04 1054.07 424.04S1084.86 417.29 1114.81 417.29S1145.78 415.73 1175.56 415.73S1206.23 411.13 1236.3 411.13S1267.73 418.44 1297.04 418.44S1328.18 410.56 1357.78 410.56S1388.86 420.33 1418.52 420.33S1449.54 413.51 1479.26 413.51S1510.44 415.03 1540 415.03S1571.18 400.72 1600.74 400.72L1540 568 L-100 568 Z"></animate>
  <animateTransform attributeName="transform" type="translate" dur="10.638297872340425s" begin="-5.319148936170213s" repeatCount="indefinite" values="0;10;0" calcMode="spline" keySplines="0.3 0 0.7 1;0.3 0 0.7 1"></animateTransform>
</path><path d="M -100 418.317 C -68.3049 419.173 -67.8495 427.714 -37.4 427.714 S -5.20895 417.23 25.19 417.23 S 57.6141 433.367 87.79 433.367 S 119.413 422.976 150.38 422.976 S 182.749 433.405 212.98 433.405 S 245.352 424.685 275.57 424.685 S 307.401 437.143 338.17 437.143 S 370.393 427.013 400.76 427.013 S 432.582 432.747 463.36 432.747 S 495.366 434.386 525.95 434.386 S 557.86 439.065 588.55 439.065 S 620.309 415.799 651.15 415.799 S 683.396 434.165 713.74 434.165 S 745.384 427.318 776.34 427.318 S 808.981 437.148 838.93 437.148 S 870.781 421.455 901.53 421.455 S 933.156 435.119 964.12 435.119 S 995.773 423.223 1026.72 423.223 S 1058.62 430.378 1089.31 430.378 S 1121.21 419.095 1151.91 419.095 S 1183.97 429.29 1214.5 429.29 S 1246.01 424.655 1277.1 424.655 S 1308.8 436.175 1339.69 436.175 S 1371.67 421.343 1402.29 421.343 S 1434.66 440.627 1464.89 440.627 S 1496.42 415.738 1527.48 415.738 S 1559.15 437.105 1590.08 437.105 L 1540 568 L -100 568 Z" fill="#312855" stroke-width="0" transform="translate(4.74425 0)">
  <animate attributeName="d" dur="8.51063829787234s" repeatCount="indefinite" values="M-100 425.51C-68.47 421.88 -67.95 417.52 -37.4 417.52S-4.85 416.85 25.19 416.85S57.37 424.68 87.79 424.68S120.16 418.92 150.38 418.92S182.39 432.45 212.98 432.45S244.9 425.18 275.57 425.18S307.43 428.42 338.17 428.42S370.35 436.36 400.76 436.36S432.51 435.64 463.36 435.64S495.79 421.55 525.95 421.55S558.19 433.86 588.55 433.86S620.46 418.06 651.15 418.06S682.85 433.82 713.74 433.82S745.47 421.51 776.34 421.51S808.83 429.71 838.93 429.71S870.3 416.53 901.53 416.53S933.12 433.59 964.12 433.59S995.55 423.18 1026.72 423.18S1058.75 437.27 1089.31 437.27S1121.73 424.96 1151.91 424.96S1183.73 428.45 1214.5 428.45S1246.15 416.88 1277.1 416.88S1308.67 434.33 1339.69 434.33S1372.04 422.75 1402.29 422.75S1434.64 437.92 1464.89 437.92S1496.84 415.2 1527.48 415.2S1559.55 428.67 1590.08 428.67L1540 568 L-100 568 Z;M-100 415.49C-68.24 418.11 -67.81 431.72 -37.4 431.72S-5.35 417.38 25.19 417.38S57.71 436.78 87.79 436.78S119.12 424.57 150.38 424.57S182.89 433.78 212.98 433.78S245.53 424.49 275.57 424.49S307.39 440.57 338.17 440.57S370.41 423.34 400.76 423.34S432.61 431.61 463.36 431.61S495.2 439.43 525.95 439.43S557.73 441.11 588.55 441.11S620.25 414.91 651.15 414.91S683.61 434.3 713.74 434.3S745.35 429.6 776.34 429.6S809.04 440.07 838.93 440.07S870.97 423.39 901.53 423.39S933.17 435.72 964.12 435.72S995.86 423.24 1026.72 423.24S1058.57 427.67 1089.31 427.67S1121 416.79 1151.91 416.79S1184.07 429.62 1214.5 429.62S1245.96 427.71 1277.1 427.71S1308.85 436.9 1339.69 436.9S1371.52 420.79 1402.29 420.79S1434.67 441.69 1464.89 441.69S1496.26 415.95 1527.48 415.95S1558.99 440.42 1590.08 440.42L1540 568 L-100 568 Z;M-100 425.51C-68.47 421.88 -67.95 417.52 -37.4 417.52S-4.85 416.85 25.19 416.85S57.37 424.68 87.79 424.68S120.16 418.92 150.38 418.92S182.39 432.45 212.98 432.45S244.9 425.18 275.57 425.18S307.43 428.42 338.17 428.42S370.35 436.36 400.76 436.36S432.51 435.64 463.36 435.64S495.79 421.55 525.95 421.55S558.19 433.86 588.55 433.86S620.46 418.06 651.15 418.06S682.85 433.82 713.74 433.82S745.47 421.51 776.34 421.51S808.83 429.71 838.93 429.71S870.3 416.53 901.53 416.53S933.12 433.59 964.12 433.59S995.55 423.18 1026.72 423.18S1058.75 437.27 1089.31 437.27S1121.73 424.96 1151.91 424.96S1183.73 428.45 1214.5 428.45S1246.15 416.88 1277.1 416.88S1308.67 434.33 1339.69 434.33S1372.04 422.75 1402.29 422.75S1434.64 437.92 1464.89 437.92S1496.84 415.2 1527.48 415.2S1559.55 428.67 1590.08 428.67L1540 568 L-100 568 Z"></animate>
  <animateTransform attributeName="transform" type="translate" dur="8.51063829787234s" begin="-5.1063829787234045s" repeatCount="indefinite" values="0;10;0" calcMode="spline" keySplines="0.3 0 0.7 1;0.3 0 0.7 1"></animateTransform>
</path><path d="M -100 438.762 C -66.7985 437.811 -66.7181 448.502 -35.43 448.502 S -2.78057 442.659 29.13 442.659 S 61.8146 451.873 93.7 451.873 S 126.888 431.788 158.27 431.788 S 191.253 446.084 222.83 446.084 S 255.676 439.311 287.4 439.311 S 320.488 445.991 351.97 445.991 S 384.96 438.891 416.54 438.891 S 450.048 449.031 481.1 449.031 S 514.014 436.863 545.67 436.863 S 578.597 432.911 610.24 432.911 S 643.437 441.735 674.8 441.735 S 707.655 441.55 739.37 441.55 S 771.929 442.487 803.94 442.487 S 837.575 440.295 868.5 440.295 S 901.402 434.515 933.07 434.515 S 965.701 454.445 997.64 454.445 S 1031.02 433.221 1062.2 433.221 S 1094.92 449.951 1126.77 449.951 S 1159.87 444.419 1191.34 444.419 S 1223.79 442.126 1255.91 442.126 S 1289.25 438.623 1320.47 438.623 S 1353.14 451.015 1385.04 451.015 S 1418.31 445.258 1449.61 445.258 S 1482.44 442.65 1514.17 442.65 S 1547.84 434.88 1578.74 434.88 L 1540 568 L -100 568 Z" fill="#282143" stroke-width="0" transform="translate(1.38016 0)">
  <animate attributeName="d" dur="6.382978723404256s" repeatCount="indefinite" values="M-100 442.79C-66.46 438.77 -66.53 451.09 -35.43 451.09S-3.01 445.98 29.13 445.98S61.54 451.58 93.7 451.58S127.17 429.49 158.27 429.49S191.34 444.85 222.83 444.85S255.74 438.45 287.4 438.45S320.62 452.49 351.97 452.49S385.08 441.52 416.54 441.52S449.98 445.39 481.1 445.39S513.98 434.96 545.67 434.96S578.27 434.72 610.24 434.72S643.55 441.28 674.8 441.28S707.79 446.27 739.37 446.27S771.82 442.95 803.94 442.95S837.62 446.08 868.5 446.08S901.21 435.91 933.07 435.91S965.72 452.61 997.64 452.61S1030.96 432.8 1062.2 432.8S1095.08 451.82 1126.77 451.82S1159.61 446.51 1191.34 446.51S1223.66 440.14 1255.91 440.14S1289.23 440.88 1320.47 440.88S1352.87 451.7 1385.04 451.7S1418.46 447.91 1449.61 447.91S1482.54 435.27 1514.17 435.27S1547.87 436.49 1578.74 436.49L1540 568 L-100 568 Z;M-100 432.08C-67.36 436.22 -67.03 444.21 -35.43 444.21S-2.4 437.15 29.13 437.15S62.27 452.36 93.7 452.36S126.42 435.6 158.27 435.6S191.11 448.13 222.83 448.13S255.57 440.74 287.4 440.74S320.27 435.21 351.97 435.21S384.76 434.53 416.54 434.53S450.16 455.07 481.1 455.07S514.07 440.02 545.67 440.02S579.14 429.91 610.24 429.91S643.25 442.49 674.8 442.49S707.43 433.72 739.37 433.72S772.11 441.72 803.94 441.72S837.5 430.7 868.5 430.7S901.72 432.2 933.07 432.2S965.67 457.49 997.64 457.49S1031.11 433.92 1062.2 433.92S1094.66 446.85 1126.77 446.85S1160.29 440.95 1191.34 440.95S1224 445.42 1255.91 445.42S1289.28 434.88 1320.47 434.88S1353.58 449.88 1385.04 449.88S1418.05 440.86 1449.61 440.86S1482.27 454.89 1514.17 454.89S1547.8 432.21 1578.74 432.21L1540 568 L-100 568 Z;M-100 442.79C-66.46 438.77 -66.53 451.09 -35.43 451.09S-3.01 445.98 29.13 445.98S61.54 451.58 93.7 451.58S127.17 429.49 158.27 429.49S191.34 444.85 222.83 444.85S255.74 438.45 287.4 438.45S320.62 452.49 351.97 452.49S385.08 441.52 416.54 441.52S449.98 445.39 481.1 445.39S513.98 434.96 545.67 434.96S578.27 434.72 610.24 434.72S643.55 441.28 674.8 441.28S707.79 446.27 739.37 446.27S771.82 442.95 803.94 442.95S837.62 446.08 868.5 446.08S901.21 435.91 933.07 435.91S965.72 452.61 997.64 452.61S1030.96 432.8 1062.2 432.8S1095.08 451.82 1126.77 451.82S1159.61 446.51 1191.34 446.51S1223.66 440.14 1255.91 440.14S1289.23 440.88 1320.47 440.88S1352.87 451.7 1385.04 451.7S1418.46 447.91 1449.61 447.91S1482.54 435.27 1514.17 435.27S1547.87 436.49 1578.74 436.49L1540 568 L-100 568 Z"></animate>
  <animateTransform attributeName="transform" type="translate" dur="6.382978723404256s" begin="-4.468085106382979s" repeatCount="indefinite" values="0;10;0" calcMode="spline" keySplines="0.3 0 0.7 1;0.3 0 0.7 1"></animateTransform>
</path><path d="M -100 448.019 C -65.8926 452.263 -66.241 459.733 -33.33 459.733 S 1.11307 448.693 33.33 448.693 S 67.5575 447.794 100 447.794 S 134.394 448.439 166.67 448.439 S 201.239 469.853 233.33 469.853 S 267.744 445.961 300 445.961 S 334.289 473.824 366.67 473.824 S 400.153 450.04 433.33 450.04 S 467.283 467.315 500 467.315 S 534.338 455.849 566.67 455.849 S 600.632 466.433 633.33 466.433 S 667.298 453.08 700 453.08 S 733.732 466.946 766.67 466.946 S 800.542 453.833 833.33 453.833 S 867.006 465.325 900 465.325 S 933.735 457.426 966.67 457.426 S 1000.79 458.207 1033.33 458.207 S 1067.22 449.259 1100 449.259 S 1134.19 468.604 1166.67 468.604 S 1200.84 448.228 1233.33 448.228 S 1267.45 470.003 1300 470.003 S 1334.15 450.95 1366.67 450.95 S 1400.81 462.321 1433.33 462.321 S 1467.15 445.404 1500 445.404 S 1533.97 471.105 1566.67 471.105 L 1540 568 L -100 568 Z" fill="#1f1a32" stroke-width="0" transform="translate(0.799024 0)">
  <animate attributeName="d" dur="4.25531914893617s" repeatCount="indefinite" values="M-100 450.62C-65.43 455.58 -66.54 447.62 -33.33 447.62S1.13 453.63 33.33 453.63S67.14 452.99 100 452.99S134.67 445.55 166.67 445.55S201.07 471.85 233.33 471.85S267.84 443.67 300 443.67S334.43 473.44 366.67 473.44S400.17 453.95 433.33 453.95S467.87 464.06 500 464.06S534.09 465 566.67 465S600.44 466.1 633.33 466.1S668.02 456.55 700 456.55S733.98 463.07 766.67 463.07S800.22 452.84 833.33 452.84S866.82 467.52 900 467.52S933.82 460.32 966.67 460.32S1000.21 460.34 1033.33 460.34S1067.05 454.28 1100 454.28S1134.26 465.84 1166.67 465.84S1201.13 452.82 1233.33 452.82S1267.78 470.46 1300 470.46S1333.46 448.09 1366.67 448.09S1400.65 463.72 1433.33 463.72S1467.1 447.35 1500 447.35S1533.99 467.5 1566.67 467.5L1540 568 L-100 568 Z;M-100 446.01C-66.25 449.7 -66.01 469.09 -33.33 469.09S1.1 444.88 33.33 444.88S67.88 443.78 100 443.78S134.18 450.67 166.67 450.67S201.37 468.31 233.33 468.31S267.67 447.73 300 447.73S334.18 474.12 366.67 474.12S400.14 447.02 433.33 447.02S466.83 469.83 500 469.83S534.53 448.78 566.67 448.78S600.78 466.69 633.33 466.69S666.74 450.4 700 450.4S733.54 469.94 766.67 469.94S800.79 454.6 833.33 454.6S867.15 463.63 900 463.63S933.67 455.19 966.67 455.19S1001.23 456.56 1033.33 456.56S1067.36 445.38 1100 445.38S1134.14 470.74 1166.67 470.74S1200.62 444.68 1233.33 444.68S1267.19 469.65 1300 469.65S1334.69 453.16 1366.67 453.16S1400.93 461.24 1433.33 461.24S1467.18 443.9 1500 443.9S1533.96 473.89 1566.67 473.89L1540 568 L-100 568 Z;M-100 450.62C-65.43 455.58 -66.54 447.62 -33.33 447.62S1.13 453.63 33.33 453.63S67.14 452.99 100 452.99S134.67 445.55 166.67 445.55S201.07 471.85 233.33 471.85S267.84 443.67 300 443.67S334.43 473.44 366.67 473.44S400.17 453.95 433.33 453.95S467.87 464.06 500 464.06S534.09 465 566.67 465S600.44 466.1 633.33 466.1S668.02 456.55 700 456.55S733.98 463.07 766.67 463.07S800.22 452.84 833.33 452.84S866.82 467.52 900 467.52S933.82 460.32 966.67 460.32S1000.21 460.34 1033.33 460.34S1067.05 454.28 1100 454.28S1134.26 465.84 1166.67 465.84S1201.13 452.82 1233.33 452.82S1267.78 470.46 1300 470.46S1333.46 448.09 1366.67 448.09S1400.65 463.72 1433.33 463.72S1467.1 447.35 1500 447.35S1533.99 467.5 1566.67 467.5L1540 568 L-100 568 Z"></animate>
  <animateTransform attributeName="transform" type="translate" dur="4.25531914893617s" begin="-3.404255319148936s" repeatCount="indefinite" values="0;10;0" calcMode="spline" keySplines="0.3 0 0.7 1;0.3 0 0.7 1"></animateTransform>
</path><path d="M -100 466.174 C -64.8378 458.815 -64.5555 480.386 -31.09 480.386 S 4.53264 470.384 37.82 470.384 S 72.8392 482.329 106.72 482.329 S 141.471 468.147 175.63 468.147 S 210.489 489.998 244.54 489.998 S 279.936 466.042 313.45 466.042 S 348.336 479.56 382.35 479.56 S 418.156 466.33 451.26 466.33 S 485.893 484.624 520.17 484.624 S 555.263 465.151 589.08 465.151 S 623.789 488.576 657.98 488.576 S 693.146 463.403 726.89 463.403 S 762.313 465.793 795.8 465.793 S 831.26 477.583 864.71 477.583 S 900.204 485.348 933.61 485.348 S 968.788 474.389 1002.52 474.389 S 1037.96 489.701 1071.43 489.701 S 1106.84 463.869 1140.34 463.869 S 1175.04 484.541 1209.24 484.541 S 1244.07 470.374 1278.15 470.374 S 1313.11 488.253 1347.06 488.253 S 1382.56 467.387 1415.97 467.387 S 1451.41 486.865 1484.87 486.865 S 1520.1 462.068 1553.78 462.068 L 1540 568 L -100 568 Z" fill="#161322" stroke-width="0" transform="translate(9.82834 0)">
  <animate attributeName="d" dur="2.127659574468085s" repeatCount="indefinite" values="M-100 467.02C-65.23 462.04 -65.34 489.93 -31.09 489.93S3.6 464.1 37.82 464.1S72.63 483.07 106.72 483.07S142.09 465 175.63 465S210.28 484.28 244.54 484.28S279.5 461.3 313.45 461.3S349.26 488.52 382.35 488.52S417.79 459 451.26 459S487 482.68 520.17 482.68S555.69 461.56 589.08 461.56S624.8 487.33 657.98 487.33S692.78 468.58 726.89 468.58S762.47 478.51 795.8 478.51S830.85 464.84 864.71 464.84S899.82 476.78 933.61 476.78S969.32 457.95 1002.52 457.95S1037.38 485.97 1071.43 485.97S1106.58 457.82 1140.34 457.82S1174.79 479.73 1209.24 479.73S1244.15 464.22 1278.15 464.22S1313.32 477.95 1347.06 477.95S1382.61 460.71 1415.97 460.71S1451.7 465.65 1484.87 465.65S1519.39 458.25 1553.78 458.25L1540 568 L-100 568 Z;M-100 466.05C-64.78 458.34 -64.44 478.98 -31.09 478.98S4.67 471.31 37.82 471.31S72.87 482.22 106.72 482.22S141.38 468.61 175.63 468.61S210.52 490.84 244.54 490.84S280 466.74 313.45 466.74S348.2 478.24 382.35 478.24S418.21 467.41 451.26 467.41S485.73 484.91 520.17 484.91S555.2 465.68 589.08 465.68S623.64 488.76 657.98 488.76S693.2 462.64 726.89 462.64S762.29 463.92 795.8 463.92S831.32 479.46 864.71 479.46S900.26 486.61 933.61 486.61S968.71 476.81 1002.52 476.81S1038.04 490.25 1071.43 490.25S1106.88 464.76 1140.34 464.76S1175.08 485.25 1209.24 485.25S1244.06 471.28 1278.15 471.28S1313.08 489.77 1347.06 489.77S1382.55 468.37 1415.97 468.37S1451.37 489.99 1484.87 489.99S1520.21 462.63 1553.78 462.63L1540 568 L-100 568 Z;M-100 467.02C-65.23 462.04 -65.34 489.93 -31.09 489.93S3.6 464.1 37.82 464.1S72.63 483.07 106.72 483.07S142.09 465 175.63 465S210.28 484.28 244.54 484.28S279.5 461.3 313.45 461.3S349.26 488.52 382.35 488.52S417.79 459 451.26 459S487 482.68 520.17 482.68S555.69 461.56 589.08 461.56S624.8 487.33 657.98 487.33S692.78 468.58 726.89 468.58S762.47 478.51 795.8 478.51S830.85 464.84 864.71 464.84S899.82 476.78 933.61 476.78S969.32 457.95 1002.52 457.95S1037.38 485.97 1071.43 485.97S1106.58 457.82 1140.34 457.82S1174.79 479.73 1209.24 479.73S1244.15 464.22 1278.15 464.22S1313.32 477.95 1347.06 477.95S1382.61 460.71 1415.97 460.71S1451.7 465.65 1484.87 465.65S1519.39 458.25 1553.78 458.25L1540 568 L-100 568 Z"></animate>
  <animateTransform attributeName="transform" type="translate" dur="2.127659574468085s" begin="-1.9148936170212765s" repeatCount="indefinite" values="0;10;0" calcMode="spline" keySplines="0.3 0 0.7 1;0.3 0 0.7 1"></animateTransform>
</path></g>
</svg>