<?xml version="1.0" encoding="utf-8"?>
<svg xmlns="http://www.w3.org/2000/svg" xmlns:xlink="http://www.w3.org/1999/xlink" style="margin: auto; background: rgb(114, 84, 201); display: block; z-index: 1; position: relative; shape-rendering: auto;" width="1440" height="639" preserveAspectRatio="xMidYMid" viewBox="0 0 1440 639">
<g transform=""><path d="M -100 379.111 C -72.8779 374.703 -72.2577 380.815 -47.1 380.815 S -20.3956 375.992 5.81 375.992 S 32.9879 383.959 58.71 383.959 S 86.0409 382.046 111.61 382.046 S 139.451 370.797 164.52 370.797 S 191.926 372.448 217.42 372.448 S 244.33 381.97 270.32 381.97 S 297.818 375.587 323.23 375.587 S 349.722 378.111 376.13 378.111 S 402.985 371.99 429.03 371.99 S 456.885 378.532 481.94 378.532 S 509.701 383.081 534.84 383.081 S 561.371 385.831 587.74 385.831 S 615.236 378.329 640.65 378.329 S 667.451 381.814 693.55 381.814 S 720.124 374.684 746.45 374.684 S 774.049 378.49 799.35 378.49 S 826.222 378.804 852.26 378.804 S 879.768 382.421 905.16 382.421 S 932.561 382.306 958.06 382.306 S 985.514 371.871 1010.97 371.871 S 1037.57 373.863 1063.87 373.863 S 1091.82 373.35 1116.77 373.35 S 1143.96 381.041 1169.68 381.041 S 1196.39 379.557 1222.58 379.557 S 1249.46 377.432 1275.48 377.432 S 1302.39 381.81 1328.39 381.81 S 1355.65 375.735 1381.29 375.735 S 1408.24 371.669 1434.19 371.669 S 1460.79 384.727 1487.1 384.727 S 1513.83 382.623 1540 382.623 S 1567.69 376.803 1592.9 376.803 L 1540 639 L -100 639 Z" fill="#6c5ba7" stroke-width="0" transform="translate(0.195289 0)">
  <animate attributeName="d" dur="100s" repeatCount="indefinite" values="M-100 379.36C-72.95 374.29 -72.27 381.49 -47.1 381.49S-20.47 376.17 5.81 376.17S33.04 384.93 58.71 384.93S86.09 381.89 111.61 381.89S139.49 370.68 164.52 370.68S191.99 371.55 217.42 371.55S244.3 382.55 270.32 382.55S297.82 375.64 323.23 375.64S349.72 378.32 376.13 378.32S402.89 371.49 429.03 371.49S457 377.91 481.94 377.91S509.68 383.75 534.84 383.75S561.31 386.06 587.74 386.06S615.29 378.81 640.65 378.81S667.36 381.86 693.55 381.86S720.07 373.86 746.45 373.86S774.11 378.46 799.35 378.46S826.14 378.47 852.26 378.47S879.73 382.58 905.16 382.58S932.53 382.02 958.06 382.02S985.49 371.34 1010.97 371.34S1037.56 373.71 1063.87 373.71S1091.82 372.78 1116.77 372.78S1143.92 381.11 1169.68 381.11S1196.31 379.71 1222.58 379.71S1249.45 377.26 1275.48 377.26S1302.35 381.84 1328.39 381.84S1355.72 375.49 1381.29 375.49S1408.22 370.83 1434.19 370.83S1460.78 385.75 1487.1 385.75S1513.75 382.7 1540 382.7S1567.7 376.22 1592.9 376.22L1540 639 L-100 639 Z;M-100 376.11C-72.01 379.68 -72.11 372.69 -47.1 372.69S-19.5 373.85 5.81 373.85S32.36 372.27 58.71 372.27S85.45 383.92 111.61 383.92S138.98 372.2 164.52 372.2S191.16 383.27 217.42 383.27S244.69 374.98 270.32 374.98S297.8 374.95 323.23 374.95S349.74 375.59 376.13 375.59S404.13 378.01 429.03 378.01S455.5 386.02 481.94 386.02S509.95 375.02 534.84 375.02S562.11 383.07 587.74 383.07S614.58 372.54 640.65 372.54S668.55 381.26 693.55 381.26S720.77 384.61 746.45 384.61S773.32 378.85 799.35 378.85S827.21 382.83 852.26 382.83S880.23 380.51 905.16 380.51S932.94 385.75 958.06 385.75S985.8 378.27 1010.97 378.27S1037.72 375.71 1063.87 375.71S1091.79 380.21 1116.77 380.21S1144.41 380.21 1169.68 380.21S1197.4 377.71 1222.58 377.71S1249.53 379.5 1275.48 379.5S1302.87 381.45 1328.39 381.45S1354.87 378.69 1381.29 378.69S1408.49 381.78 1434.19 381.78S1460.97 372.41 1487.1 372.41S1514.82 381.7 1540 381.7S1567.59 383.82 1592.9 383.82L1540 639 L-100 639 Z;M-100 379.36C-72.95 374.29 -72.27 381.49 -47.1 381.49S-20.47 376.17 5.81 376.17S33.04 384.93 58.71 384.93S86.09 381.89 111.61 381.89S139.49 370.68 164.52 370.68S191.99 371.55 217.42 371.55S244.3 382.55 270.32 382.55S297.82 375.64 323.23 375.64S349.72 378.32 376.13 378.32S402.89 371.49 429.03 371.49S457 377.91 481.94 377.91S509.68 383.75 534.84 383.75S561.31 386.06 587.74 386.06S615.29 378.81 640.65 378.81S667.36 381.86 693.55 381.86S720.07 373.86 746.45 373.86S774.11 378.46 799.35 378.46S826.14 378.47 852.26 378.47S879.73 382.58 905.16 382.58S932.53 382.02 958.06 382.02S985.49 371.34 1010.97 371.34S1037.56 373.71 1063.87 373.71S1091.82 372.78 1116.77 372.78S1143.92 381.11 1169.68 381.11S1196.31 379.71 1222.58 379.71S1249.45 377.26 1275.48 377.26S1302.35 381.84 1328.39 381.84S1355.72 375.49 1381.29 375.49S1408.22 370.83 1434.19 370.83S1460.78 385.75 1487.1 385.75S1513.75 382.7 1540 382.7S1567.7 376.22 1592.9 376.22L1540 639 L-100 639 Z"></animate>
  <animateTransform attributeName="transform" type="translate" dur="100s" begin="0s" repeatCount="indefinite" values="0;10;0" calcMode="spline" keySplines="0.3 0 0.7 1;0.3 0 0.7 1"></animateTransform>
</path><path d="M -100 393.521 C -72.2704 388.409 -71.6218 402.112 -45.7 402.112 S -17.7933 393.586 8.61 393.586 S 36.6295 392.315 62.91 392.315 S 90.9987 392.037 117.22 392.037 S 145.271 392.002 171.52 392.002 S 199.293 399.599 225.83 399.599 S 254.199 395.78 280.13 395.78 S 307.915 391.24 334.44 391.24 S 361.752 403.105 388.74 403.105 S 417.106 388.07 443.05 388.07 S 470.839 394.417 497.35 394.417 S 526.011 394.663 551.66 394.663 S 580.259 388.455 605.96 388.455 S 634.469 392.892 660.26 392.892 S 687.616 403.455 714.57 403.455 S 741.998 402.313 768.87 402.313 S 797.294 397.453 823.18 397.453 S 851.321 396.671 877.48 396.671 S 904.886 397.583 931.79 397.583 S 959.429 398.476 986.09 398.476 S 1014.12 390.159 1040.4 390.159 S 1068.88 393.824 1094.7 393.824 S 1122.47 395.795 1149.01 395.795 S 1177.34 400.115 1203.31 400.115 S 1231.9 400.55 1257.62 400.55 S 1285.93 387.81 1311.92 387.81 S 1340.55 403.923 1366.23 403.923 S 1393.4 387.009 1420.53 387.009 S 1448.2 392.233 1474.83 392.233 S 1503.15 395.435 1529.14 395.435 S 1556.59 400.048 1583.44 400.048 L 1540 639 L -100 639 Z" fill="#674db7" stroke-width="0" transform="translate(2.0816 0)">
  <animate attributeName="d" dur="90s" repeatCount="indefinite" values="M-100 393.42C-72.33 387.33 -71.54 402.5 -45.7 402.5S-17.87 393.88 8.61 393.88S36.69 391.68 62.91 391.68S90.98 391.27 117.22 391.27S145.32 390.93 171.52 390.93S199.26 399.38 225.83 399.38S254.17 395.06 280.13 395.06S307.86 390.36 334.44 390.36S361.62 403.55 388.74 403.55S417.08 386.75 443.05 386.75S470.75 393.96 497.35 393.96S526.06 395.34 551.66 395.34S580.25 388.19 605.96 388.19S634.5 392.06 660.26 392.06S687.51 403.4 714.57 403.4S742 403.02 768.87 403.02S797.4 397.03 823.18 397.03S851.33 396.53 877.48 396.53S904.82 397.12 931.79 397.12S959.41 398.73 986.09 398.73S1014.12 389.72 1040.4 389.72S1068.93 393.47 1094.7 393.47S1122.46 395.97 1149.01 395.97S1177.34 399.99 1203.31 399.99S1231.89 401.07 1257.62 401.07S1285.99 386.66 1311.92 386.66S1340.62 405.23 1366.23 405.23S1393.38 386.81 1420.53 386.81S1448.22 391.71 1474.83 391.71S1503.18 395.34 1529.14 395.34S1556.62 399.6 1583.44 399.6L1540 639 L-100 639 Z;M-100 394.61C-71.63 400 -72.5 397.95 -45.7 397.95S-16.97 390.43 8.61 390.43S35.98 399.14 62.91 399.14S91.2 400.27 117.22 400.27S144.75 403.51 171.52 403.51S199.65 401.95 225.83 401.95S254.51 403.51 280.13 403.51S308.51 400.69 334.44 400.69S363.17 398.33 388.74 398.33S417.38 402.25 443.05 402.25S471.79 399.32 497.35 399.32S525.49 387.39 551.66 387.39S580.35 391.3 605.96 391.3S634.14 401.83 660.26 401.83S688.75 404.05 714.57 404.05S741.98 394.72 768.87 394.72S796.15 401.99 823.18 401.99S851.22 398.19 877.48 398.19S905.6 402.56 931.79 402.56S959.63 395.75 986.09 395.75S1014.1 394.87 1040.4 394.87S1068.33 397.63 1094.7 397.63S1122.63 393.92 1149.01 393.92S1177.36 401.46 1203.31 401.46S1232.01 394.97 1257.62 394.97S1285.3 400.16 1311.92 400.16S1339.79 389.89 1366.23 389.89S1393.62 389.15 1420.53 389.15S1448.01 397.85 1474.83 397.85S1502.87 396.46 1529.14 396.46S1556.31 404.86 1583.44 404.86L1540 639 L-100 639 Z;M-100 393.42C-72.33 387.33 -71.54 402.5 -45.7 402.5S-17.87 393.88 8.61 393.88S36.69 391.68 62.91 391.68S90.98 391.27 117.22 391.27S145.32 390.93 171.52 390.93S199.26 399.38 225.83 399.38S254.17 395.06 280.13 395.06S307.86 390.36 334.44 390.36S361.62 403.55 388.74 403.55S417.08 386.75 443.05 386.75S470.75 393.96 497.35 393.96S526.06 395.34 551.66 395.34S580.25 388.19 605.96 388.19S634.5 392.06 660.26 392.06S687.51 403.4 714.57 403.4S742 403.02 768.87 403.02S797.4 397.03 823.18 397.03S851.33 396.53 877.48 396.53S904.82 397.12 931.79 397.12S959.41 398.73 986.09 398.73S1014.12 389.72 1040.4 389.72S1068.93 393.47 1094.7 393.47S1122.46 395.97 1149.01 395.97S1177.34 399.99 1203.31 399.99S1231.89 401.07 1257.62 401.07S1285.99 386.66 1311.92 386.66S1340.62 405.23 1366.23 405.23S1393.38 386.81 1420.53 386.81S1448.22 391.71 1474.83 391.71S1503.18 395.34 1529.14 395.34S1556.62 399.6 1583.44 399.6L1540 639 L-100 639 Z"></animate>
  <animateTransform attributeName="transform" type="translate" dur="90s" begin="-9s" repeatCount="indefinite" values="0;10;0" calcMode="spline" keySplines="0.3 0 0.7 1;0.3 0 0.7 1"></animateTransform>
</path><path d="M -100 409.893 C -72.0217 409.895 -71.0113 414.46 -44.22 414.46 S -16.1427 417.949 11.56 417.949 S 40.1653 416.145 67.35 416.145 S 95.4022 423.132 123.13 423.132 S 152.032 420.363 178.91 420.363 S 208.176 407.734 234.69 407.734 S 262.728 413.905 290.48 413.905 S 318.529 403.326 346.26 403.326 S 375.488 410.788 402.04 410.788 S 430.996 411.422 457.82 411.422 S 486.144 419.978 513.61 419.978 S 541.596 404.258 569.39 404.258 S 597.534 417.731 625.17 417.731 S 653.406 409.133 680.95 409.133 S 709.792 414.04 736.73 414.04 S 765.634 415.375 792.52 415.375 S 821.961 418.467 848.3 418.467 S 876.765 408.967 904.08 408.967 S 933.2 413.706 959.86 413.706 S 988.716 416.856 1015.65 416.856 S 1044.08 409.653 1071.43 409.653 S 1100.76 412.367 1127.21 412.367 S 1155.56 413.32 1182.99 413.32 S 1211.66 406.135 1238.78 406.135 S 1267.68 415.179 1294.56 415.179 S 1323.19 415.619 1350.34 415.619 S 1379.54 413.661 1406.12 413.661 S 1435.4 413.103 1461.9 413.103 S 1490.88 413.747 1517.69 413.747 S 1546.57 403.638 1573.47 403.638 L 1540 639 L -100 639 Z" fill="#5d46a6" stroke-width="0" transform="translate(4.94042 0)">
  <animate attributeName="d" dur="80s" repeatCount="indefinite" values="M-100 410.31C-72.06 410.32 -70.95 414 -44.22 414S-16.25 418 11.56 418S40.15 417.2 67.35 417.2S95.27 423.22 123.13 423.22S152.02 421.22 178.91 421.22S208.17 406.54 234.69 406.54S262.73 413.88 290.48 413.88S318.49 402.92 346.26 402.92S375.47 410.37 402.04 410.37S431.03 410.79 457.82 410.79S486.13 420.78 513.61 420.78S541.58 403.39 569.39 403.39S597.49 417.49 625.17 417.49S653.28 408.61 680.95 408.61S709.84 414.26 736.73 414.26S765.72 416.39 792.52 416.39S822 418.66 848.3 418.66S876.79 408.53 904.08 408.53S933.26 412.8 959.86 412.8S988.71 416.87 1015.65 416.87S1043.99 409.5 1071.43 409.5S1100.75 412.56 1127.21 412.56S1155.53 413.57 1182.99 413.57S1211.67 405.09 1238.78 405.09S1267.67 414.96 1294.56 414.96S1323.19 416.73 1350.34 416.73S1379.56 413.96 1406.12 413.96S1435.54 413.72 1461.9 413.72S1490.96 414.79 1517.69 414.79S1546.52 402.91 1573.47 402.91L1540 639 L-100 639 Z;M-100 405.96C-71.66 405.89 -71.59 418.8 -44.22 418.8S-15.13 417.47 11.56 417.47S40.31 406.19 67.35 406.19S96.65 422.3 123.13 422.3S152.14 412.28 178.91 412.28S208.23 419 234.69 419S262.71 414.14 290.48 414.14S318.9 407.16 346.26 407.16S375.66 414.73 402.04 414.73S430.67 417.39 457.82 417.39S486.28 412.41 513.61 412.41S541.75 412.45 569.39 412.45S597.95 420.01 625.17 420.01S654.59 414.07 680.95 414.07S709.34 411.96 736.73 411.96S764.82 405.8 792.52 405.8S821.59 416.65 848.3 416.65S876.53 413.09 904.08 413.09S932.63 422.25 959.86 422.25S988.77 416.72 1015.65 416.72S1044.97 411.1 1071.43 411.1S1100.81 410.55 1127.21 410.55S1155.89 410.96 1182.99 410.96S1211.56 415.99 1238.78 415.99S1267.75 417.25 1294.56 417.25S1323.18 405.14 1350.34 405.14S1379.36 410.84 1406.12 410.84S1434.05 407.28 1461.9 407.28S1490.13 403.91 1517.69 403.91S1547.02 410.51 1573.47 410.51L1540 639 L-100 639 Z;M-100 410.31C-72.06 410.32 -70.95 414 -44.22 414S-16.25 418 11.56 418S40.15 417.2 67.35 417.2S95.27 423.22 123.13 423.22S152.02 421.22 178.91 421.22S208.17 406.54 234.69 406.54S262.73 413.88 290.48 413.88S318.49 402.92 346.26 402.92S375.47 410.37 402.04 410.37S431.03 410.79 457.82 410.79S486.13 420.78 513.61 420.78S541.58 403.39 569.39 403.39S597.49 417.49 625.17 417.49S653.28 408.61 680.95 408.61S709.84 414.26 736.73 414.26S765.72 416.39 792.52 416.39S822 418.66 848.3 418.66S876.79 408.53 904.08 408.53S933.26 412.8 959.86 412.8S988.71 416.87 1015.65 416.87S1043.99 409.5 1071.43 409.5S1100.75 412.56 1127.21 412.56S1155.53 413.57 1182.99 413.57S1211.67 405.09 1238.78 405.09S1267.67 414.96 1294.56 414.96S1323.19 416.73 1350.34 416.73S1379.56 413.96 1406.12 413.96S1435.54 413.72 1461.9 413.72S1490.96 414.79 1517.69 414.79S1546.52 402.91 1573.47 402.91L1540 639 L-100 639 Z"></animate>
  <animateTransform attributeName="transform" type="translate" dur="80s" begin="-16s" repeatCount="indefinite" values="0;10;0" calcMode="spline" keySplines="0.3 0 0.7 1;0.3 0 0.7 1"></animateTransform>
</path><path d="M -100 429.684 C -71.082 419.985 -70.4241 434.057 -42.66 434.057 S -13.4524 430.282 14.69 430.282 S 43.9506 431.08 72.03 431.08 S 102.038 421.082 129.37 421.082 S 159.32 420.482 186.71 420.482 S 216.172 429.346 244.06 429.346 S 273.73 428.148 301.4 428.148 S 330.577 431.571 358.74 431.571 S 387.554 431.962 416.08 431.962 S 445.294 438.576 473.43 438.576 S 503.47 439.55 530.77 439.55 S 560.366 422.055 588.11 422.055 S 617.72 431.228 645.45 431.228 S 674.668 433.595 702.8 433.595 S 732.151 442.292 760.14 442.292 S 789.862 420.413 817.48 420.413 S 847.21 430.064 874.83 430.064 S 904.448 433.615 932.17 433.615 S 961.662 435.53 989.51 435.53 S 1018.69 426.33 1046.85 426.33 S 1076.02 440.517 1104.2 440.517 S 1133.79 421.561 1161.54 421.561 S 1190.41 431.785 1218.88 431.785 S 1248.89 420.747 1276.22 420.747 S 1305.87 429.7 1333.57 429.7 S 1363.27 418.684 1390.91 418.684 S 1420.82 433.845 1448.25 433.845 S 1477.3 424.273 1505.59 424.273 S 1534.46 439.776 1562.94 439.776 L 1540 639 L -100 639 Z" fill="#533f94" stroke-width="0" transform="translate(7.85373 0)">
  <animate attributeName="d" dur="70s" repeatCount="indefinite" values="M-100 429.17C-71.07 418.82 -70.48 434.01 -42.66 434.01S-13.39 431.04 14.69 431.04S43.84 429.55 72.03 429.55S102.18 420.27 129.37 420.27S159.3 418.65 186.71 418.65S216.26 430.47 244.06 430.47S273.68 429.11 301.4 429.11S330.49 432.27 358.74 432.27S387.47 431.93 416.08 431.93S445.32 440.09 473.43 440.09S503.45 439.02 530.77 439.02S560.43 419.86 588.11 419.86S617.82 431.11 645.45 431.11S674.61 432.94 702.8 432.94S732.17 443.86 760.14 443.86S789.89 418.91 817.48 418.91S847.18 430.22 874.83 430.22S904.48 432.65 932.17 432.65S961.59 434.64 989.51 434.64S1018.72 426.47 1046.85 426.47S1075.91 440.48 1104.2 440.48S1133.9 421.83 1161.54 421.83S1190.42 432.43 1218.88 432.43S1248.87 419.48 1276.22 419.48S1305.99 428.62 1333.57 428.62S1363.35 418.58 1390.91 418.58S1420.88 434.53 1448.25 434.53S1477.27 424.88 1505.59 424.88S1534.43 439.78 1562.94 439.78L1540 639 L-100 639 Z;M-100 433.86C-71.18 429.46 -69.97 434.44 -42.66 434.44S-13.96 424.12 14.69 424.12S44.85 443.52 72.03 443.52S100.88 427.68 129.37 427.68S159.48 435.38 186.71 435.38S215.46 420.21 244.06 420.21S274.14 420.33 301.4 420.33S331.28 425.89 358.74 425.89S388.24 432.22 416.08 432.22S445.08 426.27 473.43 426.27S503.63 443.86 530.77 443.86S559.85 439.9 588.11 439.9S616.91 432.19 645.45 432.19S675.14 438.92 702.8 438.92S732 429.54 760.14 429.54S789.63 432.63 817.48 432.63S847.45 428.8 874.83 428.8S904.19 441.46 932.17 441.46S962.25 442.77 989.51 442.77S1018.48 425.19 1046.85 425.19S1076.93 440.82 1104.2 440.82S1132.87 419.37 1161.54 419.37S1190.33 426.54 1218.88 426.54S1249.09 431.05 1276.22 431.05S1304.92 438.48 1333.57 438.48S1362.6 419.53 1390.91 419.53S1420.31 428.28 1448.25 428.28S1477.57 419.34 1505.59 419.34S1534.73 439.74 1562.94 439.74L1540 639 L-100 639 Z;M-100 429.17C-71.07 418.82 -70.48 434.01 -42.66 434.01S-13.39 431.04 14.69 431.04S43.84 429.55 72.03 429.55S102.18 420.27 129.37 420.27S159.3 418.65 186.71 418.65S216.26 430.47 244.06 430.47S273.68 429.11 301.4 429.11S330.49 432.27 358.74 432.27S387.47 431.93 416.08 431.93S445.32 440.09 473.43 440.09S503.45 439.02 530.77 439.02S560.43 419.86 588.11 419.86S617.82 431.11 645.45 431.11S674.61 432.94 702.8 432.94S732.17 443.86 760.14 443.86S789.89 418.91 817.48 418.91S847.18 430.22 874.83 430.22S904.48 432.65 932.17 432.65S961.59 434.64 989.51 434.64S1018.72 426.47 1046.85 426.47S1075.91 440.48 1104.2 440.48S1133.9 421.83 1161.54 421.83S1190.42 432.43 1218.88 432.43S1248.87 419.48 1276.22 419.48S1305.99 428.62 1333.57 428.62S1363.35 418.58 1390.91 418.58S1420.88 434.53 1448.25 434.53S1477.27 424.88 1505.59 424.88S1534.43 439.78 1562.94 439.78L1540 639 L-100 639 Z"></animate>
  <animateTransform attributeName="transform" type="translate" dur="70s" begin="-21s" repeatCount="indefinite" values="0;10;0" calcMode="spline" keySplines="0.3 0 0.7 1;0.3 0 0.7 1"></animateTransform>
</path><path d="M -100 445.618 C -69.8502 436.509 -70.168 451.763 -41.01 451.763 S -10.0307 436.71 17.99 436.71 S 48.3013 457.49 76.98 457.49 S 107.653 442.495 135.97 442.495 S 166.471 451.068 194.96 451.068 S 224.897 443.612 253.96 443.612 S 283.54 443.954 312.95 443.954 S 343.722 445.848 371.94 445.848 S 402.113 457.218 430.94 457.218 S 461.236 439.061 489.93 439.061 S 520.797 461.352 548.92 461.352 S 579.294 438.518 607.91 438.518 S 637.952 448.884 666.91 448.884 S 697.816 443.472 725.9 443.472 S 756.32 454.37 784.89 454.37 S 815.596 441.356 843.88 441.356 S 873.644 450.687 902.88 450.687 S 933.419 442.343 961.87 442.343 S 991.509 458.944 1020.86 458.944 S 1051.81 446.884 1079.86 446.884 S 1110.46 461.181 1138.85 461.181 S 1169.35 446.298 1197.84 446.298 S 1227.66 457.184 1256.83 457.184 S 1287.74 440.518 1315.83 440.518 S 1346.44 448.815 1374.82 448.815 S 1405.65 442.553 1433.81 442.553 S 1463.97 455.756 1492.81 455.756 S 1523.2 444.061 1551.8 444.061 L 1540 639 L -100 639 Z" fill="#493883" stroke-width="0" transform="translate(9.82561 0)">
  <animate attributeName="d" dur="60s" repeatCount="indefinite" values="M-100 446.12C-69.9 436.25 -70.26 450.43 -41.01 450.43S-10 436.03 17.99 436.03S48.24 457.73 76.98 457.73S107.82 442.51 135.97 442.51S166.49 449.31 194.96 449.31S224.8 443.35 253.96 443.35S283.54 441.5 312.95 441.5S343.82 446.82 371.94 446.82S402.21 457.52 430.94 457.52S461.17 437.88 489.93 437.88S520.99 461.54 548.92 461.54S579.41 438.53 607.91 438.53S637.99 448.94 666.91 448.94S697.89 441.49 725.9 441.49S756.33 454.21 784.89 454.21S815.55 440.31 843.88 440.31S873.64 449.62 902.88 449.62S933.51 442.9 961.87 442.9S991.43 458.41 1020.86 458.41S1051.8 445.57 1079.86 445.57S1110.61 461.15 1138.85 461.15S1169.28 446.93 1197.84 446.93S1227.5 457.79 1256.83 457.79S1287.81 439.69 1315.83 439.69S1346.6 449.9 1374.82 449.9S1405.68 442.54 1433.81 442.54S1463.98 458.31 1492.81 458.31S1523.26 444.11 1551.8 444.11L1540 639 L-100 639 Z;M-100 442.19C-69.51 438.28 -69.54 460.86 -41.01 460.86S-10.24 441.35 17.99 441.35S48.72 455.85 76.98 455.85S106.51 442.39 135.97 442.39S166.34 463.07 194.96 463.07S225.56 445.4 253.96 445.4S283.54 460.71 312.95 460.71S343.05 439.21 371.94 439.21S401.45 455.16 430.94 455.16S461.69 447.12 489.93 447.12S519.48 460.07 548.92 460.07S578.5 438.44 607.91 438.44S637.69 448.5 666.91 448.5S697.31 457 725.9 457S756.25 455.46 784.89 455.46S815.91 448.5 843.88 448.5S873.67 457.97 902.88 457.97S932.8 438.54 961.87 438.54S992.05 462.59 1020.86 462.59S1051.9 455.85 1079.86 455.85S1109.44 461.39 1138.85 461.39S1169.81 441.98 1197.84 441.98S1228.77 453.05 1256.83 453.05S1287.29 446.17 1315.83 446.17S1345.35 441.41 1374.82 441.41S1405.46 442.64 1433.81 442.64S1463.87 438.32 1492.81 438.32S1522.8 443.73 1551.8 443.73L1540 639 L-100 639 Z;M-100 446.12C-69.9 436.25 -70.26 450.43 -41.01 450.43S-10 436.03 17.99 436.03S48.24 457.73 76.98 457.73S107.82 442.51 135.97 442.51S166.49 449.31 194.96 449.31S224.8 443.35 253.96 443.35S283.54 441.5 312.95 441.5S343.82 446.82 371.94 446.82S402.21 457.52 430.94 457.52S461.17 437.88 489.93 437.88S520.99 461.54 548.92 461.54S579.41 438.53 607.91 438.53S637.99 448.94 666.91 448.94S697.89 441.49 725.9 441.49S756.33 454.21 784.89 454.21S815.55 440.31 843.88 440.31S873.64 449.62 902.88 449.62S933.51 442.9 961.87 442.9S991.43 458.41 1020.86 458.41S1051.8 445.57 1079.86 445.57S1110.61 461.15 1138.85 461.15S1169.28 446.93 1197.84 446.93S1227.5 457.79 1256.83 457.79S1287.81 439.69 1315.83 439.69S1346.6 449.9 1374.82 449.9S1405.68 442.54 1433.81 442.54S1463.98 458.31 1492.81 458.31S1523.26 444.11 1551.8 444.11L1540 639 L-100 639 Z"></animate>
  <animateTransform attributeName="transform" type="translate" dur="60s" begin="-24s" repeatCount="indefinite" values="0;10;0" calcMode="spline" keySplines="0.3 0 0.7 1;0.3 0 0.7 1"></animateTransform>
</path><path d="M -100 459.552 C -69.1573 453.307 -68.8514 472.723 -39.26 472.723 S -8.48607 454.465 21.48 454.465 S 52.0846 475.751 82.22 475.751 S 113.73 470.975 142.96 470.975 S 174.432 471.495 203.7 471.495 S 235.188 464.979 264.44 464.979 S 295.274 473.737 325.19 473.737 S 356.807 464.01 385.93 464.01 S 416.87 473.388 446.67 473.388 S 477.611 461.969 507.41 461.969 S 538.715 465.919 568.15 465.919 S 599.584 453.456 628.89 453.456 S 659.573 477.464 689.63 477.464 S 721.476 453.369 750.37 453.369 S 780.968 464.957 811.11 464.957 S 841.653 463.355 871.85 463.355 S 902.685 470.593 932.59 470.593 S 963.886 454.294 993.33 454.294 S 1025.02 467.425 1054.07 467.425 S 1085.75 476.724 1114.81 476.724 S 1146.49 478.754 1175.56 478.754 S 1206.65 476.106 1236.3 476.106 S 1267.73 474.645 1297.04 474.645 S 1327.57 452.503 1357.78 452.503 S 1388.79 474.892 1418.52 474.892 S 1449.52 469.537 1479.26 469.537 S 1510.26 474.707 1540 474.707 S 1571.3 460.612 1600.74 460.612 L 1540 639 L -100 639 Z" fill="#403273" stroke-width="0" transform="translate(9.29352 0)">
  <animate attributeName="d" dur="50s" repeatCount="indefinite" values="M-100 460.55C-69.26 453.7 -68.81 471.17 -39.26 471.17S-8.46 453.51 21.48 453.51S52.08 475.27 82.22 475.27S113.71 473.03 142.96 473.03S174.47 473.76 203.7 473.76S235.36 464.43 264.44 464.43S295.21 476.61 325.19 476.61S357.02 462.71 385.93 462.71S416.76 473.63 446.67 473.63S477.57 463.03 507.41 463.03S538.62 464.62 568.15 464.62S599.76 451.8 628.89 451.8S659.59 477.11 689.63 477.11S721.54 453.19 750.37 453.19S781 464.16 811.11 464.16S841.67 463.13 871.85 463.13S902.53 468.75 932.59 468.75S963.93 454.8 993.33 454.8S1025.13 466.95 1054.07 466.95S1085.7 480.22 1114.81 480.22S1146.69 480.29 1175.56 480.29S1206.73 479.03 1236.3 479.03S1267.84 475.35 1297.04 475.35S1327.56 451.81 1357.78 451.81S1388.76 476.14 1418.52 476.14S1449.62 470.13 1479.26 470.13S1510.19 475.44 1540 475.44S1571.44 459.62 1600.74 459.62L1540 639 L-100 639 Z;M-100 454.04C-68.59 451.14 -69.08 481.3 -39.26 481.3S-8.63 459.74 21.48 459.74S52.11 478.41 82.22 478.41S113.84 459.63 142.96 459.63S174.22 458.99 203.7 458.99S234.24 468.01 264.44 468.01S295.63 457.87 325.19 457.87S355.63 471.19 385.93 471.19S417.48 472.05 446.67 472.05S477.84 456.11 507.41 456.11S539.24 473.09 568.15 473.09S598.61 462.6 628.89 462.6S659.48 479.42 689.63 479.42S721.12 454.36 750.37 454.36S780.79 469.36 811.11 469.36S841.56 464.6 871.85 464.6S903.54 480.77 932.59 480.77S963.64 451.5 993.33 451.5S1024.44 470.05 1054.07 470.05S1086 457.42 1114.81 457.42S1145.4 470.27 1175.56 470.27S1206.23 459.96 1236.3 459.96S1267.15 470.75 1297.04 470.75S1327.63 456.33 1357.78 456.33S1388.93 468 1418.52 468S1448.94 466.26 1479.26 466.26S1510.62 470.66 1540 470.66S1570.5 466.09 1600.74 466.09L1540 639 L-100 639 Z;M-100 460.55C-69.26 453.7 -68.81 471.17 -39.26 471.17S-8.46 453.51 21.48 453.51S52.08 475.27 82.22 475.27S113.71 473.03 142.96 473.03S174.47 473.76 203.7 473.76S235.36 464.43 264.44 464.43S295.21 476.61 325.19 476.61S357.02 462.71 385.93 462.71S416.76 473.63 446.67 473.63S477.57 463.03 507.41 463.03S538.62 464.62 568.15 464.62S599.76 451.8 628.89 451.8S659.59 477.11 689.63 477.11S721.54 453.19 750.37 453.19S781 464.16 811.11 464.16S841.67 463.13 871.85 463.13S902.53 468.75 932.59 468.75S963.93 454.8 993.33 454.8S1025.13 466.95 1054.07 466.95S1085.7 480.22 1114.81 480.22S1146.69 480.29 1175.56 480.29S1206.73 479.03 1236.3 479.03S1267.84 475.35 1297.04 475.35S1327.56 451.81 1357.78 451.81S1388.76 476.14 1418.52 476.14S1449.62 470.13 1479.26 470.13S1510.19 475.44 1540 475.44S1571.44 459.62 1600.74 459.62L1540 639 L-100 639 Z"></animate>
  <animateTransform attributeName="transform" type="translate" dur="50s" begin="-25s" repeatCount="indefinite" values="0;10;0" calcMode="spline" keySplines="0.3 0 0.7 1;0.3 0 0.7 1"></animateTransform>
</path><path d="M -100 471.071 C -68.4782 476.608 -68.6196 475.602 -37.4 475.602 S -4.80441 489.105 25.19 489.105 S 57.761 486.511 87.79 486.511 S 120.268 479.103 150.38 479.103 S 182.215 492.002 212.98 492.002 S 245.089 466.718 275.57 466.718 S 307.872 497.292 338.17 497.292 S 369.657 481.189 400.76 481.189 S 432.48 491.104 463.36 491.104 S 495.312 489.192 525.95 489.192 S 557.519 477.525 588.55 477.525 S 621.064 475.592 651.15 475.592 S 683.705 491.461 713.74 491.461 S 745.55 480.863 776.34 480.863 S 808.234 495.991 838.93 495.991 S 870.948 473.974 901.53 473.974 S 933.099 489.69 964.12 489.69 S 995.794 475.999 1026.72 475.999 S 1058.4 493.274 1089.31 493.274 S 1121.36 483.42 1151.91 483.42 S 1183.92 494.528 1214.5 494.528 S 1247.1 479.783 1277.1 479.783 S 1308.75 487.509 1339.69 487.509 S 1371.23 476.238 1402.29 476.238 S 1434.54 499.155 1464.89 499.155 S 1496.92 478.568 1527.48 478.568 S 1559.95 496.316 1590.08 496.316 L 1540 639 L -100 639 Z" fill="#362b62" stroke-width="0" transform="translate(6.52878 0)">
  <animate attributeName="d" dur="40s" repeatCount="indefinite" values="M-100 470.41C-68.62 475.32 -68.61 469.53 -37.4 469.53S-4.63 491.57 25.19 491.57S57.83 485.76 87.79 485.76S120.18 481.98 150.38 481.98S182.29 491.41 212.98 491.41S244.98 466.59 275.57 466.59S308.05 496.69 338.17 496.69S369.49 479.32 400.76 479.32S432.48 492.35 463.36 492.35S495.12 491.48 525.95 491.48S557.26 472.22 588.55 472.22S621.2 475.49 651.15 475.49S683.81 489.78 713.74 489.78S745.31 481.8 776.34 481.8S808.36 500.79 838.93 500.79S870.94 474.57 901.53 474.57S932.99 493.82 964.12 493.82S995.75 473.59 1026.72 473.59S1058.45 494.7 1089.31 494.7S1121.34 487.41 1151.91 487.41S1183.75 494.3 1214.5 494.3S1247.38 479.49 1277.1 479.49S1308.7 486.75 1339.69 486.75S1371.06 475.46 1402.29 475.46S1434.7 501.57 1464.89 501.57S1496.88 473.65 1527.48 473.65S1560.1 498.7 1590.08 498.7L1540 639 L-100 639 Z;M-100 473.86C-67.88 482.04 -68.66 501.21 -37.4 501.21S-5.54 478.71 25.19 478.71S57.47 489.68 87.79 489.68S120.64 466.97 150.38 466.97S181.9 494.5 212.98 494.5S245.55 467.26 275.57 467.26S307.12 499.83 338.17 499.83S370.36 489.07 400.76 489.07S432.48 485.85 463.36 485.85S496.12 479.54 525.95 479.54S558.61 499.9 588.55 499.9S620.49 476.02 651.15 476.02S683.26 498.55 713.74 498.55S746.56 476.91 776.34 476.91S807.7 475.75 838.93 475.75S870.98 471.46 901.53 471.46S933.56 472.27 964.12 472.27S995.98 486.16 1026.72 486.16S1058.2 487.26 1089.31 487.26S1121.44 466.59 1151.91 466.59S1184.63 495.49 1214.5 495.49S1245.92 481.02 1277.1 481.02S1308.95 490.71 1339.69 490.71S1371.96 479.52 1402.29 479.52S1433.89 488.97 1464.89 488.97S1497.11 499.31 1527.48 499.31S1559.33 486.26 1590.08 486.26L1540 639 L-100 639 Z;M-100 470.41C-68.62 475.32 -68.61 469.53 -37.4 469.53S-4.63 491.57 25.19 491.57S57.83 485.76 87.79 485.76S120.18 481.98 150.38 481.98S182.29 491.41 212.98 491.41S244.98 466.59 275.57 466.59S308.05 496.69 338.17 496.69S369.49 479.32 400.76 479.32S432.48 492.35 463.36 492.35S495.12 491.48 525.95 491.48S557.26 472.22 588.55 472.22S621.2 475.49 651.15 475.49S683.81 489.78 713.74 489.78S745.31 481.8 776.34 481.8S808.36 500.79 838.93 500.79S870.94 474.57 901.53 474.57S932.99 493.82 964.12 493.82S995.75 473.59 1026.72 473.59S1058.45 494.7 1089.31 494.7S1121.34 487.41 1151.91 487.41S1183.75 494.3 1214.5 494.3S1247.38 479.49 1277.1 479.49S1308.7 486.75 1339.69 486.75S1371.06 475.46 1402.29 475.46S1434.7 501.57 1464.89 501.57S1496.88 473.65 1527.48 473.65S1560.1 498.7 1590.08 498.7L1540 639 L-100 639 Z"></animate>
  <animateTransform attributeName="transform" type="translate" dur="40s" begin="-24s" repeatCount="indefinite" values="0;10;0" calcMode="spline" keySplines="0.3 0 0.7 1;0.3 0 0.7 1"></animateTransform>
</path><path d="M -100 496.165 C -66.9656 484.692 -66.9854 517.639 -35.43 517.639 S -2.28278 508.329 29.13 508.329 S 62.1854 508.517 93.7 508.517 S 126.474 489.709 158.27 489.709 S 191.616 507.525 222.83 507.525 S 255.303 487.429 287.4 487.429 S 320.382 516.733 351.97 516.733 S 385.504 487.825 416.54 487.825 S 449.22 484.691 481.1 484.691 S 513.595 492.282 545.67 492.282 S 578.693 510.079 610.24 510.079 S 643.398 487.316 674.8 487.316 S 707.889 511.051 739.37 511.051 S 772.781 490.764 803.94 490.764 S 837.387 497.292 868.5 497.292 S 901.966 490.559 933.07 490.559 S 966.181 509.184 997.64 509.184 S 1030.58 486.484 1062.2 486.484 S 1094.87 509.717 1126.77 509.717 S 1159.68 495.091 1191.34 495.091 S 1224.22 509.38 1255.91 509.38 S 1289.29 491.872 1320.47 491.872 S 1353.92 516.515 1385.04 516.515 S 1418.7 498.769 1449.61 498.769 S 1482.9 509.154 1514.17 509.154 S 1547.62 510.527 1578.74 510.527 L 1540 639 L -100 639 Z" fill="#2e2453" stroke-width="0" transform="translate(2.83436 0)">
  <animate attributeName="d" dur="30s" repeatCount="indefinite" values="M-100 496.97C-67.17 483.09 -66.85 517.21 -35.43 517.21S-2.27 515.42 29.13 515.42S62.28 506.6 93.7 506.6S126.18 488.93 158.27 488.93S191.44 511.46 222.83 511.46S255.17 484.72 287.4 484.72S320.53 518.33 351.97 518.33S385.55 486.23 416.54 486.23S449.09 483.36 481.1 483.36S513.47 494.84 545.67 494.84S578.92 508.15 610.24 508.15S643.24 486.25 674.8 486.25S708.03 510.78 739.37 510.78S772.74 489.19 803.94 489.19S837.4 490.15 868.5 490.15S902.26 489.8 933.07 489.8S966.25 509.69 997.64 509.69S1030.69 487.35 1062.2 487.35S1094.67 506.28 1126.77 506.28S1159.68 491.71 1191.34 491.71S1224.32 507.75 1255.91 507.75S1289.39 492.24 1320.47 492.24S1354.03 520.21 1385.04 520.21S1418.63 494.78 1449.61 494.78S1483 507.11 1514.17 507.11S1547.81 515.39 1578.74 515.39L1540 639 L-100 639 Z;M-100 493.82C-66.37 489.36 -67.38 518.89 -35.43 518.89S-2.32 487.67 29.13 487.67S61.91 514.1 93.7 514.1S127.33 491.98 158.27 491.98S192.13 496.06 222.83 496.06S255.69 495.32 287.4 495.32S319.95 512.08 351.97 512.08S385.37 492.47 416.54 492.47S449.6 488.57 481.1 488.57S513.96 484.83 545.67 484.83S578.03 515.7 610.24 515.7S643.86 490.42 674.8 490.42S707.48 511.84 739.37 511.84S772.9 495.35 803.94 495.35S837.35 518.1 868.5 518.1S901.11 492.77 933.07 492.77S965.98 507.71 997.64 507.71S1030.25 483.96 1062.2 483.96S1095.46 519.73 1126.77 519.73S1159.67 504.94 1191.34 504.94S1223.94 514.13 1255.91 514.13S1288.99 490.8 1320.47 490.8S1353.61 505.75 1385.04 505.75S1418.91 510.39 1449.61 510.39S1482.61 515.11 1514.17 515.11S1547.05 496.36 1578.74 496.36L1540 639 L-100 639 Z;M-100 496.97C-67.17 483.09 -66.85 517.21 -35.43 517.21S-2.27 515.42 29.13 515.42S62.28 506.6 93.7 506.6S126.18 488.93 158.27 488.93S191.44 511.46 222.83 511.46S255.17 484.72 287.4 484.72S320.53 518.33 351.97 518.33S385.55 486.23 416.54 486.23S449.09 483.36 481.1 483.36S513.47 494.84 545.67 494.84S578.92 508.15 610.24 508.15S643.24 486.25 674.8 486.25S708.03 510.78 739.37 510.78S772.74 489.19 803.94 489.19S837.4 490.15 868.5 490.15S902.26 489.8 933.07 489.8S966.25 509.69 997.64 509.69S1030.69 487.35 1062.2 487.35S1094.67 506.28 1126.77 506.28S1159.68 491.71 1191.34 491.71S1224.32 507.75 1255.91 507.75S1289.39 492.24 1320.47 492.24S1354.03 520.21 1385.04 520.21S1418.63 494.78 1449.61 494.78S1483 507.11 1514.17 507.11S1547.81 515.39 1578.74 515.39L1540 639 L-100 639 Z"></animate>
  <animateTransform attributeName="transform" type="translate" dur="30s" begin="-21s" repeatCount="indefinite" values="0;10;0" calcMode="spline" keySplines="0.3 0 0.7 1;0.3 0 0.7 1"></animateTransform>
</path><path d="M -100 505.794 C -65.3912 507.868 -65.5193 531.721 -33.33 531.721 S 0.536832 521.593 33.33 521.593 S 67.4725 525.334 100 525.334 S 134.725 503.607 166.67 503.607 S 200.747 528.782 233.33 528.782 S 267.054 509.469 300 509.469 S 334.339 533.035 366.67 533.035 S 400.573 505.052 433.33 505.052 S 467.911 529.413 500 529.413 S 533.371 506.949 566.67 506.949 S 601.286 532.166 633.33 532.166 S 667.881 503.431 700 503.431 S 734.456 534.391 766.67 534.391 S 800.955 503.698 833.33 503.698 S 867.419 528.458 900 528.458 S 934.257 516.999 966.67 516.999 S 1000.79 538.4 1033.33 538.4 S 1067.34 506.886 1100 506.886 S 1134.63 512.539 1166.67 512.539 S 1200.32 503.488 1233.33 503.488 S 1267.36 529.548 1300 529.548 S 1334.67 512.45 1366.67 512.45 S 1400.89 537.622 1433.33 537.622 S 1467.58 506.311 1500 506.311 S 1533.49 523.946 1566.67 523.946 L 1540 639 L -100 639 Z" fill="#251e43" stroke-width="0" transform="translate(0.0100584 0)">
  <animate attributeName="d" dur="20s" repeatCount="indefinite" values="M-100 501.39C-65.51 504.84 -65.09 527.7 -33.33 527.7S0.51 532.41 33.33 532.41S67.76 533.38 100 533.38S134.66 502.71 166.67 502.71S200.85 528.05 233.33 528.05S267.23 511.75 300 511.75S334.09 530.31 366.67 530.31S400.55 504.14 433.33 504.14S468.26 526.22 500 526.22S533.39 504.86 566.67 504.86S601.16 531.12 633.33 531.12S667.95 498.54 700 498.54S734.64 537.91 766.67 537.91S800.97 502.33 833.33 502.33S867.48 524.08 900 524.08S933.97 526.36 966.67 526.36S1000.98 539.65 1033.33 539.65S1067.09 511.03 1100 511.03S1134.53 501.53 1166.67 501.53S1200.34 500.74 1233.33 500.74S1267.79 528.62 1300 528.62S1334.74 512.04 1366.67 512.04S1400.82 537.17 1433.33 537.17S1467.82 503.62 1500 503.62S1533.34 530.01 1566.67 530.01L1540 639 L-100 639 Z;M-100 512.88C-65.2 512.74 -66.21 538.19 -33.33 538.19S0.58 504.19 33.33 504.19S67.01 512.39 100 512.39S134.83 505.05 166.67 505.05S200.58 529.96 233.33 529.96S266.77 505.8 300 505.8S334.74 537.42 366.67 537.42S400.61 506.52 433.33 506.52S467.35 534.55 500 534.55S533.34 510.31 566.67 510.31S601.49 533.85 633.33 533.85S667.77 511.3 700 511.3S734.16 528.73 766.67 528.73S800.93 505.9 833.33 505.9S867.32 535.5 900 535.5S934.72 501.94 966.67 501.94S1000.49 536.39 1033.33 536.39S1067.73 500.22 1100 500.22S1134.78 530.25 1166.67 530.25S1200.29 507.91 1233.33 507.91S1266.68 531.04 1300 531.04S1334.56 513.11 1366.67 513.11S1400.99 538.35 1433.33 538.35S1467.19 510.64 1500 510.64S1533.73 514.19 1566.67 514.19L1540 639 L-100 639 Z;M-100 501.39C-65.51 504.84 -65.09 527.7 -33.33 527.7S0.51 532.41 33.33 532.41S67.76 533.38 100 533.38S134.66 502.71 166.67 502.71S200.85 528.05 233.33 528.05S267.23 511.75 300 511.75S334.09 530.31 366.67 530.31S400.55 504.14 433.33 504.14S468.26 526.22 500 526.22S533.39 504.86 566.67 504.86S601.16 531.12 633.33 531.12S667.95 498.54 700 498.54S734.64 537.91 766.67 537.91S800.97 502.33 833.33 502.33S867.48 524.08 900 524.08S933.97 526.36 966.67 526.36S1000.98 539.65 1033.33 539.65S1067.09 511.03 1100 511.03S1134.53 501.53 1166.67 501.53S1200.34 500.74 1233.33 500.74S1267.79 528.62 1300 528.62S1334.74 512.04 1366.67 512.04S1400.82 537.17 1433.33 537.17S1467.82 503.62 1500 503.62S1533.34 530.01 1566.67 530.01L1540 639 L-100 639 Z"></animate>
  <animateTransform attributeName="transform" type="translate" dur="20s" begin="-16s" repeatCount="indefinite" values="0;10;0" calcMode="spline" keySplines="0.3 0 0.7 1;0.3 0 0.7 1"></animateTransform>
</path><path d="M -100 524.618 C -64.4814 521.353 -64.8393 547.334 -31.09 547.334 S 3.67334 517.715 37.82 517.715 S 72.7217 526.788 106.72 526.788 S 142.024 518.538 175.63 518.538 S 210.541 545.106 244.54 545.106 S 280.056 543.981 313.45 543.981 S 348.371 528.289 382.35 528.289 S 417.359 526.891 451.26 526.891 S 486.834 546.253 520.17 546.253 S 555.591 526.494 589.08 526.494 S 624.512 551.555 657.98 551.555 S 693.114 524.348 726.89 524.348 S 762.52 548.235 795.8 548.235 S 831.428 519.6 864.71 519.6 S 899.876 553.449 933.61 553.449 S 969.642 523.265 1002.52 523.265 S 1037.71 543.284 1071.43 543.284 S 1106.94 517.554 1140.34 517.554 S 1175.79 529.049 1209.24 529.049 S 1244.43 531.048 1278.15 531.048 S 1313.81 552.991 1347.06 552.991 S 1382.26 516.612 1415.97 516.612 S 1451.26 554.989 1484.87 554.989 S 1519.67 525.607 1553.78 525.607 L 1540 639 L -100 639 Z" fill="#1d1834" stroke-width="0" transform="translate(5.94755 0)">
  <animate attributeName="d" dur="10s" repeatCount="indefinite" values="M-100 526.32C-65.11 525.24 -64.41 553.16 -31.09 553.16S3.75 525.78 37.82 525.78S73.22 557.3 106.72 557.3S142.66 528.09 175.63 528.09S210.74 549.66 244.54 549.66S280.14 530.35 313.45 530.35S348.08 556.7 382.35 556.7S416.93 523.38 451.26 523.38S486.55 551.75 520.17 551.75S555.89 519.15 589.08 519.15S623.86 550.52 657.98 550.52S693.95 517.74 726.89 517.74S761.7 557.45 795.8 557.45S830.5 517.07 864.71 517.07S900.42 557.29 933.61 557.29S969.65 521.67 1002.52 521.67S1037.73 523.98 1071.43 523.98S1106 523.38 1140.34 523.38S1174.87 551.22 1209.24 551.22S1244.81 558.57 1278.15 558.57S1313.76 548.56 1347.06 548.56S1382.93 522.3 1415.97 522.3S1450.91 556.66 1484.87 556.66S1520.38 524.02 1553.78 524.02L1540 639 L-100 639 Z;M-100 524.1C-64.29 520.17 -64.97 545.56 -31.09 545.56S3.65 515.26 37.82 515.26S72.57 517.5 106.72 517.5S141.83 515.63 175.63 515.63S210.48 543.72 244.54 543.72S280.03 548.13 313.45 548.13S348.46 519.64 382.35 519.64S417.49 527.96 451.26 527.96S486.92 544.58 520.17 544.58S555.5 528.73 589.08 528.73S624.71 551.87 657.98 551.87S692.86 526.36 726.89 526.36S762.77 545.43 795.8 545.43S831.71 520.37 864.71 520.37S899.71 552.28 933.61 552.28S969.64 523.75 1002.52 523.75S1037.71 549.16 1071.43 549.16S1107.23 515.78 1140.34 515.78S1176.07 522.3 1209.24 522.3S1244.31 522.67 1278.15 522.67S1313.82 554.34 1347.06 554.34S1382.06 514.88 1415.97 514.88S1451.36 554.48 1484.87 554.48S1519.46 526.09 1553.78 526.09L1540 639 L-100 639 Z;M-100 526.32C-65.11 525.24 -64.41 553.16 -31.09 553.16S3.75 525.78 37.82 525.78S73.22 557.3 106.72 557.3S142.66 528.09 175.63 528.09S210.74 549.66 244.54 549.66S280.14 530.35 313.45 530.35S348.08 556.7 382.35 556.7S416.93 523.38 451.26 523.38S486.55 551.75 520.17 551.75S555.89 519.15 589.08 519.15S623.86 550.52 657.98 550.52S693.95 517.74 726.89 517.74S761.7 557.45 795.8 557.45S830.5 517.07 864.71 517.07S900.42 557.29 933.61 557.29S969.65 521.67 1002.52 521.67S1037.73 523.98 1071.43 523.98S1106 523.38 1140.34 523.38S1174.87 551.22 1209.24 551.22S1244.81 558.57 1278.15 558.57S1313.76 548.56 1347.06 548.56S1382.93 522.3 1415.97 522.3S1450.91 556.66 1484.87 556.66S1520.38 524.02 1553.78 524.02L1540 639 L-100 639 Z"></animate>
  <animateTransform attributeName="transform" type="translate" dur="10s" begin="-9s" repeatCount="indefinite" values="0;10;0" calcMode="spline" keySplines="0.3 0 0.7 1;0.3 0 0.7 1"></animateTransform>
</path></g>
</svg>