<?xml version="1.0" encoding="utf-8"?>
<svg xmlns="http://www.w3.org/2000/svg" xmlns:xlink="http://www.w3.org/1999/xlink" style="margin: auto; background: none; display: block; z-index: 1; position: relative; shape-rendering: auto;" width="1440" height="639" preserveAspectRatio="xMidYMid" viewBox="0 0 1440 639">
<g transform=""><path d="M -100 302.427 C -72.6757 295.864 -73.0923 295.429 -47.1 295.429 S -19.683 297.802 5.81 297.802 S 32.5891 292.449 58.71 292.449 S 85.7269 290.352 111.61 290.352 S 139.434 289.665 164.52 289.665 S 192.471 292.187 217.42 292.187 S 245.226 295.426 270.32 295.426 S 297.098 292.047 323.23 292.047 S 349.959 298.673 376.13 298.673 S 403.668 293.597 429.03 293.597 S 456.055 299.043 481.94 299.043 S 508.898 299.628 534.84 299.628 S 562.165 295.505 587.74 295.505 S 614.608 295.969 640.65 295.969 S 667.609 300.99 693.55 300.99 S 720.903 298.969 746.45 298.969 S 773.136 290.736 799.35 290.736 S 826.998 298.045 852.26 298.045 S 879.7 293.293 905.16 293.293 S 932.098 294.051 958.06 294.051 S 985.095 294.843 1010.97 294.843 S 1038.33 292.523 1063.87 292.523 S 1091.19 296.306 1116.77 296.306 S 1144.01 298.215 1169.68 298.215 S 1196.31 296.273 1222.58 296.273 S 1249.71 291.095 1275.48 291.095 S 1302.45 294.199 1328.39 294.199 S 1355.77 298.178 1381.29 298.178 S 1407.95 293.207 1434.19 293.207 S 1461.72 292.015 1487.1 292.015 S 1513.65 294.973 1540 294.973 S 1567.69 294.595 1592.9 294.595 L 1540 639 L -100 639 Z" fill="#6c5ba7" stroke-width="0" transform="translate(6.21522 0)">
  <animate attributeName="d" dur="43.47826086956522s" repeatCount="indefinite" values="M-100 301.15C-72.09 295.36 -73.35 294.96 -47.1 294.96S-20.38 300.42 5.81 300.42S32.8 296.52 58.71 296.52S86.5 288.8 111.61 288.8S139.34 291.82 164.52 291.82S192.43 289.95 217.42 289.95S245.15 301.23 270.32 301.23S296.94 294.63 323.23 294.63S350.34 301.76 376.13 301.76S403.24 300.52 429.03 300.52S456.33 298.85 481.94 298.85S508.57 301.04 534.84 301.04S561.65 287.75 587.74 287.75S614.69 301.68 640.65 301.68S667.58 298.87 693.55 298.87S721.43 297.13 746.45 297.13S773.13 293.6 799.35 293.6S827.18 298.9 852.26 298.9S879.19 298.43 905.16 298.43S931.84 297.29 958.06 297.29S985.13 295.44 1010.97 295.44S1038.41 298.31 1063.87 298.31S1091.88 301.8 1116.77 301.8S1143.31 291.18 1169.68 291.18S1196.37 299.53 1222.58 299.53S1249.84 290.38 1275.48 290.38S1302.68 299.64 1328.39 299.64S1356.12 295.7 1381.29 295.7S1408.01 297.77 1434.19 297.77S1461.67 289.66 1487.1 289.66S1513.56 292.7 1540 292.7S1567.56 288.07 1592.9 288.07L1540 639 L-100 639 Z;M-100 303.33C-73.09 296.22 -72.91 295.76 -47.1 295.76S-19.19 295.95 5.81 295.95S32.44 289.57 58.71 289.57S85.18 291.45 111.61 291.45S139.5 288.14 164.52 288.14S192.5 293.77 217.42 293.77S245.28 291.32 270.32 291.32S297.21 290.22 323.23 290.22S349.69 296.49 376.13 296.49S403.97 288.7 429.03 288.7S455.86 299.18 481.94 299.18S509.13 298.63 534.84 298.63S562.53 300.99 587.74 300.99S614.55 291.93 640.65 291.93S667.63 302.49 693.55 302.49S720.53 300.27 746.45 300.27S773.14 288.71 799.35 288.71S826.87 297.44 852.26 297.44S880.06 289.66 905.16 289.66S932.28 291.76 958.06 291.76S985.07 294.42 1010.97 294.42S1038.27 288.43 1063.87 288.43S1090.71 292.42 1116.77 292.42S1144.51 303.19 1169.68 303.19S1196.27 293.97 1222.58 293.97S1249.62 291.6 1275.48 291.6S1302.29 290.35 1328.39 290.35S1355.53 299.93 1381.29 299.93S1407.9 289.98 1434.19 289.98S1461.75 293.68 1487.1 293.68S1513.71 296.58 1540 296.58S1567.79 299.21 1592.9 299.21L1540 639 L-100 639 Z;M-100 301.15C-72.09 295.36 -73.35 294.96 -47.1 294.96S-20.38 300.42 5.81 300.42S32.8 296.52 58.71 296.52S86.5 288.8 111.61 288.8S139.34 291.82 164.52 291.82S192.43 289.95 217.42 289.95S245.15 301.23 270.32 301.23S296.94 294.63 323.23 294.63S350.34 301.76 376.13 301.76S403.24 300.52 429.03 300.52S456.33 298.85 481.94 298.85S508.57 301.04 534.84 301.04S561.65 287.75 587.74 287.75S614.69 301.68 640.65 301.68S667.58 298.87 693.55 298.87S721.43 297.13 746.45 297.13S773.13 293.6 799.35 293.6S827.18 298.9 852.26 298.9S879.19 298.43 905.16 298.43S931.84 297.29 958.06 297.29S985.13 295.44 1010.97 295.44S1038.41 298.31 1063.87 298.31S1091.88 301.8 1116.77 301.8S1143.31 291.18 1169.68 291.18S1196.37 299.53 1222.58 299.53S1249.84 290.38 1275.48 290.38S1302.68 299.64 1328.39 299.64S1356.12 295.7 1381.29 295.7S1408.01 297.77 1434.19 297.77S1461.67 289.66 1487.1 289.66S1513.56 292.7 1540 292.7S1567.56 288.07 1592.9 288.07L1540 639 L-100 639 Z"></animate>
  <animateTransform attributeName="transform" type="translate" dur="43.47826086956522s" begin="0s" repeatCount="indefinite" values="0;10;0" calcMode="spline" keySplines="0.3 0 0.7 1;0.3 0 0.7 1"></animateTransform>
</path><path d="M -100 306.19 C -71.4402 312.392 -72.0024 307.969 -45.7 307.969 S -17.8608 305.022 8.61 305.022 S 36.1375 321.322 62.91 321.322 S 90.3676 307.83 117.22 307.83 S 145.142 316.275 171.52 316.275 S 200.031 307.214 225.83 307.214 S 253.304 313.637 280.13 313.637 S 308.223 310.539 334.44 310.539 S 362.003 311.858 388.74 311.858 S 416.258 307.752 443.05 307.752 S 471.208 312.813 497.35 312.813 S 525.591 309.525 551.66 309.525 S 579.663 319.076 605.96 319.076 S 633.803 310.518 660.26 310.518 S 687.983 322.224 714.57 322.224 S 742.706 307.121 768.87 307.121 S 796.906 318.176 823.18 318.176 S 851.495 312.068 877.48 312.068 S 905.025 315.125 931.79 315.125 S 959.912 310.736 986.09 310.736 S 1014.41 308.313 1040.4 308.313 S 1067.85 311.989 1094.7 311.989 S 1123.12 309.754 1149.01 309.754 S 1176.46 313.065 1203.31 313.065 S 1231.41 320.959 1257.62 320.959 S 1285.66 313.799 1311.92 313.799 S 1340.13 316.755 1366.23 316.755 S 1393.89 307.121 1420.53 307.121 S 1448.06 309.769 1474.83 309.769 S 1502.61 307.775 1529.14 307.775 S 1557.32 321.86 1583.44 321.86 L 1540 639 L -100 639 Z" fill="#6252ba" stroke-width="0" transform="translate(9.32753 0)">
  <animate attributeName="d" dur="39.130434782608695s" repeatCount="indefinite" values="M-100 307.14C-71.31 303.6 -71.69 309.44 -45.7 309.44S-17.21 303.72 8.61 303.72S36.17 322.37 62.91 322.37S90.27 315.49 117.22 315.49S145.37 307.88 171.52 307.88S199.94 306.42 225.83 306.42S253.18 318.31 280.13 318.31S307.39 308.19 334.44 308.19S361.84 310.4 388.74 310.4S416.44 306.06 443.05 306.06S470.57 313.75 497.35 313.75S524.94 313.95 551.66 313.95S580.34 317.95 605.96 317.95S633.38 310.42 660.26 310.42S687.97 321.82 714.57 321.82S742.29 313.72 768.87 313.72S796.62 312.82 823.18 312.82S851.84 307.59 877.48 307.59S905.5 322.46 931.79 322.46S959.86 304.15 986.09 304.15S1014.5 307.46 1040.4 307.46S1067.68 316.89 1094.7 316.89S1123.32 308.83 1149.01 308.83S1176.68 304.78 1203.31 304.78S1231.08 320.51 1257.62 320.51S1285.75 319.5 1311.92 319.5S1339.95 315.59 1366.23 315.59S1394.64 306.9 1420.53 306.9S1448.76 312.99 1474.83 312.99S1503.07 311.53 1529.14 311.53S1556.91 320.48 1583.44 320.48L1540 639 L-100 639 Z;M-100 305.68C-71.51 317.11 -72.17 307.18 -45.7 307.18S-18.21 305.72 8.61 305.72S36.12 320.76 62.91 320.76S90.42 303.72 117.22 303.72S145.02 320.78 171.52 320.78S200.08 307.64 225.83 307.64S253.37 311.13 280.13 311.13S308.67 311.8 334.44 311.8S362.09 312.64 388.74 312.64S416.16 308.66 443.05 308.66S471.55 312.31 497.35 312.31S525.94 307.15 551.66 307.15S579.3 319.68 605.96 319.68S634.03 310.57 660.26 310.57S687.99 322.44 714.57 322.44S742.93 303.58 768.87 303.58S797.06 321.05 823.18 321.05S851.31 314.47 877.48 314.47S904.77 311.19 931.79 311.19S959.94 314.27 986.09 314.27S1014.36 308.77 1040.4 308.77S1067.94 309.36 1094.7 309.36S1123.01 310.25 1149.01 310.25S1176.34 317.51 1203.31 317.51S1231.58 321.2 1257.62 321.2S1285.61 310.74 1311.92 310.74S1340.22 317.38 1366.23 317.38S1393.49 307.24 1420.53 307.24S1447.68 308.04 1474.83 308.04S1502.36 305.76 1529.14 305.76S1557.54 322.6 1583.44 322.6L1540 639 L-100 639 Z;M-100 307.14C-71.31 303.6 -71.69 309.44 -45.7 309.44S-17.21 303.72 8.61 303.72S36.17 322.37 62.91 322.37S90.27 315.49 117.22 315.49S145.37 307.88 171.52 307.88S199.94 306.42 225.83 306.42S253.18 318.31 280.13 318.31S307.39 308.19 334.44 308.19S361.84 310.4 388.74 310.4S416.44 306.06 443.05 306.06S470.57 313.75 497.35 313.75S524.94 313.95 551.66 313.95S580.34 317.95 605.96 317.95S633.38 310.42 660.26 310.42S687.97 321.82 714.57 321.82S742.29 313.72 768.87 313.72S796.62 312.82 823.18 312.82S851.84 307.59 877.48 307.59S905.5 322.46 931.79 322.46S959.86 304.15 986.09 304.15S1014.5 307.46 1040.4 307.46S1067.68 316.89 1094.7 316.89S1123.32 308.83 1149.01 308.83S1176.68 304.78 1203.31 304.78S1231.08 320.51 1257.62 320.51S1285.75 319.5 1311.92 319.5S1339.95 315.59 1366.23 315.59S1394.64 306.9 1420.53 306.9S1448.76 312.99 1474.83 312.99S1503.07 311.53 1529.14 311.53S1556.91 320.48 1583.44 320.48L1540 639 L-100 639 Z"></animate>
  <animateTransform attributeName="transform" type="translate" dur="39.130434782608695s" begin="-3.9130434782608696s" repeatCount="indefinite" values="0;10;0" calcMode="spline" keySplines="0.3 0 0.7 1;0.3 0 0.7 1"></animateTransform>
</path><path d="M -100 331.57 C -70.8823 328.147 -70.9909 330.865 -44.22 330.865 S -15.5291 320.65 11.56 320.65 S 40.2427 330.056 67.35 330.056 S 96.3404 329.945 123.13 329.945 S 152.075 330.334 178.91 330.334 S 207.985 328.815 234.69 328.815 S 262.713 335.91 290.48 335.91 S 319.541 333.702 346.26 333.702 S 374.891 332.664 402.04 332.664 S 430.64 330.629 457.82 330.629 S 486.783 329.625 513.61 329.625 S 542.005 321.329 569.39 321.329 S 598.395 336.783 625.17 336.783 S 654.231 325.548 680.95 325.548 S 709.535 338.556 736.73 338.556 S 765.487 323.562 792.52 323.562 S 821.209 328.73 848.3 328.73 S 876.334 330.21 904.08 330.21 S 933.117 334.863 959.86 334.863 S 988.873 324.084 1015.65 324.084 S 1044.2 330.529 1071.43 330.529 S 1099.77 327.609 1127.21 327.609 S 1155.73 329.655 1182.99 329.655 S 1211.75 329.47 1238.78 329.47 S 1267.43 325.866 1294.56 325.866 S 1323.28 329.072 1350.34 329.072 S 1379.27 333.051 1406.12 333.051 S 1434.73 330.697 1461.9 330.697 S 1490.1 332.606 1517.69 332.606 S 1546.66 331.742 1573.47 331.742 L 1540 639 L -100 639 Z" fill="#5550ab" stroke-width="0" transform="translate(9.46078 0)">
  <animate attributeName="d" dur="34.78260869565218s" repeatCount="indefinite" values="M-100 333.84C-70.67 329.86 -71.13 328.31 -44.22 328.31S-15.8 321.77 11.56 321.77S39.84 340.46 67.35 340.46S95.74 331.9 123.13 331.9S151.65 326.38 178.91 326.38S207.18 321.64 234.69 321.64S262.75 336.62 290.48 336.62S319.27 338.41 346.26 338.41S375.55 334.15 402.04 334.15S431.24 330.68 457.82 330.68S487.2 333.11 513.61 333.11S541.72 326 569.39 326S598.19 331.35 625.17 331.35S653.66 326.58 680.95 326.58S709.85 337.78 736.73 337.78S765.67 326.63 792.52 326.63S820.88 330.89 848.3 330.89S876.21 330.1 904.08 330.1S933 331.1 959.86 331.1S988.17 332.98 1015.65 332.98S1043.61 341.65 1071.43 341.65S1100.8 327.28 1127.21 327.28S1156.61 330.57 1182.99 330.57S1212.31 334.5 1238.78 334.5S1266.73 323.67 1294.56 323.67S1323.83 328.75 1350.34 328.75S1379.78 321 1406.12 321S1434.46 322.35 1461.9 322.35S1490.04 334.89 1517.69 334.89S1546.92 334.92 1573.47 334.92L1540 639 L-100 639 Z;M-100 330.74C-70.96 327.52 -70.94 331.8 -44.22 331.8S-15.43 320.24 11.56 320.24S40.39 326.25 67.35 326.25S96.56 329.23 123.13 329.23S152.23 331.78 178.91 331.78S208.28 331.44 234.69 331.44S262.7 335.65 290.48 335.65S319.64 331.98 346.26 331.98S374.65 332.12 402.04 332.12S430.42 330.61 457.82 330.61S486.63 328.35 513.61 328.35S542.11 319.62 569.39 319.62S598.47 338.77 625.17 338.77S654.44 325.17 680.95 325.17S709.42 338.84 736.73 338.84S765.42 322.44 792.52 322.44S821.33 327.94 848.3 327.94S876.38 330.25 904.08 330.25S933.16 336.24 959.86 336.24S989.13 320.83 1015.65 320.83S1044.42 326.46 1071.43 326.46S1099.39 327.73 1127.21 327.73S1155.41 329.32 1182.99 329.32S1211.55 327.63 1238.78 327.63S1267.69 326.67 1294.56 326.67S1323.08 329.19 1350.34 329.19S1379.08 337.46 1406.12 337.46S1434.83 333.75 1461.9 333.75S1490.12 331.77 1517.69 331.77S1546.57 330.58 1573.47 330.58L1540 639 L-100 639 Z;M-100 333.84C-70.67 329.86 -71.13 328.31 -44.22 328.31S-15.8 321.77 11.56 321.77S39.84 340.46 67.35 340.46S95.74 331.9 123.13 331.9S151.65 326.38 178.91 326.38S207.18 321.64 234.69 321.64S262.75 336.62 290.48 336.62S319.27 338.41 346.26 338.41S375.55 334.15 402.04 334.15S431.24 330.68 457.82 330.68S487.2 333.11 513.61 333.11S541.72 326 569.39 326S598.19 331.35 625.17 331.35S653.66 326.58 680.95 326.58S709.85 337.78 736.73 337.78S765.67 326.63 792.52 326.63S820.88 330.89 848.3 330.89S876.21 330.1 904.08 330.1S933 331.1 959.86 331.1S988.17 332.98 1015.65 332.98S1043.61 341.65 1071.43 341.65S1100.8 327.28 1127.21 327.28S1156.61 330.57 1182.99 330.57S1212.31 334.5 1238.78 334.5S1266.73 323.67 1294.56 323.67S1323.83 328.75 1350.34 328.75S1379.78 321 1406.12 321S1434.46 322.35 1461.9 322.35S1490.04 334.89 1517.69 334.89S1546.92 334.92 1573.47 334.92L1540 639 L-100 639 Z"></animate>
  <animateTransform attributeName="transform" type="translate" dur="34.78260869565218s" begin="-6.9565217391304355s" repeatCount="indefinite" values="0;10;0" calcMode="spline" keySplines="0.3 0 0.7 1;0.3 0 0.7 1"></animateTransform>
</path><path d="M -100 348.308 C -70.7657 337.945 -70.4237 353.232 -42.66 353.232 S -13.6663 339.563 14.69 339.563 S 44.9304 359.546 72.03 359.546 S 101.966 341.793 129.37 341.793 S 159.3 355.284 186.71 355.284 S 215.751 349.892 244.06 349.892 S 273.006 359.969 301.4 359.969 S 331.126 347.442 358.74 347.442 S 388.424 352.818 416.08 352.818 S 446.26 348.003 473.43 348.003 S 502.66 352.341 530.77 352.341 S 559.693 342.844 588.11 342.844 S 617.975 355.917 645.45 355.917 S 675.339 350.048 702.8 350.048 S 732.719 355.405 760.14 355.405 S 789.942 341.382 817.48 341.382 S 846.803 354.399 874.83 354.399 S 904.316 349.072 932.17 349.072 S 960.976 349.01 989.51 349.01 S 1018.18 337.18 1046.85 337.18 S 1076.15 351.459 1104.2 351.459 S 1133.86 338.639 1161.54 338.639 S 1190.66 350.631 1218.88 350.631 S 1248.9 355.128 1276.22 355.128 S 1305.67 356.269 1333.57 356.269 S 1362.58 336.412 1390.91 336.412 S 1420.93 350.101 1448.25 350.101 S 1477.89 348.269 1505.59 348.269 S 1534.48 350.566 1562.94 350.566 L 1540 639 L -100 639 Z" fill="#494c9b" stroke-width="0" transform="translate(5.89991 0)">
  <animate attributeName="d" dur="30.434782608695656s" repeatCount="indefinite" values="M-100 340.92C-71 341.71 -70.34 354.88 -42.66 354.88S-12.93 339.27 14.69 339.27S44.83 360.24 72.03 360.24S100.92 348.88 129.37 348.88S159.25 356.23 186.71 356.23S216.01 360.51 244.06 360.51S273.5 357.04 301.4 357.04S330.49 357.65 358.74 357.65S388.24 354.09 416.08 354.09S445.9 360.78 473.43 360.78S502.3 346.3 530.77 346.3S560.12 342.3 588.11 342.3S618.05 346.42 645.45 346.42S675.49 343.89 702.8 343.89S732.92 351.74 760.14 351.74S789.85 340.11 817.48 340.11S846.56 346.04 874.83 346.04S904.04 347.8 932.17 347.8S961.52 356.75 989.51 356.75S1018.21 340.46 1046.85 340.46S1075.61 343.2 1104.2 343.2S1133.91 350.63 1161.54 350.63S1191.31 357.71 1218.88 357.71S1248.81 336 1276.22 336S1305.58 346.73 1333.57 346.73S1363.56 341.14 1390.91 341.14S1419.93 345.7 1448.25 345.7S1478.06 344.42 1505.59 344.42S1534.76 339.99 1562.94 339.99L1540 639 L-100 639 Z;M-100 349.75C-70.72 337.21 -70.44 352.91 -42.66 352.91S-13.81 339.62 14.69 339.62S44.95 359.41 72.03 359.41S102.17 340.41 129.37 340.41S159.31 355.1 186.71 355.1S215.7 347.82 244.06 347.82S272.91 360.54 301.4 360.54S331.25 345.45 358.74 345.45S388.46 352.57 416.08 352.57S446.33 345.51 473.43 345.51S502.73 353.52 530.77 353.52S559.61 342.95 588.11 342.95S617.96 357.77 645.45 357.77S675.31 351.25 702.8 351.25S732.68 356.12 760.14 356.12S789.96 341.63 817.48 341.63S846.85 356.03 874.83 356.03S904.37 349.32 932.17 349.32S960.87 347.5 989.51 347.5S1018.18 336.54 1046.85 336.54S1076.26 353.07 1104.2 353.07S1133.85 336.3 1161.54 336.3S1190.53 349.25 1218.88 349.25S1248.92 358.86 1276.22 358.86S1305.69 358.13 1333.57 358.13S1362.39 335.49 1390.91 335.49S1421.12 350.96 1448.25 350.96S1477.86 349.02 1505.59 349.02S1534.43 352.63 1562.94 352.63L1540 639 L-100 639 Z;M-100 340.92C-71 341.71 -70.34 354.88 -42.66 354.88S-12.93 339.27 14.69 339.27S44.83 360.24 72.03 360.24S100.92 348.88 129.37 348.88S159.25 356.23 186.71 356.23S216.01 360.51 244.06 360.51S273.5 357.04 301.4 357.04S330.49 357.65 358.74 357.65S388.24 354.09 416.08 354.09S445.9 360.78 473.43 360.78S502.3 346.3 530.77 346.3S560.12 342.3 588.11 342.3S618.05 346.42 645.45 346.42S675.49 343.89 702.8 343.89S732.92 351.74 760.14 351.74S789.85 340.11 817.48 340.11S846.56 346.04 874.83 346.04S904.04 347.8 932.17 347.8S961.52 356.75 989.51 356.75S1018.21 340.46 1046.85 340.46S1075.61 343.2 1104.2 343.2S1133.91 350.63 1161.54 350.63S1191.31 357.71 1218.88 357.71S1248.81 336 1276.22 336S1305.58 346.73 1333.57 346.73S1363.56 341.14 1390.91 341.14S1419.93 345.7 1448.25 345.7S1478.06 344.42 1505.59 344.42S1534.76 339.99 1562.94 339.99L1540 639 L-100 639 Z"></animate>
  <animateTransform attributeName="transform" type="translate" dur="30.434782608695656s" begin="-9.130434782608697s" repeatCount="indefinite" values="0;10;0" calcMode="spline" keySplines="0.3 0 0.7 1;0.3 0 0.7 1"></animateTransform>
</path><path d="M -100 367.123 C -69.8617 355.557 -70.1864 357.293 -41.01 357.293 S -9.95619 369.091 17.99 369.091 S 48.5264 372.911 76.98 372.911 S 106.98 358.319 135.97 358.319 S 166.939 364.271 194.96 364.271 S 225.488 355.075 253.96 355.075 S 283.848 371.713 312.95 371.713 S 343.984 364.655 371.94 364.655 S 402.272 368.357 430.94 368.357 S 461.312 376.015 489.93 376.015 S 520.067 365.027 548.92 365.027 S 579.166 364.133 607.91 364.133 S 638.835 373.571 666.91 373.571 S 696.485 365.647 725.9 365.647 S 755.443 374.316 784.89 374.316 S 815.484 359.158 843.88 359.158 S 874.159 375.76 902.88 375.76 S 933.767 357.772 961.87 357.772 S 992.582 368.922 1020.86 368.922 S 1050.64 352.253 1079.86 352.253 S 1110.47 367.775 1138.85 367.775 S 1169.4 364.064 1197.84 364.064 S 1228.05 378.114 1256.83 378.114 S 1287.36 362.552 1315.83 362.552 S 1346.22 374.487 1374.82 374.487 S 1405.81 360.176 1433.81 360.176 S 1464.17 372.976 1492.81 372.976 S 1522.57 355 1551.8 355 L 1540 639 L -100 639 Z" fill="#3f488b" stroke-width="0" transform="translate(1.37933 0)">
  <animate attributeName="d" dur="26.086956521739133s" repeatCount="indefinite" values="M-100 359.45C-70.34 359.54 -69.63 366.02 -41.01 366.02S-10.21 364.22 17.99 364.22S48.79 369.69 76.98 369.69S107.79 367.3 135.97 367.3S165.68 365.94 194.96 365.94S224.98 358.14 253.96 358.14S285 369.78 312.95 369.78S343.31 357.46 371.94 357.46S402.36 378.88 430.94 378.88S461.8 360.64 489.93 360.64S520.35 366.12 548.92 366.12S579.43 355.63 607.91 355.63S638.2 365.01 666.91 365.01S697.52 364.7 725.9 364.7S755.57 367.61 784.89 367.61S815.65 351.7 843.88 351.7S873.69 365.11 902.88 365.11S933.63 351.71 961.87 351.71S992.65 362.01 1020.86 362.01S1050.96 366.74 1079.86 366.74S1110.65 376.58 1138.85 376.58S1169.53 363 1197.84 363S1227.99 366.4 1256.83 366.4S1286.33 351.99 1315.83 351.99S1346.89 370.68 1374.82 370.68S1404.78 355.07 1433.81 355.07S1464.44 379.38 1492.81 379.38S1523.41 365.25 1551.8 365.25L1540 639 L-100 639 Z;M-100 367.31C-69.85 355.46 -70.2 357.08 -41.01 357.08S-9.95 369.21 17.99 369.21S48.52 372.99 76.98 372.99S106.96 358.1 135.97 358.1S166.97 364.23 194.96 364.23S225.5 355 253.96 355S283.82 371.76 312.95 371.76S344 364.83 371.94 364.83S402.27 368.1 430.94 368.1S461.3 376.39 489.93 376.39S520.06 365 548.92 365S579.16 364.34 607.91 364.34S638.85 373.78 666.91 373.78S696.46 365.67 725.9 365.67S755.44 374.48 784.89 374.48S815.48 359.34 843.88 359.34S874.17 376.02 902.88 376.02S933.77 357.92 961.87 357.92S992.58 369.09 1020.86 369.09S1050.63 351.9 1079.86 351.9S1110.47 367.56 1138.85 367.56S1169.4 364.09 1197.84 364.09S1228.05 378.4 1256.83 378.4S1287.39 362.81 1315.83 362.81S1346.2 374.58 1374.82 374.58S1405.84 360.3 1433.81 360.3S1464.16 372.82 1492.81 372.82S1522.55 354.75 1551.8 354.75L1540 639 L-100 639 Z;M-100 359.45C-70.34 359.54 -69.63 366.02 -41.01 366.02S-10.21 364.22 17.99 364.22S48.79 369.69 76.98 369.69S107.79 367.3 135.97 367.3S165.68 365.94 194.96 365.94S224.98 358.14 253.96 358.14S285 369.78 312.95 369.78S343.31 357.46 371.94 357.46S402.36 378.88 430.94 378.88S461.8 360.64 489.93 360.64S520.35 366.12 548.92 366.12S579.43 355.63 607.91 355.63S638.2 365.01 666.91 365.01S697.52 364.7 725.9 364.7S755.57 367.61 784.89 367.61S815.65 351.7 843.88 351.7S873.69 365.11 902.88 365.11S933.63 351.71 961.87 351.71S992.65 362.01 1020.86 362.01S1050.96 366.74 1079.86 366.74S1110.65 376.58 1138.85 376.58S1169.53 363 1197.84 363S1227.99 366.4 1256.83 366.4S1286.33 351.99 1315.83 351.99S1346.89 370.68 1374.82 370.68S1404.78 355.07 1433.81 355.07S1464.44 379.38 1492.81 379.38S1523.41 365.25 1551.8 365.25L1540 639 L-100 639 Z"></animate>
  <animateTransform attributeName="transform" type="translate" dur="26.086956521739133s" begin="-10.434782608695652s" repeatCount="indefinite" values="0;10;0" calcMode="spline" keySplines="0.3 0 0.7 1;0.3 0 0.7 1"></animateTransform>
</path><path d="M -100 377.842 C -69.546 371.787 -68.0851 395.71 -39.26 395.71 S -8.00658 370.453 21.48 370.453 S 53.2548 393.33 82.22 393.33 S 113.229 373.042 142.96 373.042 S 174.219 388.978 203.7 388.978 S 235.585 385.223 264.44 385.223 S 294.893 384.321 325.19 384.321 S 356.874 379.546 385.93 379.546 S 417.409 391.559 446.67 391.559 S 477.773 372.427 507.41 372.427 S 538.505 391.921 568.15 391.921 S 598.566 368.982 628.89 368.982 S 659.819 387.487 689.63 387.487 S 720.425 379.956 750.37 379.956 S 781.968 388.238 811.11 388.238 S 842.681 375.586 871.85 375.586 S 902.967 387.184 932.59 387.184 S 964.007 375.601 993.33 375.601 S 1024.55 393.835 1054.07 393.835 S 1085.84 375.936 1114.81 375.936 S 1145.47 390.579 1175.56 390.579 S 1206.31 383.76 1236.3 383.76 S 1267.93 392.763 1297.04 392.763 S 1327.7 377.835 1357.78 377.835 S 1389.49 384.516 1418.52 384.516 S 1449.8 373.37 1479.26 373.37 S 1510.63 389.221 1540 389.221 S 1570.82 380.779 1600.74 380.779 L 1540 639 L -100 639 Z" fill="#37447b" stroke-width="0" transform="translate(0.863326 0)">
  <animate attributeName="d" dur="21.73913043478261s" repeatCount="indefinite" values="M-100 381.14C-69.43 383.13 -68.11 398.27 -39.26 398.27S-8.86 382.26 21.48 382.26S52.65 393.09 82.22 393.09S112.84 380.88 142.96 380.88S174.89 398.39 203.7 398.39S235.37 395.82 264.44 395.82S294.91 377.9 325.19 377.9S356.46 376.19 385.93 376.19S416.92 387.83 446.67 387.83S477.79 377.92 507.41 377.92S539.3 398.16 568.15 398.16S598.74 373.63 628.89 373.63S659.62 393.85 689.63 393.85S720.98 374.86 750.37 374.86S782.25 384.12 811.11 384.12S841.96 381.46 871.85 381.46S902.76 391.6 932.59 391.6S964.43 378.12 993.33 378.12S1024.83 378.01 1054.07 378.01S1085.5 372 1114.81 372S1146.57 397.39 1175.56 397.39S1206.87 381.49 1236.3 381.49S1267.93 383.69 1297.04 383.69S1328.01 372.88 1357.78 372.88S1389.22 378.55 1418.52 378.55S1449.59 378.64 1479.26 378.64S1510.92 387.44 1540 387.44S1571.33 373.43 1600.74 373.43L1540 639 L-100 639 Z;M-100 377.16C-69.57 369.44 -68.08 395.18 -39.26 395.18S-7.83 368.01 21.48 368.01S53.38 393.38 82.22 393.38S113.31 371.42 142.96 371.42S174.08 387.03 203.7 387.03S235.63 383.03 264.44 383.03S294.89 385.65 325.19 385.65S356.96 380.24 385.93 380.24S417.51 392.33 446.67 392.33S477.77 371.29 507.41 371.29S538.34 390.63 568.15 390.63S598.53 368.02 628.89 368.02S659.86 386.17 689.63 386.17S720.31 381.01 750.37 381.01S781.91 389.09 811.11 389.09S842.83 374.37 871.85 374.37S903.01 386.27 932.59 386.27S963.92 375.08 993.33 375.08S1024.49 397.11 1054.07 397.11S1085.91 376.75 1114.81 376.75S1145.24 389.17 1175.56 389.17S1206.2 384.23 1236.3 384.23S1267.93 394.64 1297.04 394.64S1327.63 378.86 1357.78 378.86S1389.54 385.75 1418.52 385.75S1449.84 372.28 1479.26 372.28S1510.57 389.59 1540 389.59S1570.72 382.3 1600.74 382.3L1540 639 L-100 639 Z;M-100 381.14C-69.43 383.13 -68.11 398.27 -39.26 398.27S-8.86 382.26 21.48 382.26S52.65 393.09 82.22 393.09S112.84 380.88 142.96 380.88S174.89 398.39 203.7 398.39S235.37 395.82 264.44 395.82S294.91 377.9 325.19 377.9S356.46 376.19 385.93 376.19S416.92 387.83 446.67 387.83S477.79 377.92 507.41 377.92S539.3 398.16 568.15 398.16S598.74 373.63 628.89 373.63S659.62 393.85 689.63 393.85S720.98 374.86 750.37 374.86S782.25 384.12 811.11 384.12S841.96 381.46 871.85 381.46S902.76 391.6 932.59 391.6S964.43 378.12 993.33 378.12S1024.83 378.01 1054.07 378.01S1085.5 372 1114.81 372S1146.57 397.39 1175.56 397.39S1206.87 381.49 1236.3 381.49S1267.93 383.69 1297.04 383.69S1328.01 372.88 1357.78 372.88S1389.22 378.55 1418.52 378.55S1449.59 378.64 1479.26 378.64S1510.92 387.44 1540 387.44S1571.33 373.43 1600.74 373.43L1540 639 L-100 639 Z"></animate>
  <animateTransform attributeName="transform" type="translate" dur="21.73913043478261s" begin="-10.869565217391305s" repeatCount="indefinite" values="0;10;0" calcMode="spline" keySplines="0.3 0 0.7 1;0.3 0 0.7 1"></animateTransform>
</path><path d="M -100 390.743 C -68.0286 388.006 -68.31 409.256 -37.4 409.256 S -5.37609 393.392 25.19 393.392 S 57.5921 416.908 87.79 416.908 S 119.51 393.809 150.38 393.809 S 182.42 411.317 212.98 411.317 S 244.948 387.737 275.57 387.737 S 307.96 404.63 338.17 404.63 S 370.46 393.778 400.76 393.778 S 432.607 408.779 463.36 408.779 S 495.159 385.686 525.95 385.686 S 557.762 409.589 588.55 409.589 S 620.361 388.8 651.15 388.8 S 683.292 414.226 713.74 414.226 S 745.551 395.48 776.34 395.48 S 807.971 413.399 838.93 413.399 S 870.406 393.523 901.53 393.523 S 933.554 414.256 964.12 414.256 S 996.735 397.207 1026.72 397.207 S 1058.99 408.943 1089.31 408.943 S 1121 387.766 1151.91 387.766 S 1184.38 416.326 1214.5 416.326 S 1246.03 393.638 1277.1 393.638 S 1308.61 405.094 1339.69 405.094 S 1371.67 392.249 1402.29 392.249 S 1434.2 413.518 1464.89 413.518 S 1496.82 393.515 1527.48 393.515 S 1559.5 408.063 1590.08 408.063 L 1540 639 L -100 639 Z" fill="#323f6a" stroke-width="0" transform="translate(7.28055 0)">
  <animate attributeName="d" dur="17.39130434782609s" repeatCount="indefinite" values="M-100 397.6C-68.05 390.39 -68.31 412.02 -37.4 412.02S-5.96 388.48 25.19 388.48S57.41 415.89 87.79 415.89S119.43 390.15 150.38 390.15S182.27 405.74 212.98 405.74S245.51 386.43 275.57 386.43S307.59 402.61 338.17 402.61S370.46 390.35 400.76 390.35S433.03 407.89 463.36 407.89S494.72 383.65 525.95 383.65S558.11 406.53 588.55 406.53S620.35 388.28 651.15 388.28S683.56 409.63 713.74 409.63S745.76 398.26 776.34 398.26S807.73 410.19 838.93 410.19S870.46 394.3 901.53 394.3S934.1 413.79 964.12 413.79S996.81 399.35 1026.72 399.35S1058.79 411.9 1089.31 411.9S1121.42 388.42 1151.91 388.42S1183.91 417.66 1214.5 417.66S1246.05 388.12 1277.1 388.12S1308.43 406.09 1339.69 406.09S1371.21 396.09 1402.29 396.09S1434.54 412.42 1464.89 412.42S1496.41 398.24 1527.48 398.24S1559.93 411.02 1590.08 411.02L1540 639 L-100 639 Z;M-100 384.8C-68.01 385.94 -68.31 406.86 -37.4 406.86S-4.87 397.65 25.19 397.65S57.75 417.79 87.79 417.79S119.58 396.98 150.38 396.98S182.55 416.15 212.98 416.15S244.46 388.87 275.57 388.87S308.28 406.38 338.17 406.38S370.46 396.75 400.76 396.75S432.24 409.55 463.36 409.55S495.54 387.45 525.95 387.45S557.46 412.24 588.55 412.24S620.37 389.25 651.15 389.25S683.06 418.21 713.74 418.21S745.37 393.07 776.34 393.07S808.18 416.18 838.93 416.18S870.36 392.85 901.53 392.85S933.08 414.66 964.12 414.66S996.67 395.35 1026.72 395.35S1059.16 406.38 1089.31 406.38S1120.64 387.2 1151.91 387.2S1184.79 415.17 1214.5 415.17S1246.02 398.42 1277.1 398.42S1308.76 404.23 1339.69 404.23S1372.06 388.92 1402.29 388.92S1433.9 414.47 1464.89 414.47S1497.17 389.42 1527.48 389.42S1559.12 405.5 1590.08 405.5L1540 639 L-100 639 Z;M-100 397.6C-68.05 390.39 -68.31 412.02 -37.4 412.02S-5.96 388.48 25.19 388.48S57.41 415.89 87.79 415.89S119.43 390.15 150.38 390.15S182.27 405.74 212.98 405.74S245.51 386.43 275.57 386.43S307.59 402.61 338.17 402.61S370.46 390.35 400.76 390.35S433.03 407.89 463.36 407.89S494.72 383.65 525.95 383.65S558.11 406.53 588.55 406.53S620.35 388.28 651.15 388.28S683.56 409.63 713.74 409.63S745.76 398.26 776.34 398.26S807.73 410.19 838.93 410.19S870.46 394.3 901.53 394.3S934.1 413.79 964.12 413.79S996.81 399.35 1026.72 399.35S1058.79 411.9 1089.31 411.9S1121.42 388.42 1151.91 388.42S1183.91 417.66 1214.5 417.66S1246.05 388.12 1277.1 388.12S1308.43 406.09 1339.69 406.09S1371.21 396.09 1402.29 396.09S1434.54 412.42 1464.89 412.42S1496.41 398.24 1527.48 398.24S1559.93 411.02 1590.08 411.02L1540 639 L-100 639 Z"></animate>
  <animateTransform attributeName="transform" type="translate" dur="17.39130434782609s" begin="-10.434782608695652s" repeatCount="indefinite" values="0;10;0" calcMode="spline" keySplines="0.3 0 0.7 1;0.3 0 0.7 1"></animateTransform>
</path><path d="M -100 412.804 C -67.3415 410.708 -67.2667 424.658 -35.43 424.658 S -1.77333 409.121 29.13 409.121 S 62.3167 433.548 93.7 433.548 S 126.574 435.886 158.27 435.886 S 191.947 424.52 222.83 424.52 S 255.269 407.329 287.4 407.329 S 320.665 429.345 351.97 429.345 S 384.741 436.57 416.54 436.57 S 449.681 425 481.1 425 S 513.577 413.27 545.67 413.27 S 578.473 433.495 610.24 433.495 S 643.975 413.688 674.8 413.688 S 707.922 422.73 739.37 422.73 S 771.998 408.225 803.94 408.225 S 836.875 432.481 868.5 432.481 S 901.475 414.183 933.07 414.183 S 966.889 423.511 997.64 423.511 S 1030.01 399.922 1062.2 399.922 S 1095.65 431.328 1126.77 431.328 S 1159.57 405.515 1191.34 405.515 S 1224.62 422.343 1255.91 422.343 S 1289.28 403.834 1320.47 403.834 S 1354.13 431.592 1385.04 431.592 S 1418.34 412.28 1449.61 412.28 S 1483.08 414.821 1514.17 414.821 S 1547.65 409.849 1578.74 409.849 L 1540 639 L -100 639 Z" fill="#2e3a5a" stroke-width="0" transform="translate(7.06038 0)">
  <animate attributeName="d" dur="13.043478260869566s" repeatCount="indefinite" values="M-100 413.15C-67.4 411.19 -67.27 424.46 -35.43 424.46S-1.77 409.54 29.13 409.54S62.36 433.69 93.7 433.69S126.54 437.43 158.27 437.43S191.97 424.24 222.83 424.24S255.24 406.98 287.4 406.98S320.67 429.31 351.97 429.31S384.72 436.62 416.54 436.62S449.71 424.64 481.1 424.64S513.57 413.67 545.67 413.67S578.42 433.52 610.24 433.52S644.04 413.96 674.8 413.96S707.91 422.71 739.37 422.71S771.97 408.4 803.94 408.4S836.86 432.37 868.5 432.37S901.43 414.44 933.07 414.44S966.9 422.88 997.64 422.88S1029.98 399.86 1062.2 399.86S1095.69 431.73 1126.77 431.73S1159.55 405.06 1191.34 405.06S1224.63 421.99 1255.91 421.99S1289.26 403.49 1320.47 403.49S1354.16 431.67 1385.04 431.67S1418.37 411.46 1449.61 411.46S1483.11 414.09 1514.17 414.09S1547.65 408.74 1578.74 408.74L1540 639 L-100 639 Z;M-100 405.89C-66.17 401.06 -67.2 428.62 -35.43 428.62S-1.84 400.74 29.13 400.74S61.45 430.7 93.7 430.7S127.25 405 158.27 405S191.49 430.13 222.83 430.13S255.85 414.32 287.4 414.32S320.56 430.04 351.97 430.04S385.17 435.56 416.54 435.56S449.11 432.2 481.1 432.2S513.71 405.27 545.67 405.27S579.53 433 610.24 433S642.68 408.24 674.8 408.24S708.16 423.13 739.37 423.13S772.55 404.72 803.94 404.72S837.17 434.71 868.5 434.71S902.38 409.05 933.07 409.05S966.66 436.14 997.64 436.14S1030.63 401.16 1062.2 401.16S1094.95 423.28 1126.77 423.28S1159.89 414.61 1191.34 414.61S1224.46 429.41 1255.91 429.41S1289.72 410.72 1320.47 410.72S1353.48 430.03 1385.04 430.03S1417.81 428.69 1449.61 428.69S1482.4 429.44 1514.17 429.44S1547.55 432.05 1578.74 432.05L1540 639 L-100 639 Z;M-100 413.15C-67.4 411.19 -67.27 424.46 -35.43 424.46S-1.77 409.54 29.13 409.54S62.36 433.69 93.7 433.69S126.54 437.43 158.27 437.43S191.97 424.24 222.83 424.24S255.24 406.98 287.4 406.98S320.67 429.31 351.97 429.31S384.72 436.62 416.54 436.62S449.71 424.64 481.1 424.64S513.57 413.67 545.67 413.67S578.42 433.52 610.24 433.52S644.04 413.96 674.8 413.96S707.91 422.71 739.37 422.71S771.97 408.4 803.94 408.4S836.86 432.37 868.5 432.37S901.43 414.44 933.07 414.44S966.9 422.88 997.64 422.88S1029.98 399.86 1062.2 399.86S1095.69 431.73 1126.77 431.73S1159.55 405.06 1191.34 405.06S1224.63 421.99 1255.91 421.99S1289.26 403.49 1320.47 403.49S1354.16 431.67 1385.04 431.67S1418.37 411.46 1449.61 411.46S1483.11 414.09 1514.17 414.09S1547.65 408.74 1578.74 408.74L1540 639 L-100 639 Z"></animate>
  <animateTransform attributeName="transform" type="translate" dur="13.043478260869566s" begin="-9.130434782608697s" repeatCount="indefinite" values="0;10;0" calcMode="spline" keySplines="0.3 0 0.7 1;0.3 0 0.7 1"></animateTransform>
</path><path d="M -100 415.671 C -66.6264 417.305 -65.2299 449.167 -33.33 449.167 S 0.780705 421.953 33.33 421.953 S 67.9586 440.73 100 440.73 S 133.736 421.394 166.67 421.394 S 201.138 448.395 233.33 448.395 S 267.971 420.143 300 420.143 S 333.545 450.171 366.67 450.171 S 400.201 421.03 433.33 421.03 S 467.199 447.057 500 447.057 S 533.377 422.271 566.67 422.271 S 600.893 431.132 633.33 431.132 S 667.042 417.698 700 417.698 S 733.54 444.608 766.67 444.608 S 800.172 423.894 833.33 423.894 S 868.185 451.141 900 451.141 S 934.169 417.479 966.67 417.479 S 1000.52 440.899 1033.33 440.899 S 1067.91 421.951 1100 421.951 S 1134.3 429.816 1166.67 429.816 S 1201.02 452.236 1233.33 452.236 S 1268.09 445.848 1300 445.848 S 1333.7 428.314 1366.67 428.314 S 1401.11 444.6 1433.33 444.6 S 1467.01 423.333 1500 423.333 S 1533.46 419.398 1566.67 419.398 L 1540 639 L -100 639 Z" fill="#2b3449" stroke-width="0" transform="translate(5.40826 0)">
  <animate attributeName="d" dur="8.695652173913045s" repeatCount="indefinite" values="M-100 419.06C-66.58 426.6 -66.53 444.58 -33.33 444.58S1.05 448.79 33.33 448.79S67.55 426.43 100 426.43S133.68 418.07 166.67 418.07S200.2 444.04 233.33 444.04S267.33 421.87 300 421.87S333.87 449.02 366.67 449.02S400.86 417.78 433.33 417.78S467.45 446.11 500 446.11S533.6 422.54 566.67 422.54S601.45 452.75 633.33 452.75S667.07 415.72 700 415.72S733.93 453.81 766.67 453.81S800.2 419.78 833.33 419.78S867.99 449.86 900 449.86S933.37 426.7 966.67 426.7S1001.48 415.91 1033.33 415.91S1066.85 427.95 1100 427.95S1134.83 452.01 1166.67 452.01S1201.07 416.15 1233.33 416.15S1266.74 430.08 1300 430.08S1334.69 421.34 1366.67 421.34S1401.28 451.63 1433.33 451.63S1468.25 424.41 1500 424.41S1533.91 447.85 1566.67 447.85L1540 639 L-100 639 Z;M-100 415.41C-66.63 416.59 -65.13 449.52 -33.33 449.52S0.76 419.89 33.33 419.89S67.99 441.83 100 441.83S133.74 421.65 166.67 421.65S201.21 448.73 233.33 448.73S268.02 420.01 300 420.01S333.52 450.26 366.67 450.26S400.15 421.28 433.33 421.28S467.18 447.13 500 447.13S533.36 422.25 566.67 422.25S600.85 429.47 633.33 429.47S667.04 417.85 700 417.85S733.51 443.9 766.67 443.9S800.17 424.21 833.33 424.21S868.2 451.24 900 451.24S934.23 416.77 966.67 416.77S1000.45 442.82 1033.33 442.82S1067.99 421.49 1100 421.49S1134.26 428.11 1166.67 428.11S1201.02 455.01 1233.33 455.01S1268.19 447.06 1300 447.06S1333.62 428.85 1366.67 428.85S1401.1 444.06 1433.33 444.06S1466.91 423.25 1500 423.25S1533.42 417.21 1566.67 417.21L1540 639 L-100 639 Z;M-100 419.06C-66.58 426.6 -66.53 444.58 -33.33 444.58S1.05 448.79 33.33 448.79S67.55 426.43 100 426.43S133.68 418.07 166.67 418.07S200.2 444.04 233.33 444.04S267.33 421.87 300 421.87S333.87 449.02 366.67 449.02S400.86 417.78 433.33 417.78S467.45 446.11 500 446.11S533.6 422.54 566.67 422.54S601.45 452.75 633.33 452.75S667.07 415.72 700 415.72S733.93 453.81 766.67 453.81S800.2 419.78 833.33 419.78S867.99 449.86 900 449.86S933.37 426.7 966.67 426.7S1001.48 415.91 1033.33 415.91S1066.85 427.95 1100 427.95S1134.83 452.01 1166.67 452.01S1201.07 416.15 1233.33 416.15S1266.74 430.08 1300 430.08S1334.69 421.34 1366.67 421.34S1401.28 451.63 1433.33 451.63S1468.25 424.41 1500 424.41S1533.91 447.85 1566.67 447.85L1540 639 L-100 639 Z"></animate>
  <animateTransform attributeName="transform" type="translate" dur="8.695652173913045s" begin="-6.9565217391304355s" repeatCount="indefinite" values="0;10;0" calcMode="spline" keySplines="0.3 0 0.7 1;0.3 0 0.7 1"></animateTransform>
</path><path d="M -100 434.404 C -64.7186 445.325 -65.1257 466.476 -31.09 466.476 S 4.50712 443.749 37.82 443.749 S 72.9286 462.096 106.72 462.096 S 142.151 433.573 175.63 433.573 S 210.3 467.512 244.54 467.512 S 280.167 437.109 313.45 437.109 S 349.304 462.648 382.35 462.648 S 417.876 467.929 451.26 467.929 S 486.12 469.322 520.17 469.322 S 555.077 436.373 589.08 436.373 S 624.647 468.722 657.98 468.722 S 693.776 434.672 726.89 434.672 S 762.647 436.775 795.8 436.775 S 831.264 437.998 864.71 437.998 S 899.984 464.076 933.61 464.076 S 968.643 441.116 1002.52 441.116 S 1037.75 439.414 1071.43 439.414 S 1106.42 435.279 1140.34 435.279 S 1175.96 468.312 1209.24 468.312 S 1244.53 435.009 1278.15 435.009 S 1313.31 441.371 1347.06 441.371 S 1382.23 469.583 1415.97 469.583 S 1451.68 442.666 1484.87 442.666 S 1519.59 435.618 1553.78 435.618 L 1540 639 L -100 639 Z" fill="#292e39" stroke-width="0" transform="translate(2.81249 0)">
  <animate attributeName="d" dur="4.347826086956522s" repeatCount="indefinite" values="M-100 433.37C-64.78 446.55 -65.13 471.4 -31.09 471.4S4.46 444.14 37.82 444.14S72.98 460.34 106.72 460.34S142.09 433.91 175.63 433.91S210.23 466.31 244.54 466.31S280.14 435.62 313.45 435.62S349.28 461.32 382.35 461.32S417.83 471.89 451.26 471.89S485.96 470.54 520.17 470.54S555.05 435.75 589.08 435.75S624.58 469.37 657.98 469.37S693.87 434.94 726.89 434.94S762.7 431.69 795.8 431.69S831.34 437.49 864.71 437.49S899.89 464.41 933.61 464.41S968.57 442.52 1002.52 442.52S1037.71 439.51 1071.43 439.51S1106.44 435.38 1140.34 435.38S1176 473.27 1209.24 473.27S1244.47 435.3 1278.15 435.3S1313.23 436.48 1347.06 436.48S1382.1 474.17 1415.97 474.17S1451.74 439.12 1484.87 439.12S1519.52 435.27 1553.78 435.27L1540 639 L-100 639 Z;M-100 440.61C-64.35 437.97 -65.1 436.92 -31.09 436.92S4.79 441.4 37.82 441.4S72.62 472.64 106.72 472.64S142.52 431.55 175.63 431.55S210.72 474.73 244.54 474.73S280.33 446.05 313.45 446.05S349.45 470.62 382.35 470.62S418.15 444.15 451.26 444.15S487.08 462.01 520.17 462.01S555.24 440.11 589.08 440.11S625.05 464.83 657.98 464.83S693.21 433.06 726.89 433.06S762.33 467.3 795.8 467.3S830.81 441.05 864.71 441.05S900.55 462.07 933.61 462.07S969.08 432.69 1002.52 432.69S1037.98 438.84 1071.43 438.84S1106.29 434.67 1140.34 434.67S1175.7 438.55 1209.24 438.55S1244.89 433.26 1278.15 433.26S1313.76 470.73 1347.06 470.73S1383 442.05 1415.97 442.05S1451.33 463.95 1484.87 463.95S1520 437.71 1553.78 437.71L1540 639 L-100 639 Z;M-100 433.37C-64.78 446.55 -65.13 471.4 -31.09 471.4S4.46 444.14 37.82 444.14S72.98 460.34 106.72 460.34S142.09 433.91 175.63 433.91S210.23 466.31 244.54 466.31S280.14 435.62 313.45 435.62S349.28 461.32 382.35 461.32S417.83 471.89 451.26 471.89S485.96 470.54 520.17 470.54S555.05 435.75 589.08 435.75S624.58 469.37 657.98 469.37S693.87 434.94 726.89 434.94S762.7 431.69 795.8 431.69S831.34 437.49 864.71 437.49S899.89 464.41 933.61 464.41S968.57 442.52 1002.52 442.52S1037.71 439.51 1071.43 439.51S1106.44 435.38 1140.34 435.38S1176 473.27 1209.24 473.27S1244.47 435.3 1278.15 435.3S1313.23 436.48 1347.06 436.48S1382.1 474.17 1415.97 474.17S1451.74 439.12 1484.87 439.12S1519.52 435.27 1553.78 435.27L1540 639 L-100 639 Z"></animate>
  <animateTransform attributeName="transform" type="translate" dur="4.347826086956522s" begin="-3.91304347826087s" repeatCount="indefinite" values="0;10;0" calcMode="spline" keySplines="0.3 0 0.7 1;0.3 0 0.7 1"></animateTransform>
</path></g>
</svg>