<?xml version="1.0" encoding="utf-8"?>
<svg xmlns="http://www.w3.org/2000/svg" xmlns:xlink="http://www.w3.org/1999/xlink" style="margin: auto; background: none; display: block; z-index: 1; position: relative; shape-rendering: auto;" width="1440" height="639" preserveAspectRatio="xMidYMid" viewBox="0 0 1440 639">
<g transform=""><path d="M -100 373.9 C -72.6315 377.365 -73.0729 377.917 -47.1 377.917 S -19.8403 379.831 5.81 379.831 S 32.7182 375.962 58.71 375.962 S 86.2763 385.646 111.61 385.646 S 138.931 373.92 164.52 373.92 S 191.657 382.595 217.42 382.595 S 245.228 384.285 270.32 384.285 S 297.278 380.333 323.23 380.333 S 350.948 378.2 376.13 378.2 S 403.996 378.183 429.03 378.183 S 456.702 378.745 481.94 378.745 S 509.466 381.494 534.84 381.494 S 562.315 372.42 587.74 372.42 S 615.455 377.204 640.65 377.204 S 667.811 379.004 693.55 379.004 S 720.806 372.06 746.45 372.06 S 774.255 385.726 799.35 385.726 S 826.441 384.093 852.26 384.093 S 879.154 381.183 905.16 381.183 S 932.822 373.258 958.06 373.258 S 985.361 376.813 1010.97 376.813 S 1037.88 375.851 1063.87 375.851 S 1091.27 374.823 1116.77 374.823 S 1143.41 373.663 1169.68 373.663 S 1197.48 372.002 1222.58 372.002 S 1249.44 377.225 1275.48 377.225 S 1303.19 372.987 1328.39 372.987 S 1355.15 373.23 1381.29 373.23 S 1408.53 384.337 1434.19 384.337 S 1461.11 373.738 1487.1 373.738 S 1514.39 372.582 1540 372.582 S 1567.16 382.627 1592.9 382.627 L 1540 639 L -100 639 Z" fill="#6c5ba7" stroke-width="0" transform="translate(0.698226 0)">
  <animate attributeName="d" dur="100s" repeatCount="indefinite" values="M-100 374.43C-72.63 377.42 -73.21 377.39 -47.1 377.39S-19.95 380.9 5.81 380.9S32.61 375.43 58.71 375.43S86.45 385.55 111.61 385.55S139.06 372.64 164.52 372.64S191.5 384.58 217.42 384.58S245.33 385.69 270.32 385.69S297.34 381.37 323.23 381.37S351.07 378.98 376.13 378.98S404.02 377.4 429.03 377.4S456.72 379.65 481.94 379.65S509.56 382.85 534.84 382.85S562.31 370.67 587.74 370.67S615.51 376.52 640.65 376.52S667.8 379.86 693.55 379.86S720.73 370.79 746.45 370.79S774.4 386.55 799.35 386.55S826.52 386.07 852.26 386.07S878.95 381.66 905.16 381.66S932.99 373.32 958.06 373.32S985.51 375.41 1010.97 375.41S1037.88 376.14 1063.87 376.14S1091.43 373.55 1116.77 373.55S1143.44 374.17 1169.68 374.17S1197.48 371.01 1222.58 371.01S1249.37 378 1275.48 378S1303.37 372.44 1328.39 372.44S1354.93 371.72 1381.29 371.72S1408.56 385.67 1434.19 385.67S1461.09 374.27 1487.1 374.27S1514.36 371.75 1540 371.75S1567.26 383.25 1592.9 383.25L1540 639 L-100 639 Z;M-100 370.95C-72.64 377.06 -72.31 380.85 -47.1 380.85S-19.23 373.88 5.81 373.88S33.32 378.92 58.71 378.92S85.31 386.18 111.61 386.18S138.21 381.04 164.52 381.04S192.53 371.55 217.42 371.55S244.66 376.47 270.32 376.47S296.93 374.56 323.23 374.56S350.27 373.86 376.13 373.86S403.86 382.54 429.03 382.54S456.6 373.71 481.94 373.71S508.94 373.95 534.84 373.95S562.34 382.16 587.74 382.16S615.15 381.01 640.65 381.01S667.87 374.24 693.55 374.24S721.23 379.13 746.45 379.13S773.45 381.14 799.35 381.14S826 373.09 852.26 373.09S880.29 378.53 905.16 378.53S931.89 372.91 958.06 372.91S984.53 384.62 1010.97 384.62S1037.86 374.24 1063.87 374.24S1090.4 381.91 1116.77 381.91S1143.26 370.84 1169.68 370.84S1197.48 377.52 1222.58 377.52S1249.85 372.91 1275.48 372.91S1302.17 376.03 1328.39 376.03S1356.4 381.63 1381.29 381.63S1408.36 376.92 1434.19 376.92S1461.24 370.78 1487.1 370.78S1514.58 377.21 1540 377.21S1566.59 379.16 1592.9 379.16L1540 639 L-100 639 Z;M-100 374.43C-72.63 377.42 -73.21 377.39 -47.1 377.39S-19.95 380.9 5.81 380.9S32.61 375.43 58.71 375.43S86.45 385.55 111.61 385.55S139.06 372.64 164.52 372.64S191.5 384.58 217.42 384.58S245.33 385.69 270.32 385.69S297.34 381.37 323.23 381.37S351.07 378.98 376.13 378.98S404.02 377.4 429.03 377.4S456.72 379.65 481.94 379.65S509.56 382.85 534.84 382.85S562.31 370.67 587.74 370.67S615.51 376.52 640.65 376.52S667.8 379.86 693.55 379.86S720.73 370.79 746.45 370.79S774.4 386.55 799.35 386.55S826.52 386.07 852.26 386.07S878.95 381.66 905.16 381.66S932.99 373.32 958.06 373.32S985.51 375.41 1010.97 375.41S1037.88 376.14 1063.87 376.14S1091.43 373.55 1116.77 373.55S1143.44 374.17 1169.68 374.17S1197.48 371.01 1222.58 371.01S1249.37 378 1275.48 378S1303.37 372.44 1328.39 372.44S1354.93 371.72 1381.29 371.72S1408.56 385.67 1434.19 385.67S1461.09 374.27 1487.1 374.27S1514.36 371.75 1540 371.75S1567.26 383.25 1592.9 383.25L1540 639 L-100 639 Z"></animate>
  <animateTransform attributeName="transform" type="translate" dur="100s" begin="0s" repeatCount="indefinite" values="0;10;0" calcMode="spline" keySplines="0.3 0 0.7 1;0.3 0 0.7 1"></animateTransform>
</path><path d="M -100 393.454 C -71.9755 390.385 -71.9726 403.041 -45.7 403.041 S -17.0545 391.692 8.61 391.692 S 35.8326 399.982 62.91 399.982 S 90.8818 396.04 117.22 396.04 S 145.263 404.197 171.52 404.197 S 199.848 390.605 225.83 390.605 S 254.229 391.625 280.13 391.625 S 308.69 400.099 334.44 400.099 S 362.563 403.01 388.74 403.01 S 416.743 392.264 443.05 392.264 S 470.839 401.992 497.35 401.992 S 525.372 393.277 551.66 393.277 S 578.973 391.697 605.96 391.697 S 633.517 394.501 660.26 394.501 S 688.522 392.01 714.57 392.01 S 742.161 400.282 768.87 400.282 S 796.08 398.046 823.18 398.046 S 850.502 399.335 877.48 399.335 S 905.397 396.571 931.79 396.571 S 959.577 393.997 986.09 393.997 S 1014.36 396.271 1040.4 396.271 S 1068.71 397.146 1094.7 397.146 S 1122.64 394.774 1149.01 394.774 S 1177.34 395.607 1203.31 395.607 S 1231.46 393.203 1257.62 393.203 S 1284.94 397.429 1311.92 397.429 S 1339.89 393.733 1366.23 393.733 S 1393.7 396.105 1420.53 396.105 S 1448.75 396.495 1474.83 396.495 S 1502.27 402.065 1529.14 402.065 S 1556.97 403.955 1583.44 403.955 L 1540 639 L -100 639 Z" fill="#674db7" stroke-width="0" transform="translate(3.16566 0)">
  <animate attributeName="d" dur="90s" repeatCount="indefinite" values="M-100 394.36C-71.94 388.96 -72.02 405.26 -45.7 405.26S-16.98 391.55 8.61 391.55S35.77 400.5 62.91 400.5S90.98 396.94 117.22 396.94S145.16 404.52 171.52 404.52S200.06 391.02 225.83 391.02S254.17 390.1 280.13 390.1S308.77 400.14 334.44 400.14S362.45 404.96 388.74 404.96S416.68 392.25 443.05 392.25S470.92 403.18 497.35 403.18S525.44 393.71 551.66 393.71S578.88 390.16 605.96 390.16S633.4 393.32 660.26 393.32S688.52 390.19 714.57 390.19S742.18 400.05 768.87 400.05S796.05 398.95 823.18 398.95S850.39 399.64 877.48 399.64S905.25 396.61 931.79 396.61S959.64 395.42 986.09 395.42S1014.4 394.71 1040.4 394.71S1068.91 397.4 1094.7 397.4S1122.75 395.17 1149.01 395.17S1177.49 395.9 1203.31 395.9S1231.62 391.24 1257.62 391.24S1284.92 396.81 1311.92 396.81S1339.89 392.23 1366.23 392.23S1393.67 396.23 1420.53 396.23S1448.85 395.32 1474.83 395.32S1502.26 404.91 1529.14 404.91S1557.11 404.82 1583.44 404.82L1540 639 L-100 639 Z;M-100 389.01C-72.15 397.38 -71.74 392.15 -45.7 392.15S-17.42 392.39 8.61 392.39S36.14 397.44 62.91 397.44S90.4 391.62 117.22 391.62S145.77 402.61 171.52 402.61S198.81 388.57 225.83 388.57S254.52 399.11 280.13 399.11S308.3 399.9 334.44 399.9S363.12 393.44 388.74 393.44S417.05 392.33 443.05 392.33S470.44 396.16 497.35 396.16S525.04 391.15 551.66 391.15S579.43 399.24 605.96 399.24S634.09 400.3 660.26 400.3S688.53 400.94 714.57 400.94S742.07 401.42 768.87 401.42S796.23 393.61 823.18 393.61S851.05 397.84 877.48 397.84S906.12 396.38 931.79 396.38S959.27 387.01 986.09 387.01S1014.16 403.93 1040.4 403.93S1067.72 395.9 1094.7 395.9S1122.12 392.83 1149.01 392.83S1176.63 394.17 1203.31 394.17S1230.7 402.84 1257.62 402.84S1285.03 400.47 1311.92 400.47S1339.88 401.11 1366.23 401.11S1393.84 395.49 1420.53 395.49S1448.28 402.26 1474.83 402.26S1502.3 388.1 1529.14 388.1S1556.3 399.71 1583.44 399.71L1540 639 L-100 639 Z;M-100 394.36C-71.94 388.96 -72.02 405.26 -45.7 405.26S-16.98 391.55 8.61 391.55S35.77 400.5 62.91 400.5S90.98 396.94 117.22 396.94S145.16 404.52 171.52 404.52S200.06 391.02 225.83 391.02S254.17 390.1 280.13 390.1S308.77 400.14 334.44 400.14S362.45 404.96 388.74 404.96S416.68 392.25 443.05 392.25S470.92 403.18 497.35 403.18S525.44 393.71 551.66 393.71S578.88 390.16 605.96 390.16S633.4 393.32 660.26 393.32S688.52 390.19 714.57 390.19S742.18 400.05 768.87 400.05S796.05 398.95 823.18 398.95S850.39 399.64 877.48 399.64S905.25 396.61 931.79 396.61S959.64 395.42 986.09 395.42S1014.4 394.71 1040.4 394.71S1068.91 397.4 1094.7 397.4S1122.75 395.17 1149.01 395.17S1177.49 395.9 1203.31 395.9S1231.62 391.24 1257.62 391.24S1284.92 396.81 1311.92 396.81S1339.89 392.23 1366.23 392.23S1393.67 396.23 1420.53 396.23S1448.85 395.32 1474.83 395.32S1502.26 404.91 1529.14 404.91S1557.11 404.82 1583.44 404.82L1540 639 L-100 639 Z"></animate>
  <animateTransform attributeName="transform" type="translate" dur="90s" begin="-9s" repeatCount="indefinite" values="0;10;0" calcMode="spline" keySplines="0.3 0 0.7 1;0.3 0 0.7 1"></animateTransform>
</path><path d="M -100 406.882 C -71.2405 414.197 -70.8866 416.895 -44.22 416.895 S -16.02 412.386 11.56 412.386 S 40.6829 421.054 67.35 421.054 S 96.4562 406.319 123.13 406.319 S 151.664 413.867 178.91 413.867 S 207.283 408.364 234.69 408.364 S 263.903 415.811 290.48 415.811 S 319.68 417.47 346.26 417.47 S 374.376 413.562 402.04 413.562 S 431.056 417.439 457.82 417.439 S 486.81 414.687 513.61 414.687 S 542.859 411.354 569.39 411.354 S 597.494 407.052 625.17 407.052 S 653.961 410.615 680.95 410.615 S 709.093 413.902 736.73 413.902 S 765.285 410.298 792.52 410.298 S 821.477 414.59 848.3 414.59 S 876.976 403.302 904.08 403.302 S 932.229 414.718 959.86 414.718 S 988.983 410.83 1015.65 410.83 S 1044.28 410.198 1071.43 410.198 S 1100.67 409.728 1127.21 409.728 S 1156.55 419.357 1182.99 419.357 S 1212.07 404.737 1238.78 404.737 S 1268.12 419.761 1294.56 419.761 S 1323.57 409.51 1350.34 409.51 S 1378.83 410.421 1406.12 410.421 S 1434.33 405.702 1461.9 405.702 S 1490.3 411.385 1517.69 411.385 S 1546.38 413.154 1573.47 413.154 L 1540 639 L -100 639 Z" fill="#5d46a6" stroke-width="0" transform="translate(6.28066 0)">
  <animate attributeName="d" dur="80s" repeatCount="indefinite" values="M-100 407.2C-71.37 416.73 -70.62 418.1 -44.22 418.1S-16.14 413.38 11.56 413.38S40.82 421.89 67.35 421.89S96.38 406.27 123.13 406.27S151.47 412.82 178.91 412.82S207.23 408.49 234.69 408.49S264 414.04 290.48 414.04S319.69 418.3 346.26 418.3S374.26 414.51 402.04 414.51S431.22 417.21 457.82 417.21S486.96 414.5 513.61 414.5S542.95 412.5 569.39 412.5S597.29 404.86 625.17 404.86S654.01 410.87 680.95 410.87S709.12 414.53 736.73 414.53S765.39 410.97 792.52 410.97S821.5 415.3 848.3 415.3S876.82 403.02 904.08 403.02S932.16 414.37 959.86 414.37S989.2 412.11 1015.65 412.11S1044.29 409.48 1071.43 409.48S1100.72 409.02 1127.21 409.02S1156.56 418.07 1182.99 418.07S1212.32 402.61 1238.78 402.61S1268.22 421.65 1294.56 421.65S1323.75 409 1350.34 409S1378.84 408.81 1406.12 408.81S1434.34 406.42 1461.9 406.42S1490.12 411.93 1517.69 411.93S1546.49 414.7 1573.47 414.7L1540 639 L-100 639 Z;M-100 405.53C-70.69 403.43 -72.02 411.77 -44.22 411.77S-15.51 408.16 11.56 408.16S40.1 417.5 67.35 417.5S96.78 406.53 123.13 406.53S152.49 418.32 178.91 418.32S207.51 407.83 234.69 407.83S263.49 423.34 290.48 423.34S319.64 413.94 346.26 413.94S374.87 409.53 402.04 409.53S430.36 418.41 457.82 418.41S486.17 415.48 513.61 415.48S542.47 406.48 569.39 406.48S598.36 416.37 625.17 416.37S653.75 409.53 680.95 409.53S708.98 411.23 736.73 411.23S764.84 407.44 792.52 407.44S821.38 411.57 848.3 411.57S877.64 404.5 904.08 404.5S932.52 416.2 959.86 416.2S988.06 405.39 1015.65 405.39S1044.24 413.25 1071.43 413.25S1100.44 412.74 1127.21 412.74S1156.5 424.83 1182.99 424.83S1211.02 413.78 1238.78 413.78S1267.71 411.73 1294.56 411.73S1322.79 411.68 1350.34 411.68S1378.78 417.27 1406.12 417.27S1434.3 402.65 1461.9 402.65S1491.09 409.07 1517.69 409.07S1545.89 406.58 1573.47 406.58L1540 639 L-100 639 Z;M-100 407.2C-71.37 416.73 -70.62 418.1 -44.22 418.1S-16.14 413.38 11.56 413.38S40.82 421.89 67.35 421.89S96.38 406.27 123.13 406.27S151.47 412.82 178.91 412.82S207.23 408.49 234.69 408.49S264 414.04 290.48 414.04S319.69 418.3 346.26 418.3S374.26 414.51 402.04 414.51S431.22 417.21 457.82 417.21S486.96 414.5 513.61 414.5S542.95 412.5 569.39 412.5S597.29 404.86 625.17 404.86S654.01 410.87 680.95 410.87S709.12 414.53 736.73 414.53S765.39 410.97 792.52 410.97S821.5 415.3 848.3 415.3S876.82 403.02 904.08 403.02S932.16 414.37 959.86 414.37S989.2 412.11 1015.65 412.11S1044.29 409.48 1071.43 409.48S1100.72 409.02 1127.21 409.02S1156.56 418.07 1182.99 418.07S1212.32 402.61 1238.78 402.61S1268.22 421.65 1294.56 421.65S1323.75 409 1350.34 409S1378.84 408.81 1406.12 408.81S1434.34 406.42 1461.9 406.42S1490.12 411.93 1517.69 411.93S1546.49 414.7 1573.47 414.7L1540 639 L-100 639 Z"></animate>
  <animateTransform attributeName="transform" type="translate" dur="80s" begin="-16s" repeatCount="indefinite" values="0;10;0" calcMode="spline" keySplines="0.3 0 0.7 1;0.3 0 0.7 1"></animateTransform>
</path><path d="M -100 422.861 C -71.0513 427.202 -70.6559 441.976 -42.66 441.976 S -13.5258 419.234 14.69 419.234 S 44.1476 430.04 72.03 430.04 S 101.948 428.013 129.37 428.013 S 158.812 432.868 186.71 432.868 S 215.953 433.709 244.06 433.709 S 273.239 425.074 301.4 425.074 S 330.237 422.3 358.74 422.3 S 387.565 433.119 416.08 433.119 S 445.455 422.522 473.43 422.522 S 503.043 443.117 530.77 443.117 S 560.199 431.744 588.11 431.744 S 617.46 436.851 645.45 436.851 S 675.374 425.045 702.8 425.045 S 732.228 437.325 760.14 437.325 S 789.436 431.117 817.48 431.117 S 847.124 435.612 874.83 435.612 S 904.8 432.849 932.17 432.849 S 962.086 440.566 989.51 440.566 S 1018.55 426.02 1046.85 426.02 S 1076.96 438.63 1104.2 438.63 S 1133.37 432.407 1161.54 432.407 S 1191 438.86 1218.88 438.86 S 1248.79 429.76 1276.22 429.76 S 1305.37 438.486 1333.57 438.486 S 1363.44 421.275 1390.91 421.275 S 1420.12 437.29 1448.25 437.29 S 1477.81 435.018 1505.59 435.018 S 1535.11 423.588 1562.94 423.588 L 1540 639 L -100 639 Z" fill="#533f94" stroke-width="0" transform="translate(9.03622 0)">
  <animate attributeName="d" dur="70s" repeatCount="indefinite" values="M-100 423.42C-71.01 427.18 -70.88 442.89 -42.66 442.89S-13.8 419.08 14.69 419.08S43.98 428.21 72.03 428.21S102.14 425.78 129.37 425.78S158.74 434.32 186.71 434.32S215.82 434.39 244.06 434.39S273.37 419.86 301.4 419.86S330.13 419.19 358.74 419.19S387.53 430.09 416.08 430.09S445.29 419.19 473.43 419.19S502.98 443.33 530.77 443.33S560.26 432.91 588.11 432.91S617.21 439.43 645.45 439.43S675.69 422.88 702.8 422.88S732.06 435.98 760.14 435.98S789.26 432.32 817.48 432.32S847.1 436.21 874.83 436.21S904.83 432.57 932.17 432.57S962.14 443.63 989.51 443.63S1018.34 427.43 1046.85 427.43S1077.01 440.01 1104.2 440.01S1133.27 434.45 1161.54 434.45S1191.09 440.54 1218.88 440.54S1248.84 429.71 1276.22 429.71S1305.33 439.72 1333.57 439.72S1363.57 418.74 1390.91 418.74S1420.18 438.06 1448.25 438.06S1477.63 437.64 1505.59 437.64S1535.3 421.31 1562.94 421.31L1540 639 L-100 639 Z;M-100 420.85C-71.2 427.28 -69.85 438.69 -42.66 438.69S-12.54 419.79 14.69 419.79S44.75 436.62 72.03 436.62S101.26 436.04 129.37 436.04S159.07 427.65 186.71 427.65S216.43 431.26 244.06 431.26S272.77 443.82 301.4 443.82S330.62 433.48 358.74 433.48S387.69 444.01 416.08 444.01S446.05 434.5 473.43 434.5S503.27 442.35 530.77 442.35S559.98 427.55 588.11 427.55S618.36 427.58 645.45 427.58S674.24 432.83 702.8 432.83S732.83 442.16 760.14 442.16S790.07 426.79 817.48 426.79S847.21 433.46 874.83 433.46S904.69 433.85 932.17 433.85S961.89 429.55 989.51 429.55S1019.32 420.95 1046.85 420.95S1076.77 433.67 1104.2 433.67S1133.73 425.06 1161.54 425.06S1190.68 432.82 1218.88 432.82S1248.59 429.94 1276.22 429.94S1305.5 434.05 1333.57 434.05S1362.95 430.39 1390.91 430.39S1419.89 434.52 1448.25 434.52S1478.45 425.59 1505.59 425.59S1534.42 431.78 1562.94 431.78L1540 639 L-100 639 Z;M-100 423.42C-71.01 427.18 -70.88 442.89 -42.66 442.89S-13.8 419.08 14.69 419.08S43.98 428.21 72.03 428.21S102.14 425.78 129.37 425.78S158.74 434.32 186.71 434.32S215.82 434.39 244.06 434.39S273.37 419.86 301.4 419.86S330.13 419.19 358.74 419.19S387.53 430.09 416.08 430.09S445.29 419.19 473.43 419.19S502.98 443.33 530.77 443.33S560.26 432.91 588.11 432.91S617.21 439.43 645.45 439.43S675.69 422.88 702.8 422.88S732.06 435.98 760.14 435.98S789.26 432.32 817.48 432.32S847.1 436.21 874.83 436.21S904.83 432.57 932.17 432.57S962.14 443.63 989.51 443.63S1018.34 427.43 1046.85 427.43S1077.01 440.01 1104.2 440.01S1133.27 434.45 1161.54 434.45S1191.09 440.54 1218.88 440.54S1248.84 429.71 1276.22 429.71S1305.33 439.72 1333.57 439.72S1363.57 418.74 1390.91 418.74S1420.18 438.06 1448.25 438.06S1477.63 437.64 1505.59 437.64S1535.3 421.31 1562.94 421.31L1540 639 L-100 639 Z"></animate>
  <animateTransform attributeName="transform" type="translate" dur="70s" begin="-21s" repeatCount="indefinite" values="0;10;0" calcMode="spline" keySplines="0.3 0 0.7 1;0.3 0 0.7 1"></animateTransform>
</path><path d="M -100 443.515 C -70.0196 448.109 -69.1319 459.752 -41.01 459.752 S -10.1706 447.937 17.99 447.937 S 47.9136 448.92 76.98 448.92 S 107.681 446.438 135.97 446.438 S 166.574 452.253 194.96 452.253 S 225.688 440.567 253.96 440.567 S 283.794 458.069 312.95 458.069 S 343 444.514 371.94 444.514 S 402.572 450.89 430.94 450.89 S 461.103 445.282 489.93 445.282 S 520.295 459.658 548.92 459.658 S 579.269 439.318 607.91 439.318 S 637.913 455.793 666.91 455.793 S 697.38 448.803 725.9 448.803 S 756.516 444.395 784.89 444.395 S 815.755 445.049 843.88 445.049 S 873.972 460.176 902.88 460.176 S 933.725 440.127 961.87 440.127 S 992.347 440.6 1020.86 440.6 S 1051.62 451.303 1079.86 451.303 S 1109.68 450.449 1138.85 450.449 S 1168.76 443.4 1197.84 443.4 S 1228.72 448.643 1256.83 448.643 S 1286.55 457.728 1315.83 457.728 S 1345.72 457.533 1374.82 457.533 S 1405.36 445.937 1433.81 445.937 S 1463.97 457.71 1492.81 457.71 S 1522.81 443.631 1551.8 443.631 L 1540 639 L -100 639 Z" fill="#493883" stroke-width="0" transform="translate(9.90044 0)">
  <animate attributeName="d" dur="60s" repeatCount="indefinite" values="M-100 446.47C-69.88 448.16 -69.17 462.71 -41.01 462.71S-10.13 450.45 17.99 450.45S47.68 448.62 76.98 448.62S107.96 447.23 135.97 447.23S166.45 450.45 194.96 450.45S225.96 442.26 253.96 442.26S283.7 459.13 312.95 459.13S343.01 447.38 371.94 447.38S402.76 451.05 430.94 451.05S461.06 447.29 489.93 447.29S520.28 460.6 548.92 460.6S579.15 436.21 607.91 436.21S638.05 458.23 666.91 458.23S697.22 451.72 725.9 451.72S756.62 442.13 784.89 442.13S815.9 443.81 843.88 443.81S873.99 463.06 902.88 463.06S933.87 436.76 961.87 436.76S992.4 439.94 1020.86 439.94S1051.7 454.03 1079.86 454.03S1109.44 449.06 1138.85 449.06S1168.42 443.1 1197.84 443.1S1228.85 446.83 1256.83 446.83S1286.53 460.29 1315.83 460.29S1345.33 458.35 1374.82 458.35S1405.51 447.41 1433.81 447.41S1464.12 457.05 1492.81 457.05S1522.62 445.38 1551.8 445.38L1540 639 L-100 639 Z;M-100 434.83C-70.43 447.96 -69.02 451.06 -41.01 451.06S-10.29 440.55 17.99 440.55S48.6 449.8 76.98 449.8S106.86 444.11 135.97 444.11S166.94 457.55 194.96 457.55S224.89 435.59 253.96 435.59S284.07 454.95 312.95 454.95S342.97 436.09 371.94 436.09S402.02 450.42 430.94 450.42S461.23 439.38 489.93 439.38S520.34 456.89 548.92 456.89S579.62 448.45 607.91 448.45S637.51 448.63 666.91 448.63S697.85 440.23 725.9 440.23S756.21 451.05 784.89 451.05S815.33 448.69 843.88 448.69S873.92 451.7 902.88 451.7S933.3 450.02 961.87 450.02S992.19 442.54 1020.86 442.54S1051.39 443.29 1079.86 443.29S1110.37 454.53 1138.85 454.53S1169.77 444.28 1197.84 444.28S1228.34 453.97 1256.83 453.97S1286.61 450.2 1315.83 450.2S1346.88 455.13 1374.82 455.13S1404.92 441.61 1433.81 441.61S1463.52 459.65 1492.81 459.65S1523.37 438.49 1551.8 438.49L1540 639 L-100 639 Z;M-100 446.47C-69.88 448.16 -69.17 462.71 -41.01 462.71S-10.13 450.45 17.99 450.45S47.68 448.62 76.98 448.62S107.96 447.23 135.97 447.23S166.45 450.45 194.96 450.45S225.96 442.26 253.96 442.26S283.7 459.13 312.95 459.13S343.01 447.38 371.94 447.38S402.76 451.05 430.94 451.05S461.06 447.29 489.93 447.29S520.28 460.6 548.92 460.6S579.15 436.21 607.91 436.21S638.05 458.23 666.91 458.23S697.22 451.72 725.9 451.72S756.62 442.13 784.89 442.13S815.9 443.81 843.88 443.81S873.99 463.06 902.88 463.06S933.87 436.76 961.87 436.76S992.4 439.94 1020.86 439.94S1051.7 454.03 1079.86 454.03S1109.44 449.06 1138.85 449.06S1168.42 443.1 1197.84 443.1S1228.85 446.83 1256.83 446.83S1286.53 460.29 1315.83 460.29S1345.33 458.35 1374.82 458.35S1405.51 447.41 1433.81 447.41S1464.12 457.05 1492.81 457.05S1522.62 445.38 1551.8 445.38L1540 639 L-100 639 Z"></animate>
  <animateTransform attributeName="transform" type="translate" dur="60s" begin="-24s" repeatCount="indefinite" values="0;10;0" calcMode="spline" keySplines="0.3 0 0.7 1;0.3 0 0.7 1"></animateTransform>
</path><path d="M -100 456.39 C -69.2971 462.5 -68.7578 471.46 -39.26 471.46 S -7.93147 466.274 21.48 466.274 S 52.7866 467.205 82.22 467.205 S 112.939 476.943 142.96 476.943 S 173.579 471.553 203.7 471.553 S 234.223 459.644 264.44 459.644 S 295.813 471.468 325.19 471.468 S 356.768 461.05 385.93 461.05 S 416.625 469.573 446.67 469.573 S 477.637 458.769 507.41 458.769 S 538.735 475.636 568.15 475.636 S 599.303 465.792 628.89 465.792 S 660.232 465.885 689.63 465.885 S 720.622 459.389 750.37 459.389 S 781.354 476.125 811.11 476.125 S 842.786 467.242 871.85 467.242 S 902.953 456.491 932.59 456.491 S 963.798 474.597 993.33 474.597 S 1024.33 470.721 1054.07 470.721 S 1085.51 467.414 1114.81 467.414 S 1146.08 477.435 1175.56 477.435 S 1206.76 461.732 1236.3 461.732 S 1267.35 481.131 1297.04 481.131 S 1327.79 452.964 1357.78 452.964 S 1388.97 477.882 1418.52 477.882 S 1449.56 458.382 1479.26 458.382 S 1510.01 470.005 1540 470.005 S 1570.65 452.669 1600.74 452.669 L 1540 639 L -100 639 Z" fill="#403273" stroke-width="0" transform="translate(7.67788 0)">
  <animate attributeName="d" dur="50s" repeatCount="indefinite" values="M-100 457.42C-69.16 464.48 -68.38 477.66 -39.26 477.66S-7.77 467.31 21.48 467.31S52.68 470.16 82.22 470.16S112.79 475.77 142.96 475.77S173.64 471.9 203.7 471.9S234.15 458.09 264.44 458.09S295.6 472.44 325.19 472.44S356.78 461.58 385.93 461.58S416.46 469.92 446.67 469.92S477.25 460.96 507.41 460.96S539.11 474.74 568.15 474.74S599.44 466.73 628.89 466.73S660.4 470.93 689.63 470.93S720.61 463.17 750.37 463.17S781.32 478.23 811.11 478.23S842.78 469.07 871.85 469.07S902.81 451.33 932.59 451.33S964.06 482.32 993.33 482.32S1024.07 477.46 1054.07 477.46S1085.5 464.76 1114.81 464.76S1146.24 478.48 1175.56 478.48S1207.1 466.29 1236.3 466.29S1267.43 481.35 1297.04 481.35S1327.86 450.7 1357.78 450.7S1388.69 477.55 1418.52 477.55S1449.68 455.29 1479.26 455.29S1509.85 467.9 1540 467.9S1570.53 453.54 1600.74 453.54L1540 639 L-100 639 Z;M-100 454.04C-69.61 457.98 -69.62 457.31 -39.26 457.31S-8.3 463.91 21.48 463.91S53.03 460.46 82.22 460.46S113.28 479.62 142.96 479.62S173.44 470.76 203.7 470.76S234.39 463.19 264.44 463.19S296.3 469.25 325.19 469.25S356.74 459.84 385.93 459.84S417 468.78 446.67 468.78S478.52 453.77 507.41 453.77S537.88 477.68 568.15 477.68S598.99 463.65 628.89 463.65S659.85 454.37 689.63 454.37S720.65 450.76 750.37 450.76S781.43 471.32 811.11 471.32S842.8 463.07 871.85 463.07S903.28 468.27 932.59 468.27S963.2 456.97 993.33 456.97S1024.93 455.34 1054.07 455.34S1085.54 473.47 1114.81 473.47S1145.73 475.05 1175.56 475.05S1205.98 451.33 1236.3 451.33S1267.18 480.63 1297.04 480.63S1327.64 458.13 1357.78 458.13S1389.61 478.64 1418.52 478.64S1449.28 465.44 1479.26 465.44S1510.38 474.81 1540 474.81S1570.93 450.68 1600.74 450.68L1540 639 L-100 639 Z;M-100 457.42C-69.16 464.48 -68.38 477.66 -39.26 477.66S-7.77 467.31 21.48 467.31S52.68 470.16 82.22 470.16S112.79 475.77 142.96 475.77S173.64 471.9 203.7 471.9S234.15 458.09 264.44 458.09S295.6 472.44 325.19 472.44S356.78 461.58 385.93 461.58S416.46 469.92 446.67 469.92S477.25 460.96 507.41 460.96S539.11 474.74 568.15 474.74S599.44 466.73 628.89 466.73S660.4 470.93 689.63 470.93S720.61 463.17 750.37 463.17S781.32 478.23 811.11 478.23S842.78 469.07 871.85 469.07S902.81 451.33 932.59 451.33S964.06 482.32 993.33 482.32S1024.07 477.46 1054.07 477.46S1085.5 464.76 1114.81 464.76S1146.24 478.48 1175.56 478.48S1207.1 466.29 1236.3 466.29S1267.43 481.35 1297.04 481.35S1327.86 450.7 1357.78 450.7S1388.69 477.55 1418.52 477.55S1449.68 455.29 1479.26 455.29S1509.85 467.9 1540 467.9S1570.53 453.54 1600.74 453.54L1540 639 L-100 639 Z"></animate>
  <animateTransform attributeName="transform" type="translate" dur="50s" begin="-25s" repeatCount="indefinite" values="0;10;0" calcMode="spline" keySplines="0.3 0 0.7 1;0.3 0 0.7 1"></animateTransform>
</path><path d="M -100 471.434 C -68.1613 479.82 -67.5672 489.207 -37.4 489.207 S -4.80376 473.485 25.19 473.485 S 57.4068 492.454 87.79 492.454 S 120.285 474.131 150.38 474.131 S 182.644 495.672 212.98 495.672 S 245.169 489.79 275.57 489.79 S 307.497 493.79 338.17 493.79 S 370.387 495.733 400.76 495.733 S 433.443 494.447 463.36 494.447 S 495.653 470.442 525.95 470.442 S 557.749 498.474 588.55 498.474 S 620.557 485.948 651.15 485.948 S 683.177 492.984 713.74 492.984 S 745.832 479.281 776.34 479.281 S 808.839 500.311 838.93 500.311 S 870.368 493.193 901.53 493.193 S 933.728 490.859 964.12 490.859 S 995.853 474.66 1026.72 474.66 S 1058.21 482.424 1089.31 482.424 S 1121.11 480.024 1151.91 480.024 S 1184.01 483.482 1214.5 483.482 S 1246.57 486.497 1277.1 486.497 S 1309.34 496.238 1339.69 496.238 S 1371.57 474.762 1402.29 474.762 S 1434.08 490.506 1464.89 490.506 S 1496.57 477.983 1527.48 477.983 S 1559.56 468.971 1590.08 468.971 L 1540 639 L -100 639 Z" fill="#362b62" stroke-width="0" transform="translate(3.85311 0)">
  <animate attributeName="d" dur="40s" repeatCount="indefinite" values="M-100 470.95C-67.83 478.32 -67.83 496.07 -37.4 496.07S-4.64 472.75 25.19 472.75S57.7 492.66 87.79 492.66S120.67 469.1 150.38 469.1S182.37 500.55 212.98 500.55S244.99 487.76 275.57 487.76S307.6 494.54 338.17 494.54S370.28 499.16 400.76 499.16S433.58 496.58 463.36 496.58S495.68 470.53 525.95 470.53S557.92 498.31 588.55 498.31S620.02 479.71 651.15 479.71S683.2 491.08 713.74 491.08S746 477.72 776.34 477.72S809.01 501.4 838.93 501.4S870.44 501.51 901.53 501.51S933.48 487.69 964.12 487.69S995.48 477.79 1026.72 477.79S1058.05 472.02 1089.31 472.02S1121.07 480.9 1151.91 480.9S1183.66 490.63 1214.5 490.63S1246.63 482.35 1277.1 482.35S1309.69 495.99 1339.69 495.99S1371.31 474.4 1402.29 474.4S1433.8 498.61 1464.89 498.61S1496.78 475.98 1527.48 475.98S1559.82 467.92 1590.08 467.92L1540 639 L-100 639 Z;M-100 472.22C-68.7 482.26 -67.14 478.05 -37.4 478.05S-5.07 474.68 25.19 474.68S56.93 492.12 87.79 492.12S119.66 482.31 150.38 482.31S183.09 487.74 212.98 487.74S245.46 493.09 275.57 493.09S307.33 492.57 338.17 492.57S370.56 490.16 400.76 490.16S433.22 490.98 463.36 490.98S495.61 470.3 525.95 470.3S557.47 498.74 588.55 498.74S621.43 496.09 651.15 496.09S683.14 496.08 713.74 496.08S745.56 481.82 776.34 481.82S808.56 498.54 838.93 498.54S870.25 479.67 901.53 479.67S934.13 496.01 964.12 496.01S996.46 469.57 1026.72 469.57S1058.47 499.34 1089.31 499.34S1121.17 478.6 1151.91 478.6S1184.57 471.86 1214.5 471.86S1246.46 493.24 1277.1 493.24S1308.78 496.64 1339.69 496.64S1371.99 475.35 1402.29 475.35S1434.53 477.33 1464.89 477.33S1496.23 481.24 1527.48 481.24S1559.14 470.68 1590.08 470.68L1540 639 L-100 639 Z;M-100 470.95C-67.83 478.32 -67.83 496.07 -37.4 496.07S-4.64 472.75 25.19 472.75S57.7 492.66 87.79 492.66S120.67 469.1 150.38 469.1S182.37 500.55 212.98 500.55S244.99 487.76 275.57 487.76S307.6 494.54 338.17 494.54S370.28 499.16 400.76 499.16S433.58 496.58 463.36 496.58S495.68 470.53 525.95 470.53S557.92 498.31 588.55 498.31S620.02 479.71 651.15 479.71S683.2 491.08 713.74 491.08S746 477.72 776.34 477.72S809.01 501.4 838.93 501.4S870.44 501.51 901.53 501.51S933.48 487.69 964.12 487.69S995.48 477.79 1026.72 477.79S1058.05 472.02 1089.31 472.02S1121.07 480.9 1151.91 480.9S1183.66 490.63 1214.5 490.63S1246.63 482.35 1277.1 482.35S1309.69 495.99 1339.69 495.99S1371.31 474.4 1402.29 474.4S1433.8 498.61 1464.89 498.61S1496.78 475.98 1527.48 475.98S1559.82 467.92 1590.08 467.92L1540 639 L-100 639 Z"></animate>
  <animateTransform attributeName="transform" type="translate" dur="40s" begin="-24s" repeatCount="indefinite" values="0;10;0" calcMode="spline" keySplines="0.3 0 0.7 1;0.3 0 0.7 1"></animateTransform>
</path><path d="M -100 485.742 C -66.5897 491.609 -66.836 511.221 -35.43 511.221 S -2.90876 489.998 29.13 489.998 S 62.1639 505.429 93.7 505.429 S 126.473 489.444 158.27 489.444 S 191.817 492 222.83 492 S 256.499 487.288 287.4 487.288 S 320.05 485.493 351.97 485.493 S 384.92 491.718 416.54 491.718 S 449.367 512.285 481.1 512.285 S 514.085 490.993 545.67 490.993 S 579.485 516.659 610.24 516.659 S 643.871 491.611 674.8 491.611 S 707.29 510.766 739.37 510.766 S 772.587 502.979 803.94 502.979 S 837.552 500.929 868.5 500.929 S 902.134 490.471 933.07 490.471 S 965.523 509.877 997.64 509.877 S 1030.63 484.927 1062.2 484.927 S 1095.08 511.06 1126.77 511.06 S 1159.53 490.249 1191.34 490.249 S 1224.08 519.259 1255.91 519.259 S 1288.79 489.099 1320.47 489.099 S 1353.5 502.438 1385.04 502.438 S 1417.62 491.931 1449.61 491.931 S 1482.63 513.564 1514.17 513.564 S 1546.71 494.949 1578.74 494.949 L 1540 639 L -100 639 Z" fill="#2e2453" stroke-width="0" transform="translate(0.276749 0)">
  <animate attributeName="d" dur="30s" repeatCount="indefinite" values="M-100 484C-66.28 493.01 -67.1 517.36 -35.43 517.36S-2.99 494.03 29.13 494.03S62.56 496.01 93.7 496.01S126.91 491.47 158.27 491.47S192 495.58 222.83 495.58S256.54 489.73 287.4 489.73S320.36 486.62 351.97 486.62S385.59 485.64 416.54 485.64S449.56 511.29 481.1 511.29S513.75 497.01 545.67 497.01S579.47 520.02 610.24 520.02S643.8 486.62 674.8 486.62S707.29 516.59 739.37 516.59S772.43 508.9 803.94 508.9S837.42 496.72 868.5 496.72S902.22 497.29 933.07 497.29S965.67 509.72 997.64 509.72S1030.99 486.43 1062.2 486.43S1094.57 508.46 1126.77 508.46S1159.7 496.22 1191.34 496.22S1224.16 519 1255.91 519S1288.65 491.42 1320.47 491.42S1353.24 507.12 1385.04 507.12S1417.8 489.55 1449.61 489.55S1482.65 512.64 1514.17 512.64S1546.78 491.75 1578.74 491.75L1540 639 L-100 639 Z;M-100 487.43C-66.89 490.25 -66.58 505.27 -35.43 505.27S-2.83 486.09 29.13 486.09S61.78 514.56 93.7 514.56S126.05 487.48 158.27 487.48S191.64 488.53 222.83 488.53S256.46 484.92 287.4 484.92S319.75 484.4 351.97 484.4S384.27 497.61 416.54 497.61S449.18 513.25 481.1 513.25S514.41 485.16 545.67 485.16S579.5 513.4 610.24 513.4S643.94 496.45 674.8 496.45S707.29 505.12 739.37 505.12S772.74 497.24 803.94 497.24S837.68 505.01 868.5 505.01S902.05 483.86 933.07 483.86S965.38 510.03 997.64 510.03S1030.28 483.47 1062.2 483.47S1095.58 513.58 1126.77 513.58S1159.37 484.46 1191.34 484.46S1224 519.51 1255.91 519.51S1288.93 486.85 1320.47 486.85S1353.76 497.9 1385.04 497.9S1417.45 494.24 1449.61 494.24S1482.61 514.46 1514.17 514.46S1546.64 498.05 1578.74 498.05L1540 639 L-100 639 Z;M-100 484C-66.28 493.01 -67.1 517.36 -35.43 517.36S-2.99 494.03 29.13 494.03S62.56 496.01 93.7 496.01S126.91 491.47 158.27 491.47S192 495.58 222.83 495.58S256.54 489.73 287.4 489.73S320.36 486.62 351.97 486.62S385.59 485.64 416.54 485.64S449.56 511.29 481.1 511.29S513.75 497.01 545.67 497.01S579.47 520.02 610.24 520.02S643.8 486.62 674.8 486.62S707.29 516.59 739.37 516.59S772.43 508.9 803.94 508.9S837.42 496.72 868.5 496.72S902.22 497.29 933.07 497.29S965.67 509.72 997.64 509.72S1030.99 486.43 1062.2 486.43S1094.57 508.46 1126.77 508.46S1159.7 496.22 1191.34 496.22S1224.16 519 1255.91 519S1288.65 491.42 1320.47 491.42S1353.24 507.12 1385.04 507.12S1417.8 489.55 1449.61 489.55S1482.65 512.64 1514.17 512.64S1546.78 491.75 1578.74 491.75L1540 639 L-100 639 Z"></animate>
  <animateTransform attributeName="transform" type="translate" dur="30s" begin="-21s" repeatCount="indefinite" values="0;10;0" calcMode="spline" keySplines="0.3 0 0.7 1;0.3 0 0.7 1"></animateTransform>
</path><path d="M -100 524.186 C -65.5331 525.094 -66.4251 512.271 -33.33 512.271 S 0.982647 505.608 33.33 505.608 S 66.841 537.421 100 537.421 S 133.863 501.221 166.67 501.221 S 200.893 527.557 233.33 527.557 S 267.341 505.376 300 505.376 S 333.657 528.019 366.67 528.019 S 401.052 527.036 433.33 527.036 S 467.709 531.964 500 531.964 S 533.675 525.74 566.67 525.74 S 600.495 533.135 633.33 533.135 S 667.056 503.608 700 503.608 S 734.176 514.303 766.67 514.303 S 800.683 509.6 833.33 509.6 S 867.239 531.306 900 531.306 S 934.275 506.027 966.67 506.027 S 1000.87 532.129 1033.33 532.129 S 1067.81 513.028 1100 513.028 S 1134.04 525.797 1166.67 525.797 S 1200.35 509.028 1233.33 509.028 S 1267.4 525.022 1300 525.022 S 1334.34 506.372 1366.67 506.372 S 1400.31 537.235 1433.33 537.235 S 1466.86 512.477 1500 512.477 S 1534.71 533.836 1566.67 533.836 L 1540 639 L -100 639 Z" fill="#251e43" stroke-width="0" transform="translate(3.06336 0)">
  <animate attributeName="d" dur="20s" repeatCount="indefinite" values="M-100 513.21C-66.47 505.26 -66.09 533.75 -33.33 533.75S0.32 511.32 33.33 511.32S66.94 538.96 100 538.96S133.97 506.05 166.67 506.05S201.19 509.97 233.33 509.97S267.28 525.72 300 525.72S334.19 528.27 366.67 528.27S400.42 511.94 433.33 511.94S467.64 537.09 500 537.09S533.98 504.01 566.67 504.01S600.32 536.22 633.33 536.22S666.98 505.04 700 505.04S733.43 536.46 766.67 536.46S800.18 511.1 833.33 511.1S866.82 535.96 900 535.96S934.13 503.11 966.67 503.11S1000.42 534.94 1033.33 534.94S1066.78 534.08 1100 534.08S1134.26 529.91 1166.67 529.91S1201.08 505.25 1233.33 505.25S1267.41 509.05 1300 509.05S1334.39 501.33 1366.67 501.33S1401.1 531.21 1433.33 531.21S1467.09 511.86 1500 511.86S1534.69 532 1566.67 532L1540 639 L-100 639 Z;M-100 527.62C-65.24 531.3 -66.53 505.55 -33.33 505.55S1.19 503.82 33.33 503.82S66.81 536.94 100 536.94S133.83 499.71 166.67 499.71S200.8 533.06 233.33 533.06S267.36 499.01 300 499.01S333.49 527.94 366.67 527.94S401.25 531.76 433.33 531.76S467.73 530.36 500 530.36S533.58 532.54 566.67 532.54S600.55 532.17 633.33 532.17S667.08 503.16 700 503.16S734.41 507.37 766.67 507.37S800.84 509.13 833.33 509.13S867.37 529.85 900 529.85S934.32 506.94 966.67 506.94S1001.01 531.25 1033.33 531.25S1068.13 506.44 1100 506.44S1133.97 524.51 1166.67 524.51S1200.12 510.21 1233.33 510.21S1267.4 530.02 1300 530.02S1334.33 507.95 1366.67 507.95S1400.06 539.12 1433.33 539.12S1466.79 512.67 1500 512.67S1534.72 534.41 1566.67 534.41L1540 639 L-100 639 Z;M-100 513.21C-66.47 505.26 -66.09 533.75 -33.33 533.75S0.32 511.32 33.33 511.32S66.94 538.96 100 538.96S133.97 506.05 166.67 506.05S201.19 509.97 233.33 509.97S267.28 525.72 300 525.72S334.19 528.27 366.67 528.27S400.42 511.94 433.33 511.94S467.64 537.09 500 537.09S533.98 504.01 566.67 504.01S600.32 536.22 633.33 536.22S666.98 505.04 700 505.04S733.43 536.46 766.67 536.46S800.18 511.1 833.33 511.1S866.82 535.96 900 535.96S934.13 503.11 966.67 503.11S1000.42 534.94 1033.33 534.94S1066.78 534.08 1100 534.08S1134.26 529.91 1166.67 529.91S1201.08 505.25 1233.33 505.25S1267.41 509.05 1300 509.05S1334.39 501.33 1366.67 501.33S1401.1 531.21 1433.33 531.21S1467.09 511.86 1500 511.86S1534.69 532 1566.67 532L1540 639 L-100 639 Z"></animate>
  <animateTransform attributeName="transform" type="translate" dur="20s" begin="-16s" repeatCount="indefinite" values="0;10;0" calcMode="spline" keySplines="0.3 0 0.7 1;0.3 0 0.7 1"></animateTransform>
</path><path d="M -100 527.157 C -64.8895 519.981 -64.6568 553.658 -31.09 553.658 S 4.1218 518.112 37.82 518.112 S 73.2591 541.568 106.72 541.568 S 141.327 519.496 175.63 519.496 S 210.365 550.44 244.54 550.44 S 279.517 538.81 313.45 538.81 S 348.705 548.477 382.35 548.477 S 417.342 522.961 451.26 522.961 S 485.902 540.643 520.17 540.643 S 555.472 523.384 589.08 523.384 S 624.363 551.528 657.98 551.528 S 693.345 520.416 726.89 520.416 S 762.377 551.606 795.8 551.606 S 831.154 523.074 864.71 523.074 S 899.763 551.924 933.61 551.924 S 968.541 519.542 1002.52 519.542 S 1037.27 544.237 1071.43 544.237 S 1106.61 524.965 1140.34 524.965 S 1175.01 549.183 1209.24 549.183 S 1244.12 521.678 1278.15 521.678 S 1313.63 548.196 1347.06 548.196 S 1382.43 516.214 1415.97 516.214 S 1451.16 553.266 1484.87 553.266 S 1519.61 527.782 1553.78 527.782 L 1540 639 L -100 639 Z" fill="#1d1834" stroke-width="0" transform="translate(7.44088 0)">
  <animate attributeName="d" dur="10s" repeatCount="indefinite" values="M-100 526.78C-65.39 522.24 -64.08 553.83 -31.09 553.83S3.75 516.83 37.82 516.83S72.73 555.93 106.72 555.93S141.37 516.87 175.63 516.87S210.15 553.1 244.54 553.1S279.15 520.83 313.45 520.83S348.71 550.05 382.35 550.05S417.58 516.33 451.26 516.33S485.95 551.22 520.17 551.22S554.79 522.64 589.08 522.64S624.52 556.9 657.98 556.9S693.86 523.9 726.89 523.9S762.42 558.68 795.8 558.68S831.13 523.06 864.71 523.06S900.24 555.18 933.61 555.18S968.96 518.97 1002.52 518.97S1037.13 543.98 1071.43 543.98S1106.74 529.67 1140.34 529.67S1174.92 554.45 1209.24 554.45S1244.03 515.2 1278.15 515.2S1313.43 549.45 1347.06 549.45S1382.56 517.02 1415.97 517.02S1451.72 547.97 1484.87 547.97S1519.6 526.6 1553.78 526.6L1540 639 L-100 639 Z;M-100 527.57C-64.34 517.5 -65.29 553.47 -31.09 553.47S4.53 519.52 37.82 519.52S73.84 525.8 106.72 525.8S141.28 522.38 175.63 522.38S210.6 547.52 244.54 547.52S279.92 558.55 313.45 558.55S348.7 546.75 382.35 546.75S417.08 530.24 451.26 530.24S485.85 529.03 520.17 529.03S556.22 524.2 589.08 524.2S624.19 545.63 657.98 545.63S692.78 516.59 726.89 516.59S762.33 543.84 795.8 543.84S831.18 523.09 864.71 523.09S899.24 548.35 933.61 548.35S968.08 520.17 1002.52 520.17S1037.43 544.52 1071.43 544.52S1106.47 519.8 1140.34 519.8S1175.1 543.4 1209.24 543.4S1244.22 528.79 1278.15 528.79S1313.85 546.82 1347.06 546.82S1382.28 515.33 1415.97 515.33S1450.55 559.08 1484.87 559.08S1519.62 529.08 1553.78 529.08L1540 639 L-100 639 Z;M-100 526.78C-65.39 522.24 -64.08 553.83 -31.09 553.83S3.75 516.83 37.82 516.83S72.73 555.93 106.72 555.93S141.37 516.87 175.63 516.87S210.15 553.1 244.54 553.1S279.15 520.83 313.45 520.83S348.71 550.05 382.35 550.05S417.58 516.33 451.26 516.33S485.95 551.22 520.17 551.22S554.79 522.64 589.08 522.64S624.52 556.9 657.98 556.9S693.86 523.9 726.89 523.9S762.42 558.68 795.8 558.68S831.13 523.06 864.71 523.06S900.24 555.18 933.61 555.18S968.96 518.97 1002.52 518.97S1037.13 543.98 1071.43 543.98S1106.74 529.67 1140.34 529.67S1174.92 554.45 1209.24 554.45S1244.03 515.2 1278.15 515.2S1313.43 549.45 1347.06 549.45S1382.56 517.02 1415.97 517.02S1451.72 547.97 1484.87 547.97S1519.6 526.6 1553.78 526.6L1540 639 L-100 639 Z"></animate>
  <animateTransform attributeName="transform" type="translate" dur="10s" begin="-9s" repeatCount="indefinite" values="0;10;0" calcMode="spline" keySplines="0.3 0 0.7 1;0.3 0 0.7 1"></animateTransform>
</path></g>
</svg>