<svg width="448" height="512" viewBox="0 0 448 512" fill="none" xmlns="http://www.w3.org/2000/svg">
<g filter="url(#filter0_ii)">
<path d="M400 32H48C21.5 32 0 53.5 0 80V432C0 458.5 21.5 480 48 480H400C426.5 480 448 458.5 448 432V80C448 53.5 426.5 32 400 32ZM351.1 190.8C351.3 193.6 351.3 196.5 351.3 199.3C351.3 286 285.3 385.9 164.7 385.9C127.5 385.9 93 375.1 64 356.5C69.3 357.1 74.4 357.3 79.8 357.3C110.5 357.3 138.7 346.9 161.2 329.3C132.4 328.7 108.2 309.8 99.9 283.8C110 285.3 119.1 285.3 129.5 282.6C99.5 276.5 77 250.1 77 218.2V217.4C85.7 222.3 95.9 225.3 106.6 225.7C97.6043 219.716 90.2298 211.599 85.1347 202.072C80.0396 192.544 77.3823 181.904 77.4 171.1C77.4 158.9 80.6 147.7 86.3 138C118.6 177.8 167.1 203.8 221.5 206.6C212.2 162.1 245.5 126 285.5 126C304.4 126 321.4 133.9 333.4 146.7C348.2 143.9 362.4 138.4 375 130.9C370.1 146.1 359.8 158.9 346.2 167C359.4 165.6 372.2 161.9 384 156.8C375.1 169.9 363.9 181.5 351.1 190.8Z" fill="url(#paint0_linear)"/>
</g>
<defs>
<filter id="filter0_ii" x="-3" y="29" width="456" height="456" filterUnits="userSpaceOnUse" color-interpolation-filters="sRGB">
<feFlood flood-opacity="0" result="BackgroundImageFix"/>
<feBlend mode="normal" in="SourceGraphic" in2="BackgroundImageFix" result="shape"/>
<feColorMatrix in="SourceAlpha" type="matrix" values="0 0 0 0 0 0 0 0 0 0 0 0 0 0 0 0 0 0 127 0" result="hardAlpha"/>
<feOffset dx="5" dy="5"/>
<feGaussianBlur stdDeviation="11"/>
<feComposite in2="hardAlpha" operator="arithmetic" k2="-1" k3="1"/>
<feColorMatrix type="matrix" values="0 0 0 0 0.0529329 0 0 0 0 0.0544477 0 0 0 0 0.060507 0 0 0 1 0"/>
<feBlend mode="normal" in2="shape" result="effect1_innerShadow"/>
<feColorMatrix in="SourceAlpha" type="matrix" values="0 0 0 0 0 0 0 0 0 0 0 0 0 0 0 0 0 0 127 0" result="hardAlpha"/>
<feOffset dx="-3" dy="-3"/>
<feGaussianBlur stdDeviation="11"/>
<feComposite in2="hardAlpha" operator="arithmetic" k2="-1" k3="1"/>
<feColorMatrix type="matrix" values="0 0 0 0 0.249879 0 0 0 0 0.276036 0 0 0 0 0.307425 0 0 0 1 0"/>
<feBlend mode="normal" in2="effect1_innerShadow" result="effect2_innerShadow"/>
</filter>
<linearGradient id="paint0_linear" x1="-160.783" y1="260.278" x2="207.734" y2="664.259" gradientUnits="userSpaceOnUse">
<stop stop-color="#26272B"/>
<stop offset="1" stop-color="#34393F"/>
</linearGradient>
</defs>
</svg>
