<?xml version="1.0" encoding="utf-8"?>
<svg xmlns="http://www.w3.org/2000/svg" xmlns:xlink="http://www.w3.org/1999/xlink" style="margin: auto; background: none; display: block; z-index: 1; position: relative; shape-rendering: auto;" width="1440" height="639" preserveAspectRatio="xMidYMid" viewBox="0 0 1440 639">
<g transform=""><path d="M -100 295.688 C -72.4935 294.89 -72.8448 297.636 -47.1 297.636 S -19.5852 295.68 5.81 295.68 S 33.1557 289.157 58.71 289.157 S 85.6421 290.779 111.61 290.779 S 138.308 297.983 164.52 297.983 S 192.195 295.214 217.42 295.214 S 244.731 302.217 270.32 302.217 S 297.799 301.052 323.23 301.052 S 350.27 301.86 376.13 301.86 S 403.563 297.33 429.03 297.33 S 456.989 292.044 481.94 292.044 S 509.624 298.69 534.84 298.69 S 561.747 297.981 587.74 297.981 S 615.316 292.712 640.65 292.712 S 667.984 296.905 693.55 296.905 S 720.404 292.785 746.45 292.785 S 774.112 294.56 799.35 294.56 S 826.663 294.168 852.26 294.168 S 879.519 292.939 905.16 292.939 S 932.686 294.137 958.06 294.137 S 985.201 288.115 1010.97 288.115 S 1038.21 301.925 1063.87 301.925 S 1091.25 294.283 1116.77 294.283 S 1144.63 298.447 1169.68 298.447 S 1196.88 296.529 1222.58 296.529 S 1249.95 296.784 1275.48 296.784 S 1302.71 300.997 1328.39 300.997 S 1355.94 298.783 1381.29 298.783 S 1408.47 296.299 1434.19 296.299 S 1461.42 294.274 1487.1 294.274 S 1514.65 300.266 1540 300.266 S 1566.72 296.825 1592.9 296.825 L 1540 639 L -100 639 Z" fill="#000000" stroke-width="0" transform="translate(5.7951 0)">
  <animate attributeName="d" dur="43.47826086956522s" repeatCount="indefinite" values="M-100 301.73C-72.21 298.57 -72.05 290.66 -47.1 290.66S-20.23 289.51 5.81 289.51S32.85 289.78 58.71 289.78S85.87 290.64 111.61 290.64S138.13 296.66 164.52 296.66S191.9 293.28 217.42 293.28S244.32 302.79 270.32 302.79S298.26 298.99 323.23 298.99S350.12 302.61 376.13 302.61S402.94 303.2 429.03 303.2S457 297.43 481.94 297.43S509.19 299.88 534.84 299.88S561.68 294.24 587.74 294.24S615.21 294.63 640.65 294.63S667.6 302.73 693.55 302.73S720.31 295.52 746.45 295.52S773.69 290.83 799.35 290.83S826.43 295.48 852.26 295.48S879.98 291.16 905.16 291.16S932.08 295.86 958.06 295.86S985.74 288.02 1010.97 288.02S1038.78 300.63 1063.87 300.63S1091.32 293.71 1116.77 293.71S1144.51 302.26 1169.68 302.26S1196.18 299.92 1222.58 299.92S1249.23 293.11 1275.48 293.11S1302.71 299.58 1328.39 299.58S1356.18 301.79 1381.29 301.79S1407.8 290.14 1434.19 290.14S1461.8 289.51 1487.1 289.51S1514.95 299.51 1540 299.51S1566.78 296.53 1592.9 296.53L1540 639 L-100 639 Z;M-100 290.86C-72.72 291.95 -73.48 303.21 -47.1 303.21S-19.07 300.61 5.81 300.61S33.4 288.66 58.71 288.66S85.46 290.89 111.61 290.89S138.45 299.04 164.52 299.04S192.43 296.76 217.42 296.76S245.06 301.76 270.32 301.76S297.43 302.7 323.23 302.7S350.39 301.26 376.13 301.26S404.06 292.64 429.03 292.64S456.98 287.74 481.94 287.74S509.97 297.74 534.84 297.74S561.8 300.97 587.74 300.97S615.4 291.18 640.65 291.18S668.29 292.25 693.55 292.25S720.48 290.6 746.45 290.6S774.45 297.54 799.35 297.54S826.85 293.12 852.26 293.12S879.15 294.36 905.16 294.36S933.17 292.76 958.06 292.76S984.77 288.19 1010.97 288.19S1037.75 302.96 1063.87 302.96S1091.2 294.74 1116.77 294.74S1144.72 295.4 1169.68 295.4S1197.44 293.82 1222.58 293.82S1250.53 299.72 1275.48 299.72S1302.71 302.13 1328.39 302.13S1355.74 296.38 1381.29 296.38S1409 301.22 1434.19 301.22S1461.11 298.08 1487.1 298.08S1514.41 300.87 1540 300.87S1566.67 297.06 1592.9 297.06L1540 639 L-100 639 Z;M-100 301.73C-72.21 298.57 -72.05 290.66 -47.1 290.66S-20.23 289.51 5.81 289.51S32.85 289.78 58.71 289.78S85.87 290.64 111.61 290.64S138.13 296.66 164.52 296.66S191.9 293.28 217.42 293.28S244.32 302.79 270.32 302.79S298.26 298.99 323.23 298.99S350.12 302.61 376.13 302.61S402.94 303.2 429.03 303.2S457 297.43 481.94 297.43S509.19 299.88 534.84 299.88S561.68 294.24 587.74 294.24S615.21 294.63 640.65 294.63S667.6 302.73 693.55 302.73S720.31 295.52 746.45 295.52S773.69 290.83 799.35 290.83S826.43 295.48 852.26 295.48S879.98 291.16 905.16 291.16S932.08 295.86 958.06 295.86S985.74 288.02 1010.97 288.02S1038.78 300.63 1063.87 300.63S1091.32 293.71 1116.77 293.71S1144.51 302.26 1169.68 302.26S1196.18 299.92 1222.58 299.92S1249.23 293.11 1275.48 293.11S1302.71 299.58 1328.39 299.58S1356.18 301.79 1381.29 301.79S1407.8 290.14 1434.19 290.14S1461.8 289.51 1487.1 289.51S1514.95 299.51 1540 299.51S1566.78 296.53 1592.9 296.53L1540 639 L-100 639 Z"></animate>
  <animateTransform attributeName="transform" type="translate" dur="43.47826086956522s" begin="0s" repeatCount="indefinite" values="0;10;0" calcMode="spline" keySplines="0.3 0 0.7 1;0.3 0 0.7 1"></animateTransform>
</path><path d="M -100 314.783 C -72.204 309.724 -72.182 312.156 -45.7 312.156 S -17.7612 308.07 8.61 308.07 S 36.3668 316.531 62.91 316.531 S 90.8171 310.779 117.22 310.779 S 145.565 308.212 171.52 308.212 S 198.863 314.082 225.83 314.082 S 253.141 312.615 280.13 312.615 S 308.384 311.36 334.44 311.36 S 362.842 309.943 388.74 309.943 S 416.53 314.397 443.05 314.397 S 471.142 317.109 497.35 317.109 S 525.638 313.101 551.66 313.101 S 579.746 319.757 605.96 319.757 S 634.277 311.802 660.26 311.802 S 687.61 311.701 714.57 311.701 S 742.791 312.819 768.87 312.819 S 797.432 317.229 823.18 317.229 S 851.398 310.842 877.48 310.842 S 906.045 312.736 931.79 312.736 S 959.165 312.042 986.09 312.042 S 1013.79 310.952 1040.4 310.952 S 1068.75 309.035 1094.7 309.035 S 1122.26 308.272 1149.01 308.272 S 1177.61 309.705 1203.31 309.705 S 1231.4 310.509 1257.62 310.509 S 1284.91 313.005 1311.92 313.005 S 1340.36 315.019 1366.23 315.019 S 1394.01 315.495 1420.53 315.495 S 1448.6 320.256 1474.83 320.256 S 1502.63 313.701 1529.14 313.701 S 1557.32 309.835 1583.44 309.835 L 1540 639 L -100 639 Z" fill="#1b1b1b" stroke-width="0" transform="translate(9.03602 0)">
  <animate attributeName="d" dur="39.130434782608695s" repeatCount="indefinite" values="M-100 308.49C-71.29 317.53 -72.04 308.71 -45.7 308.71S-18.07 306.23 8.61 306.23S36.41 318.05 62.91 318.05S91.62 304.77 117.22 304.77S145.17 308.36 171.52 308.36S199.03 319.27 225.83 319.27S253.32 314.19 280.13 314.19S307.6 316.27 334.44 316.27S362.78 306.88 388.74 306.88S416.61 314.15 443.05 314.15S470.29 310.39 497.35 310.39S525.2 319.32 551.66 319.32S579.11 317.28 605.96 317.28S633.61 304.28 660.26 304.28S687.9 310.46 714.57 310.46S743.26 313.56 768.87 313.56S797.29 312.85 823.18 312.85S851.38 307.6 877.48 307.6S906.15 320.4 931.79 320.4S959.19 314.16 986.09 314.16S1013.62 313.12 1040.4 313.12S1068.82 305.15 1094.7 305.15S1121.86 307.37 1149.01 307.37S1177.48 314.8 1203.31 314.8S1231.88 306.47 1257.62 306.47S1285.07 308.28 1311.92 308.28S1340.48 316.18 1366.23 316.18S1394.56 314.05 1420.53 314.05S1449.15 321.59 1474.83 321.59S1502.33 313.54 1529.14 313.54S1557.13 314.59 1583.44 314.59L1540 639 L-100 639 Z;M-100 318.68C-72.77 304.89 -72.27 314.29 -45.7 314.29S-17.57 309.21 8.61 309.21S36.34 315.59 62.91 315.59S90.32 314.5 117.22 314.5S145.81 308.12 171.52 308.12S198.76 310.87 225.83 310.87S253.03 311.64 280.13 311.64S308.87 308.32 334.44 308.32S362.88 311.84 388.74 311.84S416.48 314.55 443.05 314.55S471.67 321.27 497.35 321.27S525.91 309.25 551.66 309.25S580.14 321.29 605.96 321.29S634.69 316.46 660.26 316.46S687.43 312.47 714.57 312.47S742.5 312.36 768.87 312.36S797.52 319.94 823.18 319.94S851.41 312.85 877.48 312.85S905.98 307.99 931.79 307.99S959.15 310.73 986.09 310.73S1013.9 309.61 1040.4 309.61S1068.71 311.44 1094.7 311.44S1122.5 308.83 1149.01 308.83S1177.69 306.55 1203.31 306.55S1231.1 313.01 1257.62 313.01S1284.81 315.93 1311.92 315.93S1340.28 314.3 1366.23 314.3S1393.67 316.39 1420.53 316.39S1448.26 319.43 1474.83 319.43S1502.82 313.8 1529.14 313.8S1557.43 306.89 1583.44 306.89L1540 639 L-100 639 Z;M-100 308.49C-71.29 317.53 -72.04 308.71 -45.7 308.71S-18.07 306.23 8.61 306.23S36.41 318.05 62.91 318.05S91.62 304.77 117.22 304.77S145.17 308.36 171.52 308.36S199.03 319.27 225.83 319.27S253.32 314.19 280.13 314.19S307.6 316.27 334.44 316.27S362.78 306.88 388.74 306.88S416.61 314.15 443.05 314.15S470.29 310.39 497.35 310.39S525.2 319.32 551.66 319.32S579.11 317.28 605.96 317.28S633.61 304.28 660.26 304.28S687.9 310.46 714.57 310.46S743.26 313.56 768.87 313.56S797.29 312.85 823.18 312.85S851.38 307.6 877.48 307.6S906.15 320.4 931.79 320.4S959.19 314.16 986.09 314.16S1013.62 313.12 1040.4 313.12S1068.82 305.15 1094.7 305.15S1121.86 307.37 1149.01 307.37S1177.48 314.8 1203.31 314.8S1231.88 306.47 1257.62 306.47S1285.07 308.28 1311.92 308.28S1340.48 316.18 1366.23 316.18S1394.56 314.05 1420.53 314.05S1449.15 321.59 1474.83 321.59S1502.33 313.54 1529.14 313.54S1557.13 314.59 1583.44 314.59L1540 639 L-100 639 Z"></animate>
  <animateTransform attributeName="transform" type="translate" dur="39.130434782608695s" begin="-3.9130434782608696s" repeatCount="indefinite" values="0;10;0" calcMode="spline" keySplines="0.3 0 0.7 1;0.3 0 0.7 1"></animateTransform>
</path><path d="M -100 333.205 C -72.0539 320.845 -71.0525 331.494 -44.22 331.494 S -15.3364 322.323 11.56 322.323 S 39.7742 332.22 67.35 332.22 S 95.8289 320.6 123.13 320.6 S 151.78 329.563 178.91 329.563 S 207.834 329.149 234.69 329.149 S 263.225 331.296 290.48 331.296 S 319.719 323.241 346.26 323.241 S 374.513 336.809 402.04 336.809 S 430.06 328.955 457.82 328.955 S 486.653 337.564 513.61 337.564 S 542.164 332.821 569.39 332.821 S 597.431 330.085 625.17 330.085 S 653.968 331.867 680.95 331.867 S 709.585 338.416 736.73 338.416 S 764.939 329.602 792.52 329.602 S 821.176 331.233 848.3 331.233 S 876.912 324.394 904.08 324.394 S 932.477 323.182 959.86 323.182 S 988.943 326.536 1015.65 326.536 S 1043.97 333.329 1071.43 333.329 S 1100.42 333.566 1127.21 333.566 S 1155.63 329.322 1182.99 329.322 S 1211.66 329.719 1238.78 329.719 S 1266.84 340.068 1294.56 340.068 S 1322.89 331.949 1350.34 331.949 S 1378.97 331.307 1406.12 331.307 S 1435.21 337.287 1461.9 337.287 S 1490.33 330.049 1517.69 330.049 S 1545.89 322.873 1573.47 322.873 L 1540 639 L -100 639 Z" fill="#303030" stroke-width="0" transform="translate(9.7086 0)">
  <animate attributeName="d" dur="34.78260869565218s" repeatCount="indefinite" values="M-100 331.44C-72.04 321.38 -70.99 333.28 -44.22 333.28S-15.26 322.65 11.56 322.65S40.33 340.3 67.35 340.3S96.35 322.65 123.13 322.65S152.51 333.85 178.91 333.85S207.07 329.33 234.69 329.33S263.42 332.79 290.48 332.79S319.74 323.7 346.26 323.7S374.84 331.98 402.04 331.98S430.31 328.1 457.82 328.1S486.5 334.41 513.61 334.41S541.99 328.43 569.39 328.43S597.73 329.14 625.17 329.14S654.35 327.74 680.95 327.74S709.05 336.54 736.73 336.54S765.53 322.64 792.52 322.64S821.12 322.11 848.3 322.11S877.35 325.86 904.08 325.86S933.13 326.42 959.86 326.42S988.29 333.88 1015.65 333.88S1044.9 333.44 1071.43 333.44S1099.52 329.39 1127.21 329.39S1155.87 320.54 1182.99 320.54S1210.97 325.71 1238.78 325.71S1267.01 339.86 1294.56 339.86S1323.85 325.8 1350.34 325.8S1378.38 338.06 1406.12 338.06S1434.65 336.21 1461.9 336.21S1489.8 327.45 1517.69 327.45S1545.76 328.82 1573.47 328.82L1540 639 L-100 639 Z;M-100 333.98C-72.06 320.61 -71.08 330.71 -44.22 330.71S-15.37 322.18 11.56 322.18S39.53 328.67 67.35 328.67S95.6 319.7 123.13 319.7S151.46 327.68 178.91 327.68S208.17 329.07 234.69 329.07S263.14 330.64 290.48 330.64S319.71 323.04 346.26 323.04S374.37 338.93 402.04 338.93S429.95 329.33 457.82 329.33S486.72 338.95 513.61 338.95S542.24 334.75 569.39 334.75S597.3 330.5 625.17 330.5S653.8 333.68 680.95 333.68S709.82 339.24 736.73 339.24S764.68 332.66 792.52 332.66S821.2 335.24 848.3 335.24S876.72 323.75 904.08 323.75S932.19 321.76 959.86 321.76S989.23 323.31 1015.65 323.31S1043.56 333.28 1071.43 333.28S1100.82 335.4 1127.21 335.4S1155.52 333.18 1182.99 333.18S1211.96 331.48 1238.78 331.48S1266.76 340.16 1294.56 340.16S1322.47 334.65 1350.34 334.65S1379.23 328.34 1406.12 328.34S1435.45 337.76 1461.9 337.76S1490.57 331.19 1517.69 331.19S1545.95 320.26 1573.47 320.26L1540 639 L-100 639 Z;M-100 331.44C-72.04 321.38 -70.99 333.28 -44.22 333.28S-15.26 322.65 11.56 322.65S40.33 340.3 67.35 340.3S96.35 322.65 123.13 322.65S152.51 333.85 178.91 333.85S207.07 329.33 234.69 329.33S263.42 332.79 290.48 332.79S319.74 323.7 346.26 323.7S374.84 331.98 402.04 331.98S430.31 328.1 457.82 328.1S486.5 334.41 513.61 334.41S541.99 328.43 569.39 328.43S597.73 329.14 625.17 329.14S654.35 327.74 680.95 327.74S709.05 336.54 736.73 336.54S765.53 322.64 792.52 322.64S821.12 322.11 848.3 322.11S877.35 325.86 904.08 325.86S933.13 326.42 959.86 326.42S988.29 333.88 1015.65 333.88S1044.9 333.44 1071.43 333.44S1099.52 329.39 1127.21 329.39S1155.87 320.54 1182.99 320.54S1210.97 325.71 1238.78 325.71S1267.01 339.86 1294.56 339.86S1323.85 325.8 1350.34 325.8S1378.38 338.06 1406.12 338.06S1434.65 336.21 1461.9 336.21S1489.8 327.45 1517.69 327.45S1545.76 328.82 1573.47 328.82L1540 639 L-100 639 Z"></animate>
  <animateTransform attributeName="transform" type="translate" dur="34.78260869565218s" begin="-6.9565217391304355s" repeatCount="indefinite" values="0;10;0" calcMode="spline" keySplines="0.3 0 0.7 1;0.3 0 0.7 1"></animateTransform>
</path><path d="M -100 342.713 C -70.3227 341.174 -70.7162 358.811 -42.66 358.811 S -13.2239 346.081 14.69 346.081 S 43.808 351.28 72.03 351.28 S 101.414 353.154 129.37 353.154 S 158.846 348.022 186.71 348.022 S 216 339.554 244.06 339.554 S 274.156 355.646 301.4 355.646 S 330.845 342.643 358.74 342.643 S 387.856 348.253 416.08 348.253 S 445.221 344.364 473.43 344.364 S 502.962 351.255 530.77 351.255 S 560.256 341.28 588.11 341.28 S 617.522 352.778 645.45 352.778 S 674.564 345.626 702.8 345.626 S 732.267 351.588 760.14 351.588 S 789.926 345.274 817.48 345.274 S 846.453 351.196 874.83 351.196 S 903.853 357.153 932.17 357.153 S 961.364 347.41 989.51 347.41 S 1018.66 351.141 1046.85 351.141 S 1076.16 350.905 1104.2 350.905 S 1133.06 340.435 1161.54 340.435 S 1191.47 341.39 1218.88 341.39 S 1247.96 343.599 1276.22 343.599 S 1306.28 359.375 1333.57 359.375 S 1362.77 345.007 1390.91 345.007 S 1420.22 351.2 1448.25 351.2 S 1477.54 349.079 1505.59 349.079 S 1534.96 345.864 1562.94 345.864 L 1540 639 L -100 639 Z" fill="#474747" stroke-width="0" transform="translate(6.49581 0)">
  <animate attributeName="d" dur="30.434782608695656s" repeatCount="indefinite" values="M-100 348.43C-70.95 350.29 -71.28 357.85 -42.66 357.85S-13.74 360.62 14.69 360.62S44.88 345.11 72.03 345.11S100.89 349.97 129.37 349.97S159.1 359.21 186.71 359.21S216.23 337.99 244.06 337.99S274.1 346.07 301.4 346.07S330.13 341.46 358.74 341.46S388.38 352.43 416.08 352.43S445.65 345.15 473.43 345.15S502.7 359.99 530.77 359.99S560.01 350.69 588.11 350.69S618.38 348.57 645.45 348.57S675.16 336.51 702.8 336.51S732.72 358.25 760.14 358.25S789.06 345.56 817.48 345.56S847.08 346.71 874.83 346.71S904.83 346.33 932.17 346.33S961.15 355.7 989.51 355.7S1019.13 348.29 1046.85 348.29S1076.43 350.73 1104.2 350.73S1133.79 336.06 1161.54 336.06S1191.5 357.89 1218.88 357.89S1248.17 348.49 1276.22 348.49S1306.45 358.47 1333.57 358.47S1362.27 338.44 1390.91 338.44S1420.51 346.11 1448.25 346.11S1478.48 350.81 1505.59 350.81S1535.48 347.69 1562.94 347.69L1540 639 L-100 639 Z;M-100 341.23C-70.16 338.81 -70.57 359.06 -42.66 359.06S-13.09 342.31 14.69 342.31S43.53 352.88 72.03 352.88S101.55 353.98 129.37 353.98S158.78 345.12 186.71 345.12S215.94 339.96 244.06 339.96S274.17 358.13 301.4 358.13S331.03 342.95 358.74 342.95S387.72 347.17 416.08 347.17S445.11 344.16 473.43 344.16S503.03 348.99 530.77 348.99S560.32 338.84 588.11 338.84S617.3 353.87 645.45 353.87S674.41 347.99 702.8 347.99S732.15 349.86 760.14 349.86S790.15 345.2 817.48 345.2S846.29 352.36 874.83 352.36S903.6 359.96 932.17 359.96S961.42 345.26 989.51 345.26S1018.54 351.88 1046.85 351.88S1076.09 350.95 1104.2 350.95S1132.87 341.57 1161.54 341.57S1191.46 337.11 1218.88 337.11S1247.9 342.33 1276.22 342.33S1306.23 359.61 1333.57 359.61S1362.9 346.71 1390.91 346.71S1420.14 352.52 1448.25 352.52S1477.3 348.63 1505.59 348.63S1534.83 345.39 1562.94 345.39L1540 639 L-100 639 Z;M-100 348.43C-70.95 350.29 -71.28 357.85 -42.66 357.85S-13.74 360.62 14.69 360.62S44.88 345.11 72.03 345.11S100.89 349.97 129.37 349.97S159.1 359.21 186.71 359.21S216.23 337.99 244.06 337.99S274.1 346.07 301.4 346.07S330.13 341.46 358.74 341.46S388.38 352.43 416.08 352.43S445.65 345.15 473.43 345.15S502.7 359.99 530.77 359.99S560.01 350.69 588.11 350.69S618.38 348.57 645.45 348.57S675.16 336.51 702.8 336.51S732.72 358.25 760.14 358.25S789.06 345.56 817.48 345.56S847.08 346.71 874.83 346.71S904.83 346.33 932.17 346.33S961.15 355.7 989.51 355.7S1019.13 348.29 1046.85 348.29S1076.43 350.73 1104.2 350.73S1133.79 336.06 1161.54 336.06S1191.5 357.89 1218.88 357.89S1248.17 348.49 1276.22 348.49S1306.45 358.47 1333.57 358.47S1362.27 338.44 1390.91 338.44S1420.51 346.11 1448.25 346.11S1478.48 350.81 1505.59 350.81S1535.48 347.69 1562.94 347.69L1540 639 L-100 639 Z"></animate>
  <animateTransform attributeName="transform" type="translate" dur="30.434782608695656s" begin="-9.130434782608697s" repeatCount="indefinite" values="0;10;0" calcMode="spline" keySplines="0.3 0 0.7 1;0.3 0 0.7 1"></animateTransform>
</path><path d="M -100 356.914 C -70.3804 360.285 -69.5716 359.837 -41.01 359.837 S -10.0091 361.97 17.99 361.97 S 48.3924 367.575 76.98 367.575 S 107.434 359.294 135.97 359.294 S 166.925 377.135 194.96 377.135 S 224.547 376.672 253.96 376.672 S 283.628 365.896 312.95 365.896 S 343.612 360.04 371.94 360.04 S 402.776 374.309 430.94 374.309 S 460.56 361.027 489.93 361.027 S 520.078 372.202 548.92 372.202 S 579.072 363.518 607.91 363.518 S 637.86 370.276 666.91 370.276 S 697.25 361.291 725.9 361.291 S 756.246 374.857 784.89 374.857 S 815.314 367.429 843.88 367.429 S 873.998 376.994 902.88 376.994 S 932.948 376.493 961.87 376.493 S 992.663 367.964 1020.86 367.964 S 1050.88 356.819 1079.86 356.819 S 1110.3 365.914 1138.85 365.914 S 1168.7 360.14 1197.84 360.14 S 1228.28 364.863 1256.83 364.863 S 1287.91 355.625 1315.83 355.625 S 1346.1 374.536 1374.82 374.536 S 1405.41 353.616 1433.81 353.616 S 1464.3 371.606 1492.81 371.606 S 1522.9 360.268 1551.8 360.268 L 1540 639 L -100 639 Z" fill="#5e5e5e" stroke-width="0" transform="translate(1.94235 0)">
  <animate attributeName="d" dur="26.086956521739133s" repeatCount="indefinite" values="M-100 358.73C-69.63 358.08 -69.97 366.85 -41.01 366.85S-10.25 352.4 17.99 352.4S48.8 358.95 76.98 358.95S107.23 356.33 135.97 356.33S166.49 362.72 194.96 362.72S224.51 361.47 253.96 361.47S284.73 376.29 312.95 376.29S343.76 355.39 371.94 355.39S401.47 353.41 430.94 353.41S461.56 354.45 489.93 354.45S520.93 374.36 548.92 374.36S578.97 367.14 607.91 367.14S637.99 372.62 666.91 372.62S696.74 365.21 725.9 365.21S756.95 365.76 784.89 365.76S815.87 378.62 843.88 378.62S874.86 371.63 902.88 371.63S932.79 371.37 961.87 371.37S991.57 366.88 1020.86 366.88S1050.44 361.09 1079.86 361.09S1110.66 379.31 1138.85 379.31S1168.49 367.69 1197.84 367.69S1228.34 372.33 1256.83 372.33S1287.64 367.01 1315.83 367.01S1345.86 372.97 1374.82 372.97S1405.88 358.85 1433.81 358.85S1464.17 354.81 1492.81 354.81S1523.53 358.1 1551.8 358.1L1540 639 L-100 639 Z;M-100 356.77C-70.44 360.46 -69.54 359.28 -41.01 359.28S-9.99 362.73 17.99 362.73S48.36 368.26 76.98 368.26S107.45 359.53 135.97 359.53S166.96 378.28 194.96 378.28S224.55 377.88 253.96 377.88S283.54 365.07 312.95 365.07S343.6 360.41 371.94 360.41S402.88 375.97 430.94 375.97S460.48 361.55 489.93 361.55S520.01 372.03 548.92 372.03S579.08 363.23 607.91 363.23S637.85 370.09 666.91 370.09S697.29 360.98 725.9 360.98S756.19 375.58 784.89 375.58S815.27 366.54 843.88 366.54S873.93 377.42 902.88 377.42S932.96 376.9 961.87 376.9S992.75 368.05 1020.86 368.05S1050.92 356.48 1079.86 356.48S1110.27 364.85 1138.85 364.85S1168.72 359.54 1197.84 359.54S1228.27 364.27 1256.83 364.27S1287.93 354.72 1315.83 354.72S1346.12 374.66 1374.82 374.66S1405.37 353.2 1433.81 353.2S1464.31 372.94 1492.81 372.94S1522.85 360.44 1551.8 360.44L1540 639 L-100 639 Z;M-100 358.73C-69.63 358.08 -69.97 366.85 -41.01 366.85S-10.25 352.4 17.99 352.4S48.8 358.95 76.98 358.95S107.23 356.33 135.97 356.33S166.49 362.72 194.96 362.72S224.51 361.47 253.96 361.47S284.73 376.29 312.95 376.29S343.76 355.39 371.94 355.39S401.47 353.41 430.94 353.41S461.56 354.45 489.93 354.45S520.93 374.36 548.92 374.36S578.97 367.14 607.91 367.14S637.99 372.62 666.91 372.62S696.74 365.21 725.9 365.21S756.95 365.76 784.89 365.76S815.87 378.62 843.88 378.62S874.86 371.63 902.88 371.63S932.79 371.37 961.87 371.37S991.57 366.88 1020.86 366.88S1050.44 361.09 1079.86 361.09S1110.66 379.31 1138.85 379.31S1168.49 367.69 1197.84 367.69S1228.34 372.33 1256.83 372.33S1287.64 367.01 1315.83 367.01S1345.86 372.97 1374.82 372.97S1405.88 358.85 1433.81 358.85S1464.17 354.81 1492.81 354.81S1523.53 358.1 1551.8 358.1L1540 639 L-100 639 Z"></animate>
  <animateTransform attributeName="transform" type="translate" dur="26.086956521739133s" begin="-10.434782608695652s" repeatCount="indefinite" values="0;10;0" calcMode="spline" keySplines="0.3 0 0.7 1;0.3 0 0.7 1"></animateTransform>
</path><path d="M -100 375.279 C -68.6517 375.63 -69.429 397.29 -39.26 397.29 S -8.19812 381.41 21.48 381.41 S 51.9878 385.424 82.22 385.424 S 113.566 371.471 142.96 371.471 S 174.145 386.534 203.7 386.534 S 234.603 379.855 264.44 379.855 S 295.257 394.276 325.19 394.276 S 357.057 373.301 385.93 373.301 S 416.483 386.006 446.67 386.006 S 477.801 382.435 507.41 382.435 S 538.122 397.206 568.15 397.206 S 599.341 375.657 628.89 375.657 S 659.883 387.04 689.63 387.04 S 721.268 370.521 750.37 370.521 S 781.961 386.661 811.11 386.661 S 841.709 377.868 871.85 377.868 S 902.93 398.103 932.59 398.103 S 964.136 379.547 993.33 379.547 S 1024.14 388.884 1054.07 388.884 S 1085.22 373.492 1114.81 373.492 S 1145.77 372.873 1175.56 372.873 S 1206.49 379.944 1236.3 379.944 S 1268.04 394.336 1297.04 394.336 S 1327.57 380.943 1357.78 380.943 S 1388.69 385.621 1418.52 385.621 S 1449.41 371.745 1479.26 371.745 S 1510.58 396.877 1540 396.877 S 1571.42 374.572 1600.74 374.572 L 1540 639 L -100 639 Z" fill="#777777" stroke-width="0" transform="translate(0.395472 0)">
  <animate attributeName="d" dur="21.73913043478261s" repeatCount="indefinite" values="M-100 373.04C-69.62 371.1 -69.58 391.4 -39.26 391.4S-8.74 372.66 21.48 372.66S51.97 393.97 82.22 393.97S112.9 370.84 142.96 370.84S173.87 395.95 203.7 395.95S235.66 374.72 264.44 374.72S295.23 384.38 325.19 384.38S356.56 367.5 385.93 367.5S417.14 394.17 446.67 394.17S478.6 377.07 507.41 377.07S539.01 385.64 568.15 385.64S599.27 368.63 628.89 368.63S659.59 386.64 689.63 386.64S721.01 367.59 750.37 367.59S782.21 395.5 811.11 395.5S841.62 374.35 871.85 374.35S902.45 396.54 932.59 396.54S962.99 387.72 993.33 387.72S1024.31 367.84 1054.07 367.84S1085.55 383.05 1114.81 383.05S1145.98 381.73 1175.56 381.73S1206.2 375.76 1236.3 375.76S1267.74 392.32 1297.04 392.32S1328.31 386.69 1357.78 386.69S1389.22 392.07 1418.52 392.07S1449.75 381.97 1479.26 381.97S1511.22 393.59 1540 393.59S1571.73 369.97 1600.74 369.97L1540 639 L-100 639 Z;M-100 375.56C-68.53 376.2 -69.41 398.03 -39.26 398.03S-8.13 382.51 21.48 382.51S51.99 384.35 82.22 384.35S113.65 371.55 142.96 371.55S174.18 385.35 203.7 385.35S234.47 380.5 264.44 380.5S295.26 395.52 325.19 395.52S357.12 374.03 385.93 374.03S416.4 384.98 446.67 384.98S477.7 383.11 507.41 383.11S538.01 398.66 568.15 398.66S599.35 376.54 628.89 376.54S659.92 387.09 689.63 387.09S721.3 370.89 750.37 370.89S781.93 385.55 811.11 385.55S841.72 378.31 871.85 378.31S902.99 398.3 932.59 398.3S964.28 378.52 993.33 378.52S1024.12 391.53 1054.07 391.53S1085.18 372.29 1114.81 372.29S1145.74 371.76 1175.56 371.76S1206.53 380.47 1236.3 380.47S1268.08 394.59 1297.04 394.59S1327.48 380.22 1357.78 380.22S1388.62 384.81 1418.52 384.81S1449.37 370.46 1479.26 370.46S1510.5 397.29 1540 397.29S1571.38 375.15 1600.74 375.15L1540 639 L-100 639 Z;M-100 373.04C-69.62 371.1 -69.58 391.4 -39.26 391.4S-8.74 372.66 21.48 372.66S51.97 393.97 82.22 393.97S112.9 370.84 142.96 370.84S173.87 395.95 203.7 395.95S235.66 374.72 264.44 374.72S295.23 384.38 325.19 384.38S356.56 367.5 385.93 367.5S417.14 394.17 446.67 394.17S478.6 377.07 507.41 377.07S539.01 385.64 568.15 385.64S599.27 368.63 628.89 368.63S659.59 386.64 689.63 386.64S721.01 367.59 750.37 367.59S782.21 395.5 811.11 395.5S841.62 374.35 871.85 374.35S902.45 396.54 932.59 396.54S962.99 387.72 993.33 387.72S1024.31 367.84 1054.07 367.84S1085.55 383.05 1114.81 383.05S1145.98 381.73 1175.56 381.73S1206.2 375.76 1236.3 375.76S1267.74 392.32 1297.04 392.32S1328.31 386.69 1357.78 386.69S1389.22 392.07 1418.52 392.07S1449.75 381.97 1479.26 381.97S1511.22 393.59 1540 393.59S1571.73 369.97 1600.74 369.97L1540 639 L-100 639 Z"></animate>
  <animateTransform attributeName="transform" type="translate" dur="21.73913043478261s" begin="-10.869565217391305s" repeatCount="indefinite" values="0;10;0" calcMode="spline" keySplines="0.3 0 0.7 1;0.3 0 0.7 1"></animateTransform>
</path><path d="M -100 384.18 C -67.9947 393.736 -68.166 412.595 -37.4 412.595 S -5.46028 390.314 25.19 390.314 S 57.3281 411.002 87.79 411.002 S 119.976 389.518 150.38 389.518 S 182.632 414.858 212.98 414.858 S 244.752 385.547 275.57 385.547 S 307.875 408.895 338.17 408.895 S 370.184 402.19 400.76 402.19 S 433.387 412.071 463.36 412.071 S 495.068 393.88 525.95 393.88 S 557.745 408.59 588.55 408.59 S 620.2 390.161 651.15 390.161 S 682.945 407.666 713.74 407.666 S 745.728 401.691 776.34 401.691 S 808.492 414.937 838.93 414.937 S 870.716 391.932 901.53 391.932 S 933.139 409.982 964.12 409.982 S 995.562 396.946 1026.72 396.946 S 1058.53 413.408 1089.31 413.408 S 1121.24 392.225 1151.91 392.225 S 1183.68 407.786 1214.5 407.786 S 1246.85 395.901 1277.1 395.901 S 1308.96 409.068 1339.69 409.068 S 1371.33 385.797 1402.29 385.797 S 1434.61 412.827 1464.89 412.827 S 1497.15 410.995 1527.48 410.995 S 1558.95 413.512 1590.08 413.512 L 1540 639 L -100 639 Z" fill="#919191" stroke-width="0" transform="translate(6.26921 0)">
  <animate attributeName="d" dur="17.39130434782609s" repeatCount="indefinite" values="M-100 384.9C-67.25 396.77 -68.05 409.61 -37.4 409.61S-4.74 398.31 25.19 398.31S56.62 404.41 87.79 404.41S119.97 391.52 150.38 391.52S182.51 413.46 212.98 413.46S245.21 386.06 275.57 386.06S307.32 418.35 338.17 418.35S370.05 391.99 400.76 391.99S433.07 409.69 463.36 409.69S494.69 397.17 525.95 397.17S558.27 411.38 588.55 411.38S620.09 392.67 651.15 392.67S683 408.6 713.74 408.6S745.99 409.59 776.34 409.59S808.26 410.56 838.93 410.56S871.04 387.83 901.53 387.83S933.31 410.83 964.12 410.83S995.58 395.78 1026.72 395.78S1058.49 410.96 1089.31 410.96S1121.75 391.7 1151.91 391.7S1183.67 406.73 1214.5 406.73S1247.33 414.03 1277.1 414.03S1309.66 411.43 1339.69 411.43S1371.49 386.78 1402.29 386.78S1434.31 405.35 1464.89 405.35S1496.56 404.86 1527.48 404.86S1558.96 413.03 1590.08 413.03L1540 639 L-100 639 Z;M-100 383.72C-68.47 391.8 -68.24 414.5 -37.4 414.5S-5.92 385.21 25.19 385.21S57.78 415.21 87.79 415.21S119.98 388.24 150.38 388.24S182.71 415.75 212.98 415.75S244.46 385.22 275.57 385.22S308.23 402.86 338.17 402.86S370.27 408.7 400.76 408.7S433.59 413.59 463.36 413.59S495.31 391.78 525.95 391.78S557.41 406.81 588.55 406.81S620.27 388.56 651.15 388.56S682.91 407.07 713.74 407.07S745.56 396.65 776.34 396.65S808.64 417.73 838.93 417.73S870.51 394.55 901.53 394.55S933.03 409.44 964.12 409.44S995.55 397.69 1026.72 397.69S1058.55 414.97 1089.31 414.97S1120.92 392.56 1151.91 392.56S1183.68 408.46 1214.5 408.46S1246.55 384.33 1277.1 384.33S1308.51 407.56 1339.69 407.56S1371.23 385.17 1402.29 385.17S1434.8 417.6 1464.89 417.6S1497.53 414.91 1527.48 414.91S1558.94 413.82 1590.08 413.82L1540 639 L-100 639 Z;M-100 384.9C-67.25 396.77 -68.05 409.61 -37.4 409.61S-4.74 398.31 25.19 398.31S56.62 404.41 87.79 404.41S119.97 391.52 150.38 391.52S182.51 413.46 212.98 413.46S245.21 386.06 275.57 386.06S307.32 418.35 338.17 418.35S370.05 391.99 400.76 391.99S433.07 409.69 463.36 409.69S494.69 397.17 525.95 397.17S558.27 411.38 588.55 411.38S620.09 392.67 651.15 392.67S683 408.6 713.74 408.6S745.99 409.59 776.34 409.59S808.26 410.56 838.93 410.56S871.04 387.83 901.53 387.83S933.31 410.83 964.12 410.83S995.58 395.78 1026.72 395.78S1058.49 410.96 1089.31 410.96S1121.75 391.7 1151.91 391.7S1183.67 406.73 1214.5 406.73S1247.33 414.03 1277.1 414.03S1309.66 411.43 1339.69 411.43S1371.49 386.78 1402.29 386.78S1434.31 405.35 1464.89 405.35S1496.56 404.86 1527.48 404.86S1558.96 413.03 1590.08 413.03L1540 639 L-100 639 Z"></animate>
  <animateTransform attributeName="transform" type="translate" dur="17.39130434782609s" begin="-10.434782608695652s" repeatCount="indefinite" values="0;10;0" calcMode="spline" keySplines="0.3 0 0.7 1;0.3 0 0.7 1"></animateTransform>
</path><path d="M -100 410.927 C -67.233 411.565 -67.3579 429.888 -35.43 429.888 S -1.90883 400.518 29.13 400.518 S 62.8606 428.113 93.7 428.113 S 126.762 414.266 158.27 414.266 S 191.099 424.413 222.83 424.413 S 255.948 407.332 287.4 407.332 S 320 428.127 351.97 428.127 S 385.154 420.203 416.54 420.203 S 449.508 407.041 481.1 407.041 S 514.069 430.295 545.67 430.295 S 578.269 432.748 610.24 432.748 S 643.906 403.784 674.8 403.784 S 707.969 428.098 739.37 428.098 S 772.049 414.995 803.94 414.995 S 837.437 426.439 868.5 426.439 S 901.584 402.691 933.07 402.691 S 966.259 434.163 997.64 434.163 S 1030.41 401.656 1062.2 401.656 S 1094.92 433.365 1126.77 433.365 S 1160.1 408.285 1191.34 408.285 S 1223.88 411.566 1255.91 411.566 S 1288.61 409.79 1320.47 409.79 S 1353.19 432.82 1385.04 432.82 S 1418.47 411.144 1449.61 411.144 S 1482.89 405.859 1514.17 405.859 S 1547.88 412.656 1578.74 412.656 L 1540 639 L -100 639 Z" fill="#ababab" stroke-width="0" transform="translate(8.30043 0)">
  <animate attributeName="d" dur="13.043478260869566s" repeatCount="indefinite" values="M-100 410.17C-67.18 413.27 -67.43 431.11 -35.43 431.11S-1.9 400.39 29.13 400.39S62.89 428.55 93.7 428.55S126.89 414.2 158.27 414.2S191.08 424.85 222.83 424.85S255.83 403.41 287.4 403.41S319.81 426.59 351.97 426.59S385.07 423.4 416.54 423.4S449.37 403.47 481.1 403.47S513.97 434.75 545.67 434.75S578.26 433.26 610.24 433.26S644.1 402.87 674.8 402.87S707.86 428.17 739.37 428.17S771.88 411.41 803.94 411.41S837.53 425.88 868.5 425.88S901.53 401.03 933.07 401.03S966.33 434.68 997.64 434.68S1030.29 400.19 1062.2 400.19S1094.98 434.39 1126.77 434.39S1160.06 403.37 1191.34 403.37S1223.85 407.39 1255.91 407.39S1288.42 409.15 1320.47 409.15S1353.03 432.29 1385.04 432.29S1418.47 412.03 1449.61 412.03S1482.9 401.63 1514.17 401.63S1547.89 413.87 1578.74 413.87L1540 639 L-100 639 Z;M-100 415.31C-67.54 401.69 -66.94 422.81 -35.43 422.81S-1.96 401.26 29.13 401.26S62.69 425.58 93.7 425.58S126.02 414.65 158.27 414.65S191.21 421.88 222.83 421.88S256.63 430.05 287.4 430.05S321.1 437.03 351.97 437.03S385.64 401.68 416.54 401.68S450.31 427.73 481.1 427.73S514.64 404.49 545.67 404.49S578.32 429.78 610.24 429.78S642.78 409.08 674.8 409.08S708.6 427.68 739.37 427.68S773.03 435.76 803.94 435.76S836.9 429.68 868.5 429.68S901.9 412.31 933.07 412.31S965.85 431.17 997.64 431.17S1031.08 410.15 1062.2 410.15S1094.56 427.43 1126.77 427.43S1160.34 436.76 1191.34 436.76S1224.05 435.76 1255.91 435.76S1289.71 413.5 1320.47 413.5S1354.11 435.89 1385.04 435.89S1418.48 406.01 1449.61 406.01S1482.86 430.36 1514.17 430.36S1547.85 405.62 1578.74 405.62L1540 639 L-100 639 Z;M-100 410.17C-67.18 413.27 -67.43 431.11 -35.43 431.11S-1.9 400.39 29.13 400.39S62.89 428.55 93.7 428.55S126.89 414.2 158.27 414.2S191.08 424.85 222.83 424.85S255.83 403.41 287.4 403.41S319.81 426.59 351.97 426.59S385.07 423.4 416.54 423.4S449.37 403.47 481.1 403.47S513.97 434.75 545.67 434.75S578.26 433.26 610.24 433.26S644.1 402.87 674.8 402.87S707.86 428.17 739.37 428.17S771.88 411.41 803.94 411.41S837.53 425.88 868.5 425.88S901.53 401.03 933.07 401.03S966.33 434.68 997.64 434.68S1030.29 400.19 1062.2 400.19S1094.98 434.39 1126.77 434.39S1160.06 403.37 1191.34 403.37S1223.85 407.39 1255.91 407.39S1288.42 409.15 1320.47 409.15S1353.03 432.29 1385.04 432.29S1418.47 412.03 1449.61 412.03S1482.9 401.63 1514.17 401.63S1547.89 413.87 1578.74 413.87L1540 639 L-100 639 Z"></animate>
  <animateTransform attributeName="transform" type="translate" dur="13.043478260869566s" begin="-9.130434782608697s" repeatCount="indefinite" values="0;10;0" calcMode="spline" keySplines="0.3 0 0.7 1;0.3 0 0.7 1"></animateTransform>
</path><path d="M -100 419.797 C -65.2561 419.28 -66.0765 456.319 -33.33 456.319 S 0.446016 421.637 33.33 421.637 S 67.2873 453.115 100 453.115 S 134.418 421.115 166.67 421.115 S 200.653 443.996 233.33 443.996 S 266.996 425.136 300 425.136 S 333.607 452.663 366.67 452.663 S 400.444 419.862 433.33 419.862 S 468.084 443.813 500 443.813 S 533.978 429.466 566.67 429.466 S 600.454 444.605 633.33 444.605 S 667.994 438.747 700 438.747 S 734.668 442.458 766.67 442.458 S 800.37 428.377 833.33 428.377 S 867.051 454.167 900 454.167 S 933.891 432.922 966.67 432.922 S 1000.87 453.367 1033.33 453.367 S 1067.19 420.261 1100 420.261 S 1133.99 451.898 1166.67 451.898 S 1200.75 439.276 1233.33 439.276 S 1267.21 453.367 1300 453.367 S 1334.33 423.709 1366.67 423.709 S 1400.56 454.433 1433.33 454.433 S 1467.89 417.769 1500 417.769 S 1534.47 426.084 1566.67 426.084 L 1540 639 L -100 639 Z" fill="#c6c6c6" stroke-width="0" transform="translate(3.30041 0)">
  <animate attributeName="d" dur="8.695652173913045s" repeatCount="indefinite" values="M-100 420.81C-65.56 429.76 -66.17 455.54 -33.33 455.54S1.42 428.19 33.33 428.19S66.96 450.38 100 450.38S134.48 416.37 166.67 416.37S201.3 446.77 233.33 446.77S267.51 416.76 300 416.76S334.3 443.5 366.67 443.5S400.46 418.81 433.33 418.81S467.92 446.86 500 446.86S533.62 424.83 566.67 424.83S600.68 447.13 633.33 447.13S667.9 417 700 417S734.38 441.11 766.67 441.11S800.05 429.46 833.33 429.46S867.3 455.71 900 455.71S934.6 443.09 966.67 443.09S1000.42 448.1 1033.33 448.1S1066.96 421.64 1100 421.64S1133.8 455.88 1166.67 455.88S1201.58 419.82 1233.33 419.82S1266.93 447.5 1300 447.5S1333.66 422.26 1366.67 422.26S1401.11 455.5 1433.33 455.5S1466.94 416.53 1500 416.53S1534.46 428.64 1566.67 428.64L1540 639 L-100 639 Z;M-100 419.51C-65.17 416.31 -66.05 456.54 -33.33 456.54S0.17 419.78 33.33 419.78S67.38 453.89 100 453.89S134.4 422.46 166.67 422.46S200.47 443.21 233.33 443.21S266.85 427.51 300 427.51S333.41 455.26 366.67 455.26S400.44 420.16 433.33 420.16S468.13 442.95 500 442.95S534.08 430.78 566.67 430.78S600.39 443.89 633.33 443.89S668.02 444.91 700 444.91S734.75 442.84 766.67 442.84S800.46 428.07 833.33 428.07S866.98 453.73 900 453.73S933.69 430.04 966.67 430.04S1001 454.86 1033.33 454.86S1067.26 419.87 1100 419.87S1134.04 450.77 1166.67 450.77S1200.52 444.79 1233.33 444.79S1267.29 455.03 1300 455.03S1334.52 424.12 1366.67 424.12S1400.4 454.13 1433.33 454.13S1468.16 418.12 1500 418.12S1534.47 425.36 1566.67 425.36L1540 639 L-100 639 Z;M-100 420.81C-65.56 429.76 -66.17 455.54 -33.33 455.54S1.42 428.19 33.33 428.19S66.96 450.38 100 450.38S134.48 416.37 166.67 416.37S201.3 446.77 233.33 446.77S267.51 416.76 300 416.76S334.3 443.5 366.67 443.5S400.46 418.81 433.33 418.81S467.92 446.86 500 446.86S533.62 424.83 566.67 424.83S600.68 447.13 633.33 447.13S667.9 417 700 417S734.38 441.11 766.67 441.11S800.05 429.46 833.33 429.46S867.3 455.71 900 455.71S934.6 443.09 966.67 443.09S1000.42 448.1 1033.33 448.1S1066.96 421.64 1100 421.64S1133.8 455.88 1166.67 455.88S1201.58 419.82 1233.33 419.82S1266.93 447.5 1300 447.5S1333.66 422.26 1366.67 422.26S1401.11 455.5 1433.33 455.5S1466.94 416.53 1500 416.53S1534.46 428.64 1566.67 428.64L1540 639 L-100 639 Z"></animate>
  <animateTransform attributeName="transform" type="translate" dur="8.695652173913045s" begin="-6.9565217391304355s" repeatCount="indefinite" values="0;10;0" calcMode="spline" keySplines="0.3 0 0.7 1;0.3 0 0.7 1"></animateTransform>
</path><path d="M -100 440.63 C -65.0974 435.719 -64.0742 450.665 -31.09 450.665 S 3.78909 464.228 37.82 464.228 S 72.738 466.036 106.72 466.036 S 142.6 453.671 175.63 453.671 S 210.935 458.981 244.54 458.981 S 279.563 451.152 313.45 451.152 S 348.733 468.559 382.35 468.559 S 417.501 438.913 451.26 438.913 S 486.293 458.395 520.17 458.395 S 555.008 439.288 589.08 439.288 S 624.197 466.885 657.98 466.885 S 693.843 436.885 726.89 436.885 S 761.925 467.148 795.8 467.148 S 830.572 437.917 864.71 437.917 S 900.353 464.35 933.61 464.35 S 969.082 452.504 1002.52 452.504 S 1038.3 466.042 1071.43 466.042 S 1107.03 454.822 1140.34 454.822 S 1175.23 467.792 1209.24 467.792 S 1244.49 440.871 1278.15 440.871 S 1313.23 469.181 1347.06 469.181 S 1382.32 434.348 1415.97 434.348 S 1451.44 449.996 1484.87 449.996 S 1519.98 451.287 1553.78 451.287 L 1540 639 L -100 639 Z" fill="#e2e2e2" stroke-width="0" transform="translate(6.98072 0)">
  <animate attributeName="d" dur="4.347826086956522s" repeatCount="indefinite" values="M-100 443.28C-65.04 433.25 -64.03 441.74 -31.09 441.74S3.82 462.02 37.82 462.02S72.95 461.09 106.72 461.09S142.49 445.02 175.63 445.02S211.16 472.19 244.54 472.19S279.47 464.82 313.45 464.82S348.19 469.57 382.35 469.57S417.32 443.7 451.26 443.7S486.01 471.52 520.17 471.52S554.73 442.94 589.08 442.94S624.48 461.4 657.98 461.4S693.71 435.98 726.89 435.98S762.23 462.06 795.8 462.06S830.81 442.55 864.71 442.55S900.64 464.69 933.61 464.69S969.59 441.83 1002.52 441.83S1038.48 463.33 1071.43 463.33S1106.78 463.01 1140.34 463.01S1175.49 463.53 1209.24 463.53S1244.61 440.27 1278.15 440.27S1312.8 473.01 1347.06 473.01S1382.84 435.24 1415.97 435.24S1451.89 434.53 1484.87 434.53S1519.8 431.82 1553.78 431.82L1540 639 L-100 639 Z;M-100 437.28C-65.17 438.84 -64.13 461.95 -31.09 461.95S3.75 467.02 37.82 467.02S72.47 472.29 106.72 472.29S142.74 464.61 175.63 464.61S210.65 442.28 244.54 442.28S279.68 433.87 313.45 433.87S349.42 467.28 382.35 467.28S417.73 432.86 451.26 432.86S486.65 441.8 520.17 441.8S555.36 434.67 589.08 434.67S623.84 473.82 657.98 473.82S694.01 438.03 726.89 438.03S761.54 473.58 795.8 473.58S830.27 432.06 864.71 432.06S899.99 463.92 933.61 463.92S968.44 466 1002.52 466S1038.07 469.47 1071.43 469.47S1107.34 444.47 1140.34 444.47S1174.9 473.18 1209.24 473.18S1244.34 441.63 1278.15 441.63S1313.78 464.34 1347.06 464.34S1381.67 433.22 1415.97 433.22S1450.87 469.55 1484.87 469.55S1520.2 475.9 1553.78 475.9L1540 639 L-100 639 Z;M-100 443.28C-65.04 433.25 -64.03 441.74 -31.09 441.74S3.82 462.02 37.82 462.02S72.95 461.09 106.72 461.09S142.49 445.02 175.63 445.02S211.16 472.19 244.54 472.19S279.47 464.82 313.45 464.82S348.19 469.57 382.35 469.57S417.32 443.7 451.26 443.7S486.01 471.52 520.17 471.52S554.73 442.94 589.08 442.94S624.48 461.4 657.98 461.4S693.71 435.98 726.89 435.98S762.23 462.06 795.8 462.06S830.81 442.55 864.71 442.55S900.64 464.69 933.61 464.69S969.59 441.83 1002.52 441.83S1038.48 463.33 1071.43 463.33S1106.78 463.01 1140.34 463.01S1175.49 463.53 1209.24 463.53S1244.61 440.27 1278.15 440.27S1312.8 473.01 1347.06 473.01S1382.84 435.24 1415.97 435.24S1451.89 434.53 1484.87 434.53S1519.8 431.82 1553.78 431.82L1540 639 L-100 639 Z"></animate>
  <animateTransform attributeName="transform" type="translate" dur="4.347826086956522s" begin="-3.91304347826087s" repeatCount="indefinite" values="0;10;0" calcMode="spline" keySplines="0.3 0 0.7 1;0.3 0 0.7 1"></animateTransform>
</path></g>
</svg>