<?xml version="1.0" encoding="utf-8"?>
<svg xmlns="http://www.w3.org/2000/svg" xmlns:xlink="http://www.w3.org/1999/xlink" style="margin: auto; background: none; display: block; z-index: 1; position: relative; shape-rendering: auto;" width="1440" height="639" preserveAspectRatio="xMidYMid" viewBox="0 0 1440 639">
<g transform=""><g transform="translate(1118.2381262373478,10.594844958899955) scale(100)" opacity="0.54">
  <path d="M4.661999999999999 0 C4.661999999999999 1.1591999999999998 5.271725637704089 1.705103351933078 4.6921256377040885 2.708999999999999 S3.334896648066921 3.4578104324430514 2.331 4.0374104324430515 S1.1592 5.417999999999999 3.3175681788901795e-16 5.417999999999999 S-1.3271033519330775 4.6170104324430525 -2.3309999999999986 4.037410432443052 S-4.112525637704087 3.7128966480669225 -4.692125637704087 2.7090000000000014 S-4.661999999999999 1.1592000000000005 -4.661999999999999 5.70930337762496e-16 S-5.271725637704088 -1.705103351933077 -4.6921256377040885 -2.7089999999999983 S-3.3348966480669224 -3.457810432443051 -2.3310000000000017 -4.0374104324430515 S-1.1592000000000007 -5.417999999999999 -9.952704536670537e-16 -5.417999999999999 S1.3271033519330748 -4.617010432443053 2.3309999999999964 -4.037410432443054 S4.112525637704087 -3.7128966480669225 4.692125637704087 -2.709000000000002 S4.661999999999999 -1.159200000000001 4.661999999999999 -1.141860675524992e-15" fill="#0a0a0a" stroke-width="0" transform="rotate(6.00364)">
    <animateTransform attributeName="transform" type="rotate" dur="10s" repeatCount="indefinite" values="0;60"></animateTransform>
  </path>
</g><g transform="translate(1197.8857514848175,-51.1861860493201) scale(100)" opacity="0.54">
  <path d="M5.594399999999999 0 C5.594399999999999 1.3910399999999996 6.326070765244905 2.0461240223196935 5.630550765244906 3.250799999999999 S4.001875977680305 4.149372518931663 2.7972 4.844892518931663 S1.39104 6.501599999999999 3.9810818146682153e-16 6.501599999999999 S-1.592524022319693 5.540412518931663 -2.7971999999999984 4.844892518931664 S-4.935030765244904 4.455475977680306 -5.630550765244904 3.2508000000000017 S-5.594399999999999 1.3910400000000003 -5.594399999999999 6.8511640531499525e-16 S-6.326070765244906 -2.046124022319692 -5.630550765244907 -3.2507999999999977 S-4.0018759776803075 -4.149372518931662 -2.7972000000000024 -4.844892518931662 S-1.3910400000000007 -6.501599999999999 -1.1943245444004645e-15 -6.501599999999999 S1.5925240223196904 -5.540412518931665 2.797199999999996 -4.844892518931665 S4.935030765244903 -4.455475977680307 5.630550765244903 -3.2508000000000026 S5.594399999999999 -1.391040000000001 5.594399999999999 -1.3702328106299905e-15" fill="#1b1b1b" stroke-width="0" transform="rotate(12.0073)">
    <animateTransform attributeName="transform" type="rotate" dur="5s" repeatCount="indefinite" values="0;60"></animateTransform>
  </path>
</g><g transform="translate(1389.0400520787446,-199.4606604690481) scale(100)" opacity="0.54">
  <path d="M7.832159999999999 0 C7.832159999999999 1.9474559999999994 8.856499071342867 2.8645736312475707 7.882771071342868 4.551119999999998 S5.602626368752428 5.8091215265043274 3.9160800000000004 6.782849526504328 S1.947456 9.102239999999998 5.573514540535501e-16 9.102239999999998 S-2.2295336312475706 7.756577526504328 -3.916079999999998 6.782849526504329 S-6.909043071342865 6.2376663687524285 -7.882771071342866 4.551120000000002 S-7.832159999999999 1.9474560000000003 -7.832159999999999 9.591629674409933e-16 S-8.856499071342869 -2.864573631247569 -7.882771071342869 -4.5511199999999965 S-5.60262636875243 -5.809121526504327 -3.916080000000003 -6.782849526504327 S-1.9474560000000012 -9.102239999999998 -1.6720543621606502e-15 -9.102239999999998 S2.229533631247566 -7.75657752650433 3.9160799999999942 -6.782849526504331 S6.9090430713428646 -6.23766636875243 7.882771071342865 -4.551120000000004 S7.832159999999998 -1.9474560000000014 7.832159999999999 -1.9183259348819865e-15" fill="#292929" stroke-width="0" transform="rotate(18.0109)">
    <animateTransform attributeName="transform" type="rotate" dur="3.333333333333333s" repeatCount="indefinite" values="0;60"></animateTransform>
  </path>
</g></g>
</svg>