<svg xmlns="http://www.w3.org/2000/svg" xmlns:xlink="http://www.w3.org/1999/xlink" viewBox="0 0 241.02 213.28"><defs><style>.cls-1{isolation:isolate;}.cls-2{fill:url(#linear-gradient);}.cls-3,.cls-5,.cls-7,.cls-9{mix-blend-mode:color-dodge;}.cls-3{fill:url(#New_Gradient_Swatch_1);}.cls-4{fill:url(#linear-gradient-2);}.cls-5{fill:url(#New_Gradient_Swatch_1-2);}.cls-6{fill:url(#linear-gradient-3);}.cls-7{fill:url(#New_Gradient_Swatch_1-3);}.cls-8{fill:url(#linear-gradient-4);}.cls-9{fill:url(#New_Gradient_Swatch_1-4);}.cls-10{fill:url(#radial-gradient);}.cls-11{fill:#fff;}</style><linearGradient id="linear-gradient" x1="121.31" y1="176.52" x2="158.98" y2="141.85" gradientUnits="userSpaceOnUse"><stop offset="0" stop-color="#272b2c"/><stop offset="1" stop-color="#6c5ba7"/></linearGradient><radialGradient id="New_Gradient_Swatch_1" cx="179.98" cy="82.28" r="41.78" gradientUnits="userSpaceOnUse"><stop offset="0.01" stop-color="#6c5ba7"/><stop offset="1" stop-color="#6c5ba7" stop-opacity="0"/></radialGradient><linearGradient id="linear-gradient-2" x1="96.47" y1="174.6" x2="84.47" y2="161.93" xlink:href="#linear-gradient"/><radialGradient id="New_Gradient_Swatch_1-2" cx="65" cy="133.12" r="25.78" xlink:href="#New_Gradient_Swatch_1"/><linearGradient id="linear-gradient-3" x1="125.53" y1="132.96" x2="146.28" y2="159.71" xlink:href="#linear-gradient"/><radialGradient id="New_Gradient_Swatch_1-3" cx="163.56" cy="168.82" r="24.23" xlink:href="#New_Gradient_Swatch_1"/><linearGradient id="linear-gradient-4" x1="48.22" y1="188.54" x2="100.97" y2="165.29" xlink:href="#linear-gradient"/><radialGradient id="New_Gradient_Swatch_1-4" cx="123.12" cy="146.05" r="24.44" xlink:href="#New_Gradient_Swatch_1"/><radialGradient id="radial-gradient" cx="138.12" cy="29.05" r="88.51" gradientUnits="userSpaceOnUse"><stop offset="0" stop-color="#58595b"/><stop offset="0.99" stop-color="#272b2c"/></radialGradient></defs><g class="cls-1"><g id="Layer_1" data-name="Layer 1"><path class="cls-2" d="M201.68,96.58a80,80,0,0,0-23.06-17.35,62.51,62.51,0,0,1-38.29,93c1.3,1,2.64,2.07,4,3a22.35,22.35,0,0,0,25.83,0c1.37-1,2.71-2,4-3a78.09,78.09,0,0,0,27.49-75.6Z"/><path class="cls-3" d="M201.68,96.58a80,80,0,0,0-23.06-17.35,62.51,62.51,0,0,1-38.29,93c1.3,1,2.64,2.07,4,3a22.35,22.35,0,0,0,25.83,0c1.37-1,2.71-2,4-3a78.09,78.09,0,0,0,27.49-75.6Z"/><path class="cls-4" d="M65.29,129.66a79.86,79.86,0,0,0-2.89,21.39c0,2.47.11,4.92.33,7.33a78,78,0,0,0,14.45,14.7,77.1,77.1,0,0,0,6.56,4.6,22.54,22.54,0,0,0,24-.13c2.2-1.39,4.33-2.88,6.37-4.47a62.49,62.49,0,0,1-48.81-43.42Z"/><path class="cls-5" d="M65.29,129.66a79.86,79.86,0,0,0-2.89,21.39c0,2.47.11,4.92.33,7.33a78,78,0,0,0,14.45,14.7,77.1,77.1,0,0,0,6.56,4.6,22.54,22.54,0,0,0,24-.13c2.2-1.39,4.33-2.88,6.37-4.47a62.49,62.49,0,0,1-48.81-43.42Z"/><path class="cls-6" d="M174.19,172.18c-1.3,1-2.64,2.07-4,3a22.35,22.35,0,0,1-25.83,0c-1.38-1-2.72-2-4-3A78.12,78.12,0,0,1,118.93,145c.37-.58.72-1.16,1.07-1.74a9,9,0,0,1,15.55,0c.35.58.71,1.16,1.07,1.74a62.64,62.64,0,0,0,20.64,20.13A61.92,61.92,0,0,0,174.19,172.18Z"/><path class="cls-7" d="M174.19,172.18c-1.3,1-2.64,2.07-4,3a22.35,22.35,0,0,1-25.83,0c-1.38-1-2.72-2-4-3A78.12,78.12,0,0,1,118.93,145c.37-.58.72-1.16,1.07-1.74a9,9,0,0,1,15.55,0c.35.58.71,1.16,1.07,1.74a62.64,62.64,0,0,0,20.64,20.13A61.92,61.92,0,0,0,174.19,172.18Z"/><path class="cls-8" d="M136.62,145a78.56,78.56,0,0,1-22.52,28.05c-2,1.59-4.17,3.08-6.37,4.47a22.54,22.54,0,0,1-24,.13,77.1,77.1,0,0,1-6.56-4.6,61.88,61.88,0,0,0,18.45-6.41A62.67,62.67,0,0,0,118.93,145c.37-.58.72-1.16,1.07-1.74a9,9,0,0,1,15.55,0C135.9,143.87,136.26,144.45,136.62,145Z"/><path class="cls-9" d="M136.62,145a78.56,78.56,0,0,1-22.52,28.05c-2,1.59-4.17,3.08-6.37,4.47a22.54,22.54,0,0,1-24,.13,77.1,77.1,0,0,1-6.56-4.6,61.88,61.88,0,0,0,18.45-6.41A62.67,62.67,0,0,0,118.93,145c.37-.58.72-1.16,1.07-1.74a9,9,0,0,1,15.55,0C135.9,143.87,136.26,144.45,136.62,145Z"/><path class="cls-10" d="M197.77,83.12c-.46-.38-.93-.75-1.4-1.11A86.9,86.9,0,0,0,169.86,67.9a63,63,0,0,0-12.6-10,62.34,62.34,0,0,0-32.14-8.89,62.48,62.48,0,0,0-62.5,62.5c0,1.34,0,2.67.13,4a86.61,86.61,0,0,0-7.32,29.71c0,.4-.06.8-.08,1.2A78,78,0,1,1,197.77,83.12Z"/><path class="cls-11" d="M196.37,82A86.9,86.9,0,0,0,169.86,67.9a63,63,0,0,0-12.6-10,62.34,62.34,0,0,0-32.14-8.89,62.48,62.48,0,0,0-62.5,62.5c0,1.34,0,2.67.13,4a86.61,86.61,0,0,0-7.32,29.71A77.22,77.22,0,0,1,174,52.55,77.51,77.51,0,0,1,196.37,82Z"/></g></g></svg>