<svg id="Layer_1" data-name="Layer 1" xmlns="http://www.w3.org/2000/svg" width="6in" height="1.53936in" viewBox="0 0 432 110.83369"><defs><style>.cls-1{fill:#272b2c;}.cls-2{fill:#6c5ba7;}</style></defs><path class="cls-1" d="M106.981,55.67056q0,10.19677-5.71289,15.67382Q95.55376,76.8229,84.8892,76.8229q-10.66552,0-16.3789-5.47852-5.7129-5.477-5.7129-15.72949t5.7295-15.66015q5.729-5.40675,16.42578-5.40723,10.69629,0,16.3623,5.44922Q106.981,45.44741,106.981,55.67056Zm-33.86817,0q0,6.88329,2.95215,10.36523,2.95167,3.4834,8.82422,3.4834,11.77589,0,11.77637-13.84863,0-13.875-11.71289-13.876-5.87256,0-8.85547,3.49707Q73.11332,48.7897,73.11283,55.67056Z"/><path class="cls-1" d="M141.70756,76.2604,138.34233,66.485h-16.918L118.0601,76.2604H107.45854l16.3789-41.23535h12.0293L152.30912,76.2604Zm-5.71387-17.07813q-4.66552-13.28613-5.25293-15.02832-.5874-1.74169-.84082-2.75293-1.04736,3.5962-5.999,17.78125Z"/><path class="cls-1" d="M192.81205,76.2604H181.6392L169.482,58.95767l-4.15821,2.64062V76.2604H155.4849V35.194h9.83887V53.985l3.87305-4.83106,12.56933-13.96H192.6851L176.4976,53.36782Z"/><path class="cls-2" d="M241.18608,76.2604H229.981l-6.28418-21.57227q-.3501-1.15135-1.19043-4.76171a48.59529,48.59529,0,0,1-.96875-4.84571q-.19043,1.51758-.95215,4.874-.76172,3.35742-1.17383,4.78906l-6.25293,21.5166H201.98588L190.146,35.194h9.68066l5.93555,22.415q1.55567,6.208,2.2539,10.75879.19044-1.60254.873-4.958a50.26576,50.26576,0,0,1,1.28516-5.21093L216.93608,35.194h9.2998l6.76074,23.00489q.44385,1.5454,1.11133,4.71972.66651,3.17431,1.01563,5.44922.3164-2.19141,1.01562-5.46387.69728-3.271,1.26953-5.29492l5.9043-22.415h9.68066Z"/><path class="cls-2" d="M283.30815,76.2604,279.94291,66.485h-16.918l-3.36425,9.77539H249.05912L265.438,35.02505h12.0293L293.90971,76.2604Zm-5.71387-17.07813q-4.66553-13.28613-5.25293-15.02832-.5874-1.74169-.84082-2.75293-1.04736,3.5962-5.999,17.78125Z"/><path class="cls-2" d="M322.28764,35.194h9.93555L316.4478,76.2604H305.7183L289.97514,35.194h9.93457l8.72949,24.4375q.72949,2.16359,1.50781,5.042.77637,2.87988.96778,4.00293a64.95577,64.95577,0,0,1,2.38086-9.04493Z"/><path class="cls-2" d="M362.12455,76.2604H335.399V35.194h26.72558v7.13477H345.23783v9.0166h15.71192v7.13477H345.23783V69.07h16.88672Z"/></svg>