<svg xmlns="http://www.w3.org/2000/svg" xmlns:xlink="http://www.w3.org/1999/xlink" width="3.20769in" height="2.89661in" viewBox="0 0 230.95361 208.55588"><defs><style>.cls-1{isolation:isolate;}.cls-2{fill:#272b2c;}.cls-2,.cls-3{stroke:#6c5ba7;stroke-miterlimit:10;}.cls-3{fill:none;}.cls-4{fill:url(#linear-gradient);}.cls-11,.cls-5,.cls-7,.cls-9{mix-blend-mode:color-dodge;}.cls-5{fill:url(#New_Gradient_Swatch_1);}.cls-6{fill:url(#linear-gradient-2);}.cls-7{fill:url(#New_Gradient_Swatch_1-2);}.cls-8{fill:url(#linear-gradient-3);}.cls-9{fill:url(#New_Gradient_Swatch_1-3);}.cls-10{fill:url(#linear-gradient-4);}.cls-11{fill:url(#New_Gradient_Swatch_1-4);}.cls-12{fill:url(#radial-gradient);}.cls-13{fill:url(#linear-gradient-5);}</style><linearGradient id="linear-gradient" x1="110.78464" y1="164.93848" x2="148.4513" y2="130.27181" gradientUnits="userSpaceOnUse"><stop offset="0" stop-color="#272b2c"/><stop offset="1" stop-color="#6c5ba7"/></linearGradient><radialGradient id="New_Gradient_Swatch_1" cx="169.45154" cy="70.69954" r="41.77798" gradientUnits="userSpaceOnUse"><stop offset="0.00513" stop-color="#6c5ba7"/><stop offset="1" stop-color="#6c5ba7" stop-opacity="0"/></radialGradient><linearGradient id="linear-gradient-2" x1="85.94823" y1="163.02091" x2="73.94823" y2="150.35424" xlink:href="#linear-gradient"/><radialGradient id="New_Gradient_Swatch_1-2" cx="54.47657" cy="121.53636" r="25.77928" xlink:href="#New_Gradient_Swatch_1"/><linearGradient id="linear-gradient-3" x1="115.00413" y1="121.38093" x2="135.75413" y2="148.13093" xlink:href="#linear-gradient"/><radialGradient id="New_Gradient_Swatch_1-3" cx="153.03662" cy="157.24066" r="24.22705" xlink:href="#New_Gradient_Swatch_1"/><linearGradient id="linear-gradient-4" x1="37.7003" y1="176.96422" x2="90.4503" y2="153.71422" xlink:href="#linear-gradient"/><radialGradient id="New_Gradient_Swatch_1-4" cx="112.59656" cy="134.4681" r="24.43614" xlink:href="#New_Gradient_Swatch_1"/><radialGradient id="radial-gradient" cx="127.59656" cy="17.4681" r="88.51342" gradientUnits="userSpaceOnUse"><stop offset="0" stop-color="#58595b"/><stop offset="0.99487" stop-color="#272b2c"/></radialGradient><linearGradient id="linear-gradient-5" x1="111.7566" y1="48.2181" x2="111.7566" y2="-212.59529" gradientUnits="userSpaceOnUse"><stop offset="0.00513" stop-color="#272b2c"/><stop offset="1" stop-color="#414042" stop-opacity="0"/></linearGradient></defs><g class="cls-1"><g id="Layer_1" data-name="Layer 1"><path class="cls-2" d="M0,164.27182c-.28-.11-.55-.23-.83008-.34l-.17993.34Z"/><path class="cls-3" d="M56.34985,164.71182c.37012-.14.74-.29,1.11011-.44h-1.29Z"/><path class="cls-4" d="M191.15662,84.99813A79.96709,79.96709,0,0,0,168.09656,67.648a62.5127,62.5127,0,0,1-38.29,92.95q1.95523,1.58631,4.01432,3.047a22.36639,22.36639,0,0,0,25.8314,0q2.058-1.45964,4.01439-3.047a78.08781,78.08781,0,0,0,27.49-75.59986Z"/><path class="cls-5" d="M191.15662,84.99813A79.96709,79.96709,0,0,0,168.09656,67.648a62.5127,62.5127,0,0,1-38.29,92.95q1.95523,1.58631,4.01432,3.047a22.36639,22.36639,0,0,0,25.8314,0q2.058-1.45964,4.01439-3.047a78.08781,78.08781,0,0,0,27.49-75.59986Z"/><path class="cls-6" d="M54.76648,118.078a79.863,79.863,0,0,0-2.88989,21.39013c0,2.47.11,4.91993.33,7.33008a78.73906,78.73906,0,0,0,21.0073,19.30063,22.54062,22.54062,0,0,0,23.99412-.12524q3.30067-2.08167,6.36857-4.47544A62.48487,62.48487,0,0,1,54.76648,118.078Z"/><path class="cls-7" d="M54.76648,118.078a79.863,79.863,0,0,0-2.88989,21.39013c0,2.47.11,4.91993.33,7.33008a78.73906,78.73906,0,0,0,21.0073,19.30063,22.54062,22.54062,0,0,0,23.99412-.12524q3.30067-2.08167,6.36857-4.47544A62.48487,62.48487,0,0,1,54.76648,118.078Z"/><path class="cls-8" d="M163.66663,160.598q-1.95529,1.58631-4.01439,3.047a22.36639,22.36639,0,0,1-25.8314,0q-2.05794-1.45962-4.01432-3.047a78.11563,78.11563,0,0,1-21.3999-27.14991q.548-.86082,1.06849-1.74065a8.99233,8.99233,0,0,1,15.55415.00172q.51971.87885,1.0673,1.73893a62.64075,62.64075,0,0,0,20.64,20.12989A61.91045,61.91045,0,0,0,163.66663,160.598Z"/><path class="cls-9" d="M163.66663,160.598q-1.95529,1.58631-4.01439,3.047a22.36639,22.36639,0,0,1-25.8314,0q-2.05794-1.45962-4.01432-3.047a78.11563,78.11563,0,0,1-21.3999-27.14991q.548-.86082,1.06849-1.74065a8.99233,8.99233,0,0,1,15.55415.00172q.51971.87885,1.0673,1.73893a62.64075,62.64075,0,0,0,20.64,20.12989A61.91045,61.91045,0,0,0,163.66663,160.598Z"/><path class="cls-10" d="M126.09656,133.44808a78.5551,78.5551,0,0,1-22.52,28.05005q-3.064,2.38987-6.36857,4.47544a22.54062,22.54062,0,0,1-23.99412.12524,77.51541,77.51541,0,0,1-6.55723-4.60068,61.8847,61.8847,0,0,0,18.45-6.40991,62.66576,62.66576,0,0,0,23.30005-21.64014q.548-.86082,1.06849-1.74065a8.99233,8.99233,0,0,1,15.55415.00172Q125.549,132.588,126.09656,133.44808Z"/><path class="cls-11" d="M126.09656,133.44808a78.5551,78.5551,0,0,1-22.52,28.05005q-3.064,2.38987-6.36857,4.47544a22.54062,22.54062,0,0,1-23.99412.12524,77.51541,77.51541,0,0,1-6.55723-4.60068,61.8847,61.8847,0,0,0,18.45-6.40991,62.66576,62.66576,0,0,0,23.30005-21.64014q.548-.86082,1.06849-1.74065a8.99233,8.99233,0,0,1,15.55415.00172Q125.549,132.588,126.09656,133.44808Z"/><path class="cls-12" d="M187.24659,71.53817c-.46009-.38012-.93006-.75-1.4-1.11011a86.89674,86.89674,0,0,0-26.51-14.10986,62.961,62.961,0,0,0-12.6-9.96,62.34571,62.34571,0,0,0-32.14-8.89014,62.47635,62.47635,0,0,0-62.5,62.5c0,1.33985.04,2.66993.13,3.99a86.60554,86.60554,0,0,0-7.32,29.71c-.03.40014-.06006.8-.08008,1.2A78.01189,78.01189,0,1,1,187.24659,71.53817Z"/><path class="cls-13" d="M185.84656,70.42806a86.89674,86.89674,0,0,0-26.51-14.10986,62.961,62.961,0,0,0-12.6-9.96,62.34571,62.34571,0,0,0-32.14-8.89014,62.47635,62.47635,0,0,0-62.5,62.5c0,1.33985.04,2.66993.13,3.99a86.60554,86.60554,0,0,0-7.32,29.71,77.22037,77.22037,0,0,1,118.59-92.7A77.50606,77.50606,0,0,1,185.84656,70.42806Z"/></g></g></svg>