<svg xmlns="http://www.w3.org/2000/svg" xmlns:xlink="http://www.w3.org/1999/xlink" width="3.305in" height="3.305in" viewBox="0 0 237.96 237.96"><defs><style>.cls-1{isolation:isolate;}.cls-2{fill:#fff;}.cls-3{fill:#272b2c;}.cls-4{fill:#6c5ba7;}.cls-5{fill:url(#linear-gradient);}.cls-10,.cls-12,.cls-6,.cls-8{mix-blend-mode:color-dodge;}.cls-6{fill:url(#New_Gradient_Swatch_1);}.cls-7{fill:url(#linear-gradient-2);}.cls-8{fill:url(#New_Gradient_Swatch_1-2);}.cls-9{fill:url(#linear-gradient-3);}.cls-10{fill:url(#New_Gradient_Swatch_1-3);}.cls-11{fill:url(#linear-gradient-4);}.cls-12{fill:url(#New_Gradient_Swatch_1-4);}.cls-13{fill:url(#radial-gradient);}.cls-14{fill:url(#linear-gradient-5);}</style><linearGradient id="linear-gradient" x1="116.3233" y1="145.62749" x2="139.98866" y2="123.84697" gradientUnits="userSpaceOnUse"><stop offset="0" stop-color="#272b2c"/><stop offset="1" stop-color="#6c5ba7"/></linearGradient><radialGradient id="New_Gradient_Swatch_1" cx="153.18278" cy="86.41866" r="26.24844" gradientUnits="userSpaceOnUse"><stop offset="0.00513" stop-color="#6c5ba7"/><stop offset="1" stop-color="#6c5ba7" stop-opacity="0"/></radialGradient><linearGradient id="linear-gradient-2" x1="100.71898" y1="144.42271" x2="93.17957" y2="136.46444" xlink:href="#linear-gradient"/><radialGradient id="New_Gradient_Swatch_1-2" cx="80.94583" cy="118.35863" r="16.19671" xlink:href="#New_Gradient_Swatch_1"/><linearGradient id="linear-gradient-3" x1="118.97434" y1="118.26097" x2="132.01123" y2="135.06757" xlink:href="#linear-gradient"/><radialGradient id="New_Gradient_Swatch_1-3" cx="142.86955" cy="140.79107" r="15.22147" xlink:href="#New_Gradient_Swatch_1"/><linearGradient id="linear-gradient-4" x1="70.40557" y1="153.18307" x2="103.54756" y2="138.57547" xlink:href="#linear-gradient"/><radialGradient id="New_Gradient_Swatch_1-4" cx="117.4617" cy="126.48344" r="15.35284" xlink:href="#New_Gradient_Swatch_1"/><radialGradient id="radial-gradient" cx="126.88596" cy="52.9742" r="55.61157" gradientUnits="userSpaceOnUse"><stop offset="0" stop-color="#58595b"/><stop offset="0.99487" stop-color="#272b2c"/></radialGradient><linearGradient id="linear-gradient-5" x1="116.93396" y1="72.29393" x2="116.93396" y2="-91.57097" gradientUnits="userSpaceOnUse"><stop offset="0.00513" stop-color="#272b2c"/><stop offset="1" stop-color="#414042" stop-opacity="0"/></linearGradient></defs><g class="cls-1"><g id="Layer_1" data-name="Layer 1"><rect class="cls-2" x="-0.00083" y="0.089" width="237.96" height="237.96"/><path class="cls-3" d="M51.3122,170.31867q0,6.40577-3.58886,9.84668-3.59034,3.44238-10.291,3.44141-6.7002,0-10.29-3.44141-3.59032-3.44091-3.58984-9.88281,0-6.44093,3.59961-9.83887,3.59912-3.397,10.32031-3.39648,6.7207,0,10.28027,3.42383Q51.31221,163.89435,51.3122,170.31867Zm-21.27832,0q0,4.32422,1.85449,6.51172a6.86021,6.86021,0,0,0,5.54395,2.18848q7.39893,0,7.39844-8.7002,0-8.71875-7.3584-8.71875a6.90587,6.90587,0,0,0-5.56348,2.19727Q30.03388,165.99445,30.03388,170.31867Z"/><path class="cls-3" d="M73.12959,183.25422l-2.11329-6.1416H60.38642l-2.11328,6.1416H51.612l10.29-25.90723h7.55859l10.33008,25.90723Zm-3.58887-10.72949q-2.93262-8.34814-3.30078-9.44239-.36915-1.09423-.52832-1.72949-.65919,2.25879-3.76953,11.17188Z"/><path class="cls-3" d="M105.239,183.25422H98.21845l-7.63769-10.87109-2.61231,1.6582v9.21289H81.78584V157.45246h6.18261V169.2591l2.43262-3.03515,7.89746-8.77149h6.86035L94.988,168.87141Z"/><path class="cls-4" d="M135.63154,183.25422h-7.03906l-3.94922-13.55371q-.21973-.72363-.748-2.99121a30.69367,30.69367,0,0,1-.6084-3.044q-.11865.95216-.59765,3.06153t-.73829,3.00878l-3.92871,13.51856h-7.01953l-7.43847-25.80176h6.082l3.72949,14.084q.97705,3.8994,1.416,6.75878.12012-1.00634.54883-3.11523a31.10778,31.10778,0,0,1,.80762-3.27344l4.24707-14.4541H126.239l4.248,14.4541q.27831.97119.69726,2.96485t.63867,3.42382q.19923-1.37694.6377-3.43261.43946-2.05518.79785-3.32617l3.709-14.084h6.083Z"/><path class="cls-4" d="M162.09541,183.25422l-2.11329-6.1416H149.35224l-2.11328,6.1416h-6.66113l10.29-25.90723h7.55859l10.33008,25.90723Zm-3.58887-10.72949q-2.93262-8.34814-3.30078-9.44239-.36915-1.09423-.52832-1.72949-.65919,2.25879-3.76953,11.17188Z"/><path class="cls-4" d="M186.58564,157.45246h6.24219l-9.91211,25.80176h-6.74024l-9.8916-25.80176h6.24219l5.48437,15.35449q.45851,1.35938.94727,3.167.4878,1.80908.60742,2.51562a40.91469,40.91469,0,0,1,1.4961-5.68262Z"/><path class="cls-4" d="M211.61494,183.25422h-16.792V157.45246h16.792v4.4834H201.00556v5.665h9.8711v4.48242h-9.8711v6.65332h10.60938Z"/><path class="cls-5" d="M166.81973,95.40224a50.242,50.242,0,0,0-14.48826-10.90079,39.27575,39.27575,0,0,1-24.057,58.399q1.22846.99665,2.52213,1.91437a14.05247,14.05247,0,0,0,16.22946,0q1.293-.91707,2.52218-1.91439a49.06124,49.06124,0,0,0,17.27152-47.49819Z"/><path class="cls-6" d="M166.81973,95.40224a50.242,50.242,0,0,0-14.48826-10.90079,39.27575,39.27575,0,0,1-24.057,58.399q1.22846.99665,2.52213,1.91437a14.05247,14.05247,0,0,0,16.22946,0q1.293-.91707,2.52218-1.91439a49.06124,49.06124,0,0,0,17.27152-47.49819Z"/><path class="cls-7" d="M81.128,116.18577a50.17666,50.17666,0,0,0-1.81567,13.43909c0,1.55184.0691,3.0911.20731,4.60537a49.47094,49.47094,0,0,0,13.19855,12.12628,14.162,14.162,0,0,0,15.07512-.07869q2.07376-1.30788,4.00128-2.81185A39.25823,39.25823,0,0,1,81.128,116.18577Z"/><path class="cls-8" d="M81.128,116.18577a50.17666,50.17666,0,0,0-1.81567,13.43909c0,1.55184.0691,3.0911.20731,4.60537a49.47094,49.47094,0,0,0,13.19855,12.12628,14.162,14.162,0,0,0,15.07512-.07869q2.07376-1.30788,4.00128-2.81185A39.25823,39.25823,0,0,1,81.128,116.18577Z"/><path class="cls-9" d="M149.54821,142.90043q-1.22849.99666-2.52218,1.91439a14.05247,14.05247,0,0,1-16.22946,0q-1.293-.91706-2.52213-1.91437a49.07888,49.07888,0,0,1-13.44521-17.05786q.34431-.54084.67131-1.09362a5.64974,5.64974,0,0,1,9.77243.00108q.32652.55217.67056,1.09254a39.35629,39.35629,0,0,0,12.9678,12.64729A38.89735,38.89735,0,0,0,149.54821,142.90043Z"/><path class="cls-10" d="M149.54821,142.90043q-1.22849.99666-2.52218,1.91439a14.05247,14.05247,0,0,1-16.22946,0q-1.293-.91706-2.52213-1.91437a49.07888,49.07888,0,0,1-13.44521-17.05786q.34431-.54084.67131-1.09362a5.64974,5.64974,0,0,1,9.77243.00108q.32652.55217.67056,1.09254a39.35629,39.35629,0,0,0,12.9678,12.64729A38.89735,38.89735,0,0,0,149.54821,142.90043Z"/><path class="cls-11" d="M125.94353,125.84257a49.35488,49.35488,0,0,1-14.149,17.6234q-1.92507,1.50153-4.00128,2.81185a14.162,14.162,0,0,1-15.07512.07869,48.70358,48.70358,0,0,1-4.1198-2.89054,38.88134,38.88134,0,0,0,11.59181-4.02724,39.372,39.372,0,0,0,14.639-13.59616q.34431-.54084.67131-1.09362a5.64974,5.64974,0,0,1,9.77243.00108Q125.59949,125.3022,125.94353,125.84257Z"/><path class="cls-12" d="M125.94353,125.84257a49.35488,49.35488,0,0,1-14.149,17.6234q-1.92507,1.50153-4.00128,2.81185a14.162,14.162,0,0,1-15.07512.07869,48.70358,48.70358,0,0,1-4.1198-2.89054,38.88134,38.88134,0,0,0,11.59181-4.02724,39.372,39.372,0,0,0,14.639-13.59616q.34431-.54084.67131-1.09362a5.64974,5.64974,0,0,1,9.77243.00108Q125.59949,125.3022,125.94353,125.84257Z"/><path class="cls-13" d="M164.36312,86.94556c-.28906-.23883-.58434-.47121-.87961-.69746a54.59567,54.59567,0,0,0-16.65582-8.865,39.55716,39.55716,0,0,0-7.91636-6.25769,39.1707,39.1707,0,0,0-20.19306-5.58553,39.25288,39.25288,0,0,0-39.26776,39.26776c0,.8418.02516,1.67746.08168,2.50684a54.413,54.413,0,0,0-4.599,18.6663c-.01887.2514-.03774.50266-.05031.75391a49.01363,49.01363,0,1,1,89.48024-39.78913Z"/><path class="cls-14" d="M163.48351,86.2481a54.59567,54.59567,0,0,0-16.65582-8.865,39.55716,39.55716,0,0,0-7.91636-6.25769,39.1707,39.1707,0,0,0-20.19306-5.58553,39.25288,39.25288,0,0,0-39.26776,39.26776c0,.8418.02516,1.67746.08168,2.50684a54.413,54.413,0,0,0-4.599,18.6663,48.51633,48.51633,0,0,1,74.50818-58.24191A48.6958,48.6958,0,0,1,163.48351,86.2481Z"/></g></g></svg>