<svg xmlns="http://www.w3.org/2000/svg" xmlns:xlink="http://www.w3.org/1999/xlink" viewBox="0 0 929.33 223"><defs><style>.cls-1{isolation:isolate;}.cls-2{font-size:121.4px;fill:#272b2c;font-family:NotoSans-Bold, Noto Sans;font-weight:700;letter-spacing:-0.05em;}.cls-3{letter-spacing:-0.04em;}.cls-4,.cls-5{fill:#6c5ba7;}.cls-4{letter-spacing:-0.06em;}.cls-5{letter-spacing:-0.04em;}.cls-6{fill:url(#linear-gradient);}.cls-11,.cls-13,.cls-7,.cls-9{mix-blend-mode:color-dodge;}.cls-7{fill:url(#New_Gradient_Swatch_1);}.cls-8{fill:url(#linear-gradient-2);}.cls-9{fill:url(#New_Gradient_Swatch_1-2);}.cls-10{fill:url(#linear-gradient-3);}.cls-11{fill:url(#New_Gradient_Swatch_1-3);}.cls-12{fill:url(#linear-gradient-4);}.cls-13{fill:url(#New_Gradient_Swatch_1-4);}.cls-14{fill:url(#radial-gradient);}.cls-15{fill:url(#linear-gradient-5);}</style><linearGradient id="linear-gradient" x1="114.33" y1="162.28" x2="151.99" y2="127.62" gradientUnits="userSpaceOnUse"><stop offset="0" stop-color="#272b2c"/><stop offset="1" stop-color="#6c5ba7"/></linearGradient><radialGradient id="New_Gradient_Swatch_1" cx="173" cy="68.04" r="41.78" gradientUnits="userSpaceOnUse"><stop offset="0.01" stop-color="#6c5ba7"/><stop offset="1" stop-color="#6c5ba7" stop-opacity="0"/></radialGradient><linearGradient id="linear-gradient-2" x1="89.49" y1="160.37" x2="77.49" y2="147.7" xlink:href="#linear-gradient"/><radialGradient id="New_Gradient_Swatch_1-2" cx="58.02" cy="118.88" r="25.78" xlink:href="#New_Gradient_Swatch_1"/><linearGradient id="linear-gradient-3" x1="118.55" y1="118.73" x2="139.3" y2="145.48" xlink:href="#linear-gradient"/><radialGradient id="New_Gradient_Swatch_1-3" cx="156.58" cy="154.59" r="24.23" xlink:href="#New_Gradient_Swatch_1"/><linearGradient id="linear-gradient-4" x1="41.24" y1="174.31" x2="93.99" y2="151.06" xlink:href="#linear-gradient"/><radialGradient id="New_Gradient_Swatch_1-4" cx="116.14" cy="131.81" r="24.44" xlink:href="#New_Gradient_Swatch_1"/><radialGradient id="radial-gradient" cx="131.14" cy="14.81" r="88.51" gradientUnits="userSpaceOnUse"><stop offset="0" stop-color="#58595b"/><stop offset="0.99" stop-color="#272b2c"/></radialGradient><linearGradient id="linear-gradient-5" x1="115.3" y1="45.56" x2="115.3" y2="-215.25" gradientUnits="userSpaceOnUse"><stop offset="0.01" stop-color="#272b2c"/><stop offset="1" stop-color="#414042" stop-opacity="0"/></linearGradient></defs><g class="cls-1"><g id="Layer_1" data-name="Layer 1"><text class="cls-2" transform="translate(219.08 153.44) scale(1.13 1)">O<tspan class="cls-3" x="90.46" y="0">AK</tspan><tspan class="cls-4" x="244.87" y="0">WA</tspan><tspan class="cls-5" x="431.3" y="0">VE</tspan></text><path class="cls-6" d="M194.7,82.34A80,80,0,0,0,171.64,65a62.51,62.51,0,0,1-38.29,93q2,1.59,4,3.05a22.4,22.4,0,0,0,25.84,0q2.06-1.45,4-3.05a78.09,78.09,0,0,0,27.49-75.6Z"/><path class="cls-7" d="M194.7,82.34A80,80,0,0,0,171.64,65a62.51,62.51,0,0,1-38.29,93q2,1.59,4,3.05a22.4,22.4,0,0,0,25.84,0q2.06-1.45,4-3.05a78.09,78.09,0,0,0,27.49-75.6Z"/><path class="cls-8" d="M58.31,115.42a79.86,79.86,0,0,0-2.89,21.39c0,2.47.11,4.92.33,7.33a78,78,0,0,0,14.45,14.7,74.89,74.89,0,0,0,6.56,4.6,22.52,22.52,0,0,0,24-.12,76.68,76.68,0,0,0,6.37-4.48,62.49,62.49,0,0,1-48.81-43.42Z"/><path class="cls-9" d="M58.31,115.42a79.86,79.86,0,0,0-2.89,21.39c0,2.47.11,4.92.33,7.33a78,78,0,0,0,14.45,14.7,74.89,74.89,0,0,0,6.56,4.6,22.52,22.52,0,0,0,24-.12,76.68,76.68,0,0,0,6.37-4.48,62.49,62.49,0,0,1-48.81-43.42Z"/><path class="cls-10" d="M167.21,157.94q-2,1.59-4,3.05a22.4,22.4,0,0,1-25.84,0q-2.06-1.45-4-3.05A78.12,78.12,0,0,1,112,130.79c.37-.57.72-1.15,1.07-1.74a9,9,0,0,1,15.55,0c.35.59.71,1.17,1.07,1.74a62.64,62.64,0,0,0,20.64,20.13A61.92,61.92,0,0,0,167.21,157.94Z"/><path class="cls-11" d="M167.21,157.94q-2,1.59-4,3.05a22.4,22.4,0,0,1-25.84,0q-2.06-1.45-4-3.05A78.12,78.12,0,0,1,112,130.79c.37-.57.72-1.15,1.07-1.74a9,9,0,0,1,15.55,0c.35.59.71,1.17,1.07,1.74a62.64,62.64,0,0,0,20.64,20.13A61.92,61.92,0,0,0,167.21,157.94Z"/><path class="cls-12" d="M129.64,130.79a78.56,78.56,0,0,1-22.52,28.05,76.68,76.68,0,0,1-6.37,4.48,22.52,22.52,0,0,1-24,.12,74.89,74.89,0,0,1-6.56-4.6,61.88,61.88,0,0,0,18.45-6.41A62.67,62.67,0,0,0,112,130.79c.37-.57.72-1.15,1.07-1.74a9,9,0,0,1,15.55,0C128.92,129.64,129.28,130.22,129.64,130.79Z"/><path class="cls-13" d="M129.64,130.79a78.56,78.56,0,0,1-22.52,28.05,76.68,76.68,0,0,1-6.37,4.48,22.52,22.52,0,0,1-24,.12,74.89,74.89,0,0,1-6.56-4.6,61.88,61.88,0,0,0,18.45-6.41A62.67,62.67,0,0,0,112,130.79c.37-.57.72-1.15,1.07-1.74a9,9,0,0,1,15.55,0C128.92,129.64,129.28,130.22,129.64,130.79Z"/><path class="cls-14" d="M190.79,68.88c-.46-.38-.93-.75-1.4-1.11a86.9,86.9,0,0,0-26.51-14.11,63,63,0,0,0-12.6-10,62.34,62.34,0,0,0-32.14-8.89,62.48,62.48,0,0,0-62.5,62.5c0,1.34,0,2.67.13,4A86.61,86.61,0,0,0,48.45,131c0,.4-.06.8-.08,1.2A78,78,0,1,1,190.79,68.88Z"/><path class="cls-15" d="M189.39,67.77a86.9,86.9,0,0,0-26.51-14.11,63,63,0,0,0-12.6-10,62.34,62.34,0,0,0-32.14-8.89,62.48,62.48,0,0,0-62.5,62.5c0,1.34,0,2.67.13,4A86.61,86.61,0,0,0,48.45,131,77.22,77.22,0,0,1,167,38.31,77.51,77.51,0,0,1,189.39,67.77Z"/></g></g></svg>