<svg xmlns="http://www.w3.org/2000/svg" xmlns:xlink="http://www.w3.org/1999/xlink" width="6in" height="6in" viewBox="0 0 432 432"><defs><style>.cls-1{isolation:isolate;}.cls-2{fill:#272b2c;}.cls-3{fill:#6c5ba7;}.cls-4{fill:url(#linear-gradient);}.cls-11,.cls-5,.cls-7,.cls-9{mix-blend-mode:color-dodge;}.cls-5{fill:url(#New_Gradient_Swatch_1);}.cls-6{fill:url(#linear-gradient-2);}.cls-7{fill:url(#New_Gradient_Swatch_1-2);}.cls-8{fill:url(#linear-gradient-3);}.cls-9{fill:url(#New_Gradient_Swatch_1-3);}.cls-10{fill:url(#linear-gradient-4);}.cls-11{fill:url(#New_Gradient_Swatch_1-4);}.cls-12{fill:url(#radial-gradient);}.cls-13{fill:url(#linear-gradient-5);}</style><linearGradient id="linear-gradient" x1="213.13635" y1="245.01638" x2="250.80302" y2="210.34971" gradientUnits="userSpaceOnUse"><stop offset="0" stop-color="#272b2c"/><stop offset="1" stop-color="#6c5ba7"/></linearGradient><radialGradient id="New_Gradient_Swatch_1" cx="271.80325" cy="150.77743" r="41.77798" gradientUnits="userSpaceOnUse"><stop offset="0.00513" stop-color="#6c5ba7"/><stop offset="1" stop-color="#6c5ba7" stop-opacity="0"/></radialGradient><linearGradient id="linear-gradient-2" x1="188.29994" y1="243.09881" x2="176.29994" y2="230.43214" xlink:href="#linear-gradient"/><radialGradient id="New_Gradient_Swatch_1-2" cx="156.82828" cy="201.61426" r="25.77928" xlink:href="#New_Gradient_Swatch_1"/><linearGradient id="linear-gradient-3" x1="217.35584" y1="201.45882" x2="238.10584" y2="228.20882" xlink:href="#linear-gradient"/><radialGradient id="New_Gradient_Swatch_1-3" cx="255.38834" cy="237.31855" r="24.22705" xlink:href="#New_Gradient_Swatch_1"/><linearGradient id="linear-gradient-4" x1="140.05201" y1="257.04212" x2="192.80201" y2="233.79212" xlink:href="#linear-gradient"/><radialGradient id="New_Gradient_Swatch_1-4" cx="214.94827" cy="214.546" r="24.43614" xlink:href="#New_Gradient_Swatch_1"/><radialGradient id="radial-gradient" cx="229.94827" cy="97.546" r="88.51342" gradientUnits="userSpaceOnUse"><stop offset="0" stop-color="#58595b"/><stop offset="0.99487" stop-color="#272b2c"/></radialGradient><linearGradient id="linear-gradient-5" x1="214.10831" y1="128.296" x2="214.10831" y2="-132.51739" gradientUnits="userSpaceOnUse"><stop offset="0.00513" stop-color="#272b2c"/><stop offset="1" stop-color="#414042" stop-opacity="0"/></linearGradient></defs><g class="cls-1"><g id="Layer_1" data-name="Layer 1"><path class="cls-2" d="M109.66211,284.31445q0,10.19677-5.71289,15.67383-5.71435,5.47851-16.37891,5.47754-10.66553,0-16.3789-5.47754-5.7129-5.47706-5.71289-15.73047,0-10.251,5.72949-15.66015,5.729-5.40528,16.42578-5.40625,10.69629,0,16.3623,5.44921T109.66211,284.31445Zm-33.86816,0q0,6.88183,2.95214,10.36524,2.95167,3.48339,8.82422,3.48242,11.77588,0,11.77637-13.84766,0-13.87646-11.71289-13.876-5.87256,0-8.85547,3.49707Q75.79443,277.43213,75.794,284.31445Z"/><path class="cls-2" d="M144.38867,304.9043l-3.36523-9.77539h-16.918l-3.36426,9.77539H110.13965l16.3789-41.23633h12.0293l16.44238,41.23633Zm-5.71387-17.07813q-4.66553-13.28613-5.25292-15.02832-.58741-1.74169-.84083-2.75293-1.04736,3.59619-5.999,17.78125Z"/><path class="cls-2" d="M195.49316,304.9043H184.32031l-12.15722-17.30371-4.15821,2.64062V304.9043H158.166V263.83691h9.83886v18.792l3.873-4.83106,12.56934-13.96094h10.91894l-16.1875,18.17383Z"/><path class="cls-3" d="M243.86719,304.9043H232.66211l-6.28418-21.57325q-.3501-1.15135-1.19043-4.76074a48.59528,48.59528,0,0,1-.96875-4.8457q-.19043,1.51758-.95215,4.87305-.76172,3.35742-1.17383,4.79l-6.25293,21.5166H204.667l-11.83984-41.06739h9.68066l5.93555,22.416q1.55566,6.208,2.25391,10.75781.19043-1.60107.873-4.958a50.17252,50.17252,0,0,1,1.28516-5.21l6.76172-23.00586h9.2998l6.76074,23.00586q.44385,1.54542,1.11133,4.71875.66651,3.17432,1.01563,5.44922.3164-2.18994,1.01562-5.46386.69727-3.271,1.26953-5.29395l5.9043-22.416h9.68066Z"/><path class="cls-3" d="M285.98926,304.9043l-3.36524-9.77539h-16.918l-3.36425,9.77539H251.74023L268.11914,263.668h12.0293l16.44238,41.23633Zm-5.71387-17.07813q-4.66553-13.28613-5.25293-15.02832-.5874-1.74169-.84082-2.75293-1.04736,3.59619-5.999,17.78125Z"/><path class="cls-3" d="M324.96875,263.83691h9.93555L319.12891,304.9043h-10.7295l-15.74316-41.06739h9.93457l8.72949,24.43848q.72949,2.16211,1.50781,5.042.77637,2.87842.96778,4.00293a64.92207,64.92207,0,0,1,2.38086-9.04492Z"/><path class="cls-3" d="M364.80566,304.9043H338.08008V263.83691h26.72558v7.13477H347.919v9.0166h15.71191v7.13477H347.919v10.58984h16.88671Z"/><path class="cls-4" d="M293.50833,165.076a79.967,79.967,0,0,0-23.06006-17.3501,62.51271,62.51271,0,0,1-38.29,92.95q1.95523,1.58631,4.01431,3.047a22.36642,22.36642,0,0,0,25.8314,0q2.058-1.45964,4.01439-3.047a78.08779,78.08779,0,0,0,27.49-75.59985Z"/><path class="cls-5" d="M293.50833,165.076a79.967,79.967,0,0,0-23.06006-17.3501,62.51271,62.51271,0,0,1-38.29,92.95q1.95523,1.58631,4.01431,3.047a22.36642,22.36642,0,0,0,25.8314,0q2.058-1.45964,4.01439-3.047a78.08779,78.08779,0,0,0,27.49-75.59985Z"/><path class="cls-6" d="M157.1182,198.15586a79.86266,79.86266,0,0,0-2.8899,21.39014c0,2.47.11,4.91992.33,7.33008a78.73906,78.73906,0,0,0,21.0073,19.30063,22.54064,22.54064,0,0,0,23.99412-.12525q3.30068-2.08165,6.36857-4.47543a62.48484,62.48484,0,0,1-48.81-43.42017Z"/><path class="cls-7" d="M157.1182,198.15586a79.86266,79.86266,0,0,0-2.8899,21.39014c0,2.47.11,4.91992.33,7.33008a78.73906,78.73906,0,0,0,21.0073,19.30063,22.54064,22.54064,0,0,0,23.99412-.12525q3.30068-2.08165,6.36857-4.47543a62.48484,62.48484,0,0,1-48.81-43.42017Z"/><path class="cls-8" d="M266.01834,240.67588q-1.9553,1.58632-4.01439,3.047a22.36642,22.36642,0,0,1-25.8314,0q-2.05794-1.45962-4.01431-3.047a78.11536,78.11536,0,0,1-21.39991-27.1499q.548-.86084,1.0685-1.74066a8.99232,8.99232,0,0,1,15.55414.00173q.51971.87884,1.0673,1.73893a62.64082,62.64082,0,0,0,20.64,20.12988A61.90983,61.90983,0,0,0,266.01834,240.67588Z"/><path class="cls-9" d="M266.01834,240.67588q-1.9553,1.58632-4.01439,3.047a22.36642,22.36642,0,0,1-25.8314,0q-2.05794-1.45962-4.01431-3.047a78.11536,78.11536,0,0,1-21.39991-27.1499q.548-.86084,1.0685-1.74066a8.99232,8.99232,0,0,1,15.55414.00173q.51971.87884,1.0673,1.73893a62.64082,62.64082,0,0,0,20.64,20.12988A61.90983,61.90983,0,0,0,266.01834,240.67588Z"/><path class="cls-10" d="M228.44827,213.526a78.5551,78.5551,0,0,1-22.52,28.05005q-3.064,2.38987-6.36857,4.47543a22.54064,22.54064,0,0,1-23.99412.12525,77.51771,77.51771,0,0,1-6.55723-4.60068,61.88526,61.88526,0,0,0,18.45-6.40991A62.66576,62.66576,0,0,0,210.75833,213.526q.548-.86084,1.0685-1.74066a8.99232,8.99232,0,0,1,15.55414.00173Q227.90068,212.66589,228.44827,213.526Z"/><path class="cls-11" d="M228.44827,213.526a78.5551,78.5551,0,0,1-22.52,28.05005q-3.064,2.38987-6.36857,4.47543a22.54064,22.54064,0,0,1-23.99412.12525,77.51771,77.51771,0,0,1-6.55723-4.60068,61.88526,61.88526,0,0,0,18.45-6.40991A62.66576,62.66576,0,0,0,210.75833,213.526q.548-.86084,1.0685-1.74066a8.99232,8.99232,0,0,1,15.55414.00173Q227.90068,212.66589,228.44827,213.526Z"/><path class="cls-12" d="M289.5983,151.61607c-.46008-.38013-.93-.75-1.4-1.11011a86.89662,86.89662,0,0,0-26.51-14.10986,62.96067,62.96067,0,0,0-12.6-9.96,62.34565,62.34565,0,0,0-32.14-8.89014,62.47632,62.47632,0,0,0-62.5,62.5c0,1.33984.04,2.66992.13,3.99a86.60543,86.60543,0,0,0-7.32,29.71c-.03.40015-.06006.8-.08008,1.2A78.01189,78.01189,0,1,1,289.5983,151.61607Z"/><path class="cls-13" d="M288.19827,150.506a86.89662,86.89662,0,0,0-26.51-14.10986,62.96067,62.96067,0,0,0-12.6-9.96,62.34565,62.34565,0,0,0-32.14-8.89014,62.47632,62.47632,0,0,0-62.5,62.5c0,1.33984.04,2.66992.13,3.99a86.60543,86.60543,0,0,0-7.32,29.71,77.22037,77.22037,0,0,1,118.59-92.69995A77.506,77.506,0,0,1,288.19827,150.506Z"/></g></g></svg>