<svg xmlns="http://www.w3.org/2000/svg" xmlns:xlink="http://www.w3.org/1999/xlink" width="6in" height="6in" viewBox="0 0 432 432"><defs><style>.cls-1{isolation:isolate;}.cls-2{fill:#fff;}.cls-3{fill:#6c5ba7;}.cls-4{fill:url(#linear-gradient);}.cls-11,.cls-5,.cls-7,.cls-9{mix-blend-mode:color-dodge;}.cls-5{fill:url(#New_Gradient_Swatch_1);}.cls-6{fill:url(#linear-gradient-2);}.cls-7{fill:url(#New_Gradient_Swatch_1-2);}.cls-8{fill:url(#linear-gradient-3);}.cls-9{fill:url(#New_Gradient_Swatch_1-3);}.cls-10{fill:url(#linear-gradient-4);}.cls-11{fill:url(#New_Gradient_Swatch_1-4);}.cls-12{fill:url(#radial-gradient);}</style><linearGradient id="linear-gradient" x1="211.10694" y1="239.31855" x2="248.7736" y2="204.65188" gradientUnits="userSpaceOnUse"><stop offset="0" stop-color="#272b2c"/><stop offset="1" stop-color="#6c5ba7"/></linearGradient><radialGradient id="New_Gradient_Swatch_1" cx="269.77384" cy="145.07961" r="41.77798" gradientUnits="userSpaceOnUse"><stop offset="0.00513" stop-color="#6c5ba7"/><stop offset="1" stop-color="#6c5ba7" stop-opacity="0"/></radialGradient><linearGradient id="linear-gradient-2" x1="186.27053" y1="237.40098" x2="174.27053" y2="224.73431" xlink:href="#linear-gradient"/><radialGradient id="New_Gradient_Swatch_1-2" cx="154.79887" cy="195.91643" r="25.77928" xlink:href="#New_Gradient_Swatch_1"/><linearGradient id="linear-gradient-3" x1="215.32643" y1="195.761" x2="236.07643" y2="222.511" xlink:href="#linear-gradient"/><radialGradient id="New_Gradient_Swatch_1-3" cx="253.35892" cy="231.62073" r="24.22705" xlink:href="#New_Gradient_Swatch_1"/><linearGradient id="linear-gradient-4" x1="138.0226" y1="251.34429" x2="190.7726" y2="228.09429" xlink:href="#linear-gradient"/><radialGradient id="New_Gradient_Swatch_1-4" cx="212.91886" cy="208.84817" r="24.43614" xlink:href="#New_Gradient_Swatch_1"/><radialGradient id="radial-gradient" cx="227.91886" cy="91.84817" r="88.51342" gradientUnits="userSpaceOnUse"><stop offset="0" stop-color="#58595b"/><stop offset="0.99487" stop-color="#272b2c"/></radialGradient></defs><g class="cls-1"><g id="Layer_1" data-name="Layer 1"><path class="cls-2" d="M107.63249,278.61719q0,10.19531-5.71289,15.67383-5.71436,5.477-16.37891,5.47656-10.66552,0-16.37891-5.47656-5.71288-5.47852-5.71289-15.73047,0-10.25244,5.7295-15.66016,5.729-5.40674,16.42578-5.40723,10.69629,0,16.3623,5.44922Q107.6325,268.39306,107.63249,278.61719Zm-33.86817,0q0,6.88184,2.95215,10.36426,2.95166,3.48339,8.82422,3.48339,11.77589,0,11.77637-13.84765,0-13.87647-11.71289-13.877-5.87256,0-8.85547,3.49707Q73.76481,271.73389,73.76432,278.61719Z"/><path class="cls-2" d="M142.35905,299.20605l-3.36523-9.77441h-16.918l-3.36426,9.77441H108.11l16.3789-41.23535h12.0293l16.44238,41.23535Zm-5.71387-17.07812q-4.66553-13.28613-5.25293-15.02832-.5874-1.74024-.84082-2.75195-1.04736,3.59472-5.999,17.78027Z"/><path class="cls-2" d="M193.46354,299.20605H182.29069l-12.15723-17.30273-4.1582,2.63965v14.66308h-9.83887v-41.0664h9.83887v18.792l3.87305-4.832,12.56933-13.96h10.91895l-16.1875,18.17383Z"/><path class="cls-3" d="M241.83757,299.20605H230.63249l-6.28418-21.57226q-.3501-1.15137-1.19043-4.76172a48.53632,48.53632,0,0,1-.96875-4.84473q-.19044,1.51613-.95215,4.87305-.76171,3.35742-1.17383,4.78906l-6.25293,21.5166H202.63737l-11.83984-41.0664h9.68066l5.93555,22.415q1.55567,6.208,2.2539,10.75879.19044-1.60109.87305-4.958a50.26607,50.26607,0,0,1,1.28516-5.21094l6.76172-23.00488h9.2998l6.76074,23.00488q.44385,1.54541,1.11133,4.71875.66651,3.17579,1.01563,5.4502.31639-2.19141,1.01562-5.46387.69726-3.27246,1.26953-5.29492l5.9043-22.415h9.68066Z"/><path class="cls-3" d="M283.95964,299.20605l-3.36524-9.77441h-16.918l-3.36426,9.77441H249.71061l16.37891-41.23535h12.0293l16.44238,41.23535Zm-5.71387-17.07812q-4.66553-13.28613-5.25293-15.02832-.5874-1.74024-.84082-2.75195-1.04736,3.59472-5.999,17.78027Z"/><path class="cls-3" d="M322.93913,258.13965h9.93554l-15.77539,41.0664H306.36979l-15.74316-41.0664h9.93457l8.72949,24.4375q.72949,2.16357,1.50781,5.042.77637,2.87988.96778,4.00293a64.95574,64.95574,0,0,1,2.38086-9.04492Z"/><path class="cls-3" d="M362.776,299.20605H336.05046v-41.0664H362.776v7.13476H345.88932V274.291h15.71192v7.13476H345.88932v10.58984H362.776Z"/><path class="cls-4" d="M291.47892,159.3782a79.96691,79.96691,0,0,0-23.06006-17.35009,62.5127,62.5127,0,0,1-38.29,92.95q1.95524,1.58631,4.01431,3.047a22.36641,22.36641,0,0,0,25.83141,0q2.058-1.45964,4.01439-3.047a78.08781,78.08781,0,0,0,27.49-75.59986Z"/><path class="cls-5" d="M291.47892,159.3782a79.96691,79.96691,0,0,0-23.06006-17.35009,62.5127,62.5127,0,0,1-38.29,92.95q1.95524,1.58631,4.01431,3.047a22.36641,22.36641,0,0,0,25.83141,0q2.058-1.45964,4.01439-3.047a78.08781,78.08781,0,0,0,27.49-75.59986Z"/><path class="cls-6" d="M155.08878,192.458a79.863,79.863,0,0,0-2.88989,21.39013c0,2.47.11,4.91993.33,7.33008a78.73906,78.73906,0,0,0,21.0073,19.30063,22.54062,22.54062,0,0,0,23.99412-.12524q3.30067-2.08167,6.36857-4.47544A62.48487,62.48487,0,0,1,155.08878,192.458Z"/><path class="cls-7" d="M155.08878,192.458a79.863,79.863,0,0,0-2.88989,21.39013c0,2.47.11,4.91993.33,7.33008a78.73906,78.73906,0,0,0,21.0073,19.30063,22.54062,22.54062,0,0,0,23.99412-.12524q3.30067-2.08167,6.36857-4.47544A62.48487,62.48487,0,0,1,155.08878,192.458Z"/><path class="cls-8" d="M263.98893,234.97806q-1.95529,1.58631-4.01439,3.047a22.36641,22.36641,0,0,1-25.83141,0q-2.05793-1.45962-4.01431-3.047a78.11532,78.11532,0,0,1-21.3999-27.14991q.548-.86082,1.06849-1.74065a8.99233,8.99233,0,0,1,15.55415.00172q.5197.87885,1.0673,1.73893a62.64085,62.64085,0,0,0,20.64,20.12989A61.91045,61.91045,0,0,0,263.98893,234.97806Z"/><path class="cls-9" d="M263.98893,234.97806q-1.95529,1.58631-4.01439,3.047a22.36641,22.36641,0,0,1-25.83141,0q-2.05793-1.45962-4.01431-3.047a78.11532,78.11532,0,0,1-21.3999-27.14991q.548-.86082,1.06849-1.74065a8.99233,8.99233,0,0,1,15.55415.00172q.5197.87885,1.0673,1.73893a62.64085,62.64085,0,0,0,20.64,20.12989A61.91045,61.91045,0,0,0,263.98893,234.97806Z"/><path class="cls-10" d="M226.41886,207.82815a78.55539,78.55539,0,0,1-22.52,28.05005q-3.064,2.38988-6.36857,4.47544a22.54062,22.54062,0,0,1-23.99412.12524,77.51541,77.51541,0,0,1-6.55723-4.60068,61.8847,61.8847,0,0,0,18.45-6.40991,62.66576,62.66576,0,0,0,23.30005-21.64014q.548-.86082,1.06849-1.74065a8.99233,8.99233,0,0,1,15.55415.00172Q225.87127,206.96807,226.41886,207.82815Z"/><path class="cls-11" d="M226.41886,207.82815a78.55539,78.55539,0,0,1-22.52,28.05005q-3.064,2.38988-6.36857,4.47544a22.54062,22.54062,0,0,1-23.99412.12524,77.51541,77.51541,0,0,1-6.55723-4.60068,61.8847,61.8847,0,0,0,18.45-6.40991,62.66576,62.66576,0,0,0,23.30005-21.64014q.548-.86082,1.06849-1.74065a8.99233,8.99233,0,0,1,15.55415.00172Q225.87127,206.96807,226.41886,207.82815Z"/><path class="cls-12" d="M287.56888,145.91824c-.46008-.38013-.93-.75-1.4-1.11011a86.89674,86.89674,0,0,0-26.51-14.10986,62.961,62.961,0,0,0-12.6-9.96,62.34571,62.34571,0,0,0-32.14-8.89014,62.47635,62.47635,0,0,0-62.5,62.5c0,1.33985.04,2.66993.13,3.99a86.60554,86.60554,0,0,0-7.32,29.71c-.03.40015-.06006.8-.08008,1.2a78.01189,78.01189,0,1,1,142.42-63.32984Z"/><path class="cls-2" d="M286.16886,144.80813a86.89674,86.89674,0,0,0-26.51-14.10986,62.961,62.961,0,0,0-12.6-9.96,62.34571,62.34571,0,0,0-32.14-8.89014,62.47635,62.47635,0,0,0-62.5,62.5c0,1.33985.04,2.66993.13,3.99a86.60554,86.60554,0,0,0-7.32,29.71,77.22036,77.22036,0,0,1,118.59-92.7A77.506,77.506,0,0,1,286.16886,144.80813Z"/></g></g></svg>