<svg xmlns="http://www.w3.org/2000/svg" xmlns:xlink="http://www.w3.org/1999/xlink" width="12.90741in" height="3.09716in" viewBox="0 0 929.33333 222.99527"><defs><style>.cls-1{isolation:isolate;}.cls-2{fill:#fff;}.cls-3{fill:#6c5ba7;}.cls-4{fill:url(#linear-gradient);}.cls-11,.cls-5,.cls-7,.cls-9{mix-blend-mode:color-dodge;}.cls-5{fill:url(#New_Gradient_Swatch_1);}.cls-6{fill:url(#linear-gradient-2);}.cls-7{fill:url(#New_Gradient_Swatch_1-2);}.cls-8{fill:url(#linear-gradient-3);}.cls-9{fill:url(#New_Gradient_Swatch_1-3);}.cls-10{fill:url(#linear-gradient-4);}.cls-11{fill:url(#New_Gradient_Swatch_1-4);}.cls-12{fill:url(#radial-gradient);}</style><linearGradient id="linear-gradient" x1="114.32811" y1="165.07065" x2="151.99478" y2="130.40398" gradientUnits="userSpaceOnUse"><stop offset="0" stop-color="#272b2c"/><stop offset="1" stop-color="#6c5ba7"/></linearGradient><radialGradient id="New_Gradient_Swatch_1" cx="172.99501" cy="70.8317" r="41.77798" gradientUnits="userSpaceOnUse"><stop offset="0.00513" stop-color="#6c5ba7"/><stop offset="1" stop-color="#6c5ba7" stop-opacity="0"/></radialGradient><linearGradient id="linear-gradient-2" x1="89.4917" y1="163.15308" x2="77.4917" y2="150.48641" xlink:href="#linear-gradient"/><radialGradient id="New_Gradient_Swatch_1-2" cx="58.02004" cy="121.66853" r="25.77928" xlink:href="#New_Gradient_Swatch_1"/><linearGradient id="linear-gradient-3" x1="118.5476" y1="121.5131" x2="139.2976" y2="148.2631" xlink:href="#linear-gradient"/><radialGradient id="New_Gradient_Swatch_1-3" cx="156.5801" cy="157.37283" r="24.22705" xlink:href="#New_Gradient_Swatch_1"/><linearGradient id="linear-gradient-4" x1="41.24377" y1="177.09639" x2="93.99377" y2="153.84639" xlink:href="#linear-gradient"/><radialGradient id="New_Gradient_Swatch_1-4" cx="116.14003" cy="134.60027" r="24.43614" xlink:href="#New_Gradient_Swatch_1"/><radialGradient id="radial-gradient" cx="131.14003" cy="17.60027" r="88.51342" gradientUnits="userSpaceOnUse"><stop offset="0" stop-color="#58595b"/><stop offset="0.99487" stop-color="#272b2c"/></radialGradient></defs><g class="cls-1"><g id="Layer_1" data-name="Layer 1"><path class="cls-2" d="M320.28809,100.04594q0,21.51709-12.05762,33.07617-12.05567,11.55909-34.5625,11.5586-22.50587,0-34.5625-11.5586Q227.04834,121.563,227.04883,99.92778q0-21.63574,12.09082-33.04688Q251.229,55.47124,273.80273,55.47075q22.57179,0,34.52832,11.499Q320.28711,78.47025,320.28809,100.04594Zm-71.46973,0q0,14.52393,6.22852,21.873,6.23,7.35059,18.62109,7.34961,24.84961,0,24.85058-29.22266,0-29.28222-24.71582-29.28222-12.394,0-18.68847,7.37988Q248.8169,85.52348,248.81836,100.04594Z"/><path class="cls-2" d="M393.56836,143.49516l-7.10059-20.62793H350.7666L343.667,143.49516H321.29492l34.5625-87.0166h25.38574l34.69727,87.0166Zm-12.05664-36.04Q371.665,79.418,370.42578,75.74321q-1.23926-3.6753-1.77441-5.80957-2.21046,7.58789-12.66016,37.52148Z"/><path class="cls-2" d="M501.41113,143.49516H477.833l-25.6543-36.51367-8.77441,5.57129v30.94238H422.63965V56.834H443.4043V96.4893L451.57617,86.294l26.52442-29.46h23.042L466.98242,95.18559Z"/><path class="cls-3" d="M603.49414,143.49516H579.84961l-13.2627-45.52344q-.73827-2.43017-2.51171-10.04785a102.31153,102.31153,0,0,1-2.043-10.22461q-.40137,3.20069-2.00977,10.28418-1.60693,7.084-2.47851,10.10645l-13.19532,45.40527H520.77148L495.78711,56.834H516.2168l12.52539,47.30176q3.28125,13.10156,4.75586,22.70312.40135-3.37939,1.84179-10.46289a105.41645,105.41645,0,0,1,2.71289-10.99512L552.31934,56.834h19.626l14.26758,48.54687q.936,3.26075,2.34375,9.958,1.40772,6.69873,2.14356,11.5.66942-4.62452,2.14355-11.5293,1.47217-6.90526,2.67969-11.17382l12.458-47.30176h20.42968Z"/><path class="cls-3" d="M692.38184,143.49516l-7.10059-20.62793H649.58008l-7.09961,20.62793H620.1084l34.5625-87.0166h25.38574l34.69727,87.0166Zm-12.05664-36.04q-9.84669-28.0371-11.08594-31.71191Q668,72.06791,667.46484,69.93364q-2.21044,7.58789-12.66015,37.52148Z"/><path class="cls-3" d="M774.63672,56.834h20.96484L762.3125,143.49516H739.67188L706.44922,56.834h20.96484l18.4209,51.56933q1.53955,4.56592,3.18164,10.64063,1.63917,6.07617,2.043,8.44629.73534-5.45216,5.02344-19.08692Z"/><path class="cls-3" d="M858.70117,143.49516H802.30176V56.834h56.39941V71.88969H823.06641V90.917h33.15625v15.05664H823.06641v22.34668h35.63476Z"/><path class="cls-4" d="M194.70009,85.1303A79.96712,79.96712,0,0,0,171.64,67.7802a62.51271,62.51271,0,0,1-38.29,92.95q1.95525,1.58631,4.01432,3.047a22.36639,22.36639,0,0,0,25.8314,0q2.058-1.45964,4.01439-3.047a78.08781,78.08781,0,0,0,27.49-75.59986Z"/><path class="cls-5" d="M194.70009,85.1303A79.96712,79.96712,0,0,0,171.64,67.7802a62.51271,62.51271,0,0,1-38.29,92.95q1.95525,1.58631,4.01432,3.047a22.36639,22.36639,0,0,0,25.8314,0q2.058-1.45964,4.01439-3.047a78.08781,78.08781,0,0,0,27.49-75.59986Z"/><path class="cls-6" d="M58.31,118.21014a79.86259,79.86259,0,0,0-2.8899,21.39013c0,2.47.11,4.91992.33,7.33008A78.73906,78.73906,0,0,0,76.75732,166.231a22.54062,22.54062,0,0,0,23.99412-.12524q3.30068-2.08167,6.36857-4.47544a62.48485,62.48485,0,0,1-48.81-43.42016Z"/><path class="cls-7" d="M58.31,118.21014a79.86259,79.86259,0,0,0-2.8899,21.39013c0,2.47.11,4.91992.33,7.33008A78.73906,78.73906,0,0,0,76.75732,166.231a22.54062,22.54062,0,0,0,23.99412-.12524q3.30068-2.08167,6.36857-4.47544a62.48485,62.48485,0,0,1-48.81-43.42016Z"/><path class="cls-8" d="M167.2101,160.73016q-1.9553,1.58631-4.01439,3.047a22.36639,22.36639,0,0,1-25.8314,0q-2.05794-1.45962-4.01432-3.047a78.11563,78.11563,0,0,1-21.3999-27.14991q.548-.86082,1.0685-1.74065a8.99232,8.99232,0,0,1,15.55414.00172q.5197.87885,1.0673,1.73893a62.64085,62.64085,0,0,0,20.64,20.12989A61.91045,61.91045,0,0,0,167.2101,160.73016Z"/><path class="cls-9" d="M167.2101,160.73016q-1.9553,1.58631-4.01439,3.047a22.36639,22.36639,0,0,1-25.8314,0q-2.05794-1.45962-4.01432-3.047a78.11563,78.11563,0,0,1-21.3999-27.14991q.548-.86082,1.0685-1.74065a8.99232,8.99232,0,0,1,15.55414.00172q.5197.87885,1.0673,1.73893a62.64085,62.64085,0,0,0,20.64,20.12989A61.91045,61.91045,0,0,0,167.2101,160.73016Z"/><path class="cls-10" d="M129.64,133.58025a78.5551,78.5551,0,0,1-22.52,28.05005q-3.064,2.38987-6.36857,4.47544a22.54062,22.54062,0,0,1-23.99412.12524,77.51541,77.51541,0,0,1-6.55723-4.60068,61.885,61.885,0,0,0,18.45-6.40991,62.66576,62.66576,0,0,0,23.30005-21.64014q.548-.86082,1.0685-1.74065a8.99232,8.99232,0,0,1,15.55414.00172Q129.09243,132.72017,129.64,133.58025Z"/><path class="cls-11" d="M129.64,133.58025a78.5551,78.5551,0,0,1-22.52,28.05005q-3.064,2.38987-6.36857,4.47544a22.54062,22.54062,0,0,1-23.99412.12524,77.51541,77.51541,0,0,1-6.55723-4.60068,61.885,61.885,0,0,0,18.45-6.40991,62.66576,62.66576,0,0,0,23.30005-21.64014q.548-.86082,1.0685-1.74065a8.99232,8.99232,0,0,1,15.55414.00172Q129.09243,132.72017,129.64,133.58025Z"/><path class="cls-12" d="M190.79006,71.67034c-.46008-.38013-.93006-.75-1.4-1.11011a86.89662,86.89662,0,0,0-26.51-14.10986,62.96067,62.96067,0,0,0-12.6-9.96,62.34571,62.34571,0,0,0-32.14-8.89014,62.47635,62.47635,0,0,0-62.5,62.5c0,1.33985.04,2.66992.13,3.99a86.60543,86.60543,0,0,0-7.31995,29.71c-.03.40015-.06006.8-.08008,1.2A78.01189,78.01189,0,1,1,190.79006,71.67034Z"/><path class="cls-2" d="M189.39,70.56023a86.89662,86.89662,0,0,0-26.51-14.10986,62.96067,62.96067,0,0,0-12.6-9.96,62.34571,62.34571,0,0,0-32.14-8.89014,62.47635,62.47635,0,0,0-62.5,62.5c0,1.33985.04,2.66992.13,3.99a86.60543,86.60543,0,0,0-7.31995,29.71,77.22037,77.22037,0,0,1,118.59-92.69995A77.506,77.506,0,0,1,189.39,70.56023Z"/></g></g></svg>