<svg xmlns="http://www.w3.org/2000/svg" xmlns:xlink="http://www.w3.org/1999/xlink" viewBox="0 0 929.33 223"><defs><style>.cls-1{isolation:isolate;}.cls-2{font-size:121.4px;font-family:NotoSans-Bold, Noto Sans;font-weight:700;letter-spacing:-0.05em;}.cls-2,.cls-6,.cls-7{fill:#fff;}.cls-3{letter-spacing:-0.04em;}.cls-4{letter-spacing:-0.06em;}.cls-5{letter-spacing:-0.04em;}.cls-7{mix-blend-mode:color-dodge;}.cls-8{fill:url(#radial-gradient);}.cls-9{fill:url(#linear-gradient);}</style><radialGradient id="radial-gradient" cx="134.8" cy="33.23" r="88.51" gradientUnits="userSpaceOnUse"><stop offset="0" stop-color="#58595b"/><stop offset="0.99" stop-color="#272b2c"/></radialGradient><linearGradient id="linear-gradient" x1="118.96" y1="63.98" x2="118.96" y2="-196.83" gradientUnits="userSpaceOnUse"><stop offset="0.01" stop-color="#272b2c"/><stop offset="1" stop-color="#414042" stop-opacity="0"/></linearGradient></defs><g class="cls-1"><g id="Layer_1" data-name="Layer 1"><text class="cls-2" transform="translate(216 150.63) scale(1.13 1)">O<tspan class="cls-3" x="90.46" y="0">AK</tspan><tspan class="cls-4" x="244.87" y="0">WA</tspan><tspan class="cls-5" x="431.3" y="0">VE</tspan></text><path class="cls-6" d="M198.36,100.76A80,80,0,0,0,175.3,83.41a62.51,62.51,0,0,1-38.29,93q2,1.59,4,3a22.35,22.35,0,0,0,25.83,0q2.05-1.46,4-3a78.09,78.09,0,0,0,27.49-75.6Z"/><path class="cls-7" d="M198.36,100.76A80,80,0,0,0,175.3,83.41a62.51,62.51,0,0,1-38.29,93q2,1.59,4,3a22.35,22.35,0,0,0,25.83,0q2.05-1.46,4-3a78.09,78.09,0,0,0,27.49-75.6Z"/><path class="cls-6" d="M62,133.84a79.86,79.86,0,0,0-2.89,21.39c0,2.47.11,4.92.33,7.33a78,78,0,0,0,14.45,14.7,78.83,78.83,0,0,0,6.56,4.61,22.55,22.55,0,0,0,24-.13,76.51,76.51,0,0,0,6.36-4.48A62.49,62.49,0,0,1,62,133.84Z"/><path class="cls-7" d="M62,133.84a79.86,79.86,0,0,0-2.89,21.39c0,2.47.11,4.92.33,7.33a78,78,0,0,0,14.45,14.7,78.83,78.83,0,0,0,6.56,4.61,22.55,22.55,0,0,0,24-.13,76.51,76.51,0,0,0,6.36-4.48A62.49,62.49,0,0,1,62,133.84Z"/><path class="cls-6" d="M170.87,176.36q-2,1.59-4,3a22.35,22.35,0,0,1-25.83,0q-2.06-1.46-4-3a78.12,78.12,0,0,1-21.4-27.15c.37-.57.73-1.15,1.07-1.74a9,9,0,0,1,15.56,0c.34.58.7,1.16,1.06,1.73a62.64,62.64,0,0,0,20.64,20.13A61.92,61.92,0,0,0,170.87,176.36Z"/><path class="cls-7" d="M170.87,176.36q-2,1.59-4,3a22.35,22.35,0,0,1-25.83,0q-2.06-1.46-4-3a78.12,78.12,0,0,1-21.4-27.15c.37-.57.73-1.15,1.07-1.74a9,9,0,0,1,15.56,0c.34.58.7,1.16,1.06,1.73a62.64,62.64,0,0,0,20.64,20.13A61.92,61.92,0,0,0,170.87,176.36Z"/><path class="cls-6" d="M133.3,149.21a78.56,78.56,0,0,1-22.52,28,76.51,76.51,0,0,1-6.36,4.48,22.55,22.55,0,0,1-24,.13,78.83,78.83,0,0,1-6.56-4.61,61.88,61.88,0,0,0,18.45-6.41,62.67,62.67,0,0,0,23.3-21.64c.37-.57.73-1.15,1.07-1.74a9,9,0,0,1,15.56,0C132.58,148.06,132.94,148.64,133.3,149.21Z"/><path class="cls-7" d="M133.3,149.21a78.56,78.56,0,0,1-22.52,28,76.51,76.51,0,0,1-6.36,4.48,22.55,22.55,0,0,1-24,.13,78.83,78.83,0,0,1-6.56-4.61,61.88,61.88,0,0,0,18.45-6.41,62.67,62.67,0,0,0,23.3-21.64c.37-.57.73-1.15,1.07-1.74a9,9,0,0,1,15.56,0C132.58,148.06,132.94,148.64,133.3,149.21Z"/><path class="cls-8" d="M194.45,87.3c-.46-.38-.93-.75-1.4-1.11a86.9,86.9,0,0,0-26.51-14.11,63,63,0,0,0-12.6-10,62.34,62.34,0,0,0-32.14-8.89,62.48,62.48,0,0,0-62.5,62.5c0,1.34,0,2.67.13,4a86.61,86.61,0,0,0-7.32,29.71c0,.4-.06.8-.08,1.2A78,78,0,1,1,194.45,87.3Z"/><path class="cls-9" d="M193.05,86.19a86.9,86.9,0,0,0-26.51-14.11,63,63,0,0,0-12.6-10,62.34,62.34,0,0,0-32.14-8.89,62.48,62.48,0,0,0-62.5,62.5c0,1.34,0,2.67.13,4a86.61,86.61,0,0,0-7.32,29.71A77.22,77.22,0,0,1,170.7,56.73,77.51,77.51,0,0,1,193.05,86.19Z"/></g></g></svg>