<svg xmlns="http://www.w3.org/2000/svg" xmlns:xlink="http://www.w3.org/1999/xlink" viewBox="0 0 432 432"><defs><style>.cls-1{isolation:isolate;}.cls-2{font-size:57.53px;fill:#272b2c;font-family:NotoSans-Bold, Noto Sans;font-weight:700;letter-spacing:-0.05em;}.cls-3{letter-spacing:-0.04em;}.cls-4,.cls-5{fill:#6c5ba7;}.cls-4{letter-spacing:-0.06em;}.cls-5{letter-spacing:-0.04em;}.cls-6{fill:url(#linear-gradient);}.cls-11,.cls-13,.cls-7,.cls-9{mix-blend-mode:color-dodge;}.cls-7{fill:url(#New_Gradient_Swatch_1);}.cls-8{fill:url(#linear-gradient-2);}.cls-9{fill:url(#New_Gradient_Swatch_1-2);}.cls-10{fill:url(#linear-gradient-3);}.cls-11{fill:url(#New_Gradient_Swatch_1-3);}.cls-12{fill:url(#linear-gradient-4);}.cls-13{fill:url(#New_Gradient_Swatch_1-4);}.cls-14{fill:url(#radial-gradient);}.cls-15{fill:url(#linear-gradient-5);}</style><linearGradient id="linear-gradient" x1="213.14" y1="245.02" x2="250.8" y2="210.35" gradientUnits="userSpaceOnUse"><stop offset="0" stop-color="#272b2c"/><stop offset="1" stop-color="#6c5ba7"/></linearGradient><radialGradient id="New_Gradient_Swatch_1" cx="271.8" cy="150.78" r="41.78" gradientUnits="userSpaceOnUse"><stop offset="0.01" stop-color="#6c5ba7"/><stop offset="1" stop-color="#6c5ba7" stop-opacity="0"/></radialGradient><linearGradient id="linear-gradient-2" x1="188.3" y1="243.1" x2="176.3" y2="230.43" xlink:href="#linear-gradient"/><radialGradient id="New_Gradient_Swatch_1-2" cx="156.83" cy="201.61" r="25.78" xlink:href="#New_Gradient_Swatch_1"/><linearGradient id="linear-gradient-3" x1="217.36" y1="201.46" x2="238.11" y2="228.21" xlink:href="#linear-gradient"/><radialGradient id="New_Gradient_Swatch_1-3" cx="255.39" cy="237.32" r="24.23" xlink:href="#New_Gradient_Swatch_1"/><linearGradient id="linear-gradient-4" x1="140.05" y1="257.04" x2="192.8" y2="233.79" xlink:href="#linear-gradient"/><radialGradient id="New_Gradient_Swatch_1-4" cx="214.95" cy="214.55" r="24.44" xlink:href="#New_Gradient_Swatch_1"/><radialGradient id="radial-gradient" cx="229.95" cy="97.55" r="88.51" gradientUnits="userSpaceOnUse"><stop offset="0" stop-color="#58595b"/><stop offset="0.99" stop-color="#272b2c"/></radialGradient><linearGradient id="linear-gradient-5" x1="214.11" y1="128.3" x2="214.11" y2="-132.52" gradientUnits="userSpaceOnUse"><stop offset="0.01" stop-color="#272b2c"/><stop offset="1" stop-color="#414042" stop-opacity="0"/></linearGradient></defs><g class="cls-1"><g id="Layer_1" data-name="Layer 1"><text class="cls-2" transform="translate(61.7 304.9) scale(1.13 1)">O<tspan class="cls-3" x="42.87" y="0">AK</tspan><tspan class="cls-4" x="116.04" y="0">WA</tspan><tspan class="cls-5" x="204.38" y="0">VE</tspan></text><path class="cls-6" d="M293.51,165.08a80,80,0,0,0-23.06-17.35,62.51,62.51,0,0,1-38.29,93c1.3,1,2.64,2.07,4,3a22.35,22.35,0,0,0,25.83,0c1.38-1,2.71-2,4-3a78.09,78.09,0,0,0,27.49-75.6Z"/><path class="cls-7" d="M293.51,165.08a80,80,0,0,0-23.06-17.35,62.51,62.51,0,0,1-38.29,93c1.3,1,2.64,2.07,4,3a22.35,22.35,0,0,0,25.83,0c1.38-1,2.71-2,4-3a78.09,78.09,0,0,0,27.49-75.6Z"/><path class="cls-8" d="M157.12,198.16a79.86,79.86,0,0,0-2.89,21.39c0,2.47.11,4.92.33,7.33A78,78,0,0,0,169,241.58a77.1,77.1,0,0,0,6.56,4.6,22.54,22.54,0,0,0,24-.13c2.2-1.39,4.33-2.88,6.37-4.47a62.49,62.49,0,0,1-48.81-43.42Z"/><path class="cls-9" d="M157.12,198.16a79.86,79.86,0,0,0-2.89,21.39c0,2.47.11,4.92.33,7.33A78,78,0,0,0,169,241.58a77.1,77.1,0,0,0,6.56,4.6,22.54,22.54,0,0,0,24-.13c2.2-1.39,4.33-2.88,6.37-4.47a62.49,62.49,0,0,1-48.81-43.42Z"/><path class="cls-10" d="M266,240.68c-1.31,1-2.64,2.07-4,3a22.35,22.35,0,0,1-25.83,0c-1.37-1-2.71-2-4-3a78.12,78.12,0,0,1-21.4-27.15c.36-.58.72-1.16,1.07-1.74a9,9,0,0,1,15.55,0c.35.58.7,1.16,1.07,1.74a62.64,62.64,0,0,0,20.64,20.13A61.92,61.92,0,0,0,266,240.68Z"/><path class="cls-11" d="M266,240.68c-1.31,1-2.64,2.07-4,3a22.35,22.35,0,0,1-25.83,0c-1.37-1-2.71-2-4-3a78.12,78.12,0,0,1-21.4-27.15c.36-.58.72-1.16,1.07-1.74a9,9,0,0,1,15.55,0c.35.58.7,1.16,1.07,1.74a62.64,62.64,0,0,0,20.64,20.13A61.92,61.92,0,0,0,266,240.68Z"/><path class="cls-12" d="M228.45,213.53a78.56,78.56,0,0,1-22.52,28.05c-2,1.59-4.17,3.08-6.37,4.47a22.54,22.54,0,0,1-24,.13,77.1,77.1,0,0,1-6.56-4.6,61.88,61.88,0,0,0,18.45-6.41,62.67,62.67,0,0,0,23.3-21.64c.36-.58.72-1.16,1.07-1.74a9,9,0,0,1,15.55,0C227.73,212.37,228.08,213,228.45,213.53Z"/><path class="cls-13" d="M228.45,213.53a78.56,78.56,0,0,1-22.52,28.05c-2,1.59-4.17,3.08-6.37,4.47a22.54,22.54,0,0,1-24,.13,77.1,77.1,0,0,1-6.56-4.6,61.88,61.88,0,0,0,18.45-6.41,62.67,62.67,0,0,0,23.3-21.64c.36-.58.72-1.16,1.07-1.74a9,9,0,0,1,15.55,0C227.73,212.37,228.08,213,228.45,213.53Z"/><path class="cls-14" d="M289.6,151.62c-.46-.38-.93-.75-1.4-1.11a86.9,86.9,0,0,0-26.51-14.11,63,63,0,0,0-12.6-10A62.34,62.34,0,0,0,217,117.55a62.48,62.48,0,0,0-62.5,62.5c0,1.34,0,2.67.13,4a86.61,86.61,0,0,0-7.32,29.71c0,.4-.06.8-.08,1.2A78,78,0,1,1,289.6,151.62Z"/><path class="cls-15" d="M288.2,150.51a86.9,86.9,0,0,0-26.51-14.11,63,63,0,0,0-12.6-10A62.34,62.34,0,0,0,217,117.55a62.48,62.48,0,0,0-62.5,62.5c0,1.34,0,2.67.13,4a86.61,86.61,0,0,0-7.32,29.71,77.22,77.22,0,0,1,118.59-92.7A77.51,77.51,0,0,1,288.2,150.51Z"/></g></g></svg>