<svg xmlns="http://www.w3.org/2000/svg" xmlns:xlink="http://www.w3.org/1999/xlink" viewBox="0 0 230.95 180.61"><defs><style>.cls-1{isolation:isolate;}.cls-2{fill:#272b2c;}.cls-2,.cls-3{stroke:#6c5ba7;stroke-miterlimit:10;}.cls-3{fill:none;}.cls-4,.cls-5{fill:#fff;}.cls-5{mix-blend-mode:color-dodge;}.cls-6{fill:url(#radial-gradient);}.cls-7{fill:url(#linear-gradient);}</style><radialGradient id="radial-gradient" cx="132.21" cy="11.04" r="88.51" gradientUnits="userSpaceOnUse"><stop offset="0" stop-color="#58595b"/><stop offset="0.99" stop-color="#272b2c"/></radialGradient><linearGradient id="linear-gradient" x1="116.37" y1="41.79" x2="116.37" y2="-219.02" gradientUnits="userSpaceOnUse"><stop offset="0.01" stop-color="#272b2c"/><stop offset="1" stop-color="#414042" stop-opacity="0"/></linearGradient></defs><g class="cls-1"><g id="Layer_1" data-name="Layer 1"><path class="cls-2" d="M4.61,157.85l-.83-.34-.18.34Z"/><path class="cls-3" d="M61,158.29l1.11-.44H60.78Z"/><path class="cls-4" d="M195.77,78.57a80,80,0,0,0-23.06-17.35,62.51,62.51,0,0,1-38.29,92.95q2,1.59,4,3.05a22.36,22.36,0,0,0,25.84,0q2.05-1.46,4-3.05a78.09,78.09,0,0,0,27.49-75.6Z"/><path class="cls-5" d="M195.77,78.57a80,80,0,0,0-23.06-17.35,62.51,62.51,0,0,1-38.29,92.95q2,1.59,4,3.05a22.36,22.36,0,0,0,25.84,0q2.05-1.46,4-3.05a78.09,78.09,0,0,0,27.49-75.6Z"/><path class="cls-4" d="M59.38,111.65A79.86,79.86,0,0,0,56.49,133c0,2.47.11,4.92.33,7.33a78,78,0,0,0,14.45,14.7,74.89,74.89,0,0,0,6.56,4.6,22.52,22.52,0,0,0,24-.12,76.68,76.68,0,0,0,6.37-4.48,62.49,62.49,0,0,1-48.81-43.42Z"/><path class="cls-5" d="M59.38,111.65A79.86,79.86,0,0,0,56.49,133c0,2.47.11,4.92.33,7.33a78,78,0,0,0,14.45,14.7,74.89,74.89,0,0,0,6.56,4.6,22.52,22.52,0,0,0,24-.12,76.68,76.68,0,0,0,6.37-4.48,62.49,62.49,0,0,1-48.81-43.42Z"/><path class="cls-4" d="M168.28,154.17q-2,1.59-4,3.05a22.36,22.36,0,0,1-25.84,0q-2.06-1.46-4-3.05A78.12,78.12,0,0,1,113,127c.37-.57.72-1.15,1.07-1.74a9,9,0,0,1,15.55,0c.35.59.7,1.17,1.07,1.74a62.64,62.64,0,0,0,20.64,20.13A61.92,61.92,0,0,0,168.28,154.17Z"/><path class="cls-5" d="M168.28,154.17q-2,1.59-4,3.05a22.36,22.36,0,0,1-25.84,0q-2.06-1.46-4-3.05A78.12,78.12,0,0,1,113,127c.37-.57.72-1.15,1.07-1.74a9,9,0,0,1,15.55,0c.35.59.7,1.17,1.07,1.74a62.64,62.64,0,0,0,20.64,20.13A61.92,61.92,0,0,0,168.28,154.17Z"/><path class="cls-4" d="M130.71,127a78.56,78.56,0,0,1-22.52,28.05,76.68,76.68,0,0,1-6.37,4.48,22.52,22.52,0,0,1-24,.12,74.89,74.89,0,0,1-6.56-4.6,61.88,61.88,0,0,0,18.45-6.41A62.67,62.67,0,0,0,113,127c.37-.57.72-1.15,1.07-1.74a9,9,0,0,1,15.55,0C130,125.87,130.34,126.45,130.71,127Z"/><path class="cls-5" d="M130.71,127a78.56,78.56,0,0,1-22.52,28.05,76.68,76.68,0,0,1-6.37,4.48,22.52,22.52,0,0,1-24,.12,74.89,74.89,0,0,1-6.56-4.6,61.88,61.88,0,0,0,18.45-6.41A62.67,62.67,0,0,0,113,127c.37-.57.72-1.15,1.07-1.74a9,9,0,0,1,15.55,0C130,125.87,130.34,126.45,130.71,127Z"/><path class="cls-6" d="M191.86,65.11c-.46-.38-.93-.75-1.4-1.11A86.9,86.9,0,0,0,164,49.89a63,63,0,0,0-12.6-10A62.34,62.34,0,0,0,119.21,31a62.48,62.48,0,0,0-62.5,62.5c0,1.34,0,2.67.13,4a86.61,86.61,0,0,0-7.32,29.71c0,.4-.06.8-.08,1.2A78,78,0,1,1,191.86,65.11Z"/><path class="cls-7" d="M190.46,64A86.9,86.9,0,0,0,164,49.89a63,63,0,0,0-12.6-10A62.34,62.34,0,0,0,119.21,31a62.48,62.48,0,0,0-62.5,62.5c0,1.34,0,2.67.13,4a86.61,86.61,0,0,0-7.32,29.71,77.22,77.22,0,0,1,118.59-92.7A77.51,77.51,0,0,1,190.46,64Z"/></g></g></svg>