<svg xmlns="http://www.w3.org/2000/svg" xmlns:xlink="http://www.w3.org/1999/xlink" viewBox="0 0 729 618.41"><defs><style>.cls-1,.cls-2,.cls-7,.cls-8{font-size:187.86px;font-family:NotoSans-Bold, Noto Sans;font-weight:700;}.cls-1,.cls-2{fill:none;}.cls-1,.cls-7,.cls-8{letter-spacing:-0.07em;}.cls-2{letter-spacing:-0.07em;}.cls-3{font-size:196.65px;font-family:FjallaOne-Regular, Josefin Sans;letter-spacing:-0.06em;}.cls-3,.cls-5{fill:#272b2c;}.cls-4,.cls-8{fill:#fff;}.cls-5{isolation:isolate;}.cls-6,.cls-7{fill:#6c5ba7;}.cls-9{clip-path:url(#clip-path);}.cls-10{clip-path:url(#clip-path-2);}</style><clipPath id="clip-path"><text class="cls-1" transform="translate(119.82 302.05) scale(1.04 1)">wave</text></clipPath><clipPath id="clip-path-2"><text class="cls-2" transform="translate(119.47 302.46) scale(1.04 1)">wave</text></clipPath></defs><g id="Layer_2" data-name="Layer 2"><g id="Layer_1-2" data-name="Layer 1"><text class="cls-3" transform="translate(0 193.03) scale(1.73 1)"><tspan xml:space="preserve">     </tspan><tspan class="cls-4" x="152.27" y="0">AK</tspan></text><path class="cls-5" d="M133.91,93.78H264.78c0,37.46-18.88,71.71-48.78,88.46l-16.66,9.34-16.66-9.34C152.79,165.49,133.91,131.24,133.91,93.78Z"/><path class="cls-6" d="M275.68,61.11V73.33c0,6.75-4.88,12.23-10.9,12.23H133.91c-6,0-10.91-5.48-10.91-12.23V61.11c0-20.26,14.65-36.67,32.72-36.67h36.12A53.18,53.18,0,0,1,201.87,2a5.14,5.14,0,0,1,3.85-2,5,5,0,0,1,4.09,1.8l3.85,4.33a6.65,6.65,0,0,1,.22,8.36,33.35,33.35,0,0,0-5.17,9.94H243C261,24.44,275.68,40.85,275.68,61.11Z"/><text class="cls-7" transform="translate(120.2 302.12) scale(1.04 1)">wave</text><text class="cls-7" transform="translate(120.2 302.12) scale(1.04 1)">wave</text><text class="cls-8" transform="translate(119.82 302.05) scale(1.04 1)">wave</text><g class="cls-9"><path class="cls-6" d="M394.5,231.59c-15.25,0-15.25,20-30.5,20s-15.25-20-30.5-20-15.25,20-30.5,20-15.25-20-30.5-20-15.25,20-30.49,20-15.25-20-30.5-20-15.25,20-30.5,20-15.26-20-30.51-20-15.25,20-30.5,20V618H425V251.59C409.75,251.59,409.75,231.59,394.5,231.59Z"/></g><g class="cls-10"><path class="cls-6" d="M698.5,230.59c-15.25,0-15.25,20-30.5,20s-15.25-20-30.5-20-15.25,20-30.5,20-15.25-20-30.5-20-15.25,20-30.49,20-15.25-20-30.5-20-15.25,20-30.5,20-15.26-20-30.51-20-15.25,20-30.5,20V617H729V250.59C713.75,250.59,713.75,230.59,698.5,230.59Z"/><path class="cls-6" d="M395,232c-15.25,0-15.25,20-30.5,20s-15.25-20-30.5-20-15.25,20-30.5,20S288.22,232,273,232s-15.25,20-30.5,20-15.25-20-30.5-20-15.25,20-30.5,20S166.23,232,151,232s-15.25,20-30.5,20V618.41h305V252C410.22,252,410.22,232,395,232Z"/></g></g></g></svg>