<svg xmlns="http://www.w3.org/2000/svg" xmlns:xlink="http://www.w3.org/1999/xlink" viewBox="0 0 729 634"><defs><style>.cls-1,.cls-5,.cls-6{font-size:187.86px;font-family:NotoSans-Bold, Noto Sans;font-weight:700;letter-spacing:-0.07em;}.cls-1{fill:none;}.cls-2{font-size:196.65px;font-family:FjallaOne-Regular, Josefin Sans;letter-spacing:-0.06em;}.cls-2,.cls-3,.cls-6{fill:#272b2c;}.cls-3{isolation:isolate;}.cls-4,.cls-5{fill:#6c5ba7;}.cls-7{clip-path:url(#clip-path);}</style><clipPath id="clip-path" transform="translate(0 -80.12)"><text class="cls-1" transform="translate(119.82 382.17) scale(1.04 1)">wave</text></clipPath></defs><g id="Layer_2" data-name="Layer 2"><g id="Layer_1-2" data-name="Layer 1"><text class="cls-2" transform="translate(0 193.03) scale(1.73 1)"><tspan xml:space="preserve">     AK</tspan></text><path class="cls-3" d="M133.91,173.9H264.78c0,37.46-18.88,71.71-48.78,88.46l-16.66,9.34-16.66-9.34C152.79,245.61,133.91,211.36,133.91,173.9Z" transform="translate(0 -80.12)"/><path class="cls-4" d="M275.69,141.23v12.23c0,6.75-4.89,12.22-10.91,12.22H133.91c-6,0-10.91-5.47-10.91-12.22V141.23c0-20.25,14.65-36.67,32.72-36.67h36.12a53.14,53.14,0,0,1,10-22.4,5.12,5.12,0,0,1,3.85-2,5,5,0,0,1,4.09,1.8l3.85,4.33a6.65,6.65,0,0,1,.22,8.36,33.48,33.48,0,0,0-5.17,9.94H243C261,104.56,275.69,121,275.69,141.23Z" transform="translate(0 -80.12)"/><text class="cls-5" transform="translate(120.2 302.12) scale(1.04 1)">wave</text><text class="cls-5" transform="translate(120.2 302.12) scale(1.04 1)">wave</text><text class="cls-6" transform="translate(119.82 302.05) scale(1.04 1)">wave</text><g class="cls-7"><path class="cls-4" d="M394.5,327.71c-15.25,0-15.25,20-30.5,20s-15.25-20-30.5-20-15.25,20-30.5,20-15.25-20-30.5-20-15.24,20-30.49,20-15.25-20-30.5-20-15.25,20-30.5,20-15.25-20-30.51-20-15.25,20-30.5,20V714.12H425V347.71C409.75,347.71,409.75,327.71,394.5,327.71Z" transform="translate(0 -80.12)"/><path class="cls-4" d="M698.5,327.71c-15.25,0-15.25,20-30.5,20s-15.25-20-30.5-20-15.25,20-30.5,20-15.25-20-30.5-20-15.24,20-30.49,20-15.25-20-30.5-20-15.25,20-30.5,20-15.25-20-30.51-20-15.25,20-30.5,20V714.12H729V347.71C713.75,347.71,713.75,327.71,698.5,327.71Z" transform="translate(0 -80.12)"/></g></g></g></svg>