<svg xmlns="http://www.w3.org/2000/svg" viewBox="0 0 152.68 191.58"><defs><style>.cls-1{fill:#272b2c;isolation:isolate;}.cls-2{fill:#6c5ba7;}</style></defs><g id="Layer_2" data-name="Layer 2"><g id="Layer_1-2" data-name="Layer 1"><path class="cls-1" d="M10.91,93.78H141.78c0,37.46-18.88,71.71-48.78,88.46l-16.66,9.34-16.66-9.34C29.79,165.49,10.91,131.24,10.91,93.78Z"/><path class="cls-2" d="M152.68,61.11V73.33c0,6.75-4.88,12.23-10.9,12.23H10.91C4.88,85.56,0,80.08,0,73.33V61.11C0,40.85,14.65,24.44,32.72,24.44H68.84A53.18,53.18,0,0,1,78.87,2a5.14,5.14,0,0,1,3.85-2,5,5,0,0,1,4.09,1.8l3.85,4.33a6.65,6.65,0,0,1,.22,8.36,33.35,33.35,0,0,0-5.17,9.94H120C138,24.44,152.68,40.85,152.68,61.11Z"/></g></g></svg>