<svg xmlns="http://www.w3.org/2000/svg" id="prefix__Component_76_1" width="273.036" height="131.51" data-name="Component 76 – 1" viewBox="0 0 273.036 131.51">
    <g id="prefix__Artwork_333" data-name="Artwork 333" transform="translate(136.518 65.755)">
        <path id="prefix__Artwork_333-2" d="M250.542 46.584a11.936 11.936 0 00-9.181-5.968C212.9 42.453 111.906 44.748 46.719.219a1.836 1.836 0 00-2.3.459c-7.345 10.1-16.067 22.035-23.412 34.429S5.863 62.651.354 74.128a2.754 2.754 0 00.919 3.672c70.236 45.447 160.671 53.251 213.462 53.71h27.085a13.772 13.772 0 008.722-5.968c7.345-11.017 22.494-33.511 22.494-38.1s-15.608-31.217-22.494-40.858z" data-name="Artwork 333" transform="translate(-136.518 -65.755)" style="fill:#6c5ba7"/>
    </g>
</svg>
