<svg id="Layer_1" data-name="Layer 1" xmlns="http://www.w3.org/2000/svg" viewBox="0 0 826.1 537.15"><defs><style>.cls-1{fill:#6c5ba7;}.cls-1,.cls-10,.cls-11,.cls-12,.cls-13,.cls-14,.cls-15,.cls-16,.cls-19,.cls-2,.cls-20,.cls-21,.cls-3,.cls-4,.cls-5,.cls-6,.cls-7,.cls-8,.cls-9{fill-rule:evenodd;}.cls-2{fill:#fff;}.cls-3{fill:#5f2d78;}.cls-4{fill:#f7faff;}.cls-5{fill:#f7bf46;}.cls-6{fill:#7a314f;}.cls-7{fill:#91405a;}.cls-8{fill:#542e8f;}.cls-9{fill:#2e1a47;}.cls-10{fill:#d31d52;}.cls-11{fill:#f7d4b2;}.cls-12{fill:#f7e5ec;}.cls-13{fill:#f1faff;}.cls-14{fill:#e32459;}.cls-15{fill:#c11a4f;}.cls-16,.cls-18{fill:#eb8b23;}.cls-17{fill:#f6cc1b;}.cls-19{fill:#f7c37b;}.cls-20{fill:#e5a8a9;}.cls-21{fill:#f5c0c8;}</style></defs><title>Artwork89_4d2b810f-84f1-4bea-8387-6e64ce03d461</title><path class="cls-1" d="M62.1,191c69.77,22,146,4,184-28s57-70,59-121-34-53-52-20c-30,55-92,93-184,117C32,148.71,24.1,179,62.1,191Z"/><path class="cls-1" d="M90.63,520.56C24.72,493.43-14,401.34,34.41,331.56,69.52,281,123.6,275.86,175.1,274c85-3,115.24-32.9,150-105,30.24-62.73,88.64-150.79,240.47-137,106.62,9.69,187.07,86.27,233.6,184.16C863.93,352.49,801.1,508,724.53,537,661.53,538,138.12,532.2,90.63,520.56Z"/><path class="cls-2" d="M760.64,151H334.29c-3.34,6.15-6.39,12.18-9.19,18H773Q767,159.83,760.64,151Z"/><path class="cls-2" d="M45.32,151c-5.91,5.46-8.74,11.82-8,18h201q4.13-2.91,7.81-6,7-5.86,13.06-12Z"/><path class="cls-2" d="M16.09,372H823.94q1.08-8.9,1.63-18H22A118.83,118.83,0,0,0,16.09,372Z"/><path class="cls-2" d="M175.1,274c-47.28,1.67-96.74,6.14-131.7,46H825.61a279.14,279.14,0,0,0-26.44-103.83q-4.14-8.7-8.64-17.17H309.35C279.88,249.6,247.18,271.5,175.1,274Z"/><path class="cls-3" d="M619.4,356.36l-50.79-20.83a4.34,4.34,0,0,0-5.35,6.29l7.53,12.32H478.87c3.39-30.61-17.23-54.39-48.78-54.39h-.25c-1.32-.09-2.65-.16-4-.16-18.28,0-36.47,8.85-49.63,22.49a53.81,53.81,0,0,0-28.1-5.91c-12.63-11.09-30.32-14.69-48.29-7.9-19.5,7.38-34.53,25.18-41.06,45.87H222.8a4.48,4.48,0,0,0-4-2.52h0a4.46,4.46,0,0,0-4,2.52h-3.52a4.47,4.47,0,0,0-4-2.52h0a4.46,4.46,0,0,0-3.53,1.74l-43.47-17.83a4.34,4.34,0,0,0-5.35,6.29l0,.06-15.49-6.35a4.35,4.35,0,0,0-5.36,6.29l1.82,3-22.59-9.26a4.34,4.34,0,0,0-5.35,6.29l7.53,12.32h-1.86a6.2,6.2,0,0,0-6.18,6.18h0a6.2,6.2,0,0,0,6.18,6.18h1.93L108,378.94a4.34,4.34,0,0,0,5.35,6.29L135.91,376l-1.82,3a4.35,4.35,0,0,0,5.36,6.29l15.49-6.35,0,.06a4.34,4.34,0,0,0,5.35,6.29l43.54-17.85a4.47,4.47,0,0,0,3.46,1.65h0a4.47,4.47,0,0,0,4-2.52h3.52a4.44,4.44,0,0,0,4,2.52h0a4.48,4.48,0,0,0,4-2.52h33.12a71.2,71.2,0,0,0,.36,22.75c4.17,22.93,19.34,38.51,38.2,42.3,17.54,10.9,43.18,10.08,66.35-4.24a87.25,87.25,0,0,0,14.86-11.59,52.24,52.24,0,0,0,26.73,6.91c32.14,0,64.06-24.69,73.83-56.13h94.61l-7.6,12.43a4.34,4.34,0,0,0,5.35,6.29L619.4,364.4a4.34,4.34,0,0,0,0-8Z"/><polygon class="cls-4" points="597.16 368.9 542.76 352.57 565.84 351.78 484.82 313.19 597.22 353.92 571.37 357.15 597.16 368.9"/><polygon class="cls-5" points="201.53 40.84 267.02 158.16 257.06 104.44 387.54 271.91 236.12 33.04 241.85 94.4 201.53 40.84"/><polygon class="cls-4" points="276.63 298.77 161.25 367.63 196.74 326.09 0 405.88 250.57 274.72 214.92 325 276.63 298.77"/><path class="cls-6" d="M344.81,152.78c-.92-3.12-4.42-4.72-7.82-3.57s-5.39,4.62-4.47,7.75c0,.06,7.52,24.14-9.16,40.09-2.57,2.46-2.72,6.27-.34,8.51s6.42,2,9-.43C354.45,183.68,344.84,152.87,344.81,152.78Z"/><path class="cls-7" d="M340,149.75a4.8,4.8,0,0,0-5.59,2.93,3.75,3.75,0,0,0,2.62,5,4.8,4.8,0,0,0,5.58-2.93A3.75,3.75,0,0,0,340,149.75Z"/><path class="cls-8" d="M328.31,201.63s7.85-20.12-5.69-38.08a9.74,9.74,0,0,1-8.27,4.88,7.63,7.63,0,0,1-7.72-8.61,9.74,9.74,0,0,1,4.42-7.07c-6-4.07-13.8-7.71-23.82-10.55C287.23,142.2,276.27,200.68,328.31,201.63Z"/><path class="cls-9" d="M287.23,142.2s-9.7,51.75,32.49,58.67C302,180.56,287.23,142.2,287.23,142.2Z"/><path class="cls-10" d="M431.78,180c-42.6,0-84.91,34.53-94.5,77.12s17.17,77.13,59.77,77.13,84.9-34.53,94.49-77.13S474.37,180,431.78,180Z"/><path class="cls-11" d="M426.43,179.8c-38.4,0-76.54,31.13-85.19,69.53s15.48,69.53,53.88,69.53,76.54-31.13,85.18-69.53S464.83,179.8,426.43,179.8Z"/><path class="cls-12" d="M416.29,205.39c-24.58,0-49,19.91-54.51,44.49s9.9,44.49,34.47,44.49,49-19.92,54.51-44.49S440.86,205.39,416.29,205.39Z"/><path class="cls-9" d="M406.56,262c6.46,2.32,14.85-1.45,18.74-8.43s1.82-14.52-4.64-16.84Z"/><path class="cls-9" d="M399.84,262.48c-7.52,2-14-2.09-14.39-9.16s5.35-14.44,12.87-16.46Z"/><path class="cls-12" d="M483.2,226.12A18.76,18.76,0,0,0,465,242.64a14.63,14.63,0,0,0,14.82,16.52A18.76,18.76,0,0,0,498,242.64,14.63,14.63,0,0,0,483.2,226.12Z"/><path class="cls-10" d="M512.73,207.84a8.39,8.39,0,0,0-8.15,7.38,6.54,6.54,0,0,0,6.62,7.38,8.39,8.39,0,0,0,8.15-7.38A6.54,6.54,0,0,0,512.73,207.84Z"/><path class="cls-10" d="M541.13,189.06a6.06,6.06,0,0,0-5.89,5.34,4.73,4.73,0,0,0,4.79,5.34,6.06,6.06,0,0,0,5.89-5.34A4.73,4.73,0,0,0,541.13,189.06Z"/><path class="cls-13" d="M479.38,249.39a4.05,4.05,0,0,0-3.93,3.56,3.16,3.16,0,0,0,3.2,3.56,4.05,4.05,0,0,0,3.93-3.56A3.16,3.16,0,0,0,479.38,249.39Z"/><path class="cls-10" d="M553.89,280.64a9.77,9.77,0,0,0-9.49,8.6,7.61,7.61,0,0,0,7.71,8.6,9.77,9.77,0,0,0,9.49-8.6A7.61,7.61,0,0,0,553.89,280.64Z"/><path class="cls-10" d="M535.1,303.53a4.89,4.89,0,0,0-4.75,4.3,3.82,3.82,0,0,0,3.86,4.31,4.88,4.88,0,0,0,4.74-4.31A3.81,3.81,0,0,0,535.1,303.53Z"/><path class="cls-10" d="M490,348.15a4.88,4.88,0,0,0-4.75,4.3,3.82,3.82,0,0,0,3.86,4.3,4.89,4.89,0,0,0,4.75-4.3A3.81,3.81,0,0,0,490,348.15Z"/><path class="cls-14" d="M388.08,156.58a14.58,14.58,0,0,0-14.17,12.85,11.36,11.36,0,0,0,11.51,12.84,14.59,14.59,0,0,0,14.18-12.84A11.38,11.38,0,0,0,388.08,156.58Z"/><path class="cls-14" d="M365.79,146.15a7.3,7.3,0,0,0-7.09,6.42,5.7,5.7,0,0,0,5.76,6.43,7.3,7.3,0,0,0,7.09-6.43A5.69,5.69,0,0,0,365.79,146.15Z"/><path class="cls-14" d="M318.89,129.34a7.3,7.3,0,0,0-7.09,6.43,5.69,5.69,0,0,0,5.76,6.42,7.3,7.3,0,0,0,7.09-6.42A5.7,5.7,0,0,0,318.89,129.34Z"/><path class="cls-13" d="M381.68,267.39a8.09,8.09,0,0,0-7.87,7.14,6.32,6.32,0,0,0,6.4,7.14,8.12,8.12,0,0,0,7.88-7.14A6.32,6.32,0,0,0,381.68,267.39Z"/><path class="cls-13" d="M339.89,279.85a4,4,0,0,0-3.93,3.56,3.14,3.14,0,0,0,3.19,3.56,4,4,0,0,0,3.93-3.56A3.15,3.15,0,0,0,339.89,279.85Z"/><path class="cls-15" d="M41.67,256.11l-14.24,23.3a5.45,5.45,0,0,0,6.72,7.89l63.76-26.15a5.46,5.46,0,0,0,0-10.09L34.15,224.91a5.46,5.46,0,0,0-6.72,7.9Z"/><path class="cls-10" d="M74.46,256.11l-14.24,23.3A5.46,5.46,0,0,0,67,287.3l63.75-26.15a5.46,5.46,0,0,0,0-10.09L67,224.91a5.46,5.46,0,0,0-6.73,7.9Z"/><path class="cls-14" d="M100.58,256.11l-14.24,23.3a5.45,5.45,0,0,0,6.72,7.89l63.76-26.15a5.46,5.46,0,0,0,0-10.09L93.06,224.91a5.46,5.46,0,0,0-6.72,7.9Z"/><path class="cls-16" d="M613.18,256.11l-14.24,23.3a5.45,5.45,0,0,0,6.72,7.89l63.76-26.15a5.46,5.46,0,0,0,0-10.09l-63.76-26.15a5.46,5.46,0,0,0-6.72,7.9Z"/><rect class="cls-17" x="26.79" y="248.27" width="524.89" height="15.53" rx="7.77"/><rect class="cls-17" x="492.36" y="248.27" width="142.81" height="15.53" rx="7.77"/><rect class="cls-18" x="146.45" y="245.11" width="11.2" height="21.86" rx="5.6"/><rect class="cls-18" x="160.94" y="245.11" width="11.2" height="21.86" rx="5.6"/><path class="cls-19" d="M571.13,192.89a8.37,8.37,0,0,0-8.14,7.37,6.53,6.53,0,0,0,6.61,7.37,8.37,8.37,0,0,0,8.13-7.37A6.53,6.53,0,0,0,571.13,192.89Z"/><path class="cls-10" d="M328.86,200.61c25.46-1.22,48.09,9.89,58.77,31.83,16.79,34.51-2.37,82.73-42.79,107.69-29.09,18-61.26,19-83.28,5.32-23.68-4.76-42.72-24.31-48-53.09C206,250.51,230.45,205,268.24,190.7,290.8,182.16,313,186.69,328.86,200.61Z"/><path class="cls-14" d="M276.38,223.75c19.76-16.85,49.36-23.27,66.11-14.34s14.31,29.85-5.44,46.7-49.36,23.27-66.11,14.33S256.62,240.6,276.38,223.75Z"/><path class="cls-4" d="M326,221.49c7.95-6.78,19.85-9.36,26.59-5.77s5.76,12-2.19,18.78-19.85,9.36-26.59,5.76S318.06,228.26,326,221.49Z"/><path class="cls-4" d="M292.73,245c4-3.39,9.93-4.68,13.3-2.89s2.87,6-1.1,9.39-9.92,4.68-13.29,2.88S288.76,248.4,292.73,245Z"/><path class="cls-9" d="M436.82,162.44s16.89,5,26-19.11C462.84,143.33,439.38,141.34,436.82,162.44Z"/><path class="cls-9" d="M366.7,187.56a9.79,9.79,0,0,0-9.51,8.61,7.63,7.63,0,0,0,7.73,8.62,9.78,9.78,0,0,0,9.5-8.62A7.62,7.62,0,0,0,366.7,187.56Z"/><path class="cls-9" d="M422.71,190.72a4.67,4.67,0,0,0-4.55,4.12,3.64,3.64,0,0,0,3.69,4.12,4.67,4.67,0,0,0,4.55-4.12A3.64,3.64,0,0,0,422.71,190.72Z"/><polygon class="cls-5" points="268.88 179.63 197.84 110.77 206.58 152.31 61.21 72.52 227.35 203.67 224.07 153.4 268.88 179.63"/><polygon class="cls-10" points="67.93 160.28 125.62 194.71 107.88 173.94 206.24 213.84 80.96 148.26 98.78 173.4 67.93 160.28"/><path class="cls-9" d="M483.79,160.64a9.77,9.77,0,0,0-9.49,8.6,7.62,7.62,0,0,0,7.72,8.61,9.77,9.77,0,0,0,9.49-8.61A7.62,7.62,0,0,0,483.79,160.64Z"/><path class="cls-13" d="M634.1,252.85a9.42,9.42,0,0,0-9.15,8.3,7.34,7.34,0,0,0,7.44,8.29,9.43,9.43,0,0,0,9.15-8.29A7.35,7.35,0,0,0,634.1,252.85Z"/><path class="cls-13" d="M616.74,258.71a4,4,0,0,0-3.92,3.56,3.15,3.15,0,0,0,3.19,3.56,4,4,0,0,0,3.92-3.56A3.14,3.14,0,0,0,616.74,258.71Z"/><polygon class="cls-15" points="333.01 317.74 283.37 295.43 300.45 320.7 250.12 315.92 316.61 333.91 306.82 312.74 333.01 317.74"/><path class="cls-19" d="M602.08,188.16a4.19,4.19,0,0,0-4.07,3.68,3.27,3.27,0,0,0,3.31,3.69,4.18,4.18,0,0,0,4.06-3.69A3.25,3.25,0,0,0,602.08,188.16Z"/><path class="cls-14" d="M209.63,115.74a9.54,9.54,0,0,0-9.27,8.4,7.44,7.44,0,0,0,7.54,8.4,9.54,9.54,0,0,0,9.27-8.4A7.44,7.44,0,0,0,209.63,115.74Z"/><path class="cls-14" d="M179.82,105.32a5.7,5.7,0,0,0-5.55,5,4.45,4.45,0,0,0,4.51,5,5.71,5.71,0,0,0,5.55-5A4.45,4.45,0,0,0,179.82,105.32Z"/><path class="cls-8" d="M485.5,430c0,.39,0,.78,0,1.18v22.42a54.15,54.15,0,0,0,54,54H235.66a54.15,54.15,0,0,0,54-54V431.16c0-.4,0-.79,0-1.18Z"/><path class="cls-9" d="M485.5,430c0,.39,0,.78,0,1.18v22.42a54.15,54.15,0,0,0,54,54h-59a54.15,54.15,0,0,1-54-54V431.16c0-.4,0-.79,0-1.18Z"/><path class="cls-20" d="M326.94,406H448.23A24,24,0,0,1,472.17,430H303A24,24,0,0,1,326.94,406Z"/><path class="cls-21" d="M326.94,406h70.39A24,24,0,0,1,421.27,430H303A24,24,0,0,1,326.94,406Z"/><path class="cls-9" d="M320,441.4h0a6.47,6.47,0,0,1,6.45,6.45V450a6.47,6.47,0,0,1-6.45,6.45h0A6.47,6.47,0,0,1,313.5,450v-2.11A6.47,6.47,0,0,1,320,441.4Z"/><path class="cls-9" d="M344.83,441.4h0a6.48,6.48,0,0,1,6.45,6.45v3.95a6.47,6.47,0,0,1-6.45,6.45h0a6.47,6.47,0,0,1-6.45-6.45v-3.95A6.47,6.47,0,0,1,344.83,441.4Z"/><path class="cls-9" d="M399.65,439.56h0A6.47,6.47,0,0,1,406.1,446v11.52a6.47,6.47,0,0,1-6.45,6.45h0a6.47,6.47,0,0,1-6.45-6.45V446A6.47,6.47,0,0,1,399.65,439.56Z"/><path class="cls-9" d="M289.68,447.78H303V425a6.67,6.67,0,0,0-6.66-6.66h0a6.67,6.67,0,0,0-6.66,6.66Z"/><path class="cls-9" d="M472.19,447.78h13.33V425a6.67,6.67,0,0,0-6.66-6.66h0a6.68,6.68,0,0,0-6.67,6.66Z"/></svg>