<?xml version="1.0" encoding="utf-8"?>
<!-- Generator: Adobe Illustrator 24.0.3, SVG Export Plug-In . SVG Version: 6.00 Build 0)  -->
<svg version="1.1" id="Layer_1" xmlns="http://www.w3.org/2000/svg" xmlns:xlink="http://www.w3.org/1999/xlink" x="0px" y="0px"
	 viewBox="0 0 800 600" style="enable-background:new 0 0 800 600;" xml:space="preserve">
<style type="text/css">
	.st0{fill-rule:evenodd;clip-rule:evenodd;fill:#563A82;}
	.st1{fill-rule:evenodd;clip-rule:evenodd;fill:#6c5ba7;}
	.st2{fill-rule:evenodd;clip-rule:evenodd;fill:#44245B;}
	.st3{fill-rule:evenodd;clip-rule:evenodd;fill:#FFFFFF;}
	.st4{fill-rule:evenodd;clip-rule:evenodd;fill:#F6CC1B;}
	.st5{fill-rule:evenodd;clip-rule:evenodd;fill:#CFFFFF;}
	.st6{fill-rule:evenodd;clip-rule:evenodd;fill:#013240;}
	.st7{fill-rule:evenodd;clip-rule:evenodd;fill:#EB8B23;}
	.st8{fill-rule:evenodd;clip-rule:evenodd;fill:#5B595D;}
	.st9{fill-rule:evenodd;clip-rule:evenodd;fill:#073E49;}
	.st10{fill-rule:evenodd;clip-rule:evenodd;fill:#140A23;}
	.st11{fill-rule:evenodd;clip-rule:evenodd;fill:#E54355;}
	.st12{fill-rule:evenodd;clip-rule:evenodd;fill:#716564;}
	.st13{fill-rule:evenodd;clip-rule:evenodd;fill:#7C6D6D;}
	.st14{fill-rule:evenodd;clip-rule:evenodd;fill:#104D56;}
	.st15{fill-rule:evenodd;clip-rule:evenodd;fill:#9FA69C;}
	.st16{fill-rule:evenodd;clip-rule:evenodd;fill:#FFEEA4;}
	.st17{fill-rule:evenodd;clip-rule:evenodd;fill:#5F2D78;}
	.st18{fill-rule:evenodd;clip-rule:evenodd;fill:#256772;}
	.st19{fill-rule:evenodd;clip-rule:evenodd;fill:#1B5965;}
</style>
<rect x="0" class="st0" width="800" height="600"/>
<path class="st1" d="M400,82.9c139.7,0,252.9,113.2,252.9,252.9c0,63-23.1,120.7-61.2,164.9H208.3c-38.1-44.3-61.2-101.9-61.2-164.9
	C147.1,196.1,260.3,82.9,400,82.9z"/>
<path class="st0" d="M369.1,166.4c103.1,0,186.6,83.6,186.6,186.6c0,59.7-28,112.9-71.7,147.1H254.2
	c-43.6-34.2-71.7-87.3-71.7-147.1C182.5,250,266.1,166.4,369.1,166.4z"/>
<path class="st2" d="M534.1,159.1l71.7,124.2c2,3.4,0.8,7.8-2.6,9.8h0c-3.4,2-7.8,0.8-9.8-2.6l-71.7-124.2c-2-3.4-0.8-7.8,2.6-9.8
	l0,0C527.7,154.5,532.1,155.7,534.1,159.1z"/>
<path class="st3" d="M455,216.2h-20.8c-9.4,0-17.1,7.7-17.1,17.1l0,0c0,5.8,2.9,10.9,7.3,14c-0.2,1-0.3,2.1-0.3,3.1v0
	c0,4.9,2,9.3,5.2,12.6c-8.5,3.4-14.5,11.7-14.5,21.4l0,0c0,12.7,10.4,23,23,23H489c1,0,2-0.1,2.9-0.2c1,0.1,1.9,0.2,2.9,0.2H546
	c12.7,0,23-10.4,23-23l0,0c0-12.7-10.4-23-23-23h-51.2c-1,0-2,0.1-2.9,0.2c-1-0.1-1.9-0.2-2.9-0.2h-13.6c2.4-3,3.8-6.8,3.8-10.9v0
	c0-5.9-2.9-11.1-7.2-14.3c0.2-0.9,0.2-1.9,0.2-2.8l0,0C472.1,223.9,464.4,216.2,455,216.2z"/>
<polygon class="st3" points="524.6,492 596,225.2 607.4,225.2 536,492 "/>
<path class="st4" d="M359.6,247c78.2,0,141.6,63.4,141.6,141.6c0,45.3-21.3,85.6-54.4,111.5H272.4c-33.1-25.9-54.4-66.2-54.4-111.5
	C218,310.4,281.4,247,359.6,247z"/>
<path class="st5" d="M296.4,455.5c-21,14.8-49.6,17.1-73.3,3.4c-23.8-13.7-36.2-39.5-33.9-65.1L296.4,455.5z"/>
<path class="st5" d="M294.6,459.5c-25.7,1-50.9-12.6-63.4-37c-12.5-24.4-8.9-52.8,7-73.1L294.6,459.5z"/>
<path class="st5" d="M592.3,324.2c-21.5-20.2-53.5-27.3-82.7-15.6c-29.2,11.7-47.4,39-48.9,68.5L592.3,324.2z"/>
<path class="st5" d="M380,473.1c149.9,2.2,271.4,12.5,271.4,22.9c0,1.4-2.1,2.6-6,3.9l-368.5-5.5V473
	C308.7,472.5,343.5,472.5,380,473.1z"/>
<path class="st3" d="M312.1,224.6L312.1,224.6c22.6,0,41.1,18.5,41.1,41.1v43.7c0,22.6-18.5,41.1-41.1,41.1h0
	c-22.6,0-41.1-18.5-41.1-41.1v-43.7C271,243.1,289.5,224.6,312.1,224.6z"/>
<path class="st3" d="M339.1,213.3L339.1,213.3c29.5,0,53.6,24.1,53.6,53.6v56.9c0,29.5-24.1,53.6-53.6,53.6h0
	c-29.5,0-53.6-24.1-53.6-53.6v-56.9C285.5,237.4,309.6,213.3,339.1,213.3z"/>
<path class="st5" d="M447.9,418.3l81.2,68.5c2.2,1.9,2.5,5.3,0.6,7.5v0c-1.9,2.2-5.3,2.5-7.5,0.6l-81.3-68.5
	c-2.2-1.9-2.5-5.3-0.6-7.5l0,0C442.3,416.7,445.7,416.4,447.9,418.3z"/>
<path class="st3" d="M408.7,139.4L393.5,209l-11.6,52.9l-7.9,35.8l8,1.8c-0.2-6.2,0.3-12.4,1.7-18.7c3-13.8,9.8-25.9,18.9-35.3l0,0
	l0,0c1.6-1.7,3.3-3.3,5.1-4.8c9.2-9.5,15.9-21.5,18.9-35.4C432,180.8,424.5,156.5,408.7,139.4z"/>
<path class="st2" d="M517.8,495.8c21.1-11.5,34.7-34.5,33-60c-1.7-25.5-18.2-46.5-40.6-55.1L517.8,495.8z"/>
<path class="st2" d="M524.6,505.1c12.6-20.4,13-47.2-1.2-68.5c-14.1-21.3-38.9-31.3-62.6-27.7L524.6,505.1z"/>
<path class="st5" d="M474,426.4l14.4,10.3l-9.5-16.4c-1.6-2.7-0.6-6.3,2.1-7.9h0c2.7-1.6,6.3-0.6,7.9,2.1l57.6,99.7
	c1.6,2.7,0.6,6.3-2.1,7.9h0c-2.7,1.6-6.3,0.6-7.9-2.1L493,444.7l-21.2-15.2c-0.8-0.6-1-1.8-0.4-2.6l0,0
	C472,426,473.1,425.8,474,426.4z"/>
<path class="st5" d="M552.7,427.6c-2.3-17.1-14.2-32.3-31.8-37.7c-17.6-5.5-36,0.2-47.6,13L552.7,427.6z"/>
<g>
	<path class="st6" d="M271.3,302.6L271.3,302.6c-5.1,0.5-9.7-3.3-10.1-8.4l-4.7-48.8c-0.5-5.1,3.3-9.7,8.4-10.1l0,0
		c5.1-0.5,9.7,3.3,10.1,8.4l4.7,48.8C280.1,297.5,276.3,302.1,271.3,302.6z"/>
	<path class="st6" d="M253.6,249.5l9.2-0.9c4.1-0.4,7-4.6,6.5-9.3l-4.1-42.6c-0.5-4.7-4.1-8.3-8.2-7.9l-23.2,2.2
		c-2.5,0.2-4.5,1.8-5.7,4.3c-1.2,2.5-1.2,5.4,0,8l18.1,41.2C247.7,247.9,250.5,249.8,253.6,249.5z"/>
	<path class="st6" d="M256.2,243.5c-3.7,0.4-6.9,2.2-9,4.8c-2.2,2.7-3.4,6.1-3,9.8l0.6,6.1c0.4,3.7,2.2,6.9,4.8,9
		c2.6,2.2,6.1,3.4,9.8,3c3.7-0.4,6.8-2.2,9-4.8c2.2-2.6,3.4-6.1,3-9.8l-0.6-6.1c-0.4-3.7-2.2-6.8-4.8-9l0,0
		C263.4,244.3,259.9,243.1,256.2,243.5L256.2,243.5z M252.2,252.4c1.1-1.4,2.8-2.3,4.7-2.5c1.9-0.2,3.7,0.4,5.1,1.5l0,0
		c1.4,1.1,2.3,2.8,2.5,4.7l0.6,6.1c0.2,1.9-0.4,3.7-1.6,5.1c-1.1,1.4-2.8,2.3-4.7,2.5c-1.9,0.2-3.7-0.4-5.1-1.6
		c-1.4-1.1-2.3-2.8-2.5-4.7l-0.6-6.1C250.4,255.6,251.1,253.8,252.2,252.4z"/>
	<path class="st7" d="M275.5,347L275.5,347c-7.2,0.7-13.7-4.6-14.4-11.8l-5.8-60c-0.7-7.2,4.6-13.7,11.8-14.4l0,0
		c7.2-0.7,13.7,4.6,14.4,11.8l5.8,60C288.1,339.8,282.7,346.3,275.5,347z"/>
	<path class="st6" d="M279.9,392.4L279.9,392.4c-5.1,0.5-9.7-3.3-10.1-8.4l-4.7-48.8c-0.5-5.1,3.3-9.7,8.4-10.1l0,0
		c5.1-0.5,9.7,3.3,10.1,8.4l4.7,48.8C288.8,387.4,285,391.9,279.9,392.4z"/>
</g>
<path class="st8" d="M512.4,286.8L512.4,286.8c0,12.7-10.4,23-23,23h-51.2c-12.7,0-23-10.4-23-23l0,0c0-12.7,10.4-23,23-23h51.2
	C502,263.8,512.4,274.1,512.4,286.8z"/>
<path class="st6" d="M365.2,281.1L365.2,281.1c3.3-12.2,16-19.6,28.2-16.3l49.5,13.3c12.2,3.3,19.6,16,16.3,28.2l0,0
	c-3.3,12.2-16,19.6-28.2,16.3l-49.5-13.3C369.3,306,362,293.3,365.2,281.1z"/>
<path class="st6" d="M313.2,230L313.2,230c22.6,0,41.1,18.5,41.1,41.1v43.7c0,22.6-18.5,41.1-41.1,41.1h0
	c-22.6,0-41.1-18.5-41.1-41.1v-43.7C272.1,248.5,290.6,230,313.2,230z"/>
<path class="st9" d="M340.2,218.7L340.2,218.7c29.5,0,53.6,24.1,53.6,53.6v56.9c0,29.5-24.1,53.6-53.6,53.6h0
	c-29.5,0-53.6-24.1-53.6-53.6v-56.9C286.6,242.8,310.7,218.7,340.2,218.7z"/>
<path class="st6" d="M378.5,234.9c1.2,1.2,2.2,2.4,3.3,3.7c-8.3-6.3-18.6-10.1-29.7-10.1h0c-27.1,0-49.2,22.1-49.2,49.2v52.3
	c0,12,4.3,23,11.5,31.6c-9.6-9-15.6-21.8-15.6-35.9v-52.3c0-27.1,22.1-49.2,49.2-49.2h0C359.5,224.2,370.1,228.2,378.5,234.9z"/>
<path class="st6" d="M358.1,248.6L358.1,248.6c22.9,0,41.6,18.7,41.6,41.6v44.2c0,22.9-18.7,41.6-41.6,41.6h0
	c-22.9,0-41.6-18.7-41.6-41.6v-44.2C316.5,267.3,335.2,248.6,358.1,248.6z"/>
<path class="st10" d="M395.8,373.7L395.8,373.7c-10.1,7.2-12.5,21.3-5.4,31.4l15.4,21.7c7.2,10.1,21.3,12.5,31.4,5.4l0,0
	c10.1-7.2,12.5-21.3,5.4-31.4l-15.4-21.7C420.1,369,405.9,366.6,395.8,373.7z"/>
<path class="st10" d="M381.6,353.6L381.6,353.6c-10.1,7.2-12.5,21.3-5.4,31.4l15.4,21.7c7.2,10.1,21.3,12.5,31.4,5.4l0,0
	c10.1-7.2,12.5-21.3,5.4-31.4L413,359C405.9,348.9,391.7,346.5,381.6,353.6z"/>
<path class="st10" d="M425.6,405L425.6,405c-17.7,3.3-29.5,20.4-26.2,38l7,37.8c3.3,17.7,20.4,29.5,38,26.2l0,0
	c17.7-3.3,29.5-20.4,26.2-38l-7-37.8C460.4,413.6,443.3,401.8,425.6,405z"/>
<path class="st10" d="M333.8,371.7L333.8,371.7c10.5,7.4,13,22.1,5.6,32.6l-15.9,22.5c-7.4,10.5-22.1,13-32.6,5.6l0,0
	c-10.5-7.4-13-22.1-5.6-32.6l15.9-22.5C308.7,366.8,323.3,364.3,333.8,371.7z"/>
<path class="st10" d="M352.9,353.6L352.9,353.6c10.1,7.2,12.5,21.3,5.4,31.4l-15.4,21.7c-7.2,10.1-21.3,12.5-31.4,5.4l0,0
	c-10.1-7.2-12.5-21.3-5.4-31.4l15.4-21.7C328.6,348.9,342.8,346.5,352.9,353.6z"/>
<path class="st10" d="M398.3,299.2L398.3,299.2c14.6,8.4,19.6,27.2,11.2,41.8l-18,31.2c-8.4,14.6-27.2,19.6-41.8,11.2l0,0
	c-14.6-8.4-19.6-27.2-11.2-41.8l18-31.2C364.9,295.8,383.7,290.7,398.3,299.2z"/>
<path class="st11" d="M418.9,324.6L418.9,324.6c0,16.8-13.8,30.6-30.6,30.6h-36.1c-16.8,0-30.6-13.8-30.6-30.6v0
	c0-16.8,13.8-30.6,30.6-30.6h36.1C405.1,294,418.9,307.8,418.9,324.6z"/>
<path class="st11" d="M446,296L446,296c0,16.8-13.8,30.6-30.6,30.6h-36.1c-16.8,0-30.6-13.8-30.6-30.6v0c0-16.8,13.8-30.6,30.6-30.6
	h36.1C432.2,265.4,446,279.2,446,296z"/>
<path class="st12" d="M445.8,251.1L445.8,251.1c8.2,8.2,8.2,21.7,0,29.9l-17.6,17.6c-8.2,8.2-21.7,8.2-29.9,0l0,0
	c-8.2-8.2-8.2-21.7,0-29.9l17.6-17.6C424.1,242.9,437.6,242.9,445.8,251.1z"/>
<path class="st10" d="M461.7,235h-19.4c-9.8,0-17.8,8-17.8,17.8v0c0,9.8,8,17.8,17.8,17.8h19.4c9.8,0,17.8-8,17.8-17.8v0
	C479.5,243,471.5,235,461.7,235z"/>
<path class="st2" d="M398.1,510c149.5,0,271.4-6.6,271.4-14.6c0-8-121.9-14.6-271.4-14.6c-149.5,0-271.4,6.6-271.4,14.6
	C126.8,503.4,248.7,510,398.1,510z"/>
<path class="st13" d="M441.5,229.3L441.5,229.3c-15.4,0-28,12.6-28,28v14.6c0,15.4,12.6,28,28,28h0c15.4,0,28-12.6,28-28v-14.6
	C469.5,241.9,456.9,229.3,441.5,229.3z"/>
<path class="st8" d="M433.1,230.6c-11.4,3.6-19.6,14.2-19.6,26.7v14.6c0,12.5,8.3,23.1,19.6,26.7c11.4-3.6,19.6-14.2,19.6-26.7
	v-14.6C452.7,244.8,444.4,234.1,433.1,230.6z"/>
<path class="st10" d="M412.3,274.4c0.6,15.6,13.5,28,29.2,28c15.6,0,28.5-12.4,29.2-28c0-0.3-0.1-0.6-0.3-0.9
	c-0.2-0.2-0.5-0.4-0.8-0.4h-56c-0.3,0-0.6,0.1-0.8,0.4C412.4,273.8,412.3,274.1,412.3,274.4z"/>
<path class="st10" d="M455.4,218.6h-20.8c-9.4,0-17.1,7.7-17.1,17.1l0,0c0,9.4,7.7,17.1,17.1,17.1h20.8c9.4,0,17.1-7.7,17.1-17.1
	l0,0C472.5,226.3,464.8,218.6,455.4,218.6z"/>
<path class="st10" d="M416.2,229.7L416.2,229.7c-8.7,0-15.8,7.1-15.8,15.8v0.6c0,8.7,7.1,15.8,15.8,15.8h0c8.7,0,15.8-7.1,15.8-15.8
	v-0.6C432,236.8,424.9,229.7,416.2,229.7z"/>
<path class="st10" d="M407.4,248L407.4,248c-8.7,0-15.8,7.1-15.8,15.8v0.6c0,8.7,7.1,15.8,15.8,15.8l0,0c8.7,0,15.8-7.1,15.8-15.8
	v-0.6C423.2,255.1,416.1,248,407.4,248z"/>
<path class="st8" d="M417.6,258.5L417.6,258.5c-5.2,0-9.5,4.3-9.5,9.5v0.4c0,5.2,4.3,9.5,9.5,9.5l0,0c5.2,0,9.5-4.3,9.5-9.5V268
	C427,262.8,422.8,258.5,417.6,258.5z"/>
<path class="st10" d="M465.1,253.9h-2.4c-4.7,0-8.6,3.9-8.6,8.6v0c0,4.7,3.9,8.6,8.6,8.6h2.4c4.7,0,8.6-3.9,8.6-8.6v0
	C473.7,257.8,469.8,253.9,465.1,253.9L465.1,253.9z M442.1,253.9h-2.4c-4.7,0-8.6,3.9-8.6,8.6v0c0,4.7,3.9,8.6,8.6,8.6h2.4
	c4.7,0,8.6-3.9,8.6-8.6v0C450.7,257.8,446.8,253.9,442.1,253.9z"/>
<path class="st12" d="M569.4,286.8L569.4,286.8c0,12.7-10.4,23-23,23h-51.2c-12.7,0-23-10.4-23-23l0,0c0-12.7,10.4-23,23-23h51.2
	C559.1,263.8,569.4,274.1,569.4,286.8z"/>
<path class="st10" d="M307.2,408.5L307.2,408.5c16.8,8,24,28.3,16.1,45.1l-17.1,36c-8,16.8-28.3,24-45.1,16.1l0,0
	c-16.8-8-24-28.3-16.1-45.1l17.1-36C270.1,407.7,290.4,400.5,307.2,408.5z"/>
<path class="st9" d="M316.1,374.2L316.1,374.2c-6.2-4.2-14.7-2.6-18.9,3.6l-9,13.2c-4.2,6.2-2.6,14.7,3.6,18.9l0,0
	c6.2,4.2,14.7,2.6,18.9-3.6l9-13.2C323.9,386.9,322.3,378.4,316.1,374.2z"/>
<path class="st6" d="M346.2,271.7L346.2,271.7c11-6.3,25.1-2.5,31.4,8.4l25.6,44.4c6.3,11,2.5,25.1-8.4,31.4l0,0
	c-11,6.3-25.1,2.5-31.4-8.4l-25.6-44.4C331.5,292.2,335.2,278.1,346.2,271.7z"/>
<path class="st6" d="M295.2,265.6L295.2,265.6c10.3,0,18.7,8.4,18.7,18.7v19.9c0,10.3-8.4,18.7-18.7,18.7l0,0
	c-10.3,0-18.7-8.4-18.7-18.7v-19.9C276.5,274,284.9,265.6,295.2,265.6z"/>
<path class="st9" d="M288.3,273.7L288.3,273.7c7.4,0,13.4,6,13.4,13.4v14.2c0,7.4-6,13.4-13.4,13.4h0c-7.4,0-13.4-6-13.4-13.4v-14.2
	C274.9,279.7,280.9,273.7,288.3,273.7z"/>
<path class="st8" d="M378.2,294.7L378.2,294.7c6.3,11,2.5,25.1-8.4,31.4l-44.4,25.6c-11,6.3-25.1,2.5-31.4-8.4l0,0
	c-6.3-11-2.5-25.1,8.4-31.4l44.4-25.6C357.7,279.9,371.9,283.7,378.2,294.7z"/>
<path class="st12" d="M390.3,337.3L390.3,337.3c0,12.7-10.4,23-23,23H316c-12.7,0-23-10.4-23-23l0,0c0-12.7,10.4-23,23-23h51.2
	C380,314.3,390.3,324.6,390.3,337.3z"/>
<path class="st14" d="M311.9,243.5L311.9,243.5c1.7,0,3,1.4,3,3v7.4c0,1.7-1.3,3-3,3h0c-1.6,0-3-1.3-3-3v-7.4
	C308.9,244.8,310.3,243.5,311.9,243.5z"/>
<path class="st14" d="M321.1,232.9L321.1,232.9c1.7,0,3,1.4,3,3v7.4c0,1.7-1.4,3-3,3h0c-1.6,0-3-1.3-3-3v-7.4
	C318.1,234.2,319.4,232.9,321.1,232.9z"/>
<path class="st6" d="M279.2,288.6h13.1c1.5,0,2.8,1.3,2.8,2.8v0c0,1.5-1.3,2.8-2.8,2.8h-13.1c-1.5,0-2.8-1.3-2.8-2.8v0
	C276.5,289.9,277.7,288.6,279.2,288.6z"/>
<path class="st14" d="M290.7,289.7L290.7,289.7c1.7,0,3,1.4,3,3v7.4c0,1.7-1.4,3-3,3h0c-1.6,0-3-1.4-3-3v-7.4
	C287.7,291,289.1,289.7,290.7,289.7z"/>
<path class="st6" d="M300,381.2h13.1c1.5,0,2.8,1.3,2.8,2.8v0c0,1.5-1.3,2.8-2.8,2.8H300c-1.5,0-2.8-1.3-2.8-2.8v0
	C297.2,382.5,298.5,381.2,300,381.2z"/>
<path class="st14" d="M311.5,382.3L311.5,382.3c1.7,0,3,1.4,3,3v7.4c0,1.7-1.4,3-3,3h0c-1.6,0-3-1.4-3-3v-7.4
	C308.5,383.7,309.8,382.3,311.5,382.3z"/>
<path class="st15" d="M344.6,335.9L344.6,335.9c0,2.9-2.4,5.3-5.3,5.3h-0.6c-2.9,0-5.3-2.4-5.3-5.3v0c0-2.9,2.4-5.3,5.3-5.3h0.6
	C342.2,330.6,344.6,333,344.6,335.9z"/>
<path class="st6" d="M385,334.5L385,334.5c0,14.7-12,26.8-26.8,26.8h-3c-14.7,0-26.8-12-26.8-26.8v0c0-14.7,12-26.8,26.8-26.8h3
	C373,307.7,385,319.7,385,334.5z"/>
<path class="st16" d="M346.2,335.9L346.2,335.9c0,6.4-5.2,11.6-11.6,11.6h-1.3c-6.4,0-11.6-5.2-11.6-11.6l0,0
	c0-6.4,5.2-11.6,11.6-11.6h1.3C341,324.4,346.2,329.6,346.2,335.9z"/>
<path class="st17" d="M341.5,335.9L341.5,335.9c0,4-3.2,7.2-7.2,7.2h-0.8c-3.9,0-7.2-3.2-7.2-7.2v0c0-3.9,3.2-7.2,7.2-7.2h0.8
	C338.3,328.8,341.5,332,341.5,335.9z"/>
<path class="st18" d="M410.5,252.3L410.5,252.3c1.6-1.7,3.3-3.3,5.1-4.8c9.2-9.5,15.9-21.5,18.9-35.4c6-27.4-4-54.5-23.8-71.6
	l-16.2,73.8L383,267.2l-7.9,35.9l14.9,3.3c-0.2-6.2,0.3-12.4,1.7-18.7C394.7,273.9,401.4,261.8,410.5,252.3L410.5,252.3z"/>
<path class="st19" d="M409.8,144.7l-15.3,69.6L383,267.2l-7.9,35.8l8,1.8c-0.2-6.2,0.3-12.4,1.7-18.7c3-13.8,9.8-25.9,18.9-35.3l0,0
	l0,0c1.6-1.7,3.3-3.3,5.1-4.8c9.2-9.5,15.9-21.5,18.9-35.4C433.1,186.1,425.6,161.8,409.8,144.7z"/>
<path class="st9" d="M361.4,298.6c2.8,5.5,7.8,9.6,13.4,12l-1.1,29.8l-0.6,17.4c-0.3,0.3-0.7,0.6-1,0.9c-0.4,0.4-0.5,1-0.2,1.5
	c0.2,0.6,0.7,1,1.3,1.1l28.4,6.2c0.6,0.1,1.1-0.1,1.3-0.6c0.3-0.5,0.2-1.1-0.1-1.6c-2.6-4.1-6.5-7.1-10.7-8.9
	c-3.6-10.2-5.5-20.9-5.1-31.7c0.1-4.1,0.6-8,1.3-11.7c5.4-0.2,10.8-1.9,15-5.3c0.6-0.5,0.9-1.3,0.7-2c-0.2-0.8-0.8-1.3-1.5-1.5
	l-38.9-8.5c-0.8-0.2-1.5,0.1-2,0.7C361.1,297.1,361,297.9,361.4,298.6z"/>
<path class="st8" d="M398.3,333.5L398.3,333.5c0,14.7-12,26.8-26.8,26.8h-3c-14.7,0-26.8-12-26.8-26.8v0c0-14.7,12-26.8,26.8-26.8h3
	C386.2,306.8,398.3,318.8,398.3,333.5z"/>
<path class="st2" d="M293.1,460.9c-12,22.8-36.4,37.8-63.8,36.4c-27.4-1.4-50.2-18.7-59.8-42.6L293.1,460.9z"/>
<path class="st2" d="M293.1,460.9c-21.8,13.7-50.4,14.5-73.4-0.4c-23-14.9-34.1-41.3-30.5-66.8L293.1,460.9z"/>
<path class="st2" d="M293.1,460.9c-25.7,1-50.9-12.6-63.4-37c-12.5-24.4-8.9-52.8,7-73.1L293.1,460.9z"/>
<path class="st2" d="M647.2,194.3l-97.4,363.4c-2.7,10-13,16-23,13.3h0c-10-2.7-16-13-13.3-23l97.4-363.4c2.7-10,13-16,23-13.3h0
	C643.9,174,649.9,184.3,647.2,194.3z"/>
<path class="st2" d="M537.7,366.1l99.4,172.2c2.7,4.7,1.1,10.8-3.6,13.6l0,0c-4.7,2.7-10.8,1.1-13.6-3.6L520.5,376
	c-2.7-4.7-1.1-10.8,3.6-13.6l0,0C528.9,359.7,535,361.3,537.7,366.1z"/>
<path class="st2" d="M617.1,186.3c-19.9-9.7-44.5-7.6-62.8,7.3c-18.3,14.9-25.3,38.6-19.8,60L617.1,186.3z"/>
<path class="st2" d="M595.5,328.2c-21.5-20.2-53.5-27.3-82.7-15.6c-29.2,11.7-47.4,39-48.9,68.5L595.5,328.2z"/>
<path class="st11" d="M590.8,321.5c-3.4-18.7-17.3-34.7-36.9-39.8c-19.6-5.1-39.6,2.1-51.7,16.8L590.8,321.5z"/>
<path class="st2" d="M383.8,505.4c-15.5,0.6-30.8-7.6-38.3-22.4c-7.6-14.7-5.4-31.9,4.2-44.2L383.8,505.4z"/>
<path class="st2" d="M209.4,260.5L178,456.8c-0.9,5.4-6,9.1-11.4,8.2l0,0c-5.4-0.9-9.1-6-8.2-11.4l31.4-196.3
	c0.9-5.4,6-9.1,11.4-8.2l0,0C206.6,250,210.3,255.1,209.4,260.5z"/>
<path class="st2" d="M183.2,298.1l-54.9,95c-1.5,2.6-4.9,3.5-7.5,2l0,0c-2.6-1.5-3.5-4.9-2-7.5l54.9-95c1.5-2.6,4.9-3.5,7.5-2l0,0
	C183.8,292.1,184.7,295.5,183.2,298.1z"/>
<path class="st2" d="M488.7,189.7L683,239.4c5.3,1.4,8.6,6.9,7.2,12.2v0c-1.4,5.3-6.9,8.6-12.2,7.2l-194.4-49.7
	c-5.3-1.4-8.6-6.9-7.2-12.2v0C477.8,191.6,483.3,188.4,488.7,189.7z"/>
<path class="st2" d="M544.7,211l95.9-32.5c2.6-0.9,5.5,0.5,6.4,3.2l0,0c0.9,2.6-0.5,5.5-3.2,6.4L548,220.6c-2.6,0.9-5.5-0.5-6.4-3.2
	v0C540.7,214.8,542.1,211.9,544.7,211z"/>
<path class="st13" d="M579.5,282.1L579.5,282.1c0,14.7-12,26.8-26.8,26.8h-3c-14.7,0-26.8-12-26.8-26.8v0c0-14.7,12-26.8,26.8-26.8
	h3C567.5,255.4,579.5,267.4,579.5,282.1z"/>
<path class="st2" d="M569.6,422.9l81.2,68.5c2.2,1.9,2.5,5.3,0.6,7.5v0c-1.9,2.2-5.3,2.5-7.5,0.6l-81.3-68.5
	c-2.2-1.9-2.5-5.3-0.6-7.5l0,0C564,421.3,567.4,421.1,569.6,422.9z"/>
<path class="st2" d="M445.8,419.2l81.2,68.5c2.2,1.9,2.5,5.3,0.6,7.5v0c-1.9,2.2-5.3,2.5-7.5,0.6L439,427.3
	c-2.2-1.9-2.5-5.3-0.6-7.5l0,0C440.2,417.6,443.6,417.3,445.8,419.2z"/>
<path class="st2" d="M444.8,485.2l100-36.1c2.7-1,5.8,0.4,6.8,3.2v0c1,2.7-0.4,5.8-3.2,6.8l-100,36.1c-2.7,1-5.8-0.4-6.8-3.2v0
	C440.6,489.3,442,486.2,444.8,485.2z"/>
<path class="st2" d="M551,432.7c-1.2-17.2-12.1-33.1-29.3-39.7c-17.2-6.6-35.9-2.1-48.3,9.9L551,432.7z"/>
<path class="st2" d="M550.3,433.8c-7.2-7.7-18.4-11-29.1-7.5c-10.7,3.5-17.8,12.8-19.1,23.3L550.3,433.8z"/>
<path class="st17" d="M151.2,162.6c-5.5-6.3-14.3-9.2-22.8-6.7c-8.5,2.5-14.4,9.6-15.7,17.9L151.2,162.6z"/>
<path class="st17" d="M128.1,217.1c-10.6,2-19.6,9.8-22.4,20.9c-2.8,11.1,1.3,22.3,9.6,29.1L128.1,217.1z"/>
<path class="st17" d="M227,106.7c-8.2,1.5-15.2,7.6-17.4,16.2c-2.2,8.6,1,17.3,7.4,22.6L227,106.7z"/>
<path class="st17" d="M103.4,341.1c-10.6,2-19.7,9.9-22.6,21.1c-2.9,11.2,1.3,22.5,9.6,29.3L103.4,341.1z"/>
<path class="st17" d="M544,58.3c-10.6,2-19.7,9.9-22.6,21.1c-2.9,11.2,1.3,22.5,9.6,29.3L544,58.3z"/>
<path class="st17" d="M608.9,85.9c-12.9,2.4-23.9,12-27.4,25.5c-3.5,13.5,1.5,27.3,11.7,35.6L608.9,85.9z"/>
<path class="st2" d="M687,238.8c-23.7-4.4-43.9-22.1-50.3-46.9c-6.4-24.9,2.8-50.1,21.5-65.4L687,238.8z"/>
<path class="st2" d="M251,288.2c-9.7,1.8-18,9.1-20.6,19.3c-2.6,10.2,1.2,20.6,8.8,26.8L251,288.2z"/>
<path class="st2" d="M208.9,355.7c-4.7,1.6-8.3,5.9-8.9,11.2c-0.5,5.3,2.1,10.2,6.4,12.8L208.9,355.7z"/>
<path class="st2" d="M517.4,233.2c3.3,4.7,3.7,11,0.7,16.2c-3,5.2-8.8,8-14.4,7.5L517.4,233.2z"/>
<path class="st2" d="M517.8,231.2c0.3,5.7-2.6,11.3-8,14.1c-5.4,2.8-11.7,2.1-16.2-1.3L517.8,231.2z"/>
<path class="st5" d="M447.5,345c0.3,5.7-2.6,11.3-8,14.1c-5.4,2.8-11.7,2.1-16.2-1.3L447.5,345z"/>
<path class="st2" d="M490.2,413.8l57.6,99.7c1.6,2.7,0.6,6.3-2.1,7.9h0c-2.7,1.6-6.3,0.6-7.9-2.1l-57.6-99.7
	c-1.6-2.7-0.6-6.3,2.1-7.9h0C485,410.2,488.6,411.1,490.2,413.8z"/>
<path class="st6" d="M475.3,425.7l30.7,22c0.8,0.6,1,1.8,0.4,2.6l0,0c-0.6,0.8-1.8,1-2.6,0.4l-30.7-22c-0.8-0.6-1-1.8-0.4-2.6l0,0
	C473.2,425.3,474.4,425.1,475.3,425.7z"/>
<path class="st6" d="M482.2,211.6l59.8-2.1c1.6-0.1,3,1.2,3.1,2.9l0,0c0.1,1.6-1.2,3-2.9,3.1l-59.8,2.1c-1.6,0.1-3-1.2-3.1-2.9l0,0
	C479.2,213,480.5,211.6,482.2,211.6z"/>
<path class="st2" d="M497,220.4l59.8-2.1c1.6-0.1,3,1.2,3.1,2.9l0,0c0.1,1.6-1.2,3-2.9,3.1l-59.8,2.1c-1.6,0.1-3-1.2-3.1-2.9l0,0
	C494.1,221.9,495.4,220.5,497,220.4z"/>
<path class="st2" d="M123.4,300.1l59.8-2.1c1.6-0.1,3,1.2,3.1,2.9l0,0c0.1,1.6-1.2,3-2.9,3.1l-59.8,2.1c-1.6,0.1-3-1.2-3.1-2.9l0,0
	C120.5,301.6,121.8,300.2,123.4,300.1z"/>
<path class="st2" d="M151.4,411.6l112.5,42.7c3.1,1.2,4.7,4.7,3.5,7.8v0c-1.2,3.1-4.7,4.7-7.8,3.5l-112.5-42.7
	c-3.1-1.2-4.7-4.7-3.5-7.8l0,0C144.8,412,148.3,410.4,151.4,411.6z"/>
<path class="st2" d="M616.7,395c20.2,3.6,37.5,18.5,43,39.6c5.6,21.1-2.1,42.6-17.9,55.7L616.7,395z"/>
<path class="st2" d="M356.3,433c16.6,2.9,30.8,15.2,35.4,32.6c4.6,17.4-1.7,35.1-14.7,45.8L356.3,433z"/>
<path class="st2" d="M330.6,464.2c11.1,2,20.6,10.1,23.6,21.7c3.1,11.6-1.1,23.4-9.8,30.6L330.6,464.2z"/>
<path class="st2" d="M633.5,428.8c16.1,5.2,28.5,19.2,30.7,37.1c2.2,17.8-6.4,34.5-20.7,43.4L633.5,428.8z"/>
<path class="st2" d="M691.3,125.3L659.8,243c-0.9,3.2-4.2,5.2-7.5,4.3h0c-3.2-0.9-5.2-4.2-4.3-7.5l31.5-117.7
	c0.9-3.2,4.2-5.2,7.5-4.3l0,0C690.2,118.8,692.1,122.1,691.3,125.3z"/>
<path class="st2" d="M704.9,130.8l-68.5,66.7c-1.9,1.8-4.9,1.8-6.8-0.1l0,0c-1.8-1.9-1.8-4.9,0.1-6.8l68.5-66.7
	c1.9-1.8,4.9-1.8,6.8,0.1l0,0C706.8,125.9,706.7,128.9,704.9,130.8z"/>
<path class="st2" d="M654.8,153.1c-7.5-1.4-13.8-7-15.9-14.8c-2-7.8,0.9-15.8,6.8-20.6L654.8,153.1z"/>
<path class="st2" d="M699,134.8c0.2,3,0.1,6-0.4,9c-9.2,60-146.8,88.6-307.4,64C230.5,183.2,107.8,114.6,117,54.6
	c0.5-3,1.2-5.9,2.3-8.7c-9.1,60,113.2,128.4,273.2,153C552.5,223.4,689.7,194.7,699,134.8z"/>
<path class="st2" d="M736.6,169.2c1.2,3.1,2.2,6.3,2.7,9.6c11.1,66-123.3,143.5-300,173.1c-176.8,29.6-329,0.1-340.1-65.9
	c-0.6-3.3-0.7-6.6-0.6-9.9c11.1,66,162.9,95.5,339,66C613.7,312.5,747.6,235.2,736.6,169.2z"/>
<path class="st2" d="M565.5,507.7c45.8,0,83.2-3.4,83.2-7.7c0-4.2-37.4-7.7-83.2-7.7s-83.2,3.4-83.2,7.7
	C482.2,504.3,519.6,507.7,565.5,507.7z"/>
<path class="st2" d="M578.3,491.3c-1.5,5.9-6.2,10.7-12.6,12c-6.4,1.2-12.6-1.5-16.2-6.4L578.3,491.3z"/>
<path class="st2" d="M606.4,295.2l73.2,160.7c2,4.4,0,9.7-4.4,11.7l0,0c-4.4,2-9.7,0-11.7-4.4l-73.2-160.7c-2-4.4,0-9.7,4.4-11.7
	l0,0C599.1,288.8,604.4,290.8,606.4,295.2z"/>
<path class="st2" d="M587.1,350l81.2,68.5c2.2,1.9,2.5,5.3,0.6,7.5v0c-1.9,2.2-5.3,2.5-7.5,0.6l-81.3-68.5c-2.2-1.9-2.5-5.3-0.6-7.5
	l0,0C581.5,348.4,584.8,348.1,587.1,350z"/>
<path class="st2" d="M617.9,401.8c-0.8,5.3-4.6,9.9-10,11.4c-5.5,1.6-11.1-0.3-14.6-4.3L617.9,401.8z"/>
<path class="st2" d="M539.7,490.3c-2.1,5.1-7.1,8.8-13,9c-5.9,0.2-11.1-3.1-13.6-8L539.7,490.3z"/>
<path class="st2" d="M617.5,496c-2.3,9.5-10,17.2-20.2,19.1c-10.2,2-20.1-2.4-25.8-10.3L617.5,496z"/>
<path class="st2" d="M473.8,514.8c14.6,0,26.5-1.1,26.5-2.4c0-1.3-11.9-2.4-26.5-2.4s-26.5,1.1-26.5,2.4
	C447.3,513.7,459.2,514.8,473.8,514.8z"/>
<path class="st2" d="M373.1,505.2l108.4-20.8c2.1-0.4,4.1,0.4,5.3,2c-0.3,0-0.6,0-0.9,0.1l-108.4,20.8c-3,0.6-4.9,3.5-4.4,6.5v0
	c0.2,0.9,0.6,1.7,1.1,2.4c-2.6,0-5-1.8-5.5-4.5v0C368.1,508.7,370.1,505.8,373.1,505.2z"/>
<path class="st6" d="M259.3,353.9c-6.1,1.4-12.8-0.7-16.9-6c-4.1-5.3-4.5-12.3-1.7-17.9L259.3,353.9z"/>
<path class="st2" d="M300.2,499.7l110.3-2.7c2.1-0.1,4,1.1,4.9,2.8c-0.3,0-0.6-0.1-0.9-0.1l-110.3,2.7c-3,0.1-5.5,2.6-5.4,5.7v0
	c0,0.9,0.3,1.8,0.7,2.6c-2.6-0.4-4.6-2.6-4.7-5.3v0C294.8,502.3,297.2,499.8,300.2,499.7z"/>
<path class="st17" d="M396.4,55.6c-8-6.5-19.3-8.2-29.2-3.5c-9.9,4.8-15.6,14.7-15.4,25.1L396.4,55.6z"/>
<path class="st17" d="M711.6,481.2c-20.5-3.8-38-19.1-43.5-40.6c-5.5-21.5,2.4-43.4,18.6-56.6L711.6,481.2z"/>
<path class="st2" d="M664.8,380.4l96.8,69.4c2.7,1.9,3.3,5.6,1.4,8.3l0,0c-1.9,2.7-5.6,3.3-8.3,1.4l-96.8-69.4
	c-2.7-1.9-3.3-5.6-1.4-8.3l0,0C658.3,379.1,662.1,378.5,664.8,380.4z"/>
<path class="st2" d="M679.8,397.2l56.5,104.9c1.6,2.9,0.5,6.5-2.4,8.1l0,0c-2.9,1.6-6.5,0.5-8.1-2.4l-56.5-104.9
	c-1.6-2.9-0.5-6.5,2.4-8.1h0C674.6,393.2,678.3,394.3,679.8,397.2z"/>
<path class="st2" d="M660.6,421.3c16.1,5.2,28.5,19.2,30.7,37.1c2.2,17.8-6.4,34.5-20.7,43.4L660.6,421.3z"/>
<path class="st2" d="M604.7,357.5c-5.1,0.8-10.3-1.3-13.4-5.8c-3-4.5-3-10.2-0.3-14.6L604.7,357.5z"/>
<path class="st2" d="M690.6,148.9c-0.9,1.4-2.5,2.2-4.2,2.2c-1.7,0-3.3-0.8-4.2-2.2c-0.2-0.3-0.2-0.6,0-0.9c0.2-0.3,0.5-0.5,0.8-0.5
	h6.9c0.3,0,0.6,0.2,0.8,0.5C690.8,148.2,690.8,148.6,690.6,148.9z"/>
<path class="st2" d="M572.7,224.3l90.7,65c2.5,1.8,3.1,5.3,1.3,7.8v0c-1.8,2.5-5.3,3.1-7.8,1.3l-90.7-65c-2.5-1.8-3.1-5.3-1.3-7.8h0
	C566.7,223.1,570.2,222.5,572.7,224.3z"/>
<path class="st2" d="M622.7,310.5c9-3.8,19.9-2.3,27.6,4.7c7.7,7,10.2,17.7,7.3,27.1L622.7,310.5z"/>
<path class="st17" d="M695.1,345.9c-12.6-2.3-23.3-11.7-26.7-25c-3.4-13.2,1.5-26.6,11.4-34.7L695.1,345.9z"/>
<path class="st2" d="M644.2,248.4l57,95.9c1.6,2.6,0.7,6.1-1.9,7.6l0,0c-2.6,1.6-6.1,0.7-7.6-1.9l-57-95.9c-1.6-2.6-0.7-6.1,1.9-7.6
	h0C639.2,244.9,642.6,245.8,644.2,248.4z"/>
</svg>
