<?xml version="1.0" encoding="utf-8"?>
<!-- Generator: Adobe Illustrator 24.0.3, SVG Export Plug-In . SVG Version: 6.00 Build 0)  -->
<svg version="1.1" id="Layer_1" xmlns="http://www.w3.org/2000/svg" xmlns:xlink="http://www.w3.org/1999/xlink" x="0px" y="0px"
	 viewBox="0 0 1160 772" style="enable-background:new 0 0 1160 772;" xml:space="preserve">
<style type="text/css">
	.st0{fill-rule:evenodd;clip-rule:evenodd;fill:#AF206E;}
	.st1{fill-rule:evenodd;clip-rule:evenodd;fill:#E54355;}
	.st2{fill-rule:evenodd;clip-rule:evenodd;fill:#593512;}
	.st3{fill-rule:evenodd;clip-rule:evenodd;fill:#EB8B23;}
	.st4{fill-rule:evenodd;clip-rule:evenodd;fill:#CE8842;}
	.st5{fill-rule:evenodd;clip-rule:evenodd;fill:#FFFFFF;}
	.st6{fill-rule:evenodd;clip-rule:evenodd;fill:#FCB772;}
	.st7{fill-rule:evenodd;clip-rule:evenodd;fill:#DA6877;}
	.st8{fill-rule:evenodd;clip-rule:evenodd;fill:#FF93A9;}
	.st9{fill-rule:evenodd;clip-rule:evenodd;fill:#D5936D;}
	.st10{fill-rule:evenodd;clip-rule:evenodd;fill:#44245B;}
	.st11{fill-rule:evenodd;clip-rule:evenodd;fill:#5F2D78;}
	.st12{fill-rule:evenodd;clip-rule:evenodd;fill:#EFBA84;}
	.st13{fill-rule:evenodd;clip-rule:evenodd;fill:#BA6108;}
	.st14{fill-rule:evenodd;clip-rule:evenodd;fill:#975F4E;}
	.st15{fill-rule:evenodd;clip-rule:evenodd;fill:#6c5ba7;}
	.st16{fill-rule:evenodd;clip-rule:evenodd;fill:#FFCB51;}
	.st17{fill-rule:evenodd;clip-rule:evenodd;fill:#FFB151;}
	.st18{fill-rule:evenodd;clip-rule:evenodd;fill:#F68096;}
	.st19{fill-rule:evenodd;clip-rule:evenodd;fill:#25B2D6;}
	.st20{fill-rule:evenodd;clip-rule:evenodd;fill:#FFB2C2;}
	.st21{fill-rule:evenodd;clip-rule:evenodd;fill:#E673AC;}
	.st22{fill-rule:evenodd;clip-rule:evenodd;fill:#F2B579;}
	.st23{fill-rule:evenodd;clip-rule:evenodd;fill:#F28416;}
	.st24{fill-rule:evenodd;clip-rule:evenodd;fill:#FF99CC;}
	.st25{fill-rule:evenodd;clip-rule:evenodd;fill:#140A23;}
	.st26{fill-rule:evenodd;clip-rule:evenodd;fill:#FFCED7;}
	.st27{fill-rule:evenodd;clip-rule:evenodd;fill:#E26644;}
	.st28{fill-rule:evenodd;clip-rule:evenodd;fill:#91500F;}
	.st29{fill-rule:evenodd;clip-rule:evenodd;fill:#F6CC1B;}
	.st30{fill-rule:evenodd;clip-rule:evenodd;fill:#ADABC2;}
	.st31{fill-rule:evenodd;clip-rule:evenodd;fill:#EF5E72;}
	.st32{fill-rule:evenodd;clip-rule:evenodd;fill:#563A82;}
</style>
<g>
	<g>
		<path class="st0" d="M607.9,133.6c0.8,0,1.5,0,2.3,0.1c-13.7,1.5-25.9,12.9-28.1,26.8c-2.2,14.2,7,25.8,20.6,26.9
			c-1,0.1-2,0.2-3.1,0.2c-14.9,0-25.2-12.1-22.9-27C579,145.6,592.9,133.6,607.9,133.6z"/>
		<path class="st1" d="M612.2,138.8c14.9,0,25.2,12.1,22.9,27s-16.2,27-31.1,27c-14.9,0-25.2-12.1-22.9-27
			C583.3,150.9,597.3,138.8,612.2,138.8z"/>
		<path class="st1" d="M614.8,141.9c14.9,0,25.2,12.1,22.9,27c-1.6,10.6-9.1,19.7-18.6,24.1c7.2-4.9,12.6-12.7,13.9-21.5
			c2.3-14.9-8-27-22.9-27c-4.4,0-8.6,1-12.6,2.9C602.6,144,608.6,141.9,614.8,141.9z"/>
	</g>
	<path class="st2" d="M354.4,592.2c-16.1,0-28.8-13-28.5-29.1c0.3-14.1,10.6-25.9,24-28.6l43.7-11.6c4.7-2,9.9-3,15.2-3
		c21.7,0,38.9,17.6,38.4,39.3s-18.5,39.3-40.2,39.3c-0.5,0-1,0-1.5,0l0,0l0,0c-2.2-0.1-4.3-0.3-6.3-0.8L354.4,592.2z"/>
	<path class="st3" d="M347.8,578.6c-8.9,0-15.9-7.2-15.7-16.1c0.2-7.8,5.8-14.2,13.2-15.7l24.1-6.4c2.6-1.1,5.4-1.7,8.4-1.7
		c12,0,21.4,9.7,21.1,21.6c-0.3,12-10.2,21.6-22.1,21.6c-0.3,0-0.6,0-0.8,0l0,0l0,0c-1.2,0-2.4-0.2-3.5-0.4L347.8,578.6z"/>
	<path class="st2" d="M437.8,612.9L437.8,612.9c-0.9,4.1-5,6.9-9.2,6.1l-178.4-34.6c-4.2-0.8-6.8-4.8-5.9-9l0,0
		c0.9-4.1,5-6.9,9.2-6.1l178.4,34.6C436,604.7,438.7,608.7,437.8,612.9z"/>
	<path class="st4" d="M906.9,605.9c-16.7,18.8-43.8,26.4-68,17.1l-124-47.9c-24.2-9.3-38.6-33-37.6-57.8L906.9,605.9z"/>
	<path class="st2" d="M734.5,556.6l6.1,10.1c2,3.3,6.2,4.3,9.5,2.3l0,0c3.3-2,4.3-6.3,2.3-9.6l-6.1-10.1c-2-3.3-6.2-4.3-9.5-2.3l0,0
		C733.5,549,732.5,553.3,734.5,556.6z"/>
	<path class="st3" d="M739.2,557.3l2.9,4.7c0.9,1.5,2.9,2,4.5,1.1l0,0c1.5-0.9,2-3,1.1-4.5l-2.9-4.7c-0.9-1.5-2.9-2-4.5-1.1l0,0
		C738.8,553.8,738.3,555.8,739.2,557.3z"/>
	<path class="st2" d="M656.2,617l1.6-21c0.2-2.4,1.3-4.4,3.2-5.9s4.1-2,6.4-1.6l16.7,3l0.2-3.2l-18.7-3.4c-4-0.7-6.7-4.3-6.4-8.3
		l1.8-23.4c0.2-2.4,1.3-4.4,3.2-5.9s4.1-2,6.4-1.6l16.7,3l0.2-3.2l-18.7-3.4c-4-0.7-6.7-4.2-6.4-8.3l1.5-19.1l-3.1-0.6l-1.3,17.1
		c-0.2,2.4-1.3,4.4-3.2,5.9s-4.1,2-6.4,1.6l-22.9-4.2c-4-0.7-6.7-4.3-6.4-8.3l1.4-19.1l-3.1-0.6l-1.3,17.1c-0.2,2.4-1.3,4.4-3.2,5.9
		s-4.1,2-6.4,1.6l-22.9-4.2c-4-0.7-6.7-4.3-6.4-8.3l1.5-19.1l-3.2-0.6l-1.3,17.1c-0.2,2.4-1.3,4.4-3.2,5.9s-4.1,2-6.4,1.6l-22.9-4.2
		c-4-0.7-6.7-4.3-6.4-8.3l1.8-23.4c0.2-2.4,1.3-4.4,3.2-5.8c1.9-1.5,4.1-2,6.4-1.6l16.7,3l0.2-3.2l-18.7-3.4c-4-0.7-6.7-4.3-6.4-8.3
		l1-13.2c-1.3,0.1-2.4,0.1-3.2,0.1l-0.8,10.5c-0.2,2.4-1.3,4.4-3.2,5.9s-4.1,2-6.4,1.6l-22.9-4.2c-4-0.7-6.7-4.3-6.4-8.3l1.8-23.4
		c0.2-2.4,1.3-4.4,3.2-5.9c0.6-0.4,1.2-0.8,1.8-1.1c-2.8-3-5.7-6.5-8.4-10.2c-0.3,0.4-0.7,0.8-1.2,1.1c-1.9,1.5-4.1,2-6.4,1.6
		l-22.9-4.2c-4-0.7-6.7-4.3-6.4-8.3l1.8-23.4c0.2-2.4,1.3-4.4,3.2-5.8c1.4-1.1,2.9-1.6,4.5-1.7c-3.2-2.2-7.2-4.9-12.3-8.5
		c-1.9,1.5-4.1,2-6.4,1.6l-11.4-2.1c-0.1,1-0.3,2.1-0.5,3.2l13.7,2.5c4,0.7,6.7,4.3,6.4,8.3l-1.8,23.4c-0.2,2.4-1.3,4.4-3.2,5.9
		c-1.9,1.5-4.1,2-6.4,1.6l-14-2.5c0.5,1.4,1,2.6,1.4,3.5l14.3,2.6c4,0.7,6.7,4.3,6.4,8.3l-1.8,23.4c-0.2,2.4-1.3,4.4-3.2,5.9
		c-1.9,1.5-4.1,2-6.4,1.6l-22.9-4.2c-4-0.7-6.7-4.3-6.4-8.3l1.4-18.9c-1.1,0.3-2.2,0.5-3.2,0.7l-1.2,15.6c-0.2,2.4-1.3,4.4-3.2,5.9
		c-1.9,1.5-4.1,2-6.4,1.6l-22.9-4.2c-4-0.7-6.7-4.3-6.4-8.3l1.2-15.5c-0.9,0.9-2,2-3.4,3.1l-0.7,9.8c-0.2,2.4-1.3,4.4-3.2,5.9
		c-1.9,1.5-4.1,2-6.4,1.6l-7.8-1.4c-0.7,0.9-1.4,1.8-2.1,2.9l11.7,2.1c4,0.7,6.7,4.2,6.4,8.3l-1.4,18.7c1,0.7,2,1.4,3,2.1l1.4-18.2
		c0.2-2.4,1.3-4.4,3.2-5.9c1.9-1.5,4.1-2,6.4-1.6l22.9,4.2c4,0.7,6.7,4.3,6.4,8.3l-1.8,23.4c-0.2,2.4-1.3,4.4-3.2,5.8
		c-1.9,1.5-4.1,2-6.4,1.6l-16.5-3c-0.2,1.1-1,2-2.2,2.9l20.4,3.7c4,0.7,6.7,4.3,6.4,8.3l-1.8,23.4c-0.2,2.4-1.3,4.4-3.2,5.9
		c-1.9,1.5-4.1,2-6.4,1.6l-22.9-4.2c-4-0.7-6.7-4.3-6.4-8.3l1.8-23.4c0.1-1.1,0.4-2.2,0.8-3.1c-1.2,0.3-2.5,0.6-3.9,0.9l-1.8,23
		c-0.2,2.4-1.3,4.4-3.2,5.9c-1.9,1.5-4.1,2-6.4,1.6l-16.7-3l-0.2,3.2l18.7,3.4c4,0.7,6.7,4.2,6.4,8.3l-1.5,19.1l3.2,0.6l1.3-17.1
		c0.2-2.4,1.3-4.4,3.2-5.9c1.9-1.5,4.1-2,6.4-1.6l22.9,4.2c4,0.7,6.7,4.3,6.4,8.3l-1.4,19.1l3.1,0.6l1.3-17.1
		c0.2-2.4,1.3-4.4,3.2-5.9c1.9-1.5,4.1-2,6.4-1.6l22.9,4.2c4,0.7,6.7,4.3,6.4,8.3l-1.4,19.1l3.1,0.6l1.3-17c0.2-2.4,1.3-4.4,3.2-5.9
		c1.9-1.5,4.1-2,6.4-1.6l22.9,4.2c4,0.7,6.7,4.3,6.4,8.3l-1.8,23.4c-0.2,2.4-1.3,4.4-3.2,5.9c-1.9,1.5-4.1,2-6.4,1.6l-16.7-3
		l-0.3,3.2l18.7,3.4c4,0.7,6.7,4.3,6.4,8.3l-0.9,11.3h3.2l0.7-8.8c0.2-2.4,1.3-4.4,3.2-5.8c1.9-1.5,4.1-2,6.4-1.6l22.9,4.2
		c4,0.7,6.7,4.3,6.4,8.3l-0.3,3.7h3.2l0.1-1.1c0.2-2.4,1.3-4.4,3.2-5.9s4.1-2,6.4-1.6l22.9,4.2c2.6,0.5,4.7,2.2,5.7,4.4h7.8
		c1.7-1,3.5-1.3,5.5-1l5.3,1h29.9c-1.1-1.5-1.6-3.3-1.5-5.2l1.8-23.4c0.2-2.4,1.3-4.4,3.2-5.9s4.1-2,6.4-1.6l22.9,4.2
		c4,0.7,6.7,4.3,6.4,8.3l-1.8,23.4v0.2h3V617z M535.6,485.2l-1.8,23.4c-0.2,2.4-1.3,4.4-3.2,5.9s-4.1,2-6.4,1.6l-22.9-4.2
		c-4-0.7-6.7-4.2-6.4-8.3l1.8-23.4c0.2-2.4,1.3-4.4,3.2-5.8c1.9-1.5,4.1-2,6.4-1.6l22.9,4.2C533.2,477.6,535.9,481.2,535.6,485.2
		L535.6,485.2z M493.7,477.6l-1.8,23.4c-0.2,2.4-1.3,4.4-3.2,5.9c-1.9,1.5-4.1,2-6.4,1.6l-22.9-4.2c-4-0.7-6.7-4.3-6.4-8.3l1.8-23.4
		c0.2-2.4,1.3-4.4,3.2-5.9c1.9-1.5,4.1-2,6.4-1.6l22.9,4.2C491.3,470,494,473.5,493.7,477.6L493.7,477.6z M461.1,507.8L484,512
		c4,0.7,6.7,4.3,6.4,8.3l-1.8,23.4c-0.2,2.4-1.3,4.4-3.2,5.9c-1.9,1.5-4.1,2-6.4,1.6l-22.9-4.2c-4-0.7-6.7-4.3-6.4-8.3l1.8-23.4
		c0.2-2.4,1.3-4.4,3.2-5.9C456.6,507.9,458.8,507.4,461.1,507.8L461.1,507.8z M437.2,543.5l-22.9-4.2c-4-0.7-6.7-4.2-6.4-8.3
		l1.8-23.4c0.2-2.4,1.3-4.4,3.2-5.9c1.9-1.5,4.1-2,6.4-1.6l22.9,4.2c4,0.7,6.7,4.3,6.4,8.3l-1.8,23.4c-0.2,2.4-1.3,4.4-3.2,5.9
		C441.7,543.4,439.5,543.9,437.2,543.5L437.2,543.5z M467.6,422.4l22.9,4.2c4,0.7,6.7,4.3,6.4,8.3l-1.8,23.4
		c-0.2,2.4-1.3,4.4-3.2,5.9c-1.9,1.5-4.1,2-6.4,1.6l-22.9-4.2c-4-0.7-6.7-4.3-6.4-8.3l1.8-23.4c0.2-2.4,1.3-4.4,3.2-5.8
		C463.1,422.6,465.3,422,467.6,422.4L467.6,422.4z M422.5,457.5l22.9,4.2c4,0.7,6.7,4.3,6.4,8.3l-1.8,23.4c-0.2,2.4-1.3,4.4-3.2,5.9
		c-1.9,1.5-4.1,2-6.4,1.6l-22.9-4.2c-4-0.7-6.7-4.3-6.4-8.3l1.8-23.4c0.2-2.4,1.3-4.4,3.2-5.9C418,457.6,420.2,457.1,422.5,457.5
		L422.5,457.5z M658,550.8l-1.8,23.4c-0.2,2.4-1.3,4.4-3.2,5.9s-4.1,2-6.4,1.6l-22.9-4.2c-4-0.7-6.7-4.3-6.4-8.3l1.8-23.4
		c0.2-2.4,1.3-4.4,3.2-5.9s4.1-2,6.4-1.6l22.9,4.2C655.6,543.2,658.3,546.7,658,550.8L658,550.8z M503,515.4l22.9,4.2
		c4,0.7,6.7,4.3,6.4,8.3l-1.8,23.4c-0.2,2.4-1.3,4.4-3.2,5.9s-4.1,2-6.4,1.6l-22.9-4.2c-4-0.7-6.7-4.3-6.4-8.3l1.8-23.4
		c0.2-2.4,1.3-4.4,3.2-5.8C498.5,515.6,500.7,515,503,515.4L503,515.4z M544.9,523.1l22.9,4.2c4,0.7,6.7,4.3,6.4,8.3l-1.8,23.4
		c-0.2,2.4-1.3,4.4-3.2,5.9s-4.1,2-6.4,1.6l-22.9-4.2c-4-0.7-6.7-4.3-6.4-8.3l1.8-23.4c0.2-2.4,1.3-4.4,3.2-5.9
		C540.4,523.2,542.6,522.6,544.9,523.1L544.9,523.1z M586.8,530.7l22.9,4.2c4,0.7,6.7,4.2,6.4,8.3l-1.8,23.4
		c-0.2,2.4-1.3,4.4-3.2,5.8c-1.9,1.5-4.1,2-6.4,1.6l-22.9-4.2c-4-0.7-6.7-4.3-6.4-8.3l1.8-23.4c0.2-2.4,1.3-4.4,3.2-5.9
		C582.3,530.8,584.5,530.2,586.8,530.7L586.8,530.7z M499.8,558.1l22.9,4.2c4,0.7,6.7,4.3,6.4,8.3l-1.8,23.4
		c-0.2,2.4-1.3,4.4-3.2,5.9s-4.1,2-6.4,1.6l-22.9-4.2c-4-0.7-6.7-4.3-6.4-8.3l1.8-23.4c0.2-2.4,1.3-4.4,3.2-5.9
		C495.3,558.2,497.4,557.7,499.8,558.1L499.8,558.1z M541.7,565.7l22.9,4.2c4,0.7,6.7,4.3,6.4,8.3l-1.8,23.4
		c-0.2,2.4-1.3,4.4-3.2,5.9s-4.1,2-6.4,1.6l-22.9-4.2c-4-0.7-6.7-4.3-6.4-8.3l1.8-23.4c0.2-2.4,1.3-4.4,3.2-5.9
		C537.1,565.9,539.3,565.3,541.7,565.7L541.7,565.7z M583.6,573.4l22.9,4.2c4,0.7,6.7,4.3,6.4,8.3l-1.8,23.4
		c-0.2,2.4-1.3,4.4-3.2,5.9s-4.1,2-6.4,1.6l-22.9-4.2c-4-0.7-6.7-4.3-6.4-8.3l1.8-23.4c0.2-2.4,1.3-4.4,3.2-5.9
		C579,573.5,581.2,572.9,583.6,573.4z"/>
	<g>
		<polygon class="st2" points="546.6,406.8 537.4,406.8 536.8,457.5 546,457.5 		"/>
		<path class="st4" d="M545.1,444.5h-6.9c-1.2,0-2.1,1-2.1,2.1l-0.2,16.9c0,1.2,0.9,2.1,2.1,2.1h6.9c1.2,0,2.1-1,2.1-2.1l0.2-16.9
			C547.2,445.4,546.2,444.5,545.1,444.5z"/>
		<path class="st2" d="M544.1,452.9h-5.3c-0.9,0-1.6,0.7-1.6,1.6l-0.2,17.9c0,0.9,0.7,1.6,1.6,1.6h5.3c0.9,0,1.6-0.7,1.6-1.6
			l0.2-17.9C545.7,453.6,545,452.9,544.1,452.9z"/>
		<path class="st5" d="M541.3,466.3c-2.1,0-4.1,0.9-5.5,2.3s-2.3,3.4-2.3,5.5s0.8,4.1,2.2,5.5s3.3,2.3,5.5,2.3
			c2.1,0,4.1-0.9,5.5-2.3s2.3-3.4,2.3-5.5s-0.8-4.1-2.2-5.5C545.4,467.1,543.5,466.3,541.3,466.3L541.3,466.3z M537.1,469.9
			c1.1-1.1,2.6-1.7,4.2-1.7c1.6,0,3.1,0.7,4.2,1.7c1.1,1.1,1.7,2.5,1.7,4.2c0,1.6-0.7,3.1-1.8,4.2s-2.6,1.7-4.2,1.7
			s-3.1-0.7-4.2-1.7c-1.1-1.1-1.7-2.5-1.7-4.2C535.4,472.4,536,470.9,537.1,469.9z"/>
		<path class="st4" d="M542.2,462.4H540c-0.4,0-0.7,0.3-0.7,0.7l-0.1,7.6c0,0.4,0.3,0.7,0.7,0.7h2.3c0.4,0,0.7-0.3,0.7-0.7l0.1-7.6
			C542.9,462.7,542.6,462.4,542.2,462.4z"/>
	</g>
	<polygon class="st2" points="645.4,308.7 656.4,308.7 660.6,369.3 649.6,369.3 	"/>
	<path class="st2" d="M616.8,219.9h34.9c8.4,0,15,6.8,14.8,15.2l0,0c-0.2,8.4-7.2,15.2-15.5,15.2h-34.9c-8.4,0-15-6.8-14.8-15.2l0,0
		C601.4,226.8,608.4,219.9,616.8,219.9z"/>
	<path class="st2" d="M649.8,533.2c32.6,0,58.8,13.7,58.4,30.7c-0.4,16.9-27.1,30.7-59.8,30.7c-32.6,0-58.8-13.7-58.4-30.7
		C590.4,546.9,617.2,533.2,649.8,533.2z"/>
	<g>
		<path class="st2" d="M553.6,180l10.1,44c1.9,8.4-3.4,17.1-11.8,19.2l0,0c-8.4,2.1-16.9-3.1-18.8-11.5l-10.1-44
			c-1.9-8.4,3.4-17.1,11.8-19.2l0,0C543.2,166.3,551.7,171.5,553.6,180z"/>
		<path class="st6" d="M548.7,175.8c-1.1,4.8-7.4,9-14.1,9.5c-6.7,0.4-11.3-3.2-10.2-8s7.4-9,14.1-9.5
			C545.3,167.4,549.8,171,548.7,175.8z"/>
		<path class="st2" d="M544.5,176c-0.7,3.1-4.8,5.9-9.2,6.1c-4.3,0.3-7.3-2.1-6.6-5.2c0.7-3.1,4.8-5.9,9.2-6.1
			C542.2,170.6,545.2,172.9,544.5,176z"/>
	</g>
	
		<ellipse transform="matrix(1 -8.456517e-03 8.456517e-03 1 -4.964 6.6504)" class="st2" cx="783.9" cy="590.3" rx="59.1" ry="30.7"/>
	<path class="st2" d="M729.5,557.2c32.6,0,58.8,13.7,58.4,30.7c-0.4,16.9-27.1,30.7-59.8,30.7c-32.6,0-58.8-13.7-58.4-30.7
		C670.1,571,696.8,557.2,729.5,557.2z"/>
	<path class="st2" d="M474.2,564.8c32.6,0,58.8,13.7,58.4,30.7c-0.4,16.9-27.1,30.7-59.8,30.7c-32.6,0-58.8-13.7-58.4-30.7
		C414.8,578.5,441.6,564.8,474.2,564.8z"/>
	<path class="st2" d="M527.5,533.8c32.6,0,58.8,13.7,58.4,30.7c-0.4,16.9-27.1,30.7-59.8,30.7c-32.6,0-58.8-13.7-58.4-30.7
		C468.1,547.6,494.9,533.8,527.5,533.8z"/>
	<path class="st2" d="M464.5,434.2L464.5,434.2c3.9-1.9,8.5-0.3,10.3,3.6l77.8,165c1.8,3.9,0.2,8.6-3.7,10.5l0,0
		c-3.9,1.9-8.5,0.3-10.3-3.6l-77.8-165C459,440.8,460.6,436.1,464.5,434.2z"/>
	<path class="st2" d="M408,512.2L408,512.2c1.9-2.6,5.6-3.3,8.2-1.4l112.3,78c2.7,1.8,3.3,5.5,1.4,8.1l0,0c-1.9,2.6-5.6,3.3-8.2,1.4
		l-112.3-78C406.8,518.5,406.1,514.8,408,512.2z"/>
	<path class="st2" d="M411.5,540.7L411.5,540.7c1.9-2.6,5.6-3.3,8.2-1.4l112.3,78c2.7,1.8,3.3,5.5,1.4,8.1l0,0
		c-1.9,2.6-5.6,3.3-8.2,1.4l-112.3-78C410.3,547,409.7,543.4,411.5,540.7z"/>
	<path class="st7" d="M610.2,240.4L610.2,240.4c5.8,4.2,7,12.4,2.7,18.1L575.3,309c-4.3,5.7-12.5,6.9-18.2,2.7l0,0
		c-5.8-4.2-7-12.4-2.7-18.1l37.6-50.5C596.3,237.4,604.5,236.2,610.2,240.4z"/>
	<path class="st8" d="M587.3,273.1L587.3,273.1c5.8,4.2,7,12.4,2.7,18.1l-37.6,50.5c-4.3,5.7-12.5,6.9-18.2,2.7l0,0
		c-5.8-4.2-7-12.4-2.7-18.1l37.6-50.5C573.4,270.1,581.6,268.8,587.3,273.1z"/>
	<path class="st2" d="M673.3,157.5c16.3,0,27.5,13.2,25,29.5c-2.4,16-17.1,29-33,29.5c12.7-3.7,23.2-14.9,25.2-28.2
		c2.5-16.3-8.7-29.5-25-29.5c-0.3,0-0.6,0-0.9,0C667.4,157.9,670.3,157.5,673.3,157.5z"/>
	<path class="st2" d="M672,150.4c16.3,0,27.5,13.2,25,29.5s-17.7,29.5-34,29.5s-27.5-13.2-25-29.5S655.7,150.4,672,150.4z"/>
	<path class="st5" d="M502.2,59.7c5.4-1.5,10.6-0.3,13,2.6c3,2.2,5.2,5.4,6,9.3l10.5,54.2c0.6,3.2,0.2,6.4-1.1,9.2
		c0,0.2,0.1,0.3,0.1,0.5l7.8,40.3c1.2,6.2-2.9,12.4-9.1,13.7l0,0c-6.2,1.3-12.3-2.6-13.5-8.8l-7.8-40.3c-1-5.3,1.9-10.6,6.7-12.9
		l-9.9-51.2c-6.1,1.1-11.6-1.1-12.6-5.3C491.1,66.6,495.6,61.5,502.2,59.7z"/>
	
		<ellipse transform="matrix(0.9996 -2.680700e-02 2.680700e-02 0.9996 -16.1223 16.5251)" class="st2" cx="608.3" cy="609.6" rx="166.8" ry="29.2"/>
	<path class="st2" d="M426,612.4c-3.7,0.2-6.8,1.1-6.8,2.2c0,1.1,3,1.8,6.7,1.6s6.8-1.1,6.8-2.2C432.7,612.9,429.7,612.2,426,612.4z
		"/>
	<path class="st3" d="M660.6,592.3c-18,0.5-32.5,8.1-32.3,17c0.1,8.9,11.3,19.8,29.3,19.4c18-0.5,36-12.1,35.9-21.1
		C693.3,598.7,678.6,591.8,660.6,592.3z"/>
	<path class="st3" d="M555.3,582.7c15-1.5,28.3-1,36.7,1l4.1-0.5l3.2,3.4c0.9,0.6,1.5,1.3,1.9,2l0,0l0,0c0.3,0.6,0.4,1.2,0.4,1.9
		c-0.6,7-22.3,14.8-48.5,17.4c-26.2,2.7-46.9-0.9-46.3-7.8c0-0.2,0.1-0.5,0.1-0.7l0,0l2-6.7l4,0.9
		C521.3,588.9,537.2,584.6,555.3,582.7z"/>
	<path class="st9" d="M590.8,547.1c-2.6-7.9-9-8-14.2-0.2s-7.3,20.6-4.7,28.5s9,8,14.2,0.2S593.4,555.1,590.8,547.1z"/>
	<path class="st9" d="M588.6,551.5c-0.1-7.3-5.8-9.7-12.9-5.4c-7.1,4.3-12.7,13.8-12.7,21.1c0.1,7.3,5.8,9.7,12.9,5.4
		C582.9,568.2,588.6,558.8,588.6,551.5z"/>
	<path class="st10" d="M570.6,544.4c16-14.1,25.8-34.9,26.8-56.6s-7.1-41.6-21.9-54.1c-2.2-1.8-5-2-7.6-0.5s-4.3,4.3-4.4,7.5
		l-4.3,98c-0.1,3.2,1.3,5.8,3.8,7C565.4,546.9,568.3,546.4,570.6,544.4z"/>
	<path class="st11" d="M582.6,464.9c-1.1-2.3-2.2-4.4-3.5-6.6c-2.6-3.7-5.5-5.5-8.1-4.7c-5.1,1.7-7,13.1-4.3,25.5s9,21.2,14.1,19.5
		s7-13.1,4.3-25.5C584.4,470.2,583.6,467.4,582.6,464.9z"/>
	<path class="st5" d="M519.7,342.6L519.7,342.6c8-1.7,15.8,3.4,17.3,11.4l10,51.4c1.6,8-3.7,16-11.7,17.7l0,0
		c-8,1.7-15.8-3.4-17.3-11.4l-10-51.4C506.5,352.3,511.7,344.3,519.7,342.6z"/>
	<path class="st12" d="M529.9,329.7L529.9,329.7c10.1-2.2,19.9,4.3,21.9,14.4l12.6,64.8c2,10.1-4.7,20.1-14.7,22.3l0,0
		c-10.1,2.2-19.9-4.3-21.9-14.4L515.2,352C513.2,341.9,519.9,331.9,529.9,329.7z"/>
	<path class="st13" d="M561.8,395.7l2.6,13.3c2,10.1-4.7,20.1-14.7,22.3l0,0c-10.1,2.2-19.9-4.3-21.9-14.4l-5.2-26.8L561.8,395.7z"
		/>
	<path class="st2" d="M542.8,337.7L542.8,337.7c8.7-1.9,17.1,3.7,18.8,12.4l10.8,55.9c1.7,8.7-4,17.4-12.7,19.2l0,0
		c-8.7,1.9-17.1-3.7-18.8-12.4l-10.8-55.9C528.4,348.2,534.1,339.5,542.8,337.7z"/>
	<path class="st5" d="M490.7,231.2c-3.3-0.2-6.1-2.5-6.7-5.9l-5.1-26.2c-0.7-3.7,1.5-7.4,5.1-8.7c0.4-3.5,1.7-6.9,3.6-9.9l-3.1-16.1
		c-4.3-1.9-7.7-5.9-8.6-10.9l-10.5-54.2c-1.6-8.3,3.9-16.6,12.3-18.4l0,0c8.4-1.8,16.5,3.5,18.2,11.9l10.5,54.2
		c0.5,2.4,0.3,4.7-0.3,7l3,15.5c10.2,0.6,19,7.9,21,18.3l15.8,81.6c2.4,12.5-5.9,25-18.5,27.7l0,0c-12.6,2.7-24.9-5.3-27.3-17.8
		L490.7,231.2z"/>
	<path class="st4" d="M488.3,188.8L488.3,188.8c4-0.9,8,1.7,8.8,5.8l5.1,26.1c0.8,4.1-1.9,8.1-5.9,9l0,0c-4,0.9-8-1.7-8.8-5.8
		l-5.1-26.1C481.6,193.7,484.3,189.7,488.3,188.8z"/>
	<path class="st2" d="M514.8,127.1L514.8,127.1c6.2-1.3,12.3,2.7,13.5,8.9l7.8,40.1c1.2,6.3-2.9,12.5-9.1,13.8l0,0
		c-6.2,1.3-12.3-2.7-13.5-8.9l-7.8-40.1C504.4,134.7,508.5,128.4,514.8,127.1z"/>
	<path class="st2" d="M530.6,194.5L530.6,194.5c9.2-2,18.2,3.9,20,13.2l11.5,59.3c1.8,9.2-4.3,18.4-13.5,20.4l0,0
		c-9.2,2-18.2-3.9-20-13.2l-11.5-59.3C515.3,205.7,521.4,196.5,530.6,194.5z"/>
	<path class="st2" d="M506.1,168.6L506.1,168.6c12.6-2.7,24.9,5.4,27.3,18l15.8,81.1c2.5,12.6-5.8,25.2-18.4,27.9l0,0
		c-12.6,2.7-24.9-5.4-27.3-18l-15.8-81.1C485.3,183.9,493.6,171.3,506.1,168.6z"/>
	<path class="st4" d="M532.1,187L532.1,187c4-0.9,8,1.7,8.8,5.8l5.1,26.1c0.8,4.1-1.9,8.1-5.9,9l0,0c-4,0.9-8-1.7-8.8-5.8l-5.1-26.1
		C525.4,191.9,528.1,187.9,532.1,187z"/>
	<path class="st14" d="M658.6,592.4c-10.3-5.3-15.5-18-11.6-28.3c3.9-10.4,15.1-20.6,25.4-15.3c10.3,5.3,15.8,24,11.9,34.4
		C680.4,593.5,668.9,597.6,658.6,592.4z"/>
	<path class="st2" d="M648.2,239.4L648.2,239.4c17,7.2,24.8,26.9,17.3,43.8L647.4,324c-7.5,16.9-27.5,24.8-44.5,17.6l0,0
		c-17-7.2-24.8-26.9-17.3-43.8l18.1-40.8C611.2,240.1,631.3,232.2,648.2,239.4z"/>
	<path class="st5" d="M526.7,301.6L526.7,301.6c8,0,14.3,6.5,14.1,14.5l-0.2,7.5c-0.2,8-6.8,14.5-14.8,14.5l0,0
		c-8,0-14.3-6.5-14.1-14.5l0.2-7.5C512.1,308.1,518.7,301.6,526.7,301.6z"/>
	<path class="st2" d="M528.2,282L528.2,282c6.3-1.4,12.4,2.7,13.6,9l7.8,40.4c1.2,6.3-2.9,12.5-9.2,13.9l0,0
		c-6.3,1.4-12.4-2.7-13.6-9l-7.8-40.4C517.8,289.6,521.9,283.4,528.2,282z"/>
	<path class="st10" d="M563.7,332.5c12.9-2,24.4,21.7,25.7,53s-8,58.4-20.9,60.4s-24.4-21.7-25.7-53
		C541.4,361.6,550.8,334.6,563.7,332.5z"/>
	<path class="st11" d="M562.1,444.8c-10.1-5.1-18.2-25.9-19.3-51.9c-0.8-19.9,2.6-38,8.5-49.2c10.1,5.1,18.2,25.9,19.3,51.9
		C571.5,415.5,568,433.7,562.1,444.8z"/>
	<path class="st11" d="M555.9,431.6c3-2,8.1,2,11.4,8.9c3.4,6.9,3.7,14.1,0.7,16.1s-8.1-2-11.4-8.9
		C553.2,440.8,552.9,433.6,555.9,431.6z"/>
	<path class="st15" d="M555.4,348.2c-1.7-2-3.5-3.4-5.4-4.4c-5.9,11.1-9.4,29.3-8.5,49.2c0.8,18.4,5.1,34.1,11.1,43.6
		c-0.1,3.1,0.8,7.2,2.7,11.2c1.8,3.7,4.1,6.5,6.2,8l-1,23.8c0,0,2.5-0.8,7.4,0.2l1-23.9c-2.2-1.6-4.5-4.4-6.2-8
		c-1.9-4-2.9-8-2.7-11.2c-6-9.5-10.3-25.2-11.1-43.6C548.2,375.5,550.8,359.4,555.4,348.2z"/>
	<path class="st16" d="M560.5,479.5c-3.4,0.5-5.9,1.8-7,4.1c-1.6,3.4,0.1,8.1,4.2,12.8l-2.9,66.8c-0.2,3.5,1.4,6.3,4.1,7.7
		c2.7,1.4,5.9,0.8,8.4-1.4c15.8-14,26.1-33.9,28.7-55.2c4.2-0.2,7.3-1.7,8.5-4.3c3.1-6.4-5.8-17.5-19.9-24.8
		c-5.7-3-11.4-4.9-16.4-5.6l0,0H568C563,478.8,560.5,479.5,560.5,479.5z"/>
	<path class="st17" d="M559.6,571.3c2.5,0.9,5.3,0.3,7.6-1.7c15.8-14,26.1-33.9,28.7-55.2c4.2-0.2,7.3-1.7,8.5-4.3
		c2.2-4.6-1.8-11.6-9.5-18c0.4,1.6,0.4,3.1-0.1,4.4c-1.1,2.7-4.1,4.3-8.2,4.9c-1.1,21.3-9.9,41.9-24.7,57c-1.5,1.5-3.3,2.4-5.2,2.5
		l-0.1,3.4C556.5,567.3,557.6,569.8,559.6,571.3z"/>
	<path class="st11" d="M570.5,331c11.8-2.1,22.3,19.6,25,49.7c-4.6,7-11.8,9.7-20,6.4c-9.8-4-18.3-15.9-22.4-29.6
		C557,342.5,563.2,332.3,570.5,331z"/>
	<path class="st15" d="M558.6,335.8c3.6-17.3,16.3-27.4,28.3-22.5s18.9,22.8,15.3,40.1c-3.6,17.3-16.3,27.4-28.3,22.5
		C561.9,371.1,555.1,353.1,558.6,335.8z"/>
	<path class="st15" d="M560,327c5.4-12.7,16.1-19.2,26.4-15.1c12.3,5,19.3,23.3,15.6,40.9c-1.8,8.9-6,15.9-11.3,20
		c-4.4,1.7-9.1,1.8-13.7,0c-13.5-5.4-21.2-25.6-17.1-44.9L560,327z"/>
	<path class="st15" d="M574.6,270.5L574.6,270.5c11.8-1.9,23.6,6,26.2,17.7l6,26.8c2.6,11.7-4.9,22.8-16.7,24.8l0,0
		c-11.8,1.9-23.6-6-26.2-17.7l-6-26.8C555.3,283.6,562.8,272.4,574.6,270.5z"/>
	<path class="st15" d="M604.9,306.4l2,8.8c2.6,11.6-4.9,22.7-16.7,24.6l0,0c-11.8,1.9-23.6-6-26.2-17.6l-3-13.3
		C562.6,310,573.9,316.6,604.9,306.4z"/>
	<path class="st15" d="M597.4,280.4c1.6,2.3,2.8,4.9,3.4,7.7l6.1,27.1c2.6,11.6-4.9,22.7-16.7,24.6l0,0c-1,0.2-2.1,0.3-3.1,0.3
		c-1.6-2.3-2.8-4.9-3.4-7.7l-6.1-27.1c-2.6-11.6,4.9-22.7,16.7-24.6l0,0C595.4,280.5,596.4,280.4,597.4,280.4z"/>
	<path class="st18" d="M613.2,238.5c-1.2-0.3-5.7-0.8-5.7-0.8s-3.8,11.9-16.1,12.6l18,17.8L613.2,238.5z"/>
	<path class="st19" d="M602.3,180.7h4.1c10.8,0,19.1,8.8,18.5,19.5l-0.1,1.6c-0.5,9.9-9,18-18.9,18h-7.3c-9.9,0-17.5-8.1-17-18
		l0.1-1.6C582.3,189.5,591.6,180.7,602.3,180.7z"/>
	<path class="st18" d="M591.1,252c11.3,0,19,8.8,17.1,19.7c-1.9,10.9-12.6,19.7-24,19.7c-11.3,0-19-8.8-17.1-19.7
		S579.7,252,591.1,252z"/>
	<path class="st18" d="M582,246.7c11.3,0,19,8.8,17.1,19.7c-0.3,1.6-0.8,3.2-1.4,4.7c-3.6,2-7.6,3.2-11.8,3.2
		c-11.3,0-19-8.8-17.1-19.7c0.3-1.6,0.8-3.2,1.4-4.7C573.8,247.8,577.9,246.7,582,246.7z"/>
	<path class="st15" d="M572,250.6c-0.6,1.4-1,2.8-1.3,4.2c-1.8,10,5.4,17.5,15.3,17.5c3.8,0,7.5-1.1,10.8-2.9
		c0.7-0.4,1.6-0.3,2.2,0.2c0.6,0.5,0.8,1.4,0.5,2.1c-4.1,9.5-14.1,16.2-24.4,16.2c-12.2,0-21.1-9.6-18.9-21.9
		c1.3-7.6,6.5-14.1,13.2-17.9c0.7-0.4,1.6-0.3,2.2,0.2C572.2,248.9,572.3,249.8,572,250.6z"/>
	<path class="st18" d="M624.9,205.5L624.9,205.5c6,0.9,9.9,6.5,8.7,12.5l-2.6,13.1l0,0l-1.8,9l-2.6,13.1c-1.2,6-7,10.2-13,9.4l0,0
		c-6-0.9-9.9-6.5-8.7-12.5l2.6-13.1l0,0l1.8-9l2.6-13.1C613.1,208.9,618.9,204.7,624.9,205.5z"/>
	<path class="st7" d="M624.9,205.5L624.9,205.5c3.2,0.5,5.8,2.3,7.3,4.8l-0.3,6.3c-0.6,11.1-10.2,20.2-21.3,20.2l0,0
		c-1,0-2-0.1-2.9-0.2l1.7-8.5L612,215C613.1,208.9,618.9,204.7,624.9,205.5z"/>
	<path class="st0" d="M625.8,177.6L625.8,177.6c9.1,0,16.2,7.5,15.7,16.6l-0.4,7.6c-0.4,8.4-7.7,15.2-16,15.2h-2.7
		c-8.4,0-14.9-6.9-14.4-15.2l0.4-7.6C608.9,185.1,616.7,177.6,625.8,177.6z"/>
	<path class="st20" d="M615.3,184.7L615.3,184.7c11.1,0,19.7,9.1,19.1,20.2l-0.4,7.6c-0.6,11.1-10.2,20.2-21.3,20.2l0,0
		c-11.1,0-19.7-9.1-19.1-20.2l0.4-7.6C594.6,193.8,604.2,184.7,615.3,184.7z"/>
	<path class="st18" d="M615.3,184.7L615.3,184.7c1.8,0,3.5,0.2,5.1,0.7c0.5,1.9,0.7,3.9,0.6,6l-0.1,1.6
		c-0.5,10.1-9.3,18.4-19.4,18.4h-7.8l0.3-6.5C594.6,193.8,604.2,184.7,615.3,184.7z"/>
	<path class="st18" d="M622,185.8c7.7,2.8,12.9,10.3,12.4,19l-0.4,7.6c-0.5,8.7-6.5,16.2-14.4,19c-7.7-2.8-12.9-10.3-12.4-19
		l0.4-7.6C608,196.1,614,188.6,622,185.8z"/>
	<path class="st1" d="M621.3,183.8c9.1,3.3,15.3,12.2,14.8,22.6l-0.1,2.4h-2.3c-10,0-17.7-8.1-17.1-18.1l0.3-4.7
		C618.1,185.1,619.7,184.3,621.3,183.8z"/>
	<path class="st18" d="M634.8,204.9L634.8,204.9c3.9,0,6.4,3.2,5.6,7l-0.3,1.4c-0.7,3.6-4.2,6.5-7.8,6.5h-1.1
		c-3.6,0-5.9-2.9-5.1-6.5l0.3-1.4C627.1,208.1,630.9,204.9,634.8,204.9z"/>
	<path class="st0" d="M583.8,157.7h1.9c-10.8,1.8-18.1,11.5-16.6,23.1l0.2,1.9c1.5,11.8,12.4,21.5,24.3,21.5h7.2
		c-1.2,0.2-2.4,0.3-3.6,0.3H588c-11.8,0-22.8-9.7-24.3-21.5l-0.2-1.9C561.7,168.2,570.9,157.7,583.8,157.7z"/>
	<path class="st20" d="M595.7,249.1c12.9,0,21.5,10,19.4,22.3c-2.2,12.3-14.3,22.3-27.2,22.3s-21.5-10-19.4-22.3
		C570.7,259.1,582.8,249.1,595.7,249.1z"/>
	<path class="st15" d="M609,287.4c-5.8,5.7-13.8,9.3-22,9.3c-14.5,0-24.3-11.3-21.8-25.1c0.4-2.3,1.1-4.5,2.1-6.7
		c5.8-5.7,13.8-9.3,22-9.3c14.5,0,24.3,11.3,21.8,25.1C610.7,283.1,609.9,285.3,609,287.4z"/>
	<path class="st7" d="M633.9,208.1L633.9,208.1c2.4,0,3.9,1.9,3.4,4.3l-0.2,0.9c-0.3,1.6-1.6,3.1-3.2,3.6c0.7-0.7,1.3-1.6,1.4-2.5
		l0.2-0.9c0.5-2.4-1-4.3-3.4-4.3l0,0c-0.6,0-1.2,0.1-1.8,0.4C631.3,208.6,632.6,208.1,633.9,208.1z"/>
	<path class="st15" d="M580.7,320c14.4-15,34.7-13.9,45.4,2.6s7.7,42.1-6.6,57.1c-14.4,15-34.7,13.9-45.4-2.6
		C563.3,360.6,566.3,335,580.7,320z"/>
	<path class="st11" d="M586.7,326.8c12.8-13.4,30.9-12.4,40.5,2.3c9.5,14.7,6.9,37.5-5.9,50.9c-12.8,13.4-30.9,12.4-40.5-2.3
		S573.9,340.2,586.7,326.8z"/>
	<path class="st11" d="M663,550.6c12-19.3,15.3-43.8,8.9-66.5c-6.4-22.8-21.6-41-41.3-49.6c-2.9-1.3-5.9-0.6-8.2,1.7
		c-2.2,2.3-3,5.7-2.1,9L649,548c0.9,3.3,3.3,5.6,6.3,6.2C658.4,554.8,661.3,553.5,663,550.6z"/>
	<path class="st17" d="M668,577.8c11.8-19.1,15.9-42.8,11.5-65.6c4.3-1.5,7.1-3.8,7.5-6.9c1.1-7.5-12-16.4-29.3-19.8
		c-17.3-3.5-32.2-0.2-33.3,7.3c-0.6,4,2.8,8.3,8.7,12.1l19.6,70.1c1,3.6,3.6,6.2,6.9,6.8C663,582.3,666.1,580.8,668,577.8z"/>
	<path class="st16" d="M662.7,486.6c-1.6-0.4-3.3-0.8-5-1.2c-17.3-3.5-32.2-0.2-33.3,7.3c-0.6,4,2.8,8.3,8.7,12.1l17.6,63
		c11.1-18.8,14.9-41.9,10.5-64.1c4.3-1.5,7.1-3.8,7.5-6.9C669.3,493.5,666.9,489.9,662.7,486.6z"/>
	<path class="st20" d="M630.5,241.2L630.5,241.2c5.8,4.2,7,12.4,2.7,18.1l-37.6,50.5c-4.3,5.7-12.5,7-18.2,2.7l0,0
		c-5.8-4.2-7-12.4-2.7-18.1l37.6-50.5C616.5,238.2,624.7,237,630.5,241.2z"/>
	<path class="st11" d="M584.2,337.1c7.5-13.1,23.7-16.9,36.1-8.4c12.4,8.5,16.4,26,8.9,39.2c-7.5,13.1-23.7,16.9-36.1,8.4
		C580.7,367.8,576.7,350.3,584.2,337.1z"/>
	<path class="st11" d="M590.5,331.2c12.8-5.9,33,15.3,45,47.4s11.4,62.8-1.5,68.7c-12.8,5.9-33-15.3-45-47.4
		C577,367.9,577.7,337.1,590.5,331.2z"/>
	<path class="st15" d="M618.5,428.2c3.9-1.8,10.1,4.7,13.8,14.5s3.5,19.2-0.4,21s-10.1-4.7-13.8-14.5
		C614.4,439.4,614.6,430,618.5,428.2z"/>
	<path class="st15" d="M587,334.9c9.5-4.3,23.5,11.1,31.4,34.4s6.6,45.6-2.9,49.9s-23.5-11.1-31.4-34.4
		C576.3,361.5,577.6,339.2,587,334.9z"/>
	<path class="st21" d="M525.8,295.5L525.8,295.5c7.5,0,13.5,6.1,13.3,13.6l-0.2,7.1c-0.2,7.5-6.4,13.6-13.9,13.6l0,0
		c-7.5,0-13.5-6.1-13.3-13.6l0.2-7.1C512.1,301.6,518.3,295.5,525.8,295.5z"/>
	<path class="st21" d="M541.8,292.2L541.8,292.2c3,0,5.4,2.5,5.3,5.5l-0.2,7.4c-0.1,3-2.6,5.5-5.6,5.5l0,0c-3,0-5.4-2.5-5.3-5.5
		l0.2-7.4C536.3,294.7,538.8,292.2,541.8,292.2z"/>
	<path class="st21" d="M542.5,324L542.5,324c0.6,2.4-0.9,4.9-3.3,5.6l-10.1,2.7c-2.4,0.6-4.9-0.8-5.5-3.2l0,0
		c-0.6-2.4,0.9-4.9,3.3-5.6l10.1-2.7C539.4,320.1,541.9,321.6,542.5,324z"/>
	<path class="st4" d="M665.3,252.9L665.3,252.9c11.3,4.8,16.5,18,11.5,29.2l-12.1,27.2c-5,11.3-18.4,16.5-29.7,11.7l0,0
		c-11.3-4.8-16.5-18-11.5-29.2l12.1-27.2C640.6,253.4,654,248.1,665.3,252.9z"/>
	<path class="st22" d="M674.6,260.4c4.4,6.2,5.4,14.5,2.1,22.1L664.9,309c-5.1,11.5-18.5,16.9-29.8,12.1l0,0
		c-2.2-0.9-4.1-2.2-5.8-3.6c-4.4-6.2-5.4-14.5-2.1-22.1l11.8-26.6c5.1-11.4,18.5-16.9,29.8-12.1l0,0
		C671,257.7,672.9,258.9,674.6,260.4z"/>
	<path class="st23" d="M657.4,318.4c-6.3,4.6-14.8,5.9-22.3,2.7l0,0c-2.2-0.9-4.1-2.2-5.8-3.6c-4.4-6.2-5.4-14.5-2.1-22.1l10.9-24.6
		c6.3-4.6,14.8-5.9,22.3-2.7l0,0c2.2,0.9,4.1,2.2,5.8,3.6c4.4,6.2,5.4,14.5,2.1,22.1L657.4,318.4z"/>
	<path class="st2" d="M669.5,271.4L669.5,271.4c8.5,3.6,12.4,13.5,8.7,22l-9.1,20.5c-3.8,8.5-13.8,12.5-22.4,8.8l0,0
		c-8.5-3.6-12.4-13.5-8.7-22l9.1-20.5C650.9,271.7,661,267.7,669.5,271.4z"/>
	<path class="st2" d="M494.9,138.4L494.9,138.4c6.2-1.3,12.3,2.7,13.5,8.9l7.8,40.1c1.2,6.2-2.9,12.5-9.1,13.8l0,0
		c-6.2,1.3-12.3-2.7-13.5-8.9l-7.8-40.1C484.6,146,488.7,139.8,494.9,138.4z"/>
	<path class="st2" d="M500.5,60.1L500.5,60.1c8.4-1.8,16.5,3.6,18.2,12l10.5,53.9c1.6,8.4-3.9,16.8-12.2,18.6l0,0
		c-8.4,1.8-16.5-3.6-18.2-12l-10.5-53.9C486.7,70.3,492.2,61.9,500.5,60.1z"/>
	<path class="st13" d="M508.2,60.4c5.2,1.6,9.4,5.9,10.5,11.6l10.5,54.2c1.2,6-1.4,12-6,15.5c-5.2-1.6-9.4-5.9-10.5-11.6l-10.5-54.2
		C501,69.9,503.6,63.9,508.2,60.4z"/>
	<path class="st5" d="M499.7,60c6.7-1.8,13,0.4,14.1,4.9s-3.3,9.7-10,11.5s-13-0.4-14.1-4.9C488.6,66.9,493.1,61.8,499.7,60z"/>
	<path class="st2" d="M500.2,61.5c4.4-1.2,8.5,0.3,9.2,3.2c0.7,3-2.2,6.3-6.5,7.5c-4.4,1.2-8.5-0.3-9.2-3.2
		C492.9,66,495.8,62.6,500.2,61.5z"/>
	<path class="st13" d="M481,79.5L481,79.5c8.4-1.8,16.5,3.6,18.2,12l10.5,53.9c1.6,8.4-3.9,16.8-12.2,18.6l0,0
		c-8.4,1.8-16.5-3.6-18.2-12l-10.5-53.9C467.1,89.7,472.6,81.3,481,79.5z"/>
	<path class="st12" d="M517,190.5c0.2,0.6,0.4,1.3,0.5,1.9c1.6,8.8-4.2,17.3-13,19.1s-17.2-3.9-18.8-12.6c-0.2-1.2-0.3-2.5-0.2-3.7
		c2.4,7.6,10.2,12.3,18.3,10.7C511.2,204.5,516.6,197.9,517,190.5z"/>
	<path class="st12" d="M520.2,208c0.2,0.6,0.4,1.3,0.5,1.9c1.6,8.8-4.2,17.3-13,19.1s-17.2-3.9-18.8-12.6c-0.2-1.2-0.3-2.5-0.2-3.7
		c2.4,7.6,10.2,12.3,18.3,10.7C514.5,221.9,519.9,215.4,520.2,208z"/>
	<path class="st24" d="M497.6,251.6L497.6,251.6c2.5-1.8,6-1.2,7.8,1.3l4.2,5.9c1.8,2.5,1.2,6-1.3,7.9l0,0c-2.5,1.8-6,1.2-7.8-1.3
		l-4.2-5.9C494.5,256.9,495.1,253.4,497.6,251.6z"/>
	<path class="st21" d="M513.4,241.4l4.5-1.2c8.7-2.3,17.6,2.9,19.7,11.6l0,0c2.2,8.7-3.2,17.8-11.9,20.1l-4.5,1.2
		c-8.7,2.3-17.6-2.9-19.7-11.6l0,0C499.4,252.7,504.7,243.7,513.4,241.4z"/>
	<path class="st24" d="M497.2,248.4L497.2,248.4c-0.2-3,2.2-5.7,5.2-5.9l7.6-0.6c3-0.2,5.7,2.1,5.8,5.1l0,0c0.2,3-2.2,5.7-5.2,5.9
		l-7.6,0.6C500,253.7,497.4,251.4,497.2,248.4z"/>
	<path class="st24" d="M491.7,239.4L491.7,239.4c2.1-2.2,5.7-2.3,7.9-0.2l5.2,5c2.2,2.1,2.3,5.7,0.2,7.9l0,0
		c-2.1,2.2-5.7,2.3-7.9,0.2l-5.2-5C489.7,245.2,489.6,241.7,491.7,239.4z"/>
	<path class="st21" d="M530.6,236.2L530.6,236.2c3-0.6,5.9,1.4,6.4,4.4l1.3,7.3c0.5,3-1.5,6-4.5,6.6l0,0c-3,0.6-5.9-1.4-6.4-4.4
		l-1.3-7.3C525.6,239.7,527.6,236.8,530.6,236.2z"/>
	<path class="st21" d="M524.4,228.8L524.4,228.8c2-2,5.2-1.9,7.2,0.1l4.6,4.7c2,2,1.9,5.2-0.1,7.2l0,0c-2,2-5.2,1.9-7.2-0.1
		l-4.6-4.7C522.4,234,522.4,230.8,524.4,228.8z"/>
	<path class="st25" d="M538.7,248.8c7.9,3.1,10.8,11.7,6.6,19.1s-14,11-21.8,7.8c-7.9-3.1-10.8-11.7-6.6-19.1
		C521.1,249.1,530.9,245.6,538.7,248.8z"/>
	<path class="st20" d="M524.9,258.7L524.9,258.7c4.3-5.9,12.7-7.1,18.6-2.8l48.8,35.7c5.9,4.3,7.2,12.6,2.8,18.5l0,0
		c-4.3,5.9-12.7,7.1-18.6,2.8l-48.8-35.7C521.8,272.9,520.5,264.6,524.9,258.7z"/>
	<path class="st26" d="M585.2,315.5c-2.9,0.2-5.9-0.6-8.4-2.4l-49.3-36c-5.1-3.7-6.6-10.7-3.8-16.3c2.9-0.2,5.9,0.6,8.4,2.4l49.3,36
		C586.5,302.9,588,309.8,585.2,315.5z"/>
	<path class="st24" d="M491.2,244L491.2,244c1.5-1.5,3.9-1.6,5.5-0.1l3.6,3.4c1.5,1.5,1.6,3.9,0.1,5.4l0,0c-1.5,1.5-3.9,1.6-5.4,0.1
		l-3.6-3.4C489.7,248,489.7,245.5,491.2,244z"/>
	<path class="st5" d="M526.6,198.3L526.6,198.3c2.4-0.5,4.8,1,5.2,3.4l3,15.5c0.5,2.4-1.1,4.8-3.5,5.3l0,0c-2.4,0.5-4.8-1-5.2-3.5
		l-3-15.5C522.7,201.3,524.2,198.9,526.6,198.3z"/>
	<path class="st25" d="M626.3,261.1c4.1,7.5,0.5,17.5-7.8,23.3c3.4-5.3,4.2-11.6,1.4-16.7c-4.4-8.1-16-10.2-25.9-4.7
		c-0.8,0.4-1.5,0.9-2.2,1.4c2-3.1,4.9-5.9,8.6-8C610.3,250.8,621.9,252.9,626.3,261.1z"/>
	<path class="st25" d="M615.8,274.6c4.3,6.3,1.3,14.9-6.5,20.3c3.1-4.7,3.5-10.1,0.6-14.4c-4.6-6.8-15.9-8.1-25.3-3
		c-0.7,0.4-1.4,0.8-2.1,1.3c1.8-2.8,4.5-5.3,8-7.2C599.9,266.5,611.2,267.8,615.8,274.6z"/>
	<path class="st2" d="M626.5,251.2c3.9,2.6,1.3,12.3-5.8,21.7s-16,14.9-19.9,12.3s-1.3-12.3,5.8-21.7
		C613.7,254.1,622.6,248.6,626.5,251.2z"/>
	<path class="st27" d="M625,253.7c3.2,2.1,1.1,10.1-4.8,17.7c-5.8,7.7-13.1,12.2-16.3,10.1s-1.1-10.1,4.8-17.7
		C614.5,256.1,621.8,251.6,625,253.7z"/>
	<path class="st28" d="M587.3,202.9l38.6-3.8c2.3-0.2,4.3,1.5,4.4,3.8l0.3,6.4c0.3,5.8-4.3,11-10,11.6l-25.9,2.5
		c-5.8,0.6-10.7-3.7-11-9.5l-0.3-6.4C583.2,205.2,585,203.2,587.3,202.9z"/>
	<path class="st29" d="M585,203.9l38.6-3.8c2.3-0.2,4.3,1.5,4.4,3.8l0.3,6.4c0.3,5.8-4.3,11-10,11.6l-25.9,2.5
		c-5.8,0.6-10.7-3.7-11-9.5l-0.3-6.4C580.9,206.2,582.7,204.1,585,203.9z"/>
	<path class="st30" d="M612.9,201.1l10.6-1c2.3-0.2,4.3,1.5,4.4,3.8l0.3,6.4c0.3,5.8-4.3,11-10.1,11.6l-17.9,1.7
		C600.6,214.2,605.6,206,612.9,201.1z"/>
	<path class="st15" d="M586.5,206l34-3.2c1.4-0.1,2.7,0.9,2.7,2.4l0.3,5.8c0.2,4.6-3.4,8.8-8,9.2l-22.5,2.1c-4.6,0.4-8.6-3-8.8-7.6
		l-0.3-5.8C583.9,207.5,585,206.2,586.5,206z"/>
	<path class="st15" d="M600.6,205.6l18.4-1.7c1.3-0.1,2.4,0.8,2.5,2.1l0.2,5.2c0.2,4.1-3,7.8-7.2,8.2l-8.7,0.8
		c-3.5-3.7-5.5-8.7-5.2-14.3V205.6z"/>
	<path class="st0" d="M594.6,160.1h5.4c12.9,0,22.9,10.5,22.2,23.4l-0.1,1.9c-0.6,11.8-10.8,21.5-22.7,21.5h-9.2
		c-11.8,0-21-9.7-20.4-21.5l0.1-1.9C570.7,170.6,581.8,160.1,594.6,160.1z"/>
	<path class="st31" d="M604.2,191.7c1.7,0.9,2,3.3,0.9,5.2c-1.2,1.9-3.5,2.8-5.1,1.8c-1.7-0.9-2-3.3-0.9-5.2
		C600.3,191.6,602.6,190.7,604.2,191.7z"/>
	<path class="st1" d="M598.4,170.5h4.6c11,0,19.6,9,19,20.1l-0.1,1.6c-0.5,10.1-9.3,18.4-19.4,18.4h-0.7c6.4-2.9,11.2-9.3,11.5-16.7
		l0.1-1.6c0.6-11-8-20.1-19-20.1h-4.2C592.7,171.1,595.5,170.5,598.4,170.5z"/>
	<path class="st32" d="M669.9,277.7L669.9,277.7c6.9,2.9,10,10.9,7,17.7l-7.3,16.5c-3,6.8-11.1,10-18,7.1l0,0
		c-6.9-2.9-10-10.9-7-17.7l7.3-16.5C654.9,278,663,274.8,669.9,277.7z"/>
	<path class="st15" d="M669.9,277.7L669.9,277.7c0.8,0.3,1.5,0.7,2.2,1.2c1.2,3.5,1.1,7.4-0.5,11.1l-8,18c-2.7,6.1-8.8,9.6-15.1,9.3
		c-4.7-3.7-6.5-10.4-3.9-16.2l7.1-16.1C654.9,278.1,663,274.8,669.9,277.7z"/>
	<path class="st2" d="M642.8,247.8L642.8,247.8c1.7-1.4,4.2-1.2,5.6,0.5l3.1,3.7c1.4,1.7,1.2,4.2-0.5,5.7l0,0
		c-1.7,1.4-4.2,1.2-5.6-0.5l-3.1-3.7C641,251.7,641.2,249.2,642.8,247.8z"/>
	<path class="st4" d="M644.6,249.9L644.6,249.9c1-0.8,2.4-0.7,3.2,0.3l1.8,2.1c0.8,1,0.7,2.4-0.3,3.2l0,0c-1,0.8-2.4,0.7-3.2-0.3
		l-1.8-2.1C643.5,252.1,643.7,250.7,644.6,249.9z"/>
	<path class="st2" d="M614.2,300.9L614.2,300.9c-0.1-2.2,1.6-4.1,3.8-4.2l5.1-0.3c2.2-0.1,4,1.5,4.1,3.7l0,0
		c0.1,2.2-1.6,4.1-3.8,4.2l-5.1,0.3C616.2,304.7,614.3,303.1,614.2,300.9z"/>
	<path class="st4" d="M617,300.7L617,300.7c0-1.2,0.9-2.3,2.2-2.4l2.9-0.2c1.2-0.1,2.3,0.9,2.3,2.1l0,0c0.1,1.2-0.9,2.3-2.2,2.4
		l-2.9,0.2C618.1,302.9,617,302,617,300.7z"/>
	<path class="st2" d="M667.4,294.3l1.1,7.7c0.2,1.1-0.3,2.2-1.2,2.9c-0.9,0.7-2,0.9-3.1,0.5l-7.2-2.7c-1.1-0.4-1.8-1.3-1.9-2.4
		c-0.2-1.1,0.3-2.2,1.2-2.9l6.1-4.9c0.9-0.7,2-0.9,3.1-0.5C666.5,292.3,667.2,293.2,667.4,294.3z"/>
	<polygon class="st29" points="664.3,294.8 664.9,298.7 665.4,302.5 661.8,301.1 658.2,299.7 661.3,297.3 	"/>
	<path class="st2" d="M504.3,141l0.7,7.4c0.1,1.1-0.2,2.2-0.9,3.1c-0.7,0.9-1.5,1.3-2.2,1l-5.2-1.5c-0.8-0.2-1.3-1-1.4-2.1
		s0.2-2.2,0.9-3.1l4.5-6c0.7-0.9,1.5-1.3,2.2-1C503.7,139.2,504.2,139.9,504.3,141z"/>
	<polygon class="st16" points="502,142 502.4,145.8 502.8,149.5 500.2,148.7 497.5,148 499.8,145 	"/>
	<path class="st15" d="M598.2,382.2c1.9-0.9,4.7,2.2,6.3,6.9c1.6,4.7,1.3,9.2-0.6,10.1c-1.9,0.9-4.7-2.2-6.3-6.9
		C596,387.6,596.3,383.1,598.2,382.2z"/>
	<path class="st5" d="M592,374.6c0.7-0.3,1.9,0.9,2.5,2.7c0.6,1.8,0.5,3.6-0.2,3.9s-1.9-0.9-2.5-2.7
		C591.1,376.7,591.2,374.9,592,374.6z"/>
	<path class="st10" d="M661.4,468.2c1.2-0.6,3,1.4,4.1,4.5c1,3,0.8,5.9-0.4,6.5s-3-1.4-4.1-4.5C660,471.7,660.1,468.8,661.4,468.2z"
		/>
	<path class="st10" d="M651.9,455.5c0.6-0.3,1.5,0.7,2,2.2s0.4,2.9-0.2,3.2c-0.6,0.3-1.5-0.7-2-2.2S651.2,455.8,651.9,455.5z"/>
	<path class="st24" d="M521.6,299.3L521.6,299.3c4.9,0,8.9,4,8.7,8.9l-0.1,4.6c-0.1,4.9-4.2,8.9-9.1,8.9l0,0c-4.9,0-8.8-4-8.7-8.9
		l0.1-4.6C512.5,303.3,516.6,299.3,521.6,299.3z"/>
	<path class="st4" d="M655.2,223.8L655.2,223.8c6.2,0,11.2,5.1,11.1,11.3l0,0c-0.1,6.2-5.4,11.3-11.6,11.3l0,0
		c-6.2,0-11.2-5.1-11.1-11.3l0,0C643.8,228.9,649,223.8,655.2,223.8z"/>
	<path class="st2" d="M658.3,228.9L658.3,228.9c3.4,0,6.2,2.8,6.1,6.2l0,0c-0.1,3.4-2.9,6.2-6.4,6.2l0,0c-3.4,0-6.2-2.8-6.1-6.2l0,0
		C652,231.7,654.8,228.9,658.3,228.9z"/>
	<path class="st1" d="M553.5,577.1c24.1-2.4,43.2,0.8,42.7,7.2c-0.6,6.4-20.6,13.6-44.7,16.1c-24.1,2.4-43.2-0.8-42.7-7.2
		C509.4,586.7,529.4,579.5,553.5,577.1z"/>
	<path class="st9" d="M586,584.2c8.4-2.9,10.7-10,5.2-15.8c-5.6-5.8-16.9-8.1-25.3-5.1c-8.4,2.9-10.7,10-5.2,15.8
		C566.3,584.8,577.6,587.1,586,584.2z"/>
	<path class="st9" d="M565.5,545.4c-5.6-10.5-13.3-13.9-17.3-7.5s-2.7,20.1,2.8,30.6c5.6,10.5,13.3,13.9,17.3,7.5
		C572.3,569.7,571.1,556,565.5,545.4z"/>
	<path class="st29" d="M550.4,572.9c21.2-2.2,38,0.7,37.5,6.4s-18.1,12-39.3,14.2s-38-0.7-37.5-6.4
		C511.5,581.4,529.1,575,550.4,572.9z"/>
	<path class="st29" d="M538.6,566.7c14.2-6.5,25.4-8.6,25.1-4.9c-0.3,3.8-12.1,12.1-26.2,18.5c-14.2,6.5-25.4,8.6-25.1,4.9
		C512.7,581.4,524.5,573.1,538.6,566.7z"/>
	<path class="st29" d="M546.8,569.2c13.7-6,24.5-8,24.2-4.5s-11.6,11.2-25.3,17.2s-24.5,8-24.2,4.5
		C521.9,582.9,533.2,575.2,546.8,569.2z"/>
	<path class="st3" d="M562.6,544.9c-5-10.5-12.6-13.8-17-7.5c-4.4,6.4-3.8,20.1,1.2,30.5c5,10.5,12.6,13.8,17,7.5
		C568.1,569.1,567.6,555.4,562.6,544.9z"/>
	<path class="st29" d="M566.5,562.7c-2.4-6-6.7-7.9-9.5-4.3c-2.8,3.7-3.1,11.5-0.6,17.5c2.4,6,6.7,7.9,9.5,4.3
		C568.6,576.6,568.9,568.7,566.5,562.7z"/>
	<path class="st29" d="M583.3,573.5c4.2-6.2,0.9-11.4-7.3-11.8c-8.2-0.3-18.2,4.4-22.3,10.5c-4.2,6.2-0.9,11.4,7.3,11.8
		C569.1,584.4,579.1,579.7,583.3,573.5z"/>
	<path class="st3" d="M564.5,571.9c0.5,8.7,6.8,12.4,14,8.3c7.2-4.1,12.7-14.4,12.1-23.1c-0.5-8.7-6.8-12.4-14-8.3
		C569.4,552.9,564,563.2,564.5,571.9z"/>
	<path class="st29" d="M571.4,570.9c0.3,5.7,4.5,8.2,9.3,5.5s8.4-9.5,8-15.3c-0.3-5.7-4.5-8.2-9.3-5.5
		C574.6,558.4,571,565.2,571.4,570.9z"/>
	<path class="st29" d="M557.8,545.7c-3-7.8-8.4-10.3-12.2-5.5c-3.7,4.7-4.4,14.9-1.4,22.7s8.4,10.3,12.2,5.5
		C560.2,563.6,560.8,553.4,557.8,545.7z"/>
	<path class="st29" d="M547.2,576.9c9.5-5.3,12.5-10.7,6.6-12s-18.3,2-27.8,7.4c-9.5,5.3-12.5,10.7-6.6,12
		C525.3,585.5,537.7,582.2,547.2,576.9z"/>
	<path class="st3" d="M549.4,564.1c4.6,1.4,8.4,5.1,9.9,9.2c-2.5-2.7-6-5-10.1-6.2c-4.2-1.3-8-1.2-10.8-0.1
		C540.4,564,544.7,562.7,549.4,564.1z"/>
	<path class="st3" d="M541.7,567.2c4.4,1.4,8,4.9,9.5,8.8c-2.4-2.6-5.8-4.8-9.6-6c-4-1.2-7.7-1.2-10.4-0.1
		C533.2,567,537.2,565.8,541.7,567.2z"/>
	<path class="st3" d="M534.7,570.1c4.4,1.4,8,4.9,9.5,8.8c-2.4-2.6-5.8-4.8-9.6-6c-4-1.2-7.7-1.2-10.4-0.1
		C526.2,569.9,530.2,568.7,534.7,570.1z"/>
	<path class="st15" d="M580.5,354.2c-0.6,12.7,2.2,29.1,8.4,45.9c7.2,19.3,17.3,34.6,27,42.5c0.4,2.2,1.1,4.4,1.9,6.8
		c1.8,4.7,4.1,8.7,6.5,11.3l7,25.4c1.4-0.5,3-1,4.8-1.3l-7.9-25.7c-2.5-2.7-5-6.7-6.9-11.5c-0.9-2.3-1.7-4.7-2.2-6.9
		c-10-8.1-20.7-23.7-28.6-43.2C584.3,381.9,580.9,366.6,580.5,354.2L580.5,354.2z M657.1,554.5c1-0.1,1.9-0.4,2.8-1
		c-0.7-0.4-1.3-0.9-1.9-1.5C657.7,552.8,657.4,553.7,657.1,554.5z"/>
	<path class="st1" d="M660.7,587c-17.3,0.4-31.2,7.8-31.1,16.4c0.1,8.6,10.8,19.2,28.1,18.7c17.3-0.4,34.6-11.7,34.5-20.3
		C692.2,593.1,678,586.5,660.7,587z"/>
	<path class="st14" d="M660.6,591.3c-11.5-0.6-21.4-10.7-22.1-22.5s5.3-26.7,16.8-26c11.5,0.6,24.2,16.4,24.9,28.3
		C680.8,582.8,672.1,591.9,660.6,591.3z"/>
	<path class="st3" d="M649.3,587.4c-6.1-4.1-10.4-11-10.8-18.7c-0.7-11.1,4.5-24.8,14.7-26c7.8,5.6,14.3,15.9,14.8,24.3
		C668.6,578.6,660.3,587.5,649.3,587.4z"/>
	<path class="st3" d="M677.7,581.7c1.3,6.5,4.4,8.6,6.8,4.8c2.5-3.9,3.4-12.3,2.1-18.7c-1.3-6.5-4.4-8.6-6.8-4.8
		S676.4,575.2,677.7,581.7z"/>
	<path class="st29" d="M657.8,587.6c-8.7-0.5-16.2-8.1-16.7-17s4-20.1,12.7-19.7c8.7,0.5,18.3,12.4,18.8,21.3
		C673.1,581.2,666.5,588,657.8,587.6z"/>
	<path class="st29" d="M660.4,580c-16.4,0.5-29.6,7.9-29.5,16.6c0.1,8.7,10.1,19.7,26.5,19.2s33.1-12.1,32.9-20.9
		C690.2,586.3,676.8,579.5,660.4,580z"/>
	<path class="st29" d="M657.1,580.2c-14.8,1.3-26.3,8.3-26.1,16.4c0.1,6.5,5.6,14.2,15.2,17.6c14.5-2.5,27.6-12.6,27.5-20.3
		C673.5,587.7,666.8,582.5,657.1,580.2z"/>
	<path class="st29" d="M658.3,581.9c-10.6,0.3-19.2,5.1-19.1,10.8c0.1,5.7,6.5,12.7,17.2,12.4c10.6-0.3,21.4-7.9,21.3-13.5
		C677.6,586,668.9,581.6,658.3,581.9z"/>
	<path class="st3" d="M658.3,578.2c7,0.1,13,2.7,15.9,6.3c-4-2-9.6-3.2-15.7-3.3c-6.3-0.1-11.9,1.2-16,3.1
		C645.2,580.7,651.3,578.2,658.3,578.2z"/>
	<path class="st3" d="M658.1,572.5c7-0.4,13,1.8,15.8,5.3c-4-1.7-9.6-2.6-15.7-2.2c-6.3,0.4-11.9,1.9-16,4.2
		C645,575.8,651,572.8,658.1,572.5z"/>
	<path class="st3" d="M658,583.5c9,0.1,16.8,3.4,20.5,8.2c-5.2-2.5-12.4-4.2-20.3-4.2c-8.1-0.1-15.4,1.5-20.6,4.1
		C641,586.8,648.9,583.4,658,583.5z"/>
	<path class="st29" d="M681.3,581.1c0.8,4.9,2.6,6.5,4.1,3.6s2.1-9.3,1.4-14.2c-0.8-4.9-2.6-6.5-4.1-3.6
		C681.1,569.8,680.5,576.2,681.3,581.1z"/>
	<path class="st5" d="M662.7,502.2c12.8,3.8,21.2,10.9,19.7,16.3c-2.1-4.5-9.4-9.4-19.2-12.3c-13.6-4.1-27-3-30,2.4
		c-0.2,0.3-0.3,0.6-0.4,1c-0.8-1.7-0.9-3.4-0.1-4.9C635.6,499.2,649.1,498.1,662.7,502.2z"/>
	<path class="st5" d="M583.3,499.5c10.4,6.9,15.9,15.6,13.1,20c-0.7-4.7-5.8-11-13.8-16.3c-11-7.4-23.2-10-27.3-5.9
		c-0.2,0.2-0.4,0.5-0.6,0.8c-0.3-1.8,0.1-3.3,1.3-4.5C560,489.5,572.3,492.1,583.3,499.5z"/>
	<path class="st12" d="M481,79.5L481,79.5c3.8-0.8,7.6-0.2,10.8,1.6c-0.3,0-0.7,0.1-1,0.2l0,0c-8.8,1.9-14.6,10.6-12.9,19.3l11,56.9
		c0.5,2.5,1.5,4.8,3,6.7c-6.2-0.9-11.4-5.6-12.7-12L468.7,98C467.1,89.6,472.6,81.3,481,79.5z"/>
	<path class="st5" d="M480.2,79.4c6.7-1.8,13,0.4,14.1,4.9s-3.3,9.7-10,11.5s-13-0.4-14.1-4.9C469,86.4,473.5,81.2,480.2,79.4z"/>
	<path class="st2" d="M480.6,80.9c4.3-1.2,8.5,0.3,9.2,3.2c0.7,3-2.2,6.3-6.5,7.5s-8.5-0.3-9.2-3.2
		C473.4,85.4,476.3,82.1,480.6,80.9z"/>
	<path class="st5" d="M501,113.2c0.2,0.6,0.4,1.3,0.5,1.9c1.6,8.8-4.2,17.3-13,19.1s-17.2-3.9-18.8-12.6c-0.2-1.2-0.3-2.5-0.2-3.7
		c2.4,7.6,10.2,12.3,18.3,10.7C495.3,127.1,500.6,120.6,501,113.2z"/>
	<path class="st26" d="M622.4,238.8c4.6,0,8.2,1.9,8.2,4.4c-0.1,2.4-3.8,4.4-8.4,4.4c-4.6,0-8.2-1.9-8.2-4.4
		C614.1,240.8,617.9,238.8,622.4,238.8z"/>
	<path class="st15" d="M616.6,335.3c3.4-1.1,8.7,2.9,11.9,9s3.1,11.9-0.3,13c-3.4,1.1-8.7-2.9-11.9-9
		C613.2,342.2,613.3,336.4,616.6,335.3z"/>
	<path class="st0" d="M644.8,168.9c8.8,0,14.8,7.1,13.5,15.9c-1.3,8.8-9.5,15.9-18.3,15.9s-14.8-7.1-13.5-15.9
		C627.9,176,636.1,168.9,644.8,168.9z"/>
	<path class="st0" d="M663.2,131.1c0.9,0,1.9,0,2.8,0.1c-16.9,1.9-31.9,15.9-34.5,33c-2.7,17.4,8.6,31.7,25.4,33.1
		c-1.2,0.1-2.5,0.2-3.8,0.2c-18.4,0-31-14.9-28.2-33.2S644.8,131.1,663.2,131.1z"/>
	<path class="st0" d="M668.5,137.5c18.4,0,31,14.9,28.2,33.2c-2.8,18.4-19.9,33.2-38.3,33.2c-18.4,0-31-14.9-28.2-33.2
		S650.2,137.5,668.5,137.5z"/>
	<path class="st1" d="M658.6,146.6c0.7,0,1.4,0,2.1,0.1c-12.6,1.4-23.8,11.9-25.8,24.7c-2,13,6.4,23.7,19,24.7
		c-0.9,0.1-1.9,0.2-2.8,0.2c-13.7,0-23.1-11.1-21-24.8C632.1,157.7,644.9,146.6,658.6,146.6z"/>
	<path class="st1" d="M595.9,162.9c7.4,1,12.2,7.4,11.1,15.2c-1.3,8.5-9.2,15.3-17.6,15.3c-2.6,0-4.9-0.6-6.9-1.8
		c0.6,0.1,1.3,0.1,1.9,0.1c8.5,0,16.3-6.9,17.6-15.3C602.9,170.6,600.3,165.5,595.9,162.9z"/>
	<path class="st1" d="M606.2,170.4c9.1,1.2,15.1,9.1,13.7,18.7c-1.6,10.4-11.3,18.9-21.8,18.9c-3.2,0-6.1-0.8-8.5-2.2
		c0.8,0.1,1.6,0.1,2.4,0.1c10.4,0,20.2-8.5,21.8-18.9C614.8,179.9,611.7,173.5,606.2,170.4z"/>
	<path class="st1" d="M597.1,163.7c5.2,2.9,6.4,10.3,2.7,16.4c-3.7,6.1-10.9,8.7-16.1,5.8c-5.2-2.9-6.4-10.3-2.7-16.4
		C584.8,163.3,592,160.7,597.1,163.7z"/>
	<path class="st5" d="M593.9,162.1c-7.7-2.8-16.5,4.1-19.9,15.4c-3.2,10.9,0,22,7,25.4c-4.8-4.7-6.6-14-3.9-23.2
		c3.3-11.4,12.2-18.3,19.9-15.4c0.3,0.1,0.6,0.2,0.8,0.4C596.7,163.5,595.4,162.6,593.9,162.1z"/>
	<path class="st5" d="M595.6,173.5c-4.9-3.4-12.4,0.1-16.7,7.7c-4.1,7.3-3.8,15.8,0.6,19.4c-2.6-4.2-2.3-11.2,1.2-17.3
		c4.3-7.6,11.8-11,16.7-7.7c0.2,0.1,0.4,0.3,0.5,0.4C597.3,175,596.5,174.1,595.6,173.5z"/>
	<path class="st1" d="M671.7,141.4c18.4,0,31,14.9,28.2,33.2c-2,13-11.1,24.2-22.8,29.7c8.9-6.1,15.5-15.7,17.1-26.4
		c2.8-18.4-9.8-33.2-28.2-33.2c-5.4,0-10.6,1.3-15.5,3.5C656.8,143.9,664.1,141.4,671.7,141.4z"/>
	<path class="st31" d="M661.7,139.3c12.7,0,21.5,10.3,19.5,23c-1.9,12.7-13.8,23-26.5,23s-21.5-10.3-19.5-23
		C637.1,149.6,648.9,139.3,661.7,139.3z"/>
	<path class="st5" d="M643.3,168.9c3.3,0,5.5,2.7,5,5.9c-0.5,3.3-3.6,5.9-6.8,5.9c-3.3,0-5.5-2.7-5-5.9
		C637,171.5,640.1,168.9,643.3,168.9z"/>
	<path class="st1" d="M663.2,140.5c15-0.1,25.4,12,23.2,27c-2.1,14.5-15.1,26.3-29.5,27.3c11.5-3.6,20.9-13.9,22.7-26
		c2.2-15-8.2-27.1-23.2-27c-0.6,0-1.1,0-1.7,0.1C657.5,141,660.3,140.6,663.2,140.5z"/>
	<path class="st5" d="M637.1,162.4c1.4,0,2.3,1.1,2.1,2.5s-1.5,2.5-2.9,2.5s-2.3-1.1-2.1-2.5C634.4,163.5,635.7,162.4,637.1,162.4z"
		/>
	<path class="st5" d="M673.7,135.6c-7.7-2.8-16.5,4.1-19.9,15.4c-3.2,10.9,0,22,7,25.4c-4.8-4.7-6.6-14-3.9-23.2
		c3.3-11.4,12.2-18.3,19.9-15.4c0.3,0.1,0.6,0.2,0.8,0.4C676.5,137,675.2,136.1,673.7,135.6z"/>
	<path class="st5" d="M653.5,137.4c-6.3,0-11,7.3-10.3,16.3c0.6,8.7,5.8,15.8,11.9,16.3c-4.8-2.1-8.5-8.3-9-15.5
		c-0.6-9,4-16.3,10.3-16.3c0.2,0,0.5,0,0.7,0C655.9,137.7,654.7,137.4,653.5,137.4z"/>
	<path class="st5" d="M664.9,189.8c1.1,0.6,1.3,2.1,0.6,3.4c-0.8,1.3-2.3,1.8-3.3,1.2c-1.1-0.6-1.3-2.1-0.6-3.4
		C662.3,189.7,663.8,189.2,664.9,189.8z"/>
	<path class="st5" d="M582.4,191.6c0.5,0.3,0.6,1,0.3,1.6c-0.4,0.6-1,0.8-1.5,0.5s-0.6-1-0.3-1.6
		C581.2,191.6,581.9,191.3,582.4,191.6z"/>
	<path class="st2" d="M638,211.1L638,211.1c0.7,0,1.2,0.6,1,1.3l-0.1,0.3c-0.1,0.7-0.8,1.2-1.5,1.2h-0.2c-0.7,0-1.1-0.5-1-1.2
		l0.1-0.3C636.5,211.7,637.3,211.1,638,211.1z"/>
	<path class="st2" d="M639.3,205.5L639.3,205.5c1.7,0,2.7,1.4,2.4,3l-0.1,0.6c-0.1,0.6-0.5,1.2-0.9,1.7c0-0.1,0-0.2,0.1-0.3l0.1-0.5
		c0.3-1.4-0.6-2.6-2.1-2.6l0,0c-1.4,0-2.8,1.2-3.1,2.6l-0.1,0.3c-0.1-0.4-0.1-0.8,0-1.2l0.1-0.6C636,206.8,637.6,205.5,639.3,205.5z
		"/>
	<path class="st5" d="M638.9,218.6L638.9,218.6c1.1,0,1.9-0.9,1.7-2l-0.1-0.4c-0.1-0.4-0.3-0.8-0.6-1.1c0,0.1,0,0.1,0,0.2l0.1,0.4
		c0.2,1-0.5,1.8-1.5,1.8l0,0c-1,0-1.9-0.8-2-1.8v-0.2c-0.1,0.2-0.1,0.5-0.1,0.8l0.1,0.4C636.7,217.7,637.8,218.6,638.9,218.6z"/>
	<path class="st15" d="M549.6,385.3c1.9-0.9,4.7,2.2,6.3,6.9c1.6,4.7,1.3,9.2-0.6,10.1c-1.9,0.9-4.7-2.2-6.3-6.9
		C547.5,390.7,547.7,386.1,549.6,385.3z"/>
	<path class="st15" d="M557.5,410.2c0.5-0.2,1.3,0.6,1.7,1.8c0.4,1.2,0.3,2.4-0.2,2.7c-0.5,0.2-1.3-0.6-1.7-1.8
		C556.9,411.6,557,410.4,557.5,410.2z"/>
	<path class="st5" d="M561.9,289.8c1-0.5,2.6,1.2,3.4,3.7c0.9,2.5,0.7,5-0.3,5.4c-1,0.5-2.6-1.2-3.4-3.7
		C560.7,292.7,560.8,290.3,561.9,289.8z"/>
	<path class="st5" d="M550.5,279.8c0.5-0.2,1.3,0.6,1.7,1.9s0.4,2.5-0.2,2.7c-0.5,0.2-1.3-0.6-1.7-1.9
		C549.9,281.3,550,280.1,550.5,279.8z"/>
	<path class="st5" d="M479.4,137.7c1-0.4,2.4,1.2,3.2,3.6c0.8,2.4,0.7,4.7-0.3,5.2c-1,0.4-2.4-1.2-3.2-3.6
		C478.3,140.4,478.4,138.1,479.4,137.7z"/>
	<path class="st4" d="M649.9,353.7h8.3c1.4,0,2.6,1.1,2.7,2.5l1.4,20.2c0.1,1.4-1,2.5-2.4,2.5h-8.3c-1.4,0-2.6-1.1-2.7-2.5
		l-1.4-20.2C647.4,354.9,648.5,353.7,649.9,353.7z"/>
	<path class="st2" d="M651.6,363.8h6.3c1.1,0,2,0.9,2.1,1.9l1.5,21.4c0.1,1.1-0.7,1.9-1.8,1.9h-6.3c-1.1,0-2-0.9-2.1-1.9l-1.5-21.4
		C649.7,364.7,650.5,363.8,651.6,363.8z"/>
	<path class="st5" d="M655.8,379.8c2.6,0,5,1,6.8,2.7s3,4,3.2,6.6s-0.7,4.9-2.3,6.6s-3.8,2.7-6.4,2.7c-2.6,0-5-1-6.8-2.7
		s-3-4-3.2-6.6s0.7-4.9,2.3-6.6C651,380.9,653.3,379.8,655.8,379.8L655.8,379.8z M661.1,384.1c-1.4-1.3-3.2-2.1-5.1-2.1
		c-1.9,0-3.7,0.8-4.8,2.1c-1.2,1.3-1.9,3-1.7,5c0.1,1.9,1,3.7,2.4,5s3.2,2.1,5.1,2.1c1.9,0,3.7-0.8,4.8-2.1c1.2-1.3,1.9-3,1.7-5
		C663.4,387.2,662.5,385.4,661.1,384.1z"/>
	<path class="st4" d="M654.5,375.2h2.7c0.5,0,0.8,0.4,0.9,0.8l0.6,9.1c0,0.5-0.3,0.8-0.8,0.8h-2.7c-0.5,0-0.8-0.4-0.9-0.8l-0.6-9.1
		C653.7,375.6,654,375.2,654.5,375.2z"/>
	<path class="st14" d="M571.4,568.1c0.3,5.1,3.6,7.6,7.7,6.2c-3-0.1-5.1-2.5-5.4-6.6c-0.3-5.7,3.3-12.6,8-15.3
		c0.5-0.3,1-0.5,1.5-0.7c-1.2,0-2.5,0.3-3.9,1.1C574.7,555.5,571.1,562.4,571.4,568.1z"/>
	<path class="st14" d="M545.9,591.2c-1,5.1-7.8,7.1-15.9,5c5.9,0.4,10.4-1.7,11.2-5.7c1.1-5.7-5.6-13-15-16.5c-1-0.4-2-0.7-3-0.9
		c2.4,0.1,5,0.7,7.7,1.7C540.3,578.2,547,585.6,545.9,591.2z"/>
	<path class="st14" d="M694,608.4c-0.2,4.2-6.8,7.3-15.3,7.4c6-1,10.2-3.6,10.4-7c0.3-4.7-7.6-9.2-17.5-9.9
		c-1.1-0.1-2.1-0.1-3.1-0.1c2.4-0.4,5.1-0.5,8-0.3C686.4,599.2,694.2,603.6,694,608.4z"/>
	<path class="st5" d="M520.6,273.2l-0.9,0.3c-6.4,1.7-12.9-0.6-16.8-5.4c-1.6-0.1-3.1-0.9-4.1-2.3l-4.3-6.1c-1.3-1.8-1.3-4.2-0.2-6
		c0.2,0.7,0.4,1.3,0.9,1.9l4.3,6.1c1,1.4,2.5,2.1,4.1,2.3c3.9,4.8,10.4,7.1,16.8,5.4l0.4-0.1L520.6,273.2z"/>
	<path class="st16" d="M668.5,293.1l1.1,7.7c0.1,0.5,0,1-0.1,1.4c0-0.1,0-0.2,0-0.3l-1.1-7.7c-0.2-1.1-0.9-2-1.9-2.4
		c-1.1-0.4-2.2-0.2-3.1,0.5l-6.1,4.9c-0.5,0.4-0.9,0.9-1,1.5c0-1,0.4-1.9,1.2-2.6l6.1-4.9c0.9-0.7,2-0.9,3.1-0.5
		C667.7,291.1,668.4,292,668.5,293.1z"/>
	<path class="st25" d="M542.4,255c5.9,0,11.1,4.1,14.1,10.4c-3.1-4.8-7.6-7.9-12.7-7.9c-9.7,0-17.9,11-18.2,24.5
		c-0.1,5.3,1,10.2,2.9,14.2c-2.8-4.4-4.5-10.2-4.3-16.7C524.6,266,532.7,255,542.4,255z"/>
	<path class="st5" d="M471.4,186c-5.2-5.4-5.9-13.8-2.9-22.3c-1.7,7.2-0.5,14.1,3.9,18.7c8.5,8.8,25.5,6.2,38.1-5.9
		c4.9-4.7,8.4-10.1,10.3-15.5c-1.5,6.5-5.4,13.4-11.4,19.1C496.8,192.2,479.8,194.8,471.4,186z"/>
	<path class="st5" d="M636.6,564.2c-5.4-5.6-6.2-14.4-3-23.3c-1.8,7.5-0.5,14.7,4.1,19.5c8.8,9.2,26.7,6.5,39.8-6.1
		c5.1-4.9,8.8-10.6,10.8-16.2c-1.6,6.8-5.7,14-11.9,20C663.3,570.7,645.5,573.4,636.6,564.2z"/>
	<path class="st2" d="M614.2,361.6c13.8,0,24.8,11.9,25.8,27.1c-4.3-9.3-12.9-15.6-22.9-15.6c-14.6,0-26.8,13.4-27.2,30
		c0,1,0,1.9,0.1,2.9c-2-4.3-3.1-9.2-3-14.5C587.3,375.1,599.5,361.6,614.2,361.6z"/>
	<path class="st2" d="M623,391.8c12.2,0.7,21.3,11.9,21.3,25.4c-3.3-8.4-10.5-14.5-19.4-15c-12.9-0.8-24.4,10.5-25.6,25.1
		c-0.1,0.9-0.1,1.7-0.1,2.6c-1.5-3.9-2.2-8.3-1.8-13C598.6,402.3,610.1,391,623,391.8z"/>
	<path class="st13" d="M620.6,355.6c7.5-3,17.8,9.5,23,27.8s3.4,35.5-4,38.5c-7.5,3-17.8-9.5-23-27.7
		C611.4,375.8,613.2,358.5,620.6,355.6z"/>
	<path class="st23" d="M646.5,399.7c0.7,11.3-1.8,20.1-6.9,22.1c-7.5,3-17.8-9.5-23-27.8l-0.3-1.1c-0.7-11.3,1.8-20.1,6.9-22.1
		c7.5-3,17.8,9.5,23,27.8C646.3,398.9,646.4,399.3,646.5,399.7z"/>
	<path class="st2" d="M627.9,363c5-2.3,12.5,5.9,16.7,18.3s3.5,24.2-1.5,26.5s-12.5-5.9-16.7-18.3S622.9,365.2,627.9,363z"/>
	<path class="st23" d="M598.1,365.5l1.7-1c1.1-0.6,2.3-0.7,3.2-0.4c1,0.4,1.7,1.2,2.1,2.3l1.8,5.8c0.4,1.2,0.2,2.5-0.3,3.7
		s-1.3,2.2-2.4,2.9l-1.7,1c-1.1,0.6-2.3,0.7-3.2,0.4c-1-0.4-1.7-1.2-2.1-2.3l-1.8-5.8c-0.4-1.2-0.2-2.5,0.3-3.7
		C596.1,367.2,597,366.1,598.1,365.5L598.1,365.5z M600.4,366.5l-1.7,1c-0.6,0.3-1,0.9-1.3,1.5s-0.3,1.3-0.1,2l1.8,5.8
		c0.2,0.6,0.6,1.1,1.1,1.2c0.5,0.2,1.1,0.1,1.7-0.2l1.7-1c0.6-0.3,1-0.9,1.3-1.5s0.3-1.3,0.1-2l-1.8-5.8c-0.2-0.6-0.6-1.1-1.1-1.2
		C601.6,366.1,601,366.2,600.4,366.5z"/>
	<path class="st23" d="M608.8,394l1.6-0.9c1-0.6,2.1-0.7,3-0.3c0.9,0.3,1.6,1.1,1.9,2.2l1.7,5.4c0.3,1.1,0.2,2.3-0.2,3.4
		c-0.5,1.1-1.2,2.1-2.3,2.7l-1.6,0.9c-1,0.6-2.1,0.7-3,0.3c-0.9-0.3-1.6-1.1-2-2.2l-1.7-5.4c-0.3-1.1-0.2-2.3,0.2-3.4
		C607,395.5,607.8,394.5,608.8,394L608.8,394z M611,394.9l-1.6,0.9c-0.5,0.3-1,0.8-1.2,1.4s-0.3,1.2-0.1,1.8l1.7,5.4
		c0.2,0.6,0.6,1,1,1.2c0.5,0.2,1,0.1,1.6-0.2l1.6-0.9c0.5-0.3,1-0.8,1.2-1.4s0.3-1.2,0.1-1.8l-1.7-5.4c-0.2-0.6-0.6-1-1-1.2
		C612.1,394.5,611.6,394.6,611,394.9z"/>
	<path class="st4" d="M633.7,371.2c2.9-1.3,7.3,3.5,9.7,10.7s2,14.2-0.9,15.5s-7.3-3.5-9.7-10.7
		C630.3,379.4,630.7,372.5,633.7,371.2z"/>
	<path class="st5" d="M641.6,548.9c-3.9-4-4.4-10.3-2.2-16.6c-1.3,5.4-0.4,10.5,2.9,14c6.3,6.6,19,4.6,28.4-4.4
		c3.7-3.5,6.3-7.6,7.7-11.6c-1.1,4.9-4,10-8.5,14.3C660.7,553.5,647.9,555.5,641.6,548.9z"/>
	<path class="st5" d="M524.1,293.9L524.1,293.9c3.3,0,6.3,1.2,8.6,3.1c-1.7-0.8-3.6-1.3-5.7-1.3l0,0c-7.5,0-13.8,6.1-13.9,13.6
		l-0.2,7.1c-0.1,4.2,1.7,8,4.7,10.5c-4.6-2.2-7.8-6.9-7.6-12.4l0.2-7.1C510.4,300,516.6,293.9,524.1,293.9z"/>
	<path class="st5" d="M557.2,502.7c1.9-0.9,4.7,2.2,6.3,6.9s1.3,9.2-0.6,10.1c-1.9,0.9-4.7-2.2-6.3-6.9
		C555.1,508,555.3,503.5,557.2,502.7z"/>
	<path class="st5" d="M568,522.6c1-0.4,2.4,1.1,3.2,3.5c0.8,2.3,0.7,4.6-0.3,5s-2.4-1.1-3.2-3.5C566.9,525.3,567.1,523.1,568,522.6z
		"/>
	<path class="st5" d="M644.7,482.7c0.7,0,1.3,0.1,2,0.3c-4,0.3-6.7,4.4-6.1,9.4c0.5,4.4,3.3,8.1,6.7,9.1c-0.2,0-0.3,0-0.5,0
		c-4.2,0-8.1-4.2-8.7-9.5C637.5,486.9,640.5,482.7,644.7,482.7z"/>
	<path class="st5" d="M563.9,477.5c0.6,0,1.3,0.1,1.9,0.3c-3.7,0.3-6.3,4.2-5.8,8.9c0.5,4.1,3.1,7.6,6.3,8.6c-0.2,0-0.3,0-0.5,0
		c-4,0-7.7-4-8.2-8.9C557.1,481.5,559.9,477.5,563.9,477.5z"/>
	<path class="st2" d="M522.5,359c1.1-0.4,2.7,0.8,3.4,2.8c0.8,2,0.4,3.9-0.7,4.4c-1.1,0.4-2.7-0.8-3.4-2.8
		C521,361.4,521.3,359.4,522.5,359z"/>
	<path class="st2" d="M531.8,407.3c1.1-0.4,2.7,0.8,3.4,2.8c0.8,2,0.4,3.9-0.7,4.4c-1.1,0.4-2.7-0.8-3.4-2.8
		C530.3,409.7,530.6,407.7,531.8,407.3z"/>
	<path class="st2" d="M545.4,188.9c2.1,1.2,1.9,5.7-0.6,9.9c-2.4,4.2-6.2,6.6-8.3,5.4c-2.1-1.2-1.9-5.7,0.6-9.9
		C539.6,190.1,543.3,187.7,545.4,188.9z"/>
	<path class="st4" d="M545.5,190.7c1.4,0.8,1.2,3.8-0.4,6.6c-1.6,2.8-4.1,4.4-5.5,3.6c-1.4-0.8-1.2-3.8,0.4-6.6
		C541.7,191.5,544.1,189.9,545.5,190.7z"/>
	<path class="st2" d="M551.6,209.4c2.1,1.2,1.9,5.7-0.6,9.9c-2.4,4.2-6.2,6.6-8.3,5.4c-2.1-1.2-1.9-5.7,0.6-9.9
		C545.7,210.6,549.4,208.2,551.6,209.4z"/>
	<path class="st4" d="M551.7,211.3c1.4,0.8,1.2,3.8-0.4,6.6c-1.6,2.8-4.1,4.4-5.5,3.6c-1.4-0.8-1.2-3.8,0.4-6.6
		C547.8,212,550.3,210.4,551.7,211.3z"/>
	<path class="st2" d="M651,269.9L651,269.9c1.1-0.9,2.8-0.8,3.7,0.3l2,2.4c0.9,1.1,0.8,2.8-0.3,3.7l0,0c-1.1,0.9-2.8,0.8-3.7-0.3
		l-2-2.4C649.8,272.5,649.9,270.8,651,269.9z"/>
	<path class="st4" d="M652.1,271.2L652.1,271.2c0.6-0.5,1.6-0.5,2.1,0.2l1.2,1.4c0.5,0.6,0.5,1.6-0.2,2.1l0,0
		c-0.6,0.5-1.6,0.5-2.1-0.2l-1.2-1.4C651.4,272.7,651.5,271.8,652.1,271.2z"/>
	<path class="st2" d="M633.2,307L633.2,307c0-1.4,1.1-2.6,2.6-2.7l3.2-0.1c1.4,0,2.6,1.1,2.7,2.6l0,0c0,1.4-1.1,2.6-2.6,2.7
		l-3.2,0.1C634.4,309.6,633.2,308.4,633.2,307z"/>
	<path class="st4" d="M635,306.9L635,306.9c0-0.8,0.6-1.5,1.5-1.5h1.8c0.8,0,1.5,0.7,1.5,1.5l0,0c0,0.8-0.6,1.5-1.5,1.5h-1.8
		C635.7,308.4,635,307.8,635,306.9z"/>
	<path class="st11" d="M652.6,509.2c6-0.5,11.9,6.2,13,15c1.2,8.8-2.8,16.3-8.8,16.8s-11.9-6.2-13-15S646.6,509.7,652.6,509.2z"/>
</g>
</svg>
