<svg id="Layer_1" data-name="Layer 1" xmlns="http://www.w3.org/2000/svg" viewBox="0 0 685.03 402.98"><defs><style>.cls-1,.cls-10{fill:#a67d62;}.cls-1,.cls-100,.cls-101,.cls-11,.cls-12,.cls-13,.cls-18,.cls-19,.cls-2,.cls-20,.cls-22,.cls-25,.cls-26,.cls-27,.cls-28,.cls-29,.cls-3,.cls-30,.cls-31,.cls-33,.cls-36,.cls-37,.cls-38,.cls-39,.cls-4,.cls-40,.cls-41,.cls-42,.cls-43,.cls-44,.cls-45,.cls-46,.cls-48,.cls-49,.cls-50,.cls-51,.cls-52,.cls-53,.cls-54,.cls-55,.cls-58,.cls-6,.cls-60,.cls-61,.cls-63,.cls-64,.cls-65,.cls-66,.cls-67,.cls-68,.cls-7,.cls-71,.cls-72,.cls-73,.cls-76,.cls-78,.cls-80,.cls-83,.cls-84,.cls-85,.cls-89,.cls-91,.cls-92,.cls-96,.cls-97,.cls-98,.cls-99{fill-rule:evenodd;}.cls-2{fill:#af206e;}.cls-3{fill:#e54355;stroke:#e54355;}.cls-16,.cls-26,.cls-27,.cls-3,.cls-35,.cls-4,.cls-83,.cls-85,.cls-96,.cls-97,.cls-98,.cls-99{stroke-miterlimit:10;}.cls-4{fill:#44245b;stroke:#2d5c8a;}.cls-5{fill:#61544c;}.cls-6{fill:#bda391;}.cls-7,.cls-8{fill:#544840;}.cls-9{fill:#edcfbb;}.cls-11,.cls-23{fill:#773a3f;}.cls-12{fill:#ed5a5a;}.cls-13{fill:#ff6161;}.cls-14{fill:#ffcf61;}.cls-15,.cls-76{fill:#ff9e61;}.cls-16,.cls-36{fill:#6c5ba7;}.cls-16{stroke:#699;}.cls-17{fill:#9cc;}.cls-18{fill:#362f2e;}.cls-19,.cls-47{fill:#ff9274;}.cls-20{fill:#632831;}.cls-21,.cls-30{fill:#2e1a47;}.cls-22,.cls-24{fill:#5f2d78;}.cls-25{fill:#2b2a29;}.cls-26,.cls-99{fill:#e26644;}.cls-26{stroke:#542e8f;}.cls-27,.cls-35{fill:#bc6f22;stroke:#44245b;}.cls-28,.cls-32{fill:#333;}.cls-29{fill:#f5ebeb;}.cls-31{fill:#e68757;}.cls-33{fill:#ff935f;}.cls-34{fill:#2e2d2d;}.cls-37{fill:#f2dcdc;}.cls-38,.cls-96{fill:#f6cc1b;}.cls-39,.cls-82,.cls-98{fill:#fff;}.cls-40{fill:#423f3f;}.cls-41{fill:#4a4747;}.cls-42{fill:#a4434c;}.cls-43{fill:#ba545e;}.cls-44{fill:#ffb48f;}.cls-45,.cls-59{fill:#c5634d;}.cls-46{fill:#3c3636;}.cls-48{fill:#f28b6f;}.cls-49,.cls-57{fill:#6e2c36;}.cls-50{fill:#79333d;}.cls-51{fill:#423938;}.cls-52{fill:#e8e3e3;}.cls-53{fill:#4a3f3e;}.cls-54{fill:#b88e72;}.cls-55{fill:#453a33;}.cls-56{fill:#d95757;}.cls-58{fill:#e08369;}.cls-60{fill:#80523b;}.cls-61{fill:#8a5a42;}.cls-62{fill:#9c755c;}.cls-63{fill:#fc9e83;}.cls-64,.cls-81{fill:#fad487;}.cls-65,.cls-86{fill:#75753f;}.cls-66{fill:#b5b567;}.cls-67{fill:#fff0f0;}.cls-68,.cls-69{fill:#d9a9a9;}.cls-70{fill:#5191d1;}.cls-71{fill:#4287cc;}.cls-72{fill:#369;}.cls-73{fill:#d9c2a9;}.cls-74{fill:#76b2ed;}.cls-75{fill:#ccb399;}.cls-77,.cls-78{fill:#ffd6d6;}.cls-79{fill:#bcaf59;}.cls-80{fill:#e6e6e6;}.cls-83{fill:#563a82;stroke:#9c66e4;}.cls-84{fill:#4d4d4d;}.cls-85{fill:#542e8f;stroke:#885ce5;}.cls-87{fill:#bd967d;}.cls-88,.cls-89{fill:#7273c9;}.cls-90,.cls-91{fill:#e8b1e9;}.cls-92{fill:#a37af3;}.cls-93{fill:#e5a54f;}.cls-94{fill:#ffe241;}.cls-95{fill:#699;}.cls-96{stroke:#dec328;}.cls-97{fill:#f0d435;}.cls-97,.cls-98{stroke:#f6cc1b;}.cls-99{stroke:#5f2d78;}.cls-100{fill:#f79e71;}.cls-101{fill:#8a644b;}</style></defs><path class="cls-1" d="M214.15,500.52c15.53,0,28.21-2.14,28.21-4.77S229.68,491,214.15,491s-28.22,2.14-28.22,4.76S198.61,500.52,214.15,500.52Z" transform="translate(-64.73 -97.55)"/><path class="cls-2" d="M304.44,98.05H512.78c63,0,114.58,51.56,114.58,114.58V464.71H189.86V212.63C189.86,149.61,241.42,98.05,304.44,98.05Z" transform="translate(-64.73 -97.55)"/><path class="cls-3" d="M304.44,98.05h18.72V464.71h-29.1V98.52q5.13-.47,10.38-.47Zm56.29,0h29.1V464.71h-29.1V98.05Zm66.66,0H456.5V464.71H427.39V98.05Zm66.67,0h18.72q5.25,0,10.38.47V464.71h-29.1V98.05Zm66.66,10.58A115.5,115.5,0,0,1,589.83,128v336.7H560.72V108.63ZM256.5,464.71H227.39V128a115.14,115.14,0,0,1,29.11-19.38Z" transform="translate(-64.73 -97.55)"/><path class="cls-4" d="M625.56,169.76h.52a18.64,18.64,0,0,1,18.06,18.58v39.22a3.91,3.91,0,0,1-3.89,3.9H610.88a3.92,3.92,0,0,1-3.9-3.9V188.34a18.6,18.6,0,0,1,7.73-15.06v-3.52h10.85Z" transform="translate(-64.73 -97.55)"/><rect class="cls-5" x="83" y="149.76" width="519.13" height="176.12"/><path class="cls-6" d="M173.48,247H160.27v27.69a7.55,7.55,0,0,0,2.3-14.75c2.78-5.12,7.44-8.36,11.38-10.32A7.55,7.55,0,0,0,188.59,247H173.48Z" transform="translate(-64.73 -97.55)"/><path class="cls-6" d="M643.84,247h13.21v27.69a7.55,7.55,0,0,1-2.3-14.75c-2.78-5.12-7.44-8.36-11.38-10.32A7.55,7.55,0,0,1,628.73,247h15.11Z" transform="translate(-64.73 -97.55)"/><path class="cls-7" d="M500.65,255.84l9.81,2.63a2,2,0,0,1,1.4,2.43L499.51,307a2,2,0,0,1-2.42,1.4l-9.81-2.62a2,2,0,0,1-1.41-2.43l12.35-46.09A2,2,0,0,1,500.65,255.84Z" transform="translate(-64.73 -97.55)"/><rect class="cls-8" x="500.08" y="264.39" width="5.08" height="7.43" rx="1.86" transform="translate(48.86 586.69) rotate(-75)"/><rect class="cls-8" x="499.36" y="271.84" width="2.54" height="7.43" rx="0.93" transform="translate(40.13 590.22) rotate(-75)"/><rect class="cls-8" x="492.31" y="298.16" width="2.54" height="7.43" rx="0.93" transform="translate(9.47 602.92) rotate(-75)"/><path class="cls-7" d="M514.73,253.36l9.82,2.62a2,2,0,0,1,1.4,2.43L513.6,304.5a2,2,0,0,1-2.43,1.4l-9.81-2.62a2,2,0,0,1-1.4-2.43l12.35-46.09A2,2,0,0,1,514.73,253.36Z" transform="translate(-64.73 -97.55)"/><rect class="cls-8" x="514.17" y="261.9" width="5.08" height="7.43" rx="1.86" transform="translate(61.7 598.45) rotate(-75)"/><rect class="cls-8" x="513.44" y="269.35" width="2.54" height="7.43" rx="0.93" transform="translate(52.97 601.98) rotate(-75)"/><rect class="cls-8" x="506.39" y="295.67" width="2.54" height="7.43" rx="0.93" transform="translate(22.31 614.68) rotate(-75)"/><path class="cls-7" d="M235.09,255.26V313a4.77,4.77,0,0,1-3.26,4.45v0a2.93,2.93,0,0,0-3-2.86H224.9a2.93,2.93,0,0,0-3,2.86v0a4.77,4.77,0,0,1-3.26-4.45V255.26a4.86,4.86,0,0,1,5-4.74h6.52A4.86,4.86,0,0,1,235.09,255.26Z" transform="translate(-64.73 -97.55)"/><path class="cls-7" d="M248.2,268.33v45.55a3.84,3.84,0,0,1-2.85,3.52h0a2.46,2.46,0,0,0-2.61-2.27H239.3a2.46,2.46,0,0,0-2.61,2.27h0a3.83,3.83,0,0,1-2.84-3.52V268.33a4.08,4.08,0,0,1,4.32-3.75h5.7C246.25,264.58,248.2,266.27,248.2,268.33Z" transform="translate(-64.73 -97.55)"/><path class="cls-7" d="M520,285.63h73.81a6.09,6.09,0,0,1,5.7,4h0a3.68,3.68,0,0,0-3.67,3.67v4.83a3.68,3.68,0,0,0,3.67,3.67h0a6.08,6.08,0,0,1-5.7,4H520a6.09,6.09,0,0,1-6.07-6.08v-8A6.09,6.09,0,0,1,520,285.63Z" transform="translate(-64.73 -97.55)"/><path class="cls-7" d="M533.58,270.18h56.61a4.68,4.68,0,0,1,4.37,3.06h0a2.82,2.82,0,0,0-2.81,2.81v3.71a2.81,2.81,0,0,0,2.81,2.81h0a4.68,4.68,0,0,1-4.37,3.06H533.58a4.67,4.67,0,0,1-4.66-4.66v-6.13A4.68,4.68,0,0,1,533.58,270.18Z" transform="translate(-64.73 -97.55)"/><rect class="cls-9" x="80.97" y="145.73" width="15.21" height="184.2"/><rect class="cls-10" x="591.99" y="145.73" width="15.21" height="184.2"/><path class="cls-9" d="M74.34,325.88H614.4a5.94,5.94,0,0,1,5.94,5.94v4a5.94,5.94,0,0,1-5.94,5.94H74.34a5.95,5.95,0,0,1-5.95-5.95v-4a5.95,5.95,0,0,1,5.95-5.95Z"/><path class="cls-1" d="M407.25,487.16c188.65,0,342.51-8.57,342.51-19.09S595.9,449,407.25,449,64.73,457.56,64.73,468.07,218.6,487.16,407.25,487.16Z" transform="translate(-64.73 -97.55)"/><path class="cls-11" d="M523.43,474.09c99.41,0,180.5-4.07,180.5-9s-81.09-9-180.5-9-180.49,4.06-180.49,9S424,474.09,523.43,474.09Z" transform="translate(-64.73 -97.55)"/><path class="cls-12" d="M576.55,203.68A15.45,15.45,0,1,1,557,213.43,15.45,15.45,0,0,1,576.55,203.68Z" transform="translate(-64.73 -97.55)"/><path class="cls-13" d="M580.37,205.57a15.46,15.46,0,0,1-5.46,27.87,15.45,15.45,0,0,1,5.46-27.87Z" transform="translate(-64.73 -97.55)"/><path class="cls-11" d="M619.44,440.24a14.67,14.67,0,1,1-20.64,2.14A14.66,14.66,0,0,1,619.44,440.24Z" transform="translate(-64.73 -97.55)"/><path class="cls-11" d="M618.52,442.16c1.71,4.45-1.64,9.89-7.49,12.14s-12,.45-13.69-4,1.64-9.9,7.49-12.14S616.8,437.7,618.52,442.16Z" transform="translate(-64.73 -97.55)"/><path class="cls-11" d="M595.54,450.88a15.06,15.06,0,0,1,.7-3.8,5.76,5.76,0,0,0,.57.53l8.13,6.6a5.29,5.29,0,0,0,3.89,1.16h0a5.3,5.3,0,0,0,4.73-5.83,5.33,5.33,0,0,0-1.93-3.58l-8.13-6.6a6.62,6.62,0,0,0-.64-.44,14.68,14.68,0,0,1,3.58-1.47l7.29,5.92a8.64,8.64,0,0,1-4.55,15.31h0a8.63,8.63,0,0,1-6.34-1.87Z" transform="translate(-64.73 -97.55)"/><rect class="cls-14" x="387.22" y="82.23" width="14.12" height="51.68" rx="1.98"/><rect class="cls-15" x="390.57" y="91.02" width="7.43" height="5.08" rx="1.86"/><rect class="cls-15" x="390.57" y="100" width="7.43" height="2.54" rx="0.93"/><rect class="cls-15" x="390.57" y="127.25" width="7.43" height="2.54" rx="0.93"/><rect class="cls-16" x="400.44" y="69.72" width="17.54" height="64.19" rx="2.46"/><rect class="cls-17" x="404.6" y="80.64" width="9.23" height="6.31" rx="2.31"/><rect class="cls-17" x="404.6" y="91.79" width="9.23" height="3.15" rx="1.15"/><rect class="cls-17" x="404.6" y="125.64" width="9.23" height="3.15" rx="1.15"/><path class="cls-10" d="M74.34,133.91H614.4a5.94,5.94,0,0,1,5.94,5.94v4a5.94,5.94,0,0,1-5.94,5.94H74.34a5.95,5.95,0,0,1-5.95-5.95v-4a5.95,5.95,0,0,1,5.95-5.95Z"/><path class="cls-9" d="M74.34,208.23H614.4a5.94,5.94,0,0,1,5.94,5.94v4a5.94,5.94,0,0,1-5.94,5.94H74.34a5.95,5.95,0,0,1-5.95-5.95v-4a5.95,5.95,0,0,1,5.95-5.95Z"/><path class="cls-18" d="M300.27,317.07a11.19,11.19,0,1,1,.35,22.38l-72.32,1.14a11.19,11.19,0,0,1-.35-22.38Z" transform="translate(-64.73 -97.55)"/><path class="cls-19" d="M294.46,325a4.2,4.2,0,1,1-4.46,7.11c-.05,0-16.16-10-10.78-27.53a4.21,4.21,0,0,1,8,2.46C283.79,318.43,294.43,325,294.46,325Z" transform="translate(-64.73 -97.55)"/><path class="cls-19" d="M301.35,338.94a16.6,16.6,0,1,0-16.6-16.6A16.64,16.64,0,0,0,301.35,338.94Z" transform="translate(-64.73 -97.55)"/><path class="cls-18" d="M258.8,339.33a11.21,11.21,0,1,1-19.67,10.74l-34.78-63.41A11.21,11.21,0,1,1,224,275.92Z" transform="translate(-64.73 -97.55)"/><path class="cls-20" d="M220.11,188.4a20.16,20.16,0,0,0-16.87,19.83v22.34h.11a24.5,24.5,0,0,0,24.43-24.43h0A24.42,24.42,0,0,0,220.11,188.4Z" transform="translate(-64.73 -97.55)"/><path class="cls-11" d="M225.92,474.09c61.67,0,112-4.07,112-9s-50.3-9-112-9-112,4.06-112,9S164.24,474.09,225.92,474.09Z" transform="translate(-64.73 -97.55)"/><rect class="cls-21" x="144.34" y="234.07" width="120.89" height="104.31" rx="52.15"/><path class="cls-22" d="M253.07,331.62h0a44.12,44.12,0,0,1,44,44v16.31a44.11,44.11,0,0,1-44,44h0a44.12,44.12,0,0,1-44-44V375.62A44.13,44.13,0,0,1,253.07,331.62Z" transform="translate(-64.73 -97.55)"/><rect class="cls-10" x="146.96" y="233.57" width="114.87" height="16.31" rx="8.16"/><rect class="cls-23" x="215.57" y="233.57" width="46.26" height="16.31" rx="8.16"/><path class="cls-11" d="M138.37,463.87a4.57,4.57,0,0,1-8.13-4.14h0l0,0,11.38-25.5a7,7,0,0,1,.65-1.46,7.61,7.61,0,1,1,13.19,7.61,8.18,8.18,0,0,1-.45.69l-.09.12Z" transform="translate(-64.73 -97.55)"/><path class="cls-11" d="M228.18,463.87a4.57,4.57,0,0,1-8.13-4.14h0v0l11.38-25.5a7.61,7.61,0,1,1,13.84,6.15,8.18,8.18,0,0,1-.45.69l-.09.12Z" transform="translate(-64.73 -97.55)"/><path class="cls-1" d="M301.71,463.87a4.57,4.57,0,0,0,8.14-4.14h0v0l-11.38-25.5a7.61,7.61,0,1,0-13.84,6.15c.14.24.29.47.44.69l.1.12Z" transform="translate(-64.73 -97.55)"/><path class="cls-11" d="M191,463.87a4.57,4.57,0,0,1-8.13-4.14h0l0,0,11.38-25.5a7.61,7.61,0,1,1,13.84,6.15,8.18,8.18,0,0,1-.45.69l-.09.12Z" transform="translate(-64.73 -97.55)"/><rect class="cls-23" x="68.43" y="322.92" width="81.11" height="25.1" rx="12.55"/><rect class="cls-10" x="130.73" y="322.92" width="104.58" height="25.1" rx="12.55"/><rect class="cls-24" x="94.95" y="294.26" width="161.73" height="44.12" rx="22.06"/><rect class="cls-24" x="94.95" y="294.26" width="83.36" height="44.12" rx="22.06"/><path class="cls-22" d="M156.22,283.92h30.84V295c10.36,8.07,17.94,19.84,19.95,32.89l2.52,16.32c3.73,24.2-13,44-37.21,44h0c-24.2,0-47-19.8-50.79-44L119,327.91C115.28,303.72,132,283.92,156.22,283.92Z" transform="translate(-64.73 -97.55)"/><path class="cls-22" d="M185.89,283.92h0c24.2,0,47.05,19.8,50.79,44l2.52,16.31c3.73,24.2-13,44-37.21,44h0c-24.2,0-47.06-19.8-50.79-44l-2.52-16.31C145,303.72,161.69,283.92,185.89,283.92Z" transform="translate(-64.73 -97.55)"/><path class="cls-18" d="M231,390.86a11.72,11.72,0,0,1-15.71-2.05,10.08,10.08,0,0,1,2.19-14.72l76.3-53.83a11.75,11.75,0,0,1,15.72,2.06,10,10,0,0,1,2.23,7.07l-9.91,125.1c-.44,5.79-5.8,10.15-12,9.74S279,458.8,279.44,453l8.09-102Z" transform="translate(-64.73 -97.55)"/><path class="cls-11" d="M499.71,479.66c15.54,0,28.21-2.14,28.21-4.77s-12.67-4.77-28.21-4.77-28.21,2.15-28.21,4.77S484.17,479.66,499.71,479.66Z" transform="translate(-64.73 -97.55)"/><path class="cls-25" d="M469.68,307.24a9.29,9.29,0,1,1,16-9.4c.09.16,32.62,57,97.37,51a9.29,9.29,0,1,1,1.68,18.5C508.14,374.44,469.79,307.43,469.68,307.24Z" transform="translate(-64.73 -97.55)"/><path class="cls-26" d="M515.49,360.37a11.65,11.65,0,0,1-2.82,23.13c-.28,0-95.78-12.37-155.77,12.34a11.62,11.62,0,0,1-8.84-21.49C413.9,347.24,515.2,360.33,515.49,360.37Z" transform="translate(-64.73 -97.55)"/><path class="cls-27" d="M525.67,373.09l0,.25a11.64,11.64,0,0,1-13,10.16c-.28,0-95.78-12.37-155.77,12.34a11.61,11.61,0,0,1-6.12.74,11.64,11.64,0,0,1,7.14-9.56c65.84-27.11,167.14-14,167.43-14Z" transform="translate(-64.73 -97.55)"/><path class="cls-28" d="M309.82,358.78h0a13,13,0,0,1,18.05-3.15l27.93,19.61A13,13,0,0,1,359,393.29h0a13,13,0,0,1-18,3.15L313,376.82A13,13,0,0,1,309.82,358.78Z" transform="translate(-64.73 -97.55)"/><path class="cls-29" d="M305.1,363.72h0a13,13,0,0,1,18-3.15l27.93,19.62a13,13,0,0,1,3.15,18h0a13,13,0,0,1-18,3.16l-27.93-19.62A13,13,0,0,1,305.1,363.72Z" transform="translate(-64.73 -97.55)"/><path class="cls-11" d="M382,459.81a4.57,4.57,0,0,1-8.13-4.14h0l0,0,11.38-25.51a7.77,7.77,0,0,1,.65-1.45,7.61,7.61,0,0,1,13.19,7.61,8.18,8.18,0,0,1-.45.69l-.09.12Z" transform="translate(-64.73 -97.55)"/><path class="cls-30" d="M599.87,303.46H707.35l-55.86,81.72H559.24L553,391.44H516.53A17,17,0,0,1,521,375.33l66.92-66.92a17,17,0,0,1,12-5Z" transform="translate(-64.73 -97.55)"/><path class="cls-22" d="M625.19,385.18H607.93c-4.46-6.69-3.9-20.55,2.06-34.7,7.37-17.51,20.21-28.81,28.68-25.24s9.34,20.64,2,38.15C636.59,373,630.9,380.74,625.19,385.18Z" transform="translate(-64.73 -97.55)"/><path class="cls-22" d="M721,332.46l-66.92,66.92a17.05,17.05,0,0,1-24,0h0a17.05,17.05,0,0,1,0-24.05L697,308.41a17.05,17.05,0,0,1,24,0h0A17.06,17.06,0,0,1,721,332.46Z" transform="translate(-64.73 -97.55)"/><rect class="cls-23" x="316.35" y="312.1" width="279.82" height="25.1" rx="12.55"/><rect class="cls-10" x="316.35" y="312.1" width="104.58" height="25.1" rx="12.55"/><path class="cls-11" d="M504.29,459.81a4.57,4.57,0,0,0,8.13-4.14h0l0,0L501,430.11a7.17,7.17,0,0,0-.65-1.45,7.61,7.61,0,0,0-13.19,7.61,8.18,8.18,0,0,0,.45.69l.09.12Z" transform="translate(-64.73 -97.55)"/><path class="cls-11" d="M647.38,459.81a4.57,4.57,0,0,0,8.14-4.14h0v0l-11.38-25.51a7.77,7.77,0,0,0-.65-1.45,7.61,7.61,0,0,0-13.19,7.61,8.18,8.18,0,0,0,.45.69l.09.12Z" transform="translate(-64.73 -97.55)"/><path class="cls-31" d="M606.45,331.14a11.61,11.61,0,1,1,23-3.2c0,.09,4.52,29.9-22.65,40.65A11.62,11.62,0,0,1,598.28,347C608.23,343,606.45,331.17,606.45,331.14Z" transform="translate(-64.73 -97.55)"/><path class="cls-11" d="M606.45,331.14a11.61,11.61,0,0,1,21-8.33,15.67,15.67,0,0,1-10,18.62l-7.77,2.71a23.61,23.61,0,0,1-8.56,1.31C607.87,340.63,606.45,331.17,606.45,331.14Z" transform="translate(-64.73 -97.55)"/><path class="cls-28" d="M580.4,299.57l-5.3-5.3a2.74,2.74,0,0,1,0-3.86h0a2.72,2.72,0,0,1,3.86,0l5.31,5.3Z" transform="translate(-64.73 -97.55)"/><rect class="cls-32" x="515.67" y="184.65" width="13.57" height="28.64" rx="6.78"/><path class="cls-33" d="M599.52,281.23H616a15.67,15.67,0,0,1,15.63,15.63v28A15.68,15.68,0,0,1,616,340.45h-8.22A23.92,23.92,0,0,1,583.9,316.6V296.86A15.67,15.67,0,0,1,599.52,281.23Z" transform="translate(-64.73 -97.55)"/><path class="cls-31" d="M631.6,312.43v12.39A15.68,15.68,0,0,1,616,340.45h-8.22A23.92,23.92,0,0,1,583.9,316.6v-4.17Z" transform="translate(-64.73 -97.55)"/><path class="cls-11" d="M595.24,303.73v2a2.34,2.34,0,0,1-2.34,2.33h-1.23a3.57,3.57,0,0,1-3.56-3.56v-1.81a3.8,3.8,0,0,0,3.56,2.49H593A2.5,2.5,0,0,0,595.24,303.73Z" transform="translate(-64.73 -97.55)"/><path class="cls-11" d="M602.84,322.67h9.3a3.66,3.66,0,0,1,3.65,3.65v1.26A2.39,2.39,0,0,1,613.4,330h-9.31a3.66,3.66,0,0,1-3.64-3.65v-1.26A2.4,2.4,0,0,1,602.84,322.67Z" transform="translate(-64.73 -97.55)"/><path class="cls-13" d="M614.78,326.3v.52a2,2,0,0,1-2,2H605.2c.79-1.91,3.22-3.31,6.08-3.31A8,8,0,0,1,614.78,326.3Z" transform="translate(-64.73 -97.55)"/><path class="cls-11" d="M615.94,303.73v2a2.34,2.34,0,0,1-2.33,2.33h-1.23a3.57,3.57,0,0,1-3.56-3.56v-1.81a3.8,3.8,0,0,0,3.56,2.49h1.31A2.48,2.48,0,0,0,615.94,303.73Z" transform="translate(-64.73 -97.55)"/><circle class="cls-32" cx="593.4" cy="282.66" r="14.46" transform="translate(-102.21 0.7) rotate(-9.18)"/><path class="cls-28" d="M593.4,275.77h29.2a10.67,10.67,0,0,1,10.64,10.64h0a10.67,10.67,0,0,1-10.64,10.64H593.4Z" transform="translate(-64.73 -97.55)"/><rect class="cls-32" x="559.55" y="184.65" width="13.57" height="28.64" rx="6.78"/><path class="cls-33" d="M631.6,316.94a6.11,6.11,0,1,0-6.11-6.1A6.11,6.11,0,0,0,631.6,316.94Z" transform="translate(-64.73 -97.55)"/><path class="cls-11" d="M631.6,308.18a2.66,2.66,0,0,1,0,5.32Z" transform="translate(-64.73 -97.55)"/><path class="cls-28" d="M617.22,281v-7.5a2.73,2.73,0,0,1,2.73-2.73h0a2.74,2.74,0,0,1,2.74,2.73V281Z" transform="translate(-64.73 -97.55)"/><path class="cls-28" d="M594.06,272.53V265a2.74,2.74,0,0,1,2.73-2.73h0a2.74,2.74,0,0,1,2.73,2.73v7.5Z" transform="translate(-64.73 -97.55)"/><path class="cls-34" d="M435.83,249.73H544.3A16.29,16.29,0,0,1,560.58,266v0A16.29,16.29,0,0,1,544.3,282.3H435.83A16.29,16.29,0,0,1,419.54,266v0a16.28,16.28,0,0,1,16.28-16.28Z"/><path class="cls-28" d="M500.56,347.27H609a16.35,16.35,0,0,1,15.42,11.06,16.16,16.16,0,0,1-8.05,2.15H507.92a16.36,16.36,0,0,1-15.42-11.06A16.1,16.1,0,0,1,500.56,347.27Z" transform="translate(-64.73 -97.55)"/><path class="cls-35" d="M432.12,249.73H459A16.28,16.28,0,0,1,475.26,266v0A16.29,16.29,0,0,1,459,282.3H432.12A16.29,16.29,0,0,1,415.84,266v0a16.28,16.28,0,0,1,16.28-16.28Z"/><rect class="cls-24" x="288.17" y="282.3" width="329.78" height="43.59" rx="21.79"/><path class="cls-36" d="M589.7,379.84h20.48c-.06,11.62-2.7,28.54-14.78,43.59H563.24C585.5,410.63,589.52,391.4,589.7,379.84Z" transform="translate(-64.73 -97.55)"/><rect class="cls-21" x="288.17" y="282.3" width="164.89" height="43.59" rx="21.79"/><rect class="cls-24" x="288.17" y="282.3" width="66.51" height="43.59" rx="21.79"/><path class="cls-37" d="M316.3,381.58a9.25,9.25,0,1,0-9.25-9.25A9.27,9.27,0,0,0,316.3,381.58Z" transform="translate(-64.73 -97.55)"/><path class="cls-37" d="M342.41,400.29a9.25,9.25,0,1,0-9.25-9.25A9.27,9.27,0,0,0,342.41,400.29Z" transform="translate(-64.73 -97.55)"/><path class="cls-38" d="M484.37,442.06a18.11,18.11,0,0,1,17.72,16.41A14.93,14.93,0,0,1,487,474.89a18.1,18.1,0,0,1-17.72-16.42A14.92,14.92,0,0,1,484.37,442.06Z" transform="translate(-64.73 -97.55)"/><path class="cls-38" d="M485.9,444.9c4.85,2.67,6.34,9.76,3.33,15.83s-9.38,8.84-14.23,6.17-6.33-9.75-3.32-15.83S481.06,442.24,485.9,444.9Z" transform="translate(-64.73 -97.55)"/><path class="cls-39" d="M473.2,468.15a18.12,18.12,0,0,1-2.37-3.79,6.11,6.11,0,0,0,.86.06h11.72a5.48,5.48,0,0,0,4.06-1.74h0a5.49,5.49,0,0,0,1.4-4.2,6.58,6.58,0,0,0-6.42-5.94H470.74a6.11,6.11,0,0,0-.86.06,15.11,15.11,0,0,1,1.77-3.79h10.51a10.7,10.7,0,0,1,10.45,9.67,8.92,8.92,0,0,1-2.29,6.83h0a8.88,8.88,0,0,1-6.6,2.84Z" transform="translate(-64.73 -97.55)"/><path class="cls-40" d="M603.06,366.61a10.25,10.25,0,1,1,20-4.33c0,.22,17.31,74.43-76.47,88.94A10.22,10.22,0,1,1,543.49,431C615.5,419.89,603.09,366.76,603.06,366.61Z" transform="translate(-64.73 -97.55)"/><path class="cls-41" d="M603.06,366.61a10.25,10.25,0,0,1,7.85-12.18c.19,0,.37-.08.55-.1,1.94,11.65,8.18,73.79-76.62,87A10.21,10.21,0,0,1,543.49,431C615.5,419.89,603.09,366.76,603.06,366.61Z" transform="translate(-64.73 -97.55)"/><path class="cls-42" d="M520.21,443.89a6.29,6.29,0,0,1-1.15.08,5.38,5.38,0,0,1-3.77-1.69,4.5,4.5,0,0,0-6.55,6.16,14.35,14.35,0,0,0,10,4.51,14.63,14.63,0,0,0,3.49-.31l-.24-1,14.72-3.47-1.82-7.76Z" transform="translate(-64.73 -97.55)"/><path class="cls-43" d="M514.42,446.59a5,5,0,0,1-1.15.08,5.4,5.4,0,0,1-3.78-1.69,4.49,4.49,0,0,0-6.54,6.16A14.32,14.32,0,0,0,513,455.65a14.1,14.1,0,0,0,3.48-.31l-.23-1L531,450.88l-1.83-7.76Z" transform="translate(-64.73 -97.55)"/><path class="cls-33" d="M525.61,455.67l20.18-4.75.1,0a9,9,0,0,0,6.69-10.8h0a9,9,0,0,0-10.81-6.68l-.1,0-20.18,4.76-1.2.28a7,7,0,0,1,.93,2.18h0a6.88,6.88,0,0,1-5.1,8.24l-2.63.62,2,8.54Z" transform="translate(-64.73 -97.55)"/><path class="cls-42" d="M528.89,436.45l-7.4,1.74-1.17.27,0,.14a6.78,6.78,0,0,1,.85,2h0a6.88,6.88,0,0,1-5.1,8.24l-2.63.62,1.25,5.28,3.81-.9A14.1,14.1,0,0,0,529,437C529,436.79,528.93,436.62,528.89,436.45Z" transform="translate(-64.73 -97.55)"/><path class="cls-33" d="M517.18,457.66l-6.68,1.57h0a5.44,5.44,0,0,0-1.69.57,5.3,5.3,0,0,0-2.57,3.13,4.39,4.39,0,0,1-8.41-2.53,14.1,14.1,0,0,1,10.65-9.72l6.68-1.58a5.29,5.29,0,0,0-2.43-10.3,4.39,4.39,0,0,1-2-8.54,14.07,14.07,0,0,1,6.45,27.39Z" transform="translate(-64.73 -97.55)"/><path class="cls-44" d="M502.82,464.14a2.19,2.19,0,1,1,1.64-2.64A2.19,2.19,0,0,1,502.82,464.14Z" transform="translate(-64.73 -97.55)"/><path class="cls-44" d="M512.41,436.48a2.19,2.19,0,1,1,1.63-2.64A2.19,2.19,0,0,1,512.41,436.48Z" transform="translate(-64.73 -97.55)"/><path class="cls-45" d="M229.85,232.44a7.23,7.23,0,1,0-7.23-7.23A7.25,7.25,0,0,0,229.85,232.44Z" transform="translate(-64.73 -97.55)"/><path class="cls-46" d="M198.67,371.49c21.3-2,38.07-23.58,38.07-49.87S220,273.77,198.67,271.75Z" transform="translate(-64.73 -97.55)"/><polygon class="cls-39" points="147.88 169.71 123.42 169.71 123.42 182.19 143.37 182.19 147.88 169.71"/><path class="cls-20" d="M230.52,188.4a20.16,20.16,0,0,0-16.86,19.83v22.34h.11a24.5,24.5,0,0,0,24.43-24.43h0A24.39,24.39,0,0,0,230.52,188.4Z" transform="translate(-64.73 -97.55)"/><rect class="cls-47" x="109.59" y="145.52" width="31.52" height="36.45"/><path class="cls-45" d="M205.84,243.06H174.32v8.11a31.05,31.05,0,0,0,28.34,18.56h3.18Z" transform="translate(-64.73 -97.55)"/><path class="cls-19" d="M214.59,193.39H189.14a18.57,18.57,0,0,0-18.51,18.51v39.32a11.9,11.9,0,0,0,11.86,11.86h19.66a31,31,0,0,0,30.94-30.94V211.9A18.56,18.56,0,0,0,214.59,193.39Z" transform="translate(-64.73 -97.55)"/><path class="cls-48" d="M186.38,193.6a18.59,18.59,0,0,0-15.75,18.3v39.32a11.9,11.9,0,0,0,7.57,11,31.07,31.07,0,0,0,23.93-30.13V211.9A18.59,18.59,0,0,0,186.38,193.6Z" transform="translate(-64.73 -97.55)"/><path class="cls-49" d="M187.85,185.68a21.46,21.46,0,0,0-18,21.1v23.79H170a26.09,26.09,0,0,0,26-26h0A26,26,0,0,0,187.85,185.68Z" transform="translate(-64.73 -97.55)"/><path class="cls-50" d="M201.42,218.35v2a2.21,2.21,0,0,0,2.2,2.2h0a2.21,2.21,0,0,0,2.2-2.2v-2a2.5,2.5,0,0,1-2.2,1.33h0A2.5,2.5,0,0,1,201.42,218.35Z" transform="translate(-64.73 -97.55)"/><path class="cls-18" d="M304.65,443.49c13.54,0,24.8,8.71,27.15,20.2-28.68,2.86-44.71-1.79-52.63-5C283.33,449.75,293.17,443.49,304.65,443.49Z" transform="translate(-64.73 -97.55)"/><path class="cls-49" d="M229.82,242.33h-31.6a20.86,20.86,0,0,1,31.6,0Z" transform="translate(-64.73 -97.55)"/><path class="cls-39" d="M191.11,276.09a41.27,41.27,0,0,0-15.68,3.08H164.26v76.55h11.16a41.36,41.36,0,1,0,15.69-79.63Z" transform="translate(-64.73 -97.55)"/><path class="cls-51" d="M160.6,371.49c21.3-2,38.07-23.58,38.07-49.87s-16.77-47.85-38.07-49.87Z" transform="translate(-64.73 -97.55)"/><polygon class="cls-39" points="134.26 170.2 109.8 170.2 109.8 182.67 129.74 182.67 134.26 170.2"/><path class="cls-51" d="M207.94,390.86c-4.23,3.5-11.45,2.58-16.14-2.05s-5.07-11.22-.84-14.72l65.2-53.83c4.22-3.49,11.45-2.57,16.14,2.06a12.36,12.36,0,0,1,3.69,7.07l15.89,125.1c-9,1.52-14.71,3.22-22.19,9.58L256.23,351Z" transform="translate(-64.73 -97.55)"/><path class="cls-18" d="M174.32,265a25.35,25.35,0,0,0-13.72,6.71s19,8.27,26.46,23.27l-8.18,5.47s13.58,13.07,16.68,40.2C195.56,340.69,213.62,296,174.32,265Z" transform="translate(-64.73 -97.55)"/><path class="cls-52" d="M209.19,284.44c-.81,0-1.14.88-.73,2a2.86,2.86,0,0,0,2.19,2c.81,0,1.14-.89.74-2A2.84,2.84,0,0,0,209.19,284.44Z" transform="translate(-64.73 -97.55)"/><path class="cls-53" d="M181.85,331.32H165v11.19a8.47,8.47,0,0,0,8.44,8.44h0a8.47,8.47,0,0,0,8.44-8.44Z" transform="translate(-64.73 -97.55)"/><path class="cls-52" d="M218.08,300.15c-.78-.2-1.32.59-1.19,1.74a2.85,2.85,0,0,0,1.66,2.45c.79.19,1.32-.59,1.19-1.74A2.85,2.85,0,0,0,218.08,300.15Z" transform="translate(-64.73 -97.55)"/><path class="cls-52" d="M221.44,319.06c-.68-.44-1.44.12-1.7,1.26a2.87,2.87,0,0,0,.75,2.85c.68.45,1.44-.11,1.71-1.25A2.87,2.87,0,0,0,221.44,319.06Z" transform="translate(-64.73 -97.55)"/><rect class="cls-21" x="38.92" y="234.07" width="120.89" height="104.31" rx="52.15"/><rect class="cls-24" x="38.92" y="234.07" width="88" height="104.31" rx="44"/><path class="cls-30" d="M111.46,416.87a43.67,43.67,0,0,1-7.81-24.94V375.61a44.17,44.17,0,0,1,30.7-41.92c9.56,8.46,15.74,21.83,15.74,36.88C150.09,395.67,132.91,416.1,111.46,416.87Z" transform="translate(-64.73 -97.55)"/><rect class="cls-10" x="44.47" y="233.57" width="114.87" height="16.31" rx="8.16"/><rect class="cls-23" x="113.08" y="233.57" width="46.26" height="16.31" rx="8.16"/><path class="cls-49" d="M174.59,200.07c-5.25.94-9.3,6-9.3,12v13.54h.06c7.41,0,13.47-6.66,13.47-14.8h0A15.48,15.48,0,0,0,174.59,200.07Z" transform="translate(-64.73 -97.55)"/><path class="cls-50" d="M223.21,218.35v2a2.2,2.2,0,0,0,2.19,2.2h0a2.21,2.21,0,0,0,2.2-2.2v-2a2.47,2.47,0,0,1-2.2,1.33h0A2.47,2.47,0,0,1,223.21,218.35Z" transform="translate(-64.73 -97.55)"/><path class="cls-49" d="M185.49,209.48c-5.25.94-9.3,6-9.3,12V235h.06c7.41,0,13.47-6.66,13.47-14.8h0A15.51,15.51,0,0,0,185.49,209.48Z" transform="translate(-64.73 -97.55)"/><path class="cls-18" d="M165.37,263.46a11.21,11.21,0,1,1,16.07,15.63L131.1,331A11.2,11.2,0,0,1,115,315.41Z" transform="translate(-64.73 -97.55)"/><path class="cls-51" d="M165.37,263.46a11.21,11.21,0,0,1,14.4-1.4l-37.24,38.43a11.21,11.21,0,0,1-14.4,1.41Z" transform="translate(-64.73 -97.55)"/><path class="cls-18" d="M195.22,310.89a11.19,11.19,0,1,1,.35,22.38l-72.32,1.14A11.19,11.19,0,1,1,122.9,312Z" transform="translate(-64.73 -97.55)"/><path class="cls-1" d="M270.54,286.57h0a3.44,3.44,0,0,1,0,4.86l-31.35,31.35a3.45,3.45,0,0,1-3.08.94l-25.11.06,9.5-13.92,22.79-21.68-.61-2.6h25.43A3.42,3.42,0,0,1,270.54,286.57Z" transform="translate(-64.73 -97.55)"/><path class="cls-54" d="M244.78,286.57h0a3.46,3.46,0,0,1,0,4.86l-31.36,31.35a3.43,3.43,0,0,1-4.85,0h0a3.46,3.46,0,0,1,0-4.86l31.36-31.35A3.44,3.44,0,0,1,244.78,286.57Z" transform="translate(-64.73 -97.55)"/><path class="cls-19" d="M206.87,343.06a16.61,16.61,0,1,0-16.6-16.61A16.63,16.63,0,0,0,206.87,343.06Z" transform="translate(-64.73 -97.55)"/><path class="cls-55" d="M301.87,273.18h0a1.6,1.6,0,0,1,1.6,1.59v10.08a1.6,1.6,0,0,1-1.6,1.6h0a1.6,1.6,0,0,1-1.59-1.6V274.77A1.6,1.6,0,0,1,301.87,273.18Z" transform="translate(-64.73 -97.55)"/><rect class="cls-14" x="234.19" y="180.66" width="5.91" height="46.79" rx="2.95"/><rect class="cls-56" x="235.4" y="224.32" width="3.49" height="6.26" rx="1.75"/><path class="cls-19" d="M294.94,315.19a4.2,4.2,0,0,1-8.32-1.14c0-.05,2.45-18.83,20.66-21.15a4.21,4.21,0,0,1,1.07,8.35C296.56,302.75,294.94,315.15,294.94,315.19Z" transform="translate(-64.73 -97.55)"/><rect class="cls-57" x="132.09" y="113.32" width="12.02" height="5.45" rx="2.72"/><rect class="cls-57" x="155.01" y="110.6" width="12.02" height="5.45" rx="2.72"/><path class="cls-58" d="M206,203.38h16.7a1.31,1.31,0,0,1,1.3,1.3h0a1.3,1.3,0,0,1-1.3,1.3H206a1.3,1.3,0,0,1-1.3-1.3h0A1.31,1.31,0,0,1,206,203.38Z" transform="translate(-64.73 -97.55)"/><path class="cls-58" d="M212.88,208.57h2.85a1.3,1.3,0,0,1,1.29,1.3h0a1.3,1.3,0,0,1-1.29,1.3h-2.85a1.3,1.3,0,0,1-1.3-1.3h0A1.3,1.3,0,0,1,212.88,208.57Z" transform="translate(-64.73 -97.55)"/><rect class="cls-59" x="137.89" y="146.51" width="6.44" height="4.19" rx="2.09"/><path class="cls-18" d="M231.87,220.23a7.12,7.12,0,1,1-7.13,7.12v0c-3.2-2.14-6.63-.31-7.59.28a7.16,7.16,0,1,1-.32-2.38,9.14,9.14,0,0,1,8.32-.26,7.26,7.26,0,0,1,1.68-2.66,7.1,7.1,0,0,1,5-2.08Zm-18.39,3.67a4.88,4.88,0,1,0,1.43,3.45,4.87,4.87,0,0,0-1.43-3.45Zm21.84,0a4.88,4.88,0,1,0,1.43,3.45A4.87,4.87,0,0,0,235.32,223.9Z" transform="translate(-64.73 -97.55)"/><path class="cls-18" d="M173.41,221.64a1.12,1.12,0,1,1,.41-2.2L204,225.15a1.12,1.12,0,0,1-.42,2.21Z" transform="translate(-64.73 -97.55)"/><path class="cls-48" d="M165.72,218.77c-2.83,2.82-2.4,7.83.95,11.17s8.35,3.78,11.17,1,2.4-7.83-1-11.18S168.54,216,165.72,218.77Z" transform="translate(-64.73 -97.55)"/><path class="cls-45" d="M169.54,222.59a3.22,3.22,0,1,0,4.13.36A3,3,0,0,0,169.54,222.59Z" transform="translate(-64.73 -97.55)"/><path class="cls-60" d="M297.26,447.57c14.65-1.05,26.83,6.4,29.37,17.2-31,5-48.37,1.78-56.94-.7C274.19,455.22,284.84,448.47,297.26,447.57Z" transform="translate(-64.73 -97.55)"/><path class="cls-61" d="M312.33,466.61c-22.22,2.1-35.49-.47-42.64-2.54,3.22-6.33,9.58-11.58,17.48-14.39C299.79,450.15,309.88,457,312.33,466.61Z" transform="translate(-64.73 -97.55)"/><rect class="cls-62" x="76.01" y="240.78" width="23.52" height="4.23" rx="2.11"/><rect class="cls-62" x="102.14" y="240.78" width="7.8" height="4.23" rx="2.11"/><rect class="cls-62" x="49.87" y="240.78" width="7.8" height="4.23" rx="2.11"/><path class="cls-63" d="M205.75,328.78c5.56,0,10.1-3.21,10.1-7.14s-4.54-7.13-10.1-7.13-10.1,3.21-10.1,7.13S200.19,328.78,205.75,328.78Z" transform="translate(-64.73 -97.55)"/><path class="cls-64" d="M330.84,305.77c-3.61-1.77-6.15-6-6.15-10.9s2.54-9.14,6.15-10.92h11v21.82Z" transform="translate(-64.73 -97.55)"/><path class="cls-65" d="M331.93,284h98.41a2.27,2.27,0,0,1,2.26,2.26h0a2.27,2.27,0,0,1-2.26,2.26H331.93a2.26,2.26,0,0,1-2.26-2.26h0A2.26,2.26,0,0,1,331.93,284Z" transform="translate(-64.73 -97.55)"/><path class="cls-66" d="M331.93,284H377.5a2.27,2.27,0,0,1,2.26,2.26h0a2.27,2.27,0,0,1-2.26,2.26H331.93a2.26,2.26,0,0,1-2.26-2.26h0A2.26,2.26,0,0,1,331.93,284Z" transform="translate(-64.73 -97.55)"/><path class="cls-67" d="M334.8,288.47h88.37v12.79H334.8a6.42,6.42,0,0,1-6.4-6.4h0A6.42,6.42,0,0,1,334.8,288.47Z" transform="translate(-64.73 -97.55)"/><path class="cls-65" d="M331.93,301.26h98.41a2.27,2.27,0,0,1,2.26,2.26h0a2.26,2.26,0,0,1-2.26,2.25H331.93a2.26,2.26,0,0,1-2.26-2.25h0A2.26,2.26,0,0,1,331.93,301.26Z" transform="translate(-64.73 -97.55)"/><path class="cls-66" d="M331.93,301.26H377.5a2.27,2.27,0,0,1,2.26,2.26h0a2.26,2.26,0,0,1-2.26,2.25H331.93a2.26,2.26,0,0,1-2.26-2.25h0A2.26,2.26,0,0,1,331.93,301.26Z" transform="translate(-64.73 -97.55)"/><path class="cls-68" d="M378.38,288.47h49.44c-1.86,0-3.38,1.8-3.38,4v4.79c0,2.2,1.52,4,3.38,4H378.38c-1.86,0-3.38-1.8-3.38-4v-4.79C375,290.27,376.52,288.47,378.38,288.47Z" transform="translate(-64.73 -97.55)"/><rect class="cls-69" x="282.88" y="198.38" width="20.59" height="2.7" rx="1.35"/><rect class="cls-69" x="270.2" y="198.38" width="9.09" height="2.7" rx="1.35"/><path class="cls-65" d="M333.55,288.47h3.09c-3,0-5.4,2.88-5.4,6.39h0c0,3.51,2.43,6.39,5.4,6.39h-3.09c-3,0-5.4-2.88-5.4-6.39h0C328.15,291.35,330.58,288.47,333.55,288.47Z" transform="translate(-64.73 -97.55)"/><rect class="cls-70" x="314.89" y="117.12" width="51.17" height="16.79" rx="5.06"/><path class="cls-71" d="M384.68,214.66h41.05a5.08,5.08,0,0,1,4.75,3.33H379.93A5.08,5.08,0,0,1,384.68,214.66Z" transform="translate(-64.73 -97.55)"/><path class="cls-72" d="M425.7,214.66h20.51A5.08,5.08,0,0,1,451,218h-2.23a3.07,3.07,0,0,0-3.06,3.06v4a3.07,3.07,0,0,0,3.06,3.06H451a5.08,5.08,0,0,1-4.75,3.33H425.7a5.08,5.08,0,0,1-5.06-5.07v-6.66A5.08,5.08,0,0,1,425.7,214.66Z" transform="translate(-64.73 -97.55)"/><path class="cls-73" d="M450.94,228.13H428.09a3.07,3.07,0,0,1-3.06-3.06v-4a3.07,3.07,0,0,1,3.06-3.06h22.85a3.07,3.07,0,0,0-3.06,3.06v4A3.07,3.07,0,0,0,450.94,228.13Z" transform="translate(-64.73 -97.55)"/><rect class="cls-74" x="319.69" y="121.64" width="4" height="8.12" rx="1.2"/><rect class="cls-74" x="325.68" y="121.64" width="2" height="8.12" rx="1"/><rect class="cls-74" x="349.59" y="121.64" width="2" height="8.12" rx="1"/><rect class="cls-75" x="363.42" y="122.78" width="17.53" height="1.87" rx="0.93"/><rect class="cls-75" x="363.42" y="126.38" width="17.53" height="1.86" rx="0.93"/><rect class="cls-14" x="310.11" y="100.32" width="51.17" height="16.79" rx="5.06"/><path class="cls-76" d="M420.92,197.87h20.51a5.08,5.08,0,0,1,4.75,3.33H444a3.06,3.06,0,0,0-3.06,3.05v4a3.07,3.07,0,0,0,3.06,3.06h2.23a5.08,5.08,0,0,1-4.75,3.32H420.92a5.07,5.07,0,0,1-5.06-5.06v-6.67A5.08,5.08,0,0,1,420.92,197.87Z" transform="translate(-64.73 -97.55)"/><path class="cls-67" d="M446.16,211.34H423.31a3.07,3.07,0,0,1-3.06-3.06v-4a3.06,3.06,0,0,1,3.06-3.05h22.85a3.06,3.06,0,0,0-3.06,3.05v4A3.07,3.07,0,0,0,446.16,211.34Z" transform="translate(-64.73 -97.55)"/><rect class="cls-77" x="358.64" y="105.99" width="17.53" height="1.86" rx="0.93"/><path class="cls-78" d="M424.3,207.13H440a.93.93,0,0,1,.93.93h0a.93.93,0,0,1-.93.94H424.3a.94.94,0,0,1-.93-.94h0A.93.93,0,0,1,424.3,207.13Z" transform="translate(-64.73 -97.55)"/><rect class="cls-15" x="317.93" y="105.52" width="3.31" height="6.74" rx="0.99"/><rect class="cls-15" x="323.84" y="105.52" width="16.45" height="6.74" rx="3.37"/><rect class="cls-15" x="342.74" y="105.52" width="1.66" height="6.74" rx="0.83"/><rect class="cls-74" x="337.1" y="122.33" width="9.4" height="6.74" rx="3.37"/><rect class="cls-79" x="409.1" y="112.14" width="66.33" height="21.77" rx="6.56"/><path class="cls-65" d="M533.56,209.69h26.58a6.6,6.6,0,0,1,6.17,4.31h-2.9a4,4,0,0,0-4,4v5.22a4,4,0,0,0,4,4h2.9a6.61,6.61,0,0,1-6.17,4.32H533.56a6.59,6.59,0,0,1-6.56-6.57v-8.64A6.58,6.58,0,0,1,533.56,209.69Z" transform="translate(-64.73 -97.55)"/><path class="cls-80" d="M566.28,227.14H536.66a4,4,0,0,1-4-4V218a4,4,0,0,1,4-4h29.62a4,4,0,0,0-4,4v5.22A4,4,0,0,0,566.28,227.14Z" transform="translate(-64.73 -97.55)"/><rect class="cls-81" x="419.24" y="118.87" width="4.3" height="8.74" rx="1.29"/><rect class="cls-81" x="426.89" y="118.87" width="21.32" height="8.74" rx="4.37"/><rect class="cls-81" x="451.39" y="118.87" width="2.15" height="8.74" rx="1.07"/><rect class="cls-82" x="181.29" y="85.92" width="59.46" height="6.44" rx="3.22"/><rect class="cls-82" x="181.29" y="96.82" width="25.27" height="6.44" rx="3.22"/><rect class="cls-82" x="210.02" y="96.82" width="12.39" height="6.44" rx="3.22"/><path class="cls-39" d="M637.66,329.16h6.49a3.52,3.52,0,0,1,3.51,3.51h0a3.52,3.52,0,0,1-3.51,3.52h-6.49a3.52,3.52,0,0,1-3.51-3.52h0A3.52,3.52,0,0,1,637.66,329.16Z" transform="translate(-64.73 -97.55)"/><rect class="cls-21" x="366.26" y="287.99" width="21.9" height="14.35" rx="7.17"/><path class="cls-83" d="M614.71,169.76h0a18.63,18.63,0,0,1,18.58,18.58v39.22a3.91,3.91,0,0,1-3.9,3.9H600a3.91,3.91,0,0,1-3.9-3.9V188.34A18.63,18.63,0,0,1,614.71,169.76Z" transform="translate(-64.73 -97.55)"/><path class="cls-39" d="M614.71,201.16a12.51,12.51,0,1,0-12.51-12.51A12.53,12.53,0,0,0,614.71,201.16Z" transform="translate(-64.73 -97.55)"/><path class="cls-84" d="M614.71,191.14a2.49,2.49,0,1,0-2.49-2.49A2.5,2.5,0,0,0,614.71,191.14Z" transform="translate(-64.73 -97.55)"/><path class="cls-84" d="M606.05,183.77h0a.86.86,0,0,1,1.17-.36l7.19,3.75a.88.88,0,0,1,.37,1.17h0a.87.87,0,0,1-1.17.37l-7.19-3.76A.86.86,0,0,1,606.05,183.77Z" transform="translate(-64.73 -97.55)"/><path class="cls-84" d="M614.47,188.65h0a1.55,1.55,0,0,1,1.1-1.9l4.47-1.2a1.55,1.55,0,0,1,1.9,1.1h0a1.55,1.55,0,0,1-1.09,1.89l-4.48,1.2A1.55,1.55,0,0,1,614.47,188.65Z" transform="translate(-64.73 -97.55)"/><path class="cls-85" d="M607.09,205.35h15.24a4.61,4.61,0,0,1,4.59,4.6v10.9a4.61,4.61,0,0,1-4.59,4.59H607.09a4.61,4.61,0,0,1-4.59-4.59V210a4.63,4.63,0,0,1,4.59-4.6Zm15.24,2.25H607.09a2.35,2.35,0,0,0-1.65.69,2.31,2.31,0,0,0-.69,1.66v10.9a2.34,2.34,0,0,0,2.34,2.34h15.24a2.34,2.34,0,0,0,2.34-2.34V210a2.34,2.34,0,0,0-.68-1.66A2.39,2.39,0,0,0,622.33,207.6Z" transform="translate(-64.73 -97.55)"/><path class="cls-39" d="M652.26,331h4.8a2.61,2.61,0,0,1,2.6,2.6h0a2.61,2.61,0,0,1-2.6,2.6h-4.8a2.61,2.61,0,0,1-2.6-2.6h0A2.61,2.61,0,0,1,652.26,331Z" transform="translate(-64.73 -97.55)"/><rect class="cls-82" x="597.61" y="233.44" width="5" height="5.2" rx="2.5"/><path class="cls-64" d="M493.45,209.69a7.26,7.26,0,0,1,0-13.39h8v13.39Z" transform="translate(-64.73 -97.55)"/><rect class="cls-86" x="427.87" y="98.76" width="74.77" height="2.77" rx="1.38"/><rect class="cls-79" x="427.87" y="98.76" width="36.39" height="2.77" rx="1.38"/><path class="cls-67" d="M495.6,199.07h64.93v7.85H495.6a3.94,3.94,0,0,1-3.92-3.92h0A3.94,3.94,0,0,1,495.6,199.07Z" transform="translate(-64.73 -97.55)"/><rect class="cls-86" x="461.3" y="109.37" width="41.34" height="2.77" rx="1.38"/><rect class="cls-79" x="427.87" y="109.37" width="36.39" height="2.77" rx="1.38"/><path class="cls-68" d="M528,199.07h35.92a2.46,2.46,0,0,0-2.46,2.45v2.95a2.47,2.47,0,0,0,2.46,2.45H528a2.46,2.46,0,0,1-2.45-2.45v-2.95A2.45,2.45,0,0,1,528,199.07Z" transform="translate(-64.73 -97.55)"/><path class="cls-65" d="M495.42,199.07h2.25a3.94,3.94,0,0,0-3.93,3.92h0a3.94,3.94,0,0,0,3.93,3.93h-2.25A3.94,3.94,0,0,1,491.5,203h0A3.94,3.94,0,0,1,495.42,199.07Z" transform="translate(-64.73 -97.55)"/><rect class="cls-87" x="272.99" y="133.91" width="124.02" height="15.85" rx="5.94"/><rect class="cls-87" x="203.19" y="133.91" width="43.29" height="15.85" rx="5.94"/><rect class="cls-88" x="324.55" y="78.13" width="31.65" height="22.19" rx="11.09"/><path class="cls-89" d="M393.25,188.57h16.66l-2.27,13.05a3.08,3.08,0,0,1-2.89,2.46H393a2,2,0,0,1-2-2.46Z" transform="translate(-64.73 -97.55)"/><rect class="cls-90" x="336.33" y="78.13" width="31.65" height="22.19" rx="11.09"/><path class="cls-91" d="M404.44,199.78h0a2.13,2.13,0,0,0-2,1.72L402,204a1.4,1.4,0,0,0,1.42,1.72h0a2.13,2.13,0,0,0,2-1.72l.44-2.51A1.4,1.4,0,0,0,404.44,199.78Z" transform="translate(-64.73 -97.55)"/><path class="cls-91" d="M399.52,199.78h0a2.13,2.13,0,0,0-2,1.72l-.44,2.51a1.4,1.4,0,0,0,1.42,1.72h0a2.13,2.13,0,0,0,2-1.72l.44-2.51A1.4,1.4,0,0,0,399.52,199.78Z" transform="translate(-64.73 -97.55)"/><path class="cls-91" d="M394.6,199.78h0a2.13,2.13,0,0,0-2,1.72l-.44,2.51a1.4,1.4,0,0,0,1.42,1.72h0a2.13,2.13,0,0,0,2-1.72l.44-2.51A1.4,1.4,0,0,0,394.6,199.78Z" transform="translate(-64.73 -97.55)"/><path class="cls-92" d="M394.73,184.22h-1.21a3,3,0,0,0-3,3h0a3,3,0,0,0,3,3h1.21a3,3,0,0,0,3-3h0A3,3,0,0,0,394.73,184.22Z" transform="translate(-64.73 -97.55)"/><path class="cls-92" d="M407.26,184.22h-1.21a3,3,0,0,0-3,3h0a3,3,0,0,0,3,3h1.21a3,3,0,0,0,3-3h0A3,3,0,0,0,407.26,184.22Z" transform="translate(-64.73 -97.55)"/><path class="cls-36" d="M352,178.3h15.25v17.08a7.65,7.65,0,0,1-7.63,7.63h0a7.65,7.65,0,0,1-7.62-7.63Z" transform="translate(-64.73 -97.55)"/><path class="cls-36" d="M352,227.72h15.25V210.63a7.65,7.65,0,0,0-7.63-7.62h0a7.64,7.64,0,0,0-7.62,7.62Z" transform="translate(-64.73 -97.55)"/><path class="cls-91" d="M354.31,192.82v3.26l0,.1h0l0,.11h0l0,.11v0l0,.09v0l0,.07,0,.06v.05l0,.07v0l0,.09h0l0,.11h0l0,.11h0l0,.09v0l0,.08,0,0,0,.06,0,.06,0,0,0,.07,0,0,0,.09h0l.06.1h0l.05.09v0l.05.08,0,0,0,.06,0,.05,0,.05,0,.06,0,0,.05.07v0l.06.09h0l.07.08v0l.06.07,0,0,.05.06,0,0,0,0,.05.05,0,0,0,.06,0,0,.07.07h0l.08.08h0l.08.07,0,0,.06.06.09.07,0,0,0,0,.06,0,0,0,.07.05h0l.09.07h0l.1.06h0l.08.05,0,0,.07,0,0,0,.06,0,.05,0,0,0,.07,0,0,0,.08,0h0l.1,0h0l.1.05.1,0,0,0,.07,0,.05,0,.06,0,.06,0,0,0,.08,0h0l.1,0h0l.11,0h0l.1,0h0l.08,0,.11,0v14.82h-1.72a2.45,2.45,0,0,0-2.44,2.44V225h10.57V217.8a2.45,2.45,0,0,0-2.44-2.44h-1.72V200.54l.11,0,.08,0h0l.09,0h0l.11,0h0l.1,0h0l.09,0,0,0,.07,0,0,0,.05,0,.07,0,0,0,.1,0,.1-.05h0l.1,0h0l.09,0,0,0,.06,0,.05,0,0,0,.06,0,0,0,.06,0,0,0,.08-.05h0l.09-.06h0l.08-.07h0l.07-.05,0,0,0,0,.05,0,0,0,.08-.07.07-.06,0,0,.07-.07h0l.07-.08h0l.07-.07,0,0,.06-.06,0,0,0-.05,0,0,0,0,.06-.06,0,0,.06-.07v0l.07-.08h0l.07-.09v0l.05-.07,0,0,0-.06,0-.05,0-.05,0-.06,0,0,0-.08,0,0,.05-.09h0l.05-.1h0l0-.09v0l0-.07,0,0,0-.06,0-.06,0,0,0-.08v0l0-.09h0l0-.11h0l0-.11h0l0-.09v0l0-.07v-.11l0-.07v0l0-.09v0l0-.11h0v-.11h0v-.13l0-.09v-5a10.18,10.18,0,0,1-10.57,0Z" transform="translate(-64.73 -97.55)"/><rect class="cls-93" x="284.26" y="128.72" width="21.2" height="5.19" rx="2.59"/><rect class="cls-94" x="284.26" y="128.72" width="11.75" height="5.19" rx="2.59"/><rect class="cls-93" x="284.26" y="78.16" width="21.2" height="5.19" rx="2.59"/><rect class="cls-94" x="284.26" y="78.16" width="11.75" height="5.19" rx="2.59"/><rect class="cls-95" x="184.26" y="123.03" width="75.52" height="10.88" rx="3.85"/><rect class="cls-82" x="231.67" y="125.51" width="30.45" height="5.93" rx="2.1"/><path class="cls-96" d="M209.58,467.72a15.45,15.45,0,1,1-21.74,2.16A15.46,15.46,0,0,1,209.58,467.72Z" transform="translate(-64.73 -97.55)"/><path class="cls-97" d="M208.6,469.74c1.78,4.71-1.77,10.41-7.95,12.75s-12.61.42-14.4-4.29,1.78-10.41,7.95-12.75S206.82,465,208.6,469.74Z" transform="translate(-64.73 -97.55)"/><path class="cls-98" d="M184.36,478.81a15.79,15.79,0,0,1,.76-4,4.48,4.48,0,0,0,.59.56l8.53,7a5.56,5.56,0,0,0,4.1,1.23h0a5.61,5.61,0,0,0,3-9.9l-8.54-7a6.08,6.08,0,0,0-.66-.47,15.52,15.52,0,0,1,3.77-1.52l7.65,6.27a9.09,9.09,0,0,1-4.87,16.1h0a9.08,9.08,0,0,1-6.67-2Z" transform="translate(-64.73 -97.55)"/><path class="cls-38" d="M549.74,325.76A15.45,15.45,0,1,1,528,327.92,15.46,15.46,0,0,1,549.74,325.76Z" transform="translate(-64.73 -97.55)"/><path class="cls-38" d="M548.76,327.78c1.78,4.71-1.77,10.42-8,12.75s-12.62.42-14.4-4.29,1.78-10.41,8-12.75S547,323.07,548.76,327.78Z" transform="translate(-64.73 -97.55)"/><path class="cls-39" d="M524.52,336.85a15.64,15.64,0,0,1,.76-4,5.18,5.18,0,0,0,.59.55l8.53,7a5.57,5.57,0,0,0,4.1,1.24h0a5.58,5.58,0,0,0,5-6.12,5.56,5.56,0,0,0-2-3.78l-8.54-7a4.88,4.88,0,0,0-.66-.46,15.39,15.39,0,0,1,3.77-1.53l7.65,6.27a9.09,9.09,0,0,1-4.87,16.1h0a9.08,9.08,0,0,1-6.67-2Z" transform="translate(-64.73 -97.55)"/><path class="cls-99" d="M543.73,368.8c1.11,4.9-3.15,9.88-9.5,11.12s-12.41-1.72-13.52-6.61c-.06-.27-13.28-56.91-41.45-57.53-14.25-.32-32.59,10.16-54.44,56.64-2.28,4.83-9,7.6-15,6.18s-9-6.5-6.78-11.33c31.72-67.46,58.9-75.13,79.7-75.12C524.51,292.16,543.64,368.41,543.73,368.8Z" transform="translate(-64.73 -97.55)"/><path class="cls-28" d="M399.15,358.15c15.8,0,28.61,9.71,28.61,21.69,0,.25,0,.5,0,.74H370.55c0-.24,0-.49,0-.74C370.53,367.86,383.34,358.15,399.15,358.15Z" transform="translate(-64.73 -97.55)"/><rect class="cls-82" x="304.02" y="274.79" width="60.52" height="8.65" rx="4.33"/><path class="cls-31" d="M465.19,280.87c8.34-3.55,17.7-.34,20.91,7.19s-1,16.51-9.28,20.07-17.7.34-20.91-7.19S456.85,284.43,465.19,280.87Z" transform="translate(-64.73 -97.55)"/><path class="cls-100" d="M463.47,281.6c5.14-2.19,10.91-.2,12.89,4.44s-.58,10.17-5.72,12.36-10.91.21-12.89-4.43S458.33,283.8,463.47,281.6Z" transform="translate(-64.73 -97.55)"/><path class="cls-31" d="M485.1,287.62a5.26,5.26,0,1,1-3.28,7.09C480.68,292.06,482.15,288.88,485.1,287.62Z" transform="translate(-64.73 -97.55)"/><path class="cls-101" d="M656.72,247.31h15.21v14.54a7.74,7.74,0,0,0-7.8-7.63h-7.41Z" transform="translate(-64.73 -97.55)"/><path class="cls-101" d="M145.7,247.31h15.21v14.21a7.66,7.66,0,0,0-7.8-7.46H145.7Z" transform="translate(-64.73 -97.55)"/></svg>