<?xml version="1.0" encoding="utf-8"?>
<!-- Generator: Adobe Illustrator 24.1.0, SVG Export Plug-In . SVG Version: 6.00 Build 0)  -->
<svg version="1.1" id="Layer_1" xmlns="http://www.w3.org/2000/svg" xmlns:xlink="http://www.w3.org/1999/xlink" x="0px" y="0px"
	 viewBox="0 0 800 600" style="enable-background:new 0 0 800 600;" xml:space="preserve">
<style type="text/css">
	.st0{fill-rule:evenodd;clip-rule:evenodd;fill:#44245B;}
	.st1{fill-rule:evenodd;clip-rule:evenodd;fill:#AF206E;}
	.st2{fill-rule:evenodd;clip-rule:evenodd;fill:#E54355;stroke:#E54355;stroke-miterlimit:10;}
	.st3{fill-rule:evenodd;clip-rule:evenodd;fill:#44245B;stroke:#2D5C8A;stroke-miterlimit:10;}
	.st4{fill-rule:evenodd;clip-rule:evenodd;fill:#61544C;}
	.st5{fill-rule:evenodd;clip-rule:evenodd;fill:#BDA391;}
	.st6{fill-rule:evenodd;clip-rule:evenodd;fill:#544840;}
	.st7{fill-rule:evenodd;clip-rule:evenodd;fill:#EDCFBB;}
	.st8{fill-rule:evenodd;clip-rule:evenodd;fill:#A67D62;}
	.st9{fill-rule:evenodd;clip-rule:evenodd;fill:#6c5ba7;}
	.st10{fill-rule:evenodd;clip-rule:evenodd;fill:#2E1A47;stroke:#2E1A47;stroke-miterlimit:10;}
	.st11{fill-rule:evenodd;clip-rule:evenodd;fill:#ED5A5A;}
	.st12{fill-rule:evenodd;clip-rule:evenodd;fill:#FF6161;}
	.st13{fill-rule:evenodd;clip-rule:evenodd;fill:#F6CC1B;}
	.st14{fill-rule:evenodd;clip-rule:evenodd;fill:#F8F8FD;}
	.st15{fill-rule:evenodd;clip-rule:evenodd;fill:#FFCF61;}
	.st16{fill-rule:evenodd;clip-rule:evenodd;fill:#FF9E61;}
	.st17{fill-rule:evenodd;clip-rule:evenodd;fill:#7254F1;stroke:#663599;stroke-miterlimit:10;}
	.st18{fill-rule:evenodd;clip-rule:evenodd;fill:#542E8F;}
	.st19{fill-rule:evenodd;clip-rule:evenodd;fill:#362F2E;}
	.st20{fill-rule:evenodd;clip-rule:evenodd;fill:#FF9274;}
	.st21{fill-rule:evenodd;clip-rule:evenodd;fill:#632831;}
	.st22{fill-rule:evenodd;clip-rule:evenodd;fill:#E54355;}
	.st23{fill-rule:evenodd;clip-rule:evenodd;fill:#773A3F;}
	.st24{fill-rule:evenodd;clip-rule:evenodd;fill:#2B2A29;}
	.st25{fill-rule:evenodd;clip-rule:evenodd;fill:#E26644;stroke:#E26644;stroke-miterlimit:10;}
	.st26{fill-rule:evenodd;clip-rule:evenodd;fill:#E54355;stroke:#44245B;stroke-miterlimit:10;}
	.st27{fill-rule:evenodd;clip-rule:evenodd;fill:#333333;}
	.st28{fill-rule:evenodd;clip-rule:evenodd;fill:#F5EBEB;}
	.st29{fill-rule:evenodd;clip-rule:evenodd;fill:#E68757;}
	.st30{fill-rule:evenodd;clip-rule:evenodd;fill:#FF935F;}
	.st31{fill-rule:evenodd;clip-rule:evenodd;fill:#2E2D2D;}
	.st32{fill-rule:evenodd;clip-rule:evenodd;fill:#F2DCDC;}
	.st33{fill-rule:evenodd;clip-rule:evenodd;fill:#FFFFFF;}
	.st34{fill-rule:evenodd;clip-rule:evenodd;fill:#423F3F;}
	.st35{fill-rule:evenodd;clip-rule:evenodd;fill:#4A4747;}
	.st36{fill-rule:evenodd;clip-rule:evenodd;fill:#A4434C;}
	.st37{fill-rule:evenodd;clip-rule:evenodd;fill:#BA545E;}
	.st38{fill-rule:evenodd;clip-rule:evenodd;fill:#FFB48F;}
	.st39{fill-rule:evenodd;clip-rule:evenodd;fill:#C5634D;}
	.st40{fill-rule:evenodd;clip-rule:evenodd;fill:#3C3636;}
	.st41{fill-rule:evenodd;clip-rule:evenodd;fill:#F28B6F;}
	.st42{fill-rule:evenodd;clip-rule:evenodd;fill:#6E2C36;}
	.st43{fill-rule:evenodd;clip-rule:evenodd;fill:#79333D;}
	.st44{fill-rule:evenodd;clip-rule:evenodd;fill:#423938;}
	.st45{fill-rule:evenodd;clip-rule:evenodd;fill:#E8E3E3;}
	.st46{fill-rule:evenodd;clip-rule:evenodd;fill:#4A3F3E;}
	.st47{fill-rule:evenodd;clip-rule:evenodd;fill:#2E1A47;}
	.st48{fill-rule:evenodd;clip-rule:evenodd;fill:#453A33;}
	.st49{fill-rule:evenodd;clip-rule:evenodd;fill:#E08369;}
	.st50{fill-rule:evenodd;clip-rule:evenodd;fill:#80523B;}
	.st51{fill-rule:evenodd;clip-rule:evenodd;fill:#8A5A42;}
	.st52{fill-rule:evenodd;clip-rule:evenodd;fill:#9C755C;}
	.st53{fill-rule:evenodd;clip-rule:evenodd;fill:#FC9E83;}
	.st54{fill-rule:evenodd;clip-rule:evenodd;fill:#E26644;}
	.st55{fill-rule:evenodd;clip-rule:evenodd;fill:#BC6F22;}
	.st56{fill-rule:evenodd;clip-rule:evenodd;fill:#FFF0F0;}
	.st57{fill-rule:evenodd;clip-rule:evenodd;fill:#D9A9A9;}
	.st58{fill-rule:evenodd;clip-rule:evenodd;fill:#542E8F;stroke:#8D19F0;stroke-miterlimit:10;}
	.st59{fill-rule:evenodd;clip-rule:evenodd;fill:#9123F3;stroke:#542E8F;stroke-miterlimit:10;}
	.st60{fill-rule:evenodd;clip-rule:evenodd;fill:#542E8F;stroke:#8B1AF3;stroke-miterlimit:10;}
	.st61{fill-rule:evenodd;clip-rule:evenodd;fill:#D9C2A9;}
	.st62{fill-rule:evenodd;clip-rule:evenodd;fill:#542E8F;stroke:#7609ED;stroke-miterlimit:10;}
	.st63{fill-rule:evenodd;clip-rule:evenodd;fill:#6856A4;stroke:#7613ED;stroke-miterlimit:10;}
	.st64{fill-rule:evenodd;clip-rule:evenodd;fill:none;stroke:#7639ED;stroke-miterlimit:10;}
	.st65{fill-rule:evenodd;clip-rule:evenodd;fill:#CCB399;}
	.st66{fill-rule:evenodd;clip-rule:evenodd;fill:#FFD6D6;}
	.st67{fill-rule:evenodd;clip-rule:evenodd;fill:#684EA0;stroke:#762BED;stroke-miterlimit:10;}
	.st68{fill-rule:evenodd;clip-rule:evenodd;fill:#E6E6E6;}
	.st69{fill-rule:evenodd;clip-rule:evenodd;fill:#563A82;stroke:#9C66E4;stroke-miterlimit:10;}
	.st70{fill-rule:evenodd;clip-rule:evenodd;fill:#4D4D4D;}
	.st71{fill-rule:evenodd;clip-rule:evenodd;fill:#542E8F;stroke:#885CE5;stroke-miterlimit:10;}
	.st72{fill-rule:evenodd;clip-rule:evenodd;fill:#140A23;}
	.st73{fill-rule:evenodd;clip-rule:evenodd;fill:#BD967D;}
	.st74{fill-rule:evenodd;clip-rule:evenodd;fill:#7273C9;}
	.st75{fill-rule:evenodd;clip-rule:evenodd;fill:#E8B1E9;}
	.st76{fill-rule:evenodd;clip-rule:evenodd;fill:#A37AF3;}
	.st77{fill-rule:evenodd;clip-rule:evenodd;fill:#E5A54F;}
	.st78{fill-rule:evenodd;clip-rule:evenodd;fill:#FFE241;}
	.st79{fill-rule:evenodd;clip-rule:evenodd;fill:#5F2D78;stroke:#661C99;stroke-miterlimit:10;}
	.st80{fill-rule:evenodd;clip-rule:evenodd;fill:#F6CC1B;stroke:#DEC328;stroke-miterlimit:10;}
	.st81{fill-rule:evenodd;clip-rule:evenodd;fill:#F0D435;stroke:#F6CC1B;stroke-miterlimit:10;}
	.st82{fill-rule:evenodd;clip-rule:evenodd;fill:#FFFFFF;stroke:#F6CC1B;stroke-miterlimit:10;}
	.st83{fill-rule:evenodd;clip-rule:evenodd;fill:#F79E71;}
	.st84{fill-rule:evenodd;clip-rule:evenodd;fill:#8A644B;}
</style>
<path class="st0" d="M214.1,500.5c15.5,0,28.2-2.1,28.2-4.8c0-2.6-12.7-4.8-28.2-4.8c-15.5,0-28.2,2.1-28.2,4.8
	C185.9,498.4,198.6,500.5,214.1,500.5z"/>
<g>
	<path class="st1" d="M304.4,98h208.3c63,0,114.6,51.6,114.6,114.6v252.1H189.9V212.6C189.9,149.6,241.4,98,304.4,98z"/>
	<path class="st2" d="M304.4,98h18.7v366.7h-29.1V98.5C297.5,98.2,300.9,98,304.4,98L304.4,98z M360.7,98h29.1v366.7h-29.1V98
		L360.7,98z M427.4,98h29.1v366.7h-29.1V98L427.4,98z M494.1,98h18.7c3.5,0,7,0.2,10.4,0.5v366.2h-29.1V98L494.1,98z M560.7,108.6
		c10.7,5,20.5,11.5,29.1,19.4v336.7h-29.1V108.6L560.7,108.6z M256.5,464.7h-29.1V128c8.6-7.9,18.4-14.4,29.1-19.4V464.7z"/>
</g>
<path class="st3" d="M625.6,169.8L625.6,169.8l0.5,0h0c10,0.3,18.1,8.5,18.1,18.6v39.2c0,2.1-1.8,3.9-3.9,3.9h-29.4
	c-2.1,0-3.9-1.8-3.9-3.9v-39.2c0-6.2,3.1-11.7,7.7-15.1v-3.5h10.3L625.6,169.8z"/>
<rect x="147.7" y="247.3" class="st4" width="519.1" height="176.1"/>
<path class="st5" d="M173.5,247L173.5,247h-13.2v27.7c4.2,0,7.6-3.4,7.6-7.6c0-3.4-2.2-6.2-5.3-7.2c2.8-5.1,7.4-8.4,11.4-10.3
	c1.1,2.9,3.8,4.9,7.1,4.9c4.2,0,7.6-3.4,7.6-7.6v0H173.5z"/>
<path class="st5" d="M643.8,247L643.8,247H657v27.7c-4.2,0-7.6-3.4-7.6-7.6c0-3.4,2.2-6.2,5.3-7.2c-2.8-5.1-7.4-8.4-11.4-10.3
	c-1.1,2.9-3.8,4.9-7.1,4.9c-4.2,0-7.6-3.4-7.6-7.6v0H643.8z"/>
<g>
	<path class="st6" d="M500.7,255.8l9.8,2.6c1.1,0.3,1.7,1.4,1.4,2.4L499.5,307c-0.3,1.1-1.4,1.7-2.4,1.4l-9.8-2.6
		c-1.1-0.3-1.7-1.4-1.4-2.4l12.4-46.1C498.5,256.2,499.6,255.6,500.7,255.8z"/>
	<path class="st6" d="M501.5,265.2l3.6,1c1,0.3,1.6,1.3,1.3,2.3l-0.4,1.3c-0.3,1-1.3,1.6-2.3,1.3l-3.6-1c-1-0.3-1.6-1.3-1.3-2.3
		l0.4-1.3C499.5,265.5,500.5,264.9,501.5,265.2z"/>
	<path class="st6" d="M498.3,273.6l5.4,1.4c0.5,0.1,0.8,0.6,0.7,1.1l-0.2,0.7c-0.1,0.5-0.6,0.8-1.1,0.7l-5.4-1.4
		c-0.5-0.1-0.8-0.6-0.7-1.1l0.2-0.7C497.3,273.8,497.8,273.5,498.3,273.6z"/>
	<path class="st6" d="M491.2,299.9l5.4,1.4c0.5,0.1,0.8,0.6,0.7,1.1l-0.2,0.7c-0.1,0.5-0.6,0.8-1.1,0.7l-5.4-1.4
		c-0.5-0.1-0.8-0.6-0.7-1.1l0.2-0.7C490.2,300.1,490.7,299.8,491.2,299.9z"/>
</g>
<g>
	<path class="st6" d="M514.7,253.4l9.8,2.6c1.1,0.3,1.7,1.4,1.4,2.4l-12.4,46.1c-0.3,1.1-1.4,1.7-2.4,1.4l-9.8-2.6
		c-1.1-0.3-1.7-1.4-1.4-2.4l12.4-46.1C512.6,253.7,513.7,253.1,514.7,253.4z"/>
	<path class="st6" d="M515.6,262.7l3.6,1c1,0.3,1.6,1.3,1.3,2.3l-0.4,1.3c-0.3,1-1.3,1.6-2.3,1.3l-3.6-1c-1-0.3-1.6-1.3-1.3-2.3
		l0.4-1.3C513.6,263,514.6,262.4,515.6,262.7z"/>
	<path class="st6" d="M512.3,271.1l5.4,1.4c0.5,0.1,0.8,0.6,0.7,1.1l-0.2,0.7c-0.1,0.5-0.6,0.8-1.1,0.7l-5.4-1.4
		c-0.5-0.1-0.8-0.6-0.7-1.1l0.2-0.7C511.3,271.3,511.9,271,512.3,271.1z"/>
	<path class="st6" d="M505.3,297.4l5.4,1.4c0.5,0.1,0.8,0.6,0.7,1.1l-0.2,0.7c-0.1,0.5-0.6,0.8-1.1,0.7l-5.4-1.4
		c-0.5-0.1-0.8-0.6-0.7-1.1l0.2-0.7C504.3,297.6,504.8,297.3,505.3,297.4z"/>
</g>
<path class="st6" d="M235.1,255.3v38.5v0v19.2c0,2-1.4,3.8-3.3,4.5v0c0-1.6-1.3-2.9-3-2.9h-3.9c-1.6,0-3,1.3-3,2.9v0
	c-1.9-0.7-3.3-2.4-3.3-4.5v-19.1l0-0.1v-38.5c0-2.6,2.2-4.7,5-4.7h6.5C232.9,250.5,235.1,252.7,235.1,255.3z"/>
<path class="st6" d="M248.2,268.3v30.4v0v15.2c0,1.6-1.2,3-2.8,3.5v0c0-1.2-1.2-2.3-2.6-2.3h-3.4c-1.4,0-2.6,1-2.6,2.3v0
	c-1.7-0.5-2.8-1.9-2.8-3.5v-15.1v-0.1v-30.4c0-2.1,1.9-3.7,4.3-3.7h5.7C246.3,264.6,248.2,266.3,248.2,268.3z"/>
<path class="st6" d="M520,285.6h49.2h0h24.6c2.6,0,4.8,1.7,5.7,4h0c-2,0-3.7,1.6-3.7,3.7v4.8c0,2,1.6,3.7,3.7,3.7h0
	c-0.9,2.3-3.1,4-5.7,4h-24.4l-0.2,0H520c-3.3,0-6.1-2.7-6.1-6.1v-8C513.9,288.4,516.7,285.6,520,285.6z"/>
<path class="st6" d="M533.6,270.2h37.7h0h18.8c2,0,3.7,1.3,4.4,3.1h0c-1.5,0-2.8,1.3-2.8,2.8v3.7c0,1.5,1.3,2.8,2.8,2.8h0
	c-0.7,1.8-2.4,3.1-4.4,3.1h-18.7l-0.1,0h-37.8c-2.6,0-4.7-2.1-4.7-4.7v-6.1C528.9,272.3,531,270.2,533.6,270.2z"/>
<rect x="145.7" y="243.3" class="st7" width="15.2" height="184.2"/>
<rect x="656.7" y="243.3" class="st8" width="15.2" height="184.2"/>
<path class="st9" d="M139.1,423.4h540.1c3.3,0,5.9,2.7,5.9,5.9v4c0,3.3-2.7,5.9-5.9,5.9H139.1c-3.3,0-5.9-2.7-5.9-5.9v-4
	C133.1,426.1,135.8,423.4,139.1,423.4z"/>
<path class="st10" d="M407.2,487.2c188.7,0,342.5-8.6,342.5-19.1c0-10.5-153.9-19.1-342.5-19.1c-188.6,0-342.5,8.6-342.5,19.1
	C64.7,478.6,218.6,487.2,407.2,487.2z"/>
<path class="st9" d="M523.4,474.1c99.4,0,180.5-4.1,180.5-9c0-5-81.1-9-180.5-9c-99.4,0-180.5,4.1-180.5,9
	C342.9,470,424,474.1,523.4,474.1z"/>
<path class="st11" d="M576.5,203.7c8.1,2.7,12.5,11.5,9.8,19.6c-2.7,8.1-11.5,12.5-19.6,9.8c-8.1-2.7-12.5-11.5-9.8-19.6
	C559.7,205.3,568.5,201,576.5,203.7z"/>
<path class="st12" d="M580.4,205.6c5.6,3.8,8.2,11,5.9,17.7c-1.8,5.4-6.2,9.1-11.4,10.2c-5.6-3.8-8.2-11-5.9-17.7
	C570.8,210.4,575.2,206.7,580.4,205.6z"/>
<g>
	<path class="st13" d="M619.4,440.2c6.3,5.1,7.2,14.3,2.1,20.6c-5.1,6.3-14.3,7.2-20.6,2.1c-6.3-5.1-7.2-14.3-2.1-20.6
		C603.9,436.1,613.1,435.1,619.4,440.2z"/>
	<path class="st13" d="M618.5,442.2c1.7,4.5-1.6,9.9-7.5,12.1c-5.8,2.2-12,0.5-13.7-4c-1.7-4.5,1.6-9.9,7.5-12.1
		C610.7,435.9,616.8,437.7,618.5,442.2z"/>
	<path class="st14" d="M595.5,450.9c0.1-1.3,0.3-2.6,0.7-3.8c0.2,0.2,0.4,0.4,0.6,0.5l8.1,6.6c1.1,0.9,2.5,1.3,3.9,1.2l0,0
		c1.4-0.1,2.7-0.8,3.6-1.9c0.9-1.1,1.3-2.5,1.2-3.9c-0.1-1.4-0.8-2.7-1.9-3.6l-8.1-6.6c-0.2-0.2-0.4-0.3-0.6-0.4
		c1.1-0.6,2.3-1.1,3.6-1.5l7.3,5.9c1.8,1.5,2.9,3.6,3.1,5.8c0.2,2.2-0.4,4.5-1.9,6.3c-1.5,1.8-3.6,2.9-5.8,3.1l0,0
		c-2.2,0.2-4.5-0.4-6.3-1.9L595.5,450.9z"/>
</g>
<g>
	<path class="st15" d="M453.9,179.8h10.2c1.1,0,2,0.9,2,2v47.7c0,1.1-0.9,2-2,2h-10.2c-1.1,0-2-0.9-2-2v-47.7
		C452,180.7,452.8,179.8,453.9,179.8z"/>
	<path class="st16" d="M457.2,188.6h3.7c1,0,1.9,0.8,1.9,1.9v1.4c0,1-0.8,1.9-1.9,1.9h-3.7c-1,0-1.9-0.8-1.9-1.9v-1.4
		C455.3,189.4,456.1,188.6,457.2,188.6z"/>
	<path class="st16" d="M456.2,197.5h5.6c0.5,0,0.9,0.4,0.9,0.9v0.7c0,0.5-0.4,0.9-0.9,0.9h-5.6c-0.5,0-0.9-0.4-0.9-0.9v-0.7
		C455.3,198,455.7,197.5,456.2,197.5z"/>
	<path class="st16" d="M456.2,224.8h5.6c0.5,0,0.9,0.4,0.9,0.9v0.7c0,0.5-0.4,0.9-0.9,0.9h-5.6c-0.5,0-0.9-0.4-0.9-0.9v-0.7
		C455.3,225.2,455.7,224.8,456.2,224.8z"/>
</g>
<g>
	<path class="st17" d="M467.6,167.3h12.6c1.4,0,2.5,1.1,2.5,2.5V229c0,1.4-1.1,2.5-2.5,2.5h-12.6c-1.4,0-2.5-1.1-2.5-2.5v-59.3
		C465.2,168.4,466.3,167.3,467.6,167.3z"/>
	<path class="st18" d="M471.6,178.2h4.6c1.3,0,2.3,1,2.3,2.3v1.7c0,1.3-1,2.3-2.3,2.3h-4.6c-1.3,0-2.3-1-2.3-2.3v-1.7
		C469.3,179.2,470.4,178.2,471.6,178.2z"/>
	<path class="st18" d="M470.5,189.3h6.9c0.6,0,1.2,0.5,1.2,1.2v0.8c0,0.6-0.5,1.2-1.2,1.2h-6.9c-0.6,0-1.2-0.5-1.2-1.2v-0.8
		C469.3,189.9,469.8,189.3,470.5,189.3z"/>
	<path class="st18" d="M470.5,223.2h6.9c0.6,0,1.2,0.5,1.2,1.2v0.8c0,0.6-0.5,1.2-1.2,1.2h-6.9c-0.6,0-1.2-0.5-1.2-1.2v-0.8
		C469.3,223.7,469.8,223.2,470.5,223.2z"/>
</g>
<path class="st8" d="M139.1,231.5h540.1c3.3,0,5.9,2.7,5.9,5.9v4c0,3.3-2.7,5.9-5.9,5.9H139.1c-3.3,0-5.9-2.7-5.9-5.9v-4
	C133.1,234.1,135.8,231.5,139.1,231.5z"/>
<path class="st7" d="M139.1,305.8h540.1c3.3,0,5.9,2.7,5.9,5.9v4c0,3.3-2.7,5.9-5.9,5.9H139.1c-3.3,0-5.9-2.7-5.9-5.9v-4
	C133.1,308.4,135.8,305.8,139.1,305.8z"/>
<path class="st19" d="M300.3,317.1c6.2-0.1,11.3,4.8,11.4,11c0.1,6.2-4.8,11.3-11,11.4l-72.3,1.1c-6.2,0.1-11.3-4.8-11.4-11
	c-0.1-6.2,4.8-11.3,11-11.4L300.3,317.1z"/>
<path class="st20" d="M294.5,325c2,1.2,2.6,3.8,1.3,5.8c-1.2,2-3.8,2.6-5.8,1.3c0,0-16.2-10-10.8-27.5c0.7-2.2,3-3.5,5.3-2.8
	c2.2,0.7,3.5,3,2.8,5.3C283.8,318.4,294.4,325,294.5,325z"/>
<path class="st20" d="M301.3,338.9c9.1,0,16.6-7.5,16.6-16.6c0-9.1-7.5-16.6-16.6-16.6s-16.6,7.5-16.6,16.6
	C284.7,331.5,292.2,338.9,301.3,338.9z"/>
<path class="st19" d="M258.8,339.3c3,5.4,1,12.2-4.5,15.2c-5.4,3-12.2,1-15.2-4.5l-34.8-63.4c-3-5.4-1-12.2,4.5-15.2
	c5.4-3,12.2-1,15.2,4.5L258.8,339.3z"/>
<path class="st21" d="M220.1,188.4c-9.5,1.6-16.9,9.9-16.9,19.8v22.3l0.1,0l0,0c13.4,0,24.4-11,24.4-24.4l0,0
	C227.8,199.2,224.8,192.9,220.1,188.4z"/>
<path class="st9" d="M225.9,474.1c61.7,0,112-4.1,112-9c0-5-50.3-9-112-9c-61.7,0-112,4.1-112,9C113.9,470,164.2,474.1,225.9,474.1z
	"/>
<g>
	<path class="st1" d="M261.2,331.6h16.6c28.7,0,52.2,23.5,52.2,52.2v0c0,28.7-23.5,52.2-52.2,52.2h-16.6
		c-28.7,0-52.2-23.5-52.2-52.2v0C209.1,355.1,232.5,331.6,261.2,331.6z"/>
	<path class="st22" d="M253.1,331.6L253.1,331.6c24.2,0,44,19.8,44,44v16.3c0,24.2-19.8,44-44,44l0,0c-24.2,0-44-19.8-44-44v-16.3
		C209.1,351.4,228.9,331.6,253.1,331.6z"/>
	<path class="st8" d="M219.8,331.1h98.6c4.5,0,8.2,3.7,8.2,8.2v0c0,4.5-3.7,8.2-8.2,8.2h-98.6c-4.5,0-8.2-3.7-8.2-8.2v0
		C211.7,334.8,215.4,331.1,219.8,331.1z"/>
	<path class="st23" d="M288.5,331.1h29.9c4.5,0,8.2,3.7,8.2,8.2v0c0,4.5-3.7,8.2-8.2,8.2h-29.9c-4.5,0-8.2-3.7-8.2-8.2v0
		C280.3,334.8,284,331.1,288.5,331.1z"/>
</g>
<path class="st23" d="M138.4,463.9c-1.3,2.2-4.1,2.9-6.2,1.7c-2-1.2-2.8-3.7-1.9-5.8l0,0l0,0l11.4-25.5c0.2-0.5,0.4-1,0.7-1.5
	c2.1-3.6,6.8-4.9,10.4-2.8c3.6,2.1,4.9,6.8,2.8,10.4c-0.1,0.2-0.3,0.5-0.4,0.7l-0.1,0.1L138.4,463.9z"/>
<path class="st23" d="M228.2,463.9c-1.3,2.2-4.1,2.9-6.2,1.7c-2-1.2-2.8-3.7-1.9-5.8l0,0l0,0l11.4-25.5c0.2-0.5,0.4-1,0.6-1.5
	c2.1-3.6,6.8-4.9,10.4-2.8c3.6,2.1,4.9,6.8,2.8,10.4c-0.1,0.2-0.3,0.5-0.4,0.7l-0.1,0.1L228.2,463.9z"/>
<path class="st8" d="M301.7,463.9c1.3,2.2,4.1,2.9,6.2,1.7c2-1.2,2.8-3.7,1.9-5.8l0,0l0,0l-11.4-25.5c-0.2-0.5-0.4-1-0.6-1.5
	c-2.1-3.6-6.8-4.9-10.4-2.8c-3.6,2.1-4.9,6.8-2.8,10.4c0.1,0.2,0.3,0.5,0.4,0.7l0.1,0.1L301.7,463.9z"/>
<path class="st23" d="M191,463.9c-1.3,2.2-4.1,2.9-6.2,1.7c-2-1.2-2.8-3.7-1.9-5.8l0,0l0,0l11.4-25.5c0.2-0.5,0.4-1,0.6-1.5
	c2.1-3.6,6.8-4.9,10.4-2.8c3.6,2.1,4.9,6.8,2.8,10.4c-0.1,0.2-0.3,0.5-0.4,0.7l-0.1,0.1L191,463.9z"/>
<path class="st23" d="M145.7,420.5h56c6.9,0,12.5,5.6,12.5,12.5v0c0,6.9-5.6,12.5-12.5,12.5h-56c-6.9,0-12.5-5.6-12.5-12.5v0
	C133.2,426.1,138.8,420.5,145.7,420.5z"/>
<path class="st8" d="M208,420.5h79.5c6.9,0,12.5,5.6,12.5,12.5v0c0,6.9-5.6,12.5-12.5,12.5H208c-6.9,0-12.5-5.6-12.5-12.5v0
	C195.5,426.1,201.1,420.5,208,420.5z"/>
<path class="st22" d="M181.7,391.8h117.6c12.1,0,22.1,9.9,22.1,22.1v0c0,12.1-9.9,22.1-22.1,22.1H181.7c-12.1,0-22.1-9.9-22.1-22.1
	v0C159.7,401.7,169.6,391.8,181.7,391.8z"/>
<path class="st22" d="M181.7,391.8H221c12.1,0,22.1,9.9,22.1,22.1v0c0,12.1-9.9,22.1-22.1,22.1h-39.2c-12.1,0-22.1-9.9-22.1-22.1v0
	C159.7,401.7,169.6,391.8,181.7,391.8z"/>
<path class="st1" d="M156.2,283.9L156.2,283.9h30.8V295c10.4,8.1,17.9,19.8,19.9,32.9l2.5,16.3c3.7,24.2-13,44-37.2,44h0
	c-24.2,0-47.1-19.8-50.8-44l-2.5-16.3C115.3,303.7,132,283.9,156.2,283.9z"/>
<path class="st1" d="M185.9,283.9L185.9,283.9c24.2,0,47.1,19.8,50.8,44l2.5,16.3c3.7,24.2-13,44-37.2,44h0
	c-24.2,0-47.1-19.8-50.8-44l-2.5-16.3C144.9,303.7,161.7,283.9,185.9,283.9z"/>
<path class="st19" d="M231,390.9c-4.9,3.5-12,2.6-15.7-2.1c-3.7-4.6-2.8-11.2,2.2-14.7l76.3-53.8c4.9-3.5,12-2.6,15.7,2.1
	c1.7,2.1,2.4,4.6,2.2,7.1l-9.9,125.1c-0.4,5.8-5.8,10.2-12,9.7c-6.2-0.4-10.8-5.4-10.4-11.2l8.1-102L231,390.9z"/>
<path class="st0" d="M499.7,479.7c15.5,0,28.2-2.1,28.2-4.8c0-2.6-12.7-4.8-28.2-4.8c-15.5,0-28.2,2.1-28.2,4.8
	C471.5,477.5,484.2,479.7,499.7,479.7z"/>
<path class="st24" d="M469.7,307.2c-2.6-4.4-1.1-10.1,3.3-12.7c4.4-2.6,10.1-1.1,12.7,3.3c0.1,0.2,32.6,57,97.4,51
	c5.1-0.5,9.6,3.3,10.1,8.4c0.5,5.1-3.3,9.6-8.4,10.1C508.1,374.4,469.8,307.4,469.7,307.2z"/>
<path class="st25" d="M515.5,360.4c6.4,0.8,10.9,6.6,10.2,13c-0.8,6.4-6.6,10.9-13,10.2c-0.3,0-95.8-12.4-155.8,12.3
	c-5.9,2.4-12.7-0.4-15.2-6.3c-2.4-5.9,0.4-12.7,6.3-15.2C413.9,347.2,515.2,360.3,515.5,360.4z"/>
<path class="st26" d="M525.7,373.1l0,0.3c-0.8,6.4-6.6,10.9-13,10.2c-0.3,0-95.8-12.4-155.8,12.3c-2,0.8-4.1,1-6.1,0.7
	c0.4-4.1,3-7.9,7.1-9.6c65.8-27.1,167.1-14,167.4-14L525.7,373.1z"/>
<path class="st27" d="M309.8,358.8L309.8,358.8c4.1-5.8,12.2-7.2,18-3.2l27.9,19.6c5.8,4.1,7.2,12.2,3.2,18h0
	c-4.1,5.8-12.2,7.2-18,3.2L313,376.8C307.1,372.7,305.7,364.6,309.8,358.8z"/>
<path class="st28" d="M305.1,363.7L305.1,363.7c4.1-5.8,12.2-7.2,18-3.2l27.9,19.6c5.8,4.1,7.2,12.2,3.2,18l0,0
	c-4.1,5.8-12.2,7.2-18,3.2l-27.9-19.6C302.4,377.7,301,369.5,305.1,363.7z"/>
<path class="st23" d="M382,459.8c-1.3,2.2-4.1,2.9-6.2,1.7c-2-1.2-2.8-3.7-1.9-5.8l0,0l0,0l11.4-25.5c0.2-0.5,0.4-1,0.7-1.5
	c2.1-3.6,6.8-4.9,10.4-2.8c3.6,2.1,4.9,6.8,2.8,10.4c-0.1,0.2-0.3,0.5-0.4,0.7l-0.1,0.1L382,459.8z"/>
<path class="st22" d="M599.9,303.5L599.9,303.5h107.5l-55.9,81.7h-92.2l-6.3,6.3h-36.5c-1.4-5.6,0.1-11.8,4.5-16.1l66.9-66.9
	C591.2,305.1,595.5,303.5,599.9,303.5L599.9,303.5z"/>
<path class="st1" d="M625.2,385.2h-17.3c-4.5-6.7-3.9-20.6,2.1-34.7c7.4-17.5,20.2-28.8,28.7-25.2c8.5,3.6,9.3,20.6,2,38.2
	C636.6,373,630.9,380.7,625.2,385.2z"/>
<path class="st1" d="M721,332.5l-66.9,66.9c-6.6,6.6-17.4,6.6-24,0l0,0c-6.6-6.6-6.6-17.4,0-24l66.9-66.9c6.6-6.6,17.4-6.6,24,0l0,0
	C727.6,315,727.6,325.8,721,332.5z"/>
<path class="st23" d="M393.6,409.6h254.7c6.9,0,12.5,5.6,12.5,12.5v0c0,6.9-5.6,12.5-12.5,12.5H393.6c-6.9,0-12.5-5.6-12.5-12.5v0
	C381.1,415.3,386.7,409.6,393.6,409.6z"/>
<path class="st1" d="M393.6,409.6h79.5c6.9,0,12.5,5.6,12.5,12.5v0c0,6.9-5.6,12.5-12.5,12.5h-79.5c-6.9,0-12.5-5.6-12.5-12.5v0
	C381.1,415.3,386.7,409.6,393.6,409.6z"/>
<path class="st23" d="M504.3,459.8c1.3,2.2,4.1,2.9,6.2,1.7c2-1.2,2.8-3.7,1.9-5.8l0,0l0,0L501,430.1c-0.2-0.5-0.4-1-0.6-1.5
	c-2.1-3.6-6.8-4.9-10.4-2.8c-3.6,2.1-4.9,6.8-2.8,10.4c0.1,0.2,0.3,0.5,0.4,0.7l0.1,0.1L504.3,459.8z"/>
<path class="st23" d="M647.4,459.8c1.3,2.2,4.1,2.9,6.2,1.7c2-1.2,2.8-3.7,1.9-5.8l0,0l0,0l-11.4-25.5c-0.2-0.5-0.4-1-0.6-1.5
	c-2.1-3.6-6.8-4.9-10.4-2.8c-3.6,2.1-4.9,6.8-2.8,10.4c0.1,0.2,0.3,0.5,0.4,0.7l0.1,0.1L647.4,459.8z"/>
<path class="st29" d="M606.5,331.1c-0.9-6.3,3.5-12.2,9.9-13.1c6.3-0.9,12.2,3.6,13.1,9.9c0,0.1,4.5,29.9-22.7,40.6
	c-6,2.3-12.7-0.6-15.1-6.6c-2.3-6,0.6-12.7,6.6-15.1C608.2,343,606.5,331.2,606.5,331.1z"/>
<path class="st23" d="M606.5,331.1c-0.9-6.3,3.5-12.2,9.9-13.1c4.4-0.6,8.6,1.4,11.1,4.8c2,7.8-2.3,15.9-10,18.6l-7.8,2.7
	c-2.8,1-5.7,1.4-8.6,1.3C607.9,340.6,606.5,331.2,606.5,331.1z"/>
<path class="st27" d="M580.4,299.6l-5.3-5.3c-1.1-1.1-1.1-2.8,0-3.9h0c1.1-1.1,2.8-1.1,3.9,0l5.3,5.3L580.4,299.6z"/>
<path class="st27" d="M587.2,282.2L587.2,282.2c3.7,0,6.8,3.1,6.8,6.8v15.1c0,3.7-3.1,6.8-6.8,6.8h0c-3.7,0-6.8-3.1-6.8-6.8V289
	C580.4,285.2,583.5,282.2,587.2,282.2z"/>
<path class="st30" d="M599.5,281.2H616c8.6,0,15.6,7,15.6,15.6v28c0,8.6-7,15.6-15.6,15.6h-8.2c-13.1,0-23.8-10.7-23.8-23.8v-19.7
	C583.9,288.3,590.9,281.2,599.5,281.2z"/>
<path class="st29" d="M631.6,312.4v12.4c0,8.6-7,15.6-15.6,15.6h-8.2c-13.1,0-23.8-10.7-23.8-23.8v-4.2H631.6z"/>
<path class="st23" d="M595.2,303.7v2c0,1.3-1,2.3-2.3,2.3h-1.2c-2,0-3.6-1.6-3.6-3.6v-1.8c0.5,1.5,1.9,2.5,3.6,2.5h1.3
	C594,305.2,594.8,304.6,595.2,303.7z"/>
<path class="st23" d="M602.8,322.7h9.3c2,0,3.6,1.6,3.6,3.6v1.3c0,1.3-1.1,2.4-2.4,2.4h-9.3c-2,0-3.6-1.6-3.6-3.6v-1.3
	C600.4,323.7,601.5,322.7,602.8,322.7z"/>
<path class="st12" d="M614.8,326.3v0.5c0,1.1-0.9,2-2,2h-7.6c0.8-1.9,3.2-3.3,6.1-3.3C612.6,325.5,613.8,325.8,614.8,326.3z"/>
<path class="st23" d="M615.9,303.7v2c0,1.3-1,2.3-2.3,2.3h-1.2c-2,0-3.6-1.6-3.6-3.6v-1.8c0.5,1.5,1.9,2.5,3.6,2.5h1.3
	C614.7,305.2,615.5,304.6,615.9,303.7z"/>
<ellipse transform="matrix(0.9872 -0.1595 0.1595 0.9872 -37.4802 98.2438)" class="st27" cx="593.4" cy="282.7" rx="14.5" ry="14.5"/>
<path class="st27" d="M593.4,275.8h29.2c5.9,0,10.6,4.8,10.6,10.6l0,0c0,5.9-4.8,10.6-10.6,10.6h-29.2V275.8z"/>
<path class="st27" d="M631.1,282.2L631.1,282.2c3.7,0,6.8,3.1,6.8,6.8v15.1c0,3.7-3.1,6.8-6.8,6.8h0c-3.7,0-6.8-3.1-6.8-6.8V289
	C624.3,285.2,627.3,282.2,631.1,282.2z"/>
<path class="st30" d="M631.6,316.9c3.4,0,6.1-2.7,6.1-6.1c0-3.4-2.7-6.1-6.1-6.1c-3.4,0-6.1,2.7-6.1,6.1
	C625.5,314.2,628.2,316.9,631.6,316.9z"/>
<path class="st23" d="M631.6,308.2c1.5,0,2.7,1.2,2.7,2.7c0,1.5-1.2,2.7-2.7,2.7V308.2z"/>
<path class="st27" d="M617.2,281v-7.5c0-1.5,1.2-2.7,2.7-2.7h0c1.5,0,2.7,1.2,2.7,2.7v7.5H617.2z"/>
<path class="st27" d="M594.1,272.5V265c0-1.5,1.2-2.7,2.7-2.7h0c1.5,0,2.7,1.2,2.7,2.7v7.5H594.1z"/>
<path class="st31" d="M500.6,347.3H609c9,0,16.3,7.3,16.3,16.3v0c0,9-7.3,16.3-16.3,16.3H500.6c-9,0-16.3-7.3-16.3-16.3v0
	C484.3,354.6,491.6,347.3,500.6,347.3z"/>
<path class="st27" d="M500.6,347.3H609c7.1,0,13.2,4.6,15.4,11.1c-2.4,1.4-5.1,2.1-8.1,2.1H507.9c-7.1,0-13.2-4.6-15.4-11.1
	C494.9,348.1,497.6,347.3,500.6,347.3z"/>
<path class="st25" d="M496.9,347.3h26.8c9,0,16.3,7.3,16.3,16.3v0c0,9-7.3,16.3-16.3,16.3h-26.8c-9,0-16.3-7.3-16.3-16.3v0
	C480.6,354.6,487.9,347.3,496.9,347.3z"/>
<path class="st1" d="M374.7,379.8h286.2c12,0,21.8,9.8,21.8,21.8v0c0,12-9.8,21.8-21.8,21.8H374.7c-12,0-21.8-9.8-21.8-21.8v0
	C352.9,389.6,362.7,379.8,374.7,379.8z"/>
<path class="st1" d="M589.7,379.8h20.5c-0.1,11.6-2.7,28.5-14.8,43.6h-32.2C585.5,410.6,589.5,391.4,589.7,379.8z"/>
<path class="st22" d="M374.7,379.8H496c12,0,21.8,9.8,21.8,21.8v0c0,12-9.8,21.8-21.8,21.8H374.7c-12,0-21.8-9.8-21.8-21.8v0
	C352.9,389.6,362.7,379.8,374.7,379.8z"/>
<path class="st1" d="M374.7,379.8h22.9c12,0,21.8,9.8,21.8,21.8v0c0,12-9.8,21.8-21.8,21.8h-22.9c-12,0-21.8-9.8-21.8-21.8v0
	C352.9,389.6,362.7,379.8,374.7,379.8z"/>
<path class="st32" d="M316.3,381.6c5.1,0,9.3-4.2,9.3-9.3c0-5.1-4.2-9.3-9.3-9.3c-5.1,0-9.3,4.2-9.3,9.3
	C307,377.4,311.2,381.6,316.3,381.6z"/>
<path class="st32" d="M342.4,400.3c5.1,0,9.3-4.2,9.3-9.3c0-5.1-4.2-9.3-9.3-9.3c-5.1,0-9.3,4.2-9.3,9.3
	C333.2,396.1,337.3,400.3,342.4,400.3z"/>
<g>
	<path class="st13" d="M484.4,442.1c9.1,0,17,7.3,17.7,16.4c0.7,9.1-6,16.4-15.1,16.4c-9.1,0-17-7.3-17.7-16.4
		C468.5,449.4,475.3,442.1,484.4,442.1z"/>
	<path class="st13" d="M485.9,444.9c4.8,2.7,6.3,9.8,3.3,15.8c-3,6.1-9.4,8.8-14.2,6.2c-4.8-2.7-6.3-9.8-3.3-15.8
		C474.7,445,481.1,442.2,485.9,444.9z"/>
	<path class="st33" d="M473.2,468.2c-0.9-1.2-1.7-2.4-2.4-3.8c0.3,0,0.6,0.1,0.9,0.1h11.7c1.6,0,3.1-0.7,4.1-1.7l0,0
		c1-1.1,1.5-2.6,1.4-4.2c-0.1-1.6-0.9-3.1-2.1-4.2c-1.2-1.1-2.7-1.7-4.3-1.7h-11.7c-0.3,0-0.6,0-0.9,0.1c0.4-1.4,1-2.6,1.8-3.8h10.5
		c2.7,0,5.2,1.1,7.1,2.8c1.9,1.8,3.2,4.2,3.4,6.8c0.2,2.7-0.7,5.1-2.3,6.8l0,0c-1.6,1.8-3.9,2.8-6.6,2.8H473.2z"/>
</g>
<path class="st34" d="M603.1,366.6c-1.2-5.5,2.3-11,7.9-12.2c5.5-1.2,11,2.3,12.2,7.9c0,0.2,17.3,74.4-76.5,88.9
	c-5.6,0.9-10.8-3-11.7-8.5c-0.9-5.6,3-10.8,8.5-11.7C615.5,419.9,603.1,366.8,603.1,366.6z"/>
<path class="st35" d="M603.1,366.6c-1.2-5.5,2.3-11,7.9-12.2c0.2,0,0.4-0.1,0.5-0.1c1.9,11.7,8.2,73.8-76.6,87
	c-0.1-5,3.5-9.5,8.7-10.3C615.5,419.9,603.1,366.8,603.1,366.6z"/>
<g>
	<path class="st36" d="M520.2,443.9c-0.4,0.1-0.8,0.1-1.1,0.1c-1.4,0-2.8-0.6-3.8-1.7c-1.7-1.8-4.5-1.8-6.3-0.1
		c-1.8,1.7-1.9,4.5-0.2,6.3c2.7,2.9,6.4,4.4,10,4.5c1.2,0,2.3-0.1,3.5-0.3l-0.2-1l14.7-3.5l-1.8-7.8L520.2,443.9z"/>
	<path class="st37" d="M514.4,446.6c-0.4,0.1-0.8,0.1-1.1,0.1c-1.4,0-2.8-0.6-3.8-1.7c-1.7-1.8-4.5-1.8-6.3-0.1
		c-1.8,1.7-1.9,4.5-0.2,6.3c2.7,2.9,6.4,4.4,10,4.5c1.2,0,2.3-0.1,3.5-0.3l-0.2-1l14.7-3.5l-1.8-7.8L514.4,446.6z"/>
	<path class="st30" d="M525.6,455.7l20.2-4.8l0.1,0c4.8-1.1,7.8-6,6.7-10.8l0,0c-1.1-4.8-6-7.8-10.8-6.7l-0.1,0l-20.2,4.8l-1.2,0.3
		c0.4,0.6,0.7,1.4,0.9,2.2v0c0.9,3.7-1.4,7.4-5.1,8.2l-2.6,0.6l2,8.5L525.6,455.7z"/>
	<path class="st36" d="M528.9,436.4l-7.4,1.7l-1.2,0.3l0,0.1c0.4,0.6,0.7,1.3,0.9,2v0c0.9,3.7-1.4,7.4-5.1,8.2l-2.6,0.6l1.2,5.3
		l3.8-0.9c3.8-0.9,6.8-3.2,8.7-6.3c1.9-3.1,2.6-6.9,1.7-10.6C529,436.8,528.9,436.6,528.9,436.4z"/>
	<path class="st30" d="M517.2,457.7l-6.7,1.6l0,0c-0.6,0.1-1.2,0.3-1.7,0.6c-1.2,0.6-2.1,1.7-2.6,3.1c-0.7,2.3-3.1,3.6-5.5,2.9
		c-2.3-0.7-3.6-3.1-3-5.4c1.1-3.7,3.6-6.6,6.8-8.3c1.2-0.6,2.5-1.1,3.8-1.4l6.7-1.6c1.4-0.3,2.6-1.2,3.3-2.4c0.7-1.2,1-2.6,0.7-4
		c-0.3-1.4-1.2-2.6-2.4-3.3c-1.2-0.7-2.6-1-4-0.7c-2.3,0.5-4.7-0.9-5.2-3.3c-0.6-2.4,0.9-4.7,3.2-5.3c3.8-0.9,7.6-0.2,10.6,1.7
		c3.1,1.9,5.4,5,6.3,8.7c0.9,3.8,0.2,7.6-1.7,10.6C524,454.4,521,456.8,517.2,457.7z"/>
	<path class="st38" d="M502.8,464.1c-1.2,0.3-2.4-0.5-2.6-1.6c-0.3-1.2,0.5-2.4,1.6-2.6c1.2-0.3,2.4,0.5,2.6,1.6
		C504.7,462.7,504,463.9,502.8,464.1z"/>
	<path class="st38" d="M512.4,436.5c-1.2,0.3-2.4-0.5-2.6-1.6c-0.3-1.2,0.5-2.4,1.6-2.6c1.2-0.3,2.4,0.5,2.6,1.6
		C514.3,435,513.6,436.2,512.4,436.5z"/>
</g>
<path class="st39" d="M229.9,232.4c4,0,7.2-3.2,7.2-7.2c0-4-3.2-7.2-7.2-7.2c-4,0-7.2,3.2-7.2,7.2
	C222.6,229.2,225.9,232.4,229.9,232.4z"/>
<path class="st40" d="M198.7,371.5c21.3-2,38.1-23.6,38.1-49.9c0-26.3-16.8-47.8-38.1-49.9V371.5z"/>
<polygon class="st33" points="212.6,267.3 188.1,267.3 188.1,279.7 208.1,279.7 "/>
<path class="st21" d="M230.5,188.4c-9.5,1.6-16.9,9.9-16.9,19.8v22.3l0.1,0l0,0c13.4,0,24.4-11,24.4-24.4l0,0
	C238.2,199.2,235.2,192.9,230.5,188.4z"/>
<rect x="174.3" y="243.1" class="st20" width="31.5" height="36.4"/>
<path class="st39" d="M205.8,243.1h-31.5v8.1c4.8,10.9,15.7,18.6,28.3,18.6h3.2V243.1z"/>
<path class="st20" d="M214.6,193.4h-25.4c-10.2,0-18.5,8.3-18.5,18.5v39.3c0,6.5,5.3,11.9,11.9,11.9h19.7c17,0,30.9-13.9,30.9-30.9
	v-20.2C233.1,201.7,224.8,193.4,214.6,193.4z"/>
<path class="st41" d="M186.4,193.6c-8.9,1.3-15.7,9.1-15.7,18.3v39.3c0,5,3.2,9.3,7.6,11.1c13.7-3.2,23.9-15.5,23.9-30.1v-20.2
	C202.1,202.7,195.3,194.9,186.4,193.6z"/>
<path class="st42" d="M187.9,185.7c-10.1,1.7-18,10.5-18,21.1v23.8l0.1,0l0,0c14.3,0,26-11.7,26-26l0,0
	C196,197.1,192.9,190.4,187.9,185.7z"/>
<path class="st43" d="M201.4,218.3v2c0,1.2,1,2.2,2.2,2.2l0,0c1.2,0,2.2-1,2.2-2.2v-2c-0.4,0.8-1.2,1.3-2.2,1.3l0,0
	C202.7,219.7,201.8,219.1,201.4,218.3z"/>
<path class="st19" d="M304.7,443.5c13.5,0,24.8,8.7,27.1,20.2c-28.7,2.9-44.7-1.8-52.6-5C283.3,449.7,293.2,443.5,304.7,443.5z"/>
<path class="st42" d="M229.8,242.3h-31.6c4.2-4.5,9.8-7.2,15.8-7.2C220.1,235.1,225.6,237.8,229.8,242.3z"/>
<path class="st33" d="M191.1,276.1c-5.6,0-10.8,1.1-15.7,3.1h-11.2v76.5h11.2c4.8,2,10.1,3.1,15.7,3.1c22.8,0,41.4-18.5,41.4-41.4
	C232.5,294.6,213.9,276.1,191.1,276.1z"/>
<path class="st44" d="M160.6,371.5c21.3-2,38.1-23.6,38.1-49.9c0-26.3-16.8-47.8-38.1-49.9V371.5z"/>
<polygon class="st33" points="199,267.7 174.5,267.7 174.5,280.2 194.5,280.2 "/>
<path class="st44" d="M207.9,390.9c-4.2,3.5-11.4,2.6-16.1-2.1c-4.7-4.6-5.1-11.2-0.8-14.7l65.2-53.8c4.2-3.5,11.4-2.6,16.1,2.1
	c2.1,2.1,3.4,4.6,3.7,7.1l15.9,125.1c-9,1.5-14.7,3.2-22.2,9.6L256.2,351L207.9,390.9z"/>
<path class="st19" d="M174.3,265c0,0-7.7,0.8-13.7,6.7c0,0,18.9,8.3,26.5,23.3l-8.2,5.5c0,0,13.6,13.1,16.7,40.2
	C195.6,340.7,213.6,296,174.3,265z"/>
<path class="st45" d="M209.2,284.4c-0.8,0-1.1,0.9-0.7,2c0.4,1.1,1.4,2,2.2,2c0.8,0,1.1-0.9,0.7-2C211,285.3,210,284.4,209.2,284.4z
	"/>
<path class="st46" d="M181.9,331.3H165v11.2c0,4.6,3.8,8.4,8.4,8.4h0c4.6,0,8.4-3.8,8.4-8.4V331.3z"/>
<path class="st45" d="M218.1,300.1c-0.8-0.2-1.3,0.6-1.2,1.7c0.1,1.2,0.9,2.3,1.7,2.4c0.8,0.2,1.3-0.6,1.2-1.7
	C219.6,301.4,218.9,300.3,218.1,300.1z"/>
<path class="st45" d="M221.4,319.1c-0.7-0.4-1.4,0.1-1.7,1.3c-0.3,1.1,0.1,2.4,0.8,2.9c0.7,0.4,1.4-0.1,1.7-1.3
	C222.5,320.8,222.1,319.5,221.4,319.1z"/>
<path class="st1" d="M155.8,331.6h16.6c28.7,0,52.2,23.5,52.2,52.2v0c0,28.7-23.5,52.2-52.2,52.2h-16.6c-28.7,0-52.2-23.5-52.2-52.2
	v0C103.7,355.1,127.1,331.6,155.8,331.6z"/>
<path class="st22" d="M147.6,331.6L147.6,331.6c24.2,0,44,19.8,44,44v16.3c0,24.2-19.8,44-44,44h0c-24.2,0-44-19.8-44-44v-16.3
	C103.7,351.4,123.5,331.6,147.6,331.6z"/>
<path class="st1" d="M111.5,416.9c-4.9-7.1-7.8-15.7-7.8-24.9v-16.3c0-19.6,12.9-36.3,30.7-41.9c9.6,8.5,15.7,21.8,15.7,36.9
	C150.1,395.7,132.9,416.1,111.5,416.9z"/>
<path class="st8" d="M117.4,331.1h98.6c4.5,0,8.2,3.7,8.2,8.2v0c0,4.5-3.7,8.2-8.2,8.2h-98.6c-4.5,0-8.2-3.7-8.2-8.2v0
	C109.2,334.8,112.9,331.1,117.4,331.1z"/>
<path class="st23" d="M186,331.1h29.9c4.5,0,8.2,3.7,8.2,8.2v0c0,4.5-3.7,8.2-8.2,8.2H186c-4.5,0-8.2-3.7-8.2-8.2v0
	C177.8,334.8,181.5,331.1,186,331.1z"/>
<path class="st42" d="M174.6,200.1c-5.3,0.9-9.3,6-9.3,12v13.5h0.1l0,0c7.4,0,13.5-6.7,13.5-14.8l0,0
	C178.8,206.6,177.2,202.8,174.6,200.1z"/>
<path class="st43" d="M223.2,218.3v2c0,1.2,1,2.2,2.2,2.2l0,0c1.2,0,2.2-1,2.2-2.2v-2c-0.4,0.8-1.2,1.3-2.2,1.3l0,0
	C224.5,219.7,223.6,219.1,223.2,218.3z"/>
<path class="st42" d="M185.5,209.5c-5.3,0.9-9.3,6-9.3,12V235h0.1l0,0c7.4,0,13.5-6.7,13.5-14.8l0,0
	C189.7,216,188.1,212.2,185.5,209.5z"/>
<path class="st19" d="M165.4,263.5c4.3-4.4,11.4-4.5,15.8-0.2c4.4,4.3,4.5,11.4,0.2,15.8L131.1,331c-4.3,4.4-11.4,4.5-15.8,0.2
	s-4.5-11.4-0.2-15.8L165.4,263.5z"/>
<path class="st44" d="M165.4,263.5c3.9-4,10-4.5,14.4-1.4l-37.2,38.4c-3.9,4-10,4.5-14.4,1.4L165.4,263.5z"/>
<path class="st19" d="M195.2,310.9c6.2-0.1,11.3,4.8,11.4,11c0.1,6.2-4.8,11.3-11,11.4l-72.3,1.1c-6.2,0.1-11.3-4.8-11.4-11
	c-0.1-6.2,4.8-11.3,11-11.4L195.2,310.9z"/>
<path class="st9" d="M270.5,286.6L270.5,286.6c1.3,1.3,1.3,3.5,0,4.9l-31.4,31.4c-0.8,0.8-2,1.1-3.1,0.9l-25.1,0.1l9.5-13.9
	l22.8-21.7l-0.6-2.6l25.3,0l0.1,0C269,285.6,269.9,285.9,270.5,286.6z"/>
<path class="st47" d="M244.8,286.6L244.8,286.6c1.3,1.3,1.3,3.5,0,4.9l-31.4,31.4c-1.3,1.3-3.5,1.3-4.9,0l0,0
	c-1.3-1.3-1.3-3.5,0-4.9l31.4-31.4C241.3,285.2,243.4,285.2,244.8,286.6z"/>
<path class="st20" d="M206.9,343.1c9.1,0,16.6-7.5,16.6-16.6c0-9.1-7.5-16.6-16.6-16.6c-9.1,0-16.6,7.5-16.6,16.6
	C190.3,335.6,197.7,343.1,206.9,343.1z"/>
<path class="st48" d="M301.9,273.2L301.9,273.2c0.9,0,1.6,0.7,1.6,1.6v10.1c0,0.9-0.7,1.6-1.6,1.6l0,0c-0.9,0-1.6-0.7-1.6-1.6v-10.1
	C300.3,273.9,301,273.2,301.9,273.2z"/>
<path class="st13" d="M301.9,278.2L301.9,278.2c1.6,0,3,1.3,3,3V322c0,1.6-1.3,3-3,3h0c-1.6,0-3-1.3-3-3v-40.9
	C298.9,279.5,300.2,278.2,301.9,278.2z"/>
<path class="st22" d="M301.9,321.9L301.9,321.9c1,0,1.7,0.8,1.7,1.7v2.8c0,1-0.8,1.7-1.7,1.7h0c-1,0-1.7-0.8-1.7-1.7v-2.8
	C300.1,322.7,300.9,321.9,301.9,321.9z"/>
<path class="st20" d="M294.9,315.2c-0.3,2.3-2.4,3.9-4.7,3.6c-2.3-0.3-3.9-2.4-3.6-4.7c0-0.1,2.5-18.8,20.7-21.1
	c2.3-0.3,4.4,1.3,4.7,3.6c0.3,2.3-1.3,4.4-3.6,4.7C296.6,302.8,294.9,315.2,294.9,315.2z"/>
<path class="st42" d="M199.5,210.9h6.6c1.5,0,2.7,1.2,2.7,2.7v0c0,1.5-1.2,2.7-2.7,2.7h-6.6c-1.5,0-2.7-1.2-2.7-2.7v0
	C196.8,212.1,198,210.9,199.5,210.9z"/>
<path class="st42" d="M222.5,208.1h6.6c1.5,0,2.7,1.2,2.7,2.7v0c0,1.5-1.2,2.7-2.7,2.7h-6.6c-1.5,0-2.7-1.2-2.7-2.7v0
	C219.7,209.4,221,208.1,222.5,208.1z"/>
<path class="st49" d="M206,203.4h16.7c0.7,0,1.3,0.6,1.3,1.3l0,0c0,0.7-0.6,1.3-1.3,1.3H206c-0.7,0-1.3-0.6-1.3-1.3l0,0
	C204.7,204,205.2,203.4,206,203.4z"/>
<path class="st49" d="M212.9,208.6h2.8c0.7,0,1.3,0.6,1.3,1.3l0,0c0,0.7-0.6,1.3-1.3,1.3h-2.8c-0.7,0-1.3-0.6-1.3-1.3l0,0
	C211.6,209.2,212.2,208.6,212.9,208.6z"/>
<path class="st39" d="M204.7,244.1h2.3c1.2,0,2.1,0.9,2.1,2.1v0c0,1.2-0.9,2.1-2.1,2.1h-2.3c-1.2,0-2.1-0.9-2.1-2.1v0
	C202.6,245,203.6,244.1,204.7,244.1z"/>
<path class="st19" d="M231.9,220.2c2,0,3.8,0.8,5,2.1c1.3,1.3,2.1,3.1,2.1,5c0,2-0.8,3.8-2.1,5c-1.3,1.3-3.1,2.1-5,2.1
	c-2,0-3.8-0.8-5-2.1c-1.3-1.3-2.1-3.1-2.1-5v0c-3.2-2.1-6.6-0.3-7.6,0.3c-0.1,1.9-0.9,3.5-2.1,4.8c-1.3,1.3-3.1,2.1-5,2.1
	c-2,0-3.8-0.8-5-2.1c-1.3-1.3-2.1-3.1-2.1-5c0-2,0.8-3.8,2.1-5c1.3-1.3,3.1-2.1,5-2.1c2,0,3.8,0.8,5,2.1c0.8,0.8,1.4,1.8,1.8,2.9
	c1.7-0.9,5-2,8.3-0.3c0.4-1,0.9-1.9,1.7-2.7C228.1,221,229.9,220.2,231.9,220.2L231.9,220.2z M213.5,223.9c-0.9-0.9-2.1-1.4-3.5-1.4
	c-1.3,0-2.6,0.5-3.4,1.4c-0.9,0.9-1.4,2.1-1.4,3.5c0,1.3,0.5,2.6,1.4,3.4c0.9,0.9,2.1,1.4,3.4,1.4c1.3,0,2.6-0.5,3.5-1.4
	c0.9-0.9,1.4-2.1,1.4-3.4C214.9,226,214.4,224.8,213.5,223.9L213.5,223.9z M235.3,223.9c-0.9-0.9-2.1-1.4-3.4-1.4
	c-1.3,0-2.6,0.5-3.5,1.4c-0.9,0.9-1.4,2.1-1.4,3.5c0,1.3,0.5,2.6,1.4,3.4c0.9,0.9,2.1,1.4,3.5,1.4c1.3,0,2.6-0.5,3.4-1.4
	c0.9-0.9,1.4-2.1,1.4-3.4C236.7,226,236.2,224.8,235.3,223.9z"/>
<path class="st19" d="M173.4,221.6c-0.6-0.1-1-0.7-0.9-1.3c0.1-0.6,0.7-1,1.3-0.9l30.2,5.7c0.6,0.1,1,0.7,0.9,1.3
	c-0.1,0.6-0.7,1-1.3,0.9L173.4,221.6z"/>
<path class="st41" d="M165.7,218.8c-2.8,2.8-2.4,7.8,1,11.2c3.3,3.3,8.4,3.8,11.2,1c2.8-2.8,2.4-7.8-1-11.2
	C173.5,216.4,168.5,215.9,165.7,218.8z"/>
<path class="st39" d="M169.5,222.6c-1,1-0.9,2.9,0.4,4.1c1.2,1.2,3.1,1.4,4.1,0.4c1-1,0.9-2.9-0.4-4.1
	C172.4,221.7,170.6,221.6,169.5,222.6z"/>
<path class="st50" d="M297.3,447.6c14.6-1.1,26.8,6.4,29.4,17.2c-31,5-48.4,1.8-56.9-0.7C274.2,455.2,284.8,448.5,297.3,447.6z"/>
<path class="st51" d="M312.3,466.6c-22.2,2.1-35.5-0.5-42.6-2.5c3.2-6.3,9.6-11.6,17.5-14.4C299.8,450.1,309.9,457,312.3,466.6z"/>
<path class="st52" d="M142.9,338.3h19.3c1.2,0,2.1,0.9,2.1,2.1v0c0,1.2-1,2.1-2.1,2.1h-19.3c-1.2,0-2.1-0.9-2.1-2.1v0
	C140.7,339.3,141.7,338.3,142.9,338.3z"/>
<path class="st52" d="M169,338.3h3.6c1.2,0,2.1,0.9,2.1,2.1v0c0,1.2-1,2.1-2.1,2.1H169c-1.2,0-2.1-0.9-2.1-2.1v0
	C166.9,339.3,167.8,338.3,169,338.3z"/>
<path class="st52" d="M116.7,338.3h3.6c1.2,0,2.1,0.9,2.1,2.1v0c0,1.2-1,2.1-2.1,2.1h-3.6c-1.2,0-2.1-0.9-2.1-2.1v0
	C114.6,339.3,115.6,338.3,116.7,338.3z"/>
<path class="st53" d="M205.8,328.8c5.6,0,10.1-3.2,10.1-7.1c0-3.9-4.5-7.1-10.1-7.1c-5.6,0-10.1,3.2-10.1,7.1
	C195.7,325.6,200.2,328.8,205.8,328.8z"/>
<path class="st54" d="M330.8,305.8c-3.6-1.8-6.1-6-6.1-10.9c0-4.9,2.5-9.1,6.1-10.9h11v21.8H330.8z"/>
<path class="st54" d="M331.9,284h98.4c1.2,0,2.3,1,2.3,2.3l0,0c0,1.2-1,2.3-2.3,2.3h-98.4c-1.2,0-2.3-1-2.3-2.3l0,0
	C329.7,285,330.7,284,331.9,284z"/>
<path class="st55" d="M331.9,284h45.6c1.2,0,2.3,1,2.3,2.3l0,0c0,1.2-1,2.3-2.3,2.3h-45.6c-1.2,0-2.3-1-2.3-2.3l0,0
	C329.7,285,330.7,284,331.9,284z"/>
<path class="st56" d="M334.8,288.5h88.4v12.8h-88.4c-3.5,0-6.4-2.9-6.4-6.4l0,0C328.4,291.3,331.3,288.5,334.8,288.5z"/>
<path class="st54" d="M331.9,301.3h98.4c1.2,0,2.3,1,2.3,2.3l0,0c0,1.2-1,2.3-2.3,2.3h-98.4c-1.2,0-2.3-1-2.3-2.3l0,0
	C329.7,302.3,330.7,301.3,331.9,301.3z"/>
<path class="st55" d="M331.9,301.3h45.6c1.2,0,2.3,1,2.3,2.3l0,0c0,1.2-1,2.3-2.3,2.3h-45.6c-1.2,0-2.3-1-2.3-2.3l0,0
	C329.7,302.3,330.7,301.3,331.9,301.3z"/>
<path class="st57" d="M378.4,288.5h49.4c-1.9,0-3.4,1.8-3.4,4v4.8c0,2.2,1.5,4,3.4,4h-49.4c-1.9,0-3.4-1.8-3.4-4v-4.8
	C375,290.3,376.5,288.5,378.4,288.5z"/>
<path class="st57" d="M349,295.9h17.9c0.7,0,1.3,0.6,1.3,1.3v0c0,0.7-0.6,1.3-1.3,1.3H349c-0.7,0-1.3-0.6-1.3-1.3v0
	C347.6,296.5,348.2,295.9,349,295.9z"/>
<path class="st57" d="M336.3,295.9h6.4c0.7,0,1.3,0.6,1.3,1.3v0c0,0.7-0.6,1.3-1.3,1.3h-6.4c-0.7,0-1.3-0.6-1.3-1.3v0
	C334.9,296.5,335.5,295.9,336.3,295.9z"/>
<path class="st55" d="M333.6,288.5h3.1c-3,0-5.4,2.9-5.4,6.4v0c0,3.5,2.4,6.4,5.4,6.4h-3.1c-3,0-5.4-2.9-5.4-6.4v0
	C328.2,291.3,330.6,288.5,333.6,288.5z"/>
<path class="st58" d="M384.7,214.7h41c2.8,0,5.1,2.3,5.1,5.1v6.7c0,2.8-2.3,5.1-5.1,5.1h-41c-2.8,0-5.1-2.3-5.1-5.1v-6.7
	C379.6,216.9,381.9,214.7,384.7,214.7z"/>
<path class="st59" d="M384.7,214.7h41c2.2,0,4,1.4,4.8,3.3h-50.6C380.6,216.1,382.5,214.7,384.7,214.7z"/>
<path class="st60" d="M425.7,214.7h20.5c2.2,0,4,1.4,4.8,3.3h-2.2c-1.7,0-3.1,1.4-3.1,3.1v4c0,1.7,1.4,3.1,3.1,3.1h2.2
	c-0.7,1.9-2.6,3.3-4.8,3.3h-20.5c-2.8,0-5.1-2.3-5.1-5.1v-6.7C420.6,216.9,422.9,214.7,425.7,214.7z"/>
<path class="st61" d="M450.9,228.1h-22.9c-1.7,0-3.1-1.4-3.1-3.1v-4c0-1.7,1.4-3.1,3.1-3.1h22.9c-1.7,0-3.1,1.4-3.1,3.1v4
	C447.9,226.8,449.3,228.1,450.9,228.1z"/>
<path class="st62" d="M385.6,219.2h1.6c0.7,0,1.2,0.5,1.2,1.2v5.7c0,0.7-0.5,1.2-1.2,1.2h-1.6c-0.7,0-1.2-0.5-1.2-1.2v-5.7
	C384.4,219.7,385,219.2,385.6,219.2z"/>
<path class="st63" d="M391.4,219.2L391.4,219.2c0.6,0,1,0.4,1,1v6.1c0,0.5-0.4,1-1,1h0c-0.5,0-1-0.4-1-1v-6.1
	C390.4,219.6,390.9,219.2,391.4,219.2z"/>
<path class="st64" d="M415.3,219.2L415.3,219.2c0.6,0,1,0.4,1,1v6.1c0,0.5-0.4,1-1,1h0c-0.5,0-1-0.4-1-1v-6.1
	C414.3,219.6,414.8,219.2,415.3,219.2z"/>
<g>
	<path class="st65" d="M429.1,220.3h15.7c0.5,0,0.9,0.4,0.9,0.9v0c0,0.5-0.4,0.9-0.9,0.9h-15.7c-0.5,0-0.9-0.4-0.9-0.9v0
		C428.1,220.7,428.6,220.3,429.1,220.3z"/>
	<path class="st65" d="M429.1,223.9h15.7c0.5,0,0.9,0.4,0.9,0.9v0c0,0.5-0.4,0.9-0.9,0.9h-15.7c-0.5,0-0.9-0.4-0.9-0.9v0
		C428.1,224.3,428.6,223.9,429.1,223.9z"/>
</g>
<path class="st15" d="M379.9,197.9h41c2.8,0,5.1,2.3,5.1,5.1v6.7c0,2.8-2.3,5.1-5.1,5.1h-41c-2.8,0-5.1-2.3-5.1-5.1v-6.7
	C374.8,200.1,377.1,197.9,379.9,197.9z"/>
<path class="st16" d="M420.9,197.9h20.5c2.2,0,4,1.4,4.8,3.3H444c-1.7,0-3.1,1.4-3.1,3.1v4c0,1.7,1.4,3.1,3.1,3.1h2.2
	c-0.7,1.9-2.6,3.3-4.8,3.3h-20.5c-2.8,0-5.1-2.3-5.1-5.1v-6.7C415.9,200.1,418.1,197.9,420.9,197.9z"/>
<path class="st56" d="M446.2,211.3h-22.8c-1.7,0-3.1-1.4-3.1-3.1v-4c0-1.7,1.4-3.1,3.1-3.1h22.8c-1.7,0-3.1,1.4-3.1,3.1v4
	C443.1,210,444.5,211.3,446.2,211.3z"/>
<g>
	<path class="st66" d="M424.3,203.5H440c0.5,0,0.9,0.4,0.9,0.9v0c0,0.5-0.4,0.9-0.9,0.9h-15.7c-0.5,0-0.9-0.4-0.9-0.9v0
		C423.4,204,423.8,203.5,424.3,203.5z"/>
	<path class="st66" d="M424.3,207.1H440c0.5,0,0.9,0.4,0.9,0.9l0,0c0,0.5-0.4,0.9-0.9,0.9h-15.7c-0.5,0-0.9-0.4-0.9-0.9l0,0
		C423.4,207.6,423.8,207.1,424.3,207.1z"/>
</g>
<path class="st16" d="M383.7,203.1h1.3c0.5,0,1,0.4,1,1v4.8c0,0.5-0.4,1-1,1h-1.3c-0.5,0-1-0.4-1-1v-4.8
	C382.7,203.5,383.1,203.1,383.7,203.1z"/>
<path class="st16" d="M391.9,203.1h9.7c1.9,0,3.4,1.5,3.4,3.4v0c0,1.9-1.5,3.4-3.4,3.4h-9.7c-1.9,0-3.4-1.5-3.4-3.4v0
	C388.6,204.6,390.1,203.1,391.9,203.1z"/>
<path class="st16" d="M408.3,203.1L408.3,203.1c0.5,0,0.8,0.4,0.8,0.8v5.1c0,0.5-0.4,0.8-0.8,0.8h0c-0.5,0-0.8-0.4-0.8-0.8v-5.1
	C407.5,203.4,407.8,203.1,408.3,203.1z"/>
<path class="st67" d="M405.2,219.9h2.7c1.9,0,3.4,1.5,3.4,3.4v0c0,1.9-1.5,3.4-3.4,3.4h-2.7c-1.9,0-3.4-1.5-3.4-3.4v0
	C401.8,221.4,403.3,219.9,405.2,219.9z"/>
<path class="st54" d="M480.4,209.7h53.2c3.6,0,6.6,3,6.6,6.6v8.6c0,3.6-3,6.6-6.6,6.6h-53.2c-3.6,0-6.6-3-6.6-6.6v-8.6
	C473.8,212.6,476.8,209.7,480.4,209.7z"/>
<path class="st55" d="M533.6,209.7h26.6c2.8,0,5.2,1.8,6.2,4.3h-2.9c-2.2,0-4,1.8-4,4v5.2c0,2.2,1.8,4,4,4h2.9
	c-0.9,2.5-3.3,4.3-6.2,4.3h-26.6c-3.6,0-6.6-3-6.6-6.6v-8.6C527,212.6,530,209.7,533.6,209.7z"/>
<path class="st68" d="M566.3,227.1h-29.6c-2.2,0-4-1.8-4-4V218c0-2.2,1.8-4,4-4h29.6c-2.2,0-4,1.8-4,4v5.2
	C562.3,225.4,564.1,227.1,566.3,227.1z"/>
<path class="st55" d="M485.3,216.4h1.7c0.7,0,1.3,0.6,1.3,1.3v6.2c0,0.7-0.6,1.3-1.3,1.3h-1.7c-0.7,0-1.3-0.6-1.3-1.3v-6.2
	C484,217,484.5,216.4,485.3,216.4z"/>
<path class="st55" d="M496,216.4h12.6c2.4,0,4.4,2,4.4,4.4v0c0,2.4-2,4.4-4.4,4.4H496c-2.4,0-4.4-2-4.4-4.4v0
	C491.6,218.4,493.6,216.4,496,216.4z"/>
<path class="st55" d="M517.2,216.4L517.2,216.4c0.6,0,1.1,0.5,1.1,1.1v6.6c0,0.6-0.5,1.1-1.1,1.1h0c-0.6,0-1.1-0.5-1.1-1.1v-6.6
	C516.1,216.9,516.6,216.4,517.2,216.4z"/>
<path class="st33" d="M637.7,329.2h6.5c1.9,0,3.5,1.6,3.5,3.5l0,0c0,1.9-1.6,3.5-3.5,3.5h-6.5c-1.9,0-3.5-1.6-3.5-3.5l0,0
	C634.2,330.7,635.7,329.2,637.7,329.2z"/>
<path class="st1" d="M438.2,385.5h7.5c3.9,0,7.2,3.2,7.2,7.2v0c0,3.9-3.2,7.2-7.2,7.2h-7.5c-3.9,0-7.2-3.2-7.2-7.2v0
	C431,388.8,434.2,385.5,438.2,385.5z"/>
<path class="st69" d="M614.7,169.8L614.7,169.8c10.2,0,18.6,8.4,18.6,18.6v39.2c0,2.1-1.8,3.9-3.9,3.9H600c-2.1,0-3.9-1.8-3.9-3.9
	v-39.2C596.1,178.1,604.5,169.8,614.7,169.8z"/>
<path class="st33" d="M614.7,201.2c6.9,0,12.5-5.6,12.5-12.5c0-6.9-5.6-12.5-12.5-12.5c-6.9,0-12.5,5.6-12.5,12.5
	C602.2,195.5,607.8,201.2,614.7,201.2z"/>
<path class="st70" d="M614.7,191.1c1.4,0,2.5-1.1,2.5-2.5c0-1.4-1.1-2.5-2.5-2.5c-1.4,0-2.5,1.1-2.5,2.5
	C612.2,190,613.3,191.1,614.7,191.1z"/>
<path class="st70" d="M606.1,183.8L606.1,183.8c0.2-0.4,0.7-0.6,1.2-0.4l7.2,3.8c0.4,0.2,0.6,0.7,0.4,1.2l0,0
	c-0.2,0.4-0.7,0.6-1.2,0.4l-7.2-3.8C606,184.7,605.8,184.2,606.1,183.8z"/>
<path class="st70" d="M614.5,188.6L614.5,188.6c-0.2-0.8,0.3-1.7,1.1-1.9l4.5-1.2c0.8-0.2,1.7,0.3,1.9,1.1l0,0
	c0.2,0.8-0.3,1.7-1.1,1.9l-4.5,1.2C615.5,190,614.7,189.5,614.5,188.6z"/>
<path class="st71" d="M607.1,205.4h15.2c1.3,0,2.4,0.5,3.2,1.3c0.8,0.8,1.4,2,1.4,3.2v10.9c0,1.3-0.5,2.4-1.3,3.2
	c-0.8,0.8-2,1.4-3.2,1.4h-15.2c-1.3,0-2.4-0.5-3.2-1.3c-0.8-0.8-1.4-2-1.4-3.2v-10.9c0-1.3,0.5-2.4,1.3-3.2
	C604.7,205.9,605.8,205.4,607.1,205.4L607.1,205.4z M622.3,207.6h-15.2c-0.6,0-1.2,0.3-1.7,0.7c-0.4,0.4-0.7,1-0.7,1.7v10.9
	c0,0.6,0.3,1.2,0.7,1.7c0.4,0.4,1,0.7,1.7,0.7h15.2c0.6,0,1.2-0.3,1.7-0.7c0.4-0.4,0.7-1,0.7-1.7v-10.9c0-0.6-0.3-1.2-0.7-1.7
	C623.6,207.9,623,207.6,622.3,207.6z"/>
<path class="st33" d="M652.3,331h4.8c1.4,0,2.6,1.2,2.6,2.6l0,0c0,1.4-1.2,2.6-2.6,2.6h-4.8c-1.4,0-2.6-1.2-2.6-2.6l0,0
	C649.7,332.2,650.8,331,652.3,331z"/>
<path class="st33" d="M664.8,331L664.8,331c1.4,0,2.5,1.1,2.5,2.5v0.2c0,1.4-1.1,2.5-2.5,2.5h0c-1.4,0-2.5-1.1-2.5-2.5v-0.2
	C662.3,332.1,663.5,331,664.8,331z"/>
<path class="st72" d="M493.5,209.7c-2.6-1.1-4.5-3.7-4.5-6.7c0-3,1.8-5.6,4.5-6.7h8v13.4H493.5z"/>
<path class="st72" d="M494,196.3h72c0.8,0,1.4,0.6,1.4,1.4v0c0,0.8-0.6,1.4-1.4,1.4h-72c-0.8,0-1.4-0.6-1.4-1.4v0
	C492.6,196.9,493.2,196.3,494,196.3z"/>
<path class="st0" d="M494,196.3h33.6c0.8,0,1.4,0.6,1.4,1.4v0c0,0.8-0.6,1.4-1.4,1.4H494c-0.8,0-1.4-0.6-1.4-1.4v0
	C492.6,196.9,493.2,196.3,494,196.3z"/>
<path class="st56" d="M495.6,199.1h64.9v7.8h-64.9c-2.2,0-3.9-1.8-3.9-3.9v0C491.7,200.8,493.4,199.1,495.6,199.1z"/>
<path class="st72" d="M527.4,206.9H566c0.8,0,1.4,0.6,1.4,1.4v0c0,0.8-0.6,1.4-1.4,1.4h-38.6c-0.8,0-1.4-0.6-1.4-1.4v0
	C526,207.5,526.7,206.9,527.4,206.9z"/>
<path class="st0" d="M494,206.9h33.6c0.8,0,1.4,0.6,1.4,1.4v0c0,0.8-0.6,1.4-1.4,1.4H494c-0.8,0-1.4-0.6-1.4-1.4v0
	C492.6,207.5,493.2,206.9,494,206.9z"/>
<path class="st57" d="M528,199.1h35.9c-1.3,0-2.5,1.1-2.5,2.5v2.9c0,1.3,1.1,2.5,2.5,2.5H528c-1.3,0-2.5-1.1-2.5-2.5v-2.9
	C525.5,200.2,526.6,199.1,528,199.1z"/>
<path class="st0" d="M495.4,199.1h2.2c-2.2,0-3.9,1.8-3.9,3.9l0,0c0,2.2,1.8,3.9,3.9,3.9h-2.2c-2.2,0-3.9-1.8-3.9-3.9l0,0
	C491.5,200.8,493.3,199.1,495.4,199.1z"/>
<path class="st73" d="M343.7,231.5h112.1c3.3,0,5.9,2.7,5.9,5.9v4c0,3.3-2.7,5.9-5.9,5.9H343.7c-3.3,0-5.9-2.7-5.9-5.9v-4
	C337.7,234.1,340.4,231.5,343.7,231.5z"/>
<path class="st73" d="M273.9,231.5h31.4c3.3,0,5.9,2.7,5.9,5.9v4c0,3.3-2.7,5.9-5.9,5.9h-31.4c-3.3,0-5.9-2.7-5.9-5.9v-4
	C267.9,234.1,270.6,231.5,273.9,231.5z"/>
<path class="st74" d="M409.8,175.7h-9.5c-6.1,0-11.1,5-11.1,11.1v0c0,6.1,5,11.1,11.1,11.1h9.5c6.1,0,11.1-5,11.1-11.1v0
	C420.9,180.7,415.9,175.7,409.8,175.7z"/>
<path class="st74" d="M393.3,188.6h16.7l-2.3,13c-0.2,1.4-1.5,2.5-2.9,2.5H393c-1.4,0-2.3-1.1-2-2.5L393.3,188.6z"/>
<path class="st75" d="M421.6,175.7h-9.5c-6.1,0-11.1,5-11.1,11.1v0c0,6.1,5,11.1,11.1,11.1h9.5c6.1,0,11.1-5,11.1-11.1v0
	C432.7,180.7,427.7,175.7,421.6,175.7z"/>
<path class="st75" d="M404.4,199.8L404.4,199.8c-0.9,0-1.9,0.8-2,1.7L402,204c-0.2,0.9,0.5,1.7,1.4,1.7h0c0.9,0,1.9-0.8,2-1.7
	l0.4-2.5C406,200.6,405.4,199.8,404.4,199.8z"/>
<path class="st75" d="M399.5,199.8L399.5,199.8c-0.9,0-1.9,0.8-2,1.7l-0.4,2.5c-0.2,0.9,0.5,1.7,1.4,1.7h0c0.9,0,1.9-0.8,2-1.7
	l0.4-2.5C401.1,200.6,400.5,199.8,399.5,199.8z"/>
<path class="st75" d="M394.6,199.8L394.6,199.8c-0.9,0-1.9,0.8-2,1.7l-0.4,2.5c-0.2,0.9,0.5,1.7,1.4,1.7h0c0.9,0,1.9-0.8,2-1.7
	l0.4-2.5C396.2,200.6,395.5,199.8,394.6,199.8z"/>
<path class="st76" d="M394.7,184.2h-1.2c-1.7,0-3,1.4-3,3l0,0c0,1.7,1.4,3,3,3h1.2c1.7,0,3-1.4,3-3l0,0
	C397.7,185.6,396.4,184.2,394.7,184.2z"/>
<path class="st76" d="M407.3,184.2h-1.2c-1.7,0-3,1.4-3,3l0,0c0,1.7,1.4,3,3,3h1.2c1.7,0,3-1.4,3-3l0,0
	C410.3,185.6,408.9,184.2,407.3,184.2z"/>
<path class="st9" d="M352,178.3h15.3v17.1c0,4.2-3.4,7.6-7.6,7.6l0,0c-4.2,0-7.6-3.4-7.6-7.6V178.3z"/>
<path class="st9" d="M352,227.7h15.3v-17.1c0-4.2-3.4-7.6-7.6-7.6l0,0c-4.2,0-7.6,3.4-7.6,7.6V227.7z"/>
<path class="st75" d="M354.3,192.8v2.6l0,0.1v0l0,0.1l0,0l0,0.1l0,0.1l0,0.1l0,0.1l0,0l0,0.1l0,0l0,0.1l0,0l0,0.1l0,0l0,0.1l0,0
	l0,0.1l0,0l0,0.1l0,0.1l0,0.1l0,0.1l0,0l0,0.1l0,0l0,0.1l0,0l0,0.1l0,0l0,0.1l0,0l0,0.1l0,0l0,0.1l0,0.1l0,0l0,0.1l0,0l0,0.1l0,0
	l0.1,0.1l0,0l0.1,0.1l0,0l0,0.1l0,0l0,0.1l0,0l0,0l0,0.1l0,0l0.1,0.1l0,0l0.1,0.1l0,0l0.1,0.1l0,0l0.1,0.1l0,0l0.1,0.1l0,0l0,0l0,0
	l0,0l0.1,0.1l0,0l0.1,0.1l0,0l0.1,0.1l0,0l0.1,0.1l0,0l0.1,0.1l0.1,0.1l0,0l0,0l0.1,0l0,0l0.1,0.1l0,0l0.1,0.1l0,0l0.1,0.1l0,0
	l0.1,0.1l0,0l0.1,0l0,0l0.1,0l0.1,0l0,0l0.1,0l0,0l0.1,0l0,0l0.1,0l0,0l0.1,0l0.1,0l0,0l0.1,0l0.1,0l0.1,0l0.1,0l0,0l0.1,0l0,0
	l0.1,0l0,0l0.1,0l0,0l0.1,0l0,0l0.1,0l0.1,0v14.8h-1.7c-1.3,0-2.4,1.1-2.4,2.4v7.2h10.6v-7.2c0-1.3-1.1-2.4-2.4-2.4h-1.7v-14.8
	l0.1,0l0.1,0l0,0l0.1,0l0,0l0.1,0l0,0l0.1,0l0,0l0.1,0l0,0l0.1,0l0.1,0l0.1,0l0.1,0l0,0l0.1,0l0.1,0l0,0l0.1,0l0,0l0.1,0l0,0l0.1,0
	l0,0l0.1,0l0.1,0l0,0l0.1,0l0,0l0.1-0.1l0,0l0.1-0.1l0,0l0.1-0.1l0,0l0.1-0.1l0,0l0.1,0l0,0l0,0l0.1-0.1l0.1-0.1l0,0l0.1-0.1l0,0
	l0.1-0.1l0,0l0.1-0.1l0,0l0.1-0.1l0,0l0,0l0,0l0,0l0.1-0.1l0,0l0.1-0.1l0,0l0.1-0.1l0,0l0.1-0.1l0,0l0.1-0.1l0,0l0-0.1l0,0l0,0
	l0-0.1l0,0l0-0.1l0,0l0.1-0.1l0,0l0.1-0.1l0,0l0-0.1l0,0l0-0.1l0,0l0-0.1l0-0.1l0,0l0-0.1l0,0l0-0.1l0,0l0-0.1l0,0l0-0.1l0,0l0-0.1
	l0,0l0-0.1l0-0.1l0-0.1l0-0.1l0,0l0-0.1l0,0l0-0.1l0,0l0-0.1l0,0l0-0.1l0,0l0-0.1l0,0l0-0.1l0-0.1l0-0.1l0-0.1l0,0l0-0.1v0l0-0.1
	v-2.6v-1.9c-1.4,0.9-3.2,1.5-5.3,1.5c-2,0-3.9-0.6-5.3-1.5V192.8z"/>
<path class="st77" d="M351.6,226.3h16c1.4,0,2.6,1.2,2.6,2.6v0c0,1.4-1.2,2.6-2.6,2.6h-16c-1.4,0-2.6-1.2-2.6-2.6v0
	C349,227.4,350.2,226.3,351.6,226.3z"/>
<path class="st78" d="M351.6,226.3h6.6c1.4,0,2.6,1.2,2.6,2.6v0c0,1.4-1.2,2.6-2.6,2.6h-6.6c-1.4,0-2.6-1.2-2.6-2.6v0
	C349,227.4,350.2,226.3,351.6,226.3z"/>
<path class="st77" d="M351.6,175.7h16c1.4,0,2.6,1.2,2.6,2.6v0c0,1.4-1.2,2.6-2.6,2.6h-16c-1.4,0-2.6-1.2-2.6-2.6v0
	C349,176.9,350.2,175.7,351.6,175.7z"/>
<path class="st78" d="M351.6,175.7h6.6c1.4,0,2.6,1.2,2.6,2.6v0c0,1.4-1.2,2.6-2.6,2.6h-6.6c-1.4,0-2.6-1.2-2.6-2.6v0
	C349,176.9,350.2,175.7,351.6,175.7z"/>
<path class="st79" d="M252.8,220.6h67.8c2.1,0,3.8,1.7,3.8,3.8v3.2c0,2.1-1.7,3.8-3.8,3.8h-67.8c-2.1,0-3.8-1.7-3.8-3.8v-3.2
	C249,222.3,250.7,220.6,252.8,220.6z"/>
<path class="st33" d="M298.5,223.1h26.3c1.2,0,2.1,0.9,2.1,2.1v1.7c0,1.2-0.9,2.1-2.1,2.1h-26.3c-1.2,0-2.1-0.9-2.1-2.1v-1.7
	C296.4,224,297.3,223.1,298.5,223.1z"/>
<g>
	<path class="st80" d="M209.6,467.7c6.6,5.4,7.6,15.1,2.2,21.7c-5.4,6.6-15.1,7.6-21.7,2.2c-6.6-5.4-7.6-15.1-2.2-21.7
		C193.2,463.3,203,462.3,209.6,467.7z"/>
	<path class="st81" d="M208.6,469.7c1.8,4.7-1.8,10.4-7.9,12.8c-6.2,2.3-12.6,0.4-14.4-4.3c-1.8-4.7,1.8-10.4,7.9-12.8
		C200.4,463.1,206.8,465,208.6,469.7z"/>
	<path class="st82" d="M184.4,478.8c0.1-1.3,0.3-2.7,0.8-4c0.2,0.2,0.4,0.4,0.6,0.6l8.5,7c1.2,1,2.7,1.4,4.1,1.2l0,0
		c1.4-0.1,2.8-0.8,3.8-2c1-1.2,1.4-2.7,1.2-4.1c-0.1-1.4-0.8-2.8-2-3.8l-8.5-7c-0.2-0.2-0.4-0.3-0.7-0.5c1.2-0.7,2.5-1.2,3.8-1.5
		l7.7,6.3c1.9,1.6,3.1,3.8,3.3,6.1c0.2,2.3-0.4,4.7-2,6.7c-1.6,1.9-3.8,3-6.1,3.3l0,0c-2.3,0.2-4.7-0.4-6.7-2L184.4,478.8z"/>
</g>
<g>
	<path class="st13" d="M549.7,325.8c6.6,5.4,7.6,15.1,2.2,21.7c-5.4,6.6-15.1,7.6-21.7,2.2c-6.6-5.4-7.6-15.1-2.2-21.7
		C533.4,321.3,543.1,320.4,549.7,325.8z"/>
	<path class="st13" d="M548.8,327.8c1.8,4.7-1.8,10.4-7.9,12.8c-6.2,2.3-12.6,0.4-14.4-4.3c-1.8-4.7,1.8-10.4,8-12.8
		C540.5,321.2,547,323.1,548.8,327.8z"/>
	<path class="st33" d="M524.5,336.9c0.1-1.3,0.3-2.7,0.8-4c0.2,0.2,0.4,0.4,0.6,0.6l8.5,7c1.2,1,2.7,1.4,4.1,1.2l0,0
		c1.4-0.1,2.8-0.8,3.8-2c1-1.2,1.4-2.7,1.2-4.1c-0.1-1.4-0.8-2.8-2-3.8l-8.5-7c-0.2-0.2-0.4-0.3-0.7-0.5c1.2-0.7,2.5-1.2,3.8-1.5
		l7.7,6.3c1.9,1.6,3.1,3.8,3.3,6.1c0.2,2.3-0.4,4.7-2,6.7c-1.6,1.9-3.8,3-6.1,3.3l0,0c-2.3,0.2-4.7-0.4-6.7-2L524.5,336.9z"/>
</g>
<path class="st25" d="M543.7,368.8c1.1,4.9-3.1,9.9-9.5,11.1c-6.4,1.2-12.4-1.7-13.5-6.6c-0.1-0.3-13.3-56.9-41.5-57.5
	c-14.2-0.3-32.6,10.2-54.4,56.6c-2.3,4.8-9,7.6-15,6.2c-6-1.4-9.1-6.5-6.8-11.3c31.7-67.5,58.9-75.1,79.7-75.1
	C524.5,292.2,543.6,368.4,543.7,368.8z"/>
<path class="st27" d="M399.1,358.2c15.8,0,28.6,9.7,28.6,21.7c0,0.2,0,0.5,0,0.7h-57.2c0-0.2,0-0.5,0-0.7
	C370.5,367.9,383.3,358.2,399.1,358.2z"/>
<path class="st33" d="M373.1,372.3h51.9c2.4,0,4.3,1.9,4.3,4.3v0c0,2.4-1.9,4.3-4.3,4.3h-51.9c-2.4,0-4.3-1.9-4.3-4.3v0
	C368.8,374.3,370.7,372.3,373.1,372.3z"/>
<path class="st29" d="M465.2,280.9c8.3-3.6,17.7-0.3,20.9,7.2c3.2,7.5-0.9,16.5-9.3,20.1c-8.3,3.6-17.7,0.3-20.9-7.2
	C452.7,293.4,456.9,284.4,465.2,280.9z"/>
<path class="st83" d="M463.5,281.6c5.1-2.2,10.9-0.2,12.9,4.4c2,4.6-0.6,10.2-5.7,12.4c-5.1,2.2-10.9,0.2-12.9-4.4
	C455.8,289.3,458.3,283.8,463.5,281.6z"/>
<path class="st29" d="M485.1,287.6c2.9-1.3,6.3-0.1,7.4,2.5c1.1,2.7-0.3,5.8-3.3,7.1c-2.9,1.3-6.3,0.1-7.4-2.5
	C480.7,292.1,482.2,288.9,485.1,287.6z"/>
<path class="st84" d="M656.7,247.3h15.2v14.5c0-4.2-3.5-7.6-7.8-7.6h-7.4V247.3z"/>
<path class="st84" d="M145.7,247.3h15.2v14.2c0-4.1-3.5-7.5-7.8-7.5h-7.4V247.3z"/>
</svg>
